<?xml version="1.0" encoding="utf-8"?>
<!-- Generator: Adobe Illustrator 26.0.1, SVG Export Plug-In . SVG Version: 6.00 Build 0)  -->
<svg version="1.1" id="Layer_1" width="1em" height="1em" xmlns="http://www.w3.org/2000/svg" xmlns:xlink="http://www.w3.org/1999/xlink" x="0px" y="0px"
	 viewBox="0 0 937 775" style="enable-background:new 0 0 937 775;" xml:space="preserve">
<style type="text/css">
	.st0{fill-rule:evenodd;clip-rule:evenodd;fill:#D6D3D3;}
	.st1{fill-rule:evenodd;clip-rule:evenodd;fill:#310401;}
	.st2{fill-rule:evenodd;clip-rule:evenodd;fill:#CB3805;}
	.st3{fill-rule:evenodd;clip-rule:evenodd;fill:#780500;}
	.st4{fill-rule:evenodd;clip-rule:evenodd;fill:#ED6437;}
	.st5{fill-rule:evenodd;clip-rule:evenodd;fill:#FEE7D5;}
	.st6{fill-rule:evenodd;clip-rule:evenodd;fill:#F0BC95;}
	.st7{fill-rule:evenodd;clip-rule:evenodd;fill:#401715;}
	.st8{fill-rule:evenodd;clip-rule:evenodd;fill:#2A3C59;}
	.st9{fill-rule:evenodd;clip-rule:evenodd;fill:#5A7596;}
	.st10{fill-rule:evenodd;clip-rule:evenodd;fill:#7790AE;}
</style>
<path class="st0" d="M252,720.3l-168.3,6L0,754.5l12.1,15.9l278.4,1.1l90.8,3.5l93.1-11l154.1,10.8l244.8-4.9l63.7-28.7L826.3,708
	l-159.5,5L252,720.3z"/>
<path class="st1" d="M349,21.7L171.5,11.4L128.2,0L78.3,39.5l76.4,76.2l-1.5,25l-8.3,43.3l70.2,22.4L178,264l31.6-6.5l-16.9,37.5
	L335.6,337l99.6,6.6l99.7-6.6l142.9-41.9l-16.9-37.5l31.6,6.5l-37.2-57.5l70.2-22.4l-8.3-43.3l-1.4-25l76.4-76.2L742.2,0l-43.3,11.4
	L521.4,21.7H349z"/>
<path class="st2" d="M375.6,36.8l-49.1,7.3L283,126.6l-16.7-15.7l3.8,26.7l-27.4,6.4l22.8,9.7l-61.2,93.9l26.7-5.4l-21,46.6
	l128.2,37.7l97.1,6.4l97.2-6.4l128.2-37.7l-21.1-46.6l26.7,5.4L605,153.7l22.8-9.7l-27.4-6.4l3.8-26.7l-16.7,15.7l-43.5-82.5
	l-49.1-7.3H375.6z"/>
<path class="st3" d="M389.5,217.2l-10.2-17.8l-31.5-7.9l-19.5-12.6l-1.3-30l-37.3,100.7l48.4,77.2l97.1,7.3l97.2-7.3l48.4-77.2
	l-37.3-100.7l-1.3,30l-19.5,12.6l-43.1,9.4l1.3,16.3l-45.8-9.3L389.5,217.2z"/>
<path class="st4" d="M290.3,113.4l-7.3,13.3l-16.7-15.7l3.8,26.7l-27.4,6.4l22.8,9.7l-61.2,93.9l26.7-5.4l-21,46.6l58.7,17.3
	l-38.9-29L290.3,113.4z"/>
<path class="st5" d="M435.2,188.5l-19.9,0.7l-38.1,30.7h-27.6L330.4,249l62.7,68.7l42.1,9.2l42.1-9.2l72.4-63l-19.2-29.1l-37.3-5.7
	l-38.1-30.7L435.2,188.5z"/>
<path class="st6" d="M435.2,308.6h-33.9l-34.6-54.2l-25.1,7l51.4,56.4l42.1,9.2l42.1-9.2l48.4-42.2l-20-16.2l-36.6,49.2H435.2z"/>
<path class="st6" d="M411.9,119.9l9-43.2l-39.3-8.7l-3.9,41L411.9,119.9z"/>
<path class="st6" d="M349.3,107.4l21.8-13.7l-2.9,33.6l-16.4-2.7L349.3,107.4z"/>
<path class="st5" d="M331.7,75.6l3.9-30.9l-96-7L128.7,12.1L96.2,39.2l72.2,74.6l-1.6,23.9l29.4,30.9l-33.6-18l-6.2,25.5l67.7,22.2
	l28.6-25.6l-39.1-20.3l-9.8-44.8l-58.5-56l148.9,55.2L331.7,75.6z"/>
<path class="st6" d="M145.1,52.2l88.2,42.6l60.9,12l37.4-31.1l-36.5,13.3l-58.8-7.2L145.1,52.2z M224.1,198.3l28.6-25.6l-39.1-20.3
	l-9.8-44.8l-58.5-56l50,56l3.3,44.2L224.1,198.3z"/>
<path class="st3" d="M335.6,44.8l22.1-5.3l-190-18.3l71.9,16.7L335.6,44.8z"/>
<path class="st1" d="M435.2,212.6l-26.2-3.7l-3.5,6.9l25.1,21.7l0.2,8.8l-3.9,3.5l-48.8-6.6l-7.4-10l-7.1,1.6l3.7,17.5h7.8l60.1,4.4
	l61.3-2.8l7,3.5l6.2-13.3l-4-3.5l-8.8,6.2l-53.6,3.1l-3.8-3.5l0.2-8.8l25.1-21.7l-3.5-6.9L435.2,212.6z"/>
<path class="st6" d="M435.2,212.6L409,210l16.5-21.4h9.8h9.8l16.5,21.4L435.2,212.6z"/>
<path class="st5" d="M289.7,249.6l48.4,76.8L268.6,306l-18.1-45.7l20.3-20.6l-19-0.3l75.3-90.6L289.7,249.6z"/>
<path class="st4" d="M435.2,188.5l-19.9,0.7l7.4-35.3h12.5h12.5l7.4,35.3L435.2,188.5z"/>
<path class="st4" d="M435.2,72.6L383,36.8h52.2h52.2L435.2,72.6z"/>
<path class="st6" d="M338.1,326.4l-15.8-22.6l-40.5-16.1l-14.9-26.6l3.9-21.4l-20.3,20.6l18.1,45.7L338.1,326.4z"/>
<path class="st5" d="M381.6,68.1l39.3,8.7l-7.8,37.4l-17.5-7.4L381.6,68.1z"/>
<path class="st5" d="M349.3,107.4l21.8-13.7l-9.8,26.6L349.3,107.4z"/>
<path class="st6" d="M458.5,124.1l-9-43.2l39.3-8.7l3.9,41L458.5,124.1z"/>
<path class="st6" d="M521.1,109.4l-21.8-13.7l2.9,33.7l16.4-2.7L521.1,109.4z"/>
<path class="st4" d="M469.8,187.9L531,181l5.8-7l-26.4-29.6l-30.7,5.4L460.2,180L469.8,187.9z"/>
<path class="st5" d="M580.7,249.6l-48.4,76.8l69.5-20.4l18.1-45.7l-20.3-20.6l19.1-0.3l-75.3-90.6L580.7,249.6z"/>
<path class="st6" d="M532.4,326.4l15.8-22.6l40.5-16.1l14.9-26.6l-3.9-21.4l20.3,20.6L601.9,306L532.4,326.4z"/>
<path class="st5" d="M488.8,72.2l-39.3,8.7l7.8,37.4l17.5-7.4L488.8,72.2z"/>
<path class="st5" d="M521.1,109.4l-21.8-13.7l9.8,26.6L521.1,109.4z"/>
<path class="st4" d="M580.2,113.4l7.2,13.3l16.7-15.7l-3.8,26.7l27.4,6.4l-22.8,9.7l61.2,93.9l-26.7-5.4l21.1,46.6L601.9,306
	l38.9-29L580.2,113.4z"/>
<path class="st5" d="M538.7,75.6l-3.9-30.9l96-7l110.9-25.7l32.5,27.2L702,113.8l1.7,23.9l-29.5,30.9l33.6-18l6.2,25.5l-67.7,22.2
	l-28.6-25.6l39.1-20.3l9.8-44.8l58.5-56l-148.9,55.2L538.7,75.6z"/>
<path class="st6" d="M725.3,52.2l-88.2,42.6l-60.9,12l-37.5-31.1l36.6,13.3l58.7-7.2L725.3,52.2z M646.5,198.3l-28.6-25.6l39.1-20.3
	l9.4-44.8l58.5-56l-49.9,56l-3.3,43.9L646.5,198.3z"/>
<path class="st3" d="M535,44.8l-22.1-5.3l190.1-18.3l-72,16.7L535,44.8z"/>
<path class="st1" d="M737.6,495l-27.9,98.4l-79.4,39.8l-27.6,89.3l201.6-11.7l121.7-227L922,303.2l-80.9-64.6l-114.8,21.3
	l-43.5,89.1L737.6,495z"/>
<path class="st2" d="M747.1,494l-28.2,106.1l-86,38.7L610.1,714l185.1-13.6l121.7-218.8l-3.7-174.1l-74.8-59.7l-105.6,22.4
	l-37.8,81.6L747.1,494z"/>
<path class="st3" d="M747.1,494l-28.2,106.1l-86,38.7l-10.1,33.4l111.6-9l87.1-163.4l-58.7-143.2l36.4-100.5l-66.3,14.1l-37.8,81.6
	L747.1,494z"/>
<path class="st4" d="M795.9,701l121.1-219.3l-3.7-174.1l-74.8-59.7l34.7,76.6l15,162.1L782.1,688l-167,9.8l-5,16.3L795.9,701z"/>
<path class="st7" d="M732.9,270.3l-26.8,57.9l56.7,28.5L874.1,335l26.6-37.5l-62.3-49.7L732.9,270.3z"/>
<path class="st7" d="M722.7,427.4l-16.7-45.9l63.4,31.5l109.5-24.9l35.5-28.4l1.6,74.5l-31.8,13.7l-110.1,7.8L722.7,427.4z"/>
<path class="st7" d="M747.1,494l-11.4-31.2l57.8,40.4l85.4,1.1l38.1-22.6l-31.3,56.6l-30.1,10.2l-72.2-16.8L744.2,505L747.1,494z"/>
<path class="st7" d="M837.6,625.4l29.6-53.7l-32.1,15.6L784.7,569l-49.8-29.2l-7.4,26.9l38.3,37.5l49,21.5L837.6,625.4z"/>
<path class="st7" d="M795.9,701l21.3-35.3l-21.1-4l-47.5-24.8l-29.6-36.8l-15.5,7l27.3,56.4l31.6,25.8l22.1,12.6L795.9,701z"/>
<path class="st7" d="M683.6,615.9l9.4,46.5l14.2,30l19.4,13.5l-37.9,2.4L680,694l-9.1-25.6l-7.6-43.2L683.6,615.9z"/>
<path class="st8" d="M743.8,670.3l2.8,17.9l-19.3,57.9H119.8l-19.3-57.9l3-19.1l-84.8-64.7L6.2,546.2L102,390.4l70-48.8l3.1,0.5
	l44.1-76.5l122.6,34.2l120.7,7.8l32.3,21.4l155.6-53.7l27.7,74.6l6.6-1.2l59.8,41.6l95.8,155.8l-12.4,58.2L743.8,670.3z"/>
<path class="st9" d="M289.1,420.5l89.1,28.4l63.5-111.4l43.3,2.7l-24.3-17.5l-120.2-9.4l-116.1-33.1l-37.8,63.4l35.1,10.8
	L289.1,420.5z"/>
<path class="st9" d="M487.6,350.6l-38.5-1.3l-43.9,80l157.3-27.6l-62.8,24.2l43.2,22.3l101.3-90.8l24.1-4.6l-24.1-62.2L487.6,350.6z
	"/>
<path class="st9" d="M109.6,397.6l64.8-45.2l38.5,6.7l66.2,79.6l37.1,8.1l23.6,40.5l29.7-14.2l54,7.4l-7.4,101.2l-60.8-20.9
	l-66.2-101.2l35.8,108l-62.8-95.2l-70.9-78.2l-27,29.7l49.2,34.4l21.7,49.9l-35.8-37.1l-95.2-5.4l89.8,16.9l38.5,42.5l6,32.3
	l-85.1-41.8l-66.8,13.5l-45.3,46.6l67.2,56l-2.9,26.3l-77.8-59.4L17.1,548L109.6,397.6z"/>
<path class="st9" d="M417.5,679.9l-2.7,56h-54.6l-107.4-11.4l-18.2-27l54-22.2l-77.7-13.5l-63.5,35.7l83.1,38.5H127.1L111,687.3
	l10.6-68.9l92-29.6l97.2-5.4l91.8,55.4L417.5,679.9z"/>
<path class="st9" d="M737.4,397.6l-54.8-38.1l-34.3,6l-103.6,93.8l-30,13.8L485,459l-40.9,10.5L431,581.7l60.7-20.9l66.2-101.2
	l-35.8,108l62.8-95.2l70.9-78.2l27,29.7l-49.3,34.4l-21.6,49.9l35.8-37.1l95.2-5.4l-89.8,16.9l-38.5,42.5l-6,32.3l85.1-41.8
	l66.9,13.5l45.3,46.6l-66.9,59.4l3.7,23.2l76.6-59.7l10.8-50.6L737.4,397.6z"/>
<path class="st9" d="M429.6,679.9l2.7,56H487l107.3-11.4l18.3-27l-54-22.2l77.6-13.5l63.5,35.7l-83.1,38.5h103.3l16.2-48.5
	l-10.7-68.9l-91.9-29.6l-97.3-5.4l-91.8,55.4L429.6,679.9z"/>
<path class="st10" d="M668.4,352.8l-24.1-62.2l-156.6,60l-35.3,53.7l123.5-28.4l39.2-36.5l40.3,5.6L668.4,352.8z"/>
<path class="st10" d="M737.4,397.6l-54.8-38.1l-10,1.8l30.5,61.2l36.2,19.5l27.7,32.4l-24.1-8.7l-89.8,16.9L767,506.8l51.3,48.5
	l0.9,43.2l10.8-50.6L737.4,397.6z"/>
<path class="st10" d="M421.2,319.6l-80.7-6.3l-116.1-33.1l-37.8,63.4l5.1,1.5l40.3-5.6l75.6,52l64.8,8.8L421.2,319.6z"/>
<path class="st10" d="M109.6,397.6l64.8-45.2l19.3,3.4l-42,68.1L107.7,442l-27.6,32.4l24.1-8.7l89.8,16.9L80.1,506.8l-51.3,48.5
	l-0.9,43.2L17.1,548L109.6,397.6z"/>
<path class="st1" d="M207.1,559.8l0.3-0.8l31-2.8l12,36.7l-30.8,11.7l-20.9-8.8l-4.3,10l-36.2,8.1l-0.1,0.3l-32.6,9l-1.7,3.5
	l-5.4-1.5l-22.7-6.4l15.7-53.1l19.5,1.9l23.4-20.5l13.3,8l21-15.3L207.1,559.8z"/>
<path class="st7" d="M219.8,593.6l-13.3-5.6l8.1-19.4l16.7-1.5l6.6,19.9L219.8,593.6z M187.1,553.3l12.6,13.7l-12.7,30.1l-23.2,5.2
	v-25.2l-12.8,28.6l-20.7,5.6l2.5-25.2l-14.2,28.4l-10.5-2.9l10.5-34.9l15.5,1.5l21.1-18.5l12.8,7.7L187.1,553.3z"/>
<path class="st1" d="M636.8,559.8l-0.3-0.8l-31-2.8l-12,36.7l30.9,11.7l20.9-8.8l4.2,10l36.2,8.1l0.2,0.3l32.6,9l1.7,3.5l5.4-1.5
	l22.7-6.4l-15.6-53.1l-19.5,1.9L689.8,547l-13.3,8l-21-15.3L636.8,559.8z"/>
<path class="st7" d="M624.2,593.6l13.3-5.6l-8-19.4l-16.7-1.5l-6.6,19.9L624.2,593.6z M656.8,553.3l-12.7,13.7l12.8,30.1l23.1,5.2
	l0.4-25.2l12.8,28.6l20.7,5.6l-2.6-25.2l14.2,28.4l10-2.9l-10.4-34.9l-15.4,1.5l-21.1-18.5l-12.8,7.7L656.8,553.3z"/>
<path class="st4" d="M400.7,187.9l-61.2-6.9l-5.7-7l26.4-29.6l30.7,5.4l19.4,30.1L400.7,187.9z"/>
<path class="st1" d="M400.9,188.2l-16.8-12.4l-23-2.6l-21.7,7.7l-6-6.8l24.3-13.4l30.8,4.3l21.6,14.9L400.9,188.2z"/>
<path class="st1" d="M469.5,188.2l16.8-12.4l23.1-2.6L531,181l6-6.8l-24.3-13.4l-30.9,4.3L460.2,180L469.5,188.2z"/>
</svg>
