<svg width="1150" height="839" viewBox="0 0 1150 839" fill="none" xmlns="http://www.w3.org/2000/svg">
<path opacity="0.5" d="M406.756 838.806C552.146 838.806 670.008 830.854 670.008 821.046C670.008 811.237 552.146 803.286 406.756 803.286C261.366 803.286 143.504 811.237 143.504 821.046C143.504 830.854 261.366 838.806 406.756 838.806Z" fill="#C6C6C6"/>
<path opacity="0.5" d="M1001.64 832.593C1057.1 832.593 1102.07 826.828 1102.07 819.715C1102.07 812.603 1057.1 806.838 1001.64 806.838C946.174 806.838 901.211 812.603 901.211 819.715C901.211 826.828 946.174 832.593 1001.64 832.593Z" fill="#C6C6C6"/>
<path fill-rule="evenodd" clip-rule="evenodd" d="M98.2053 526.487L11.7422 568.01L2.85547 680.85L71.7275 739.1L397.862 677.305L475.33 582.725L435.144 580.098L408.903 553.1L349.39 582.05L98.2053 526.487Z" fill="#CA3C27"/>
<path fill-rule="evenodd" clip-rule="evenodd" d="M96.7814 527.075L12.2969 568.949L86.1457 578.552L330.395 611.161L435.692 581.037L408.836 552.128L350.431 582.955L96.7814 527.075Z" fill="#EB6337"/>
<path fill-rule="evenodd" clip-rule="evenodd" d="M339.369 653.245L1.03906 679.27L68.3714 736.399L397.862 677.305L464.478 598.837L426.014 592.922L382.398 636.646L339.369 653.245Z" fill="#A73225"/>
<path fill-rule="evenodd" clip-rule="evenodd" d="M71.2058 738.648L116.011 730.22L75.6087 674.421L84.6845 578.646L136.364 535.111L95.2526 526.204L12.3213 569.435L2.71875 678.905L71.2058 738.648Z" fill="#401714"/>
<path fill-rule="evenodd" clip-rule="evenodd" d="M192.157 716.235L245.187 706.761L219.344 664.123L223.092 597.5L254.215 560.245L200.281 549.285L162.809 586.493L160.473 666.676L192.157 716.235Z" fill="#401714"/>
<path fill-rule="evenodd" clip-rule="evenodd" d="M302.388 694.072L368.079 684.22L339.306 655.932L330.878 611.127L346.241 578.849L298.404 571.38L273.844 604.773L279.503 659.039L302.388 694.072Z" fill="#401714"/>
<path fill-rule="evenodd" clip-rule="evenodd" d="M417.352 655.486L452.94 612.066L416.204 602.862L408.175 585.358L413.24 552.317L381.042 566.714L368.691 600.248L382.413 636.889L417.352 655.486Z" fill="#401714"/>
<path d="M416.311 551.932L351.451 584.751L97.5445 528.858L13.823 570.827L5.49004 678.163L70.3914 733.968L395.654 675.462L470.03 583.535L474.149 586.871L398.531 680.324L68.8517 739.634L0 680.425L8.77191 567.43L96.8489 523.28L350.748 579.166L413.921 547.199L416.311 551.932Z" fill="#2E100D"/>
<path fill-rule="evenodd" clip-rule="evenodd" d="M229.624 367.148L191.883 419.415L146.882 631.359L93.1632 661.848L101.874 685.078L146.882 672.011L119.162 724.122L134.74 735.805L170.105 692.337L173.009 748.953L199.142 746.049L209.305 683.626L236.883 698.138L254.306 672.733L228.902 642.974L261.565 532.646L298.395 477.705L350.115 522.483L416.893 605.232L509.805 619.751L569.325 592.166L660.029 683.714L743.527 686.529L782.727 576.195L776.92 531.194L724.66 525.387L698.526 571.84L657.881 503.609L777.885 332.797L791.229 289.383L679.99 203.946L650.777 239.243L684.616 303.017L594.547 402.087L557.467 384.152L498.191 327.955L586.747 165.367L634.652 168.271L644.815 147.945L614.326 126.167L647.718 57.9365L627.392 41.9661L596.91 85.5218L595.458 27.4543L572.228 24.5506L557.71 82.6181L540.294 34.7136L515.613 46.3217L527.228 102.944L521.42 131.974L469.376 197.679L453.696 186.179L478.006 179.906L421.546 140.956L424.679 116.909L407.163 99.9188L398.276 113.776L394.616 89.9854L362.992 67.5053L356.719 4.24487L325.872 7.38493L270.195 73.2587L188.371 118.219L76.7538 133.636L52.707 158.473L101.064 203.433L94.534 229.31L115.468 249.237L101.327 248.656L103.157 272.703L148.901 295.703L145.504 354.257L167.721 334.654L167.464 376.217L229.624 367.148Z" fill="#CA3C27"/>
<path fill-rule="evenodd" clip-rule="evenodd" d="M354.555 95.489L479.063 180.358L453.429 184.018L486.073 211.563L460.439 238.629L455.975 204.081L354.555 95.489Z" fill="#EB6337"/>
<path fill-rule="evenodd" clip-rule="evenodd" d="M213.16 233.854L231.791 322.222L291.419 353.433L344.199 336.234L357.576 329.704L336.082 327.637L286.921 298.938L284.092 267.726L255.034 268.246L213.16 233.854Z" fill="#771213"/>
<path fill-rule="evenodd" clip-rule="evenodd" d="M305.25 349.753L314.38 413.648L406.394 466.955L432.318 504.561L485.746 514.299L582.622 463.504L614.266 468.373L613.131 414.661L558.609 385.124L482.498 312.268L411.134 291.375L345.983 334.863L305.25 349.753Z" fill="#771213"/>
<path fill-rule="evenodd" clip-rule="evenodd" d="M375.316 138.761L437.746 203.406L437.503 260.919L412.815 289.869L398.6 299.1L417.528 239.202L403.948 208.896L382.576 207.147L397.466 175.517L375.316 138.761Z" fill="#771213"/>
<path fill-rule="evenodd" clip-rule="evenodd" d="M322.069 219.045L312.993 242.613L284.023 267.652L286.927 299.161L337.033 328.272L355.347 329.548L398.497 299.613L418.236 240.067L403.906 208.7L382.257 207.106L374.613 201.252L350.093 203.919L322.069 219.045Z" fill="#FDE6D5"/>
<path fill-rule="evenodd" clip-rule="evenodd" d="M231.542 321.128L289.778 352.164L280.534 356.391L233.865 362.955L199.439 335.322L205.564 307.595L191.012 317.211L213.066 233.3L231.542 321.128Z" fill="#FDE6D5"/>
<path fill-rule="evenodd" clip-rule="evenodd" d="M437.668 203.446V263.31L464.099 233.699L455.502 179.129L441.977 172.579L453.49 165.934L375.09 138.525L437.668 203.446Z" fill="#FDE6D5"/>
<path fill-rule="evenodd" clip-rule="evenodd" d="M361.542 300.971L321.836 286.837L286.762 299.336L336.861 328.407L353.493 329.474L398.602 299.282L418.401 240.141L409.447 220.517L405.503 231.788L408.711 239.689L395.401 278.065L361.542 300.971Z" fill="#EEBC92"/>
<path fill-rule="evenodd" clip-rule="evenodd" d="M295.681 355.263L255.873 334.086L236.648 351.556L199.629 335.437L235.453 364.812L282.979 360.753L295.681 355.263Z" fill="#EEBC92"/>
<path fill-rule="evenodd" clip-rule="evenodd" d="M437.461 262.034L437.745 233.638L450.757 229.337L455.572 179.062L464.256 231.626L437.461 262.034Z" fill="#EEBC92"/>
<path fill-rule="evenodd" clip-rule="evenodd" d="M293.264 172.127L273.667 131.299L252.328 146.122L266.502 180.588L293.264 172.127Z" fill="#EEBC92"/>
<path fill-rule="evenodd" clip-rule="evenodd" d="M231.875 171.121L240.951 157.507L259.575 186.166L249.898 194.62L231.875 171.121Z" fill="#EEBC92"/>
<path fill-rule="evenodd" clip-rule="evenodd" d="M277.552 120.373L188.941 117.024L270.144 74.9941L277.552 120.373Z" fill="#EB6337"/>
<path fill-rule="evenodd" clip-rule="evenodd" d="M252.277 146.122L273.542 131.056L290.086 165.536L270.172 169.838L252.277 146.122Z" fill="#FDE6D5"/>
<path fill-rule="evenodd" clip-rule="evenodd" d="M232.5 170.256L240.914 157.568L246.951 182.134L232.5 170.256Z" fill="#FDE6D5"/>
<path fill-rule="evenodd" clip-rule="evenodd" d="M314.123 161.721L292.676 123.52L313.306 108.367L334.125 145.818L314.123 161.721Z" fill="#EEBC92"/>
<path fill-rule="evenodd" clip-rule="evenodd" d="M342.978 110.575L327.258 113.911L340.061 142.428L353.243 134.777L342.978 110.575Z" fill="#EEBC92"/>
<path fill-rule="evenodd" clip-rule="evenodd" d="M312.029 109.353L292.676 123.52L308.484 151.659L321.348 145.305L312.029 109.353Z" fill="#FDE6D5"/>
<path fill-rule="evenodd" clip-rule="evenodd" d="M342.932 110.582L328.109 113.728L342.013 132.056L342.932 110.582Z" fill="#FDE6D5"/>
<path fill-rule="evenodd" clip-rule="evenodd" d="M157.595 184.498L137.775 178.285L149.957 200.975L135.148 214.588L154.819 225.008L144.4 356.512L167.028 336.126V375.623L225.542 367.114L180.926 349.179L159.749 176.617L157.595 184.498Z" fill="#EB6337"/>
<path fill-rule="evenodd" clip-rule="evenodd" d="M350.521 182.195L353.276 202.805L350.345 204.02L343.883 199.462L341.816 176.057L360.758 158.864L384.17 168.771L381.618 180.156L362.824 171.607L350.521 182.195Z" fill="#FDE6D5"/>
<path fill-rule="evenodd" clip-rule="evenodd" d="M322.55 218.768L313.582 199.462L331.457 190.643L350.412 203.845L322.55 218.768Z" fill="#EB6337"/>
<path fill-rule="evenodd" clip-rule="evenodd" d="M300.099 212.995L315.029 225.697L318.507 228.54L322.869 219.045L296.486 199.449L270.724 206.188L259.258 232.781L271.44 238.075L282.109 216.182L300.099 212.995Z" fill="#FDE6D5"/>
<path fill-rule="evenodd" clip-rule="evenodd" d="M361.407 213.819L342.748 220.977L322.551 218.768L350.372 203.804L374.602 201.184L361.407 213.819Z" fill="#EEBC92"/>
<path fill-rule="evenodd" clip-rule="evenodd" d="M312.951 242.613L284.016 267.652L307.914 259.326L312.951 242.613Z" fill="#EEBC92"/>
<path fill-rule="evenodd" clip-rule="evenodd" d="M177.209 162.733L171.625 136.614L75.9169 133.622L51.7891 157.75L99.3222 203.845L95.257 229.877L119.857 252.803L100.274 247.549L103.144 274.776L149.712 296.27L153.77 239.189L131.087 226.055L130.318 196.032L100.274 159.418L159.267 176.374L177.209 162.733Z" fill="#FDE6D5"/>
<path fill-rule="evenodd" clip-rule="evenodd" d="M151.145 165.151L177.177 162.761L160.221 176.374L98.6016 158.459L151.145 165.144V165.151ZM141.435 248.184L112.296 227.007L120.636 199.341L98.6016 158.702L129.408 192.135L129.887 226.048L153.529 241.093L149.552 281.3L141.428 248.184H141.435Z" fill="#EEBC92"/>
<path fill-rule="evenodd" clip-rule="evenodd" d="M171.745 137.417L188.431 117.267L78.0898 133.595L171.745 137.417Z" fill="#771213"/>
<path fill-rule="evenodd" clip-rule="evenodd" d="M301.688 69.8957L270.004 74.8726L328.672 6.00732L301.688 69.8957Z" fill="#771213"/>
<path fill-rule="evenodd" clip-rule="evenodd" d="M328.038 7.72252L355.239 5.31177L364.179 67.7078L392.845 89.202L398.815 113.803L407.175 98.5142L424.604 117.145L420.822 140.314L368.204 104.369L330.834 79.1403L298.859 70.3347L328.038 7.72252Z" fill="#FDE6D5"/>
<path fill-rule="evenodd" clip-rule="evenodd" d="M378.51 93.6184L349.588 71.172L343.915 30.9657L315.547 74.8995L329.458 78.8094L386.391 116.423L378.51 93.6116V93.6184Z" fill="#EEBC92"/>
<path fill-rule="evenodd" clip-rule="evenodd" d="M254.014 673.003L240.38 700.265L207.764 682.093L196.081 747.487L170.765 750.411L172.224 690.041L137.332 735.318L117.215 724.284L143.504 674.955L99.6849 689.555L97.2539 668.945L147.556 637.463L168.814 525.495L201.436 561.035L258.39 540.101L227.563 645.256L254.014 673.003Z" fill="#771213"/>
<path fill-rule="evenodd" clip-rule="evenodd" d="M634.71 167.19L644.934 146.257L617.673 126.295L647.365 58.1391L627.41 43.5327L594.787 84.4278L597.711 26.0092L570.936 26.4954L557.789 80.0452L538.199 36.4895L515.921 47.4291L527.61 105.848L521.033 137.735L470.164 195.91L476.491 202.487L534.505 205.364L551.461 237.778L586.515 167.19H634.71Z" fill="#771213"/>
<path fill-rule="evenodd" clip-rule="evenodd" d="M609.395 635.519L630.328 609.716L632.28 526.954L661.486 508.944L697.512 576.614L729.642 524.036L778.809 529.878L785.143 580.51L742.304 686.151L660.189 684.2L609.395 635.519Z" fill="#771213"/>
<path fill-rule="evenodd" clip-rule="evenodd" d="M639.824 354.865L683.637 298.877L652.972 237.535L680.233 202.974L790.257 289.626L774.678 334.903L712.849 427.397L696.298 378.23L645.665 377.257L639.824 354.865Z" fill="#771213"/>
<path fill-rule="evenodd" clip-rule="evenodd" d="M550.98 234.374L534.51 205.243L498.402 327.84L550.98 234.374Z" fill="#EB6337"/>
<path fill-rule="evenodd" clip-rule="evenodd" d="M246.224 438.357L228.7 372.631L192.431 420.34L183.18 528.176L205.086 546.186L246.224 438.357Z" fill="#EB6337"/>
<path fill-rule="evenodd" clip-rule="evenodd" d="M314.542 413.689L305.453 440.95L391.869 494.5L406.556 466.995L314.542 413.689Z" fill="#EB6337"/>
<path fill-rule="evenodd" clip-rule="evenodd" d="M442.324 506.655L478.438 545.166L537.431 537.934L589.293 476.429L582.567 463.437L486.981 513.887L442.324 506.655Z" fill="#EB6337"/>
<path fill-rule="evenodd" clip-rule="evenodd" d="M594.547 402.573L614.994 414.499L633.011 397.705L646.152 377.257L639.885 354.926L594.547 402.573Z" fill="#EB6337"/>
<path fill-rule="evenodd" clip-rule="evenodd" d="M717.312 660.349L731.757 572.393L756.58 527.44L778.324 528.905L785.793 577.424L742.953 685.827L723.802 685.503L717.312 660.349Z" fill="#5E171B"/>
<path fill-rule="evenodd" clip-rule="evenodd" d="M692.24 259.116L661.082 226.338L678.93 204.432L790.905 289.139L784.085 312.511L692.24 259.116Z" fill="#5E171B"/>
<path d="M996.291 517.047L992.111 515.744C983.764 542.262 974.546 568.504 964.026 594.218C957.847 609.324 951.209 624.248 944.024 638.888L934.421 629.563L931.369 632.703L941.978 643.008C938.527 649.909 934.948 656.75 931.234 663.509L922.813 654.467L919.606 657.452L928.999 667.541C928.675 668.115 928.364 668.689 928.04 669.263C924.744 675.367 921.024 681.222 917.451 687.164C915.696 690.156 913.751 693.019 911.847 695.916L906.12 704.586L900.07 713.034L897.044 717.255L893.857 721.354L887.469 729.538L880.736 737.439C862.679 758.373 841.732 776.923 817.996 790.982C794.3 805.055 767.552 813.975 740.109 816.393C726.394 817.635 712.557 817.345 698.869 815.731C685.175 814.117 671.642 811.186 658.413 807.223C645.191 803.211 632.293 798.147 619.747 792.326C607.186 786.518 595.038 779.833 583.248 772.574C581.762 771.683 580.303 770.751 578.845 769.812C577.386 768.873 575.921 767.962 574.476 767.01C571.592 765.092 568.695 763.194 565.859 761.202C560.16 757.272 554.555 753.193 549.072 748.959C543.582 744.739 538.193 740.383 532.926 735.886C527.679 731.395 522.472 726.749 517.63 721.941L514.504 725.014C519.548 730.018 524.748 734.65 530.076 739.215C535.404 743.766 540.847 748.162 546.398 752.43C551.942 756.705 557.6 760.824 563.367 764.801C566.231 766.814 569.161 768.731 572.072 770.67C573.53 771.635 575.016 772.56 576.488 773.506C577.96 774.451 579.439 775.397 580.938 776.295C592.864 783.635 605.161 790.401 617.89 796.29C630.605 802.192 643.699 807.331 657.137 811.409C670.589 815.441 684.378 818.432 698.349 820.08C712.314 821.728 726.468 822.032 740.507 820.755C768.599 818.284 796.022 809.134 820.211 794.764C844.453 780.407 865.745 761.526 884.045 740.316L890.866 732.314L897.328 724.028L900.556 719.882L903.615 715.614L909.733 707.078L915.52 698.32C917.438 695.396 919.41 692.499 921.179 689.48C924.785 683.491 928.533 677.575 931.862 671.423C931.956 671.255 932.051 671.086 932.146 670.917L939.337 678.635L942.545 675.651L934.394 666.899C938.162 660.079 941.789 653.177 945.286 646.222L956.942 657.54L959.994 654.4L947.339 642.109C954.822 626.956 961.703 611.512 968.098 595.886C978.672 570.037 987.931 543.674 996.311 517.054L996.291 517.047Z" fill="#AFAFAF"/>
<path d="M249.514 583.076L230.97 644.311L258.434 671.457L239.54 704.1L209.915 687.009L199.381 750.681L168.79 751.897L168.352 701.521L137.457 739.6L113.444 725.52L137.201 680.648L98.0412 693.701L91.707 666.906L143.798 634.756L187.34 421.306L229.14 364.467L234.455 368.384L193.513 424.047L149.693 638.875L99.2229 670.019L102.802 685.159L150.74 669.175L122.237 723.022L135.904 731.037L174.794 683.106L175.327 745.029L193.742 744.3L204.959 676.528L237.129 695.085L250.169 672.565L223.495 646.202L243.2 581.165L259.751 531.059L305.839 466.59L263.37 532.781L249.514 583.076Z" fill="#310401"/>
<path d="M468.952 311.397L480.897 314.74L557.934 387.812L609.62 416.309L611.024 469.582L617.622 469.413L616.123 412.352L561.864 382.443L484.247 308.817L470.728 305.042L435.512 298.634L468.952 311.397Z" fill="#310401"/>
<path d="M624.295 466.07L641.083 468.656L696.517 566.187L724.885 521.929L780.272 526.677L788.051 577.519L746.271 688.92L658.107 686.658L568.598 594.698L511.05 621.696L416.585 609.054L348.497 523.381L295.453 481.433L299.545 476.253L353.183 518.681L420.097 602.862L510.004 614.896L570.05 586.73L660.963 680.128L741.747 682.201L781.264 576.81L774.532 532.808L728.295 528.844L696.179 578.95L636.923 474.694L623.289 472.593L582.799 465.395L492.379 510.868L581.975 460.533L624.295 466.07Z" fill="#310401"/>
<path fill-rule="evenodd" clip-rule="evenodd" d="M591.535 399.575L680.179 302.01L646.355 238.223L679.437 199.098L795.025 287.654L779.554 337.159L661.13 505.25L655.018 500.949L772.774 333.816L786.34 290.409L680.544 209.355L655.316 239.189L689.235 303.152L597.066 404.599L591.535 399.575Z" fill="#2E100D"/>
<path fill-rule="evenodd" clip-rule="evenodd" d="M468.078 192.851L518.657 134.817L523.789 108.704L512.485 43.8974L542.501 32.8161L556.398 70.5846L569.013 22.9097L600.731 23.8281L599.468 74.2986L628.127 37.543L652.376 55.2692L620.82 124.54L649.31 144.622L634.623 171.776L591.776 169.23L502.234 331.351L495.697 327.739L587.515 161.498L630.321 164.037L639.586 146.905L611.461 127.072L643.057 57.7069L629.565 47.8478L591.439 96.745L593.08 31.0806L574.719 30.5471L557.566 95.3809L538.078 42.4118L520.912 48.7527L531.386 108.785L525.605 138.221L473.71 197.76L468.078 192.851Z" fill="#2E100D"/>
<path d="M782.168 312.41L691.768 260.636L661.812 228.385L664.115 226.251L693.74 258.151L783.728 309.688L782.168 312.41Z" fill="#2E100D"/>
<path d="M721.672 686.867L715.797 660.437L730.896 572.292L755.699 526.575L758.454 528.068L733.901 573.332L718.991 660.356L724.731 686.185L721.672 686.867Z" fill="#2E100D"/>
<path fill-rule="evenodd" clip-rule="evenodd" d="M160.336 176.178L97.9062 158.013L127.436 192.459L129.138 228.087L153.158 242.43L155.028 221.132L137.991 214.541L150.571 201.637L138.443 179.798L159.026 186.085L160.336 176.178Z" fill="#2E100D"/>
<path fill-rule="evenodd" clip-rule="evenodd" d="M329.176 78.7555L343.735 43.0195L348.475 76.6621L371.043 96.8935L372.779 108.367L329.176 78.7555Z" fill="#2E100D"/>
<path fill-rule="evenodd" clip-rule="evenodd" d="M364.35 202.312L380.847 185.254L382.346 177.401L362.398 169.115L349.352 180.649L350.959 203.75L364.35 202.312Z" fill="#2E100D"/>
<path fill-rule="evenodd" clip-rule="evenodd" d="M362.161 175.503L352.484 183.674L354.328 199.341L364.363 202.291L376.416 189.738L374.85 180.156L362.161 175.503Z" fill="#771213"/>
<path fill-rule="evenodd" clip-rule="evenodd" d="M362.242 179.237L354.875 185.929L356.408 195.343L365.619 198.226L372.864 190.974L371.541 182.533L362.242 179.237Z" fill="#2E100D"/>
<path fill-rule="evenodd" clip-rule="evenodd" d="M362.54 176.941L358.637 180.331L359.656 186.004L364.897 187.645L369.043 184.153L368.246 179.042L362.54 176.941Z" fill="#FDE6D5"/>
<path fill-rule="evenodd" clip-rule="evenodd" d="M270.582 237.926L280.144 214.683L299.687 211.428L315.13 225.67L306.473 237.926L275.802 240.263L270.582 237.926Z" fill="#2E100D"/>
<path fill-rule="evenodd" clip-rule="evenodd" d="M283.35 217.809L299.314 215.25L309.295 226.19L304.19 238.102L284.687 239.56L277.543 232.949L283.35 217.809Z" fill="#771213"/>
<path fill-rule="evenodd" clip-rule="evenodd" d="M286.046 220.193L296.465 218.329L303.536 226.406L298.91 235.792L289.024 236.906L282.305 229.85L286.046 220.193Z" fill="#2E100D"/>
<path fill-rule="evenodd" clip-rule="evenodd" d="M292.831 217.701L298.227 216.884L302.117 221.301L299.814 226.662L294.108 227.892L290.238 223.826L292.831 217.701Z" fill="#FDE6D5"/>
<path fill-rule="evenodd" clip-rule="evenodd" d="M466.438 186.449L462.488 187.172L490.141 211.009L413.341 296.487L350.58 338.671L280.797 363.238L163.196 380.208L162.98 343.979C163.021 343.959 163.055 343.871 163.095 343.729C163.082 343.675 163 343.682 162.852 343.756L162.825 343.77C162.825 343.77 162.838 343.756 162.784 343.797L162.609 343.945L161.913 344.533L160.522 345.708L157.747 348.065L154.971 350.421L153.58 351.596L151.163 353.683L141.223 362.259L142.695 345.681L143.606 336.301L145.43 317.535L149.076 280.003L156.376 204.939L152 280.226L149.812 317.873L148.718 336.693L148.171 346.106L148.138 346.653V346.788V347.052V347.531L148.178 348.315C148.576 347.903 148.901 347.551 149.157 347.261L149.252 347.153L149.292 347.106L149.313 347.079L149.468 346.937L150.812 345.708L153.493 343.25L159.307 337.935L169.983 328.34L170.165 339.698L170.354 371.895L279.061 356.209L347.312 332.182L408.567 291.01L479.843 211.678L446.349 182.803L465.128 179.366L468.539 178.812L470.112 178.555C470.112 178.555 470.152 178.569 470.186 178.576C470.301 178.603 470.504 178.609 470.794 178.603C470.774 178.549 470.713 178.461 470.605 178.346L470.416 178.157L470.362 178.103C470.362 178.103 470.362 178.103 470.335 178.083L470.2 177.988L469.93 177.799L468.849 177.029L460.212 170.877L442.939 158.567L408.384 133.946L339.283 84.7047L410.268 131.191L445.761 154.434L463.508 166.056L472.381 171.863L475.19 173.72L479.377 176.523L487.946 182.249L474.967 184.761L471.645 185.403L469.822 185.774L466.438 186.463V186.449Z" fill="#2E100D"/>
<path d="M147.733 297.729L100.551 274.702L96.3712 244.686L111.349 247.873L91.9211 230.066L97.4584 203.838L48.3789 157.129L76.0925 130.995L186.704 114.863L267.062 72.3673L324.934 4.13681L358.934 0.544312L365.113 66.0332L395.784 87.0344L399.917 105.956L406.562 94.4017L427.192 115.646L423.667 140.031L418.42 139.267L421.573 117.469L407.656 103.133L397.668 120.508L391.051 90.215L360.069 69.0044L354.16 6.37875L327.608 9.18792L270.439 76.5743L188.372 119.975L78.5167 135.999L56.0906 157.142L103.252 202.042L97.7285 228.202L129.278 257.111L102.665 251.445L105.413 271.177L150.063 292.962L147.733 297.729Z" fill="#2E100D"/>
<path fill-rule="evenodd" clip-rule="evenodd" d="M359.09 213.272L340.797 220.511L341.094 226.278L365.242 230.977L372.157 244.679L341.236 260.143L328.426 285.446L356.227 292.32L367.781 268.577L388.945 247.887L388.715 242.025L378.849 242.005L371.218 227.567L379.268 204.716L374.622 201.191L359.09 213.272Z" fill="#2E100D"/>
<path d="M385.501 263.743L376.188 273.893L379.655 277.075L388.969 266.925L385.501 263.743Z" fill="#310401"/>
<path fill-rule="evenodd" clip-rule="evenodd" d="M340.918 285.446L354.505 289.038L364.35 269.361L357.942 266.707L348.576 271.231L340.918 285.446Z" fill="#E14226"/>
<path fill-rule="evenodd" clip-rule="evenodd" d="M1030.66 344.074C1034.56 333.364 1040.25 324.903 1050.23 314.348C1066.06 297.608 1090.02 296.237 1092.31 288.593C1094.4 281.63 1082.41 276.829 1063.63 279.564C1044.84 282.299 1018.96 301.328 1000.39 334.667L1003.07 358.518L1012.64 356.411L1030.65 344.081L1030.66 344.074Z" fill="#DB9628"/>
<path fill-rule="evenodd" clip-rule="evenodd" d="M987.823 401.351C987.823 401.351 982.717 421.211 979.22 426.667C975.161 432.995 951.634 427.316 954.227 419.854C955.537 416.086 964.451 402.979 973.216 395.51C954.389 387.555 939.655 375.062 931.673 364.677C921.908 351.968 915.622 333.809 919.829 305.448C922.422 287.924 929.404 264.39 924.373 255.301C917.168 242.282 903.764 235.826 905.87 229.661C908.18 222.901 935.853 225.278 947.09 244.591C963.803 273.311 931.43 323.782 965.754 340.333C964.532 325.753 970.056 293.779 976.302 280.617C989.936 251.898 1008.76 245.928 1017.36 243.781C1037.81 238.669 1031.48 251.567 1016.55 267.477C989.497 296.298 1001.29 339.853 1003.49 357.782C1029.7 359.16 1051.72 305.029 1097.2 307.885C1147.59 311.052 1148 343.912 1145.24 345.856C1138.67 350.496 1119.33 333.722 1101.59 338.395C1073.84 345.694 1052.47 379.175 1035.7 391.62C1009.9 410.771 987.829 401.358 987.829 401.358L987.823 401.351Z" fill="#FFE500"/>
<path fill-rule="evenodd" clip-rule="evenodd" d="M916.371 229.661C926.297 232.794 939.668 245.591 939.026 271.488C938.216 304.34 931.923 332.472 943.848 345.37C955.773 358.268 966.727 353.892 966.727 353.892C966.727 353.892 962.344 315.192 973.054 290.848C991.861 248.103 997.155 258.961 989.848 287.681C971.204 361.017 999.768 363.468 1003.48 360.949C1003.48 360.949 1003.02 384.023 1032.95 366.979C1062.89 349.942 1068.65 336.787 1083.31 329.339C1104.92 318.359 1127.88 325.983 1134.2 332.824C1140.65 339.792 1138.33 344.634 1134.68 345.37C1134.68 345.37 1109.6 327.847 1089.88 342.939C1070.17 358.032 1064.81 362.658 1051.67 377.264C1038.52 391.87 1016.37 408.178 987.654 400.385L984.243 407.685C984.243 407.685 968.665 404.275 966.72 429.591C954.308 426.911 967.206 429.105 967.206 429.105C967.206 429.105 946.759 427.647 957.468 413.04C968.178 398.434 974.263 395.76 974.263 395.76C974.263 395.76 945.05 382.862 934.097 368.256C923.144 353.649 913.163 325.416 920.463 300.099C927.763 274.783 929.471 257.746 917.053 246.063C904.641 234.381 902.966 223.34 916.351 229.667L916.371 229.661Z" fill="#DB9628"/>
<path d="M986.775 398.691C987.065 398.805 987.524 398.961 987.923 399.089C988.342 399.217 988.76 399.346 989.186 399.454C990.037 399.69 990.908 399.879 991.785 400.061C993.541 400.413 995.324 400.642 997.12 400.784C1000.71 401.081 1004.34 400.939 1007.92 400.473C1015.1 399.535 1022.06 397.07 1028.41 393.498C1031.58 391.708 1034.64 389.696 1037.53 387.434C1038.27 386.887 1038.95 386.272 1039.66 385.698C1040.37 385.117 1041.08 384.537 1041.75 383.902L1043.79 382.045L1045.75 380.1C1047.08 378.831 1048.29 377.419 1049.56 376.075L1053.35 371.848C1055.9 369.039 1058.49 366.243 1061.15 363.515C1066.46 358.059 1072.02 352.785 1078.1 348.024C1081.15 345.654 1084.33 343.426 1087.72 341.474C1091.11 339.522 1094.73 337.854 1098.55 336.686C1102.36 335.491 1106.42 334.951 1110.46 335.025C1114.5 335.153 1118.49 335.957 1122.25 337.247C1124.12 337.915 1125.96 338.645 1127.73 339.509L1129.05 340.144L1130.29 340.751C1131.11 341.143 1131.94 341.528 1132.77 341.886C1134.43 342.602 1136.12 343.23 1137.79 343.702C1139.44 344.148 1141.14 344.452 1142.49 344.303C1142.84 344.276 1143.12 344.195 1143.39 344.121C1143.64 344.027 1143.85 343.932 1144.02 343.81C1144.33 343.567 1144.56 343.277 1144.72 342.743C1145.05 341.677 1144.9 340.002 1144.49 338.408C1143.64 335.153 1141.97 331.885 1140.02 328.92C1139.04 327.442 1137.96 326.024 1136.78 324.747C1136.2 324.099 1135.58 323.552 1134.95 322.992L1133.93 322.174L1132.86 321.398C1129.95 319.358 1126.7 317.657 1123.36 316.191C1116.66 313.308 1109.49 311.444 1102.23 310.722C1094.96 310.013 1087.61 310.546 1080.59 312.363C1077.08 313.315 1073.68 314.591 1070.4 316.144C1067.11 317.691 1064.04 319.656 1061.08 321.756L1058.92 323.417C1058.55 323.687 1058.2 323.977 1057.86 324.281L1056.83 325.179C1055.42 326.341 1054.14 327.651 1052.84 328.927L1048.81 332.952L1046.79 334.978L1044.7 336.936C1039.14 342.176 1033.25 347.14 1026.77 351.387L1024.32 352.954C1023.5 353.48 1022.63 353.926 1021.8 354.419L1020.52 355.142C1020.09 355.378 1019.64 355.581 1019.2 355.803C1018.31 356.222 1017.46 356.702 1016.53 357.073C1014.72 357.856 1012.86 358.586 1010.9 359.119C1009.94 359.409 1008.92 359.619 1007.89 359.808C1007.36 359.875 1006.84 359.963 1006.28 359.997C1005.7 360.031 1005.26 360.078 1004.4 359.997L1004.99 355.331C1004.99 355.331 1005 355.331 1005.01 355.331H1005.13H1005.37L1005.95 355.297C1006.33 355.27 1006.75 355.196 1007.15 355.155C1007.99 354.993 1008.82 354.831 1009.66 354.581C1011.34 354.129 1013.01 353.474 1014.66 352.758C1015.49 352.434 1016.28 351.975 1017.1 351.596C1017.51 351.394 1017.92 351.205 1018.32 350.989L1019.51 350.313C1020.3 349.854 1021.11 349.442 1021.88 348.943L1024.2 347.457C1030.36 343.426 1036.07 338.618 1041.49 333.506L1043.53 331.601L1045.51 329.616L1049.5 325.632C1050.89 324.268 1052.25 322.877 1053.76 321.627L1054.86 320.669C1055.23 320.344 1055.6 320.034 1056 319.743L1058.32 317.954C1061.5 315.685 1064.82 313.571 1068.38 311.897C1071.92 310.208 1075.61 308.831 1079.4 307.804C1087 305.833 1094.93 305.272 1102.69 306.028C1110.47 306.805 1118.08 308.784 1125.25 311.863C1128.82 313.436 1132.3 315.246 1135.58 317.542C1135.99 317.839 1136.4 318.123 1136.8 318.427L1138 319.386C1138.78 320.074 1139.56 320.783 1140.25 321.54C1141.63 323.046 1142.85 324.639 1143.95 326.3C1145.05 327.962 1146.05 329.69 1146.92 331.5C1147.78 333.31 1148.54 335.201 1149.06 337.24C1149.32 338.26 1149.51 339.327 1149.59 340.454C1149.65 341.589 1149.63 342.798 1149.23 344.094C1149.04 344.736 1148.76 345.391 1148.34 346.005C1147.92 346.62 1147.38 347.173 1146.78 347.612C1146.18 348.044 1145.53 348.348 1144.89 348.571C1144.26 348.767 1143.62 348.909 1143.02 348.963C1140.6 349.199 1138.53 348.74 1136.55 348.22C1134.59 347.666 1132.73 346.964 1130.93 346.187C1130.03 345.796 1129.14 345.391 1128.26 344.972L1126.96 344.33L1125.72 343.743C1124.09 342.946 1122.42 342.284 1120.74 341.677C1117.35 340.515 1113.86 339.82 1110.35 339.705C1106.85 339.644 1103.32 340.096 1099.93 341.163C1093.12 343.25 1086.82 347.187 1081 351.711C1075.18 356.263 1069.75 361.408 1064.54 366.763C1061.93 369.444 1059.38 372.193 1056.86 374.968L1053.09 379.168C1051.76 380.573 1050.51 382.038 1049.11 383.375L1047.05 385.415L1044.9 387.366C1044.2 388.028 1043.45 388.649 1042.7 389.264C1041.95 389.871 1041.22 390.52 1040.44 391.1C1037.38 393.498 1034.12 395.645 1030.72 397.563C1023.92 401.385 1016.38 404.066 1008.57 405.092C1004.66 405.606 1000.71 405.754 996.769 405.43C994.797 405.275 992.839 405.018 990.887 404.633C989.915 404.437 988.943 404.221 987.97 403.951C987.484 403.823 987.005 403.681 986.518 403.526C986.019 403.364 985.58 403.222 984.992 402.992L986.788 398.643L986.775 398.691Z" fill="#310401"/>
<path d="M969.569 380.296C966.091 367.081 963.931 353.487 963.485 339.792C963.039 326.104 964.302 312.315 967.638 298.972C969.326 292.307 971.575 285.763 974.404 279.463C977.294 273.189 980.772 267.139 985.134 261.662C987.322 258.934 989.713 256.348 992.36 254.005C993.042 253.437 993.704 252.85 994.399 252.296L996.54 250.703C997.965 249.723 999.403 248.751 1000.89 247.853C1003.85 246.036 1006.93 244.389 1010.17 243.004C1013.41 241.64 1016.8 240.499 1020.47 239.993C1022.31 239.749 1024.23 239.682 1026.27 240.047C1027.28 240.242 1028.33 240.573 1029.35 241.141C1030.36 241.701 1031.33 242.538 1032.01 243.599C1032.36 244.125 1032.62 244.693 1032.82 245.26C1032.9 245.55 1033 245.82 1033.06 246.138C1033.11 246.462 1033.15 246.786 1033.19 247.117C1033.25 248.407 1032.97 249.561 1032.6 250.554C1031.83 252.519 1030.77 254.025 1029.71 255.47C1027.56 258.32 1025.27 260.805 1023.05 263.344C1020.83 265.869 1018.66 268.388 1016.64 270.995C1014.6 273.595 1012.73 276.289 1011.07 279.091C1009.41 281.887 1007.97 284.798 1006.87 287.823C1006.6 288.579 1006.32 289.335 1006.1 290.105L1005.75 291.253L1005.43 292.455C1005.01 294.062 1004.56 295.663 1004.21 297.283L1003.65 299.708L1003.16 302.146C1002.82 303.766 1002.58 305.4 1002.32 307.035C1001.35 313.571 1001 320.169 1001.39 326.746C1001.75 333.337 1002.9 339.867 1004.06 346.552C1004.63 349.895 1005.17 353.291 1005.5 356.749C1005.83 360.206 1005.94 363.718 1005.72 367.229C1005.51 370.734 1004.99 374.225 1004.19 377.635C1003.37 381.039 1002.29 384.354 1001.06 387.602L996.675 385.901C997.836 382.828 998.843 379.715 999.606 376.555C1000.36 373.388 1000.83 370.18 1001.02 366.946C1001.44 360.476 1000.56 353.96 999.417 347.342C998.269 340.731 997.067 333.931 996.688 327.023C996.276 320.121 996.648 313.159 997.661 306.346C997.938 304.644 998.188 302.936 998.539 301.254L999.038 298.722L999.619 296.21C999.984 294.528 1000.45 292.881 1000.89 291.219L1001.22 289.977L1001.61 288.707C1001.85 287.857 1002.16 287.026 1002.46 286.195C1003.68 282.873 1005.24 279.706 1007.03 276.701C1008.81 273.689 1010.8 270.833 1012.93 268.118C1015.04 265.39 1017.28 262.79 1019.53 260.244C1021.75 257.698 1024.03 255.207 1025.95 252.661C1026.89 251.398 1027.75 250.088 1028.21 248.9C1028.43 248.312 1028.51 247.792 1028.51 247.394C1028.49 247.299 1028.47 247.211 1028.47 247.117C1028.45 247.015 1028.4 246.887 1028.37 246.779C1028.29 246.556 1028.2 246.354 1028.08 246.171C1027.64 245.462 1026.68 244.929 1025.38 244.672C1024.08 244.443 1022.59 244.449 1021.09 244.659C1018.06 245.064 1014.98 246.077 1012.01 247.333C1009.04 248.602 1006.15 250.142 1003.35 251.864C1001.95 252.715 1000.59 253.633 999.234 254.565L997.316 255.997C996.695 256.496 996.087 257.03 995.473 257.543C993.062 259.677 990.854 262.061 988.821 264.6C984.756 269.698 981.454 275.431 978.692 281.414C975.991 287.431 973.83 293.704 972.203 300.126C968.988 312.991 967.759 326.348 968.192 339.644C968.624 352.947 970.724 366.196 974.121 379.087L969.576 380.296H969.569Z" fill="#310401"/>
<path d="M999.348 333.58C1003.62 325.942 1008.48 318.616 1013.98 311.775C1015.35 310.053 1016.81 308.426 1018.22 306.744C1019.68 305.11 1021.21 303.53 1022.71 301.923C1024.29 300.403 1025.83 298.837 1027.46 297.358L1029.94 295.183L1031.18 294.096L1032.48 293.07L1035.07 291.024C1035.95 290.355 1036.87 289.741 1037.76 289.099C1039.53 287.782 1041.44 286.661 1043.31 285.486C1044.25 284.899 1045.25 284.413 1046.21 283.872L1047.67 283.082C1048.16 282.819 1048.68 282.61 1049.18 282.366C1050.19 281.907 1051.19 281.428 1052.21 280.989L1055.34 279.814C1059.56 278.355 1064.06 277.491 1068.44 277.153C1072.85 276.782 1077.32 276.762 1081.8 277.471C1084.03 277.835 1086.27 278.389 1088.44 279.348C1089.52 279.834 1090.58 280.435 1091.57 281.239C1092.55 282.029 1093.47 283.089 1094 284.426C1094.56 285.75 1094.54 287.316 1094.17 288.62C1093.77 290.065 1092.85 291.199 1091.92 292.023C1090.01 293.671 1087.96 294.643 1085.95 295.589C1081.89 297.412 1077.85 298.897 1073.91 300.619C1069.98 302.314 1066.15 304.212 1062.53 306.427C1058.94 308.662 1055.56 311.221 1052.6 314.206C1049.64 317.225 1046.8 320.493 1044.21 323.869C1038.99 330.629 1034.71 338.084 1031.82 346.086L1028.86 345.012C1031.87 336.686 1036.34 328.92 1041.72 321.958C1044.42 318.454 1047.27 315.158 1050.39 311.991C1053.54 308.811 1057.12 306.103 1060.89 303.759C1064.67 301.436 1068.65 299.478 1072.67 297.743C1076.68 295.994 1080.79 294.481 1084.65 292.739C1086.55 291.861 1088.44 290.902 1089.83 289.693C1090.52 289.086 1090.98 288.444 1091.16 287.776C1091.36 286.999 1091.38 286.27 1091.08 285.588C1090.56 284.19 1088.93 283.015 1087.16 282.225C1085.36 281.428 1083.35 280.915 1081.31 280.584C1077.2 279.929 1072.94 279.935 1068.71 280.293C1064.44 280.631 1060.37 281.428 1056.38 282.792L1053.42 283.899C1052.45 284.318 1051.5 284.777 1050.53 285.209C1050.05 285.439 1049.57 285.635 1049.1 285.891L1047.7 286.648C1046.78 287.168 1045.82 287.627 1044.92 288.194C1043.13 289.329 1041.28 290.402 1039.57 291.679C1038.71 292.3 1037.83 292.894 1036.97 293.542L1034.46 295.528L1033.21 296.52L1032 297.574L1029.59 299.687C1028.01 301.126 1026.5 302.652 1024.95 304.131C1023.5 305.704 1022 307.237 1020.58 308.838C1019.2 310.478 1017.76 312.072 1016.43 313.754C1011.06 320.439 1006.29 327.617 1002.1 335.12L999.354 333.593L999.348 333.58Z" fill="#2E100D"/>
<path d="M1090.73 319.169C1094.83 318.718 1097.99 316.983 1097.81 315.292C1097.62 313.602 1094.15 312.597 1090.06 313.047C1085.97 313.498 1082.8 315.233 1082.99 316.923C1083.17 318.614 1086.64 319.619 1090.73 319.169Z" fill="#DB9628"/>
<path d="M1002.32 261.915C1004.13 260.669 1005.14 258.998 1004.58 258.185C1004.02 257.371 1002.1 257.721 1000.29 258.968C998.482 260.214 997.47 261.884 998.031 262.698C998.592 263.512 1000.51 263.161 1002.32 261.915Z" fill="#DB9628"/>
<path d="M945.603 328.97C947.089 327.945 947.728 326.294 947.03 325.28C946.332 324.267 944.56 324.275 943.074 325.3C941.588 326.324 940.949 327.976 941.647 328.989C942.346 330.003 944.117 329.994 945.603 328.97Z" fill="#DB9628"/>
<path d="M1012.24 261.057C1013.21 259.53 1013.14 257.76 1012.1 257.103C1011.06 256.446 1009.44 257.151 1008.47 258.678C1007.51 260.204 1007.57 261.974 1008.61 262.631C1009.66 263.288 1011.28 262.583 1012.24 261.057Z" fill="#DB9628"/>
<path d="M1075.59 321.668C1077.08 320.644 1077.72 318.992 1077.02 317.979C1076.32 316.965 1074.55 316.974 1073.06 317.998C1071.58 319.022 1070.94 320.674 1071.64 321.688C1072.33 322.701 1074.1 322.692 1075.59 321.668Z" fill="#DB9628"/>
<path d="M963.922 341.906C960.654 339.934 957.521 337.402 955.083 334.255C952.611 331.128 950.964 327.475 949.849 323.808L949.424 322.431C949.275 321.972 949.208 321.506 949.093 321.04L948.485 318.251L948.08 315.448C947.945 314.517 947.803 313.578 947.749 312.646C947.621 310.782 947.412 308.912 947.412 307.061C947.378 305.204 947.29 303.341 947.371 301.497C947.405 297.797 947.661 294.123 947.911 290.45C948.262 286.796 948.58 283.136 949.08 279.51C949.296 277.707 949.566 275.83 949.714 274.128L949.978 271.521C950.032 270.65 950.032 269.779 950.059 268.908C950.167 267.166 949.998 265.43 949.93 263.695C949.89 262.824 949.728 261.973 949.633 261.115C949.525 260.258 949.431 259.393 949.221 258.556L948.688 256.024L947.952 253.545C947.743 252.708 947.378 251.925 947.081 251.121L946.622 249.919C946.459 249.521 946.257 249.143 946.075 248.758C944.643 245.645 942.806 242.714 940.564 240.154C938.336 237.588 935.743 235.34 932.866 233.645C932.13 233.26 931.407 232.861 930.665 232.504C929.915 232.166 929.125 231.855 928.321 231.572C926.707 231.004 925.033 230.538 923.338 230.154C919.955 229.397 916.45 228.911 913.134 229.012C911.507 229.073 909.846 229.309 908.765 229.829C908.239 230.093 907.955 230.37 907.901 230.532C907.827 230.694 907.766 231.011 907.921 231.578C908.225 232.706 909.15 234.117 910.183 235.387C911.244 236.677 912.439 237.913 913.722 239.128C916.403 241.681 919.009 244.362 921.373 247.333C923.716 250.304 925.877 253.579 927.275 257.3C927.964 259.15 928.511 261.081 928.781 263.047C929.064 265.005 929.159 266.97 929.112 268.901C928.976 272.764 928.362 276.471 927.639 280.084C926.924 283.703 926.107 287.249 925.323 290.794C924.54 294.332 923.784 297.864 923.095 301.409C922.744 303.179 922.426 304.955 922.109 306.724L921.65 309.391C921.508 310.276 921.413 311.147 921.292 312.025C920.319 319.027 920.245 326.138 921.292 333.08C922.338 340.015 924.452 346.788 927.66 353.041C928.517 354.574 929.274 356.161 930.246 357.627L931.644 359.862L933.17 362.016L933.933 363.096L934.75 364.136L936.391 366.209L938.133 368.201L939.004 369.194L939.923 370.146C944.785 375.278 950.322 379.789 956.244 383.713C959.209 385.678 962.268 387.494 965.421 389.142C967.002 389.959 968.588 390.763 970.202 391.492C970.608 391.674 971.006 391.863 971.411 392.039L972.309 392.431C972.728 392.606 973.147 392.782 973.586 392.951C975.294 393.626 977.131 394.288 978.914 394.929C977.468 396.151 975.956 397.387 974.558 398.609L972.755 400.217L971.749 401.142C970.412 402.384 969.102 403.654 967.825 404.95C965.28 407.543 962.842 410.238 960.755 413.087C959.722 414.512 958.77 415.978 958.054 417.457C957.338 418.908 956.886 420.468 957.028 421.501C957.095 422.015 957.257 422.352 957.561 422.697C957.588 422.744 957.642 422.778 957.689 422.825C957.75 422.872 957.75 422.899 957.851 422.967L958.344 423.338L959.324 424.088C960.701 424.966 962.14 425.769 963.726 426.255C964.49 426.559 965.313 426.708 966.117 426.91C966.941 427.032 967.758 427.208 968.602 427.241C970.277 427.383 971.978 427.343 973.673 427.12L974.936 426.931C975.348 426.843 975.773 426.775 976.179 426.674L976.753 426.539L978.461 421.623L985.768 400.581L990.211 402.128L982.904 423.169L980.96 428.774C980.811 429.22 980.642 429.639 980.473 430.064L980.413 430.226C980.386 430.273 980.392 430.354 980.318 430.354L979.994 430.462L979.346 430.685L978.015 431.084L977.239 431.273C976.746 431.394 976.253 431.475 975.76 431.583L974.268 431.813C972.276 432.076 970.25 432.13 968.224 431.962C967.211 431.914 966.198 431.712 965.192 431.556C964.192 431.307 963.186 431.111 962.214 430.739C960.242 430.125 958.398 429.119 956.663 427.998L955.427 427.059L954.813 426.586C954.597 426.404 954.313 426.147 954.09 425.898C953.131 424.878 952.503 423.44 952.361 422.109C952.199 420.765 952.388 419.55 952.672 418.463C952.962 417.369 953.368 416.383 953.813 415.444C954.718 413.58 955.805 411.926 956.947 410.346C959.249 407.206 961.809 404.383 964.462 401.675C965.793 400.325 967.15 399.008 968.534 397.725L969.851 396.516L968.224 395.787C966.529 395.017 964.868 394.18 963.22 393.329C959.931 391.607 956.737 389.709 953.638 387.656C947.445 383.557 941.638 378.83 936.499 373.408L935.527 372.395L934.602 371.342L932.758 369.228L931.016 367.026L930.151 365.919L929.341 364.771L927.72 362.475L926.228 360.085C925.195 358.518 924.371 356.823 923.459 355.182C920.029 348.497 917.747 341.21 916.626 333.782C915.505 326.347 915.586 318.778 916.612 311.39C916.74 310.472 916.842 309.533 916.99 308.621L917.456 305.913C917.78 304.11 918.104 302.307 918.462 300.511C919.158 296.919 919.928 293.34 920.711 289.781C921.494 286.222 922.305 282.691 923.007 279.179C923.709 275.668 924.27 272.176 924.391 268.766C924.439 267.064 924.351 265.39 924.114 263.749C923.892 262.108 923.432 260.521 922.858 258.968C921.704 255.868 919.826 252.985 917.672 250.263C915.511 247.542 913.04 244.99 910.46 242.538C909.11 241.255 907.759 239.878 906.517 238.358C905.895 237.588 905.294 236.778 904.747 235.887C904.2 234.989 903.694 233.996 903.363 232.794C903.208 232.179 903.086 231.524 903.113 230.782C903.133 230.046 903.296 229.242 903.647 228.513C903.991 227.783 904.504 227.149 905.044 226.689C905.585 226.217 906.159 225.872 906.712 225.602C907.827 225.075 908.9 224.799 909.933 224.623C910.967 224.441 911.98 224.353 912.965 224.319C916.923 224.211 920.67 224.751 924.378 225.575C926.228 225.994 928.058 226.5 929.875 227.142C930.786 227.459 931.691 227.817 932.596 228.222C933.494 228.648 934.358 229.12 935.236 229.586C938.626 231.592 941.591 234.172 944.123 237.089C946.669 239.999 948.735 243.295 950.336 246.779C950.538 247.211 950.761 247.637 950.943 248.082L951.463 249.426C951.794 250.324 952.193 251.202 952.429 252.127L953.239 254.876L953.834 257.678C954.056 258.61 954.164 259.555 954.286 260.501C954.394 261.446 954.57 262.385 954.61 263.337C954.691 265.234 954.867 267.132 954.752 269.016C954.718 269.961 954.718 270.907 954.657 271.852L954.374 274.668C954.198 276.586 953.948 278.308 953.732 280.111C953.246 283.69 952.929 287.269 952.584 290.855C952.341 294.434 952.085 298.019 952.058 301.585C951.977 303.374 952.058 305.144 952.098 306.926C952.098 308.709 952.294 310.458 952.415 312.221C952.463 313.105 952.598 313.97 952.719 314.834L953.091 317.427L953.644 319.959C953.746 320.378 953.807 320.817 953.942 321.215L954.32 322.438C955.312 325.699 956.717 328.792 958.77 331.385C960.796 333.998 963.402 336.126 966.347 337.908L963.902 341.926L963.922 341.906Z" fill="#310401"/>
</svg>
