<?xml version="1.0" encoding="utf-8"?>
<!-- Generator: Adobe Illustrator 26.0.1, SVG Export Plug-In . SVG Version: 6.00 Build 0)  -->
<svg version="1.1" id="Layer_1" width="1em" height="1em" xmlns="http://www.w3.org/2000/svg" xmlns:xlink="http://www.w3.org/1999/xlink" x="0px" y="0px"
	 viewBox="0 0 1202 937" style="enable-background:new 0 0 1202 937;" xml:space="preserve">
<style type="text/css">
	.st0{fill-rule:evenodd;clip-rule:evenodd;fill:#300500;}
	.st1{fill-rule:evenodd;clip-rule:evenodd;fill:#CC3805;}
	.st2{fill-rule:evenodd;clip-rule:evenodd;fill:#780500;}
	.st3{fill-rule:evenodd;clip-rule:evenodd;fill:#ED6338;}
	.st4{fill-rule:evenodd;clip-rule:evenodd;fill:#FFE8D6;}
	.st5{fill-rule:evenodd;clip-rule:evenodd;fill:#F0BD94;}
</style>
<path class="st0" d="M978.2,0l-45,38.9L733.8,84.2H468.3L266.6,37L223.9,0L105.6,23.5L86.9,276.9l-64,69.1L0.4,488.4L99,585.9
	L14,733.1l72-16.6l-38.6,95.9l326.3,107.2l227.5,17.1l227.6-17.1L1155,812.4l-38.5-95.9l72,16.6l-85-147.2l98.6-97.5L1179.5,346
	l-64.1-69.1l-18.6-253.5L978.5,0"/>
<path class="st0" d="M352.1,168.7C72-166.7,133.3,614.9,139.1,576.2l10.7,2.9l6.8-8.9C232.3,469.4,427.3,275,352.1,168.7z"/>
<path class="st0" d="M850.3,168.7c280.2-335.5,218.9,446.2,213.1,407.5l-10.8,2.9l-6.7-8.9C970.2,469.4,775.1,275,850.3,168.7"/>
<path class="st1" d="M601,116.1H465l-112.2,68.6l-74.4,151.9l-38.1-40.3l8.7,68.3l-62.7,16.7l52.1,24.7L73.6,691.5l61-14.1
	l-48,119.3L379.3,893L601,909.6L822.7,893l292.7-96.3l-48-119.3l61,14.1L963.7,406l52.1-24.7L953,364.7l8.7-68.3l-38.1,40.3
	l-74.4-151.9L737,116.1H601z"/>
<path class="st2" d="M496.5,642.3l-31.2-68.4l-88.1,9.9l-23.4-97.6l-85.1,230.3L379.3,893L601,909.6V621.2L496.5,642.3z"/>
<path class="st0" d="M508.8,617.3l-12.3-53.8L461.1,542l-58,22.7l-5.8-16.3l66.8-35.9l51.8,29.9l15.3,67.2L508.8,617.3z"/>
<path class="st2" d="M705.5,642.3l31.2-68.4l88.1,9.9l23.4-97.6l85.1,230.3L822.7,893L601,909.6V621.2L705.5,642.3z"/>
<path class="st3" d="M294.9,302.7l-16.6,33.9l-38.1-40.3l8.7,68.3l-62.7,16.7l52.1,24.7L73.6,691.5l61-14.1l-48,119.3l133.9,44.1
	l-88.7-74.3l165.4-462.8L294.9,302.7z"/>
<path class="st4" d="M601,593.2l-45.5,1.6L468.4,665l-62.9-0.1l-43.8,66.5l143.1,157.3l96.1,20.9l96.3-20.9l165.2-144.1l-43.8-66.6
	L733.6,665l-87.1-70.2L601,593.2z"/>
<path class="st5" d="M601,867.6h-77.4l-79-123.8l-57.2,15.9l117.4,129l96.1,20.9l96.3-20.9l110.5-96.4l-45.7-37.1l-83.6,112.5H601z"
	/>
<path class="st5" d="M547.8,418.2l20.7-124.1l-89.8-25.1L469.9,387L547.8,418.2z"/>
<path class="st5" d="M404.8,344.3l49.8-39.7l-6.6,96.8l-37.6-7.8L404.8,344.3z"/>
<path class="st4" d="M364.6,257.6l9.9-86.2L215.3,34.1l-82.2,16.4l-17.7,241.2L57,355l52,131.1L46.7,417l-14.3,64.4l86.7,85.4
	l89.4-109.4l-73-65l46.8-84.6l8-148.4l106.8,144.1L364.6,257.6z"/>
<path class="st5" d="M190.4,159.5l106.8,144.1l67.3-46.1l-64.4,11.1L190.4,159.5z M119.1,566.9l89.4-109.3l-73-65.1l46.8-84.9l8-148
	L162.9,308l-53.6,60.2v117.9L119.1,566.9z"/>
<path class="st2" d="M374.5,171.4l90.5-55.3L253.7,67.2L374.5,171.4z"/>
<path class="st0" d="M601,691.4l-59.8-8.5l-8,15.8l57.3,49.4l0.5,20.2l-8.7,8.1l-111.5-15l-17.1-22.9l-16.3,3.6l8.4,40.1l17.8-0.2
	L601,792.4l140-6.5l16.1,7.9l14.2-30.4l-9.2-8.2l-19.9,14.4l-122.4,6.9l-8.7-8.1l0.5-20.2l57.3-49.4l-8-15.8L601,691.4z"/>
<path class="st5" d="M601,693.3l-59.8-10.4l37.7-84.3H601h22.4l37.6,84.3L601,693.3z"/>
<path class="st4" d="M281.8,737.2L379.3,893l-158.8-52.2l-41.3-117l46.3-52.5l-43.5-0.8l171.9-184.3L281.8,737.2z"/>
<path class="st3" d="M601,593.2l-45.5,1.6l17-80.8H601h28.6l17,80.8L601,593.2z"/>
<path class="st3" d="M601,116.1v119.2L481.8,116.1H601z"/>
<path class="st5" d="M379.3,893l-36.2-57.7L250.6,794l-34-68.1l8.9-54.7l-46.3,52.5l41.3,117L379.3,893z"/>
<path class="st4" d="M478.7,269.1l89.8,25.1l-17.9,107.5l-39.9-21.2L478.7,269.1z"/>
<path class="st4" d="M404.8,344.3l49.8-39.7l-22.4,76.7L404.8,344.3z"/>
<path class="st3" d="M907.1,302.7l16.6,33.9l38.1-40.3l-8.7,68.3l62.7,16.7L963.7,406l164.8,285.5l-61-14.1l48,119.3l-133.9,44.1
	l88.8-74.3L904.8,303.7L907.1,302.7z"/>
<path class="st5" d="M654.2,430.1L633.5,306l89.8-25l8.8,117.8L654.2,430.1z"/>
<path class="st5" d="M797.2,350.3l-49.8-39.7l6.6,96.9l37.6-7.8L797.2,350.3z"/>
<path class="st2" d="M827.5,171.4L737,116.1l211.3-48.9L827.5,171.4z"/>
<path class="st0" d="M693.2,617.3l12.3-53.8l35.3-21.6l58,22.7l5.8-16.3l-66.8-35.9L686,542.3l-15.3,67.2L693.2,617.3z"/>
<path class="st4" d="M920.2,737.2L822.7,893l158.8-52.2l41.3-117l-46.3-52.5l43.5-0.8L848.1,486.2L920.2,737.2z"/>
<path class="st3" d="M601,116.1v119.2l119.2-119.2H601z"/>
<path class="st5" d="M822.7,893l36.2-57.7l92.5-41.2l34-68.1l-8.9-54.7l46.3,52.5l-41.3,117L822.7,893z"/>
<path class="st4" d="M723.3,281l-89.8,25l17.9,107.6l39.9-21.2L723.3,281z"/>
<path class="st4" d="M797.2,350.3l-49.8-39.7l22.5,76.7L797.2,350.3z"/>
<path class="st4" d="M837.5,257.6l-10-86.2L986.7,34.1l82.2,16.4l17.8,241.2l58.4,63.2l-52.1,131.1l62.2-69.1l14.2,64.4l-86.6,85.4
	l-89.4-109.4l73-65l-46.8-84.6l-8-148.4L904.8,303.7L837.5,257.6z"/>
<path class="st5" d="M1011.6,159.5L904.7,303.7l-67.3-46.1l64.5,11.1L1011.6,159.5z M1082.9,566.9l-89.4-109.3l73-65.1l-46.8-84.9
	l-8-148l27.5,148.5l53.5,60.2v117.9L1082.9,566.9z"/>
<path class="st4" d="M686,542.3l-15.3,67.2l-24.3-14.8l16.6-76.7l69.3-35.4l90.2,39.3l-17.9,26.4l-66.8-35.9L686,542.3z"/>
<path class="st4" d="M516,542.3l15.3,67.2l24.3-14.8l-16.6-76.7l-69.3-35.4l-90.2,39.3l17.9,26.4l66.8-35.9L516,542.3z"/>
</svg>
