<?xml version="1.0" encoding="utf-8"?>
<!-- Generator: Adobe Illustrator 26.0.1, SVG Export Plug-In . SVG Version: 6.00 Build 0)  -->
<svg version="1.1" id="Layer_1" width="1em" height="1em" xmlns="http://www.w3.org/2000/svg" xmlns:xlink="http://www.w3.org/1999/xlink" x="0px" y="0px"
	 viewBox="0 0 1104 832" style="enable-background:new 0 0 1104 832;" xml:space="preserve">
<style type="text/css">
	.st0{fill-rule:evenodd;clip-rule:evenodd;fill:#310401;}
	.st1{fill-rule:evenodd;clip-rule:evenodd;fill:#780500;}
	.st2{fill-rule:evenodd;clip-rule:evenodd;fill:#401715;}
	.st3{fill-rule:evenodd;clip-rule:evenodd;fill:#D6D3D3;}
	.st4{fill-rule:evenodd;clip-rule:evenodd;fill:#CB3805;}
	.st5{fill-rule:evenodd;clip-rule:evenodd;fill:#ED6437;}
	.st6{fill-rule:evenodd;clip-rule:evenodd;fill:#FEE7D5;}
	.st7{fill-rule:evenodd;clip-rule:evenodd;fill:#F0BC95;}
	.st8{fill-rule:evenodd;clip-rule:evenodd;fill:#B51300;}
	.st9{fill-rule:evenodd;clip-rule:evenodd;fill:#F5F5F5;}
</style>
<path class="st0" d="M113.1,450.5l-42.3-14.3L88.1,396l34.4-0.2l4.1-7.3l37.5,9.7l6.4-5.5l6.4,4.7l24.2-13.2l33.2-62l101.2-60
	l57.8,92.3l-66.9,75L237.6,479l-66.9,1.9L113.1,450.5z"/>
<path class="st1" d="M332.8,273.2l50.5,80.6l-62,69.5L235.4,471l-62.9,1.8l-56.2-29.7l-34.8-11.7l11.9-27.5l24.9-0.1l-14.4,26
	l44.2,11.7l-33.9-14.6l16.3-29.2l30.4,7.9l-15.8,23.7l32.6,17.7l-24.5-20.7l17.8-24.3l32.9,29.1l5.9-2.9l-26-25.2l22.7-12.2
	l33.6-62.9L332.8,273.2z"/>
<path class="st2" d="M173.9,443.8l-20.5-17.4l17.8-24.3l32.9,29.1l5.6-2.9l-26-25.2l22.5-12.2l33.8-62.9l22.1-13.1l20.2,2.5
	l3.4,77.8L261,449.7l-42.9,7.3l-9-12.1L173.9,443.8z M139.6,438.1l-25.4-11l16.4-29.2l30.4,7.9l-15.8,23.7l13.5,7.4L139.6,438.1z
	 M81.6,431.4l11.8-27.5h25l-14.4,25.8L81.6,431.4z"/>
<path class="st3" d="M709.9,774l91.3,3l45.4,14.3l-167.2,0.5l-39.7,10l-50.6-5.6l-83.6,5.5l-75-5.1l-61.9-30l24.9-12.8l91.3,16.5
	L709.9,774z"/>
<path class="st0" d="M827.9,592.7l-309.5-14l79.8-106.2l297-56.1l171.3,58L1104,571l-54.8,103.1l-98.1,14.8L827.9,592.7z"/>
<path class="st4" d="M831.7,583.9l-296-13.4l67.6-89.9l291.3-55l165.2,55.8l34.6,89.3l-53.2,94l-89.3,11.5L831.7,583.9z"/>
<path class="st1" d="M831.7,583.9l-296-13.4l95-44.8l144.7-22.5l73.1,8l119.1,99.1l106.9-4.6l-33.4,59l-89.3,11.5L831.7,583.9z"/>
<path class="st5" d="M603.3,480.6l291.3-55l165.2,55.8l34.6,89.3l-62.7-56.2l-150-62.2L603.3,480.6z"/>
<path class="st2" d="M1041.2,664.7l-63.4,8.2l-10.2-62.6l54.2-99.8l43.7-14.1l28.8,74.4L1041.2,664.7z"/>
<path class="st2" d="M888,627.2l38.8,29.8l-11-70l56.7-97l37.8-25.3l-70.7-23.9L917,467l-40.5,102.7L888,627.2z"/>
<path class="st2" d="M831.7,583.9l19.8,15.2L833,550l29.4-95.7l32.1-28.7l-53.9,10.1l-22.6,23l-11.5,79.3l13.7,45.3L831.7,583.9z"/>
<path class="st2" d="M748.9,453.1l45.2-8.6l-18.7,58.6l8.9,78.6l-27.8-1.1l-13.9-83L748.9,453.1z"/>
<path class="st0" d="M417.1,567.2l8.6,67.5l61.8,81.5L449.1,736l-10.3,38.2h94.2l52.4-36.4l17.2-69.5l-6.4-16.4l53.9,54.4l5,13.1
	l-38.5,35.7l-8.6,39.3h80.8l56.4-39.4l10.6-91.5l-36.2-57.3V494.7l-97.1-127l-67.2-116.6L501,191.6l-201.3,98.2l63.7,103.9l28,95
	L417.1,567.2z"/>
<path class="st4" d="M438.2,207.3l-129.7,78l63.1,108.3l28.1,94.5l25.4,77.5l8.5,66.2l66.2,87.3L456,741.5l-6.7,24.8h81.3l47.9-33.2
	l15.8-64.1l-22.3-56.6l-87-25.1l-48.9-34.5l52.1,28.5l80.6,20.3l-16.5-71.4L588.7,633l68.3,69l7.4,19.7l-40.6,37.6l-5.9,27.2h68.3
	l51.5-35.9l9.9-85.2l-54.3-85.9l18.3,20.4V496.4L614.4,369L551.8,257l-38.5-43.9L438.2,207.3z"/>
<path class="st2" d="M702.7,589.9l9,10V548L702.7,589.9z M588.7,633l68.3,69l7.4,19.7l-40.6,37.6l-5.6,27.2h68.3l51.5-35.9l9.9-85.2
	L702,593.1l5.3,72.9l-42.3,4.2L588.7,633z M433.4,631.6l66.2,87.3L456,741.5l-6.7,24.8h81.3l47.9-33.2l15.8-64.1l-70.2,11.3
	L433.4,631.6z"/>
<path class="st1" d="M585.1,645.4l-13-33.1l-87-24.8l45.1,59.3L585.1,645.4z M439.6,207.4l-120,89.1l61.4,99.5l29.1,91l26,65.8
	l52.1,28.5l80.6,20.3l-16.5-71.4l6.4,18.1l57.8-67.9L555,307.9L439.6,207.4z"/>
<path class="st0" d="M170,63.1l115.9,15.5l55.7-9.9l24.9-3.5l4-65.2l42.1,2.9l70.5,71.9l28,15.2l11.3,43.5l-33.1,38l40,43.4
	l-22.4-0.3l12.1,26.5l-86.6,51.5l-56.6,19.2l-74.2,8.8L196.1,312l5.2-30.9l-20.3,9.6l15.7-49.1l-26.3-29.2l-2.1-45.3l4.8-16.3
	l-33.4-61.6L170,63.1z"/>
<path class="st0" d="M392.8,69.2c61.4-117.2,93.6,118.3,89.4,107l-3,1.6l-2.5-2.2C447.7,150.8,377.3,105.8,392.8,69.2z"/>
<path class="st0" d="M244.8,101.6C152.4,105,212.6,274.6,208,236h3.4l1.4-3c15.9-34.8,61.3-104.9,32.1-131.5"/>
<path class="st4" d="M349.4,77l27.1-1l31.6,34.5l17.2,3.9l8.7-14.4l1.8,20.8l19.7,0.8l-13.8,10.7l67.2,73.9l-19-0.2l21.9,32.3
	l-80.6,47.4L366.6,305l-66.8,9.4l-93.1-9.6l6.6-38.4l-17.2,8.1l30.4-95.2l-17-4l17.5-9l-7-19.7l13.9,9.5l12.3-49.8l5.7,5.7
	l26.4-21.7L349.4,77z"/>
<path class="st1" d="M284.3,249.6l-36.1-19l-3.7-35.5l-5.1,77.2l38.9,39.9l21.3,2.2l75.5-7.7l56-21l21.4-59.4l-40.1-62.7l-9.8,47
	l-21.5,16.9l-35.2,15.5L284.3,249.6z"/>
<path class="st5" d="M425.4,114.5l8.7-14.4l1.8,20.8l19.7,0.8l-13.8,10.7l67.2,73.9l-19-0.2l21.9,32.3L475,260.1l21.5-27.8
	l-88.4-121.7L425.4,114.5z"/>
<path class="st0" d="M289.8,239.9l-17.3-2.6l-8.8-11.5l9.2-17.9l15.1,1.6l12.6,16.1L289.8,239.9z"/>
<path class="st6" d="M315.6,219.5l13.6-2.5l30.3,15.2l30.5-14.6l20.9,26.2l-28.6,55.4l-8.1,7.5l-49,4.8L258,287.1l4.4-36l22.9-7.9
	l16.9-20.2L315.6,219.5z"/>
<path class="st7" d="M361,299.1l16.2-45.2l33.6-10l-28.6,55.4l-8.1,7.5l-49,4.8L258,287.1l19.9-5.9l17.4,10.8l20,14.3L361,299.1z"/>
<path class="st7" d="M314.2,165.2l-6.2-37.6l27.2-7.5l2.6,35.8L314.2,165.2z"/>
<path class="st7" d="M357.6,137.5l-15-12.1l2,29.3l11.4-2.3L357.6,137.5z"/>
<path class="st1" d="M271.9,211.8l12.7,1l6.8,11.7l-6.1,11.1l-12.1-0.5l-7-11.7L271.9,211.8z"/>
<path class="st0" d="M273.3,216.5l9.3,0.3l4.6,7.6l-4.8,7.6l-8.9,0.1l-4.8-7.6L273.3,216.5z"/>
<path class="st6" d="M281.5,212.3l4.7,0.3l2.7,4.6l-2.8,4.3l-5,0.1l-2.8-4.3L281.5,212.3z"/>
<path class="st6" d="M287.6,211.2l13,14.4l3.9-7.3L292,204l-24.9-3.6l-11.6,20.9l8.2,4.6l8.6-16.7L287.6,211.2z"/>
<path class="st0" d="M357.8,226.6l14.4-8.4l5.8-17.4l-20.4-10.5l-16.3,8.7l-3.6,21L357.8,226.6z"/>
<path class="st6" d="M450.2,233.3l-18.9,52.4l43.7-25.7l4.7-37.3l-17.1-12.6l12.9-3l-62.9-43.5L450.2,233.3z"/>
<path class="st5" d="M315.6,219.5l13.6-2.5l-5.1-16.3l-8.5,1.9l-8.5,1.8l-5,18.6L315.6,219.5z"/>
<path class="st1" d="M354.2,194.6l-12.9,7.5l-0.5,13.6l12.7,6.3l12.6-6.7l0.8-13.7L354.2,194.6z"/>
<path class="st0" d="M352.1,200.9l-8.5,5l-0.3,8.9l8.5,4.2l8.3-4.4l0.5-9L352.1,200.9z"/>
<path class="st6" d="M358.7,194.4l-4.2,2.6l-0.1,5.4l4.8,2.4l4.7-2.5l0.3-5.1L358.7,194.4z"/>
<path class="st5" d="M288.5,123.3l61.6-48.7l-35.3,7.7L279.4,90L288.5,123.3z"/>
<path class="st7" d="M431.3,285.8l7-19.4l24.8-18.2l5.7-22.3l-6.1-15.7l17.1,12.6l-4.7,37.3L431.3,285.8z"/>
<path class="st6" d="M335.2,120l-27.2,7.5l5.4,32.6l12.1-6.4L335.2,120z"/>
<path class="st6" d="M357.6,137.5l-15-12.1l6.8,23.3L357.6,137.5z"/>
<path class="st5" d="M236.7,145l-2.8,11.1l-13.9-9.5l7,19.7l-17.5,9l17,4l-30.4,95.2l17.2-8.1l-6.6,38.4l42.6,4.4l-31.2-16.2
	l19.3-147.8L236.7,145z"/>
<path class="st7" d="M290.5,169.7l-9.7-34.9l-26.4,4.4l12,31.7L290.5,169.7z"/>
<path class="st7" d="M242.4,164.5l8.1-16.4l10.1,26l-10.8,2.5L242.4,164.5z"/>
<path class="st1" d="M251.9,112l26.4-21.7L168.5,73.7L251.9,112z"/>
<path class="st6" d="M239.5,272.3l38.9,39.9l-50.4-5.2l-19.8-32l10.3-18.5l-12.9,2.6l39.1-65.7L239.5,272.3z"/>
<path class="st7" d="M278.5,312.2l-14.4-14.8l-30.1-6.3l-14.5-18l-0.9-16.8l-10.3,18.5l19.8,32L278.5,312.2z"/>
<path class="st6" d="M254.4,139.2l26.4-4.4l8.4,30.2l-13-0.6L254.4,139.2z"/>
<path class="st6" d="M242.4,164.5l8.1-16.4l3.5,22.6L242.4,164.5z"/>
<path class="st6" d="M251.9,112l-5.7-5.7l-77.8-32.6l-20.2,17.6l34.4,62l-2.9,16.5l23.9,35.4l-22.9-16.4l-0.1,19.9l20.9,25.7
	l19.4-38.1l-12.9-15.9l-4.5-26.8l-19.2-41l52.2,32.2L251.9,112z"/>
<path class="st7" d="M184.5,112.8l52.2,32.2l15.2-33l-9.6,10L184.5,112.8z M201.4,234.6l19.4-38.1L208,180.5l-4.3-26.8l-19.2-41
	l13.4,42.3l0.9,19.9l4.9,30.2L201.4,234.6z"/>
<path class="st6" d="M341.4,199l-3.6,21l-7.4-4.4l4.9-22.8l20.6-11.5l27.6,11.5l-5.4,8.1l-20.4-10.5L341.4,199z"/>
<path class="st0" d="M300.5,250.9l17.2-6.4l3.4,4.2L307.3,267l1.9,9.5l3.1,1.9l24.2,1l31.9-26.9l1.4-8.5l3-0.1l4.3,10l-6.5,1.9
	l-31.3,29.8l-30.6-0.9l-14.7,6.4l-16.3-9.8l-4.2,3.4l-6.2-8.1l2.2-3l21.1,12l10.5-4.6l2-3l-2.2-9.5l-20.2-10.9l1.4-5.2L300.5,250.9z
	"/>
<path class="st7" d="M300.6,251.4l17.1-6.9l1.9-25.7l-13.2,2.9l-24.2,30.5L300.6,251.4z"/>
<path class="st6" d="M386.3,100.6L376.5,76l4.1-64.8l21.1,0.5l71.5,69.8L500,94.6l-8.5,40.6l14.6-23.2l7.4,18l-33.4,37.3l-31.5-27.3
	l18-22.5l-17.9-22.2l-49.3-49.9l8.7,65.1L386.3,100.6z"/>
<path class="st7" d="M399.4,45.5l8.5,65.1l-21.9-10l15.2-1.2L399.4,45.5z M480.1,167.4l-31.5-27.3l18-22.5l-17.9-22.2l-49.3-49.9
	l55,48.9l31.1,6.6l6,34.2L480.1,167.4z"/>
<path class="st5" d="M613.8,368l-3.5,10.2l19,82.4l-35.9,69.7l33.3,65.5l28.7-16.2l18.3-31.3v-51.8L613.8,368z"/>
<path class="st0" d="M330.8,412.5l-14.5,25.1l25.4,9.7l-3.7-4.3l22.5-21.4L330.8,412.5z M315.9,463.9L267,443.5l25.6-49.6l26.8,6.9
	l60.2-12.2l41.6-89.7l72.9-73.8l57.7,31.9l9.4,123.2L411,488.2h-69.5L315.9,463.9z"/>
<path class="st4" d="M496,234.5l55.8,22.5l1.9,118.7L408.3,480.2h-63.6l-24.4-23.1l-42.2-17.6l18.7-36.3L323,410l-18.4,31.6
	l36.2,13.9l-27.5-15.3l16.4-27.8l35.2,8.2l-24.3,23.7l20.5,20.9l35.1,2.8l-33.6-8.8l-13.6-15.7l25.4-24.2l37,28.4l-32-34.1l-14.7,1
	l-28.9-8.8l49.3-10l42.7-92.2L496,234.5z"/>
<path class="st2" d="M326,447.3l-12.7-7l16.4-27.8l35.2,8.2l-24.3,23.7l14.5,14.8L326,447.3z M278.3,438.8l18.4-35.6l26.2,6.8
	l-17.7,30.5L278.3,438.8z M481.2,427.9l-70.7,50.7l-14.1-10.8l-33.8-8.8L349,443.4l25.4-24.2l37,28.2l-31.9-34.1l-14.7,1l-28.9-8.8
	l49.5-9.5l12.5-26.9l49.5-40.7l40.2,16.9L481.2,427.9z"/>
<path class="st0" d="M210.1,436.8l24-20.3L206,430.2l-7.6,3.7l17.7,27.2l44.9-11.4l-41.4,3.7L210.1,436.8z"/>
<path class="st3" d="M219.5,751.1L261,779l-59.9,4.1l36.6,19l-73,3.2l-33.1,4.7L84,832l-1.4-18.3l-41.9-6.8L13.9,816l7.5-13.1
	L3.8,783.7l132.3-29.2L219.5,751.1z"/>
<path class="st0" d="M194.2,761l22.5,9l24.4-6.8l20,15.9l-19.3-7.1l-28.1,6.9l-28.6-9.9L194.2,761z"/>
<path class="st0" d="M134,784.8l18.3-7l19.6,14l36-6.3l29.7,16.7l-32.1-6.9l-35.2,5.4L134,784.8z"/>
<path class="st0" d="M113.1,787.3l-10.7,1l12.7,14.6l-33.1,4.6L84,832l9.5-18.5l38-3.5L113.1,787.3z"/>
<path class="st0" d="M27.1,776l10,8.7l-23,4.7l13.7,18.1L6.8,820.3l11.3-14.8L0,786.2L27.1,776z"/>
<path class="st0" d="M13.9,780.3l28,15.9l83.6-1l76.4-21.2l17.6-23l-9.4-27.9L176.6,690l-73.7-5.7l-55,16.8l-33.5,38L13.9,780.3z"/>
<path class="st1" d="M22.2,739.7l0.3,21l17.7-23.3l58,9l25.6,39.9l70.7-17.1l15.8-19.8l-8.5-24.8l-29.5-28.4l-68.4-5.5L52.8,706
	L22.2,739.7z"/>
<path class="st8" d="M98.2,746.4l-58-9L52.8,706l51.2-15.4l68.4,5.5L133.8,718L98.2,746.4z"/>
<path class="st4" d="M172.4,696.1L133.8,718l19.5,17.7l48.6-11.3L172.4,696.1z"/>
<path class="st2" d="M49.2,767.2l-9-29.7l58,9L49.2,767.2z"/>
<path class="st9" d="M150.5,708.6l-16.7,9.5l12.9,11.7l16.4-7.8L150.5,708.6z"/>
<path class="st9" d="M77,774.2l-8.6,1.7l0.7,8.7l8.6-1.6L77,774.2z"/>
<path class="st9" d="M32,769.5l4.4,1.7l-0.3,8.7l-4.5-1.6L32,769.5z"/>
</svg>
