<?xml version="1.0" encoding="utf-8"?>
<!-- Generator: Adobe Illustrator 26.0.1, SVG Export Plug-In . SVG Version: 6.00 Build 0)  -->
<svg version="1.1" id="Layer_1" width="1em" height="1em" xmlns="http://www.w3.org/2000/svg" xmlns:xlink="http://www.w3.org/1999/xlink" x="0px" y="0px"
	 viewBox="0 0 1208 941" style="enable-background:new 0 0 1208 941;" xml:space="preserve">
<style type="text/css">
	.st0{fill-rule:evenodd;clip-rule:evenodd;fill:#300500;}
	.st1{fill-rule:evenodd;clip-rule:evenodd;fill:#CC3805;}
	.st2{fill-rule:evenodd;clip-rule:evenodd;fill:#780500;}
	.st3{fill-rule:evenodd;clip-rule:evenodd;fill:#ED6338;}
	.st4{fill-rule:evenodd;clip-rule:evenodd;fill:#FFE8D6;}
	.st5{fill-rule:evenodd;clip-rule:evenodd;fill:#F0BD94;}
</style>
<path class="st0" d="M224.8,0l45.3,39l200.5,45.5h266.7L940,37.2L983.1,0L1102,23.6l18.7,254.5l64.4,69.4l22.6,143l-99.1,97.9
	l85.4,147.8l-72.3-16.6l38.8,96.3L832.5,923.6l-228.7,17.1l-228.6-17.1L47.4,815.9l38.7-96.3l-72.3,16.6l85.4-147.8L0.1,490.5
	l22.6-143L87,278.1l18.8-254.5L224.8,0"/>
<path class="st0" d="M854.5,169.4c281.6-336.9,220,448.1,214.1,409.2l-10.9,2.9l-6.7-8.9C975,471.4,778.9,276.1,854.5,169.4z"/>
<path class="st0" d="M353.4,169.4c-281.5-336.9-219.9,448.1-214,409.2l10.9,2.9l6.7-8.9C233,471.4,429,276.1,353.4,169.4z"/>
<path class="st1" d="M604,116.6h136.7l112.8,68.9l74.8,152.6l38.2-40.4l-8.7,68.6l63,16.7l-52.3,24.8l165.6,286.7l-61.3-14.2
	l48.3,119.8l-294.2,96.7L604,913.5l-222.8-16.6L87,800.1l48.3-119.8l-61.3,14.2l165.6-286.7L187.2,383l63-16.7l-8.7-68.6l38.2,40.4
	l74.8-152.6l112.8-68.9H604z"/>
<path class="st2" d="M737.2,667.8l81.5-39.5l33.6-140l85.5,231.3L826.8,896.8L604,913.5V623.8L737.2,667.8z"/>
<path class="st2" d="M470.8,667.8l-81.6-39.5l-33.5-140l-85.5,231.3l111.1,177.3L604,913.5V623.8L470.8,667.8z"/>
<path class="st3" d="M911.6,304l16.6,34.1l38.2-40.4l-8.7,68.6l63,16.7l-52.3,24.8l165.6,286.7l-61.3-14.2l48.3,119.8l-134.6,44.3
	l89.3-74.6L909.2,305L911.6,304z"/>
<path class="st4" d="M604,595.7l45.8,1.5l87.5,70.6l63.2-0.1l44,66.8L700.8,892.4l-96.8,21l-96.6-21L363.6,734.5l44-66.8l63.2,0.1
	l87.5-70.6L604,595.7z"/>
<path class="st5" d="M604,871.3h77.9l49.6-106.5l70,16.9L700.8,892.4l-96.8,21l-96.6-21l-84.5-92.7l62.4-14.8l40.9,86.4H604z"/>
<path class="st5" d="M657.5,497.5l-20.8-124.7l90.3-25.1l8.8,118.3L657.5,497.5z"/>
<path class="st5" d="M801.1,405.4l-50-39.7l6.6,97.2l37.8-7.8L801.1,405.4z"/>
<path class="st4" d="M841.7,258.6l-10-86.5L991.6,34.3l82.6,16.4l17.8,242.3l58.8,63.5l-52.3,131.7l62.5-69.4l14.3,64.6l-87,85.9
	l-89.9-109.9l73.3-65.3l-47.1-84.9l-8-149L909.2,305L841.7,258.6z"/>
<path class="st5" d="M1016.7,160.2L909.2,305l-67.7-46.3l64.8,11.2L1016.7,160.2z M1088.3,569.3l-90-109.8l73.4-65.4l-47.1-85.3
	l-8-148.6l27.4,149.1l53.8,60.4v118.4L1088.3,569.3z"/>
<path class="st2" d="M831.7,172.1l-91-55.5L953,67.5L831.7,172.1z"/>
<path class="st0" d="M604,694.4l60.2-8.5l8,15.9l-57.6,49.6l-0.5,32.2l8.7,8.1l88.6-12.4l20-14.5l9.2,8.2l-14.3,30.5l-16.2-7.9
	l-106.3,12h-88.4l-16.1,7.9l-14.3-30.6l9.2-8.2l20,14.5l70.6,0.5l8.7-8.1l-0.5-32.2l-57.6-49.6l8-15.9L604,694.4z"/>
<path class="st5" d="M604,696.3l60.2-10.4l-37.8-84.6H604h-22.3l-37.9,84.6L604,696.3z"/>
<path class="st0" d="M740.3,635l48.2-27.1l20.2-57.2l-67.2-36.1l-52,30l-15.4,67.5L740.3,635z"/>
<path class="st4" d="M924.8,740.4l-98,156.5l159.6-52.4l41.5-117.5l-46.6-52.7l43.7-0.8L852.4,488.3L924.8,740.4z"/>
<path class="st3" d="M604,595.7l45.8,1.5l-17-81.1H604h-28.6l-17,81.1L604,595.7z"/>
<path class="st2" d="M740.7,528.7l-43,24.2l-2.3,44.9l42,21.7l42-21.7l3.3-45.4L740.7,528.7z"/>
<path class="st0" d="M737.8,539.5l-28.3,15.9l-1.5,29.5l27.6,14.3l27.6-14.3l2.2-29.8L737.8,539.5z"/>
<path class="st4" d="M752.8,531.3l-14.3,8.5l-0.6,17.8l15.8,8.1l15.8-8.1l1.2-16.9L752.8,531.3z"/>
<path class="st3" d="M604,116.6v119.7l119.8-119.7H604z"/>
<path class="st5" d="M826.8,896.8l36.4-58l92.9-41.4l34.2-68.4l-8.9-54.9l46.6,52.7l-41.5,117.5L826.8,896.8z"/>
<path class="st4" d="M726.9,347.7l-90.3,25.1l18,108.1l40.1-21.3L726.9,347.7z"/>
<path class="st4" d="M801.1,405.4l-50-39.7l22.6,76.9L801.1,405.4z"/>
<path class="st3" d="M296.4,304l-16.6,34.1l-38.2-40.4l8.7,68.6l-63,16.7l52.3,24.8L73.9,694.5l61.3-14.2L87,800.1l134.6,44.3
	l-89.2-74.6L298.7,305L296.4,304z"/>
<path class="st5" d="M550.5,473.6L571.3,349l-90.3-25.1l-8.8,118.3L550.5,473.6z"/>
<path class="st5" d="M406.9,393.5l50-39.8l-6.6,97.2l-37.8-7.8L406.9,393.5z"/>
<path class="st2" d="M376.3,172.1l91-55.5L255,67.5L376.3,172.1z"/>
<path class="st0" d="M467.7,635l-48.2-27.1l-20.2-57.2l67.2-36.1l52,30l15.4,67.5L467.7,635z"/>
<path class="st4" d="M283.2,740.4l98,156.5l-159.6-52.4L180,726.9l46.6-52.7l-43.7-0.8l172.7-185.1L283.2,740.4z"/>
<path class="st2" d="M467.3,528.7l43,24.2l2.3,44.9l-42,21.7l-42-21.7l-3.3-45.4L467.3,528.7z"/>
<path class="st0" d="M470.2,539.5l28.3,15.9l1.5,29.5l-27.6,14.3l-27.6-14.3l-2.2-29.8L470.2,539.5z"/>
<path class="st4" d="M455.2,531.3l14.3,8.5l0.6,17.8l-15.8,8.1l-15.8-8.1l-1.2-16.9L455.2,531.3z"/>
<path class="st3" d="M604,116.6v119.7L484.2,116.6H604z"/>
<path class="st5" d="M381.2,896.8l-36.4-58l-92.9-41.4l-34.2-68.4l8.9-54.9L180,726.9l41.5,117.5L381.2,896.8z"/>
<path class="st4" d="M481.1,323.9l90.3,25.1l-18,108.1l-40.1-21.3L481.1,323.9z"/>
<path class="st4" d="M406.9,393.5l50-39.8l-22.5,77L406.9,393.5z"/>
<path class="st4" d="M366.4,258.6l9.9-86.5L216.4,34.3l-82.6,16.4L115.9,293l-58.7,63.5l52.2,131.7L47,418.8l-14.3,64.6l87,85.9
	l89.9-109.9l-73.3-65.3l47.1-84.9l8-149L298.7,305L366.4,258.6z"/>
<path class="st5" d="M191.8,160.2L299.2,305l67.7-46.3l-64.7,11.2L191.8,160.2z M120.2,569.3l89.9-109.8l-73.3-65.4l47.1-84.9
	l8-148.6l-27.6,149.1l-53.9,60.4v118.4L120.2,569.3z"/>
<path class="st4" d="M689.5,544.7l-15.4,67.5l-24.4-15l16.6-76.9l69.7-35.6l90.7,39.4l-18,26.6l-67.2-36.1L689.5,544.7z"/>
<path class="st4" d="M518.5,544.7l15.4,67.5l24.4-15l-16.6-76.9L472,484.7l-90.7,39.4l18,26.6l67.2-36.1L518.5,544.7z"/>
</svg>
