<svg width="1em" height="1em"  viewBox="0 0 450 76" fill="none" xmlns="http://www.w3.org/2000/svg">
<g clip-path="url(#clip0_1611_6012)">
<path fill-rule="evenodd" clip-rule="evenodd" d="M0 0V66H26.561V57.9512H8.04882V8.04872H18.2316V0H0Z" fill="#2F2C2C"/>
<path fill-rule="evenodd" clip-rule="evenodd" d="M23.705 8.04872H27.3051V0H23.705V8.04872Z" fill="#2F2C2C"/>
<path fill-rule="evenodd" clip-rule="evenodd" d="M39.5256 0V8.04872H58.0379V57.9512H47.855V66H66.0866V0H39.5256Z" fill="#2F2C2C"/>
<path fill-rule="evenodd" clip-rule="evenodd" d="M39.8819 66H43.4819V57.9512H39.8819V66Z" fill="#2F2C2C"/>
<path fill-rule="evenodd" clip-rule="evenodd" d="M21.9928 16.7518V26.8994L36.0215 33.2676H36.0216L47.1981 28.1941L21.9928 16.7518Z" fill="#D85556"/>
<path fill-rule="evenodd" clip-rule="evenodd" d="M47.1981 28.1941V28.1941L36.0216 33.2675L21.9928 39.6359V49.7836L47.1981 38.3413V28.1941Z" fill="#F15D61"/>
</g>
<path fill-rule="evenodd" clip-rule="evenodd" d="M91 9.0872V59.4545H102.579V44.3752H108.093L115.182 59.4545H130.455L120.223 39.9642C123.347 38.31 129.706 33.1271 130.148 25.6284C130.699 16.2551 122.98 9.0872 113.606 9.0872H91ZM102.546 20.4728V31.5003H111.368C113.022 31.3165 116.33 29.8461 116.33 25.4352C116.33 21.0242 112.287 20.289 110.265 20.4728H102.546Z" fill="#2F2C2C"/>
<path fill-rule="evenodd" clip-rule="evenodd" d="M208.213 41.4238C208.213 37.2178 205.089 34.1529 200.773 34.1529C196.459 34.1529 193.558 37.0752 193.558 41.4238C193.558 45.7724 196.384 48.6953 200.7 48.6953C205.089 48.6953 208.213 45.7724 208.213 41.4238V41.4238ZM221.158 6.63636V59.5327H208.362V54.6133C206.055 58.178 202.237 59.5327 197.178 59.5327C186.837 59.5327 180.091 52.7605 180.091 41.425C180.091 30.1616 187.456 22.5334 197.648 22.5334C202.261 22.5334 205.683 24.3874 207.915 27.5238V6.63636H221.158Z" fill="#2F2C2C"/>
<path fill-rule="evenodd" clip-rule="evenodd" d="M389.967 41.3797C389.967 37.1737 386.843 34.1088 382.527 34.1088C378.212 34.1088 375.311 37.0311 375.311 41.3797C375.311 45.7283 378.138 48.6512 382.453 48.6512C386.843 48.6512 389.967 45.7283 389.967 41.3797V41.3797ZM402.915 6.59226V59.4886H390.119V54.5692C387.812 58.1339 384.164 59.4886 379.105 59.4886C368.764 59.4886 361.848 52.7164 361.848 41.3809C361.848 30.1175 369.214 22.4893 379.406 22.4893C384.019 22.4893 387.441 24.3433 389.672 27.4797V6.59226H402.915Z" fill="#2F2C2C"/>
<path fill-rule="evenodd" clip-rule="evenodd" d="M240.508 41.2125C240.508 45.4185 243.633 48.4835 247.948 48.4835C252.263 48.4835 255.164 45.5611 255.164 41.2125C255.164 36.864 252.338 33.941 248.022 33.941C243.633 33.941 240.508 36.8639 240.508 41.2125V41.2125ZM227.564 76L227.564 22.5455L240.359 22.5455L240.359 28.0231C242.666 24.4583 246.237 22.3193 251.296 22.3193C261.637 22.3193 268.63 29.8759 268.63 41.2114C268.63 52.4747 261.488 59.4545 251.296 59.4545C246.683 59.4545 243.038 58.249 240.806 55.1125L240.806 76L227.564 76Z" fill="#2F2C2C"/>
<path fill-rule="evenodd" clip-rule="evenodd" d="M314.715 22.5455V59.5447H301.919V54.6253C299.612 58.19 296.185 59.4545 291.126 59.4545C280.785 59.4545 273.648 52.7725 273.648 41.437C273.648 30.1736 281.014 22.5455 291.206 22.5455C295.819 22.5455 299.241 24.3994 301.472 27.5359V22.5455H314.715ZM300.668 41.438C300.668 37.232 297.544 34.1671 293.228 34.1671C288.914 34.1671 286.013 37.0895 286.013 41.438C286.013 45.7866 288.839 48.7095 293.155 48.7095C297.544 48.7095 300.668 45.7866 300.668 41.438V41.438Z" fill="#2F2C2C"/>
<path fill-rule="evenodd" clip-rule="evenodd" d="M449.115 22.5455V59.5447H436.319V54.6253C434.012 58.19 430.722 59.4545 425.663 59.4545C415.322 59.4545 408.048 52.7725 408.048 41.437C408.048 30.1736 415.414 22.5455 425.606 22.5455C430.219 22.5455 433.641 24.3994 435.872 27.5359V22.5455H449.115ZM435.07 41.4376C435.07 37.2316 431.945 34.1667 427.629 34.1667C423.315 34.1667 420.414 37.089 420.414 41.4376C420.414 45.7862 423.24 48.7091 427.556 48.7091C431.945 48.7091 435.07 45.7862 435.07 41.4376V41.4376Z" fill="#2F2C2C"/>
<path d="M319.848 59.5725V22.5455H330.325V28.7481C330.325 28.7481 332.411 22.6304 343.006 22.6304C352.931 22.6305 356.607 31.4524 356.791 35.8634V59.5725H344.109V40.8258C344.109 38.6203 343.558 33.6579 338.044 33.6579C333.633 33.6579 332.162 37.7013 331.979 39.723V59.5725H319.848Z" fill="#2F2C2C"/>
<path fill-rule="evenodd" clip-rule="evenodd" d="M162.048 36.7168C161.679 33.854 159.243 32.1089 155.699 32.1089C152.081 32.1089 149.793 33.5753 148.833 36.7168H162.048ZM174.6 44.5396H148.613C149.498 47.8908 151.788 49.5664 155.552 49.5664C158.727 49.5664 160.794 48.5194 161.827 46.3543L174.255 46.4816C171.923 55.6878 163.304 59.5509 155.258 59.5509C143.814 59.5509 135.545 51.7309 135.545 40.9787C135.545 30.3655 144.036 22.5455 155.848 22.5455C167.143 22.5455 174.747 30.2959 174.747 41.1183C174.747 43.0726 174.6 44.5396 174.6 44.5396Z" fill="#2F2C2C"/>
<defs>
<clipPath id="clip0_1611_6012">
<rect width="66" height="66" fill="white"/>
</clipPath>
</defs>
</svg>
