<svg width="1em" height="1em"  viewBox="0 0 283 55" fill="none" xmlns="http://www.w3.org/2000/svg">
<path fill-rule="evenodd" clip-rule="evenodd" d="M0 2.71875V43H9.09768V30H13L20 43H32L23.5 28.5C25.9549 27.2016 30.6534 23.3859 31 17.5C31.4332 10.1426 25.1269 2.71875 17.7621 2.71875H0ZM9 12.0206V21H16.68C18.12 20.8503 20.5 20 20.5 16.5C20.5 12.9082 18 12.0206 15.72 12.0206H9Z" fill="white"/>
<path fill-rule="evenodd" clip-rule="evenodd" d="M90 27.9997C90 23.9506 87.4418 21 83.908 21C80.3753 21 77.5 23.8134 77.5 27.9997C77.5 32.1861 80.3141 35 83.8478 35C87.4418 35 90 32.1861 90 27.9997ZM99.2666 1V43H90.2128V38.6962C89 42.5614 85.4746 43.5 81.5 43.5C73.3748 43.5 68 37.2404 68 28.3339C68 19.4841 73.4921 12.5 81.5 12.5C85.1243 12.5 88.1081 13.5356 89.8616 16V1H99.2666Z" fill="white"/>
<path fill-rule="evenodd" clip-rule="evenodd" d="M236 27.9997C236 23.9506 233.442 21 229.908 21C226.375 21 223.5 23.8134 223.5 27.9997C223.5 32.1861 226.314 35 229.848 35C233.442 35 236 32.1861 236 27.9997ZM245.267 1V43H236.213V38.6962C235 42.5614 231.475 43.5 227.5 43.5C219.375 43.5 214 37.2404 214 28.3339C214 19.4841 219.492 12.5 227.5 12.5C231.124 12.5 234.108 13.5356 235.862 16V1H245.267Z" fill="white"/>
<path fill-rule="evenodd" clip-rule="evenodd" d="M116 28.5002C116 32.2602 118.558 34.5 122.092 34.5C125.625 34.5 128.5 32.3876 128.5 28.5002C128.5 24.6129 125.626 22 122.092 22C118.498 22 116 24.6129 116 28.5002ZM106 54.0527L106 13L115.335 13L115.335 16C117.148 13.1991 122.345 12.9501 124.647 13C132.844 13.1777 138.267 18.9374 138.267 27.8438C138.267 36.6936 132.508 43.5 124.5 43.5C120.876 43.5 117.441 42.9644 115.687 40.5L115.687 54.0527L106 54.0527Z" fill="white"/>
<path fill-rule="evenodd" clip-rule="evenodd" d="M173.776 13V43H164.5V40C162.5 42.5 159.475 43.5 155.5 43.5C147.375 43.5 141.51 37.2845 141.51 28.378C141.51 19.5282 147.234 13 155.242 13C158.866 13 161.5 13.5347 164.371 16V13H173.776ZM164 27.9997C164 23.9506 161.442 21 157.908 21C154.375 21 151.5 23.8134 151.5 27.9997C151.5 32.1861 154.314 35 157.848 35C161.442 35 164 32.1861 164 27.9997Z" fill="white"/>
<path fill-rule="evenodd" clip-rule="evenodd" d="M282.267 13V43H272.991V40C270.991 42.5 267.965 43.5 263.991 43.5C255.865 43.5 250 37.2845 250 28.378C250 19.5282 255.724 13 263.732 13C267.357 13 269.991 13.5347 272.862 16V13H282.267ZM272.491 27.9997C272.491 23.9506 269.932 21 266.399 21C262.866 21 259.991 23.8134 259.991 27.9997C259.991 32.1861 262.805 35 266.338 35C269.932 35 272.491 32.1861 272.491 27.9997Z" fill="white"/>
<path d="M180 43V13H189.507V16.5C189.507 16.5 190.396 13 199 13C207.604 13 209.351 19.9261 209.5 23.5V43H200V27.5C200 25.7131 199.478 21.5 195 21.5C190.522 21.5 190 25.2796 189.851 26.9176V43H180Z" fill="white"/>
<path fill-rule="evenodd" clip-rule="evenodd" d="M43.375 31H64.5673C64.5673 31 64.9688 30.1959 64.9688 28.5587C64.9688 19.4927 58.5266 12.5 49.3154 12.5C39.6829 12.5 33 19.5509 33 28.4417C33 37.4491 41 43.5 49 43.5C56 43.5 60 41 63 38L57 32.5C56.1572 34.3138 52 36 49.3154 35.6358C46.2454 35.6358 44.0974 33.8073 43.375 31ZM43.0245 25C43.3 22.1967 45.8702 20 49 20C52.1298 20 54.7 22.1967 54.9755 25H43.0245Z" fill="white"/>
</svg>
