<?xml version="1.0" encoding="utf-8"?>
<!-- Generator: Adobe Illustrator 26.0.1, SVG Export Plug-In . SVG Version: 6.00 Build 0)  -->
<svg version="1.1" id="Layer_1" width="1em" height="1em" xmlns="http://www.w3.org/2000/svg" xmlns:xlink="http://www.w3.org/1999/xlink" x="0px" y="0px"
	 viewBox="0 0 1037 1037" style="enable-background:new 0 0 1037 1037;" xml:space="preserve">
<style type="text/css">
	.st0{clip-path:url(#SVGID_00000103951889317780014780000007642958446328182912_);}
	.st1{fill-rule:evenodd;clip-rule:evenodd;fill:#310401;}
	.st2{fill-rule:evenodd;clip-rule:evenodd;fill:#CB3805;}
	.st3{fill-rule:evenodd;clip-rule:evenodd;fill:#780500;}
	.st4{fill-rule:evenodd;clip-rule:evenodd;fill:#ED6437;}
	.st5{fill-rule:evenodd;clip-rule:evenodd;fill:#401715;}
	.st6{fill-rule:evenodd;clip-rule:evenodd;fill:#F0BC95;}
	.st7{fill-rule:evenodd;clip-rule:evenodd;fill:#FEE7D5;}
	.st8{fill-rule:evenodd;clip-rule:evenodd;fill:#1E2D45;}
	.st9{fill-rule:evenodd;clip-rule:evenodd;fill:#3A4E6F;}
	.st10{fill-rule:evenodd;clip-rule:evenodd;fill:#445C82;}
	.st11{fill-rule:evenodd;clip-rule:evenodd;fill:#5A7596;}
	.st12{fill-rule:evenodd;clip-rule:evenodd;fill:#97B0C4;}
	.st13{fill-rule:evenodd;clip-rule:evenodd;fill:#F68857;}
</style>
<g>
	<defs>
		<rect id="SVGID_1_" width="1037" height="1037"/>
	</defs>
	<clipPath id="SVGID_00000171708604656041329960000012467980819677349791_">
		<use xlink:href="#SVGID_1_"  style="overflow:visible;"/>
	</clipPath>
	<g style="clip-path:url(#SVGID_00000171708604656041329960000012467980819677349791_);">
		<path class="st1" d="M299.3,631.9l73.5,102.6l108.8,13l69.3,92.2l-238.8,70.7L76,697.5l-71-211.4l67-108.9L214.1,354l87.7,85.3
			L299.3,631.9z"/>
		<path class="st2" d="M287.9,634.7l77,111.4l116,9.1l57.8,77.9l-220.5,61.4L85.6,691.2L17.2,487.5L79,387l131.9-18l77.9,78.9
			L287.9,634.7z"/>
		<path class="st3" d="M287.9,634.7l77,111.4l116,9.1l25.7,34.6l-133.3,36.2L203.9,672.6l8.4-190.9l-84.3-101.5l82.8-11.3l77.9,78.9
			L287.9,634.7z"/>
		<path class="st4" d="M317.7,895.4L85.6,691.2L17.2,487.5L79,387l-8.3,103.4L121,684.9l207.2,189.7l197.9-58.4l12.5,16.9
			L317.7,895.4z"/>
		<path class="st5" d="M210.9,368.9l55.4,56l-53.9,56.7L74,503.1l-46.6-32.4L79,387L210.9,368.9z"/>
		<path class="st5" d="M288.3,547.1l0.3-60.3l-60.5,63.1L90.7,566.7l-53.1-18.2l29.3,87.2l42.6,2.7l131-37L288.3,547.1z"/>
		<path class="st5" d="M287.9,634.7l0.2-41l-50.2,71l-98.6,36.9l-53.7-10.4l60,52.8l39.2-0.7l76.8-49.7l34.3-47.4L287.9,634.7z"/>
		<path class="st5" d="M237.7,825l-56.9-50l43.7,4.8l51-42.3l45.5-54.7l19.7,28.1l-28.8,59.7l-47.9,45.4L237.7,825z"/>
		<path class="st5" d="M317.7,895.4l-39.5-32.2l22.9-13.4l44.8-48.6l19-55.1l21,1.7l-8.2,76.9l-25.9,43l-20.4,23.9L317.7,895.4z"/>
		<path class="st5" d="M412.5,749.8l8.5,57.9l-4.1,40.8L400,872.2l44.9-13l4.2-20.2l-0.2-33.6l-9.2-53.5L412.5,749.8z"/>
		<path class="st1" d="M552.8,963.7l-35.3-30.4l-10-18.3l23.5-54.1l366.2-270.3l39.6-70.2l50.4-10.7l25.2,33.4l-9.4,108.9
			l-55.8,87.5l18.7,21.7l-7.9,40.7l-11.2,21.3l-1.7,3.2l-6.5,3l-34.4,16.1l-29.6-30.7l5-26.9L672,901.3l13.4,10l-6.7,34.9
			l-13.1,20.6l-37.9,17.6l-30-25.7l3.8-21.5L552.8,963.7z"/>
		<path class="st6" d="M957.7,763.9L933,742.6L899.9,759l-11.2,21.3l51,40.3l11.2-21.3L957.7,763.9z"/>
		<path class="st2" d="M933,742.6L899.9,759l-11.2,21.3l13.9,10.9l19.4-27.4L933,742.6z"/>
		<path class="st7" d="M946.5,785.2l-24.7-21.3l-33.2,16.4l-5.9,32l23.2,24l33.8-15.7L946.5,785.2z"/>
		<path class="st3" d="M927.7,793.8l-9.8-8.5l-13.3,6.5l-2.3,12.7l9.2,9.6l13.5-6.3L927.7,793.8z"/>
		<path class="st6" d="M672.1,912.8L649.4,896l-28.8,14.4l-9.2,17.9l46.6,31.5l9.2-17.8L672.1,912.8z"/>
		<path class="st2" d="M649.4,896l-28.8,14.4l-9.2,17.9l12.7,8.5l16.2-23L649.4,896z"/>
		<path class="st7" d="M662.8,930.7l-22.6-16.8l-28.8,14.5l-4.1,26.4l21.4,19l29.4-13.9L662.8,930.7z"/>
		<path class="st3" d="M646.5,938.2l-9-6.7l-11.5,5.8l-1.6,10.6l8.6,7.6l11.7-5.6L646.5,938.2z"/>
		<path class="st8" d="M941.6,527l42.4-9l-10.8,114.9L905.6,738L546.4,936.5l-27.1-22.3l21.4-47.8l362.3-270.8L941.6,527z"/>
		<path class="st9" d="M973.2,632.9l10.8-114.9l20.6,27.3l-9,104L973.2,632.9z"/>
		<path class="st10" d="M905.6,738l67.7-105.2l22.4,16.4l-72.1,106.6L905.6,738z"/>
		<path class="st11" d="M905.6,738L546.4,936.5l8.2,15.4l369-196.1L905.6,738z"/>
		<path class="st12" d="M546.4,936.5l-27.1-22.3l5.9,13.3l29.5,24.4L546.4,936.5z"/>
		<path class="st1" d="M754,617.2l-87.7-39.5l-40-66.2l13.8-50.1l23.5-42l178.1,61.5l77.2,36.7l5.6-7.2l46.4-6l1.4,33.7l-43.2,21.3
			L904,597.1l-32.7,22.2L754,617.2z"/>
		<path class="st5" d="M897.1,590.6l25.6-38.4l40-19.7l-0.7-17.5l-32.5,4.2l-21,26.9l2.3-22.1l-72.3-34.4L661,441.2l-12.2,23.5
			L636.4,510l36,59.8l83.7,34.8l114.4,6.4L897.1,590.6z"/>
		<path class="st3" d="M870.5,610.9l26.7-20.4l-71.9-62.8l-181-46.6l-7.9,28.8l36,59.8l83.7,34.8L870.5,610.9z"/>
		<path class="st1" d="M672.4,569.7l71.2,18.5l39.5,51.7l19.9-23.6l19.2-34.5l71.6-9.1l-8.8,61.8L782.8,750.8L743.1,732l-2.8,3.8
			l-84.8,21.2l-30.4,10.4l44.6,18.7l-12,45.2l-109.4,52.1l-48.2-46.2l-100.2-9.1l-32.4-76.8l-73-115.3l59-254.2l-56.9-123.6
			l17.8-91.6l29.9-46.7l83-57l18.5,60.1L423,171.8l110,158.8l34.5-6.8L655,442.3L636.4,510L672.4,569.7z"/>
		<path class="st2" d="M629.2,510.7l21.2-80.4L563.9,334l-35.1,7L411.1,171.1l23.4-50.5l-13.7-44.6l-71,48.8L322,168.4L305,255.7
			L363.2,381l-58.8,253.3l71.4,112.7l30.5,72.4l86.7,7.9l-23.9-32.6l81.1,77.6l99.7-47.5l8.8-33.2L613,772.4l-69.7,37.3l-6,33.2
			l-3.7-36.9l73.1-39.4l-35.7-92.3l-73.6-37.9l80.7,30.7l37.1,93.8l37.7-12.9l81.9-20.4l21.5-29.8l-7,26.8l31.2,14.8l95.7-108.9
			l6.7-47l-54.8,6.9l-17.3,31.1l-28,33.2l-44.6-58.4l-68.4-17.8l-47,31.5L599,656.9l13.4-50.2l50.7-33.6L629.2,510.7z"/>
		<path class="st13" d="M309.7,265.8L363.2,381l-58.8,253.3l71.4,112.7l36,25.4l34.8-86.2l-78-48.8l-2.4-119.1L414.5,400
			L309.7,265.8z"/>
		<path class="st3" d="M497.3,636.3l80.7,30.7l37.1,93.8l36.1-70.4l-28.5-80.3L599,656.9l13.4-50.2l35.8-23.7L616,511l8.1-35.1
			l-1-54.1l-59.3-37.7l-59.9,4.1l-22,57.5l-70.9,49.3l-9,114.8L497.3,636.3z"/>
		<path class="st5" d="M634,754.4l18.7-6.6l81.9-20.4l21.5-29.8l-7,26.8l31.4,15l95.7-108.8l6.6-47.1l-54.8,7l-17.4,31.4l-28,33.2
			l-44.6-58.4l-61-15.9l20.7,76.5l-12,32.4L634,754.4z M460.5,824.2l32.5,3l-23.9-32.6l81,77.6l99.4-47.3l8.9-33.2l-45.6-19.2
			l-69.9,37l-6,33.3l-3.7-36.9l73.1-39.4L570.8,674l-93.6-5.1l-41.5,103L460.5,824.2z"/>
		<path class="st5" d="M474.9,262.2l-63.8-91.1l23.4-50.5l-13.7-44.6l-71,48.8L322,168.4l-8.5,43.7l106.6,57.7L474.9,262.2z"/>
		<path class="st1" d="M975.1,602.5l-1.6,33.9l-0.1,1.7l2.8,3.2l15.1,17.9l29.3-33.3l-1.5-11.3l10-26.8l-6.6-8.5l4.9-20.7
			l-22.4-18.4L975,569.3L975.1,602.5z"/>
		<path class="st5" d="M1016.2,562.3l-10.8-8.9l-21.2,20.4l-0.1,21.9l19.3-7.6L984,607.9l-1,19.8l13.8-6.8l-12.4,17.7l6.1,7.2
			l19.1-21.6l-1.1-9.5l9.2-24.6l-6.3-8.2L1016.2,562.3z"/>
		<path class="st1" d="M945,741.8l-15.8,20.8l-31.3,6.9l25.7-13.6l10.7-15.9L945,741.8z"/>
		<path class="st1" d="M660.8,895.5l9.7,3.3L622,916.1L660.8,895.5z"/>
		<path class="st1" d="M400.3,119.8l-15.6,36l23.8-30.9l6.4-8.4L380.1,96l-43.9,37.6l44.2-27L400.3,119.8z"/>
		<path class="st1" d="M812.6,211.9l-40.2,27.7L719,194.8l-72.4-91.7l-33.5-18.4l-25.3,64.6l-25.2,6L528,185.3l3.9,43.9l-50.2,18.1
			l20.8,10.7l-28.9,15.3l59.7,92.8l42.9,45.2l64.1,44.2l101.3,43.2l10.2-31.1l14.1,18.6l9.3-52.9l43.6-3.7l23.7-39l-1.4-29.8
			l-4.6-119.2C827.9,231,822.6,224.3,812.6,211.9"/>
		<path class="st1" d="M678.3,179.2c0.3-138.1-143.9,63.6-134.4,55.3l2.1,2.8l3.4-0.8C588.2,227.6,675,220.2,678.3,179.2"/>
		<path class="st1" d="M799.1,280.8c83.6,48-54.3,175.2-31.3,141.9l-3.2-1.5l0.1-3.6C766.9,377.9,759.2,291.1,799.1,280.8"/>
		<path class="st2" d="M707.9,198.6l-24.6-14L626.4,205l-1-17.5l-11.8,18.3l-18.6-8.7l7.6,16.6l-97.9,35.5l17.6,9l-35.9,19
			l51.3,82.8l50.3,49.2l57.1,41.1l90.4,36.3l12.6-38.6l11.9,15.8l18.2-102.5l17.6,4.6l-11.8-16.8l16-14.8l-17.4,2l12.9-51.9l-8,2.5
			L773.7,254L707.9,198.6z"/>
		<path class="st3" d="M676.4,384.6l56.9,13.5l20.6-30.9l-32.8,73.7l-55.3,17.9l-20.7-8.3l-65.9-43.7l-41.5-46.6l9.1-65.2l67.4-38.4
			l-13.8,48.1l11.6,26l41,16.4L676.4,384.6z"/>
		<path class="st4" d="M637.4,200.2l-10.9,4.8l-1-17.5l-11.8,18.3l-18.6-8.7l7.6,16.6l-97.9,35.5l17.6,9l-35.9,19l23.4,37.9l-6.4-36
			l134.2-78.3L637.4,200.2z"/>
		<path class="st7" d="M665.5,347.6l-38.1-1.9l-17.2-15.3l-27.6,12.1l-6.2,53.9l3.7,10.9l42.8,28.3l57.6,3.1l21.5-22.1l-4-20.3
			l-10.4-30.2L665.5,347.6z"/>
		<path class="st6" d="M611.4,405.6l0.9-47.9l-29.7-15.2l-6.2,53.9l3.7,10.9l42.8,28.3l57.6,3.1l12.8-14.9l-11.9-0.7l-7.1,1.6
			l-29.7,7L611.4,405.6z"/>
		<path class="st6" d="M698.1,309.5l27.3-28.9l-19.1-22.4l-23.1,29.4L698.1,309.5z"/>
		<path class="st6" d="M676.7,260.3l20.1-1.6L678,282.9l-8.5-8.7L676.7,260.3z"/>
		<path class="st7" d="M663.4,203.4l19.9-18.8l-44.7-71.8l-23.2-12.8L596.1,161l-27,3.4l-14.1,42.3l-1-29.4L537.5,190l3.6,38.3
			l43.9-8.2l-4.4-30.6l28.5-10.9l18-40.1l10.7,62.4L663.4,203.4z"/>
		<path class="st6" d="M627,138.5l10.6,62.8l25.6,2.4l-17.9-10.4L627,138.5z M541,228.4l43.9-8.3l-4.4-30.6l28.5-10.9l17.9-40.1
			l-22.9,36.3l-25.2,3.7l-24.1,28.5L541,228.4z"/>
		<path class="st3" d="M683.3,184.7l24.6,14l-69.2-85.8L683.3,184.7z"/>
		<path class="st1" d="M689.3,378.6l24.8,10.4l7.6-1.5l0.2-21l-14.8-7.1l-19.5,8.8L689.3,378.6z"/>
		<path class="st3" d="M715.1,366.9l-12.2-5.2l-11.9,7.5l0.3,9l16.1,6.7l7.4-4.5L715.1,366.9z"/>
		<path class="st1" d="M710.8,367.8l-8.7-4.2l-7.9,4.8l0.8,9.3l8.2,4.4l8.1-4.7L710.8,367.8z"/>
		<path class="st7" d="M709.9,364.5l-4.5-2l-4.8,3.1l0.4,5.3l4.7,2.5l4.6-2.7L709.9,364.5z"/>
		<path class="st7" d="M707.2,359.3l-19.5,10.1l0-8.6l19-10.3l24.2,11.9l0.6,24.9l-9.8,0.1l0.2-19.5L707.2,359.3z"/>
		<path class="st1" d="M628.4,308.9l24,0.2l9.9,16.1l-6,20.9l-14.7-4.9l-13.4-26.9L628.4,308.9z"/>
		<path class="st7" d="M545.9,302.6l-8.1,57.5l-27.8-44.9l13.8-36.7l21.9-3.3l-10.4-9l79.1-9.7L545.9,302.6z"/>
		<path class="st4" d="M665.5,347.6l12.7-12.6l6.9,5.8l6.9,5.8l-4.4,19.5L665.5,347.6z"/>
		<path class="st3" d="M649.6,311.4l8.2,13.2l-6.1,12.7l-12.1-0.3l-8.6-16.7l3.3-8.6L649.6,311.4z"/>
		<path class="st1" d="M647.4,313.5l5.4,8.7l-4,8.4l-9.8-0.3l-5.5-8.1l3.9-8.6L647.4,313.5z"/>
		<path class="st7" d="M654.6,324l2.6,4.5l-2.5,5l-5.6-0.1l-3.1-4.6l2.2-4.9L654.6,324z"/>
		<path class="st4" d="M748.3,279.6l-33.1-74.8l28.8,24.3l28.8,24.2L748.3,279.6z"/>
		<path class="st6" d="M537.8,360.1l3-21.3l-14-28.8l5.6-23.4l13.3-11.5l-21.9,3.3l-13.8,36.7L537.8,360.1z"/>
		<path class="st7" d="M706.2,258.2l19.1,22.4l-23.6,25.1l-6.8-12.6L706.2,258.2z"/>
		<path class="st7" d="M676.7,260.3l20.1-1.6l-19.4,16.1L676.7,260.3z"/>
		<path class="st4" d="M785.5,324.7l-2.9,11.6l17.4-2l-16,14.8l11.8,16.8l-17.6-4.6L760,463.8L748.1,448l-12.6,38.6L694.1,470
			l36.6,0.1l54-145.6L785.5,324.7z"/>
		<path class="st6" d="M716.8,323.8l19.6-34.6l27,11.7l-21.2,30.7L716.8,323.8z"/>
		<path class="st6" d="M764.6,335.1l-4.4-19.7l-17.6,25.1l10.8,5.5L764.6,335.1z"/>
		<path class="st3" d="M787.5,286.9L773.7,254l35.7-28.4L787.5,286.9z"/>
		<path class="st7" d="M721.1,440.8l-55.3,17.9l41.8,14.7l39.9-23.2l0.6-13.9l10.7,8.6l-4.1-79.5L721.1,440.8z"/>
		<path class="st6" d="M665.8,458.7l20.5-6.6l23.6,6.8l28.4-14.8l9.8-7.7l-0.6,13.9l-39.9,23.2L665.8,458.7z"/>
		<path class="st7" d="M763.4,300.9l-27-11.7l-17,30l14,2.7L763.4,300.9z"/>
		<path class="st7" d="M764.6,335.1l-4.4-19.7l-9.7,23.3L764.6,335.1z"/>
		<path class="st7" d="M787.5,286.9l6.5-13.5l15.3-47.7l16.6,20.7l5.2,112.3l1.3,27.2l-39.3,21.1l29.1-4l-9.6,18.5l-38.4,3l0.6-44.6
			l30.9-0.9l5.9-30l-5.9-66.1l-20.3,41.9L787.5,286.9z"/>
		<path class="st6" d="M805.8,282.8l-20.3,41.9l1.9-37.9l4,13.9L805.8,282.8z M774.3,424.4l0.4-44.5l30.9-0.9l5.9-30l-6-66.1
			l10.5,69.9l0.8,25.5l-24,28.6L774.3,424.4z"/>
		<path class="st7" d="M661.7,327l-5.4,19.2l9-0.4l5.2-21.6l-12-22.5l-31-2.8l1,10.1l24,0.2L661.7,327z"/>
		<path class="st1" d="M684.9,380.1l-12.8-14.3l-5.2,2.2l3.8,23.6l-6.4,7.9l-3.7,0.2l-22.8-10.8l-17.9-27.2l2.9-8.6l-2.8-1.5
			l-8.9,7.1l5.1,4.9l18.1,31.8l27.1,12.6l3.3,5l9.6,11.7l7.1-1.6l2.3,5.2l9.6-4.5l-0.5-3.8l-12.6,1.2l-10.6-13.8l-0.5-3.7l6.7-7.6
			l23.9-0.3l1.3-5.5L684.9,380.1z"/>
		<path class="st6" d="M684.5,380.5l-12.4-14.7l-5.1-17l20.6,17.3l13.4,24L684.5,380.5z"/>
		<path class="st3" d="M649.8,824.7l8.8-33.2l-106.5,52.1l-1.9,28.6L649.8,824.7z"/>
	</g>
</g>
</svg>
