<svg width="1em" height="1em"  viewBox="0 0 451 76" fill="none" xmlns="http://www.w3.org/2000/svg">
<g clip-path="url(#clip0_1611_6082)">
<path fill-rule="evenodd" clip-rule="evenodd" d="M0 0V66H26.561V57.9512H8.04882V8.04872H18.2316V0H0Z" fill="white"/>
<path fill-rule="evenodd" clip-rule="evenodd" d="M23.705 8.04872H27.3051V0H23.705V8.04872Z" fill="white"/>
<path fill-rule="evenodd" clip-rule="evenodd" d="M39.5256 0V8.04872H58.0379V57.9512H47.855V66H66.0866V0H39.5256Z" fill="white"/>
<path fill-rule="evenodd" clip-rule="evenodd" d="M39.882 66H43.482V57.9512H39.882V66Z" fill="white"/>
<path fill-rule="evenodd" clip-rule="evenodd" d="M21.9928 16.7518V26.8994L36.0215 33.2676H36.0216L47.1981 28.1941L21.9928 16.7518Z" fill="#D85556"/>
<path fill-rule="evenodd" clip-rule="evenodd" d="M47.1981 28.1941L36.0216 33.2675L21.9928 39.6359V49.7836L47.1981 38.3413V28.1941Z" fill="#F15D61"/>
</g>
<path fill-rule="evenodd" clip-rule="evenodd" d="M91 9.46023V60.7273H102.579V44.1818H107.545L116.455 60.7273H131.727L120.909 42.2727C124.034 40.6203 130.013 35.7639 130.455 28.2727C131.006 18.9088 122.98 9.46023 113.606 9.46023H91ZM102.455 21.2989V32.7273H112.229C114.062 32.5368 117.091 31.4546 117.091 27C117.091 22.4287 113.909 21.299 111.007 21.2989H102.455Z" fill="white"/>
<path fill-rule="evenodd" clip-rule="evenodd" d="M205.545 41.636C205.545 36.4826 202.29 32.7273 197.792 32.7273C193.296 32.7273 189.636 36.3079 189.636 41.636C189.636 46.9641 193.218 50.5455 197.715 50.5455C202.29 50.5455 205.545 46.9641 205.545 41.636ZM217.339 7.27273V60.7273H205.816V55.2497C204.273 60.1691 199.786 61.3636 194.727 61.3636C184.386 61.3636 177.545 53.3968 177.545 42.0613C177.545 30.798 184.535 21.9091 194.727 21.9091C199.34 21.9091 203.138 23.2272 205.369 26.3636V7.27273H217.339Z" fill="white"/>
<path fill-rule="evenodd" clip-rule="evenodd" d="M391.364 41.636C391.364 36.4826 388.108 32.7273 383.61 32.7273C379.114 32.7273 375.455 36.3079 375.455 41.636C375.455 46.9641 379.036 50.5455 383.534 50.5455C388.108 50.5455 391.364 46.9641 391.364 41.636ZM403.158 7.27273V60.7273H391.634V55.2497C390.091 60.1691 385.604 61.3636 380.545 61.3636C370.204 61.3636 363.364 53.3968 363.364 42.0613C363.364 30.798 370.354 21.9091 380.545 21.9091C385.158 21.9091 388.956 23.2272 391.188 26.3636V7.27273H403.158Z" fill="white"/>
<path fill-rule="evenodd" clip-rule="evenodd" d="M238.636 42.273C238.636 47.0584 241.892 49.9091 246.39 49.9091C250.886 49.9091 254.545 47.2206 254.545 42.273C254.545 37.3255 250.887 34 246.39 34C241.816 34 238.636 37.3255 238.636 42.273ZM225.909 74.7944L225.909 22.5455L237.79 22.5455L237.79 26.3636C240.097 22.7989 246.712 22.482 249.641 22.5455C260.074 22.7716 266.976 30.1021 266.976 41.4376C266.976 52.7009 259.646 61.3636 249.455 61.3636C244.842 61.3636 240.47 60.6819 238.239 57.5454L238.239 74.7944L225.909 74.7944Z" fill="white"/>
<path fill-rule="evenodd" clip-rule="evenodd" d="M312.17 22.5455V60.7273H300.364V56.9091C297.818 60.0909 293.968 61.3636 288.909 61.3636C278.568 61.3636 271.103 53.453 271.103 42.1175C271.103 30.8541 278.389 22.5455 288.58 22.5455C293.193 22.5455 296.545 23.2259 300.2 26.3636V22.5455H312.17ZM299.727 41.636C299.727 36.4826 296.471 32.7273 291.974 32.7273C287.478 32.7273 283.818 36.3079 283.818 41.636C283.818 46.9641 287.4 50.5455 291.897 50.5455C296.471 50.5455 299.727 46.9641 299.727 41.636Z" fill="white"/>
<path fill-rule="evenodd" clip-rule="evenodd" d="M450.248 22.5455V60.7273H438.442V56.9091C435.897 60.0909 432.047 61.3636 426.988 61.3636C416.647 61.3636 409.182 53.453 409.182 42.1175C409.182 30.8541 416.468 22.5455 426.659 22.5455C431.272 22.5455 434.624 23.2259 438.278 26.3636V22.5455H450.248ZM437.806 41.636C437.806 36.4826 434.55 32.7273 430.053 32.7273C425.556 32.7273 421.897 36.3079 421.897 41.636C421.897 46.9641 425.479 50.5455 429.976 50.5455C434.55 50.5455 437.806 46.9641 437.806 41.636Z" fill="white"/>
<path d="M320.091 60.7273V22.5455H332.191V27C332.191 27 333.322 22.5454 344.273 22.5455C355.224 22.5455 357.446 31.3605 357.636 35.9091V60.7273H345.545V41C345.545 38.7257 344.881 33.3636 339.182 33.3636C333.483 33.3636 332.818 38.174 332.628 40.2588V60.7273H320.091Z" fill="white"/>
<path fill-rule="evenodd" clip-rule="evenodd" d="M146.205 45.4545H173.177C173.177 45.4545 173.688 44.4311 173.688 42.3475C173.688 30.8088 165.488 21.9091 153.765 21.9091C141.506 21.9091 133 30.883 133 42.1986C133 53.6625 143.182 61.3636 153.364 61.3636C162.273 61.3636 167.364 58.1818 171.182 54.3636L163.545 47.3636C162.473 49.6721 157.182 51.8182 153.765 51.3546C149.858 51.3546 147.124 49.0275 146.205 45.4545ZM145.758 37.8182C146.109 34.2504 149.38 31.4545 153.364 31.4545C157.347 31.4545 160.618 34.2504 160.969 37.8182H145.758Z" fill="white"/>
<defs>
<clipPath id="clip0_1611_6082">
<rect width="66" height="66" fill="white"/>
</clipPath>
</defs>
</svg>
