<svg width="173" height="150" viewBox="0 0 173 150" fill="none" xmlns="http://www.w3.org/2000/svg">
<path d="M172.734 10.7366L154.138 0L114.413 22.9345V23.6285L86.3669 7.4361L58.3208 23.6285V22.9345L18.5959 0L0 10.7366V70.2535V99.1572L86.3669 149.021L172.734 99.1572V70.2535V10.7366ZM125.703 29.4453L154.144 13.0273L161.456 17.2474V50.7042L125.708 30.0659V29.451L125.703 29.4453ZM11.2895 17.2474L18.6015 13.0273L47.0426 29.4453V30.0603L11.2952 50.6985V17.2418L11.2895 17.2474ZM108.969 122.938L86.3726 135.982L63.7766 122.938V101.431L86.3726 88.3867L108.969 101.431V122.938ZM161.45 92.6408L138.775 105.736V79.3596L86.3726 49.1075L33.9702 79.3596V105.736L11.2895 92.6408V63.8161L86.3726 20.469L161.456 63.8161V92.6408H161.45Z" fill="#E2401B"/>
</svg>
