<svg width="451" height="116" viewBox="0 0 451 116" fill="none" xmlns="http://www.w3.org/2000/svg">
<g clip-path="url(#clip0_2334_9018)">
<path fill-rule="evenodd" clip-rule="evenodd" d="M0 0V66H26.561V57.9512H8.04882V8.04872H18.2316V0H0Z" fill="#2F2C2C"/>
<path fill-rule="evenodd" clip-rule="evenodd" d="M23.705 8.04872H27.3051V0H23.705V8.04872Z" fill="#2F2C2C"/>
<path fill-rule="evenodd" clip-rule="evenodd" d="M39.5256 0V8.04872H58.0379V57.9512H47.855V66H66.0866V0H39.5256Z" fill="#2F2C2C"/>
<path fill-rule="evenodd" clip-rule="evenodd" d="M39.8819 66H43.4819V57.9512H39.8819V66Z" fill="#2F2C2C"/>
<path fill-rule="evenodd" clip-rule="evenodd" d="M21.9928 16.7518V26.8994L36.0215 33.2676H36.0216L47.1981 28.1941L21.9928 16.7518Z" fill="#D85556"/>
<path fill-rule="evenodd" clip-rule="evenodd" d="M47.1981 28.1941L36.0216 33.2676L21.9928 39.6359V49.7836L47.1981 38.3413V28.1941Z" fill="#F15D61"/>
</g>
<path fill-rule="evenodd" clip-rule="evenodd" d="M91 9.46021V60.7272H102.579V44.1818H107.545L116.455 60.7272H131.727L120.909 42.2727C124.034 40.6202 130.013 35.7639 130.455 28.2727C131.006 18.9087 122.98 9.46021 113.606 9.46021H91ZM102.455 21.2989V32.7272H112.229C114.062 32.5368 117.091 31.4546 117.091 27C117.091 22.4286 113.909 21.299 111.007 21.2989H102.455Z" fill="#2F2C2C"/>
<path fill-rule="evenodd" clip-rule="evenodd" d="M205.545 41.636C205.545 36.4826 202.29 32.7273 197.792 32.7273C193.296 32.7273 189.636 36.3079 189.636 41.636C189.636 46.9641 193.218 50.5454 197.715 50.5454C202.29 50.5454 205.545 46.9641 205.545 41.636ZM217.339 7.27271V60.7272H205.816V55.2496C204.273 60.169 199.786 61.3636 194.727 61.3636C184.386 61.3636 177.545 53.3968 177.545 42.0613C177.545 30.798 184.535 21.9091 194.727 21.9091C199.34 21.9091 203.138 23.2271 205.369 26.3636V7.27271H217.339Z" fill="#2F2C2C"/>
<path fill-rule="evenodd" clip-rule="evenodd" d="M391.364 41.636C391.364 36.4826 388.108 32.7273 383.61 32.7273C379.114 32.7273 375.455 36.3079 375.455 41.636C375.455 46.9641 379.036 50.5454 383.534 50.5454C388.108 50.5454 391.364 46.9641 391.364 41.636ZM403.158 7.27271V60.7272H391.634V55.2496C390.091 60.169 385.604 61.3636 380.545 61.3636C370.204 61.3636 363.364 53.3968 363.364 42.0613C363.364 30.798 370.354 21.9091 380.545 21.9091C385.158 21.9091 388.956 23.2271 391.188 26.3636V7.27271H403.158Z" fill="#2F2C2C"/>
<path fill-rule="evenodd" clip-rule="evenodd" d="M238.636 42.273C238.636 47.0583 241.892 49.909 246.39 49.909C250.886 49.909 254.545 47.2205 254.545 42.273C254.545 37.3254 250.887 33.9999 246.39 33.9999C241.816 33.9999 238.636 37.3254 238.636 42.273ZM225.909 74.7943L225.909 22.5454L237.79 22.5454L237.79 26.3635C240.097 22.7988 246.712 22.4819 249.641 22.5454C260.074 22.7716 266.976 30.102 266.976 41.4375C266.976 52.7009 259.646 61.3635 249.455 61.3635C244.842 61.3635 240.47 60.6818 238.239 57.5454L238.239 74.7943L225.909 74.7943Z" fill="#2F2C2C"/>
<path fill-rule="evenodd" clip-rule="evenodd" d="M312.17 22.5454V60.7272H300.364V56.909C297.818 60.0909 293.968 61.3636 288.909 61.3636C278.568 61.3636 271.103 53.4529 271.103 42.1174C271.103 30.8541 278.389 22.5454 288.581 22.5454C293.193 22.5454 296.545 23.2259 300.2 26.3636V22.5454L312.17 22.5454ZM299.727 41.636C299.727 36.4825 296.471 32.7272 291.974 32.7272C287.478 32.7272 283.818 36.3079 283.818 41.636C283.818 46.9641 287.4 50.5454 291.897 50.5454C296.471 50.5454 299.727 46.9641 299.727 41.636Z" fill="#2F2C2C"/>
<path fill-rule="evenodd" clip-rule="evenodd" d="M450.248 22.5454V60.7272H438.442V56.909C435.897 60.0909 432.047 61.3636 426.988 61.3636C416.647 61.3636 409.182 53.4529 409.182 42.1174C409.182 30.8541 416.468 22.5454 426.659 22.5454C431.272 22.5454 434.624 23.2259 438.278 26.3636V22.5454H450.248ZM437.806 41.636C437.806 36.4825 434.55 32.7272 430.053 32.7272C425.556 32.7272 421.897 36.3079 421.897 41.636C421.897 46.9641 425.479 50.5454 429.976 50.5454C434.55 50.5454 437.806 46.9641 437.806 41.636Z" fill="#2F2C2C"/>
<path d="M320.091 60.7272V22.5454H332.191V27C332.191 27 333.322 22.5454 344.273 22.5454C355.224 22.5454 357.446 31.3605 357.636 35.909V60.7272H345.545V41C345.545 38.7257 344.881 33.3636 339.182 33.3636C333.483 33.3636 332.818 38.174 332.628 40.2587V60.7272H320.091Z" fill="#2F2C2C"/>
<path fill-rule="evenodd" clip-rule="evenodd" d="M146.205 45.4545H173.177C173.177 45.4545 173.688 44.4311 173.688 42.3474C173.688 30.8088 165.488 21.9091 153.765 21.9091C141.506 21.9091 133 30.883 133 42.1985C133 53.6624 143.182 61.3636 153.364 61.3636C162.273 61.3636 167.364 58.1818 171.182 54.3636L163.545 47.3636C162.473 49.672 157.182 51.8181 153.765 51.3546C149.858 51.3546 147.124 49.0275 146.205 45.4545ZM145.758 37.8181C146.109 34.2504 149.38 31.4545 153.364 31.4545C157.347 31.4545 160.618 34.2504 160.969 37.8181H145.758Z" fill="#2F2C2C"/>
<path d="M285.385 106.512C284.086 107.773 282.546 108.763 280.765 109.48C278.983 110.198 277.048 110.557 274.957 110.557C272.842 110.557 270.894 110.198 269.112 109.48C267.331 108.751 265.779 107.736 264.455 106.438C263.144 105.126 262.123 103.592 261.394 101.836C260.664 100.079 260.299 98.1621 260.299 96.084C260.299 94.0059 260.664 92.0885 261.394 90.332C262.123 88.5632 263.144 87.0293 264.455 85.7305C265.779 84.4316 267.331 83.4235 269.112 82.7061C270.894 81.9762 272.842 81.6113 274.957 81.6113C277.035 81.6113 278.959 81.9701 280.728 82.6875C282.509 83.4049 284.049 84.4007 285.348 85.6748L281.358 89.6826C280.579 88.7301 279.627 87.9818 278.501 87.4375C277.388 86.8809 276.175 86.6025 274.864 86.6025C273.615 86.6025 272.458 86.8438 271.395 87.3262C270.343 87.7962 269.422 88.4642 268.63 89.3301C267.838 90.1836 267.226 91.1855 266.793 92.3359C266.36 93.4863 266.144 94.7295 266.144 96.0654C266.144 97.4261 266.36 98.6816 266.793 99.832C267.226 100.982 267.838 101.991 268.63 102.856C269.422 103.71 270.343 104.378 271.395 104.86C272.458 105.33 273.615 105.565 274.864 105.565C276.175 105.565 277.388 105.293 278.501 104.749C279.614 104.192 280.561 103.438 281.34 102.485L285.385 106.512Z" fill="#F15D61"/>
<path d="M303.039 110.557C300.924 110.557 298.969 110.198 297.176 109.48C295.395 108.751 293.842 107.736 292.519 106.438C291.207 105.126 290.187 103.592 289.457 101.836C288.74 100.079 288.381 98.1621 288.381 96.084C288.381 94.0059 288.74 92.0885 289.457 90.332C290.187 88.5632 291.207 87.0293 292.519 85.7305C293.842 84.4316 295.395 83.4235 297.176 82.7061C298.969 81.9762 300.924 81.6113 303.039 81.6113C305.154 81.6113 307.103 81.9762 308.884 82.7061C310.665 83.4235 312.205 84.4316 313.504 85.7305C314.815 87.0293 315.836 88.5632 316.565 90.332C317.295 92.0885 317.66 94.0059 317.66 96.084C317.66 98.1621 317.295 100.079 316.565 101.836C315.836 103.592 314.815 105.126 313.504 106.438C312.205 107.736 310.665 108.751 308.884 109.48C307.103 110.198 305.154 110.557 303.039 110.557ZM303.039 105.565C304.288 105.565 305.445 105.324 306.509 104.842C307.585 104.359 308.519 103.691 309.311 102.838C310.102 101.972 310.715 100.97 311.147 99.832C311.593 98.6816 311.815 97.4323 311.815 96.084C311.815 94.7357 311.593 93.4863 311.147 92.3359C310.715 91.1855 310.102 90.1836 309.311 89.3301C308.519 88.4642 307.585 87.7962 306.509 87.3262C305.445 86.8438 304.288 86.6025 303.039 86.6025C301.777 86.6025 300.608 86.8438 299.532 87.3262C298.468 87.7962 297.535 88.4642 296.73 89.3301C295.939 90.1836 295.32 91.1855 294.875 92.3359C294.442 93.4863 294.226 94.7357 294.226 96.084C294.226 97.4323 294.442 98.6816 294.875 99.832C295.32 100.982 295.939 101.991 296.73 102.856C297.535 103.71 298.468 104.378 299.532 104.86C300.608 105.33 301.777 105.565 303.039 105.565Z" fill="#F15D61"/>
<path d="M346.763 110H340.194L327.188 91V110H321.473V82.168H328.041L341.048 101.205V82.168H346.763V110Z" fill="#F15D61"/>
<path d="M350.26 106.994L352.969 102.634C353.822 103.326 354.645 103.896 355.437 104.341C356.241 104.774 357.032 105.095 357.812 105.306C358.591 105.504 359.389 105.603 360.205 105.603C361.17 105.603 362.005 105.466 362.71 105.194C363.415 104.922 363.959 104.533 364.343 104.025C364.739 103.518 364.937 102.931 364.937 102.263C364.937 101.483 364.689 100.828 364.194 100.296C363.7 99.764 363.05 99.3001 362.246 98.9043C361.454 98.4961 360.595 98.1064 359.667 97.7354C358.764 97.3643 357.855 96.9622 356.939 96.5293C356.036 96.084 355.201 95.5583 354.435 94.9521C353.68 94.346 353.068 93.61 352.598 92.7441C352.14 91.8659 351.911 90.8021 351.911 89.5527C351.911 87.9199 352.319 86.5098 353.136 85.3223C353.965 84.1348 355.096 83.2194 356.531 82.5762C357.966 81.9329 359.605 81.6113 361.448 81.6113C362.747 81.6113 364.095 81.7845 365.493 82.1309C366.903 82.4772 368.307 83.0029 369.705 83.708L367.46 88.3281C366.582 87.7962 365.635 87.3757 364.621 87.0664C363.607 86.7572 362.654 86.6025 361.764 86.6025C360.96 86.6025 360.255 86.7262 359.648 86.9736C359.055 87.221 358.591 87.5674 358.257 88.0127C357.923 88.4456 357.756 88.959 357.756 89.5527C357.756 90.2578 357.997 90.8701 358.479 91.3896C358.962 91.8968 359.587 92.3483 360.354 92.7441C361.133 93.14 361.968 93.5358 362.858 93.9316C363.774 94.3275 364.695 94.7604 365.623 95.2305C366.563 95.7005 367.417 96.2572 368.184 96.9004C368.963 97.5312 369.588 98.292 370.058 99.1826C370.54 100.061 370.781 101.118 370.781 102.355C370.781 103.988 370.348 105.423 369.482 106.66C368.617 107.885 367.41 108.843 365.864 109.536C364.318 110.216 362.518 110.557 360.465 110.557C358.585 110.557 356.785 110.254 355.065 109.647C353.346 109.041 351.744 108.157 350.26 106.994Z" fill="#F15D61"/>
<path d="M388.324 110.557C386.209 110.557 384.255 110.198 382.461 109.48C380.68 108.751 379.127 107.736 377.804 106.438C376.493 105.126 375.472 103.592 374.742 101.836C374.025 100.079 373.666 98.1621 373.666 96.084C373.666 94.0059 374.025 92.0885 374.742 90.332C375.472 88.5632 376.493 87.0293 377.804 85.7305C379.127 84.4316 380.68 83.4235 382.461 82.7061C384.255 81.9762 386.209 81.6113 388.324 81.6113C390.439 81.6113 392.388 81.9762 394.169 82.7061C395.95 83.4235 397.49 84.4316 398.789 85.7305C400.1 87.0293 401.121 88.5632 401.851 90.332C402.58 92.0885 402.945 94.0059 402.945 96.084C402.945 98.1621 402.58 100.079 401.851 101.836C401.121 103.592 400.1 105.126 398.789 106.438C397.49 107.736 395.95 108.751 394.169 109.48C392.388 110.198 390.439 110.557 388.324 110.557ZM388.324 105.565C389.574 105.565 390.73 105.324 391.794 104.842C392.87 104.359 393.804 103.691 394.596 102.838C395.387 101.972 396 100.97 396.433 99.832C396.878 98.6816 397.101 97.4323 397.101 96.084C397.101 94.7357 396.878 93.4863 396.433 92.3359C396 91.1855 395.387 90.1836 394.596 89.3301C393.804 88.4642 392.87 87.7962 391.794 87.3262C390.73 86.8438 389.574 86.6025 388.324 86.6025C387.062 86.6025 385.894 86.8438 384.817 87.3262C383.754 87.7962 382.82 88.4642 382.016 89.3301C381.224 90.1836 380.605 91.1855 380.16 92.3359C379.727 93.4863 379.511 94.7357 379.511 96.084C379.511 97.4323 379.727 98.6816 380.16 99.832C380.605 100.982 381.224 101.991 382.016 102.856C382.82 103.71 383.754 104.378 384.817 104.86C385.894 105.33 387.062 105.565 388.324 105.565Z" fill="#F15D61"/>
<path d="M424.941 110H406.758V82.168H412.473V105.009H424.941V110Z" fill="#F15D61"/>
<path d="M428.234 110V82.168H446.195V87.1592H433.949V93.4863H445.435V98.4961H433.949V105.009H446.381V110H428.234Z" fill="#F15D61"/>
<defs>
<clipPath id="clip0_2334_9018">
<rect width="66" height="66" fill="white"/>
</clipPath>
</defs>
</svg>
