<svg width="1em" height="1em"  viewBox="0 0 283 162" fill="none" xmlns="http://www.w3.org/2000/svg">
<g clip-path="url(#clip0_1611_6079)">
<path fill-rule="evenodd" clip-rule="evenodd" d="M102 0V77H132.988V67.6097H111.39V9.39017H123.27V0H102Z" fill="white"/>
<path fill-rule="evenodd" clip-rule="evenodd" d="M129.656 9.39017H133.856V0H129.656V9.39017Z" fill="white"/>
<path fill-rule="evenodd" clip-rule="evenodd" d="M148.113 0V9.39017H169.711V67.6097H157.831V77H179.101V0H148.113Z" fill="white"/>
<path fill-rule="evenodd" clip-rule="evenodd" d="M148.529 77H152.729V67.6097H148.529V77Z" fill="white"/>
<path fill-rule="evenodd" clip-rule="evenodd" d="M127.658 19.5438V31.3827L144.025 38.8122H144.025L157.064 32.8931L127.658 19.5438Z" fill="#D85556"/>
<path fill-rule="evenodd" clip-rule="evenodd" d="M157.064 32.8931L144.025 38.8121L127.658 46.2419V58.0808L157.064 44.7315V32.8931Z" fill="#F15D61"/>
</g>
<path fill-rule="evenodd" clip-rule="evenodd" d="M0 101.719V142H9.09768V129H13L20 142H32L23.5 127.5C25.9549 126.202 30.6534 122.386 31 116.5C31.4332 109.143 25.1269 101.719 17.7621 101.719H0ZM9 111.021V120H16.68C18.12 119.85 20.5 119 20.5 115.5C20.5 111.908 18 111.021 15.72 111.021H9Z" fill="white"/>
<path fill-rule="evenodd" clip-rule="evenodd" d="M90 127C90 122.951 87.4418 120 83.908 120C80.3753 120 77.5 122.813 77.5 127C77.5 131.186 80.3141 134 83.8478 134C87.4418 134 90 131.186 90 127ZM99.2666 100V142H90.2128V137.696C89 141.561 85.4746 142.5 81.5 142.5C73.3748 142.5 68 136.24 68 127.334C68 118.484 73.4921 111.5 81.5 111.5C85.1243 111.5 88.1081 112.536 89.8616 115V100H99.2666Z" fill="white"/>
<path fill-rule="evenodd" clip-rule="evenodd" d="M236 127C236 122.951 233.442 120 229.908 120C226.375 120 223.5 122.813 223.5 127C223.5 131.186 226.314 134 229.848 134C233.442 134 236 131.186 236 127ZM245.267 100V142H236.213V137.696C235 141.561 231.475 142.5 227.5 142.5C219.375 142.5 214 136.24 214 127.334C214 118.484 219.492 111.5 227.5 111.5C231.124 111.5 234.108 112.536 235.862 115V100H245.267Z" fill="white"/>
<path fill-rule="evenodd" clip-rule="evenodd" d="M116 127.5C116 131.26 118.558 133.5 122.092 133.5C125.625 133.5 128.5 131.388 128.5 127.5C128.5 123.613 125.626 121 122.092 121C118.498 121 116 123.613 116 127.5ZM106 153.053L106 112L115.335 112L115.335 115C117.148 112.199 122.345 111.95 124.647 112C132.844 112.178 138.267 117.937 138.267 126.844C138.267 135.694 132.508 142.5 124.5 142.5C120.876 142.5 117.441 141.964 115.687 139.5L115.687 153.053L106 153.053Z" fill="white"/>
<path fill-rule="evenodd" clip-rule="evenodd" d="M173.776 112V142H164.5V139C162.5 141.5 159.475 142.5 155.5 142.5C147.375 142.5 141.51 136.284 141.51 127.378C141.51 118.528 147.234 112 155.242 112C158.866 112 161.5 112.535 164.371 115V112H173.776ZM164 127C164 122.951 161.442 120 157.908 120C154.375 120 151.5 122.813 151.5 127C151.5 131.186 154.314 134 157.848 134C161.442 134 164 131.186 164 127Z" fill="white"/>
<path fill-rule="evenodd" clip-rule="evenodd" d="M282.267 112V142H272.991V139C270.991 141.5 267.965 142.5 263.991 142.5C255.865 142.5 250 136.284 250 127.378C250 118.528 255.724 112 263.732 112C267.357 112 269.991 112.535 272.862 115V112H282.267ZM272.491 127C272.491 122.951 269.932 120 266.399 120C262.866 120 259.991 122.813 259.991 127C259.991 131.186 262.805 134 266.338 134C269.932 134 272.491 131.186 272.491 127Z" fill="white"/>
<path d="M180 142V112H189.507V115.5C189.507 115.5 190.396 112 199 112C207.604 112 209.351 118.926 209.5 122.5V142H200V126.5C200 124.713 199.478 120.5 195 120.5C190.522 120.5 190 124.28 189.851 125.918V142H180Z" fill="white"/>
<path fill-rule="evenodd" clip-rule="evenodd" d="M43.375 130H64.5673C64.5673 130 64.9688 129.196 64.9688 127.559C64.9688 118.493 58.5266 111.5 49.3154 111.5C39.6829 111.5 33 118.551 33 127.442C33 136.449 41 142.5 49 142.5C56 142.5 60 140 63 137L57 131.5C56.1572 133.314 52 135 49.3154 134.636C46.2454 134.636 44.0974 132.807 43.375 130ZM43.0245 124C43.3 121.197 45.8702 119 49 119C52.1298 119 54.7 121.197 54.9755 124H43.0245Z" fill="white"/>
<defs>
<clipPath id="clip0_1611_6079">
<rect width="77" height="77" fill="white" transform="translate(102)"/>
</clipPath>
</defs>
</svg>
