<svg width="1em" height="1em"  viewBox="0 0 282 55" fill="none" xmlns="http://www.w3.org/2000/svg">
<path fill-rule="evenodd" clip-rule="evenodd" d="M0 2.42566V42H9.09768V30.1519H13.4299L19 42H31L22.9608 26.6861C25.4157 25.3865 30.4122 21.3142 30.7588 15.4223C31.192 8.05755 25.1269 2.42566 17.7621 2.42566H0ZM9.07176 11.3715V20.0359H16.0033C17.303 19.8915 19.9023 18.7363 19.9023 15.2705C19.9023 11.8047 16.7254 11.2271 15.1369 11.3715H9.07176Z" fill="#2F2C2C"/>
<path fill-rule="evenodd" clip-rule="evenodd" d="M92.0962 27.833C92.0962 24.5283 89.6414 22.1201 86.2504 22.1201C82.8603 22.1201 80.581 24.4163 80.581 27.833C80.581 31.2498 82.8016 33.5463 86.1926 33.5463C89.6414 33.5463 92.0962 31.2498 92.0962 27.833V27.833ZM102.267 0.5V42.0614H92.2128V38.1962C90.4002 40.997 87.4005 42.0614 83.4259 42.0614C75.3006 42.0614 70 36.7404 70 27.8339C70 18.9841 75.7872 12.9906 83.7951 12.9906C87.4194 12.9906 90.1081 14.4472 91.8616 16.9116V0.5H102.267Z" fill="#2F2C2C"/>
<path fill-rule="evenodd" clip-rule="evenodd" d="M234.903 27.7984C234.903 24.4936 232.448 22.0855 229.057 22.0855C225.667 22.0855 223.388 24.3816 223.388 27.7984C223.388 31.2151 225.608 33.5117 228.999 33.5117C232.448 33.5117 234.903 31.2151 234.903 27.7984V27.7984ZM245.076 0.465347V42.0267H235.022V38.1615C233.21 40.9624 230.343 42.0267 226.368 42.0267C218.243 42.0267 212.809 36.7057 212.809 27.7993C212.809 18.9495 218.597 12.9559 226.605 12.9559C230.229 12.9559 232.918 14.4126 234.671 16.8769V0.465347H245.076Z" fill="#2F2C2C"/>
<path fill-rule="evenodd" clip-rule="evenodd" d="M117.471 27.667C117.471 30.9717 119.926 33.3799 123.317 33.3799C126.707 33.3799 128.986 31.0837 128.986 27.667C128.986 24.2502 126.765 21.9537 123.374 21.9537C119.926 21.9537 117.471 24.2502 117.471 27.667V27.667ZM107.3 55L107.3 13L117.354 13L117.354 17.3038C119.166 14.503 121.972 12.8223 125.947 12.8223C134.072 12.8223 139.567 18.7596 139.567 27.6661C139.567 36.5159 133.955 42 125.947 42C122.322 42 119.459 41.0528 117.705 38.5884L117.705 55L107.3 55Z" fill="#2F2C2C"/>
<path fill-rule="evenodd" clip-rule="evenodd" d="M175.776 13V42.0708H165.722V38.2056C163.91 41.0065 161.216 42 157.242 42C149.117 42 143.509 36.7498 143.509 27.8434C143.509 18.9936 149.297 13 157.305 13C160.929 13 163.618 14.4567 165.371 16.921V13H175.776ZM164.739 27.8442C164.739 24.5394 162.285 22.1313 158.894 22.1313C155.504 22.1313 153.224 24.4274 153.224 27.8442C153.224 31.2609 155.445 33.5575 158.836 33.5575C162.285 33.5575 164.739 31.2609 164.739 27.8442V27.8442Z" fill="#2F2C2C"/>
<path fill-rule="evenodd" clip-rule="evenodd" d="M281.376 13V42.0708H271.322V38.2056C269.51 41.0065 266.924 42 262.95 42C254.825 42 249.109 36.7498 249.109 27.8434C249.109 18.9936 254.897 13 262.905 13C266.529 13 269.218 14.4567 270.971 16.921V13H281.376ZM270.34 27.8438C270.34 24.5391 267.886 22.1309 264.495 22.1309C261.105 22.1309 258.825 24.4271 258.825 27.8438C258.825 31.2606 261.046 33.5571 264.437 33.5571C267.886 33.5571 270.34 31.2606 270.34 27.8438V27.8438Z" fill="#2F2C2C"/>
<path d="M179.809 42.0927V13H188.041V17.8735C188.041 17.8735 189.68 13.0668 198.005 13.0668C205.803 13.0668 208.691 19.9983 208.835 23.4641V42.0927H198.871V27.3631C198.871 25.6302 198.438 21.7312 194.106 21.7312C190.64 21.7312 189.485 24.9082 189.34 26.4967V42.0927H179.809Z" fill="#2F2C2C"/>
<path fill-rule="evenodd" clip-rule="evenodd" d="M55.8235 24.1346C55.5333 21.8853 53.6194 20.5141 50.8349 20.5141C47.9926 20.5141 46.1948 21.6663 45.4405 24.1346H55.8235ZM65.6854 30.2811H45.267C45.963 32.9142 47.7618 34.2307 50.7196 34.2307C53.2139 34.2307 54.838 33.4081 55.65 31.7069L65.4146 31.807C63.5824 39.0404 56.8105 42.0757 50.4881 42.0757C41.4971 42.0757 35 35.9315 35 27.4832C35 19.1443 41.6709 13 50.9516 13C59.8266 13 65.8014 19.0896 65.8014 27.5929C65.8014 29.1285 65.6854 30.2811 65.6854 30.2811Z" fill="#2F2C2C"/>
</svg>
