<svg width="1em" height="1em"  viewBox="0 0 283 162" fill="none" xmlns="http://www.w3.org/2000/svg">
<g clip-path="url(#clip0_1371_2450)">
<path fill-rule="evenodd" clip-rule="evenodd" d="M102 0V77H132.988V67.6097H111.39V9.39017H123.27V0H102Z" fill="#2F2C2C"/>
<path fill-rule="evenodd" clip-rule="evenodd" d="M129.656 9.39017H133.856V0H129.656V9.39017Z" fill="#2F2C2C"/>
<path fill-rule="evenodd" clip-rule="evenodd" d="M148.113 0V9.39017H169.711V67.6097H157.831V77H179.101V0H148.113Z" fill="#2F2C2C"/>
<path fill-rule="evenodd" clip-rule="evenodd" d="M148.529 77H152.729V67.6097H148.529V77Z" fill="#2F2C2C"/>
<path fill-rule="evenodd" clip-rule="evenodd" d="M127.658 19.5438V31.3827L144.025 38.8122H144.025L157.064 32.8931L127.658 19.5438Z" fill="#D85556"/>
<path fill-rule="evenodd" clip-rule="evenodd" d="M157.064 32.8931V32.8931L144.025 38.8121L127.658 46.2419V58.0808L157.064 44.7315V32.8931Z" fill="#F15D61"/>
</g>
<path fill-rule="evenodd" clip-rule="evenodd" d="M0 101.426V141H9.09768V129.152H13.4299L19 141H31L22.9608 125.686C25.4157 124.386 30.4122 120.314 30.7588 114.422C31.192 107.058 25.1269 101.426 17.7621 101.426H0ZM9.07176 110.371V119.036H16.0033C17.303 118.892 19.9023 117.736 19.9023 114.27C19.9023 110.805 16.7254 110.227 15.1369 110.371H9.07176Z" fill="#2F2C2C"/>
<path fill-rule="evenodd" clip-rule="evenodd" d="M92.0962 126.833C92.0962 123.528 89.6414 121.12 86.2504 121.12C82.8603 121.12 80.581 123.416 80.581 126.833C80.581 130.25 82.8016 132.546 86.1926 132.546C89.6414 132.546 92.0962 130.25 92.0962 126.833V126.833ZM102.267 99.5V141.061H92.2128V137.196C90.4002 139.997 87.4005 141.061 83.4259 141.061C75.3006 141.061 70 135.74 70 126.834C70 117.984 75.7872 111.991 83.7951 111.991C87.4194 111.991 90.1081 113.447 91.8616 115.912V99.5H102.267Z" fill="#2F2C2C"/>
<path fill-rule="evenodd" clip-rule="evenodd" d="M234.903 126.798C234.903 123.494 232.448 121.085 229.057 121.085C225.667 121.085 223.388 123.382 223.388 126.798C223.388 130.215 225.608 132.512 228.999 132.512C232.448 132.512 234.903 130.215 234.903 126.798V126.798ZM245.076 99.4653V141.027H235.022V137.161C233.21 139.962 230.343 141.027 226.368 141.027C218.243 141.027 212.809 135.706 212.809 126.799C212.809 117.949 218.597 111.956 226.605 111.956C230.229 111.956 232.918 113.413 234.671 115.877V99.4653H245.076Z" fill="#2F2C2C"/>
<path fill-rule="evenodd" clip-rule="evenodd" d="M117.471 126.667C117.471 129.972 119.926 132.38 123.317 132.38C126.707 132.38 128.986 130.084 128.986 126.667C128.986 123.25 126.765 120.954 123.374 120.954C119.926 120.954 117.471 123.25 117.471 126.667V126.667ZM107.3 154L107.3 112L117.354 112L117.354 116.304C119.166 113.503 121.972 111.822 125.947 111.822C134.072 111.822 139.567 117.76 139.567 126.666C139.567 135.516 133.955 141 125.947 141C122.322 141 119.459 140.053 117.705 137.588L117.705 154L107.3 154Z" fill="#2F2C2C"/>
<path fill-rule="evenodd" clip-rule="evenodd" d="M175.776 112V141.071H165.722V137.206C163.91 140.006 161.216 141 157.242 141C149.117 141 143.509 135.75 143.509 126.843C143.509 117.994 149.297 112 157.305 112C160.929 112 163.618 113.457 165.371 115.921V112H175.776ZM164.739 126.844C164.739 123.539 162.285 121.131 158.894 121.131C155.504 121.131 153.224 123.427 153.224 126.844C153.224 130.261 155.445 132.557 158.836 132.557C162.285 132.557 164.739 130.261 164.739 126.844V126.844Z" fill="#2F2C2C"/>
<path fill-rule="evenodd" clip-rule="evenodd" d="M281.376 112V141.071H271.322V137.206C269.51 140.006 266.924 141 262.95 141C254.825 141 249.109 135.75 249.109 126.843C249.109 117.994 254.897 112 262.905 112C266.529 112 269.218 113.457 270.971 115.921V112H281.376ZM270.34 126.844C270.34 123.539 267.886 121.131 264.495 121.131C261.105 121.131 258.825 123.427 258.825 126.844C258.825 130.261 261.046 132.557 264.437 132.557C267.886 132.557 270.34 130.261 270.34 126.844V126.844Z" fill="#2F2C2C"/>
<path d="M179.809 141.093V112H188.041V116.873C188.041 116.873 189.68 112.067 198.005 112.067C205.803 112.067 208.691 118.998 208.835 122.464V141.093H198.871V126.363C198.871 124.63 198.438 120.731 194.106 120.731C190.64 120.731 189.485 123.908 189.34 125.497V141.093H179.809Z" fill="#2F2C2C"/>
<path fill-rule="evenodd" clip-rule="evenodd" d="M55.8235 123.135C55.5333 120.885 53.6194 119.514 50.8349 119.514C47.9926 119.514 46.1948 120.666 45.4405 123.135H55.8235ZM65.6854 129.281H45.267C45.963 131.914 47.7618 133.231 50.7196 133.231C53.2139 133.231 54.838 132.408 55.65 130.707L65.4146 130.807C63.5824 138.04 56.8105 141.076 50.4881 141.076C41.4971 141.076 35 134.931 35 126.483C35 118.144 41.6709 112 50.9516 112C59.8266 112 65.8014 118.09 65.8014 126.593C65.8014 128.128 65.6854 129.281 65.6854 129.281Z" fill="#2F2C2C"/>
<defs>
<clipPath id="clip0_1371_2450">
<rect width="77" height="77" fill="white" transform="translate(102)"/>
</clipPath>
</defs>
</svg>
