<svg width="742" height="130" viewBox="0 0 742 130" fill="none" xmlns="http://www.w3.org/2000/svg">
<path d="M172.955 87.7557V16.5282C172.955 7.60801 170.617 4.24385 161.983 4.24385V2.92505H208.636C230.72 2.92505 245.782 10.093 245.782 29.1057C245.782 43.002 236.422 51.1895 221.793 53.9675L248.414 92.1395C252.217 97.549 256.168 100.327 259.385 100.327V101.646H232.185L200.888 55.1398H193.427V87.7557C193.427 96.8225 195.619 100.333 204.252 100.333V101.652H161.983V100.333C170.611 100.333 172.955 96.8225 172.955 87.7557ZM224.73 29.1057C224.73 14.6294 216.543 8.92071 205.424 8.92071H193.433V49.2846H205.424C216.543 49.2846 224.73 43.4354 224.73 29.0996V29.1057Z" fill="white"/>
<path d="M251.478 68.1629C251.478 46.3722 265.374 31.4502 283.947 31.4502C300.621 31.4502 310.421 43.588 310.128 60.8485H268.445C269.178 79.4216 280.143 86.736 291.115 86.736C298.283 86.736 305.304 83.3719 309.248 74.5982L310.274 74.8913C306.617 90.5398 297.111 103.117 281.902 103.117C263.328 103.117 251.484 87.7618 251.484 68.1629H251.478ZM291.261 55.732C290.968 42.4219 287.751 35.8401 281.169 35.8401C274.587 35.8401 269.178 42.5684 268.591 55.732H291.261Z" fill="white"/>
<path d="M314.984 71.2275C314.984 46.8052 330.047 31.4436 348.913 31.4436C353.01 31.4436 356.227 32.1763 359.445 33.6355V16.8147C359.445 10.8191 357.546 8.91412 351.984 10.8191L351.691 9.50025L378.171 0H379.343V88.7748C379.343 94.624 381.242 96.5289 386.804 94.9171L387.244 96.2358L360.623 102.964H359.451V88.1948C353.895 97.2616 346.581 103.111 337.66 103.111C324.35 103.111 314.99 90.6798 314.99 71.2275H314.984ZM359.445 85.9968V42.2688C356.374 37.8789 352.57 36.1266 348.913 36.1266C340.579 36.1266 335.31 45.633 335.31 61.8676C335.31 83.0723 341.012 90.0937 348.766 90.0937C352.57 90.0937 356.081 88.4879 359.445 85.9968Z" fill="white"/>
<path d="M392.732 118.033V48.271C392.732 42.2754 390.833 40.3704 385.271 42.2754L384.831 40.9566L411.451 31.4502H412.477V46.3661C418.18 37.2993 425.494 31.4502 434.561 31.4502C447.724 31.4502 457.084 42.7088 457.084 62.1612C457.084 86.5834 442.608 103.111 423.882 103.111C419.932 103.111 415.988 102.232 412.477 100.48V118.033C412.477 125.348 414.522 128.126 421.251 128.126H422.71V129.444H384.978V128.126C390.68 128.126 392.732 125.348 392.732 118.033ZM423.156 98.4343C431.49 98.4343 436.759 89.3675 436.759 72.6932C436.759 51.4886 430.91 44.4672 423.156 44.4672C419.352 44.4672 415.988 46.0791 412.477 48.4175V92.2921C415.841 96.9751 419.645 98.4343 423.156 98.4343Z" fill="white"/>
<path d="M498.507 89.8069C493.39 97.561 486.222 102.97 477.302 102.97C468.382 102.97 460.921 97.1214 460.921 86.4427C460.921 74.891 469.548 68.8892 482.419 63.6262L498.507 57.191V49.15C498.507 39.204 495.729 35.8398 489.88 35.8398C486.076 35.8398 483.884 37.5921 482.858 40.3763C481.539 43.7404 481.832 47.5442 481.539 50.6153C480.807 55.8783 477.149 58.9494 472.18 58.9494C467.21 58.9494 463.552 55.5852 463.552 50.3222C463.552 40.8159 474.378 31.4561 492.951 31.4561C509.185 31.4561 518.106 37.5982 518.106 54.126V86.1558C518.106 89.6665 518.692 91.2722 521.03 91.2722C522.789 91.2722 524.394 90.393 526.733 88.4942L527.465 89.0803C522.202 98.0005 516.5 102.684 509.625 102.684C502.75 102.684 498.8 98.8797 498.507 89.813V89.8069ZM488.854 91.4127C492.071 91.4127 495.289 90.0938 498.507 87.6089V62.0144C495.582 63.3332 492.804 64.6459 490.466 65.9647C483.298 69.915 480.227 73.7187 480.227 80.5936C480.227 88.2011 483.591 91.4188 488.854 91.4188V91.4127Z" fill="white"/>
<path d="M533.803 90.2467V48.271C533.803 42.2754 531.758 40.3704 526.195 42.2754L525.902 40.9566L552.376 31.4502H553.548V46.073C559.251 37.1528 565.979 31.4502 575.925 31.4502C587.917 31.4502 593.332 39.7843 593.332 55.1459V90.2467C593.332 97.5612 595.231 100.339 601.086 100.339V101.658H566.278V100.339C571.541 100.339 573.446 97.5612 573.446 90.2467V55.732C573.446 47.8314 570.522 44.1803 564.673 44.1803C560.576 44.1803 557.212 45.4991 553.554 48.1306V90.2528C553.554 97.5673 555.6 100.345 560.869 100.345V101.664H526.061V100.345C531.764 100.345 533.815 97.5673 533.815 90.2528L533.803 90.2467Z" fill="white"/>
<path d="M601.518 71.2275C601.518 46.8052 616.58 31.4436 635.446 31.4436C639.543 31.4436 642.761 32.1763 645.978 33.6355V16.8147C645.978 10.8191 644.079 8.91412 638.517 10.8191L638.224 9.50025L664.698 0H665.864V88.7748C665.864 94.624 667.769 96.5289 673.325 94.9171L673.765 96.2358L647.144 102.964H645.978V88.1948C640.422 97.2616 633.108 103.111 624.188 103.111C610.877 103.111 601.518 90.6798 601.518 71.2275ZM645.978 85.9968V42.2688C642.907 37.8789 639.103 36.1266 635.446 36.1266C627.112 36.1266 621.843 45.633 621.843 61.8676C621.843 83.0723 627.546 90.0937 635.3 90.0937C639.103 90.0937 642.614 88.4879 645.978 85.9968Z" fill="white"/>
<path d="M713.041 89.8069C707.918 97.561 700.756 102.97 691.83 102.97C682.904 102.97 675.455 97.1214 675.455 86.4427C675.455 74.891 684.082 68.8892 696.953 63.6262L713.041 57.191V49.15C713.041 39.204 710.263 35.8398 704.408 35.8398C700.61 35.8398 698.412 37.5921 697.392 40.3763C696.074 43.7404 696.367 47.5442 696.074 50.6153C695.341 55.8783 691.684 58.9494 686.714 58.9494C681.744 58.9494 678.087 55.5852 678.087 50.3222C678.087 40.8159 688.906 31.4561 707.485 31.4561C723.713 31.4561 732.64 37.5982 732.64 54.126V86.1558C732.64 89.6665 733.22 91.2722 735.564 91.2722C737.317 91.2722 738.928 90.393 741.267 88.4942L742 89.0803C736.73 98.0005 731.028 102.684 724.153 102.684C717.278 102.684 713.334 98.8797 713.041 89.813V89.8069ZM703.388 91.4127C706.606 91.4127 709.823 90.0938 713.041 87.6089V62.0144C710.116 63.3332 707.338 64.6459 704.994 65.9647C697.832 69.915 694.755 73.7187 694.755 80.5936C694.755 88.2011 698.119 91.4188 703.388 91.4188V91.4127Z" fill="white"/>
<path d="M133.889 11.3282L119.475 3.0061L88.6834 20.783V21.3209L66.9444 8.76995L45.2054 21.3209V20.783L14.4139 3.0061L0 11.3282V57.4608V79.8645L66.9444 118.515L133.889 79.8645V57.4608V11.3282ZM97.4341 25.8297L119.479 13.1037L125.147 16.3749V42.3077L97.4385 26.3107V25.834L97.4341 25.8297ZM8.7507 16.3749L14.4183 13.1037L36.4634 25.8297V26.3063L8.75508 42.3034V16.3705L8.7507 16.3749ZM84.4633 98.2974L66.9488 108.408L49.4343 98.2974V81.6269L66.9488 71.5161L84.4633 81.6269V98.2974ZM125.142 74.8135L107.567 84.9636V64.519L66.9488 41.0701L26.3308 64.519V84.9636L8.7507 74.8135V52.471L66.9488 18.8719L125.147 52.471V74.8135H125.142Z" fill="#E2401B"/>
</svg>
