<?xml version="1.0" encoding="utf-8"?>
<!-- Generator: Adobe Illustrator 26.0.1, SVG Export Plug-In . SVG Version: 6.00 Build 0)  -->
<svg version="1.1" id="Layer_1" width="1em" height="1em" xmlns="http://www.w3.org/2000/svg" xmlns:xlink="http://www.w3.org/1999/xlink" x="0px" y="0px"
	 viewBox="0 0 1284 902" style="enable-background:new 0 0 1284 902;" xml:space="preserve">
<style type="text/css">
	.st0{clip-path:url(#SVGID_00000054252033200628759290000018246485066457591710_);}
	.st1{fill-rule:evenodd;clip-rule:evenodd;fill:#8C8C8C;}
	.st2{fill-rule:evenodd;clip-rule:evenodd;fill:#CC3805;}
	.st3{fill-rule:evenodd;clip-rule:evenodd;fill:#F58757;}
	.st4{fill-rule:evenodd;clip-rule:evenodd;fill:#FFFFFF;}
	.st5{fill-rule:evenodd;clip-rule:evenodd;fill:#300500;}
	.st6{fill-rule:evenodd;clip-rule:evenodd;fill:#ED6338;}
	.st7{fill-rule:evenodd;clip-rule:evenodd;fill:#780500;}
	.st8{fill-rule:evenodd;clip-rule:evenodd;fill:#401714;}
	.st9{fill-rule:evenodd;clip-rule:evenodd;fill:#3B3838;}
	.st10{fill-rule:evenodd;clip-rule:evenodd;fill:#706B6B;}
	.st11{fill-rule:evenodd;clip-rule:evenodd;fill:#5E5959;}
	.st12{fill-rule:evenodd;clip-rule:evenodd;fill:#4F4A4A;}
	.st13{fill-rule:evenodd;clip-rule:evenodd;fill:#F5F5F5;}
	.st14{fill-rule:evenodd;clip-rule:evenodd;fill:#D9D9D9;}
	.st15{fill-rule:evenodd;clip-rule:evenodd;fill:#597596;}
	.st16{fill-rule:evenodd;clip-rule:evenodd;fill:#788FAD;}
	.st17{fill-rule:evenodd;clip-rule:evenodd;fill:#FFE8D6;}
	.st18{fill-rule:evenodd;clip-rule:evenodd;fill:#F0BD94;}
</style>
<g>
	<defs>
		<rect id="SVGID_1_" width="1284" height="902"/>
	</defs>
	<clipPath id="SVGID_00000116213517992287146510000011492983740361893006_">
		<use xlink:href="#SVGID_1_"  style="overflow:visible;"/>
	</clipPath>
	<g style="clip-path:url(#SVGID_00000116213517992287146510000011492983740361893006_);">
		<path class="st1" d="M853.5,272.1l-192.8-96l186.2,103.7l190.1,128L853.5,272.1z"/>
		<path class="st2" d="M1048.3,698.3l30.9,14.6l56.8,136.7l-86.5-60.8l-42-6.4l1.2,26.8l-70.9-36.8l-80.9-57.6l35.3-101.6l18.9-19.5
			l103.6,50.7L1048.3,698.3z"/>
		<path class="st3" d="M899.6,617.7l-32.6,93.9l75.4,53.6l57.5,29.9l-1-22.5l54,8.3l64.5,45.3l-44.5-107.1l-30.2-14.3l-33.7-53.9
			l-95.9-47L899.6,617.7z"/>
		<path class="st4" d="M895,704.1l22.4-73.8l79.2,40.3l24.4,40.5l-30.9-22.2l-23.3-0.4l41.5,33.2l46.3,12.9l23.9,43.9l-30.6-22.3
			l-39.4-4.3L966,726.7l3.2,14.2l12.6,23.4l-33.2-19.4L895,704.1z"/>
		<path class="st5" d="M1000,439.3l151.3-32.1l115.5,40L1284,551l-81,55.5l-128.6,1l-133.6-33.3l-119.7-64.7l-10-83.8L1000,439.3z"
			/>
		<path class="st2" d="M829.2,504.8l-8.4-70.6l179.9,13l150.1-31.9l108.5,37.6l15.7,94.8l-74.7,51.1l-124.6,1L944.2,567L829.2,504.8
			z"/>
		<path class="st6" d="M823.6,434.4l177.1,12.7l150.1-31.9l108.5,37.6l-96.7,3.8l-147.3,25.2L854,458.7L823.6,434.4z"/>
		<path class="st7" d="M829.2,504.8l-1.6-13.2l25.1-14.8l105.6,61.8l120.9,33.2l119.6-5.3l76.1-19.1l-74.7,51.1l-124.6,1L944.2,567
			L829.2,504.8z"/>
		<path class="st8" d="M1259.2,452.8l-77.4-26.8l39.9,28.2l15.2,102.8l-32,41.3l70-50.8L1259.2,452.8z"/>
		<path class="st8" d="M1069.8,432.5l56.7-12l43.5,35.9l12.1,111.1l-23.3,31.7l-42.9,0.3l14.8-29.8l-17.8-104.6L1069.8,432.5z"/>
		<path class="st8" d="M1021.9,586.4l53.6,13.4l3.6-27.8l-16.8-98.2l-43.8-30.4l-18,3.8l-22.7-1.6l48.2,34.4l5.2,78.9L1021.9,586.4z
			"/>
		<path class="st8" d="M944.2,567l37.1,9.3l9.6-28.5l-14.6-71.4l-28.4-32.9l-30.1-2.2l20.1,29.6l15.2,64.9L944.2,567z"/>
		<path class="st8" d="M872.8,528.4l27.3,14.8l18.9-27.4l-9.6-49.1l-20.5-27.6l-26.7-1.9l19.7,26.9l4.7,32.7L872.8,528.4z"/>
		<path class="st9" d="M748.2,483.4l23.8-1.5l37-4.1l37.4-4.2l28.1-1.3l2.1,0.1l1.9,1l212.1,103l1.4,0.7l1.1,1.1l13.4,14l18.2,18.5
			L933,627.2l5.9,12.5l1.8,3.7l-1.5,3.8l-15.5,38.8l-0.9,2.4l-2,1.5l-17.2,13.7l88.7,116.3l-17.2,22.3l-150.5-91.1l6.3,25.7
			l-24.4-1.9l-138.9-63.2l-31.9-86.1L521,571.6L203.2,414.9l-1.3-0.6l-1-1l-87.2-84.1l-1-1L112,327l-39.4-73.9l-11.3-35.6l-1-3.2
			l1.3-3.1l20.7-51.6l0.7-1.9l1.5-1.4l9.3-9.1l29.6-29.5l2.6-2.6l3.6-0.2l35.3-1.8l0.9,0l0.9,0.1l81.1,11.3l1.4,0.2l1.3,0.6
			l111.1,51.3l1.2,0.5l1,0.8l276.5,224.3L748.2,483.4z"/>
		<path class="st10" d="M125.9,145.2c0.8,2.7,1.6,5.5,2.5,8.2c0.8,2.7,1.6,5.5,2.6,8.3c-1.6,3.9-3.1,8-4.7,12.1
			c-1.6,4.1-3.1,8.1-4.6,12.1c-3.1,3.1-6.2,6.2-9.3,8.9l-9.3,9c-2.8,0.2-5.7,0.4-8.5,0.6l-8.4,0.6c-0.9-2.7-1.8-5.5-2.6-8.2
			s-1.7-5.4-2.5-8.2c1.6-4.1,3.1-8.2,4.8-12.2c1.7-4,3.1-8.2,4.7-12.3l9.3-9.1l9.3-9c2.7,0,5.6-0.2,8.4-0.4L125.9,145.2"/>
		<path class="st1" d="M357.1,186.4c6.9,20.6,13.8,41.1,20.8,61.5c90.5,70.4,181.1,139.9,273.3,206.2S836.3,583.1,929.9,645
			c-4.3-9.1-8.6-18.2-12.9-27.3c-95.1-67-190-135.1-283.1-206.8C540.3,338.8,448.8,263.2,357.1,186.4"/>
		<path class="st10" d="M929.9,645C836.4,583.1,743,520.2,651.2,454.2c-91.8-66-182.8-135.8-273.3-206.2
			c-11.6,29.5-23.1,59-34.7,88.5c94,61.1,188.2,121.6,283.4,179.5c95.2,57.9,191.3,113.2,287.8,167.8
			C919.6,670.9,924.7,658,929.9,645"/>
		<path class="st11" d="M914.4,683.8C818,629.1,721.7,573.7,626.7,515.9c-95-57.8-189.4-118.4-283.4-179.5
			c-23.5,21.7-47.1,43.7-70.8,66c100.2,54,200.6,107.5,301.8,159.1c101.2,51.6,203,101.2,305.1,150.4
			C891,702.4,902.7,693,914.4,683.8z"/>
		<path class="st12" d="M640,594.6l120.5,59.9l-47.7-68.4L640,594.6z"/>
		<path class="st9" d="M796.7,680.4l-140.2-67.3l29.9,90.2l131.6,64.5L796.7,680.4z"/>
		<path class="st12" d="M206.9,407.7c21.9-1.9,43.7-3.6,65.5-5.3c100.2,54,200.6,107.5,301.8,159.1s203,101.2,305.1,150.4
			c-11.4,0.3-22.9,0.7-34.3,1.2c-107.1-48.7-214.3-97.9-320.5-148.7C418.4,513.6,312.4,460.8,206.9,407.7z"/>
		<path class="st1" d="M233.2,263c36.6,24.7,73.3,49.2,110,73.6c11.5-29.6,23-59.1,34.7-88.5c-38.4-20.2-76.8-40.4-115.2-60.7
			L233.2,263z"/>
		<path class="st13" d="M262.7,187.2c38.3,20.3,76.7,40.5,115.2,60.7c-7-20.4-13.9-40.9-20.8-61.5c-37-17.1-74.1-34.2-111.1-51.4
			C251.6,152.5,257.2,169.9,262.7,187.2"/>
		<path class="st10" d="M233.2,263c36.6,24.7,73.3,49.2,110,73.6c-23.5,21.7-47.1,43.7-70.8,66c-32.9-27.5-65.7-55.2-98.4-83.1
			C193.8,300.3,213.5,281.5,233.2,263z"/>
		<path class="st12" d="M174.1,319.3c32.6,28,65.4,55.7,98.4,83.1c-21.8,1.7-43.7,3.5-65.5,5.3c-29.2-27.7-58.2-55.7-87-83.9
			C138,322.2,156,320.7,174.1,319.3"/>
		<path class="st14" d="M262.7,187.2c-5.6-17.3-11.2-34.7-16.8-52.2c-27-3.8-54-7.6-81-11.3c3.5,11.7,7.2,23.4,10.9,35L262.7,187.2z
			"/>
		<path class="st11" d="M262.7,187.2l-86.9-28.5c-6.7,17-13.3,34.1-19.9,51.1c25.7,17.8,51.4,35.4,77.1,53l29.5-75.6"/>
		<path class="st9" d="M174.1,319.3c-18.1,1.5-36.1,3-54.2,4.5c-13.1-24.2-26.1-48.6-39-73.1c11.9-1,23.8-1.9,35.8-2.9
			C135.7,271.8,154.9,295.6,174.1,319.3"/>
		<path class="st12" d="M174.1,319.3c-19.2-23.6-38.4-47.4-57.4-71.4c13.1-12.7,26.2-25.4,39.2-38c25.7,17.8,51.4,35.4,77.1,53
			c-19.7,18.6-39.5,37.4-59.1,56.4"/>
		<path class="st1" d="M131,161.7c-1.7-5.6-3.4-11-5-16.5c12.9-7.2,26-14.3,39-21.4c3.5,11.7,7.2,23.4,10.9,35
			C160.9,159.7,146,160.6,131,161.7z"/>
		<path class="st11" d="M175.8,158.8c-14.9,1-29.9,1.9-44.9,2.9c-3.1,8-6.2,16.2-9.3,24.2c11.4,8,22.9,16,34.3,23.9
			C162.6,192.8,169.2,175.8,175.8,158.8"/>
		<path class="st1" d="M109.2,146.1c5.6-0.2,11.1-0.6,16.7-0.9c12.9-7.2,26-14.3,39-21.4l-35.3,1.8
			C122.7,132.5,115.9,139.3,109.2,146.1z"/>
		<path class="st9" d="M103.1,203.9c-5.6,0.4-11.2,0.8-16.8,1.2c-1.9,15.2-3.7,30.5-5.4,45.6c11.9-1,23.8-1.9,35.8-2.9
			C112.1,233.3,107.6,218.6,103.1,203.9z"/>
		<path class="st12" d="M116.7,247.9c-4.6-14.6-9.1-29.2-13.6-44c6.2-6,12.3-12,18.5-18c11.4,8,22.9,16,34.3,23.9
			C142.9,222.5,129.8,235.1,116.7,247.9"/>
		<path class="st11" d="M81.2,188.7c1.7,5.4,3.3,10.9,5.1,16.4c-1.9,15.2-3.7,30.5-5.4,45.6c-3.7-11.5-7.4-23.1-11-34.8
			C73.6,206.7,77.4,197.8,81.2,188.7z"/>
		<path class="st12" d="M886.7,498.1c-23,1.1-102.5,17.2-125.5,18.5c58.6,41,91,62.7,150.4,102.2l187.7-18.5
			C1012.6,555,972.8,544.9,886.7,498.1"/>
		<path class="st10" d="M873.5,483c4.3,5,8.7,10,13.2,15.1c-23,1.1-102.5,17.2-125.5,18.5L745.8,494
			C769.6,495.2,849.7,481.7,873.5,483"/>
		<path class="st14" d="M1085.8,586.1l13.5,14.1L886.7,498L873.6,483L1085.8,586.1z"/>
		<path class="st14" d="M775.8,692.6l-63.1-106.5l165.2,101.4l101.9,133.6L775.8,692.6z"/>
		<path class="st1" d="M712.8,586.1l-17.5,22.2l70.6,97.9l10-13.5L712.8,586.1z"/>
		<path class="st10" d="M979.8,821.1l-7.7,9.9L765.9,706.2l10-13.5L979.8,821.1z"/>
		<path class="st9" d="M10.2,102c32,20.9,65.1,37.7,97.3,58.4c0.3,1,0.6,2,0.9,3.1c0.3,1,0.6,2.1,1,3.1c-0.6,1.5-1.3,2.9-1.8,4.4
			c-0.5,1.5-1.2,3.1-1.7,4.4c-1.1,1-2.3,2.1-3.3,3.1c-1,1-2.3,2.1-3.3,3.3l-3.1,0.2l-3.1,0.2c-30.3-23.4-61.7-43-91.7-66.8
			c-0.6-2-1.1-4-1.7-6.2l4.4-6.5l6.2-0.4"/>
		<path class="st1" d="M818.1,767.8l-9.7-0.7l-133.9-60.9l12-2.9L818.1,767.8z"/>
		<path class="st11" d="M642.6,620.1l31.9,86.1l12-2.9l-22.4-73.2L642.6,620.1z"/>
		<path class="st11" d="M396.1,219l12.2,38.6l72.2,50l14.1,30.7l212.3,159.8l-6.2-37.4L396.3,219.1L396.1,219z"/>
		<path class="st9" d="M706.9,498.1L494.6,338.3l-34.6,62l-8.5,6.1l270.8,184.9L706.9,498.1z"/>
		<path class="st9" d="M722.3,591.3L451.5,406.4l-81.3,58.2l18.9,17.5l130.4,51.1l26.5,13.7l43.4-20.2l26.4,14.2l-17.1,32.9
			l88.4,49.7l38.8-10.2L722.3,591.3z"/>
		<path class="st15" d="M634.2,617.1l44.6,24.6l32.3-19.4l-17.5-23.1L634.2,617.1z"/>
		<path class="st9" d="M598.7,573.8l89.5,49.4L664,637.7l-52.6-32.1L598.7,573.8z M516.5,560.5L505,555l27.8-14.9l13.2,6.8
			L516.5,560.5z"/>
		<path class="st13" d="M712.1,621.7l-18.6-22.5l27.6,17.1L712.1,621.7z"/>
		<path class="st16" d="M693.6,599.2l-15.6,24.1l11.8,11.9l22.4-13.5L693.6,599.2z"/>
		<path class="st15" d="M654.6,656.2l-7.9-4.1l4.1,6.4L654.6,656.2z"/>
		<path class="st5" d="M729.7,318.4l92.1,67.9l43.6,89.4l-44.6,112.6L769.5,625l7.2,9.9l-15.3,22.7l-104.4,19.7l-60.5-32.7
			l-3.8-34.3l33.8-3.9l-22.9-20.1l38.6-65.6l-37-18L466.7,575l-83.8-11.9l-69.1-34.3l-28.6-44.4l85.8-16.7l90.6-53.2l48.2-58
			l-5.2-57.7l62.8-43.7l119.2-6.3L729.7,318.4z"/>
		<path class="st2" d="M570.5,264.6l-56.1,39l5.1,56.1l-51.7,62.2l-93.4,54.8l-73.7,14.3l19.7,30.5l65.5,32.4l79.3,11.3l169.6-88.6
			l-22.7,18.8l36.6,17.8l28.8-33.6l-61.6,104.7l80.2,70.5l-55.2-31.4l-39.2-9.1l4.5,25.8l49.6,27.6l100-18.4l9.6-14.3l-5.8-8
			l-46.4,26.9L813,582.2l41.9-105.7l-38.7-82.6l-93.4-68.8l-41.4-66.4L570.5,264.6z"/>
		<path class="st7" d="M534.1,289.9l-19.7,13.7l5.1,56.1l-19,22.8l53-36.1l76.3-5.4L534.1,289.9z"/>
		<path class="st8" d="M431.9,442.9l-57.6,33.9l-73.7,14.3l19.7,30.5l65.5,32.4l79.3,11.3l19.8-10.3l38.4-83.1l-24.2-30L431.9,442.9
			z"/>
		<path class="st6" d="M570.5,264.6l-2.7,3.4l138.4,126.4l62.1,5.3L714.8,456l57.5,50.6l82.6-30.1l-38.7-82.6l-93.4-68.8l-41.4-66.4
			L570.5,264.6z"/>
		<path class="st8" d="M623.6,570.9l-7.9,13.5l80.2,70.5l-55.4-36.2l-39-4.3l2.3,24.6l51.9,28.9l100-18.4l9.6-14.3l-5.8-8
			l-46.4,26.9L813,582.2l17.4-44l-134.5,84L623.6,570.9z"/>
		<path class="st7" d="M611.9,495.5l16.8-13.9l42.4,5.3l-22.6,26.5L611.9,495.5z"/>
		<path class="st5" d="M575.7,11.3l-11,46.7l60,32.8l109.6,33.7l28.8,24L713,194.9l3.5,24.9l-15.1,42.1L660,273.7l1.2,52.7
			l-17.1-15.3l-3.8,32.1l-106.1-21.6l-56.6-23.2l-63.3-43l-75.6-77.4l24.7-20.3l-22.1-6.2l45.1-27.4l-12.3-41.3l27.3-35.4l27.8-9.3
			L539.9,0.2l35.8,11.3"/>
		<path class="st5" d="M653.4,122.5c126.2-49.4-6.9,154-2.7,142.6l-3.4-0.8l-0.5-3.4C641.2,222.2,617,140.2,653.4,122.5"/>
		<path class="st5" d="M517.6,48.2c-73.7-59.4-140.9,112-118.6,79.1l2.5,2.4l3.1-1.4C440.1,112.2,522.2,88.3,517.6,48.2"/>
		<path class="st2" d="M625.2,102.4l21.5,17.5l1.6,59.3l16.4-5.3l-12.5,17.3l14.6,13.9l-17.9-1l2.3,102.2l-14.5-12.9l-4.7,39.6
			l-94-17.4L475.1,287l-57.9-37.6l-65.4-69.8l30.9-25.3L364,149l87.4-53.1l-10.5-14.5l19.6,4.8l7.8-19.9l4.4,16.6l42.9-30.2l0.6,8.2
			l35,0.9L625.2,102.4z"/>
		<path class="st7" d="M466.2,197.4l-32.5-47.2l21-29.9l-55.8,56.3l3.4,56.9l15,16l63.4,44.7l57.3,21.4l56.4-31.6l11.1-75.3
			l-39.1,29.7l-28-1.4l-29.6-31.7L466.2,197.4z"/>
		<path class="st6" d="M648.8,167.4l-0.5,11.7l16.4-5.3l-12.5,17.3l14.6,13.9l-17.9-1l2.3,102.2l-14.5-12.9l-4.7,39.6l-43-8
			l35.2-6.9L648,167.4L648.8,167.4z"/>
		<path class="st17" d="M503.9,194.1l15.3,34.2l20.1,10.3l-1.3,29.6L491,293l-11.3,0.5l-41.1-29.2l-23.3-51.5l12.5-27.5l20-3.6
			l31.3-1.2L503.9,194.1z"/>
		<path class="st18" d="M470.2,264.2l43.5-17.9l24.4,21.8L491,293l-11.3,0.5l-41.1-29.2l-23.3-51.5l9-17.1l4.9,10.6l1.1,7.1
			l4.1,29.7L470.2,264.2z"/>
		<path class="st18" d="M527.2,150.8l16.8-35.2l27.3,9.6l-18.7,31.5L527.2,150.8z"/>
		<path class="st18" d="M579.9,152.8l-5.6-18.9l-15.5,25.8l10.9,4.7L579.9,152.8z"/>
		<path class="st17" d="M636.6,144.8l10.1-24.9l81.5,15.3l20,16.7l-48.8,39.3l6.4,25.9l-33.7,27.9l27.2-9.5l-5.7,19.6l-36.3,10.3
			l-8.1-43.1l29.6-6.8l-0.2-30L709,155L648,167.4L636.6,144.8z"/>
		<path class="st18" d="M708.9,155L648,167.3l-11.5-22.6l15.9,12.6L708.9,155z M657.3,265.6l-8.1-43.2l29.6-6.8l-0.2-30l30.3-30.6
			l-25,33.6l5.6,24.4L672.1,245L657.3,265.6z"/>
		<path class="st7" d="M646.7,119.9l-21.5-17.5l103.1,32.8L646.7,119.9z"/>
		<path class="st5" d="M467.1,183.5l-18.3-19l-1.3-7.5l19.1-7.7l11.7,11l-1.1,20.9L467.1,183.5z"/>
		<path class="st7" d="M466.8,155.4l9.1,9.3l-2.6,13.5l-8.3,2.9L453,168.8l1.5-8.4L466.8,155.4z"/>
		<path class="st5" d="M467.4,159.8l6.9,6.5l-1.6,9l-8.8,2.7l-6.9-6l1.4-9.1L467.4,159.8z"/>
		<path class="st17" d="M472.7,159.6l3.5,3.4l-1,5.4l-5,1.5l-3.9-3.4l0.8-5.2L472.7,159.6z"/>
		<path class="st17" d="M478.4,160.2l-2.3,21.4l7.9-3l2.6-21l-19.4-18l-23,8.4l3.3,9l17.8-7.1L478.4,160.2z"/>
		<path class="st5" d="M552.6,214.4l-8.7-21.9l-18.2-3.3l-17,12.9l9.7,11.7l29.3,2.7L552.6,214.4z"/>
		<path class="st17" d="M587.7,287.6L538,315.5l51,9.4l28.7-25.6l-4.8-21.2l11.9,6.3l-19.3-75.8L587.7,287.6z"/>
		<path class="st6" d="M503.9,194.1l7-16.1l-7.8-4.3l-7.7-4.3l-16.3,11L503.9,194.1z"/>
		<path class="st7" d="M540.9,195.7l-15-2.9l-9.4,10.1l4.5,10.9l18.3,1.9l6.8-6.1L540.9,195.7z"/>
		<path class="st5" d="M538.1,197.7l-9.8-1.9l-6.2,6.7l3.7,8.9l9.4,2.1l6.4-6.6L538.1,197.7z"/>
		<path class="st17" d="M529.4,195.8l-5-0.8l-3.7,4.1l2.1,5.1l5.3,1.2l3.7-3.8L529.4,195.8z"/>
		<path class="st6" d="M536.7,94.2l80.2,3.7l-32.4-17.8l-32.4-17.7L536.7,94.2z"/>
		<path class="st18" d="M538,315.5l18.4-10.3l31.4,2.6l19.4-13.4l5.7-16.2l4.8,21.2L589,324.9L538,315.5z"/>
		<path class="st17" d="M571.3,125.1l-27.3-9.6l-14.5,30.6l13.9,1.7L571.3,125.1z"/>
		<path class="st17" d="M579.9,152.8l-5.6-18.9l-7.9,23.5L579.9,152.8z"/>
		<path class="st6" d="M482.2,76.2l-9.6,6.8l-4.4-16.6l-7.8,19.9l-19.6-4.8l10.5,14.5L364,149l18.7,5.2l-30.9,25.3l29.9,31.9
			l-13.1-33.5l114-101.3L482.2,76.2z"/>
		<path class="st18" d="M507.5,138.8l24.7-30.2L511.9,88l-20.6,30.3L507.5,138.8z"/>
		<path class="st18" d="M480.1,99l19.5-3l-16.7,25l-8.9-7.9L480.1,99z"/>
		<path class="st7" d="M516.1,61l35,0.9l13.2-42.7L516.1,61z"/>
		<path class="st17" d="M398.9,176.5l3.4,56.9l-28.4-32.9l7-44.8l12.5-5.6l-11.7-6.7l74.2-24.5L398.9,176.5z"/>
		<path class="st18" d="M402.3,233.4l-1.2-21.1l-14.7-19.2l3.5-31.2l3.5-11.7l-12.5,5.6l-7,44.8L402.3,233.4z"/>
		<path class="st17" d="M511.9,88l20.3,20.6l-21.4,26.2l-7.5-11.9L511.9,88z"/>
		<path class="st17" d="M480.1,99l19.5-3l-17.9,17.1L480.1,99z"/>
		<path class="st17" d="M516.1,61l10-10.9l38.2-31l-24.8-7.8L434.9,46.4L409.6,55l-5.3,43.4l-6.7-28.1l-13.5,15.4l10.9,36.2
			l40.6-16.4l-10.2-28.6l25.4-16l62.5-18.1l-31.1,33.5L516.1,61z"/>
		<path class="st18" d="M513.3,42.7l-31.1,33.5l33.9-15.4L502,62.1L513.3,42.7z M395,121.9l40.6-16.3L425.4,77l25.3-16l62.5-18.1
			l-67.9,15.3l-23.6,8.4l-17.6,32L395,121.9z"/>
		<path class="st17" d="M524.2,190.3l-15.6,11.8l-2.8-8.4l17.9-12.4l24.9,3l13.5,27.3l-9.5,2.7l-8.7-21.9L524.2,190.3z"/>
		<path class="st5" d="M467.4,188l17.6,6.6l-0.2,5.5l-23,4.9l-4.9,8.7l1.2,3.5l18,17l31.3,6.6l6.8-5.7l2.4,2l-3.4,10.7l-6.3-2.9
			l-35.5-5.3l-21.2-20.3l-5.8-1.2l-14.2-4.7l-1.1-7.1l-5.5-0.2l0.6-10.4l3.7-0.9l3.3,12l16.4,4.7l3.6-0.9l4.6-8.8l-8.2-22l4.5-3.1
			L467.4,188z"/>
		<path class="st18" d="M467.1,188.5l17.8,6.1l17.3-1.5l-23.1-12.7l-26.8-3.8L467.1,188.5z"/>
		<path class="st5" d="M289.6,442.7L289.6,442.7l29.7,21.6l1.5,1.1l0.9,4.5l4.8,24.9l-47.9,2.2l-8.6-8.9l-29.4-9.8l-2.8-11.3
			l-20.8-9.9l-0.4-31.4l45-5.6L289.6,442.7z"/>
		<path class="st8" d="M227.9,450.2l-0.2-14.8l30.7-3.9l18,14.5l-18.9,10.7l29.1-2.9l16.9,12.3l-14.6,6.8l22.6,1.6l1.9,9.8
			l-30.3,1.4l-7-7.3l-26.2-8.7l-2.6-10.5L227.9,450.2z"/>
		<path class="st1" d="M919.4,363.3l-187.3-92.9L908,375.9l356.6,233.9L919.4,363.3z"/>
		<path class="st1" d="M564.1,722.1L426.5,617.9l160.2,99.5L937.5,902L564.1,722.1z"/>
		<path class="st1" d="M409.1,565.7l-89.8-71l93.9,61.7L609.9,674L409.1,565.7z"/>
	</g>
</g>
</svg>
