<svg width="276" height="194" viewBox="0 0 276 194" fill="none" xmlns="http://www.w3.org/2000/svg">
<path d="M73.9489 186.847C94.1847 186.847 110.589 184.287 110.589 181.132C110.589 177.976 94.1847 175.417 73.9489 175.417C53.7132 175.417 37.3088 177.976 37.3088 181.132C37.3088 184.287 53.7132 186.847 73.9489 186.847Z" fill="#D3D3D3" stroke="white" stroke-miterlimit="10"/>
<path d="M75.602 114.468H71.6083V182.986H75.602V114.468Z" fill="white"/>
<path d="M75.6019 182.311H71.6083L72.281 182.986V117.26C72.281 116.42 72.4304 115.416 72.281 114.586C72.2779 114.548 72.2779 114.509 72.281 114.47L71.6083 115.143H75.6019L74.9294 114.47V180.195C74.9294 181.079 74.8711 181.991 74.9294 182.869C74.9294 182.907 74.9294 182.947 74.9294 182.986C74.9294 183.852 76.2744 183.854 76.2744 182.986V117.26C76.2744 116.375 76.3327 115.464 76.2744 114.586C76.2744 114.548 76.2744 114.509 76.2744 114.47C76.2717 114.292 76.2001 114.122 76.0745 113.996C75.949 113.871 75.7794 113.799 75.6019 113.796H71.6083C71.4308 113.799 71.2613 113.871 71.1358 113.996C71.0103 114.122 70.9385 114.292 70.9358 114.47V180.195C70.9358 181.079 70.8775 181.991 70.9358 182.869C70.9358 182.907 70.9358 182.947 70.9358 182.986C70.938 183.164 71.0097 183.333 71.1354 183.459C71.2609 183.585 71.4307 183.657 71.6083 183.66H75.6019C76.4748 183.66 76.4748 182.311 75.6019 182.311Z" fill="#2E100D"/>
<path d="M135.786 20.7163H9.40758C4.50361 20.7163 0.528168 24.6986 0.528168 29.611V108.159C0.528168 113.071 4.50361 117.054 9.40758 117.054H135.786C140.69 117.054 144.666 113.071 144.666 108.159V29.611C144.666 24.6986 140.69 20.7163 135.786 20.7163Z" fill="white"/>
<path d="M135.786 116.531H11.4671C10.0502 116.531 8.59897 116.615 7.21795 116.241C3.59206 115.256 1.0901 111.899 1.05124 108.156C1.05124 107.816 1.05124 107.475 1.05124 107.135V32.7057C1.05124 30.8432 0.879353 28.8266 1.45477 27.0345C2.55928 23.5911 5.82349 21.2749 9.40752 21.242C9.6377 21.242 9.86933 21.242 10.0995 21.242H135.399C136.401 21.2203 137.399 21.3568 138.358 21.6462C141.796 22.7527 144.11 26.0209 144.143 29.6125C144.156 30.969 144.143 32.3239 144.143 33.6788V107.601C144.143 108.667 144.068 109.71 143.739 110.745C142.633 114.188 139.373 116.497 135.786 116.539C135.114 116.539 135.112 117.587 135.786 117.587C139.326 117.547 142.645 115.552 144.216 112.347C144.918 110.913 145.189 109.376 145.189 107.792V33.6834C145.189 32.3284 145.202 30.972 145.189 29.6171C145.14 24.3051 140.804 20.2074 135.564 20.1985C134.233 20.1985 132.902 20.1985 131.57 20.1985H10.0263C9.68103 20.1985 9.33429 20.191 8.98903 20.2074C7.24424 20.2943 5.55736 20.8626 4.11466 21.8493C2.67195 22.8361 1.52954 24.2032 0.813584 25.7993C-0.114561 27.9058 0.00501968 30.0841 0.00501968 32.3134V107.164C0.00501968 107.601 -0.00394791 108.041 0.00501968 108.48C0.126082 111.97 2.23644 115.217 5.41096 116.693C7.27026 117.555 9.13253 117.591 11.1024 117.591H135.78C136.46 117.579 136.46 116.531 135.786 116.531Z" fill="#2E100D"/>
<path d="M133.951 25.2197H10.9187C7.70442 25.2197 5.09872 27.8298 5.09872 31.0496V106.611C5.09872 109.831 7.70442 112.441 10.9187 112.441H133.951C137.165 112.441 139.771 109.831 139.771 106.611V31.0496C139.771 27.8298 137.165 25.2197 133.951 25.2197Z" fill="white"/>
<path d="M133.949 111.917H14.256C13.1769 111.917 12.0978 111.917 11.0187 111.917C8.88146 111.905 6.90261 110.705 6.0462 108.707C5.66956 107.825 5.62172 106.919 5.62172 105.986V35.3658C5.62172 33.9405 5.60379 32.5121 5.62172 31.0853C5.63062 29.6778 6.19076 28.3298 7.18162 27.3317C8.1725 26.3335 9.5149 25.7648 10.9201 25.748C11.1353 25.748 11.3505 25.748 11.5672 25.748H132.821C133.168 25.748 133.516 25.748 133.867 25.748C136.158 25.7704 138.255 27.1672 138.98 29.3891C139.457 30.8519 139.246 32.6693 139.246 34.1874V105.377C139.246 105.778 139.246 106.181 139.246 106.584C139.237 107.991 138.676 109.339 137.685 110.337C136.695 111.335 135.353 111.904 133.948 111.921C133.277 111.933 133.274 112.981 133.948 112.969C137.336 112.909 140.158 110.246 140.288 106.831C140.303 106.442 140.288 106.049 140.288 105.66V34.2159C140.288 32.6424 140.479 30.8264 140.043 29.2962C139.263 26.5685 136.732 24.7329 133.929 24.6955C133.658 24.6955 133.386 24.6955 133.116 24.6955H11.4955C11.1652 24.6955 10.8319 24.6864 10.5031 24.7104C7.17911 24.9455 4.62333 27.7332 4.57551 31.0509C4.55606 32.3295 4.57551 33.611 4.57551 34.8911V105.986C4.57551 106.924 4.61585 107.844 4.94316 108.743C5.39545 109.974 6.21217 111.039 7.28416 111.793C8.35616 112.547 9.63243 112.956 10.9425 112.965C11.8931 112.977 12.8451 112.965 13.7957 112.965H133.949C134.623 112.965 134.625 111.917 133.949 111.917Z" fill="#2E100D"/>
<path d="M2.49183 31.8172V101.892C2.49183 102.838 2.47389 103.787 2.49183 104.736C2.49183 104.777 2.49183 104.819 2.49183 104.86C2.49183 105.341 3.23913 105.342 3.23913 104.86V34.7816C3.23913 33.8355 3.25706 32.8877 3.23913 31.937V31.8128C3.23913 31.3307 2.49183 31.3292 2.49183 31.8128V31.8172Z" fill="#CCCCCC"/>
<path d="M12.5418 23.3754H128.523C130.088 23.3754 131.661 23.4037 133.223 23.3754C133.292 23.3754 133.361 23.3754 133.429 23.3754C133.909 23.3754 133.911 22.6267 133.429 22.6267H17.4485C15.8837 22.6267 14.3099 22.5997 12.748 22.6267H12.5418C12.062 22.6267 12.0605 23.3754 12.5418 23.3754Z" fill="#CCCCCC"/>
<path d="M12.5418 115.024H128.523C130.088 115.024 131.661 115.052 133.223 115.024H133.419C133.899 115.024 133.9 114.275 133.419 114.275H17.4485C15.8837 114.275 14.3099 114.248 12.748 114.275H12.5418C12.062 114.275 12.0605 115.024 12.5418 115.024Z" fill="#CCCCCC"/>
<path d="M141.856 31.8172V101.892C141.856 102.838 141.838 103.787 141.856 104.736C141.856 104.777 141.856 104.819 141.856 104.86C141.856 105.341 142.603 105.342 142.603 104.86V34.7816C142.603 33.8355 142.621 32.8877 142.603 31.937V31.8128C142.603 31.3307 141.856 31.3292 141.856 31.8128V31.8172Z" fill="#CCCCCC"/>
<path fill-rule="evenodd" clip-rule="evenodd" d="M12.5419 20.6937V25.0549C12.5419 25.0549 9.02065 24.6657 6.93717 26.9279C4.95983 29.0748 5.22736 32.7893 5.22736 32.7893H0.528353C0.528353 32.7893 0.053058 26.3514 2.86889 23.5877C5.68471 20.824 7.399 20.3433 12.5419 20.6937Z" fill="#2E100D"/>
<path fill-rule="evenodd" clip-rule="evenodd" d="M133.09 20.9123V25.2735C133.09 25.2735 136.613 24.8842 138.696 27.1464C140.674 29.2933 140.405 33.0078 140.405 33.0078H145.105C145.105 33.0078 145.581 26.57 142.763 23.8063C139.946 21.0424 138.233 20.5544 133.09 20.9123Z" fill="#2E100D"/>
<path fill-rule="evenodd" clip-rule="evenodd" d="M12.5419 116.961V112.599C12.5419 112.599 9.02065 112.989 6.93717 110.727C4.95983 108.58 5.22736 104.865 5.22736 104.865H0.528353C0.528353 104.865 0.053058 111.303 2.86889 114.067C5.68471 116.83 7.399 117.31 12.5419 116.961Z" fill="#2E100D"/>
<path fill-rule="evenodd" clip-rule="evenodd" d="M133.09 116.741V112.379C133.09 112.379 136.613 112.768 138.696 110.506C140.674 108.359 140.033 104.645 140.033 104.645H144.918C144.918 104.645 145.581 111.083 142.763 113.847C139.946 116.61 138.233 117.098 133.09 116.741Z" fill="#2E100D"/>
<path d="M75.3491 163.759L72.3851 166.441L84.5078 179.89L87.4718 177.208L75.3491 163.759Z" fill="white"/>
<path d="M86.9937 176.719L84.0285 179.4H84.9805L74.357 167.615L72.8623 165.952V166.905L75.8276 164.223H74.8755L85.4992 176.008L86.9937 177.672C87.5752 178.317 88.5227 177.361 87.9443 176.719L77.3207 164.934L75.826 163.27C75.5735 162.991 75.1326 163.037 74.874 163.27L71.9103 165.952C71.6307 166.206 71.6771 166.645 71.9103 166.905L82.5338 178.69L84.0285 180.352C84.2811 180.633 84.7219 180.586 84.9805 180.352L87.9443 177.672C88.5885 177.09 87.6349 176.138 86.9937 176.719Z" fill="#2E100D"/>
<path d="M71.7599 163.734L59.6371 177.183L62.6013 179.865L74.7241 166.416L71.7599 163.734Z" fill="white"/>
<path d="M59.164 177.672L62.1293 180.353C62.3879 180.586 62.8259 180.635 63.0798 180.353L73.7035 168.568L75.198 166.905C75.4327 166.646 75.4791 166.206 75.198 165.952L72.2343 163.27C71.9756 163.035 71.5363 162.99 71.2837 163.27L60.6646 175.051L59.1701 176.713C58.5916 177.357 59.5406 178.311 60.1222 177.666L70.7457 165.88L72.2402 164.217H71.2897L74.2535 166.899V165.946L63.6285 177.745L62.1338 179.408H63.0844L60.1206 176.727C59.4749 176.139 58.5213 177.09 59.164 177.672Z" fill="#2E100D"/>
<path d="M75.602 132.229H71.6083V142.613H75.602V132.229Z" fill="#2E100D"/>
<path d="M75.602 159.748H71.6083V172.856H75.602V159.748Z" fill="#2E100D"/>
<path d="M74.4196 166.796L71.3572 164.229L66.0282 170.606L69.0905 173.174L74.4196 166.796Z" fill="#2E100D"/>
<path d="M78.4072 173.164L81.3712 170.484L75.5477 164.023L72.5837 166.703L78.4072 173.164Z" fill="#2E100D"/>
<path d="M74.9305 117.581H72.2791V121.588H74.9305V117.581Z" fill="#D3D3D3"/>
<path d="M79.3338 135.865H75.0055V138.304H79.3338V135.865Z" fill="#2E100D"/>
<path d="M81.1738 133.859H78.4147V140.309H81.1738V133.859Z" fill="#2E100D"/>
<path d="M32.9729 93.8205C32.9251 95.9165 31.2616 97.6726 29.1272 97.6726C28.1073 97.6726 27.1292 97.2668 26.4081 96.5443C25.6868 95.822 25.2817 94.8422 25.2817 93.8205C25.2817 92.7989 25.6868 91.8189 26.4081 91.0966C27.1292 90.3742 28.1073 89.9683 29.1272 89.9683C31.2616 89.9683 32.9251 91.717 32.9729 93.8205C32.9879 94.4942 34.0355 94.4972 34.0192 93.8205C34.0192 92.8107 33.7078 91.8255 33.1275 90.9996C32.5472 90.1738 31.7266 89.5478 30.7776 89.2072C29.8285 88.8665 28.7976 88.8278 27.8258 89.0965C26.8541 89.3653 25.9889 89.9281 25.3487 90.7081C24.7084 91.4881 24.3244 92.4472 24.2491 93.4543C24.1738 94.4613 24.411 95.467 24.9281 96.3339C25.4453 97.2007 26.2171 97.8863 27.1382 98.297C28.0592 98.7076 29.0844 98.823 30.0734 98.6278C32.3766 98.1906 33.9668 96.1246 34.0192 93.8205C34.0355 93.1467 32.9894 93.1467 32.9729 93.8205Z" fill="#9164E8"/>
<path d="M55.6442 80.0021C55.5964 82.098 53.9329 83.8542 51.7986 83.8542C50.7787 83.8542 49.8005 83.4484 49.0794 82.726C48.3581 82.0035 47.9531 81.0237 47.9531 80.0021C47.9531 78.9804 48.3581 78.0006 49.0794 77.2781C49.8005 76.5558 50.7787 76.1498 51.7986 76.1498C53.9329 76.1498 55.5964 77.8985 55.6442 80.0021C55.6606 80.6757 56.7068 80.6788 56.6905 80.0021C56.6905 78.9922 56.3791 78.007 55.7988 77.1812C55.2186 76.3555 54.3978 75.7295 53.4489 75.3888C52.4999 75.0481 51.4689 75.0096 50.4971 75.2782C49.5254 75.5468 48.6602 76.1096 48.02 76.8898C47.3797 77.6698 46.9957 78.6289 46.9204 79.6359C46.8452 80.643 47.0823 81.6485 47.5995 82.5155C48.1166 83.3822 48.8885 84.0679 49.8095 84.4785C50.7305 84.8892 51.7557 85.0047 52.7447 84.8094C55.0479 84.3722 56.6381 82.3046 56.6905 80.0021C56.7068 79.3284 55.6606 79.3284 55.6442 80.0021Z" fill="#9164E8"/>
<path d="M38.1681 74.4009C38.1187 76.4969 36.4552 78.253 34.3224 78.253C33.811 78.2632 33.3026 78.1709 32.8271 77.9818C32.3516 77.7928 31.9185 77.5106 31.5533 77.1517C31.1879 76.793 30.8977 76.3649 30.6996 75.8924C30.5016 75.4198 30.3995 74.9126 30.3995 74.4002C30.3995 73.8876 30.5016 73.3803 30.6996 72.9078C30.8977 72.4354 31.1879 72.0072 31.5533 71.6485C31.9185 71.2897 32.3516 71.0074 32.8271 70.8184C33.3026 70.6292 33.811 70.5372 34.3224 70.5472C36.4567 70.5472 38.1187 72.2959 38.1681 74.4009C38.1829 75.0731 39.2292 75.0761 39.2143 74.4009C39.2149 73.3905 38.9039 72.4048 38.3237 71.5784C37.7436 70.7518 36.9227 70.1252 35.9733 69.784C35.024 69.4428 33.9926 69.4039 33.0202 69.6725C32.048 69.941 31.1823 70.5039 30.5415 71.2842C29.901 72.0646 29.5166 73.0242 29.4414 74.0316C29.366 75.0391 29.6033 76.0453 30.1206 76.9125C30.638 77.7797 31.4103 78.4655 32.3318 78.8763C33.2534 79.287 34.2791 79.4024 35.2686 79.2067C37.5717 78.7695 39.1545 76.7035 39.2143 74.4009C39.2292 73.7256 38.1829 73.7256 38.1681 74.4009Z" fill="#9164E8"/>
<path d="M23.636 80.0303C23.5881 82.1264 21.9246 83.8826 19.7903 83.8826C18.7704 83.8826 17.7923 83.4766 17.071 82.7543C16.3499 82.0319 15.9448 81.052 15.9448 80.0303C15.9448 79.0087 16.3499 78.0289 17.071 77.3065C17.7923 76.584 18.7704 76.1782 19.7903 76.1782C21.9246 76.1782 23.5881 77.9269 23.636 80.0303C23.6524 80.7041 24.6986 80.707 24.6821 80.0303C24.6823 79.0205 24.3709 78.0354 23.7906 77.2096C23.2103 76.3838 22.3895 75.7577 21.4405 75.4172C20.4915 75.0765 19.4607 75.0378 18.4889 75.3065C17.5172 75.5751 16.652 76.138 16.0118 76.918C15.3715 77.698 14.9875 78.6572 14.9122 79.6643C14.8369 80.6712 15.0741 81.677 15.5912 82.5437C16.1084 83.4107 16.8802 84.0963 17.8012 84.5069C18.7223 84.9174 19.7473 85.033 20.7365 84.8378C23.0397 84.4006 24.6224 82.333 24.6821 80.0303C24.6986 79.3567 23.6524 79.3567 23.636 80.0303Z" fill="#9164E8"/>
<path d="M70.3845 80.0021C70.3351 82.098 68.6731 83.8542 66.5388 83.8542C65.5189 83.8542 64.5408 83.4484 63.8197 82.726C63.0984 82.0035 62.6933 81.0237 62.6933 80.0021C62.6933 78.9804 63.0984 78.0006 63.8197 77.2781C64.5408 76.5558 65.5189 76.1498 66.5388 76.1498C68.6731 76.1498 70.3351 77.8985 70.3845 80.0021C70.3995 80.6757 71.4456 80.6788 71.4307 80.0021C71.4307 78.9922 71.1194 78.007 70.5391 77.1812C69.9588 76.3555 69.138 75.7295 68.189 75.3888C67.2401 75.0481 66.2091 75.0096 65.2374 75.2782C64.2656 75.5468 63.4003 76.1096 62.7602 76.8898C62.12 77.6698 61.7359 78.6289 61.6607 79.6359C61.5854 80.643 61.8225 81.6485 62.3397 82.5155C62.8568 83.3822 63.6287 84.0679 64.5497 84.4785C65.4707 84.8892 66.4958 85.0047 67.485 84.8094C69.7881 84.3722 71.3709 82.3046 71.4307 80.0021C71.4456 79.3284 70.3995 79.3284 70.3845 80.0021Z" fill="#9164E8"/>
<path d="M83.7007 80.0303C83.653 82.1264 81.9895 83.8826 79.8552 83.8826C78.8353 83.8826 77.857 83.4766 77.1359 82.7543C76.4146 82.0319 76.0095 81.052 76.0095 80.0303C76.0095 79.0087 76.4146 78.0289 77.1359 77.3065C77.857 76.584 78.8353 76.1782 79.8552 76.1782C81.9895 76.1782 83.653 77.9269 83.7007 80.0303C83.7157 80.7041 84.7635 80.707 84.747 80.0303C84.7471 79.0205 84.4356 78.0354 83.8553 77.2096C83.2752 76.3838 82.4544 75.7577 81.5054 75.4172C80.5563 75.0765 79.5254 75.0378 78.5536 75.3065C77.5818 75.5751 76.7167 76.138 76.0764 76.918C75.4362 77.698 75.0523 78.6572 74.977 79.6643C74.9018 80.6712 75.1389 81.677 75.6561 82.5437C76.1732 83.4107 76.9449 84.0963 77.8659 84.5069C78.787 84.9174 79.8122 85.033 80.8012 84.8378C83.1044 84.4006 84.6871 82.333 84.747 80.0303C84.7619 79.3567 83.7157 79.3567 83.7007 80.0303Z" fill="#9164E8"/>
<path d="M96.2812 80.9478C96.2333 83.0439 94.5698 84.8001 92.4355 84.8001C91.4156 84.8001 90.4375 84.3941 89.7162 83.6718C88.9951 82.9493 88.5899 81.9695 88.5899 80.9478C88.5899 79.9262 88.9951 78.9464 89.7162 78.2239C90.4375 77.5015 91.4156 77.0957 92.4355 77.0957C94.5698 77.0957 96.2333 78.8428 96.2812 80.9478C96.2976 81.6201 97.3438 81.623 97.3273 80.9478C97.3275 79.938 97.016 78.9529 96.4358 78.1271C95.8555 77.3013 95.0347 76.6752 94.0857 76.3345C93.1367 75.994 92.1059 75.9553 91.1341 76.224C90.1622 76.4926 89.2971 77.0555 88.6568 77.8355C88.0167 78.6155 87.6327 79.5747 87.5574 80.5816C87.4821 81.5887 87.7193 82.5944 88.2364 83.4612C88.7536 84.3281 89.5254 85.0137 90.4464 85.4243C91.3675 85.8349 92.3925 85.9505 93.3817 85.7553C95.6849 85.3166 97.2751 83.2505 97.3273 80.9478C97.3438 80.2801 96.2976 80.2801 96.2812 80.9478Z" fill="#9164E8"/>
<path d="M112.422 80.0303C112.375 82.1264 110.711 83.8826 108.577 83.8826C107.557 83.8826 106.579 83.4766 105.858 82.7543C105.136 82.0319 104.731 81.052 104.731 80.0303C104.731 79.0087 105.136 78.0289 105.858 77.3065C106.579 76.584 107.557 76.1782 108.577 76.1782C110.711 76.1782 112.375 77.9269 112.422 80.0303C112.437 80.7041 113.485 80.707 113.469 80.0303C113.469 79.0205 113.157 78.0354 112.577 77.2096C111.997 76.3838 111.176 75.7577 110.227 75.4172C109.278 75.0765 108.247 75.0378 107.275 75.3065C106.304 75.5751 105.438 76.138 104.798 76.918C104.158 77.698 103.774 78.6572 103.699 79.6643C103.624 80.6712 103.861 81.677 104.378 82.5437C104.895 83.4107 105.667 84.0963 106.588 84.5069C107.509 84.9174 108.534 85.033 109.523 84.8378C111.826 84.4006 113.416 82.333 113.469 80.0303C113.485 79.3567 112.439 79.3567 112.422 80.0303Z" fill="#9164E8"/>
<path d="M76.863 93.3761C76.8137 95.472 75.1517 97.2282 73.0174 97.2282C71.9975 97.2282 71.0194 96.8224 70.2982 96.1C69.5769 95.3775 69.1719 94.3977 69.1719 93.3761C69.1719 92.3544 69.5769 91.3747 70.2982 90.6521C71.0194 89.9298 71.9975 89.5238 73.0174 89.5238C75.1517 89.5238 76.8137 91.2726 76.863 93.3761C76.878 94.0498 77.9241 94.0513 77.9093 93.3761C77.9093 92.3663 77.598 91.381 77.0177 90.5552C76.4374 89.7295 75.6166 89.1035 74.6677 88.7628C73.7187 88.4221 72.6877 88.3836 71.716 88.6522C70.7442 88.9209 69.8791 89.4837 69.2388 90.2638C68.5985 91.0438 68.2145 92.003 68.1392 93.0099C68.064 94.017 68.3011 95.0226 68.8183 95.8895C69.3354 96.7563 70.1073 97.4419 71.0283 97.8526C71.9493 98.2632 72.9744 98.3788 73.9635 98.1834C76.2667 97.7462 77.8495 95.6786 77.9093 93.3761C77.9241 92.7068 76.878 92.7068 76.863 93.3761Z" fill="#9164E8"/>
<path d="M95.9208 100.791C95.8715 102.887 94.208 104.645 92.0752 104.645C91.0683 104.625 90.1091 104.21 89.404 103.49C88.699 102.77 88.3039 101.801 88.3039 100.792C88.3039 99.7833 88.699 98.8146 89.404 98.0942C90.1091 97.3738 91.0683 96.9591 92.0752 96.9392C94.2095 96.9392 95.8715 98.688 95.9208 100.791C95.9358 101.465 96.9819 101.468 96.9671 100.791C96.9674 99.7812 96.6561 98.7955 96.0758 97.9692C95.4955 97.1431 94.6744 96.5166 93.725 96.1758C92.7757 95.8348 91.7443 95.7961 90.7721 96.0647C89.8 96.3335 88.9344 96.8966 88.2939 97.6769C87.6535 98.4572 87.2693 99.4168 87.194 100.424C87.1187 101.432 87.3562 102.438 87.8736 103.305C88.3911 104.172 89.1634 104.858 90.0849 105.268C91.0064 105.679 92.0319 105.794 93.0213 105.599C95.3245 105.162 96.9073 103.096 96.9671 100.791C96.9819 100.11 95.9358 100.11 95.9208 100.791Z" fill="#9164E8"/>
<path d="M47.9277 34.8791C47.817 34.921 47.7273 34.8133 47.8946 34.918C48.0005 34.9714 48.1092 35.0184 48.2205 35.0587C48.6361 35.2668 49.0381 35.4989 49.4326 35.743C50.7366 36.5609 51.9803 37.4716 53.1543 38.4677C56.5738 41.3378 59.581 44.7888 61.6539 48.7637C63.0264 51.3562 63.9 54.184 64.2292 57.0999C64.2995 57.7631 65.3471 57.7705 65.2755 57.0999C64.2995 47.8998 57.765 39.7568 50.1157 34.9419C49.6045 34.62 48.3311 33.611 47.6496 33.8745C47.0263 34.114 47.2969 35.1276 47.9277 34.885V34.8791Z" fill="#9164E8"/>
<path d="M41.4263 86.1911C41.6292 87.248 41.9188 88.2865 42.2917 89.2961C43.1454 91.7611 44.3284 94.099 45.8085 96.2459C47.7861 99.1256 50.3402 101.562 53.3084 103.399C57.151 105.751 61.5825 106.93 66.0543 107.217C72.5589 107.635 79.1067 106.277 85.2645 104.268C86.2703 103.94 87.2687 103.589 88.2626 103.22C88.8889 102.989 88.6183 101.975 87.9845 102.209C81.6355 104.539 74.9173 106.28 68.1064 106.235C63.5658 106.203 58.9895 105.311 54.9704 103.145C51.9229 101.494 49.2736 99.1943 47.209 96.4076C45.6574 94.3142 44.4076 92.0124 43.4964 89.57C43.1975 88.7736 42.9359 87.9636 42.7162 87.1417C42.6131 86.7555 42.5667 86.3303 42.4382 85.9544C42.4333 85.9368 42.4297 85.9188 42.4277 85.9006C42.3142 85.2374 41.3053 85.5172 41.4189 86.1791L41.4263 86.1911Z" fill="#9164E8"/>
<path d="M34.554 70.1638C35.3446 67.2848 34.6795 63.6931 31.6574 62.4685C29.429 61.5702 26.6909 61.7498 24.7196 60.1972C22.8289 58.7091 23.0127 55.7537 23.1159 53.6098C23.2376 51.1486 23.5771 48.7031 24.1306 46.3022C24.2801 45.6464 23.2728 45.3665 23.1218 46.0236C22.6791 47.985 22.3672 49.9736 22.1877 51.9764C21.9604 54.4033 21.6467 57.4619 22.917 59.6792C23.9707 61.5192 26.1214 62.1705 28.0525 62.6436C29.2974 62.943 30.7144 63.0509 31.8383 63.711C32.6771 64.2159 33.291 65.0232 33.5541 65.9673C33.9054 67.2481 33.9022 68.6003 33.5451 69.8793C33.3672 70.5307 34.376 70.8091 34.554 70.1594V70.1638Z" fill="#9164E8"/>
<path d="M92.9587 76.1604C92.9587 69.4233 93.2577 62.3551 95.6968 55.9922C97.5386 51.0947 101.135 47.0596 105.785 44.6738C108.924 43.0419 112.362 42.0597 115.814 41.3501C116.473 41.2154 116.195 40.2048 115.536 40.3395C109.743 41.5298 103.832 43.5868 99.5873 47.8912C95.528 52.0083 93.6462 57.6316 92.7644 63.2369C92.0933 67.5083 91.917 71.8426 91.9125 76.1604C91.9125 76.8356 92.9587 76.8356 92.9587 76.1604Z" fill="#9164E8"/>
<path d="M40.1288 91.7991C40.1601 92.0162 40.1766 91.6943 40.2095 91.5446C40.2767 91.2453 40.359 90.9459 40.4382 90.6464C40.6475 89.8754 40.8746 89.1073 41.1048 88.3422C41.4186 87.2952 41.7405 86.2517 42.0703 85.2117L41.302 85.526L47.6377 89.5175C48.2101 89.8784 48.7346 88.9711 48.1668 88.6192L41.8296 84.6218C41.7602 84.5825 41.6828 84.5594 41.6032 84.5543C41.5237 84.5493 41.4438 84.5622 41.3699 84.5922C41.296 84.6224 41.23 84.6688 41.1766 84.7281C41.1231 84.7874 41.0837 84.858 41.0615 84.9347C40.7017 86.0726 40.3529 87.2139 40.0152 88.3587C39.7881 89.1237 39.5668 89.8917 39.3575 90.6643C39.2394 91.1135 39.0586 91.6091 39.1274 92.0731C39.2216 92.738 40.2304 92.4549 40.1362 91.7947L40.1288 91.7991Z" fill="#9164E8"/>
<path d="M19.602 49.9075C20.3388 49.0198 21.27 48.2608 22.1055 47.4627C22.8348 46.774 23.5671 46.0873 24.3025 45.4027L23.4805 45.2964L26.0362 50.3867C26.3352 50.9855 27.2409 50.46 26.933 49.8582L24.3786 44.7679C24.2218 44.4549 23.7899 44.446 23.5567 44.6616C22.8213 45.3452 22.089 46.0319 21.3597 46.7217C20.5227 47.5122 19.593 48.2787 18.8561 49.1665C18.4287 49.6815 19.164 50.4256 19.5961 49.9151L19.602 49.9075Z" fill="#9164E8"/>
<path d="M49.6839 39.089C49.5838 38.1906 48.9755 37.228 48.6108 36.4166C48.2462 35.6052 47.8635 34.7696 47.4838 33.9447L47.2956 34.6619L52.6177 32.2664C53.2321 31.9909 52.7 31.0867 52.0903 31.3681L46.768 33.7636C46.493 33.8863 46.4691 34.2472 46.5796 34.4807C46.9175 35.2103 47.2517 35.9415 47.5826 36.674C47.8217 37.2055 48.0608 37.7386 48.291 38.276C48.3732 38.4676 48.4568 38.6607 48.5316 38.8569C48.557 38.9228 48.6587 39.2881 48.6378 39.0964C48.7109 39.7582 49.7587 39.7657 49.6839 39.0964V39.089Z" fill="#9164E8"/>
<path d="M113.297 47.2217C113.328 47.1168 113.272 47.2696 113.318 47.1707C113.364 47.0719 113.4 47.0031 113.442 46.9192C113.575 46.6542 113.717 46.3937 113.859 46.1333C114.234 45.437 114.62 44.7453 115.005 44.0552C115.538 43.1029 116.075 42.1548 116.617 41.2105C116.8 40.8871 116.617 40.5683 116.304 40.441L109.865 37.7791C109.244 37.5217 108.969 38.5277 109.587 38.7897L116.026 41.4516L115.714 40.6805C115.148 41.6727 114.586 42.6672 114.028 43.6645C113.451 44.6975 112.636 45.8068 112.288 46.9492C112.091 47.5944 113.1 47.8714 113.297 47.2276V47.2217Z" fill="#9164E8"/>
<path d="M124.131 48.0539L118.546 54.4003C118.098 54.9048 118.845 55.6489 119.293 55.1489L124.879 48.8025C125.327 48.2978 124.58 47.5538 124.139 48.0539H124.131Z" fill="#D64141"/>
<path d="M118.092 49.1531L124.529 54.784C125.034 55.2255 125.777 54.4845 125.269 54.0354L118.831 48.4045C118.326 47.9629 117.584 48.704 118.084 49.1531H118.092Z" fill="#D64141"/>
<path d="M125.086 61.1574L119.5 67.5038C119.051 68.0083 119.798 68.7524 120.247 68.2524L125.834 61.9059C126.282 61.4013 125.535 60.6573 125.094 61.1574H125.086Z" fill="#D64141"/>
<path d="M119.045 62.2562L125.482 67.887C125.989 68.3286 126.732 67.5876 126.222 67.1384L119.785 61.5075C119.28 61.066 118.537 61.807 119.038 62.2562H119.045Z" fill="#D64141"/>
<path d="M109.505 60.0852L103.918 66.4315C103.47 66.9362 104.217 67.6803 104.658 67.1801L110.245 60.8338C110.693 60.3292 109.946 59.5852 109.498 60.0926L109.505 60.0852Z" fill="#D64141"/>
<path d="M103.456 61.1842L109.895 66.8151C110.4 67.2642 111.143 66.5156 110.633 66.0739L104.196 60.4432C103.691 59.994 102.948 60.7426 103.456 61.1916V61.1842Z" fill="#D64141"/>
<path d="M82.0556 61.5886L76.4746 67.9349C76.0262 68.4395 76.7736 69.1835 77.2146 68.6835L82.8014 62.3372C83.2496 61.8326 82.5023 61.0884 82.0615 61.5886H82.0556Z" fill="#D64141"/>
<path d="M76.0146 62.6874L82.4533 68.3183C82.9584 68.76 83.7012 68.0188 83.193 67.5697L76.7543 61.9403C76.2492 61.4912 75.5064 62.2398 76.0146 62.68V62.6874Z" fill="#D64141"/>
<path d="M94.3366 32.6977L88.7513 39.0456C88.3029 39.5486 89.0502 40.2928 89.4986 39.7868L95.0839 33.4388C95.5323 32.9357 94.785 32.1917 94.3442 32.6903L94.3366 32.6977Z" fill="#D64141"/>
<path d="M88.297 33.7983L94.7342 39.4276C95.2394 39.8768 95.9822 39.1282 95.4741 38.679L89.0368 33.0497C88.5316 32.6005 87.7888 33.3492 88.2895 33.7909L88.297 33.7983Z" fill="#D64141"/>
<path d="M81.2231 44.9162L75.6377 51.2626C75.1893 51.7671 75.9367 52.5112 76.3776 52.0112L81.9628 45.6647C82.4112 45.1601 81.6639 44.4161 81.2231 44.9162Z" fill="#D64141"/>
<path d="M75.1832 46.0149L81.6204 51.6458C82.1256 52.0949 82.8684 51.3463 82.3677 50.8972L75.9306 45.2663C75.4254 44.8248 74.6824 45.5658 75.1907 46.0149H75.1832Z" fill="#D64141"/>
<path d="M68.2784 61.0792L62.6917 67.4257C62.2433 67.9303 62.9906 68.6743 63.4314 68.1743L69.0183 61.8278C69.4667 61.3233 68.7193 60.5792 68.2709 61.0792H68.2784Z" fill="#D64141"/>
<path d="M62.2369 62.1786L68.6756 67.8093C69.1807 68.251 69.9235 67.5098 69.4155 67.0608L62.9766 61.43C62.4715 60.9882 61.7287 61.7294 62.2293 62.1786H62.2369Z" fill="#D64141"/>
<path d="M52.9586 61.5148L47.3719 67.8613C46.9235 68.3658 47.6709 69.1099 48.1117 68.6099L53.6985 62.2634C54.1469 61.7588 53.3996 61.0148 52.9512 61.5148H52.9586Z" fill="#D64141"/>
<path d="M46.9187 62.6141L53.356 68.2448C53.8612 68.6865 54.6039 67.9455 54.0957 67.4964L47.6571 61.8655C47.1519 61.4238 46.4091 62.165 46.9187 62.6141Z" fill="#D64141"/>
<path d="M54.2229 49.0946L48.636 55.441C48.1876 55.9455 48.9349 56.6897 49.3833 56.1822L54.97 49.8357C55.4184 49.3311 54.6713 48.5871 54.2229 49.0946Z" fill="#D64141"/>
<path d="M48.182 50.1878L54.6209 55.8186C55.126 56.2676 55.8688 55.5192 55.3606 55.0775L48.922 49.4466C48.4168 48.9976 47.674 49.7461 48.1746 50.1878H48.182Z" fill="#D64141"/>
<path d="M36.7737 49.7534L31.1883 56.1013C30.7399 56.6043 31.4873 57.3483 31.9357 56.8499L37.5224 50.502C37.9708 49.9988 37.2236 49.2548 36.7752 49.7608L36.7737 49.7534Z" fill="#D64141"/>
<path d="M30.7401 50.8538L37.1788 56.483C37.6839 56.9321 38.4267 56.1835 37.9185 55.7419L31.4798 50.1126C30.9747 49.6635 30.2319 50.4121 30.7325 50.8612L30.7401 50.8538Z" fill="#D64141"/>
<path d="M48.388 72.465H55.1241C55.7967 72.465 55.7981 71.417 55.1241 71.417H48.388C47.7155 71.417 47.714 72.465 48.388 72.465Z" fill="#9164E8"/>
<path d="M63.298 71.7466H70.0341C70.7068 71.7466 70.7082 70.6987 70.0341 70.6987H63.298C62.6255 70.6987 62.624 71.7466 63.298 71.7466Z" fill="#9164E8"/>
<path d="M52.3592 75.4205L52.1022 71.9412C52.0528 71.2719 51.0066 71.2673 51.056 71.9412L51.3129 75.4205C51.3623 76.0881 52.4086 76.0942 52.3592 75.4205Z" fill="#9164E8"/>
<path d="M126.508 80.0303C126.46 82.1264 124.796 83.8826 122.662 83.8826C121.642 83.8826 120.664 83.4766 119.943 82.7543C119.222 82.0319 118.817 81.052 118.817 80.0303C118.817 79.0087 119.222 78.0289 119.943 77.3065C120.664 76.584 121.642 76.1782 122.662 76.1782C124.796 76.1782 126.46 77.9269 126.508 80.0303C126.524 80.7041 127.57 80.707 127.554 80.0303C127.554 79.0205 127.243 78.0354 126.662 77.2096C126.082 76.3838 125.261 75.7577 124.312 75.4172C123.363 75.0765 122.332 75.0378 121.361 75.3065C120.389 75.5751 119.524 76.138 118.884 76.918C118.243 77.698 117.859 78.6572 117.784 79.6643C117.709 80.6712 117.946 81.677 118.463 82.5437C118.98 83.4107 119.752 84.0963 120.673 84.5069C121.594 84.9174 122.619 85.033 123.608 84.8378C125.911 84.4006 127.494 82.333 127.554 80.0303C127.57 79.3567 126.524 79.3567 126.508 80.0303Z" fill="#9164E8"/>
<path d="M119.252 72.4952H125.988C126.66 72.4952 126.662 71.4473 125.988 71.4473H119.252C118.579 71.4473 118.578 72.4952 119.252 72.4952Z" fill="#9164E8"/>
<path d="M123.221 75.4493L122.966 71.9699C122.916 71.3008 121.87 71.2948 121.92 71.9699L122.175 75.4493C122.224 76.1171 123.272 76.1231 123.221 75.4493Z" fill="#9164E8"/>
<path d="M105.131 72.4952H111.865C112.54 72.4952 112.541 71.4473 111.865 71.4473H105.131C104.457 71.4473 104.457 72.4952 105.131 72.4952Z" fill="#9164E8"/>
<path d="M109.1 75.4493L108.845 71.9699C108.796 71.3008 107.748 71.2948 107.799 71.9699L108.054 75.4493C108.104 76.1171 109.15 76.1231 109.1 75.4493Z" fill="#9164E8"/>
<path d="M67.1903 75.0133L66.9331 71.534C66.8838 70.8647 65.8377 70.8588 65.8869 71.534L66.144 75.0133C66.1919 75.6811 67.2395 75.687 67.1903 75.0133Z" fill="#9164E8"/>
<path d="M76.2637 71.8962H82.9998C83.6723 71.8962 83.6738 70.8481 82.9998 70.8481H76.2637C75.5896 70.8481 75.5896 71.8962 76.2637 71.8962Z" fill="#9164E8"/>
<path d="M80.1544 75.1679L79.8987 71.6885C79.8494 71.0209 78.8018 71.0149 78.8525 71.6885L79.1081 75.1679C79.1575 75.8372 80.2037 75.8432 80.1544 75.1679Z" fill="#9164E8"/>
<path fill-rule="evenodd" clip-rule="evenodd" d="M232.018 97.5932L224.455 118.688L206.544 126.193L199.19 145.299L243.324 145.772L273.246 97.9644L275.101 58.4306L258.411 43.0908L233.066 46.0117L222.26 64.8295L232.018 97.5932Z" fill="#2F110F"/>
<path fill-rule="evenodd" clip-rule="evenodd" d="M234.094 97.532L226.369 120.287L207.043 127.46L200.963 143.576L241.517 143.36L271.318 97.3629L273.105 59.2484L257.7 45.0913L234.346 48.4105L224.884 65.6666L234.094 97.532Z" fill="#C93C27"/>
<path fill-rule="evenodd" clip-rule="evenodd" d="M234.093 97.5323L226.368 120.288L207.042 127.46L204.347 134.615L228.812 134.323L250.239 99.9172L239.555 67.7404L249.005 46.3267L234.346 48.4106L224.884 65.6669L234.093 97.5323Z" fill="#AF3225"/>
<path fill-rule="evenodd" clip-rule="evenodd" d="M241.64 143.49L271.318 97.3629L273.105 59.2484L257.698 45.0913L264.127 62.3429L264.972 97.9992L238.845 140.449L202.276 140.089L200.963 143.576L241.64 143.49Z" fill="#EB6435"/>
<path fill-rule="evenodd" clip-rule="evenodd" d="M234.345 48.4105L227.625 60.6661L239.556 67.7401L264.173 64.68L270.546 56.8933L257.7 45.0913L234.345 48.4105Z" fill="#401714"/>
<path fill-rule="evenodd" clip-rule="evenodd" d="M229.774 82.5938L226.798 72.3128L240.162 80.1518L264.408 76.3401L272.575 70.6523L271.809 86.9669L264.678 89.4911L240.557 89.527L229.774 82.5938Z" fill="#401714"/>
<path fill-rule="evenodd" clip-rule="evenodd" d="M234.094 97.5323L232.08 90.5391L244.081 100.218L262.674 101.739L271.318 97.3631L263.647 109.288L256.929 111.067L241.436 106.316L233.293 99.8934L234.094 97.5323Z" fill="#401714"/>
<path fill-rule="evenodd" clip-rule="evenodd" d="M251.863 127.594L259.14 116.29L251.915 119.226L241.172 114.484L230.761 107.349L228.758 113.107L236.556 121.895L246.922 127.318L251.863 127.594Z" fill="#401714"/>
<path fill-rule="evenodd" clip-rule="evenodd" d="M241.642 143.489L246.821 136.075L242.267 134.896L232.279 128.77L226.37 120.287L222.875 121.587L227.996 134.321L234.499 140.413L239.142 143.497L241.642 143.489Z" fill="#401714"/>
<path d="M210.097 188.039C240.247 188.039 264.69 184.988 264.69 181.225C264.69 177.461 240.247 174.409 210.097 174.409C179.946 174.409 155.503 177.461 155.503 181.225C155.503 184.988 179.946 188.039 210.097 188.039Z" fill="#D3D3D3" stroke="white" stroke-miterlimit="10"/>
<path fill-rule="evenodd" clip-rule="evenodd" d="M161.064 73.0322L142.181 83.8731L120.899 79.6033H112.084L111.565 85.5769L106.119 84.0184L102.23 90.9023L113.121 102.071L122.236 99.7834L128.19 97.915L144.223 105.643L165.664 101.48L164.553 80.2201L161.064 73.0322Z" fill="#771213"/>
<path fill-rule="evenodd" clip-rule="evenodd" d="M111.78 83.0949L76.1102 50.123L74.9384 52.0455L106.531 83.7358L111.565 85.1879L111.78 83.0949Z" fill="#AAAAAA"/>
<path fill-rule="evenodd" clip-rule="evenodd" d="M125.696 96.2925L115.86 87.3965L122.585 99.8647L129.913 106.973L134.124 103.75L125.696 96.2925Z" fill="#AAAAAA"/>
<path fill-rule="evenodd" clip-rule="evenodd" d="M145.253 82.2715L152.265 89.3381L152.274 103.655L156.087 103.134L165.164 101.422L160.832 74.1494L145.253 82.2715Z" fill="#CA3C27"/>
<path fill-rule="evenodd" clip-rule="evenodd" d="M163.591 136.877L162.195 150.689L171.398 169.345L163.297 172.027L159.583 179.28L179.048 184.064L191.564 177.965L197.229 165.121L196.643 161.548L205.107 174.832L205.528 177.681L195.526 182.333L194.131 189.651L211.185 193.094L223.052 188.876L229.418 170.559L224.686 155.406L231.232 126.488L215.48 104.019L208.781 79.1483L198.91 68.8418L160.841 70.4783L156.045 85.3181L160.864 101.487L163.591 136.877Z" fill="#2F110F"/>
<path fill-rule="evenodd" clip-rule="evenodd" d="M184.144 65.231L162.517 71.8184L158.238 85.3183L162.717 99.8047L164.259 120.027L165.997 136.707L164.83 150.387L174.343 170.82L164.601 173.461L162.193 178.163L178.516 181.686L189.571 177.073L195.525 164.869L193.077 152.45L177.141 143.708L168.808 134.646L178.038 142.641L193.34 150.225L193.116 135.151L196.115 157.401L206.679 174.244L207.309 178.529L197.535 184.348L196.811 187.983L210.489 190.452L220.766 187.512L226.432 170.802L221.415 157.06L229.418 127.203L212.174 105.513L206.468 80.1874L197.111 69.4738L184.144 65.231Z" fill="#CA3C27"/>
<path fill-rule="evenodd" clip-rule="evenodd" d="M196.113 157.401L206.678 174.245L207.308 178.53L197.458 183.309L196.81 187.984L210.487 190.452L220.765 187.512L227.602 170.515L222.546 155.904L223.981 147.483L220.404 154.297L218.312 169.195L209.644 168.212L196.113 157.401ZM164.83 150.387L174.343 170.82L164.601 173.461L162.193 178.163L178.515 181.686L189.576 177.073L195.53 164.869L180.948 164.091L164.83 150.387Z" fill="#771213"/>
<path fill-rule="evenodd" clip-rule="evenodd" d="M181.068 72.2333L171.054 72.7319L162.127 71.1479L157.59 85.1298L162.792 101.299L164.224 119.877L168.808 134.657L178.038 142.653L193.339 150.239L193.115 135.163L193.614 139.078L208.154 127.882L200.182 99.8064L181.068 72.2333Z" fill="#771213"/>
<path fill-rule="evenodd" clip-rule="evenodd" d="M166.927 11.3934L185.205 12.362L211.638 7.39144L220.341 9.6955L214.188 24.9141L217.714 30.0284L219.046 40.8634L211.326 47.9824L217.365 59.3442L211.967 57.8979L214.635 65.255L189.179 72.2077L174.317 73.3636L155.838 70.9456L130.912 62.373L134.078 55.2166L128.593 56.2885L135.396 45.3682L128.612 37.911L131.205 26.6118L155.494 1.6798C158.719 1.15431 160.426 0.618316 164.212 0" fill="#2E100D"/>
<path fill-rule="evenodd" clip-rule="evenodd" d="M193.295 15.7274C215.342 -8.90523 208.676 50.0557 208.338 47.1138L207.513 47.3084L207.03 46.6138C201.574 38.7955 187.331 23.5725 193.295 15.7274Z" fill="#2E100D"/>
<path fill-rule="evenodd" clip-rule="evenodd" d="M155.598 14.4312C133.051 9.576 137.196 54.3169 138.44 44.7083L139.249 44.9582L139.781 44.2981C145.76 36.8751 161.004 22.6671 155.598 14.4312Z" fill="#2E100D"/>
<path fill-rule="evenodd" clip-rule="evenodd" d="M184.959 14.4358L191.564 15.8775L198.403 28.6303L201.382 25.6823L200.549 30.8265L205.246 32.2474L201.248 33.9855L212.957 56.0132L208.384 54.7886L211.705 63.9406L189.327 70.4622L172.526 71.142L155.808 69.3095L133.932 61.2637L137.872 52.3616L133.225 53.2689L146.415 32.0977L142.545 30.0901L147.331 28.9956L146.852 23.805L149.622 26.9505L155.646 15.6469L156.68 17.3762L164.391 13.7275L184.959 14.4358Z" fill="#CA3C27"/>
<path fill-rule="evenodd" clip-rule="evenodd" d="M160.774 52.5968L148.513 45.8656L149.803 37.0474L143.835 55.4263L150.801 67.468L155.807 69.3096L174.509 72.0972L189.327 70.4623L198.138 57.3952L192.3 39.7527L187.053 50.5203L180.809 53.287L170.907 49.6309L160.774 52.5968Z" fill="#771213"/>
<path fill-rule="evenodd" clip-rule="evenodd" d="M198.533 28.5013L201.381 25.6821L200.548 30.8263L205.246 32.2473L201.248 33.9853L212.957 56.013L208.384 54.7884L211.705 63.9405L201.463 66.9258L208.37 61.5405L197.059 26.0879L198.533 28.5013Z" fill="#EB6337"/>
<path fill-rule="evenodd" clip-rule="evenodd" d="M168.62 47.7382L175.703 53.5081L181.208 53.5471L184.17 60.133L176.651 70.721L174.248 72.0579L162.103 70.2194L151.374 61.5419L151.094 54.1743L155.046 51.1966L161.736 47.5L168.62 47.7382Z" fill="#FDE6D5"/>
<path fill-rule="evenodd" clip-rule="evenodd" d="M168.957 66.7368L176.531 58.4321L184.17 60.1329L176.651 70.7208L174.246 72.0576L162.103 70.2191L151.372 61.5417L151.199 56.941L151.471 56.8301L152.602 59.1088L153.053 60.7392L158.851 66.0645L168.957 66.7368Z" fill="#EEBC92"/>
<path fill-rule="evenodd" clip-rule="evenodd" d="M168.947 35.7399L168.731 26.2119L175.719 25.3018L175.114 34.2292L168.947 35.7399Z" fill="#EEBC92"/>
<path fill-rule="evenodd" clip-rule="evenodd" d="M180.633 30.4013L177.332 26.8965L176.79 34.222L179.682 34.0409L180.633 30.4013Z" fill="#EEBC92"/>
<path fill-rule="evenodd" clip-rule="evenodd" d="M192.088 22.4213L191.561 15.8773L210.985 10.2734L217.159 11.7197L210.838 25.6583L215.088 30.5959L210.814 40.3783L215.698 35.3193L216.608 40.224L209.837 46.4672L203.362 37.9589L209.048 33.2249L205.724 26.7077L208.956 16.7022L197.058 26.0879L192.088 22.4213Z" fill="#FDE6D5"/>
<path fill-rule="evenodd" clip-rule="evenodd" d="M208.955 16.7021L197.058 26.0833L192.088 22.4169L196.928 23.4303L208.955 16.7021ZM209.838 46.4686L203.367 37.9587L209.046 33.2247L205.722 26.7077L208.952 16.7021L207.198 26.763L211.093 31.4552L210.81 40.3782L209.838 46.4686Z" fill="#EEBC92"/>
<path fill-rule="evenodd" clip-rule="evenodd" d="M191.561 15.8773L184.959 14.4356L210.986 10.2734L191.561 15.8773Z" fill="#771213"/>
<path fill-rule="evenodd" clip-rule="evenodd" d="M159.446 49.4555L153.38 47.3236L152.265 45.8325L155.588 42.0596L159.351 43.1691L161.395 47.8476L159.446 49.4555Z" fill="#2E100D"/>
<path fill-rule="evenodd" clip-rule="evenodd" d="M156.289 43.3711L159.291 44.4056L160.199 47.6485L158.706 49.1966L154.763 47.8102L154.169 45.8264L156.289 43.3711Z" fill="#771213"/>
<path fill-rule="evenodd" clip-rule="evenodd" d="M156.909 44.2769L159.13 44.9237L159.771 47.0512L158.141 48.5977L155.992 48.0587L155.302 45.9179L156.909 44.2769Z" fill="#2E100D"/>
<path fill-rule="evenodd" clip-rule="evenodd" d="M158.033 43.6406L159.157 44.0013L159.524 45.2935L158.597 46.1722L157.375 45.8654L156.983 44.6497L158.033 43.6406Z" fill="#FDE6D5"/>
<path fill-rule="evenodd" clip-rule="evenodd" d="M159.352 43.1393L161.188 48.0573L162.584 46.5258L160.844 41.6556L154.644 39.877L150.55 44.2261L152.265 45.8326L155.355 42.3247L159.352 43.1393Z" fill="#FDE6D5"/>
<path fill-rule="evenodd" clip-rule="evenodd" d="M181.432 46.8177L177.142 43.0044L172.811 44.2965L170.484 49.0349L174.073 50.4184L180.594 47.8223L181.432 46.8177Z" fill="#2E100D"/>
<path fill-rule="evenodd" clip-rule="evenodd" d="M197.103 58.928L189.327 70.462L201.463 66.9257L204.893 58.1853L201.527 54.0876L204.818 54.1445L192.3 39.751L197.103 58.928Z" fill="#FDE6D5"/>
<path fill-rule="evenodd" clip-rule="evenodd" d="M168.622 47.7385L168.385 43.4641L166.23 43.3907L164.076 43.3159L161.736 47.5005L168.622 47.7385Z" fill="#EB6337"/>
<path fill-rule="evenodd" clip-rule="evenodd" d="M176.84 44.0225L173.269 45.0435L172.318 48.2908L174.548 50.2087L178.703 48.5693L179.507 46.4941L176.84 44.0225Z" fill="#771213"/>
<path fill-rule="evenodd" clip-rule="evenodd" d="M176.442 44.7617L174.093 45.4325L173.468 47.5705L175.244 49.0991L177.517 48.5361L178.196 46.3877L176.442 44.7617Z" fill="#2E100D"/>
<path fill-rule="evenodd" clip-rule="evenodd" d="M176.731 44.2573L175.542 44.6302L175.187 45.9267L176.197 46.7965L177.49 46.4777L177.876 45.2544L176.731 44.2573Z" fill="#FDE6D5"/>
<path fill-rule="evenodd" clip-rule="evenodd" d="M165.613 22.357L183.476 14.3577L174.47 14.0478L165.465 13.7363L165.613 22.357Z" fill="#EB6337"/>
<path fill-rule="evenodd" clip-rule="evenodd" d="M189.327 70.4622L192.209 66.1895L199.308 63.3088L202.054 58.25L201.527 54.0879L204.893 58.1856L201.463 66.926L189.327 70.4622Z" fill="#EEBC92"/>
<path fill-rule="evenodd" clip-rule="evenodd" d="M175.719 25.3018L168.731 26.2104L168.917 34.4687L172.135 33.3099L175.719 25.3018Z" fill="#FDE6D5"/>
<path fill-rule="evenodd" clip-rule="evenodd" d="M180.634 30.4013L177.332 26.8965L178.19 32.8776L180.634 30.4013Z" fill="#FDE6D5"/>
<path fill-rule="evenodd" clip-rule="evenodd" d="M150.967 24.4245L149.622 26.9502L146.852 23.8047L147.331 28.9953L142.545 30.0898L146.415 32.0974L133.225 53.2686L137.872 52.3613L133.932 61.2635L143.944 64.945L137.422 59.0971L150.967 24.4245Z" fill="#EB6337"/>
<path fill-rule="evenodd" clip-rule="evenodd" d="M163.326 35.2866L165.399 25.9848L158.721 23.7241L157.573 32.5962L163.326 35.2866Z" fill="#EEBC92"/>
<path fill-rule="evenodd" clip-rule="evenodd" d="M153.024 29.6257L156.945 26.835L156.045 34.1261L153.245 33.382L153.024 29.6257Z" fill="#EEBC92"/>
<path fill-rule="evenodd" clip-rule="evenodd" d="M156.68 17.376L164.391 13.7289L162.581 2.96289L156.68 17.376Z" fill="#771213"/>
<path fill-rule="evenodd" clip-rule="evenodd" d="M143.835 55.4261L150.801 67.4678L141.019 63.4031L137.644 52.8751L139.754 50.2939L136.466 50.1232L149.94 36.625L143.835 55.4261Z" fill="#FDE6D5"/>
<path fill-rule="evenodd" clip-rule="evenodd" d="M150.801 67.4679L148.22 63.0049L142.929 60.4223L140.261 53.2344L139.754 50.2939L137.644 52.8767L141.189 63.9331L150.801 67.4679Z" fill="#EEBC92"/>
<path fill-rule="evenodd" clip-rule="evenodd" d="M158.721 23.7241L165.399 25.9848L163.602 34.047L160.673 32.2788L158.721 23.7241Z" fill="#FDE6D5"/>
<path fill-rule="evenodd" clip-rule="evenodd" d="M153.024 29.6257L156.945 26.835L154.937 32.5332L153.024 29.6257Z" fill="#FDE6D5"/>
<path fill-rule="evenodd" clip-rule="evenodd" d="M156.68 17.376L158.117 13.8652L162.583 2.96289L156.322 3.98245L137.417 23.1296L132.841 27.7647L136.435 37.8182L131.909 32.4344L130.665 37.2672L136.991 43.961L144.035 35.9167L138.686 30.804L142.448 24.5294L154.072 13.705L150.967 24.4246L156.68 17.376Z" fill="#FDE6D5"/>
<path fill-rule="evenodd" clip-rule="evenodd" d="M154.07 13.7046L150.967 24.4243L156.678 17.3757L153.745 19.2051L154.07 13.7046ZM136.989 43.9607L144.03 35.9164L138.68 30.8036L142.443 24.5291L154.067 13.7046L140.965 24.4842L136.758 28.8977L138.402 37.6562L136.989 43.9607Z" fill="#EEBC92"/>
<path fill-rule="evenodd" clip-rule="evenodd" d="M172.619 44.6874L170.396 49.2146L168.708 47.8418L171.514 42.7904L177.265 40.7168L183.214 45.1919L181.431 46.8177L177.141 43.0045L172.619 44.6874Z" fill="#FDE6D5"/>
<path fill-rule="evenodd" clip-rule="evenodd" d="M159.993 50.5677L164.547 49.9374L168.158 47.7216L161.736 47.5L155.492 49.626L159.993 50.5677Z" fill="#EEBC92"/>
<path fill-rule="evenodd" clip-rule="evenodd" d="M159.999 50.43L164.547 49.9373L165.112 51.1575L160.65 54.7491L160.529 57.176L161.167 57.8094L166.955 59.5326L174.488 57.5474L175.349 55.5637L176.089 55.7403L176.531 58.4322L174.835 58.4876L166.52 61.2378L159.689 59.1418L158.296 59.5027L154.707 60.0417L153.657 58.8799L152.602 59.1089L151.47 56.8302L152.184 56.2358L154.227 58.483L158.326 57.7106L159.004 57.1237L159.051 54.6937L154.847 50.8042L155.493 49.626L159.999 50.43Z" fill="#2E100D"/>
<path d="M160.788 71.5967C155.285 74.9083 142.815 81.9165 142.119 82.3177C137.532 81.623 121.565 78.3532 121.565 78.3532L111.073 78.9012L110.802 85.1893L121.785 88.471L122.477 87.1431C122.477 87.1431 115.587 85.628 112.314 84.797C112.463 83.1143 112.693 81.8805 112.84 80.1963C114.445 80.1963 121.567 80.0331 121.567 80.0331L142.152 84.032C142.152 84.032 148.525 80.8355 150.454 79.7262C153.792 77.8084 157.179 75.9668 160.476 73.9681L160.661 73.8633C161.244 73.5264 160.788 71.5967 160.788 71.5967Z" fill="#2E100D"/>
<path d="M123.164 99.5245L117.972 90.103C117.274 88.8364 116.664 87.408 115.836 86.2253C115.572 85.848 115.209 85.8031 114.79 85.6893L111.916 84.9048C110.043 84.3928 105.382 83.002 105.382 83.002L101.298 91.2498L112.817 103.091C112.817 103.091 121.238 101.404 123.199 100.947C123.634 100.845 123.366 99.8928 123.164 99.5245ZM106.604 84.4841V84.4737C106.604 84.4737 106.613 84.4722 106.604 84.4841ZM113.33 101.33L104.081 91.8441L103.052 90.7961C103.55 89.8689 104.054 88.9442 104.566 88.0219C104.991 87.2509 105.419 86.4798 105.858 85.7164C106.021 85.4318 106.186 85.1458 106.358 84.866L106.398 84.803L114.768 87.0877C116.869 90.9015 118.97 94.7142 121.07 98.5259C121.235 98.8254 121.399 99.1248 121.562 99.4242L113.33 101.33Z" fill="#2E100D"/>
<path d="M161.603 101.281L146.237 104.534L144.303 104.943C139.753 102.795 127.115 96.6802 127.115 96.6802L128.346 98.938L144.244 106.695L162.103 103.289C162.103 103.289 162.448 101.103 161.603 101.281Z" fill="#2E100D"/>
<path d="M122.209 100.234L129.533 107.344C129.682 107.494 129.981 107.566 130.168 107.427L134.378 104.202C134.631 104.009 134.757 103.631 134.485 103.38L118.492 88.5896L116.23 86.4935C115.736 86.0444 114.993 86.7751 115.49 87.2421L131.491 102.031L133.754 104.127L133.858 103.304L129.648 106.527L130.282 106.609L122.958 99.4994C122.474 99.0306 121.734 99.7703 122.218 100.24L122.209 100.234Z" fill="#2E100D"/>
<path d="M112.149 82.7255L100.034 71.5269L80.8719 53.814L76.4747 49.7536C76.2027 49.5036 75.8605 49.5875 75.6527 49.86L74.1895 51.7824C74.1311 51.8822 74.1073 51.9987 74.1218 52.1135C74.1365 52.2283 74.1886 52.3351 74.2702 52.4172L85.2226 63.3015L102.69 80.658L106.71 84.6539C107.19 85.1284 107.93 84.3889 107.45 83.9053L96.5023 73.0285L79.035 55.6719L75.0145 51.676L75.0968 52.3109L76.5614 50.3885L75.7395 50.4948L87.8546 61.6935L107.017 79.4063L111.409 83.4666C111.903 83.9232 112.645 83.1837 112.157 82.7255H112.149Z" fill="#2E100D"/>
<path fill-rule="evenodd" clip-rule="evenodd" d="M197.511 69.9321L194.865 70.6553L185.864 79.1487L199.772 86.868L206.12 106.839L220.029 127.398L229.418 127.203L215.115 108.397L212.089 100.449L206.47 80.1876L197.511 69.9321Z" fill="#EB6337"/>
<path fill-rule="evenodd" clip-rule="evenodd" d="M150.604 79.6665L156.801 82.9826L159.726 74.1494L150.604 79.6665Z" fill="#EB6337"/>
<path fill-rule="evenodd" clip-rule="evenodd" d="M183.387 94.3849L197.908 128.072L195.106 133.681L197.877 138.274L198.162 142.622L202.052 145.98L213.963 141.658L218.759 132.064L214.791 124.858L216.985 113.706L212.088 100.838L200.42 82.1368L185.864 79.1484L183.387 94.3849Z" fill="#CA3C27"/>
<path fill-rule="evenodd" clip-rule="evenodd" d="M189.755 109.36L197.908 128.073L195.106 133.681L197.877 138.274L198.162 142.622L202.052 145.981L213.963 141.658L218.759 132.064L214.791 124.858L216.985 113.706L212.573 101.176L204.279 95.3779L192.399 97.2389L189.755 109.36Z" fill="#771213"/>
<path fill-rule="evenodd" clip-rule="evenodd" d="M217.452 112.273L217.803 113.685L215.63 124.726L219.66 132.046L214.534 142.3L201.886 146.89L197.388 143.008L197.094 138.521L194.196 133.717L197.028 128.048L194.294 121.706L183.387 94.3848L195.76 121.072L198.787 128.098L196.018 133.643L198.663 138.027L198.937 142.234L202.222 145.068L213.392 141.014L217.856 132.082L213.951 124.988L216.168 113.725L215.903 112.659L209.665 84.2686L217.452 112.273Z" fill="#2E100D"/>
<path fill-rule="evenodd" clip-rule="evenodd" d="M168.103 33.12L167.367 39.2029L164.247 38.9963L165.101 32.3849L147.719 30.4775L143.989 50.6726L153.017 52.7251L155.193 51.1248L147.61 49.0003L150.55 33.6215L162.23 35.0229L161.697 47.5001L163.425 47.5585L164.14 41.0968L167.085 41.3019L166.569 47.6678L168.62 47.7382L170.103 35.7863L186.32 37.3404L185.498 51.2595L173.16 51.3987L175.494 53.5755L187.93 54.0876L189.285 34.638L168.103 33.12Z" fill="#2E100D"/>
<path fill-rule="evenodd" clip-rule="evenodd" d="M199.616 188.826L201.536 183.681L200.812 188.876L199.616 188.826Z" fill="#2E100D"/>
<path fill-rule="evenodd" clip-rule="evenodd" d="M205.255 189.929L207.174 184.787L206.453 189.981L205.255 189.929Z" fill="#2E100D"/>
<path fill-rule="evenodd" clip-rule="evenodd" d="M166.438 179.304L168.429 174.37L167.633 179.579L166.438 179.304Z" fill="#2E100D"/>
<path fill-rule="evenodd" clip-rule="evenodd" d="M172.294 180.506L174.285 175.57L173.489 180.782L172.294 180.506Z" fill="#2E100D"/>
<path fill-rule="evenodd" clip-rule="evenodd" d="M119.071 94.0885L114.45 95.7234L118.464 93.0435L119.071 94.0885Z" fill="#2E100D"/>
<path fill-rule="evenodd" clip-rule="evenodd" d="M200.764 135.048L201.298 139.93L199.61 135.401L200.764 135.048Z" fill="#2E100D"/>
<path fill-rule="evenodd" clip-rule="evenodd" d="M115.152 87.5819L109.866 90.4818L114.255 86.4561L115.152 87.5819Z" fill="#2E100D"/>
</svg>
