<?xml version="1.0" encoding="utf-8"?>
<!-- Generator: Adobe Illustrator 26.0.1, SVG Export Plug-In . SVG Version: 6.00 Build 0)  -->
<svg version="1.1" id="Layer_1" width="1em" height="1em" xmlns="http://www.w3.org/2000/svg" xmlns:xlink="http://www.w3.org/1999/xlink" x="0px" y="0px"
	 viewBox="0 0 1062 930" style="enable-background:new 0 0 1062 930;" xml:space="preserve">
<style type="text/css">
	.st0{clip-path:url(#SVGID_00000133505544249623230230000012426441310995670968_);}
	.st1{opacity:0.2;fill-rule:evenodd;clip-rule:evenodd;fill:#300500;enable-background:new    ;}
	.st2{fill-rule:evenodd;clip-rule:evenodd;fill:#300500;}
	.st3{fill-rule:evenodd;clip-rule:evenodd;fill:#CC3805;}
	.st4{fill-rule:evenodd;clip-rule:evenodd;fill:#ED6338;}
	.st5{fill-rule:evenodd;clip-rule:evenodd;fill:#780500;}
	.st6{fill-rule:evenodd;clip-rule:evenodd;fill:#401714;}
	.st7{fill-rule:evenodd;clip-rule:evenodd;fill:#FFE8D6;}
	.st8{fill-rule:evenodd;clip-rule:evenodd;fill:#F0BD94;}
</style>
<g>
	<defs>
		<rect id="SVGID_1_" width="1062" height="930"/>
	</defs>
	<clipPath id="SVGID_00000101071175652302476850000003017670362694487460_">
		<use xlink:href="#SVGID_1_"  style="overflow:visible;"/>
	</clipPath>
	<g style="clip-path:url(#SVGID_00000101071175652302476850000003017670362694487460_);">
		<path class="st1" d="M417.9,877.5l-172.4,5.8l-85.7,27l315.6,0.9l75.1,18.8l95.4-10.6l157.9,10.4l141.6-9.5l116.8-56.7l-46.8-24.2
			l-172.4,31.2L417.9,877.5z"/>
		<path class="st2" d="M368,641.5l395.4,156.7L612.3,900.4l-410.6-60L5.3,688.5L0,546.2l117.3-109.4l133.9,24.8L368,641.5z"/>
		<path class="st3" d="M359.2,651.2L737.3,801l-127.9,86.6l-402.7-58.8L17.3,682.3l-4.9-131.4l111.1-98.2l121,24.9L359.2,651.2z"/>
		<path class="st4" d="M359.2,651.2L737.3,801l-127.9,86.6l-211.9-59.9l-92.7-89.4l-110.2-182L53.8,514.4l69.7-61.7l121,24.9
			L359.2,651.2z"/>
		<path class="st5" d="M609.4,887.6l-402.7-58.8L17.3,682.3l-4.9-131.4l56.2,100.9l166.8,148L609.4,887.6z"/>
		<path class="st6" d="M123.5,452.7l85.9,17.7l-14.8,85.9l-115,105.4l-63.1-1.2l-4.1-109.5L123.5,452.7z"/>
		<path class="st6" d="M305.4,569.8l-37-56l-17,95.8L134.4,710.2L74,726.1l81.1,62.7l41.1-23.9l98.5-115.3L305.4,569.8z"/>
		<path class="st6" d="M359.2,651.2l-18.9-28.6l2,72l-81,111.2l-54.6,22.9l74.5,10.9l39.6-19.8l50.4-97.8l2.5-65L359.2,651.2z"/>
		<path class="st6" d="M408.1,858.2l-62.5-9.2l50.6-67.7l23.5-106.1l35.7,13.8l-19.2,114L408.1,858.2z"/>
		<path class="st2" d="M596.8,412.2l233.3-74.9l144.8,169.3l10.8,88.9l76,78.4l-20.4,144.7L973.6,863l-0.5,2.1l-34.3,31.1l-42.7-7.3
			l-10.8-23.3l-67.9,13.9l-133.1-48.8l-107,49l-50.5,4.1l-125.8-35.6l-7.9-55.5l44.8-30.1l5.2,1.8l-29.4-27.6l11.4-87.3l41.2-29.3
			l36.2-231.8L596.8,412.2z"/>
		<path class="st3" d="M597.1,423.6L826.5,350l137.9,161.2l9.9,81.3l-90.9,85.4l94-75.3l72.8,75l-18.9,134.5l-57.6,37.7l32.3-133.3
			l-41.4-28.5L913,704.8l-22.4,127.3L922.3,711l39.3-12.5l33,22.3l-31.4,138.6l-27.7,25.2l-31.7-5.5l-12-26l-73.4,15L684,818.7
			l-109.3,50l-46.6,3.8l-117.1-33.1l-6-41.6l34.6-23.3l118.2,39.9L465.5,770l-40-37.6l10-77l41.1-29.2l35-224.4L597.1,423.6z"/>
		<path class="st4" d="M971.5,607.3l5.9-4.8l72.8,75.1L1034,792.5l6-108.9L971.5,607.3z M863.7,393.4l100.7,117.8l10,81.3l-8.8,8.3
			l-18.1-88.3l-92.2-113.3L863.7,393.4z"/>
		<path class="st5" d="M597.1,423.6L826.5,350l27.3,49.6l29,59.7l4.9,214.5l-4.4,4.1l4.4-3.5l3.5,153.9l-0.7,3.8l0.7-2.7l0.5,23.6
			l-73.4,15L684,818.7l-97.8,44.8l-72-63.7l43.8,14.8l-74.7-36l20-299.4l-2.1-10.7l10.4-66.6L597.1,423.6z"/>
		<path class="st6" d="M973.1,609.2l77.1,68.4l-18.9,134.5l-57.6,37.7l32.3-133.3l-41.4-28.5L913,704.8l-22.4,127.3L922.3,711
			l39.3-12.5l33,22.3l-31.4,138.6l-27.7,25.2l-31.7-5.5l-12-26l-73.4,15L684,818.7l-109.3,50l-46.6,3.8l-117.1-33.1l-6-41.6
			l34.6-23.3l118.2,39.9L465.5,770l-40-37.6l10-77l140.9,4.7l130.5,87.1L884.9,713l47.4-40.5L973.1,609.2z"/>
		<path class="st2" d="M893.2,467.9l25.4,188.6l-70.7,192l20,47.1L847.1,909l0.1,0.2l-23.5,14.5l-38.2-3l-47.8-3.7l-29-51l-1.9,0.3
			l-0.1-3.8l-3.7-6.5l3.6-1.2L702.8,631L667.4,495l148-135.6l87.2,62.5L893.2,467.9z"/>
		<path class="st3" d="M680,498.1l34.2,131.3l3.8,223.5l48.4-6.7l-46.6,15.8l24.9,43.8l31,2.4l-12.8-27.8l27.9,29l30.2,2.4l10.6-6.6
			l-19.5-32l28.1,26.4l13.4-8.6l-14.7-34.7l-45.6-13.4l44,0.9l69.2-188l-25.1-187.7l8.8-43.4L815,336.4L680,498.1z"/>
		<path class="st2" d="M673,639.8l37.6,202.5l3.7,0.7l-2.4,6l0.9,4.7l-2.8,0l-21.5,54.5l-84.2,18.9L579,916l0.1-0.2l-22.4-10.3
			l13.2-49.5l-97.3-180.5l7.4-119.7L465,514l28.4-97.6L660.6,495L673,639.8z"/>
		<path class="st3" d="M649,501l12.6,139.6l37.5,201.8l-48.9,0.1l48.4,9.1l-18.5,46.9l-30.4,6.8l8.8-29.3L635,908.6l-29.6,6.6
			l-11.5-5l14.8-34.4l-24.1,30.1l-14.5-6.6l9.7-36.4l43.2-19.7l-43.4,7.1l-95-176.4l7.1-118.7l-14.8-41.7l27-106.2L649,501z"/>
		<path class="st4" d="M484.6,674l7.1-118.7l-14.8-41.7l20-78.8l4.2-4.5l-3.2,73.5l24.1,48.2l45.7,27.9l-34.2,94.5L484.6,674z"/>
		<path class="st6" d="M671.9,696l27.2,146.3l-48.9,0.1l48.4,9.1l-18.5,46.9l-30.4,6.8l8.8-29.3L635,908.6l-29.6,6.6l-11.5-5
			l14.8-34.4l-24.1,30.1l-14.5-6.6l9.7-36.4l43.2-19.7l-43.4,7.1l-95-176.4l45-47.4l39.2-3L671.9,696L671.9,696z"/>
		<path class="st2" d="M433.2,77.3L455.8,89l87.6-1l110.5-26.5l79.3-39.7l14.2-19.7L799.1,0l33,103.6l33.6,22.5l23.4,57l-31.4,50.4
			l50,52.8l-31.6,0.3l25.6,36l-218.5,94.7L440.5,433l6.5-43.8l-28.3,14.1l20.7-69.7l-50.8-30.8l-4.8-61.5l19.7-35.3L386,98.9
			L433.2,77.3"/>
		<path class="st2" d="M710.9,85c83.2-167.6,135.5,163.7,129.3,148.3l-4.2,2.3l-3.7-3C790.7,198.2,690.1,136.7,710.9,85"/>
		<path class="st2" d="M503.2,134.7c-150-111.6-46.8,207.5-48.1,191h4.8l1.9-4.4C483.3,271.9,545.1,171.5,503.2,134.7"/>
		<path class="st3" d="M601.8,88l56.6-13.6L712,91.8l46.2,55.8l11.8-20.6l3.2,29.3l27.8,0.7l-19.2,15.5l97,102.4l-26.8,0.2
			l31.9,44.9l-112.3,69.3l-90.7,29l-94,15.2l-131.5-10.9l8.1-54.4l-24,12l40.1-135.2l-24.1-5.1l24.4-13.2L469.5,199l19.8,13
			l15.9-70.7l39.9-39.7L601.8,88z"/>
		<path class="st5" d="M711.7,303.2l29.9-24.5v-61.3l58.4,87.3l-28.4,84.5l-90.7,29l-28.7-120L711.7,303.2z"/>
		<path class="st5" d="M601.3,329.6l-37.8-8.3l-27.7-54.7l-12.5,104.3l63.6,62.4l94-15.2l-28.7-120L601.3,329.6z"/>
		<path class="st4" d="M747.8,135.1l10.3,12.5l11.8-20.6l3.2,29.3l27.8,0.7l-19.2,15.5l97,102.4l-26.8,0.2l31.9,44.9l-51.4,31.7
			l29.6-39.8L747,135.7L747.8,135.1z"/>
		<path class="st7" d="M649.3,286.5l19.1-3.9l43.2,20.6l26.2-6.3l24.9,23.3l-43.9,79.7l-38,18.3l-42.2,0.9l-75.2-51.2l11.6-32.1
			l26.3-6.2l29.2-37.9L649.3,286.5z"/>
		<path class="st8" d="M676.7,400.7l32.3-7.7l10-49.1l30.7,0.1l-30.7,55.8l-38,18.3l-42.2,0.9L594.5,389l24.4-12.3l25.5,31.7
			L676.7,400.7z"/>
		<path class="st8" d="M661.7,240.5l-21-49.6l34.9-19.3l15.4,48.2L661.7,240.5z"/>
		<path class="st8" d="M712.1,188.1l-24.7-11.5l12.4,39.6l14.8-7L712.1,188.1z"/>
		<path class="st7" d="M714.3,123.3l-12.7-34.9l52.6-73l35.9-1.4l31.4,98.6l30.6,20.5l-8.6,59.7l19.1-34.9l12.3,25.4l-27.6,44.2
			l-48.1-36.6l23.9-34.3l-27.9-30.5l-18.1-61L747,135.7L714.3,123.3z"/>
		<path class="st8" d="M777.1,65.1L747,135.7l-32.6-12.5l27.9-1.8L777.1,65.1z M847.2,227.5L799.1,191l23.9-34.4l-27.8-30.5
			l-18.1-61l26.3,59l28.3,19.5l11.7,49.1L847.2,227.5z"/>
		<path class="st5" d="M701.6,88.4l-43.2-14L741.5,33L701.6,88.4z"/>
		<path class="st2" d="M659.1,327.4l24.1-9.5l4.9,5.8l-19,26.3l3,13.4l4.4,2.5l35.5-14l6.9-8l4.6,2.5l-2.9,14.1l-7.5-1.7l-42.8,15.5
			l-36.6,8.8l-5.9,4.9l-9-11.3l3-4.3l9.7,4l29.3-6.8l2.8-4.2l-3.4-13.3l-28.8-14.8l1.8-7.4L659.1,327.4z"/>
		<path class="st8" d="M659.3,328.2l23.9-10.3l-24-31.3l-9.3,2.2l-9.3,2.2l-7.2,38.8L659.3,328.2z"/>
		<path class="st2" d="M709.7,289.3l17.2-16l2.7-25.7l-31.4-8.3l-18.5,17.6l0.4,29.5L709.7,289.3z"/>
		<path class="st7" d="M796.6,314.6l-25.1,74.6l60.9-37.6l5.6-52.8l-24.5-17.3l18-4.6l-89.9-59.6L796.6,314.6z"/>
		<path class="st4" d="M649.3,286.5l19.1-3.9l-15.2-31.9l-11.8,2.8l-11.9,2.8l1,35.3L649.3,286.5z"/>
		<path class="st5" d="M699.3,245.2l-15.4,14.3l3.5,18.8l19.6,4.8l15.3-13.1l-3.2-19.1L699.3,245.2z"/>
		<path class="st2" d="M699.2,249.9l-10.1,9.4l2.3,12.4l12.9,3.2l10.1-8.7l-2.1-12.5L699.2,249.9z"/>
		<path class="st7" d="M704.6,245.1l-5.1,4.9l1.5,7.5l7.3,1.8l5.7-4.9l-1.2-7.2L704.6,245.1z"/>
		<path class="st4" d="M601.8,88l11.8,49.6l37.8-61.5L601.8,88z"/>
		<path class="st8" d="M771.5,389.2l9.3-27.6l34.4-26.4l7.4-31.7l-9.2-21.9l24.5,17.3l-5.6,52.8L771.5,389.2z"/>
		<path class="st7" d="M675.6,171.6l-34.9,19.3l18.2,43l14.5-12.8L675.6,171.6z"/>
		<path class="st7" d="M712.1,188.1l-24.7-11.5l17,29.7L712.1,188.1z"/>
		<path class="st4" d="M492.9,196.1l-3.5,15.8l-19.8-13l10.4,27.6l-24.4,13.2l24.1,5.1L439.5,380l24-12l-8.1,54.4l60.2,5l-44.4-22.1
			L494,196.3L492.9,196.1z"/>
		<path class="st8" d="M615.1,241.2l-3.7-53.7l-39.9-1.4l8.1,49.9L615.1,241.2z"/>
		<path class="st8" d="M547.6,222.3l16.8-21.5l6.9,41l-16.4,0.5L547.6,222.3z"/>
		<path class="st5" d="M513,133.6l32.1-32l-92.9,0.7L513,133.6z"/>
		<path class="st2" d="M596.7,316.3l-22.6-6.5l-14-21.7l24.3-21.6l24.5,7.3l13,26.4L596.7,316.3z"/>
		<path class="st7" d="M530.7,378.3l56.1,55.1l-71.3-5.9l-28.9-44.5l14.1-26.5l-18.2,4.1l53.2-93.8L530.7,378.3z"/>
		<path class="st5" d="M586.1,272.3l20.2,5.8l5.4,18.4l-15.3,13.1l-19.6-4.8l-5.8-18.5L586.1,272.3z"/>
		<path class="st2" d="M588.3,276.5l13.3,3.8l3.5,12l-10.1,8.7l-12.9-3.2l-3.9-12.1L588.3,276.5z"/>
		<path class="st7" d="M581.3,274.6l6.7,2.1l2,7.4l-5.7,4.9l-7.3-1.8l-2.2-6.9L581.3,274.6z"/>
		<path class="st4" d="M601.8,88l11.8,49.6l-61.5-37.7L601.8,88z"/>
		<path class="st8" d="M586.8,433.4L566.1,413l-42.6-7.9l-20.9-24.9l-1.8-23.7l-14.1,26.5l28.9,44.5L586.8,433.4z"/>
		<path class="st7" d="M571.4,186.1l39.9,1.4l3.3,46.6l-18.7-4.8L571.4,186.1z"/>
		<path class="st7" d="M547.6,222.3l16.8-21.5l-1.7,34.1L547.6,222.3z"/>
		<path class="st7" d="M517.4,170.4l-4.4-36.9l-80-41.2l-32.6,15l16.6,102.1l-18,32.2l34.7,49.4L401,268.5l0.5,28.2l44.6,26.9
			l26.3-54.4l-36.9-19.8l11.1-39.9L435.1,147l58.8,49.3L517.4,170.4z"/>
		<path class="st8" d="M435.1,146.9l58.8,49.3l23.4-25.9l-25.7,11.1L435.1,146.9z M446.1,323.5l26.3-54.6l-36.9-19.8l11.1-39.8
			l-11.5-62.4l3.4,64.5l-16.3,30.4l11.7,49.1L446.1,323.5z"/>
		<path class="st7" d="M679.7,256.9l0.4,29.5l-11.6-3.8l-0.8-33.6l25.3-21.6l41.5,7.3l-4.9,12.8l-31.4-8.3L679.7,256.9z"/>
		<path class="st7" d="M608.9,273.9l13,26.4l8.7-8.6L616,261.4l-32.4-7.8L550,279l10.1,9.2l24.3-21.6L608.9,273.9z"/>
		<path class="st4" d="M757.7,421.6l-43.3,72.3l22.8,132.3l-19.7,197.2l-3.3-193.9L680,498.1l65.4-70.3L757.7,421.6z"/>
		<path class="st6" d="M715.2,695.3l2.7,157.8l48.4-6.7l-46.6,15.8l24.9,43.8l31,2.4l-12.8-27.8l27.9,29l30.2,2.4l10.6-6.6l-19.5-32
			l28.1,26.4l13.4-8.6l-14.7-34.7l-45.6-13.4l44,0.9l69.2-188l-59.4-72.3l-40.2,2L715.2,695.3z"/>
	</g>
</g>
</svg>
