<?xml version="1.0" encoding="utf-8"?>
<!-- Generator: Adobe Illustrator 26.0.1, SVG Export Plug-In . SVG Version: 6.00 Build 0)  -->
<svg version="1.1" id="Layer_1" xmlns="http://www.w3.org/2000/svg" xmlns:xlink="http://www.w3.org/1999/xlink" x="0px" y="0px"
	 viewBox="0 0 160 222" style="enable-background:new 0 0 160 222;" xml:space="preserve">
<style type="text/css">
	.st0{clip-path:url(#SVGID_00000127752724686730502470000006497663682520680078_);}
	.st1{fill:#010101;}
</style>
<g>
	<defs>
		<rect id="SVGID_1_" width="160" height="190"/>
	</defs>
	<clipPath id="SVGID_00000153680343795344364940000011763901000879680676_">
		<use xlink:href="#SVGID_1_"  style="overflow:visible;"/>
	</clipPath>
	<g style="clip-path:url(#SVGID_00000153680343795344364940000011763901000879680676_);">
		<path class="st1" d="M113.4,124.9c-2.6-4.7-4.9-9.5-7-14.5c7.7-3.3,14.6-8.2,20.4-14.3c9-8.8,13.5-21.2,13.5-37.2
			c0-18.6-6.1-33-18.3-43.3C109.8,5.2,94.2-0.2,78.1,0.1H0v177.3h38v-63.7h14.5l8.8-0.2c3.3,7.9,10.6,25.4,14.9,34.7L113.4,124.9z
			 M38,35.6h35c17.6,0,26.4,7.1,26.4,21.2c0,15.2-9.8,22.8-29.4,22.8H38V35.6z"/>
		<path class="st1" d="M152.8,164.7l-10-7l-41.2,26.6l14.4,5.6l25.2-0.1l18.2-13L152.8,164.7z"/>
		<path class="st1" d="M119.8,135.1l-38.2,24l10.7,16.8l40.7-25.6L119.8,135.1z"/>
	</g>
</g>
</svg>
