<?xml version="1.0" encoding="utf-8"?>
<!-- Generator: Adobe Illustrator 26.0.1, SVG Export Plug-In . SVG Version: 6.00 Build 0)  -->
<svg version="1.1" id="Layer_1" xmlns="http://www.w3.org/2000/svg" xmlns:xlink="http://www.w3.org/1999/xlink" x="0px" y="0px"
	 viewBox="0 0 162 222" style="enable-background:new 0 0 162 222;" xml:space="preserve">
<style type="text/css">
	.st0{fill:#FFFFFF;}
</style>
<path class="st0" d="M115.3,127.1c-2.6-4.8-5-9.7-7.1-14.7c7.8-3.4,14.9-8.4,20.7-14.6c9.1-8.9,13.7-21.6,13.7-37.9
	c0-18.9-6.2-33.6-18.6-44.1C111.6,5.2,95.7-0.4,79.4,0H0v180.8h38.7v-65h14.7l9-0.2c3.3,8.1,10.8,25.9,15.1,35.4L115.3,127.1z
	 M38.7,36.1h35.6c17.9,0,26.8,7.2,26.8,21.7c0,15.5-10,23.3-29.9,23.2H38.7V36.1z"/>
<path class="st0" d="M155.2,167.8l-10.1-7.2l-41.9,27.2l14.7,5.7l25.6-0.1l18.5-13.2L155.2,167.8z"/>
<path class="st0" d="M121.7,137.6l-38.9,24.5l10.9,17.1l41.3-26.1L121.7,137.6z"/>
</svg>
