<?xml version="1.0" standalone="no"?>
<!DOCTYPE svg PUBLIC "-//W3C//DTD SVG 1.1//EN" "http://www.w3.org/Graphics/SVG/1.1/DTD/svg11.dtd">
<svg xmlns="http://www.w3.org/2000/svg">
<defs >
<font id="Quicksand" horiz-adv-x="541" ><font-face
    font-family="Quicksand Light Medium"
    units-per-em="1000"
    panose-1="0 0 0 0 0 0 0 0 0 0"
    ascent="1000"
    descent="-250"
    alphabetic="0" />
<glyph unicode=" " horiz-adv-x="275" />
<glyph unicode="!" horiz-adv-x="213" d="M107 204Q83 204 81 231L64 648Q63 671 74 685T106 700Q128 700 139 686T149 648L132 231Q130 204 107 204ZM102 0Q81 0 70 12T59 46V66Q59 87 70 99T102 111H111Q132 111 143 99T154 66V46Q154 25 143 13T111 0H102Z" />
<glyph unicode="&quot;" horiz-adv-x="399" d="M63 667Q67 700 100 700H131Q149 700 155 690T157 662L92 449Q84 424 59 424Q38 424 41 455L63 667ZM263 667Q267 700 300 700H331Q349 700 355 690T356 662L291 449Q283 424 259 424Q237 424 240 455L263 667Z" />
<glyph unicode="#" horiz-adv-x="667" d="M149 0Q130 0 120 14T112 50L219 669Q221 683 231 691T255 700Q275 700 285 686T293 651L186 32Q184 18 174 9T149 0ZM107 455Q90 455 79 466T67 494Q67 510 78 520T106 530H600Q617 530 628 519T639 491Q639 475 628
465T600 455H107ZM412 0Q393 0 382 14T375 50L481 669Q484 683 494 691T518 700Q537 700 548 686T555 651L449 32Q447 18 437 9T412 0ZM68 174Q51 174 40 185T28 214Q28 230 39 240T68 250H562Q579 250 590 239T601 210Q601 194 590 184T562 174H68Z" />
<glyph unicode="$" horiz-adv-x="574" d="M292 -10Q218 -10 162 12T54 82Q47 89 43 97T38 116Q38 132 49 144T78 157Q92 157 103 146Q142 108 187 88T290 68Q334 68 369 82T426 121T447 179Q446 219 424 245T362 288T270 318Q224 329 186 345T119 384T76 441T60
520Q60 577 90 620T173 686T295 710Q356 710 410 690T498 635Q518 616 518 598Q518 583 506 571T477 558Q466 558 457 566Q440 585 414 600T357 624T295 633Q249 633 214 620T160 582T140 523Q140 485 162 461T221 421T303 393Q352 381 393 366T465 327T511 269T528
181Q528 126 497 83T413 16T292 -10ZM337 -102Q337 -119 326 -130T296 -142Q279 -142 268 -131T257 -102V770Q257 787 268 799T297 811Q315 811 326 799T337 770V-102Z" />
<glyph unicode="%" horiz-adv-x="790" d="M186 335Q140 335 108 360T58 428T40 521Q40 572 57 615T108 683T187 709Q233 709 265 684T315 616T332 522Q332 471 314 429T264 361T186 335ZM187 400Q225 400 243 434T261 521Q261 574 242 609T186 644Q148 644 130
609T111 522Q111 469 130 435T187 400ZM603 -9Q558 -9 526 16T475 84T457 177Q457 228 474 271T525 339T604 365Q651 365 683 340T733 272T750 178Q750 127 732 85T682 17T603 -9ZM604 56Q643 56 661 90T679 177Q679 230 660 265T603 300Q565 300 547 265T528 178Q528
125 547 91T604 56ZM182 -2Q170 -2 158 7T146 32Q146 41 153 53L571 686Q583 703 599 703Q612 703 623 694T635 669Q635 659 629 648L211 14Q199 -2 182 -2Z" />
<glyph unicode="&amp;" horiz-adv-x="689" d="M274 -10Q203 -10 148 22T62 106T30 215Q30 261 47 302T100 375T191 428L246 372Q171 356 142 317T112 227Q112 187 131 150T189 90T288 67Q347 67 391 88T465 145T514 225T540 314Q542 326 550 333T575 340Q592 340
602 326T610 293Q602 237 577 183T511 86T411 16T274 -10ZM630 1Q622 1 617 3T607 8Q542 61 485 108T373 205T264 319Q229 359 201 395T155 466T138 538Q138 586 162 625T230 687T336 710Q407 710 457 685T526 621Q527 620 529 613T532 596Q532 584 523 574T496
563Q486 563 479 567T468 577Q448 606 417 623T336 640Q280 640 251 612T222 540Q222 510 240 477T286 411T340 349Q377 308 419 268T503 191T582 124T647 72Q656 64 660 56T664 37Q664 27 656 14T630 1Z" />
<glyph unicode="&apos;" horiz-adv-x="200" d="M63 667Q67 700 100 700H132Q150 700 156 690T157 662L92 449Q84 424 59 424Q38 424 41 455L63 667Z" />
<glyph unicode="(" horiz-adv-x="368" d="M312 -188Q302 -188 293 -183Q211 -137 156 -69T73 84T45 258Q45 348 74 430T158 581T293 699Q302 704 312 704Q328 704 337 693T346 669Q346 652 330 640Q264 598 219 537T150 405T126 258Q126 183 148 110T216 -23T330
-125Q345 -134 345 -153Q345 -166 336 -177T312 -188Z" />
<glyph unicode=")" horiz-adv-x="368" d="M57 -188Q41 -188 32 -176T23 -152Q23 -135 38 -124Q105 -81 150 -21T219 112T243 259Q243 334 221 406T153 540T38 641Q23 651 23 670Q23 683 32 694T57 705Q67 705 76 699Q158 654 212 585T295 433T323 259Q323 169
295 87T211 -65T75 -182Q67 -188 57 -188Z" />
<glyph unicode="*" horiz-adv-x="327" d="M163 394Q152 394 145 402T139 423L147 511Q148 514 146 515T141 514L68 463Q58 456 48 458T30 471Q24 483 28 493T43 507L124 545Q127 546 127 548T124 551L43 589Q31 595 28 605T31 627Q37 637 47 639T68 634L141 582Q144
581 146 582T147 586L139 674Q138 686 145 694T165 702Q176 702 183 694T189 674L182 586Q181 583 183 582T187 582L261 634Q271 641 282 639T298 626Q305 614 301 604T286 589L204 551Q201 550 201 548T204 545L286 507Q297 502 301 492T298 471Q293 460 282 458T261
462L187 514Q185 516 183 515T182 511L189 423Q191 411 183 403T163 394Z" />
<glyph unicode="+" horiz-adv-x="567" d="M84 295Q67 295 56 306T45 333Q45 349 56 359T84 370H494Q511 370 522 359T533 332Q533 316 522 306T494 295H84ZM288 86Q270 86 258 98T245 128V541Q245 560 257 572T289 584Q308 584 319 572T331 541V129Q331 110 319
98T288 86Z" />
<glyph unicode="," horiz-adv-x="221" d="M178 -2Q178 -31 162 -59T120 -106T69 -125Q60 -125 51 -119T42 -96Q42 -79 53 -76T77 -67Q92 -59 100 -48T109 -21Q109 -9 101 -2T80 6Q73 6 66 4T53 -2Q46 3 41 10T36 28Q37 50 58 65T106 81Q138 81 158 57T178 -2Z" />
<glyph unicode="-" horiz-adv-x="392" d="M95 271Q78 271 67 282T55 312Q55 329 66 340T95 351H297Q314 351 325 339T337 310Q337 293 326 282T297 271H95Z" />
<glyph unicode="." horiz-adv-x="204" d="M98 1Q77 1 66 13T54 46V66Q54 88 65 100T98 112H106Q128 112 139 100T150 66V46Q150 25 139 13T106 1H98Z" />
<glyph unicode="/" horiz-adv-x="538" d="M52 -131Q39 -131 28 -121T16 -95Q16 -86 20 -77L446 774Q453 788 462 794T482 800Q494 800 505 791T517 765Q517 755 512 745L87 -106Q81 -119 72 -125T52 -131Z" />
<glyph unicode="0" horiz-adv-x="601" d="M301 -10Q218 -10 163 37T79 166T50 350Q50 454 78 535T162 663T301 710Q384 710 439 663T523 535T551 350Q551 248 523 166T440 37T301 -10ZM301 71Q354 71 390 105T446 201T465 350Q465 437 446 499T391 595T301 629Q248
629 212 596T156 500T136 350Q136 264 155 202T211 105T301 71Z" />
<glyph unicode="1" horiz-adv-x="376" d="M230 0Q212 0 200 12T188 41V610L200 596L87 518Q77 511 64 511Q47 511 35 523T23 552Q23 574 44 587L203 692Q211 697 219 699T235 700Q253 700 263 689T274 660V41Q274 24 262 12T230 0Z" />
<glyph unicode="2" horiz-adv-x="559" d="M469 75Q485 75 496 64T507 37Q507 21 496 11T469 0H106Q88 0 77 10T65 39Q65 55 77 68L303 315Q353 369 378 416T404 501Q404 562 368 598T270 635Q243 635 216 624T167 593T131 549Q123 536 115 533T97 529Q82 529 70
539T58 564Q58 575 64 584T80 606Q101 635 132 658T201 696T275 710Q339 710 386 685T460 614T486 506Q486 453 454 389T360 259L185 65L175 75H469Z" />
<glyph unicode="3" horiz-adv-x="528" d="M97 116Q103 116 110 114T127 103Q147 85 174 74T236 63Q279 63 315 82T373 138T396 221Q396 272 374 304T317 352T244 368Q230 368 218 366T196 361T176 358Q160 358 151 369T142 396Q142 405 145 412T157 429L351 639L367
620H83Q67 620 56 631T45 658Q45 674 56 684T83 695H409Q431 695 441 683T451 655Q451 646 447 638T435 623L241 412L218 432Q223 436 241 439T271 443Q327 443 374 416T449 340T477 226Q477 154 444 101T354 19T224 -10Q184 -10 146 2T79 39Q66 46 62 55T57 73Q57
88 68 102T97 116Z" />
<glyph unicode="4" horiz-adv-x="547" d="M375 0Q358 0 347 12T335 41V588L351 582L112 270L108 282H482Q498 282 509 271T520 244Q520 229 509 219T482 208H53Q38 208 26 220T13 248Q13 263 23 274L342 684Q349 693 358 696T376 700Q393 700 404 689T415 660V41Q415
24 404 12T375 0Z" />
<glyph unicode="5" horiz-adv-x="556" d="M237 -4Q197 -4 156 8T83 46Q75 53 70 64T65 85Q65 97 75 108T103 120Q116 120 133 107Q155 90 182 80T236 70Q292 70 333 91T396 150T418 239Q418 285 398 319T341 373T257 392Q222 392 195 382T147 360T111 349Q92 349
82 357T69 379T67 403L106 662Q109 675 120 685T147 695H444Q460 695 471 684T482 656Q482 640 471 630T444 619H167L177 628L140 402L124 423Q135 433 157 443T209 460T270 467Q335 467 386 438T468 357T498 240Q498 167 466 112T376 27T237 -4Z" />
<glyph unicode="6" horiz-adv-x="543" d="M287 -10Q230 -10 187 11T114 70T70 153T55 248Q55 291 66 344T99 452T158 559T244 650T359 713Q368 715 375 715Q391 715 403 707T416 676Q416 662 407 652T383 636Q343 621 305 593T234 526T178 443T145 350L121 342Q138
369 164 393T224 432T300 447Q344 447 382 428T449 377T494 304T511 217Q511 156 482 105T402 22T287 -10ZM286 65Q327 65 359 84T411 138T430 217Q430 258 413 293T365 349T289 371Q242 371 208 350T156 294T137 215Q137 175 155 141T206 86T286 65Z" />
<glyph unicode="7" horiz-adv-x="525" d="M185 -3Q169 -3 157 7T144 35Q144 44 148 53L406 638L418 620H96Q80 620 69 630T58 658Q58 674 69 684T96 695H457Q475 695 486 684T498 656Q498 647 494 638L223 22Q218 10 208 4T185 -3Z" />
<glyph unicode="8" horiz-adv-x="543" d="M371 353L369 367Q404 352 432 326T476 267T493 194Q493 140 464 95T384 22T271 -5Q209 -5 159 22T80 94T50 194Q50 239 68 273T115 331T175 369L170 353Q144 364 121 385T82 437T67 507Q67 561 94 605T168 674T271 700Q328
700 374 675T447 605T475 507Q475 466 459 436T420 385T371 353ZM148 506Q148 470 164 443T209 401T271 385Q305 385 332 400T377 443T394 506Q394 558 360 591T271 625Q217 625 183 592T148 506ZM271 70Q333 70 372 106T412 195Q412 232 393 260T342 305T271 322Q233
322 201 306T150 261T131 195Q131 142 170 106T271 70Z" />
<glyph unicode="9" horiz-adv-x="562" d="M279 712Q336 712 379 691T452 632T496 549T511 454Q511 411 500 358T467 250T408 145T322 54T207 -8Q198 -11 191 -11Q175 -11 163 -1T150 29Q150 43 159 53T183 69Q237 89 286 131T372 231T421 352L445 360Q429 333
403 310T343 271T266 256Q201 256 154 287T81 370T55 485Q55 546 84 597T165 680T279 712ZM280 637Q239 637 207 618T155 564T136 485Q136 443 152 408T200 353T277 332Q324 332 358 353T410 409T429 487Q429 528 411 561T360 616T280 637Z" />
<glyph unicode=":" horiz-adv-x="216" d="M104 408Q83 408 72 420T60 454V474Q60 495 71 507T104 519H112Q134 519 145 507T156 474V454Q156 433 145 421T112 408H104ZM104 0Q83 0 72 12T60 46V66Q60 87 71 99T104 111H112Q134 111 145 99T156 66V46Q156 25 145
13T112 0H104Z" />
<glyph unicode=";" horiz-adv-x="231" d="M125 408Q104 408 92 420T80 454V474Q80 495 92 507T125 519H134Q155 519 167 507T179 474V454Q179 433 167 421T134 408H125ZM194 -2Q194 -31 178 -59T136 -106T85 -125Q76 -125 67 -119T58 -96Q58 -79 69 -76T93 -67Q108
-59 116 -48T125 -21Q125 -9 117 -2T96 6Q89 6 82 4T69 -2Q62 3 57 10T52 28Q53 50 74 65T122 81Q154 81 174 57T194 -2Z" />
<glyph unicode="&lt;" horiz-adv-x="524" d="M429 83Q421 83 413 87T395 97L53 294Q41 301 36 310T30 332Q30 345 36 354T55 371L393 564Q401 569 409 572T424 575Q439 575 450 563T462 536Q462 526 458 519T443 506L93 307L89 358L440 156Q453 149 458 142T463
123Q463 108 452 96T429 83Z" />
<glyph unicode="=" horiz-adv-x="553" d="M90 385Q73 385 62 396T50 423Q50 439 61 449T90 460H463Q480 460 491 449T503 422Q503 407 492 396T463 385H90ZM90 198Q73 198 62 209T50 237Q50 252 61 262T90 273H463Q480 273 491 263T503 236Q503 221 492 210T463 198H90Z" />
<glyph unicode="&gt;" horiz-adv-x="528" d="M97 91Q83 91 72 103T60 130Q60 141 65 148T83 162L436 358L439 306L81 511Q72 517 67 524T62 543Q62 559 73 571T98 582Q106 582 114 578T131 569L474 373Q485 367 491 357T498 335Q498 322 493 313T476 296L129 102Q121
98 113 95T97 91Z" />
<glyph unicode="?" horiz-adv-x="499" d="M186 330Q186 347 197 358T226 370Q270 372 305 389T360 439T381 517Q381 559 363 591T313 641T242 659Q205 659 173 643T118 601Q107 590 93 586T63 592Q46 604 45 620T56 651Q89 691 138 714T242 738Q303 738 353 710T433
633T463 517Q463 473 448 436T404 371T339 325T259 304Q256 304 259 304T265 307V225Q265 208 254 196T226 184Q208 184 197 196T186 225V330ZM224 0Q203 0 192 12T181 46V66Q181 87 192 99T224 111H233Q254 111 265 99T276 66V46Q276 25 265 13T233 0H224Z" />
<glyph unicode="@" horiz-adv-x="970" d="M679 55Q647 55 622 68T585 106T577 161L585 222L599 210Q581 156 549 122T480 71T404 55Q363 55 330 76T276 135T256 220Q256 267 274 317T325 412T401 483T496 510Q551 510 586 475T628 386L606 331L628 472Q630 485
639 494T667 504Q690 504 698 493T702 460L657 176Q652 142 666 127T700 112Q734 112 764 137T816 202T852 294T865 396Q865 472 830 529T729 619T576 652Q476 652 390 622T238 535T137 395T100 206Q100 149 118 94T173 -6T270 -77T414 -104Q469 -104 508 -96T577
-74T639 -45Q650 -39 660 -42T675 -58Q685 -82 653 -98Q610 -119 554 -140T414 -162Q313 -162 242 -131T127 -46T61 72T40 206Q40 323 81 416T196 575T367 675T576 710Q690 710 768 668T885 554T925 396Q925 335 908 275T857 165T779 85T679 55ZM420 119Q452 119
482 135T538 179T578 238T596 303Q607 351 597 383T560 430T499 446Q461 446 430 425T378 369T345 296T333 222Q333 173 358 146T420 119Z" />
<glyph unicode="A" horiz-adv-x="644" d="M330 596L95 24Q91 12 81 5T60 -2Q41 -2 32 8T23 32Q22 39 25 47L284 677Q289 691 299 697T323 703Q336 703 346 696T361 677L619 53Q622 45 622 37Q622 19 610 9T583 -2Q571 -2 561 5T546 25L308 597L330 596ZM145 187L179
265H476L491 187H145Z" />
<glyph unicode="B" horiz-adv-x="653" d="M389 700Q477 700 524 655T572 526Q572 482 552 445T494 386T399 362L397 390Q432 390 469 380T537 348T588 290T608 201Q608 144 589 106T539 44T469 10T391 0H128Q111 0 100 12T88 41V660Q88 677 99 688T128 700H389ZM377
621H162L174 639V390L163 403H379Q423 403 454 431T486 516Q486 566 457 593T377 621ZM385 323H167L174 330V69L166 78H388Q447 78 484 108T522 201Q522 250 502 276T451 313T385 323Z" />
<glyph unicode="C" horiz-adv-x="645" d="M592 654Q609 645 611 627T602 594Q593 581 579 580T551 586Q518 606 480 617T400 629Q341 629 292 609T207 551T151 463T131 350Q131 284 152 232T209 144T294 88T400 69Q441 69 479 80T551 112Q565 119 579 117T603
103Q615 87 612 70T593 44Q568 29 536 17T470 -3T400 -10Q328 -10 264 15T151 87T74 200T45 350Q45 428 72 493T147 606T260 681T400 708Q452 708 501 694T592 654Z" />
<glyph unicode="D" horiz-adv-x="718" d="M378 700Q451 700 506 673T599 596T654 484T673 350Q673 254 640 175T542 48T378 0H128Q111 0 100 12T88 41V660Q88 677 99 688T128 700H378ZM368 78Q445 78 493 115T564 214T587 350Q587 404 575 453T536 541T468 601T368
623H163L171 631V68L165 78H368Z" />
<glyph unicode="E" horiz-adv-x="570" d="M128 700H484Q501 700 513 689T525 661Q525 644 513 634T484 623H162L171 640V387L161 398H439Q456 398 468 387T480 359Q480 342 468 332T439 321H164L171 330V71L165 78H484Q501 78 513 66T525 39Q525 22 513 11T484
0H128Q111 0 100 12T88 41V660Q88 677 99 688T128 700Z" />
<glyph unicode="F" horiz-adv-x="565" d="M129 0Q111 0 100 12T88 41V660Q88 677 99 688T128 700H479Q496 700 508 689T520 661Q520 645 508 634T479 623H164L170 631V386L165 397H434Q451 397 463 386T475 357Q475 342 463 331T434 319H163L170 328V41Q170 24
158 12T129 0Z" />
<glyph unicode="G" horiz-adv-x="695" d="M407 -10Q330 -10 265 17T150 94T73 208T45 350Q45 427 72 492T149 607T264 683T407 710Q458 710 505 699T592 663Q602 658 606 649T611 630Q611 613 600 601T573 589Q567 589 562 591T550 595Q519 611 483 620T407 630Q328
630 266 593T167 493T131 350Q131 271 167 208T265 107T407 70Q447 70 489 81T562 109L555 85V296L571 282H418Q401 282 390 293T378 322Q378 339 389 350T418 362H600Q618 362 629 350T640 321V90Q640 78 635 69T620 54Q575 25 521 8T407 -10Z" />
<glyph unicode="H" horiz-adv-x="720" d="M130 700Q147 700 159 689T171 659V41Q171 24 159 12T129 0Q110 0 99 12T88 41V659Q88 677 100 688T130 700ZM591 700Q609 700 620 689T632 659V41Q632 24 620 12T590 0Q573 0 561 12T549 41V659Q549 677 561 688T591
700ZM126 395H592L591 317H123L126 395Z" />
<glyph unicode="I" horiz-adv-x="259" d="M171 41Q171 24 159 12T129 0Q110 0 99 12T88 41V659Q88 677 100 688T130 700Q147 700 159 689T171 659V41Z" />
<glyph unicode="J" horiz-adv-x="565" d="M253 -10Q192 -10 143 21T65 104Q58 116 58 127Q58 144 71 154T97 165Q108 165 117 159T134 144Q154 110 184 90T253 70Q294 70 325 88T375 137T394 209V660Q394 677 406 688T437 700Q455 700 466 689T478 660V209Q478
148 449 98T369 19T253 -10Z" />
<glyph unicode="K" horiz-adv-x="669" d="M582 -2Q564 -2 552 13L286 352L347 414L618 67Q627 54 627 40Q627 20 613 9T582 -2ZM579 701Q595 701 605 688T616 661Q616 647 604 635L162 217L155 310L547 686Q562 701 579 701ZM129 0Q110 0 99 12T88 41V659Q88 677
100 688T130 700Q149 700 160 689T171 659V41Q171 24 160 12T129 0Z" />
<glyph unicode="L" horiz-adv-x="542" d="M474 79Q491 79 503 68T515 39Q515 22 503 11T474 0H128Q111 0 100 12T88 41V660Q88 677 100 688T130 700Q147 700 159 689T171 660V61L151 79H474Z" />
<glyph unicode="M" horiz-adv-x="824" d="M129 701Q138 701 148 696T165 683L430 282L395 283L663 683Q676 702 697 701Q713 700 725 689T737 660V41Q737 24 725 12T695 0Q677 0 665 12T653 41V584L678 579L442 220Q436 213 428 208T410 203Q401 203 392 208T377
220L144 579L165 605V41Q165 24 154 12T126 0Q109 0 99 12T88 41V660Q88 676 99 688T129 701Z" />
<glyph unicode="N" horiz-adv-x="730" d="M606 700Q623 700 633 690T643 663V42Q643 23 631 12T602 0Q593 0 584 3T570 13L142 579L162 591V37Q162 21 152 11T124 0Q108 0 98 10T88 37V660Q88 678 99 689T127 700Q136 700 145 697T160 686L582 128L569 112V663Q569
679 579 689T606 700Z" />
<glyph unicode="O" horiz-adv-x="764" d="M719 350Q719 273 694 208T624 93T517 17T382 -10Q308 -10 247 17T140 93T70 207T45 350Q45 428 70 493T140 607T246 683T382 710Q455 710 517 683T624 608T694 494T719 350ZM633 350Q633 432 601 495T512 594T382 630Q308
630 252 594T163 495T131 350Q131 269 163 206T251 106T382 70Q456 70 512 106T600 205T633 350Z" />
<glyph unicode="P" horiz-adv-x="599" d="M362 700Q417 700 461 673T530 599T556 492Q556 433 531 385T461 309T362 281H159L166 293V41Q166 24 155 12T127 0Q109 0 99 12T88 41V660Q88 677 99 688T128 700H362ZM362 358Q395 358 420 376T460 425T475 492Q475
530 460 559T420 605T362 623H159L166 634V348L159 358H362Z" />
<glyph unicode="Q" horiz-adv-x="769" d="M752 -46Q766 -46 777 -57T789 -84Q789 -103 771 -120T723 -152T661 -174T600 -182Q539 -182 501 -170T434 -141T378 -113T312 -100Q293 -100 280 -106T255 -118T227 -124Q210 -124 199 -112T187 -84Q187 -58 210 -49L394
17L485 8L315 -52L343 -31Q382 -31 413 -43T472 -70T531 -97T603 -109Q638 -109 661 -99T700 -78Q715 -67 726 -57T752 -46ZM719 350Q719 273 694 208T624 93T517 17T382 -10Q308 -10 247 17T140 93T70 207T45 350Q45 428 70 493T140 607T246 683T382 710Q455 710
517 683T624 608T694 494T719 350ZM633 350Q633 432 601 495T512 594T382 630Q308 630 252 594T163 495T131 350Q131 269 163 206T251 106T382 70Q456 70 512 106T600 205T633 350Z" />
<glyph unicode="R" horiz-adv-x="676" d="M134 0Q115 0 102 12T88 41V660Q88 677 99 688T128 700H404Q460 700 505 675T576 605T603 502Q603 460 587 424T543 361T479 320L457 336Q491 328 518 308T562 256T580 182Q582 145 585 123T594 89T611 69Q625 60 629
45T624 16Q618 7 607 4T585 1T566 7Q550 16 535 33T510 84T500 174Q500 206 490 227T463 261T425 279T382 284H159L171 302V41Q171 24 161 12T134 0ZM159 356H404Q433 358 458 376T500 426T517 500Q517 553 484 588T399 623H163L171 642V338L159 356Z" />
<glyph unicode="S" horiz-adv-x="574" d="M292 -10Q218 -10 162 12T54 82Q47 89 43 97T38 116Q38 132 49 144T78 157Q92 157 103 146Q142 108 187 88T290 68Q334 68 369 82T426 121T447 179Q446 219 424 245T362 288T270 318Q224 329 186 345T119 384T76 441T60
520Q60 577 90 620T173 686T295 710Q356 710 410 690T498 635Q518 616 518 598Q518 583 506 571T477 558Q466 558 457 566Q440 585 414 600T357 624T295 633Q249 633 214 620T160 582T140 523Q140 485 162 461T221 421T303 393Q352 381 393 366T465 327T511 269T528
181Q528 126 497 83T413 16T292 -10Z" />
<glyph unicode="T" horiz-adv-x="611" d="M305 0Q287 0 275 12T263 41V659H348V41Q348 24 336 12T305 0ZM73 624Q56 624 45 634T33 662Q33 679 44 689T73 700H538Q555 700 567 690T579 662Q579 644 567 634T538 624H73Z" />
<glyph unicode="U" horiz-adv-x="710" d="M584 701Q601 701 612 689T623 660V263Q623 186 588 125T492 29T356 -7Q279 -7 219 28T123 125T88 263V660Q88 677 99 689T130 701Q146 701 158 689T171 660V263Q171 208 196 165T263 98T356 73Q407 73 450 97T519 165T546
263V660Q546 677 556 689T584 701Z" />
<glyph unicode="V" horiz-adv-x="669" d="M596 701Q613 701 625 691T637 663Q637 655 633 645L372 26Q366 13 356 7T333 0Q322 1 312 7T297 26L37 644Q35 648 34 652T33 662Q33 681 46 691T73 702Q100 702 112 674L351 104H328L559 676Q571 701 596 701Z" />
<glyph unicode="W" horiz-adv-x="959" d="M890 703Q906 703 919 692T933 661Q933 654 931 646L718 26Q714 14 704 8T682 0Q670 0 659 6T642 26L475 430L483 427L317 26Q311 13 300 7T277 0Q266 1 256 7T241 26L28 646Q26 654 26 660Q26 680 40 691T70 703Q82 703
93 696T108 677L295 125H281L444 528Q449 540 459 547T482 554Q494 554 504 547T519 528L677 131L665 126L851 677Q855 689 866 696T890 703Z" />
<glyph unicode="X" horiz-adv-x="622" d="M547 703Q562 703 573 692T585 667Q585 654 576 642L356 345L311 408L515 684Q528 703 547 703ZM79 703Q100 703 112 686L576 61Q584 49 584 36Q584 18 571 7T544 -4Q524 -4 511 13L47 639Q39 649 39 663Q39 680 51 691T79
703ZM75 -4Q59 -4 49 7T38 31Q38 45 48 58L269 359L312 293L107 14Q95 -4 75 -4Z" />
<glyph unicode="Y" horiz-adv-x="572" d="M514 704Q531 704 542 692T554 663Q554 657 553 651T547 638L315 315L328 364V41Q328 24 317 12T289 0Q271 0 260 12T248 41V356L255 330L30 634Q24 642 22 649T19 664Q19 681 33 692T61 704Q81 704 94 685L301 401L282
404L481 684Q494 704 514 704Z" />
<glyph unicode="Z" horiz-adv-x="646" d="M559 700Q577 700 590 689T603 661Q603 648 594 636L164 70L158 77H555Q572 77 584 66T596 39Q596 22 584 11T555 0H90Q72 0 60 13T48 40Q48 53 57 65L486 629L494 624H120Q103 624 91 635T79 662Q79 679 91 689T120 700H559Z" />
<glyph unicode="[" horiz-adv-x="400" d="M114 -190Q100 -190 90 -180T80 -156V666Q80 681 90 690T114 700H336Q351 700 360 691T370 667Q370 653 361 644T336 634H150L158 641V-135L149 -122H336Q351 -122 360 -132T370 -157Q370 -170 361 -180T336 -190H114Z" />
<glyph unicode="\" horiz-adv-x="538" d="M486 -133Q473 -133 465 -126T451 -109L22 751Q19 756 18 760T17 769Q17 784 28 793T53 802Q68 802 75 796T89 778L518 -82Q523 -91 523 -100Q523 -115 511 -124T486 -133Z" />
<glyph unicode="]" horiz-adv-x="400" d="M286 700Q301 700 310 691T320 666V-156Q320 -170 311 -180T286 -190H64Q50 -190 40 -181T30 -156Q30 -142 40 -133T64 -123H250L243 -131V645L252 633H64Q50 633 40 643T30 667Q30 681 40 690T64 700H286Z" />
<glyph unicode="^" horiz-adv-x="551" d="M95 371Q79 371 67 383T55 411Q55 419 58 426T67 441L222 712Q231 728 244 732T275 737Q296 737 308 732T330 712L485 440Q490 433 493 426T497 412Q497 396 485 384T455 371Q444 371 435 375T419 391L268 659L286 661L131
391Q125 380 116 376T95 371Z" />
<glyph unicode="_" horiz-adv-x="679" d="M90 -160Q75 -160 65 -150T55 -126Q55 -111 65 -102T90 -93H589Q605 -93 614 -102T624 -127Q624 -141 615 -150T589 -160H90Z" />
<glyph unicode="`" horiz-adv-x="237" d="M164 562Q158 562 152 565T139 573L54 639Q43 646 38 654T32 674Q32 691 44 700T69 710Q82 710 91 704T107 691L181 606Q190 596 190 586Q190 576 183 569T164 562Z" />
<glyph unicode="a" horiz-adv-x="614" d="M500 522Q517 522 528 511T540 482V41Q540 24 529 12T500 0Q482 0 471 12T460 41V136L479 138Q479 116 464 90T423 42T362 5T285 -10Q217 -10 163 25T78 122T46 261Q46 340 77 400T163 495T283 530Q326 530 363 516T427
478T470 425T486 367L460 373V482Q460 499 471 510T500 522ZM294 64Q344 64 382 90T442 160T464 261Q464 316 443 360T383 430T294 456Q245 456 207 431T146 362T124 261Q124 205 145 161T205 90T294 64Z" />
<glyph unicode="b" horiz-adv-x="614" d="M329 530Q397 530 451 496T536 401T568 262Q568 183 537 122T452 26T331 -10Q294 -10 262 1T203 32T158 75T132 122L154 136V36Q154 19 143 7T114 -5Q97 -5 86 6T74 36V699Q74 716 85 728T114 740Q132 740 143 728T154
699V391L139 399Q146 424 163 447T206 489T263 519T329 530ZM320 456Q270 456 232 431T172 362T150 262Q150 206 171 161T231 90T320 64Q370 64 408 90T468 161T490 262Q490 318 468 362T408 431T320 456Z" />
<glyph unicode="c" horiz-adv-x="519" d="M304 530Q355 530 396 519T461 489T485 446Q485 433 476 421T452 409Q438 409 430 414T414 427T393 441Q381 448 358 452T312 456Q257 456 216 430T150 360T126 260Q126 204 149 160T213 90T308 64Q343 64 364 70T399
84Q417 94 426 104T452 114Q469 114 478 103T488 76Q488 58 463 38T396 4T299 -10Q223 -10 166 25T78 122T46 260Q46 336 78 397T169 494T304 530Z" />
<glyph unicode="d" horiz-adv-x="614" d="M500 740Q517 740 528 729T540 700V41Q540 24 529 12T500 0Q482 0 471 12T460 41V136L479 143Q479 119 464 93T423 43T362 5T285 -10Q218 -10 164 25T78 121T46 260Q46 339 77 400T163 495T283 530Q325 530 362 516T426
478T470 425T486 367L460 373V700Q460 717 471 728T500 740ZM294 64Q344 64 382 89T442 159T464 260Q464 317 443 361T383 430T294 456Q245 456 207 431T146 361T124 260Q124 205 146 161T206 90T294 64Z" />
<glyph unicode="e" horiz-adv-x="573" d="M313 -10Q233 -10 173 24T80 117T46 255Q46 342 80 403T170 497T288 530Q334 530 377 513T453 464T506 386T527 284Q527 268 515 257T487 246H92L74 315H459L443 301V323Q439 364 416 393T359 439T288 455Q258 455 229
445T176 411T138 350T123 261Q123 203 146 159T212 90T310 64Q345 64 371 73T416 95T448 123Q461 132 473 132Q488 132 497 122T507 98Q507 81 491 68Q463 37 415 14T313 -10Z" />
<glyph unicode="f" horiz-adv-x="386" d="M290 738Q307 738 325 734T357 720T371 693Q371 677 361 667T337 656Q328 656 312 661T279 667Q256 667 242 657T221 631T214 594V41Q214 24 203 12T174 0Q156 0 145 12T134 41V593Q134 660 175 699T290 738ZM318 509Q334
509 345 499T356 472Q356 456 345 446T318 435H67Q51 435 40 446T29 472Q29 489 40 499T67 509H318Z" />
<glyph unicode="g" horiz-adv-x="629" d="M291 530Q334 530 371 516T435 478T478 430T494 383L475 395V482Q475 499 486 510T515 522Q532 522 543 511T555 482V44Q555 -38 521 -92T428 -173T298 -200Q268 -200 232 -192T168 -173T132 -149Q117 -139 114 -127T118
-103Q127 -89 141 -89T178 -98Q187 -101 206 -108T250 -120T299 -126Q384 -126 429 -82T475 36V129L486 124Q480 96 462 72T417 30T358 1T293 -10Q223 -10 167 25T79 121T46 260Q46 339 78 400T166 495T291 530ZM301 456Q250 456 210 431T147 361T124 260Q124 205
146 161T209 90T301 64Q353 64 393 89T456 159T479 260Q479 318 456 362T393 431T301 456Z" />
<glyph unicode="h" horiz-adv-x="574" d="M324 525Q390 525 428 497T483 421T500 315V41Q500 24 489 12T460 0Q443 0 432 12T420 41V315Q420 353 409 383T373 432T303 451Q262 451 228 433T174 384T154 315V41Q154 24 143 12T114 0Q97 0 86 12T74 41V700Q74 717
85 728T114 740Q132 740 143 729T154 700V401L134 379Q139 405 156 431T199 479T257 512T324 525Z" />
<glyph unicode="i" horiz-adv-x="221" d="M151 41Q151 24 140 12T111 0Q93 0 82 12T71 41V485Q71 502 82 513T111 525Q128 525 139 514T151 485V41ZM111 592Q86 592 74 602T62 633V647Q62 668 75 678T112 688Q136 688 148 678T160 647V633Q160 612 148 602T111 592Z" />
<glyph unicode="j" horiz-adv-x="272" d="M168 -34Q168 -85 146 -121T89 -177T18 -197Q1 -197 -9 -186T-20 -160V-153Q-20 -138 -10 -129T15 -116Q38 -110 54 -98T79 -65T88 -16V477Q88 494 99 506T128 518Q146 518 157 506T168 477V-34ZM128 592Q103 592 91 602T79
633V647Q79 668 92 678T129 688Q153 688 165 678T177 647V633Q177 612 165 602T128 592Z" />
<glyph unicode="k" horiz-adv-x="547" d="M122 0Q104 0 93 12T82 41V700Q82 717 93 728T122 740Q139 740 150 729T162 700V41Q162 24 151 12T122 0ZM454 520Q470 520 481 508T493 482Q493 465 477 452L153 169L150 262L426 508Q438 520 454 520ZM465 1Q448 1 435
14L222 241L282 296L493 70Q505 57 505 40Q505 22 491 12T465 1Z" />
<glyph unicode="l" horiz-adv-x="243" d="M162 41Q162 24 150 12T121 0Q104 0 93 12T82 41V700Q82 717 93 728T122 740Q140 740 151 729T162 700V41Z" />
<glyph unicode="m" horiz-adv-x="916" d="M321 525Q389 525 431 491T488 393H473L480 411Q492 439 521 465T588 508T667 525Q733 525 771 497T825 421T842 314V41Q842 24 831 12T802 0Q784 0 773 12T762 41V312Q762 351 751 382T714 432T644 451Q603 451 569 433T515
383T495 312V41Q495 24 484 12T455 0Q438 0 427 12T415 41V315Q415 353 405 383T369 432T300 451Q260 451 227 433T174 384T154 315V41Q154 24 143 12T114 0Q97 0 86 12T74 41V477Q74 494 85 505T114 517Q132 517 143 506T154 477V401L132 377Q136 403 152 429T195
477T253 512T321 525Z" />
<glyph unicode="n" horiz-adv-x="584" d="M331 530Q399 530 438 502T493 427T510 322V41Q510 24 499 12T470 0Q453 0 442 12T430 41V320Q430 358 419 388T381 437T308 456Q266 456 231 438T175 389T154 320V41Q154 24 143 12T114 0Q97 0 86 12T74 41V477Q74 494
85 505T114 517Q132 517 143 506T154 477V406L134 384Q139 410 157 436T202 484T262 517T331 530Z" />
<glyph unicode="o" horiz-adv-x="611" d="M565 260Q565 182 531 121T438 25T306 -10Q233 -10 174 25T81 121T46 260Q46 338 80 399T174 495T306 530Q379 530 437 495T530 399T565 260ZM485 260Q485 318 462 362T398 431T306 456Q255 456 215 431T150 362T126 260Q126
203 150 159T214 90T306 64Q357 64 397 89T461 159T485 260Z" />
<glyph unicode="p" horiz-adv-x="614" d="M329 525Q397 525 451 491T536 397T568 259Q568 182 537 122T452 27T331 -8Q294 -8 262 3T203 33T158 75T132 122L154 136V-159Q154 -176 143 -188T114 -200Q97 -200 86 -189T74 -159V480Q74 497 85 508T114 520Q132 520
143 509T154 480V391L139 399Q146 424 163 447T206 487T263 515T329 525ZM320 451Q270 451 232 426T172 358T150 259Q150 204 171 160T231 91T320 66Q370 66 408 91T468 160T490 259Q490 315 468 358T408 426T320 451Z" />
<glyph unicode="q" horiz-adv-x="614" d="M500 520Q517 520 528 509T540 480V-159Q540 -176 529 -188T500 -200Q482 -200 471 -188T460 -159V136L479 143Q479 119 464 93T423 43T362 5T285 -10Q218 -10 164 25T78 121T46 260Q46 339 77 400T163 495T283 530Q325
530 362 516T426 478T470 425T486 367L460 373V480Q460 497 471 508T500 520ZM294 64Q344 64 382 89T442 159T464 260Q464 317 443 361T383 430T294 456Q245 456 207 431T146 361T124 260Q124 205 146 161T206 90T294 64Z" />
<glyph unicode="r" horiz-adv-x="401" d="M114 0Q97 0 86 12T74 41V477Q74 494 85 505T114 517Q132 517 143 506T154 477V345L142 366Q148 397 163 426T203 479T258 516T326 530Q348 530 366 520T385 490Q385 469 374 459T349 449Q336 449 324 454T294 460Q269
460 245 447T200 408T167 352T154 284V41Q154 24 143 12T114 0Z" />
<glyph unicode="s" horiz-adv-x="474" d="M45 82Q36 95 37 109T54 135Q64 142 77 141T102 128Q130 95 166 76T254 56Q278 57 302 64T342 88T359 135Q359 163 342 179T298 206T239 225Q206 234 174 245T117 274T76 318T60 383Q60 428 84 461T150 512T241 530Q269
530 299 524T359 502T410 459Q419 449 420 434T407 407Q396 399 383 400T360 410Q339 435 308 448T238 462Q214 462 191 455T153 432T137 386Q138 359 155 342T201 315T265 294Q297 286 326 276T380 248T418 205T432 138Q432 92 406 59T338 8T246 -10Q191 -10 138
11T45 82Z" />
<glyph unicode="t" horiz-adv-x="363" d="M54 514H289Q305 514 315 503T326 477Q326 461 316 451T289 440H54Q39 440 28 451T17 478Q17 493 28 503T54 514ZM159 650Q176 650 187 639T198 610V127Q198 103 205 91T223 75T246 70Q256 70 263 73T281 77Q291 77 299
68T308 43Q308 25 287 13T240 0Q226 0 206 2T165 15T132 51T118 123V610Q118 627 130 638T159 650Z" />
<glyph unicode="u" horiz-adv-x="575" d="M461 517Q479 517 490 506T501 477V204Q501 103 445 48T287 -8Q187 -8 131 47T74 204V477Q74 494 85 505T114 517Q132 517 143 506T154 477V204Q154 136 189 101T287 66Q352 66 386 101T421 204V477Q421 494 432 505T461 517Z" />
<glyph unicode="v" horiz-adv-x="540" d="M74 526Q86 526 97 520T113 501L279 111L263 103L432 500Q443 527 469 526Q484 526 495 516T506 491Q506 485 505 480T501 470L308 26Q297 1 273 0Q260 -1 249 5T232 26L39 469Q37 473 36 478T34 490Q34 503 44 514T74 526Z" />
<glyph unicode="w" horiz-adv-x="757" d="M684 526Q700 526 711 515T723 486Q723 482 723 478T720 469L566 26Q561 13 550 6T525 0Q502 1 490 26L364 342L384 339L270 26Q259 1 235 0Q222 -1 210 6T194 26L37 469Q34 478 34 486Q34 502 45 514T75 526Q87 526 97
520T111 501L246 107L225 108L342 408Q352 433 379 433Q393 433 401 427T414 408L536 108L511 106L646 501Q655 526 684 526Z" />
<glyph unicode="x" horiz-adv-x="485" d="M69 523Q88 523 101 506L449 62Q457 51 457 38Q457 21 445 9T417 -3Q398 -3 384 15L36 458Q28 469 28 482Q28 500 40 511T69 523ZM69 -2Q56 -2 43 8T30 34Q30 47 40 59L204 266L246 200L101 14Q89 -2 69 -2ZM417 523Q434
523 444 512T455 487Q455 481 453 474T445 461L282 252L240 313L384 505Q398 523 417 523Z" />
<glyph unicode="y" horiz-adv-x="575" d="M461 525Q478 525 489 514T501 485V49Q501 -35 468 -90T380 -173T254 -200Q215 -200 179 -192T120 -171Q101 -162 94 -149T91 -120Q98 -102 111 -95T140 -95Q156 -102 186 -114T255 -127Q307 -127 344 -107T401 -49T421
47V118L433 93Q417 62 390 39T328 3T251 -10Q194 -10 155 14T95 82T74 183V485Q74 502 85 513T114 525Q132 525 143 514T154 485V201Q154 133 184 99T277 64Q317 64 349 82T401 131T421 201V485Q421 502 432 513T461 525Z" />
<glyph unicode="z" horiz-adv-x="481" d="M402 74Q418 74 429 64T440 37Q440 22 429 11T402 0H78Q60 0 50 13T40 37Q41 47 43 54T52 70L338 457L339 446H97Q81 446 70 457T59 484Q59 499 70 509T97 520H404Q420 520 430 509T441 480Q440 473 438 467T430 451L147
69L140 74H402Z" />
<glyph unicode="{" horiz-adv-x="419" d="M357 -201Q354 -201 352 -201T346 -200Q270 -183 230 -157T174 -92T159 -5L160 86Q160 124 149 154T115 201T56 219H51Q37 219 28 228T18 252Q18 266 27 275T51 284H57Q94 285 116 302T149 350T160 418L159 508Q159 552
171 584T206 638T263 676T345 703Q368 708 377 697T386 674Q386 664 380 656T361 645Q308 628 281 609T245 564T235 497L236 407Q236 346 210 305T137 251L136 253Q185 239 210 199T236 96L235 7Q235 -33 244 -59T280 -105T361 -141Q387 -150 386 -174Q385 -184
377 -192T357 -201Z" />
<glyph unicode="|" horiz-adv-x="219" d="M150 -122Q150 -139 139 -150T109 -162Q92 -162 81 -151T70 -122V750Q70 767 81 779T110 791Q128 791 139 779T150 750V-122Z" />
<glyph unicode="}" horiz-adv-x="419" d="M61 -200Q47 -200 40 -189T33 -169Q33 -159 40 -152T58 -140Q112 -123 138 -105T174 -59T184 8L183 97Q183 159 209 200T282 254L283 251Q235 266 209 306T183 408L184 498Q184 538 175 564T139 610T58 646Q32 655 33
678Q34 689 42 697T62 705Q65 705 67 705T73 704Q150 689 190 662T245 596T260 509L259 419Q259 380 270 350T304 303T363 285H368Q382 285 391 276T401 252Q401 239 392 230T368 220H362Q325 220 303 203T270 155T259 87L260 -4Q260 -40 251 -68T221 -118T164
-160T73 -199Q70 -200 68 -200T61 -200Z" />
<glyph unicode="~" horiz-adv-x="489" d="M342 259Q321 259 295 268T239 288T186 308T145 317Q132 317 124 310T113 285Q115 271 107 263T86 254Q71 254 61 266T50 301Q50 326 61 346T95 379T153 391Q174 391 201 382T255 362T307 342T348 333Q361 333 368 341T376
365Q373 380 381 389T403 398Q417 398 428 387T439 357Q439 311 416 285T342 259Z" />
<glyph unicode="&#xa0;" horiz-adv-x="275" />
<glyph unicode="&#xa1;" horiz-adv-x="213" d="M106 317Q130 317 132 290L149 -127Q150 -149 139 -164T107 -179Q85 -179 74 -164T64 -127L81 290Q83 317 106 317ZM111 521Q132 521 143 509T154 476V456Q154 435 143 423T111 410H102Q81 410 70 422T59 456V476Q59
497 70 509T102 521H111Z" />
<glyph unicode="&#xa2;" horiz-adv-x="514" d="M328 41Q328 24 317 12T287 0Q270 0 259 12T248 41V105L253 136V568L248 602V662Q248 679 259 691T288 703Q306 703 317 691T328 662V603L323 575V130L328 103V41ZM295 80Q219 80 162 115T74 212T42 350Q42 426 74
487T165 584T299 620Q350 620 391 609T456 579T480 536Q480 523 471 511T444 498Q432 498 424 502T409 515T389 531Q374 544 352 548T296 552Q247 552 208 526T145 455T122 350Q122 291 144 246T207 174T299 147Q338 147 359 154T395 174Q411 185 421 195T448 205Q465
205 474 194T483 166Q483 148 458 128T391 94T295 80Z" />
<glyph unicode="&#xa3;" horiz-adv-x="618" d="M77 327Q61 327 50 337T39 364Q39 379 50 389T77 399H417Q433 399 444 388T455 362Q455 346 444 337T417 327H77ZM227 97Q268 97 310 86T393 64T469 52Q493 52 513 59T547 75Q555 82 563 84T577 87Q595 87 603 76T611
51Q611 33 599 21T565 1Q543 -11 517 -16T469 -22Q441 -21 408 -14T340 2T274 17T217 24Q197 25 176 21T137 13T111 6Q95 3 84 -3T62 -10Q49 -10 40 0T31 24Q31 38 40 49T66 67Q95 76 121 82T174 93T227 97ZM175 40L115 59Q128 66 140 84T162 129T171 190Q171 228
163 264T143 335T123 407T114 483Q114 551 141 602T218 681T336 710Q385 710 430 695T505 652Q520 641 529 629T538 606Q538 590 526 578T496 565Q488 565 481 568T468 576Q445 603 412 618T337 633Q293 633 262 613T214 559T197 482Q197 446 205 410T225 338T245
270T254 206Q254 168 243 137T213 81T175 40Z" />
<glyph unicode="&#xa4;" horiz-adv-x="522" d="M98 498Q113 498 126 485L191 423Q184 416 174 405T153 384T135 365L71 427Q57 441 57 455Q57 465 63 474T79 491T98 498ZM421 497Q431 497 440 491T456 476T463 456Q463 442 449 428L384 366Q377 374 367 384T347
405T330 423L393 484Q406 497 421 497ZM421 105Q407 105 393 119L331 178Q338 186 348 196T369 218T387 236L449 175Q462 162 462 148Q462 139 456 129T441 112T421 105ZM98 106Q89 106 80 112T63 128T56 147Q56 161 71 176L137 240Q144 233 154 223T175 201T193
183L126 119Q113 106 98 106ZM261 129Q214 129 176 152T115 214T92 301Q92 349 114 388T175 450T261 474Q308 474 346 451T408 388T431 301Q431 254 408 215T347 152T261 129ZM261 199Q289 199 309 212T341 249T353 301Q353 330 342 353T310 389T261 403Q235 403
214 390T181 353T169 301Q169 273 181 250T214 213T261 199Z" />
<glyph unicode="&#xa5;" horiz-adv-x="572" d="M131 141Q113 141 102 151T90 177Q90 193 101 203T131 213L455 211Q473 211 484 201T496 175Q496 160 485 150T455 139L131 141ZM130 278Q112 278 101 288T89 314Q89 330 100 340T130 350L454 348Q472 348 483 338T495
312Q495 297 484 287T454 276L130 278ZM514 704Q531 704 542 692T554 663Q554 657 553 651T547 638L318 315L332 364V41Q332 24 320 12T289 0Q270 0 258 12T246 41V356L252 330L30 634Q24 642 22 649T19 664Q19 675 26 684T44 699T64 704Q85 704 97 685L302 389L283
392L481 684Q487 694 496 699T514 704Z" />
<glyph unicode="&#xa6;" horiz-adv-x="225" d="M153 429Q153 412 142 400T112 388Q95 388 84 400T73 429V750Q73 767 84 779T113 791Q131 791 142 779T153 750V429ZM152 -122Q152 -139 141 -150T112 -162Q95 -162 84 -151T72 -122V200Q72 217 83 228T113 240Q130
240 141 229T152 200V-122Z" />
<glyph unicode="&#xa7;" horiz-adv-x="542" d="M502 279Q499 214 451 178T314 134L359 177Q413 147 439 117T466 36Q466 6 455 -24T419 -81T358 -123T268 -139Q226 -139 185 -128T110 -99T57 -62Q49 -53 44 -42T40 -18Q41 -3 52 7T78 17Q84 17 92 15T110 3Q124
-12 144 -27T195 -53T267 -64Q284 -64 304 -61T343 -48T373 -22T385 23Q385 49 364 68T304 101T217 129Q139 149 96 188T53 291Q53 309 60 332T83 379T129 418T205 439L196 404Q143 426 121 461T98 537Q98 584 117 617T168 672T233 702T299 710Q353 708 393 688T461
635Q469 627 469 612Q469 597 459 585T428 574Q421 574 415 579Q391 602 360 616T291 631Q262 631 237 622T195 595T179 547Q179 521 195 503T234 472T282 453T324 442Q412 420 458 382T502 279ZM238 210L322 191Q352 190 374 201T408 230T421 270Q421 301 400
319T334 351L236 375Q212 378 190 369T154 342T140 298Q140 273 161 251T238 210Z" />
<glyph unicode="&#xa8;" horiz-adv-x="407" d="M293 600Q270 600 258 611T246 643V656Q246 679 259 689T295 699Q318 699 330 689T342 656V643Q342 620 330 610T293 600ZM112 600Q89 600 77 611T65 643V656Q65 678 77 688T113 699Q137 699 149 689T161 656V643Q161
620 149 610T112 600Z" />
<glyph unicode="&#xa9;" horiz-adv-x="790" d="M395 -5Q322 -5 258 22T144 97T68 210T40 350Q40 426 67 490T144 603T257 678T395 705Q468 705 532 678T646 603T722 491T750 350Q750 275 723 210T646 97T533 22T395 -5ZM395 51Q457 51 511 73T606 136T670 231T693
350Q693 414 670 468T606 563T511 626T395 649Q334 649 280 627T185 564T121 469T97 350Q97 286 120 232T184 137T280 74T395 51ZM413 147Q355 147 308 173T232 244T204 350Q204 406 231 452T305 525T413 553Q474 553 523 523Q536 516 538 501T532 475Q525 465
513 464T490 468Q473 478 454 483T413 489Q370 489 338 471T287 421T269 350Q269 309 287 278T338 229T413 211Q434 211 453 217T491 232Q501 238 513 236T532 224Q541 213 539 199T523 176Q499 162 471 155T413 147Z" />
<glyph unicode="&#xaa;" horiz-adv-x="352" d="M144 391Q102 391 74 414T32 475T18 560Q18 604 35 640T83 697T155 718Q203 718 232 686T262 590L247 641V679Q247 691 256 700T282 709Q298 709 307 700T317 679V431Q317 418 307 410T282 401Q266 401 257 410T247
431V474L262 510Q262 485 247 458T206 411T144 391ZM167 449Q202 449 226 477T251 555Q251 604 229 632T169 660Q136 660 112 631T88 560Q88 515 107 482T167 449Z" />
<glyph unicode="&#xab;" horiz-adv-x="465" d="M390 50Q373 50 362 65L235 237Q228 248 228 260Q228 272 235 282L363 453Q374 468 391 468Q404 468 415 459T427 434Q427 421 417 408L304 253L302 269L419 112Q423 106 425 100T428 88Q428 69 415 60T390 50ZM439
50Q422 50 411 65L284 237Q277 248 277 260Q277 272 284 282L412 453Q423 468 440 468Q453 468 464 459T476 434Q476 421 466 408L353 253L351 269L468 112Q472 106 474 100T477 88Q477 69 464 60T439 50Z" />
<glyph unicode="&#xac;" horiz-adv-x="661" d="M568 143Q550 143 538 154T525 184V353L543 342H87Q71 342 61 353T50 383Q50 400 60 411T87 422H573Q590 422 600 412T611 384V185Q611 166 599 155T568 143Z" />
<glyph unicode="&#xad;" horiz-adv-x="392" d="M95 271Q78 271 67 282T55 312Q55 329 66 340T95 351H297Q314 351 325 339T337 310Q337 293 326 282T297 271H95Z" />
<glyph unicode="&#xae;" horiz-adv-x="519" d="M199 363Q190 363 183 369T176 385V584Q176 591 181 596T194 602H271Q306 602 327 584T349 532Q349 510 334 495T296 473L295 479Q310 474 321 460T334 426Q334 412 336 405T345 395Q352 391 353 385T351 374Q347
366 338 364T319 364Q309 366 300 380T290 422Q290 437 283 447T256 457H212L221 467V385Q221 376 215 370T199 363ZM263 497Q281 497 293 505T306 530Q306 546 295 553T266 560H209L221 569V490L213 497H263ZM260 259Q198 259 147 288T66 369T35 484Q35 547 65
598T147 678T260 708Q322 708 372 679T453 598T484 484Q484 420 454 369T373 289T260 259ZM260 307Q309 307 348 330T410 393T434 484Q434 535 411 574T348 637T260 660Q211 660 171 637T108 575T84 484Q84 433 107 393T171 330T260 307Z" />
<glyph unicode="&#xaf;" horiz-adv-x="411" d="M85 583Q50 583 50 616Q50 648 85 648H326Q361 648 361 616Q361 583 326 583H85Z" />
<glyph unicode="&#xb0;" horiz-adv-x="353" d="M176 409Q134 409 101 429T48 484T28 558Q28 599 47 633T100 687T176 708Q220 708 253 688T306 634T325 559Q325 519 306 485T253 430T176 409ZM176 468Q213 468 236 495T260 559Q260 594 237 621T176 649Q140 649
117 622T93 558Q93 523 116 496T176 468Z" />
<glyph unicode="&#xb1;" d="M87 385Q71 385 60 396T49 423Q49 439 60 449T87 460H462Q478 460 489 449T500 422Q500 406 489 396T462 385H87ZM276 239Q257 239 245 251T233 282V574Q233 593 245 605T276 617Q296 617 307 605T319 575V282Q319 263 307 251T276
239ZM84 105Q67 105 56 116T45 143Q45 159 56 170T84 181H458Q474 181 485 171T496 142Q496 125 485 115T458 105H84Z" />
<glyph unicode="&#xb2;" horiz-adv-x="333" d="M83 451Q69 451 60 460T50 484Q50 492 54 498T65 513L144 595Q167 621 187 645T208 696Q208 714 197 725T163 736Q147 736 132 727T110 700Q106 693 100 689T85 685Q70 685 62 693T53 713Q53 730 69 749T111 783T171
797Q208 797 232 782T267 745T279 698Q279 672 267 650T238 609T203 570L135 500L130 509H252Q265 509 274 501T283 480Q283 468 274 460T252 451H83Z" />
<glyph unicode="&#xb3;" horiz-adv-x="327" d="M158 444Q131 444 108 450T68 468Q53 478 53 496Q53 508 61 517T82 527Q88 527 92 525T104 518Q110 514 123 508T153 502Q179 502 199 517T220 559Q220 582 204 594T162 606Q149 606 137 602T109 595Q97 594 89 602T80
622Q80 628 81 634T88 645L192 738L206 730H90Q77 730 68 739T59 760Q59 773 68 781T90 789H238Q252 789 261 781T271 758Q272 743 262 733L164 647L147 650Q150 653 160 656T178 659Q211 659 235 648T272 614T285 560Q285 524 267 498T219 458T158 444Z" />
<glyph unicode="&#xb4;" horiz-adv-x="275" d="M91 573Q84 573 77 579T69 595Q69 602 75 611L135 709Q141 719 151 728T175 737Q195 737 205 727T215 699Q214 691 211 684T202 669L126 589Q119 581 110 577T91 573Z" />
<glyph unicode="&#xb5;" horiz-adv-x="571" d="M121 -155Q102 -155 92 -144T81 -115L80 475Q80 492 91 503T120 515Q138 515 149 504T160 475V211Q160 171 171 138T207 85T275 65Q306 65 332 77T378 109T410 156T421 211V475Q421 492 432 503T461 515Q479 515
490 504T501 475V41Q501 24 490 12T461 0Q444 0 433 12T421 41V102L423 94Q416 74 394 50T339 8T264 -10Q243 -10 219 -1T176 25T150 67L160 70V-115Q160 -133 150 -144T121 -155Z" />
<glyph unicode="&#xb6;" horiz-adv-x="626" d="M504 0Q493 0 482 8T471 35V663L488 643H375L389 658V63Q389 23 373 -4T328 -46T265 -61Q238 -61 216 -53T185 -32Q178 -24 177 -12T186 9Q193 17 203 17T221 14Q231 10 241 7T262 3Q290 3 307 22T324 74V307L345
275H281Q197 276 144 297T67 366T43 487Q43 566 70 612T158 679T313 700H506Q519 700 527 692T536 670V35Q536 17 526 9T504 0Z" />
<glyph unicode="&#xb7;" horiz-adv-x="204" d="M98 247Q77 247 65 259T52 292V312Q52 334 64 346T98 358H106Q128 358 140 346T152 312V292Q152 271 140 259T106 247H98Z" />
<glyph unicode="&#xb8;" horiz-adv-x="272" d="M91 -146Q83 -146 71 -142T50 -129T41 -109Q41 -97 49 -87L133 20H183L122 -122Q112 -146 91 -146Z" />
<glyph unicode="&#xb9;" horiz-adv-x="255" d="M158 457Q144 457 135 466T126 490L125 725L132 712L86 683Q81 680 75 678T64 675Q49 675 41 686T33 708Q33 726 51 736L134 785Q147 792 157 791Q171 790 180 781T189 755L190 490Q190 476 181 467T158 457Z" />
<glyph unicode="&#xba;" horiz-adv-x="349" d="M329 549Q329 504 309 469T254 413T173 392Q130 392 95 412T40 468T20 549Q20 595 40 631T95 688T173 710Q218 710 253 689T309 631T329 549ZM263 549Q263 592 239 620T174 649Q134 649 111 621T87 549Q87 509 110
481T174 453Q215 453 239 481T263 549Z" />
<glyph unicode="&#xbb;" horiz-adv-x="464" d="M283 468Q300 468 311 453L437 281Q445 271 445 258Q445 247 437 237L310 65Q299 50 282 50Q269 50 257 59T245 85Q245 98 255 110L369 265L370 250L254 407Q249 413 247 419T245 431Q245 450 258 459T283 468ZM76
468Q93 468 104 453L230 281Q238 271 238 258Q238 247 230 237L103 65Q92 50 75 50Q62 50 50 59T38 85Q38 98 48 110L162 265L163 250L47 407Q42 413 40 419T38 431Q38 450 51 459T76 468Z" />
<glyph unicode="&#xbc;" horiz-adv-x="734" d="M170 371Q156 371 147 380T138 404L137 639L144 626L98 597Q93 594 87 592T76 589Q61 589 53 600T45 622Q45 640 63 650L146 699Q159 706 169 705Q183 704 192 695T201 669L202 404Q202 390 193 381T170 371ZM146
-2Q133 -2 122 7T110 32Q110 41 116 53L534 686Q546 703 563 703Q576 703 587 694T599 669Q599 659 592 648L174 14Q162 -2 146 -2ZM598 -3Q585 -3 576 6T566 29V276L590 264L471 121L474 137H659Q689 136 689 108Q689 79 659 79H443Q428 79 417 89T406 114Q406
120 408 126T414 137L564 323Q571 331 580 334T595 337Q611 337 620 327T630 302V29Q630 15 621 6T598 -3Z" />
<glyph unicode="&#xbd;" horiz-adv-x="725" d="M170 371Q156 371 147 380T138 404L137 639L144 626L98 597Q93 594 87 592T76 589Q61 589 53 600T45 622Q45 640 63 650L146 699Q159 706 169 705Q183 704 192 695T201 669L202 404Q202 390 193 381T170 371ZM132
-2Q119 -2 108 7T96 32Q96 41 102 53L520 686Q532 703 549 703Q562 703 573 694T585 669Q585 659 578 648L160 14Q148 -2 132 -2ZM480 0Q466 0 457 9T447 33Q447 41 451 47T462 62L541 144Q564 170 584 194T605 245Q605 263 594 274T560 285Q544 285 529 276T507
249Q503 242 497 238T482 234Q467 234 459 242T450 262Q450 279 466 298T508 332T568 346Q605 346 629 331T664 294T676 247Q676 221 664 199T635 158T600 119L532 49L527 58H649Q662 58 671 50T680 29Q680 17 671 9T649 0H480Z" />
<glyph unicode="&#xbe;" horiz-adv-x="773" d="M156 358Q129 358 106 364T66 382Q51 392 51 410Q51 422 59 431T80 441Q86 441 90 439T102 432Q108 428 121 422T151 416Q177 416 197 431T218 473Q218 496 202 508T160 520Q147 520 135 516T107 509Q95 508 87 516T78
536Q78 542 79 548T86 559L190 652L204 644H88Q75 644 66 653T57 674Q57 687 66 695T88 703H236Q250 703 259 695T269 672Q270 657 260 647L162 561L145 564Q148 567 158 570T176 573Q209 573 233 562T270 528T283 474Q283 438 265 412T217 372T156 358ZM174 -2Q161
-2 150 7T138 32Q138 41 144 53L562 686Q574 703 591 703Q604 703 615 694T627 669Q627 659 620 648L202 14Q190 -2 174 -2ZM637 -3Q624 -3 615 6T605 29V276L629 264L510 121L513 137H698Q728 136 728 108Q728 79 698 79H482Q467 79 456 89T445 114Q445 120 447
126T453 137L603 323Q610 331 619 334T634 337Q650 337 659 327T669 302V29Q669 15 660 6T637 -3Z" />
<glyph unicode="&#xbf;" horiz-adv-x="493" d="M316 212Q316 195 305 183T276 171Q233 170 198 152T142 102T121 25Q121 -17 139 -49T190 -99T261 -117Q298 -117 330 -101T385 -59Q395 -49 410 -45T440 -51Q456 -62 458 -78T447 -110Q414 -149 366 -172T261 -196Q200
-196 150 -168T70 -91T40 25Q40 68 55 105T99 171T163 217T243 237Q246 238 243 238T237 234V317Q237 334 248 345T277 357Q294 357 305 346T316 317V212ZM278 541Q300 541 311 529T322 496V476Q322 455 311 443T278 430H270Q249 430 238 442T226 476V496Q226 517
237 529T270 541H278Z" />
<glyph unicode="&#xc0;" horiz-adv-x="644" d="M330 596L95 24Q91 12 81 5T60 -2Q41 -2 32 8T23 32Q22 39 25 47L284 677Q289 691 299 697T323 703Q336 703 346 696T361 677L619 53Q622 45 622 37Q622 19 610 9T583 -2Q571 -2 561 5T546 25L308 597L330 596ZM145
187L179 265H476L491 187H145ZM323 745Q317 745 312 747T301 752L202 802Q177 816 177 840Q177 856 188 866T215 877Q225 877 234 873T250 862L338 790Q344 785 347 780T350 769Q350 759 343 752T323 745Z" />
<glyph unicode="&#xc1;" horiz-adv-x="644" d="M330 596L95 24Q91 12 81 5T60 -2Q41 -2 32 8T23 32Q22 39 25 47L284 677Q289 691 299 697T323 703Q336 703 346 696T361 677L619 53Q622 45 622 37Q622 19 610 9T583 -2Q571 -2 561 5T546 25L308 597L330 596ZM145
187L179 265H476L491 187H145ZM327 743Q314 743 307 750T300 767Q300 773 303 778T311 788L399 860Q407 866 416 870T435 875Q449 875 461 865T473 838Q473 826 467 816T447 800L349 750Q344 747 338 745T327 743Z" />
<glyph unicode="&#xc2;" horiz-adv-x="644" d="M330 596L95 24Q91 12 81 5T60 -2Q41 -2 32 8T23 32Q22 39 25 47L284 677Q289 691 299 697T323 703Q336 703 346 696T361 677L619 53Q622 45 622 37Q622 19 610 9T583 -2Q571 -2 561 5T546 25L308 597L330 596ZM145
187L179 265H476L491 187H145ZM335 833L248 770Q237 763 229 759T213 754Q204 754 198 760T192 773Q192 778 194 782T202 794L274 873Q284 883 293 888T317 893H330Q344 893 353 888T372 873L444 794Q450 788 452 784T455 773Q455 767 449 761T433 755Q426 755
418 759T398 771L311 831L335 833Z" />
<glyph unicode="&#xc3;" horiz-adv-x="644" d="M330 596L95 24Q91 12 81 5T60 -2Q41 -2 32 8T23 32Q22 39 25 47L284 677Q289 691 299 697T323 703Q336 703 346 696T361 677L619 53Q622 45 622 37Q622 19 610 9T583 -2Q571 -2 561 5T546 25L308 597L330 596ZM145
187L179 265H476L491 187H145ZM193 759Q177 759 168 773T160 812Q164 845 190 866T255 887Q282 887 308 872T359 842T400 827Q413 827 421 836T429 860Q426 876 434 885T455 894Q473 894 482 880T490 842Q487 822 477 804T448 776T404 765Q376 765 348 779T295
808T252 823Q240 823 231 815T220 791Q222 776 214 768T193 759Z" />
<glyph unicode="&#xc4;" horiz-adv-x="644" d="M330 596L95 24Q91 12 81 5T60 -2Q41 -2 32 8T23 32Q22 39 25 47L284 677Q289 691 299 697T323 703Q336 703 346 696T361 677L619 53Q622 45 622 37Q622 19 610 9T583 -2Q571 -2 561 5T546 25L308 597L330 596ZM145
187L179 265H476L491 187H145ZM414 770Q390 770 378 780T366 813V826Q366 849 378 859T414 869Q438 869 450 859T462 826V813Q462 791 450 781T414 770ZM233 770Q209 770 197 780T185 813V826Q185 849 198 859T234 869Q257 869 269 859T281 826V813Q281 791 269
781T233 770Z" />
<glyph unicode="&#xc5;" horiz-adv-x="646" d="M324 653Q296 653 272 667T233 704T218 755Q218 783 232 806T271 843T324 857Q352 857 376 844T415 807T430 755Q430 727 415 704T376 667T324 653ZM324 704Q346 704 361 719T377 755Q377 778 361 792T324 806Q302
806 287 792T271 755Q271 734 286 719T324 704ZM330 596L95 24Q91 12 81 5T60 -2Q41 -2 32 8T23 32Q22 39 25 47L284 677Q289 691 299 697T323 703Q336 703 346 696T361 677L619 53Q622 45 622 37Q622 19 610 9T583 -2Q571 -2 561 5T546 25L308 597L330 596ZM145
187L179 265H476L491 187H145Z" />
<glyph unicode="&#xc6;" horiz-adv-x="908" d="M183 237H458L441 210V585L458 571L74 14Q62 -3 44 -3Q31 -3 20 7T7 34Q6 48 15 60L450 683Q457 693 466 696T487 700H822Q839 700 851 689T863 661Q863 644 851 634T822 623H515L523 632V381L516 396H777Q794 396
806 385T818 356Q818 339 806 329T777 318H514L523 330V60L515 78H822Q839 78 851 66T863 39Q863 22 851 11T822 0H481Q464 0 453 12T441 41V174L462 160H134L183 237Z" />
<glyph unicode="&#xc7;" horiz-adv-x="645" d="M592 654Q609 645 611 627T602 594Q593 581 579 580T551 586Q518 606 480 617T400 629Q341 629 292 609T207 551T151 463T131 350Q131 284 152 232T209 144T294 88T400 69Q441 69 479 80T551 112Q565 119 579 117T603
103Q615 87 612 70T593 44Q568 29 536 17T470 -3T400 -10Q328 -10 264 15T151 87T74 200T45 350Q45 428 72 493T147 606T260 681T400 708Q452 708 501 694T592 654ZM336 -146Q328 -146 316 -142T295 -129T286 -109Q286 -97 294 -87L378 20H428L367 -122Q357 -146
336 -146Z" />
<glyph unicode="&#xc8;" horiz-adv-x="570" d="M128 700H484Q501 700 513 689T525 661Q525 644 513 634T484 623H162L171 640V387L161 398H439Q456 398 468 387T480 359Q480 342 468 332T439 321H164L171 330V71L165 78H484Q501 78 513 66T525 39Q525 22 513 11T484
0H128Q111 0 100 12T88 41V660Q88 677 99 688T128 700ZM314 745Q308 745 303 747T292 752L193 802Q168 816 168 840Q168 856 179 866T206 877Q216 877 225 873T241 862L329 790Q335 785 338 780T341 769Q341 759 334 752T314 745Z" />
<glyph unicode="&#xc9;" horiz-adv-x="570" d="M128 700H484Q501 700 513 689T525 661Q525 644 513 634T484 623H162L171 640V387L161 398H439Q456 398 468 387T480 359Q480 342 468 332T439 321H164L171 330V71L165 78H484Q501 78 513 66T525 39Q525 22 513 11T484
0H128Q111 0 100 12T88 41V660Q88 677 99 688T128 700ZM317 743Q304 743 297 750T290 767Q290 773 293 778T301 788L389 860Q397 866 406 870T425 875Q439 875 451 865T463 838Q463 826 457 816T437 800L339 750Q334 747 328 745T317 743Z" />
<glyph unicode="&#xca;" horiz-adv-x="570" d="M128 700H484Q501 700 513 689T525 661Q525 644 513 634T484 623H162L171 640V387L161 398H439Q456 398 468 387T480 359Q480 342 468 332T439 321H164L171 330V71L165 78H484Q501 78 513 66T525 39Q525 22 513 11T484
0H128Q111 0 100 12T88 41V660Q88 677 99 688T128 700ZM325 833L238 770Q227 763 219 759T203 754Q194 754 188 760T182 773Q182 778 184 782T192 794L264 873Q274 883 283 888T307 893H320Q334 893 343 888T362 873L434 794Q440 788 442 784T445 773Q445 767 439
761T423 755Q416 755 408 759T388 771L301 831L325 833Z" />
<glyph unicode="&#xcb;" horiz-adv-x="570" d="M128 700H484Q501 700 513 689T525 661Q525 644 513 634T484 623H162L171 640V387L161 398H439Q456 398 468 387T480 359Q480 342 468 332T439 321H164L171 330V71L165 78H484Q501 78 513 66T525 39Q525 22 513 11T484
0H128Q111 0 100 12T88 41V660Q88 677 99 688T128 700ZM405 770Q381 770 369 780T357 813V826Q357 849 369 859T405 869Q429 869 441 859T453 826V813Q453 791 441 781T405 770ZM224 770Q200 770 188 780T176 813V826Q176 849 189 859T225 869Q248 869 260 859T272
826V813Q272 791 260 781T224 770Z" />
<glyph unicode="&#xcc;" horiz-adv-x="259" d="M171 41Q171 24 159 12T129 0Q110 0 99 12T88 41V659Q88 677 100 688T130 700Q147 700 159 689T171 659V41ZM386 745Q380 745 375 747T364 752L265 802Q240 816 240 840Q240 856 251 866T278 877Q288 877 297 873T313
862L401 790Q407 785 410 780T413 769Q413 759 406 752T386 745Z" />
<glyph unicode="&#xcd;" horiz-adv-x="259" d="M171 41Q171 24 159 12T129 0Q110 0 99 12T88 41V659Q88 677 100 688T130 700Q147 700 159 689T171 659V41ZM134 743Q121 743 114 750T107 767Q107 773 110 778T118 788L206 860Q214 866 223 870T242 875Q256 875
268 865T280 838Q280 826 274 816T254 800L156 750Q151 747 145 745T134 743Z" />
<glyph unicode="&#xce;" horiz-adv-x="259" d="M171 41Q171 24 159 12T129 0Q110 0 99 12T88 41V659Q88 677 100 688T130 700Q147 700 159 689T171 659V41ZM142 833L55 770Q44 763 36 759T20 754Q11 754 5 760T-1 773Q-1 778 1 782T9 794L81 873Q91 883 100 888T124
893H137Q151 893 160 888T179 873L251 794Q257 788 259 784T262 773Q262 767 256 761T240 755Q233 755 225 759T205 771L118 831L142 833Z" />
<glyph unicode="&#xcf;" horiz-adv-x="259" d="M171 41Q171 24 159 12T129 0Q110 0 99 12T88 41V659Q88 677 100 688T130 700Q147 700 159 689T171 659V41ZM477 770Q453 770 441 780T429 813V826Q429 849 441 859T477 869Q501 869 513 859T525 826V813Q525 791
513 781T477 770ZM296 770Q272 770 260 780T248 813V826Q248 849 261 859T297 869Q320 869 332 859T344 826V813Q344 791 332 781T296 770Z" />
<glyph unicode="&#xd0;" horiz-adv-x="718" d="M378 700Q451 700 506 673T599 596T654 484T673 350Q673 254 640 175T542 48T378 0H128Q111 0 100 12T88 41V660Q88 677 99 688T128 700H378ZM368 78Q445 78 493 115T564 214T587 350Q587 404 575 453T536 541T468
601T368 623H163L171 631V68L165 78H368ZM307 315Q289 315 278 325T266 352Q266 368 277 378T307 389H474Q492 389 503 379T514 352Q514 335 503 325T474 315H307Z" />
<glyph unicode="&#xd1;" horiz-adv-x="730" d="M606 700Q623 700 633 690T643 663V42Q643 23 631 12T602 0Q593 0 584 3T570 13L142 579L162 591V37Q162 21 152 11T124 0Q108 0 98 10T88 37V660Q88 678 99 689T127 700Q136 700 145 697T160 686L582 128L569 112V663Q569
679 579 689T606 700ZM235 759Q219 759 210 773T202 812Q206 845 232 866T297 887Q324 887 350 872T401 842T442 827Q455 827 463 836T471 860Q468 876 476 885T497 894Q515 894 524 880T532 842Q529 822 519 804T490 776T446 765Q418 765 390 779T337 808T294
823Q282 823 273 815T262 791Q264 776 256 768T235 759Z" />
<glyph unicode="&#xd2;" horiz-adv-x="764" d="M719 350Q719 273 694 208T624 93T517 17T382 -10Q308 -10 247 17T140 93T70 207T45 350Q45 428 70 493T140 607T246 683T382 710Q455 710 517 683T624 608T694 494T719 350ZM633 350Q633 432 601 495T512 594T382
630Q308 630 252 594T163 495T131 350Q131 269 163 206T251 106T382 70Q456 70 512 106T600 205T633 350ZM382 745Q376 745 371 747T360 752L261 802Q236 816 236 840Q236 856 247 866T274 877Q284 877 293 873T309 862L397 790Q403 785 406 780T409 769Q409 759
402 752T382 745Z" />
<glyph unicode="&#xd3;" horiz-adv-x="764" d="M719 350Q719 273 694 208T624 93T517 17T382 -10Q308 -10 247 17T140 93T70 207T45 350Q45 428 70 493T140 607T246 683T382 710Q455 710 517 683T624 608T694 494T719 350ZM633 350Q633 432 601 495T512 594T382
630Q308 630 252 594T163 495T131 350Q131 269 163 206T251 106T382 70Q456 70 512 106T600 205T633 350ZM385 743Q372 743 365 750T358 767Q358 773 361 778T369 788L457 860Q465 866 474 870T493 875Q507 875 519 865T531 838Q531 826 525 816T505 800L407 750Q402
747 396 745T385 743Z" />
<glyph unicode="&#xd4;" horiz-adv-x="764" d="M719 350Q719 273 694 208T624 93T517 17T382 -10Q308 -10 247 17T140 93T70 207T45 350Q45 428 70 493T140 607T246 683T382 710Q455 710 517 683T624 608T694 494T719 350ZM633 350Q633 432 601 495T512 594T382
630Q308 630 252 594T163 495T131 350Q131 269 163 206T251 106T382 70Q456 70 512 106T600 205T633 350ZM393 833L306 770Q295 763 287 759T271 754Q262 754 256 760T250 773Q250 778 252 782T260 794L332 873Q342 883 351 888T375 893H388Q402 893 411 888T430
873L502 794Q508 788 510 784T513 773Q513 767 507 761T491 755Q484 755 476 759T456 771L369 831L393 833Z" />
<glyph unicode="&#xd5;" horiz-adv-x="764" d="M719 350Q719 273 694 208T624 93T517 17T382 -10Q308 -10 247 17T140 93T70 207T45 350Q45 428 70 493T140 607T246 683T382 710Q455 710 517 683T624 608T694 494T719 350ZM633 350Q633 432 601 495T512 594T382
630Q308 630 252 594T163 495T131 350Q131 269 163 206T251 106T382 70Q456 70 512 106T600 205T633 350ZM251 759Q235 759 226 773T218 812Q222 845 248 866T313 887Q340 887 366 872T417 842T458 827Q471 827 479 836T487 860Q484 876 492 885T513 894Q531 894
540 880T548 842Q545 822 535 804T506 776T462 765Q434 765 406 779T353 808T310 823Q298 823 289 815T278 791Q280 776 272 768T251 759Z" />
<glyph unicode="&#xd6;" horiz-adv-x="764" d="M719 350Q719 273 694 208T624 93T517 17T382 -10Q308 -10 247 17T140 93T70 207T45 350Q45 428 70 493T140 607T246 683T382 710Q455 710 517 683T624 608T694 494T719 350ZM633 350Q633 432 601 495T512 594T382
630Q308 630 252 594T163 495T131 350Q131 269 163 206T251 106T382 70Q456 70 512 106T600 205T633 350ZM473 770Q449 770 437 780T425 813V826Q425 849 437 859T473 869Q497 869 509 859T521 826V813Q521 791 509 781T473 770ZM292 770Q268 770 256 780T244 813V826Q244
849 257 859T293 869Q316 869 328 859T340 826V813Q340 791 328 781T292 770Z" />
<glyph unicode="&#xd7;" horiz-adv-x="476" d="M88 141Q73 141 62 152T50 180Q50 195 62 207L360 503Q372 515 388 515Q404 515 415 503T426 477Q426 463 414 450L116 154Q103 141 88 141ZM358 153L67 449Q56 461 56 476Q56 493 67 503T93 514Q108 514 121 502L411
206Q423 195 423 179Q423 161 411 151T385 141Q371 141 358 153Z" />
<glyph unicode="&#xd8;" horiz-adv-x="730" d="M97 -25Q84 -25 74 -16T63 8Q63 20 72 31L637 719Q644 728 651 731T667 734Q680 734 690 725T701 701Q701 688 692 677L129 -7Q124 -15 116 -20T97 -25ZM719 350Q719 273 694 208T624 93T517 17T382 -10Q308 -10
247 17T140 93T70 207T45 350Q45 428 70 493T140 607T246 683T382 710Q455 710 517 683T624 608T694 494T719 350ZM633 350Q633 432 601 495T512 594T382 630Q308 630 252 594T163 495T131 350Q131 269 163 206T251 106T382 70Q456 70 512 106T600 205T633 350Z"
/>
<glyph unicode="&#xd9;" horiz-adv-x="710" d="M584 701Q601 701 612 689T623 660V263Q623 186 588 125T492 29T356 -7Q279 -7 219 28T123 125T88 263V660Q88 677 99 689T130 701Q146 701 158 689T171 660V263Q171 208 196 165T263 98T356 73Q407 73 450 97T519
165T546 263V660Q546 677 556 689T584 701ZM355 745Q349 745 344 747T333 752L234 802Q209 816 209 840Q209 856 220 866T247 877Q257 877 266 873T282 862L370 790Q376 785 379 780T382 769Q382 759 375 752T355 745Z" />
<glyph unicode="&#xda;" horiz-adv-x="710" d="M584 701Q601 701 612 689T623 660V263Q623 186 588 125T492 29T356 -7Q279 -7 219 28T123 125T88 263V660Q88 677 99 689T130 701Q146 701 158 689T171 660V263Q171 208 196 165T263 98T356 73Q407 73 450 97T519
165T546 263V660Q546 677 556 689T584 701ZM359 743Q346 743 339 750T332 767Q332 773 335 778T343 788L431 860Q439 866 448 870T467 875Q481 875 493 865T505 838Q505 826 499 816T479 800L381 750Q376 747 370 745T359 743Z" />
<glyph unicode="&#xdb;" horiz-adv-x="710" d="M584 701Q601 701 612 689T623 660V263Q623 186 588 125T492 29T356 -7Q279 -7 219 28T123 125T88 263V660Q88 677 99 689T130 701Q146 701 158 689T171 660V263Q171 208 196 165T263 98T356 73Q407 73 450 97T519
165T546 263V660Q546 677 556 689T584 701ZM367 833L280 770Q269 763 261 759T245 754Q236 754 230 760T224 773Q224 778 226 782T234 794L306 873Q316 883 325 888T349 893H362Q376 893 385 888T404 873L476 794Q482 788 484 784T487 773Q487 767 481 761T465
755Q458 755 450 759T430 771L343 831L367 833Z" />
<glyph unicode="&#xdc;" horiz-adv-x="710" d="M584 701Q601 701 612 689T623 660V263Q623 186 588 125T492 29T356 -7Q279 -7 219 28T123 125T88 263V660Q88 677 99 689T130 701Q146 701 158 689T171 660V263Q171 208 196 165T263 98T356 73Q407 73 450 97T519
165T546 263V660Q546 677 556 689T584 701ZM446 770Q422 770 410 780T398 813V826Q398 849 410 859T446 869Q470 869 482 859T494 826V813Q494 791 482 781T446 770ZM265 770Q241 770 229 780T217 813V826Q217 849 230 859T266 869Q289 869 301 859T313 826V813Q313
791 301 781T265 770Z" />
<glyph unicode="&#xdd;" horiz-adv-x="572" d="M514 704Q531 704 542 692T554 663Q554 657 553 651T547 638L315 315L328 364V41Q328 24 317 12T289 0Q271 0 260 12T248 41V356L255 330L30 634Q24 642 22 649T19 664Q19 681 33 692T61 704Q81 704 94 685L301 401L282
404L481 684Q494 704 514 704ZM289 743Q276 743 269 750T262 767Q262 773 265 778T273 788L361 860Q369 866 378 870T397 875Q411 875 423 865T435 838Q435 826 429 816T409 800L311 750Q306 747 300 745T289 743Z" />
<glyph unicode="&#xde;" horiz-adv-x="593" d="M168 41Q168 24 156 12T127 0Q110 0 99 12T88 41V700Q88 717 99 728T128 740Q146 740 157 729T168 700V41ZM156 259H357Q389 259 414 276T455 324T470 391Q470 428 455 457T415 502T357 519H156L123 599H357Q411
599 455 572T525 498T551 391Q551 332 525 284T455 208T357 179H126L156 259Z" />
<glyph unicode="&#xdf;" horiz-adv-x="627" d="M148 0Q130 0 119 11T108 41L109 498Q109 542 122 584T161 659T229 712T325 732Q386 732 427 711T490 656T512 579Q512 554 500 529T465 482T413 449L411 453Q457 439 496 409T560 332T585 224Q585 156 557 103T480
20T371 -10Q332 -10 304 0T259 26Q250 35 249 50T263 77Q273 86 286 86T312 75Q324 66 340 61T374 56Q411 56 441 76T488 132T505 214Q505 272 484 309T427 367T354 397Q336 402 328 412T320 435Q320 448 326 457T342 472Q372 482 392 498T422 533T432 573Q432
610 403 633T322 657Q287 657 262 644T221 609T197 558T189 500L188 41Q188 23 177 12T148 0ZM69 423Q53 423 41 434T29 461Q29 478 41 488T69 499H147Q164 499 170 488T177 461Q177 445 171 434T147 423H69Z" />
<glyph unicode="&#xe0;" horiz-adv-x="614" d="M500 522Q517 522 528 511T540 482V41Q540 24 529 12T500 0Q482 0 471 12T460 41V136L479 138Q479 116 464 90T423 42T362 5T285 -10Q217 -10 163 25T78 122T46 261Q46 340 77 400T163 495T283 530Q326 530 363 516T427
478T470 425T486 367L460 373V482Q460 499 471 510T500 522ZM294 64Q344 64 382 90T442 160T464 261Q464 316 443 360T383 430T294 456Q245 456 207 431T146 362T124 261Q124 205 145 161T205 90T294 64ZM302 562Q296 562 290 565T277 573L192 639Q181 646 176
654T170 674Q170 691 182 700T207 710Q220 710 229 704T245 691L319 606Q328 596 328 586Q328 576 321 569T302 562Z" />
<glyph unicode="&#xe1;" horiz-adv-x="614" d="M500 522Q517 522 528 511T540 482V41Q540 24 529 12T500 0Q482 0 471 12T460 41V136L479 138Q479 116 464 90T423 42T362 5T285 -10Q217 -10 163 25T78 122T46 261Q46 340 77 400T163 495T283 530Q326 530 363 516T427
478T470 425T486 367L460 373V482Q460 499 471 510T500 522ZM294 64Q344 64 382 90T442 160T464 261Q464 316 443 360T383 430T294 456Q245 456 207 431T146 362T124 261Q124 205 145 161T205 90T294 64ZM294 558Q287 558 280 564T272 580Q272 587 278 596L338
694Q344 704 354 713T378 722Q398 722 408 712T418 684Q417 676 414 669T405 654L329 574Q322 566 313 562T294 558Z" />
<glyph unicode="&#xe2;" horiz-adv-x="614" d="M500 522Q517 522 528 511T540 482V41Q540 24 529 12T500 0Q482 0 471 12T460 41V136L479 138Q479 116 464 90T423 42T362 5T285 -10Q217 -10 163 25T78 122T46 261Q46 340 77 400T163 495T283 530Q326 530 363 516T427
478T470 425T486 367L460 373V482Q460 499 471 510T500 522ZM294 64Q344 64 382 90T442 160T464 261Q464 316 443 360T383 430T294 456Q245 456 207 431T146 362T124 261Q124 205 145 161T205 90T294 64ZM315 927L231 857Q222 849 216 845T197 840Q188 840 182
845T176 858Q176 864 178 868T185 880L250 954Q266 974 293 974H316Q330 974 338 970T355 954L417 880Q423 874 424 869T426 859Q426 852 421 846T405 840Q394 840 388 845T371 857L284 930L315 927Z" />
<glyph unicode="&#xe3;" horiz-adv-x="614" d="M500 522Q517 522 528 511T540 482V41Q540 24 529 12T500 0Q482 0 471 12T460 41V136L479 138Q479 116 464 90T423 42T362 5T285 -10Q217 -10 163 25T78 122T46 261Q46 340 77 400T163 495T283 530Q326 530 363 516T427
478T470 425T486 367L460 373V482Q460 499 471 510T500 522ZM294 64Q344 64 382 90T442 160T464 261Q464 316 443 360T383 430T294 456Q245 456 207 431T146 362T124 261Q124 205 145 161T205 90T294 64ZM170 840Q152 840 143 853T136 892Q141 924 167 945T237
966Q258 966 277 957T314 937T348 916T377 906Q390 906 397 914T405 938Q402 954 410 963T432 972Q451 972 459 959T466 922Q464 901 453 884T421 855T371 844Q353 844 334 853T296 873T259 894T229 903Q216 903 208 896T197 872Q199 857 191 849T170 840Z" />
<glyph unicode="&#xe4;" horiz-adv-x="614" d="M500 522Q517 522 528 511T540 482V41Q540 24 529 12T500 0Q482 0 471 12T460 41V136L479 138Q479 116 464 90T423 42T362 5T285 -10Q217 -10 163 25T78 122T46 261Q46 340 77 400T163 495T283 530Q326 530 363 516T427
478T470 425T486 367L460 373V482Q460 499 471 510T500 522ZM294 64Q344 64 382 90T442 160T464 261Q464 316 443 360T383 430T294 456Q245 456 207 431T146 362T124 261Q124 205 145 161T205 90T294 64ZM389 600Q366 600 354 611T342 643V656Q342 679 355 689T391
699Q414 699 426 689T438 656V643Q438 620 426 610T389 600ZM208 600Q185 600 173 611T161 643V656Q161 678 173 688T209 699Q233 699 245 689T257 656V643Q257 620 245 610T208 600Z" />
<glyph unicode="&#xe5;" horiz-adv-x="614" d="M500 522Q517 522 528 511T540 482V41Q540 24 529 12T500 0Q482 0 471 12T460 41V136L479 138Q479 116 464 90T423 42T362 5T285 -10Q217 -10 163 25T78 122T46 261Q46 340 77 400T163 495T283 530Q326 530 363 516T427
478T470 425T486 367L460 373V482Q460 499 471 510T500 522ZM294 64Q344 64 382 90T442 160T464 261Q464 316 443 360T383 430T294 456Q245 456 207 431T146 362T124 261Q124 205 145 161T205 90T294 64ZM301 560Q273 560 249 574T210 611T195 662Q195 690 210
713T249 750T301 764Q329 764 353 751T392 714T407 662Q407 634 393 611T354 574T301 560ZM301 611Q324 611 339 626T354 662Q354 685 339 699T301 713Q279 713 264 699T248 662Q248 641 263 626T301 611Z" />
<glyph unicode="&#xe6;" horiz-adv-x="911" d="M271 530Q306 530 339 523T400 500T444 457T461 388V260L385 256V361Q385 402 367 422T322 449T270 456Q236 456 207 445T156 415T118 376Q105 361 87 361Q74 361 64 370T53 394Q53 401 55 407T62 421Q83 447 113
472T184 514T271 530ZM218 -10Q178 -10 139 7T74 58T48 145Q48 200 77 237T163 295T301 315H794L780 302V323Q777 364 754 393T696 439T625 455Q595 455 566 445T513 411T475 350T461 261Q461 203 484 159T550 90T647 64Q683 64 709 73T753 95T785 123Q798 132
811 132Q825 132 835 122T845 98Q845 81 829 68Q800 37 753 14T650 -10Q570 -10 510 24T417 117T384 255Q384 342 418 403T508 497T625 530Q672 530 714 513T790 464T844 386T865 284Q864 268 852 257T824 246H296Q241 246 204 234T147 199T128 146Q128 118 142
100T178 72T222 63Q266 63 302 80T363 123T398 169L436 113Q420 89 390 60T317 11T218 -10Z" />
<glyph unicode="&#xe7;" horiz-adv-x="519" d="M304 530Q355 530 396 519T461 489T485 446Q485 433 476 421T452 409Q438 409 430 414T414 427T393 441Q381 448 358 452T312 456Q257 456 216 430T150 360T126 260Q126 204 149 160T213 90T308 64Q343 64 364 70T399
84Q417 94 426 104T452 114Q469 114 478 103T488 76Q488 58 463 38T396 4T299 -10Q223 -10 166 25T78 122T46 260Q46 336 78 397T169 494T304 530ZM241 -146Q234 -146 222 -142T201 -129T191 -109Q191 -97 200 -87L284 20H333L272 -122Q263 -146 241 -146Z" />
<glyph unicode="&#xe8;" horiz-adv-x="573" d="M313 -10Q233 -10 173 24T80 117T46 255Q46 342 80 403T170 497T288 530Q334 530 377 513T453 464T506 386T527 284Q527 268 515 257T487 246H92L74 315H459L443 301V323Q439 364 416 393T359 439T288 455Q258 455
229 445T176 411T138 350T123 261Q123 203 146 159T212 90T310 64Q345 64 371 73T416 95T448 123Q461 132 473 132Q488 132 497 122T507 98Q507 81 491 68Q463 37 415 14T313 -10ZM292 562Q286 562 280 565T267 573L182 639Q171 646 166 654T160 674Q160 691 172
700T197 710Q210 710 219 704T235 691L309 606Q318 596 318 586Q318 576 311 569T292 562Z" />
<glyph unicode="&#xe9;" horiz-adv-x="573" d="M313 -10Q233 -10 173 24T80 117T46 255Q46 342 80 403T170 497T288 530Q334 530 377 513T453 464T506 386T527 284Q527 268 515 257T487 246H92L74 315H459L443 301V323Q439 364 416 393T359 439T288 455Q258 455
229 445T176 411T138 350T123 261Q123 203 146 159T212 90T310 64Q345 64 371 73T416 95T448 123Q461 132 473 132Q488 132 497 122T507 98Q507 81 491 68Q463 37 415 14T313 -10ZM283 558Q276 558 269 564T261 580Q261 587 267 596L327 694Q333 704 343 713T367
722Q387 722 397 712T407 684Q406 676 403 669T394 654L318 574Q311 566 302 562T283 558Z" />
<glyph unicode="&#xea;" horiz-adv-x="573" d="M313 -10Q233 -10 173 24T80 117T46 255Q46 342 80 403T170 497T288 530Q334 530 377 513T453 464T506 386T527 284Q527 268 515 257T487 246H92L74 315H459L443 301V323Q439 364 416 393T359 439T288 455Q258 455
229 445T176 411T138 350T123 261Q123 203 146 159T212 90T310 64Q345 64 371 73T416 95T448 123Q461 132 473 132Q488 132 497 122T507 98Q507 81 491 68Q463 37 415 14T313 -10ZM304 927L220 857Q211 849 205 845T186 840Q177 840 171 845T165 858Q165 864 167
868T174 880L239 954Q255 974 282 974H305Q319 974 327 970T344 954L406 880Q412 874 413 869T415 859Q415 852 410 846T394 840Q383 840 377 845T360 857L273 930L304 927Z" />
<glyph unicode="&#xeb;" horiz-adv-x="573" d="M313 -10Q233 -10 173 24T80 117T46 255Q46 342 80 403T170 497T288 530Q334 530 377 513T453 464T506 386T527 284Q527 268 515 257T487 246H92L74 315H459L443 301V323Q439 364 416 393T359 439T288 455Q258 455
229 445T176 411T138 350T123 261Q123 203 146 159T212 90T310 64Q345 64 371 73T416 95T448 123Q461 132 473 132Q488 132 497 122T507 98Q507 81 491 68Q463 37 415 14T313 -10ZM379 600Q356 600 344 611T332 643V656Q332 679 345 689T381 699Q404 699 416 689T428
656V643Q428 620 416 610T379 600ZM198 600Q175 600 163 611T151 643V656Q151 678 163 688T199 699Q223 699 235 689T247 656V643Q247 620 235 610T198 600Z" />
<glyph unicode="&#xec;" horiz-adv-x="221" d="M151 41Q151 24 140 12T111 0Q93 0 82 12T71 41V485Q71 502 82 513T111 525Q128 525 139 514T151 485V41ZM369 562Q363 562 357 565T344 573L259 639Q248 646 243 654T237 674Q237 691 249 700T274 710Q287 710 296
704T312 691L386 606Q395 596 395 586Q395 576 388 569T369 562Z" />
<glyph unicode="&#xed;" horiz-adv-x="221" d="M151 41Q151 24 140 12T111 0Q93 0 82 12T71 41V485Q71 502 82 513T111 525Q128 525 139 514T151 485V41ZM105 814Q98 814 91 820T83 836Q83 843 89 852L149 950Q155 960 165 969T189 978Q209 978 219 968T229 940Q228
932 225 925T216 910L140 830Q133 822 124 818T105 814Z" />
<glyph unicode="&#xee;" horiz-adv-x="221" d="M151 41Q151 24 140 12T111 0Q93 0 82 12T71 41V485Q71 502 82 513T111 525Q128 525 139 514T151 485V41ZM382 927L298 857Q289 849 283 845T264 840Q255 840 249 845T243 858Q243 864 245 868T252 880L317 954Q333
974 360 974H383Q397 974 405 970T422 954L484 880Q490 874 491 869T493 859Q493 852 488 846T472 840Q461 840 455 845T438 857L351 930L382 927Z" />
<glyph unicode="&#xef;" horiz-adv-x="221" d="M151 41Q151 24 140 12T111 0Q93 0 82 12T71 41V485Q71 502 82 513T111 525Q128 525 139 514T151 485V41ZM456 600Q433 600 421 611T409 643V656Q409 679 422 689T458 699Q481 699 493 689T505 656V643Q505 620 493
610T456 600ZM275 600Q252 600 240 611T228 643V656Q228 678 240 688T276 699Q300 699 312 689T324 656V643Q324 620 312 610T275 600Z" />
<glyph unicode="&#xf0;" horiz-adv-x="578" d="M289 -5Q222 -5 167 31T79 127T46 262Q46 317 65 364T118 447T193 503T281 524Q335 524 374 500T439 437T475 352L434 376Q429 432 413 479T370 562T302 623T207 661Q192 665 182 675T172 700Q172 716 180 728T207
740Q217 740 226 738Q292 722 343 687T429 603T487 501T521 390T532 283Q532 195 499 130T412 30T289 -5ZM289 74Q334 74 371 99T429 167T451 262Q451 311 430 352T372 419T289 445Q244 445 207 421T148 355T126 262Q126 210 148 168T207 100T289 74ZM208 541Q193
537 181 541T165 561Q162 575 169 585T191 598L303 631L352 649L456 677Q471 680 483 676T499 657Q502 642 495 632T473 619L396 598L357 582L208 541Z" />
<glyph unicode="&#xf1;" horiz-adv-x="584" d="M331 530Q399 530 438 502T493 427T510 322V41Q510 24 499 12T470 0Q453 0 442 12T430 41V320Q430 358 419 388T381 437T308 456Q266 456 231 438T175 389T154 320V41Q154 24 143 12T114 0Q97 0 86 12T74 41V477Q74
494 85 505T114 517Q132 517 143 506T154 477V406L134 384Q139 410 157 436T202 484T262 517T331 530ZM175 840Q157 840 148 853T141 892Q146 924 172 945T242 966Q263 966 282 957T319 937T353 916T382 906Q395 906 402 914T410 938Q407 954 415 963T437 972Q456
972 464 959T471 922Q469 901 458 884T426 855T376 844Q358 844 339 853T301 873T264 894T234 903Q221 903 213 896T202 872Q204 857 196 849T175 840Z" />
<glyph unicode="&#xf2;" horiz-adv-x="611" d="M565 260Q565 182 531 121T438 25T306 -10Q233 -10 174 25T81 121T46 260Q46 338 80 399T174 495T306 530Q379 530 437 495T530 399T565 260ZM485 260Q485 318 462 362T398 431T306 456Q255 456 215 431T150 362T126
260Q126 203 150 159T214 90T306 64Q357 64 397 89T461 159T485 260ZM308 567Q302 567 296 570T283 578L198 644Q187 651 182 659T176 679Q176 696 188 705T213 715Q226 715 235 709T251 696L325 611Q334 601 334 591Q334 581 327 574T308 567Z" />
<glyph unicode="&#xf3;" horiz-adv-x="611" d="M565 260Q565 182 531 121T438 25T306 -10Q233 -10 174 25T81 121T46 260Q46 338 80 399T174 495T306 530Q379 530 437 495T530 399T565 260ZM485 260Q485 318 462 362T398 431T306 456Q255 456 215 431T150 362T126
260Q126 203 150 159T214 90T306 64Q357 64 397 89T461 159T485 260ZM300 563Q293 563 286 569T278 585Q278 592 284 601L344 699Q350 709 360 718T384 727Q404 727 414 717T424 689Q423 681 420 674T411 659L335 579Q328 571 319 567T300 563Z" />
<glyph unicode="&#xf4;" horiz-adv-x="611" d="M565 260Q565 182 531 121T438 25T306 -10Q233 -10 174 25T81 121T46 260Q46 338 80 399T174 495T306 530Q379 530 437 495T530 399T565 260ZM485 260Q485 318 462 362T398 431T306 456Q255 456 215 431T150 362T126
260Q126 203 150 159T214 90T306 64Q357 64 397 89T461 159T485 260ZM321 676L237 606Q228 598 222 594T203 589Q194 589 188 594T182 607Q182 613 184 617T191 629L256 703Q272 723 299 723H322Q336 723 344 719T361 703L423 629Q429 623 430 618T432 608Q432
601 427 595T411 589Q400 589 394 594T377 606L290 679L321 676Z" />
<glyph unicode="&#xf5;" horiz-adv-x="611" d="M565 260Q565 182 531 121T438 25T306 -10Q233 -10 174 25T81 121T46 260Q46 338 80 399T174 495T306 530Q379 530 437 495T530 399T565 260ZM485 260Q485 318 462 362T398 431T306 456Q255 456 215 431T150 362T126
260Q126 203 150 159T214 90T306 64Q357 64 397 89T461 159T485 260ZM176 589Q158 589 149 602T142 641Q147 673 173 694T243 715Q264 715 283 706T320 686T354 665T383 655Q396 655 403 663T411 687Q408 703 416 712T438 721Q457 721 465 708T472 671Q470 650
459 633T427 604T377 593Q359 593 340 602T302 622T265 643T235 652Q222 652 214 645T203 621Q205 606 197 598T176 589Z" />
<glyph unicode="&#xf6;" horiz-adv-x="611" d="M565 260Q565 182 531 121T438 25T306 -10Q233 -10 174 25T81 121T46 260Q46 338 80 399T174 495T306 530Q379 530 437 495T530 399T565 260ZM485 260Q485 318 462 362T398 431T306 456Q255 456 215 431T150 362T126
260Q126 203 150 159T214 90T306 64Q357 64 397 89T461 159T485 260ZM395 605Q372 605 360 616T348 648V661Q348 684 361 694T397 704Q420 704 432 694T444 661V648Q444 625 432 615T395 605ZM214 605Q191 605 179 616T167 648V661Q167 683 179 693T215 704Q239
704 251 694T263 661V648Q263 625 251 615T214 605Z" />
<glyph unicode="&#xf7;" horiz-adv-x="582" d="M233 506Q233 530 249 546T288 563Q312 563 328 547T345 506Q345 484 329 468T288 451Q265 451 249 467T233 506ZM233 154Q233 177 249 194T288 211Q312 211 328 194T345 154Q345 132 329 116T288 99Q265 99 249
115T233 154ZM90 295Q73 295 62 306T50 333Q50 348 61 359T90 370H492Q509 370 520 359T532 332Q532 317 521 306T492 295H90Z" />
<glyph unicode="&#xf8;" horiz-adv-x="611" d="M93 -25Q79 -25 69 -14T58 10Q58 24 67 34L494 534Q505 547 521 547Q535 547 545 537T556 512Q556 499 547 489L120 -12Q109 -25 93 -25ZM565 260Q565 182 531 121T438 25T306 -10Q233 -10 174 25T81 121T46 260Q46
338 80 399T174 495T306 530Q379 530 437 495T530 399T565 260ZM485 260Q485 318 462 362T398 431T306 456Q255 456 215 431T150 362T126 260Q126 203 150 159T214 90T306 64Q357 64 397 89T461 159T485 260Z" />
<glyph unicode="&#xf9;" horiz-adv-x="575" d="M461 517Q479 517 490 506T501 477V204Q501 103 445 48T287 -8Q187 -8 131 47T74 204V477Q74 494 85 505T114 517Q132 517 143 506T154 477V204Q154 136 189 101T287 66Q352 66 386 101T421 204V477Q421 494 432
505T461 517ZM291 562Q285 562 279 565T266 573L181 639Q170 646 165 654T159 674Q159 691 171 700T196 710Q209 710 218 704T234 691L308 606Q317 596 317 586Q317 576 310 569T291 562Z" />
<glyph unicode="&#xfa;" horiz-adv-x="575" d="M461 517Q479 517 490 506T501 477V204Q501 103 445 48T287 -8Q187 -8 131 47T74 204V477Q74 494 85 505T114 517Q132 517 143 506T154 477V204Q154 136 189 101T287 66Q352 66 386 101T421 204V477Q421 494 432
505T461 517ZM282 558Q275 558 268 564T260 580Q260 587 266 596L326 694Q332 704 342 713T366 722Q386 722 396 712T406 684Q405 676 402 669T393 654L317 574Q310 566 301 562T282 558Z" />
<glyph unicode="&#xfb;" horiz-adv-x="575" d="M461 517Q479 517 490 506T501 477V204Q501 103 445 48T287 -8Q187 -8 131 47T74 204V477Q74 494 85 505T114 517Q132 517 143 506T154 477V204Q154 136 189 101T287 66Q352 66 386 101T421 204V477Q421 494 432
505T461 517ZM303 927L219 857Q210 849 204 845T185 840Q176 840 170 845T164 858Q164 864 166 868T173 880L238 954Q254 974 281 974H304Q318 974 326 970T343 954L405 880Q411 874 412 869T414 859Q414 852 409 846T393 840Q382 840 376 845T359 857L272 930L303
927Z" />
<glyph unicode="&#xfc;" horiz-adv-x="575" d="M461 517Q479 517 490 506T501 477V204Q501 103 445 48T287 -8Q187 -8 131 47T74 204V477Q74 494 85 505T114 517Q132 517 143 506T154 477V204Q154 136 189 101T287 66Q352 66 386 101T421 204V477Q421 494 432
505T461 517ZM378 600Q355 600 343 611T331 643V656Q331 679 344 689T380 699Q403 699 415 689T427 656V643Q427 620 415 610T378 600ZM197 600Q174 600 162 611T150 643V656Q150 678 162 688T198 699Q222 699 234 689T246 656V643Q246 620 234 610T197 600Z" />
<glyph unicode="&#xfd;" horiz-adv-x="575" d="M461 525Q478 525 489 514T501 485V49Q501 -35 468 -90T380 -173T254 -200Q215 -200 179 -192T120 -171Q101 -162 94 -149T91 -120Q98 -102 111 -95T140 -95Q156 -102 186 -114T255 -127Q307 -127 344 -107T401 -49T421
47V118L433 93Q417 62 390 39T328 3T251 -10Q194 -10 155 14T95 82T74 183V485Q74 502 85 513T114 525Q132 525 143 514T154 485V201Q154 133 184 99T277 64Q317 64 349 82T401 131T421 201V485Q421 502 432 513T461 525ZM282 558Q275 558 268 564T260 580Q260
587 266 596L326 694Q332 704 342 713T366 722Q386 722 396 712T406 684Q405 676 402 669T393 654L317 574Q310 566 301 562T282 558Z" />
<glyph unicode="&#xfe;" horiz-adv-x="614" d="M329 525Q397 525 451 491T536 397T568 259Q568 182 537 122T452 27T331 -8Q294 -8 262 3T203 33T158 75T132 122L154 136V-159Q154 -176 143 -188T114 -200Q97 -200 86 -189T74 -159V700Q74 717 85 728T114 740Q132
740 143 729T154 700V391L139 399Q146 424 163 447T206 487T263 515T329 525ZM320 451Q270 451 232 426T172 358T150 259Q150 204 171 160T231 91T320 66Q370 66 408 91T468 160T490 259Q490 315 468 358T408 426T320 451Z" />
<glyph unicode="&#xff;" horiz-adv-x="575" d="M461 525Q478 525 489 514T501 485V49Q501 -35 468 -90T380 -173T254 -200Q215 -200 179 -192T120 -171Q101 -162 94 -149T91 -120Q98 -102 111 -95T140 -95Q156 -102 186 -114T255 -127Q307 -127 344 -107T401 -49T421
47V118L433 93Q417 62 390 39T328 3T251 -10Q194 -10 155 14T95 82T74 183V485Q74 502 85 513T114 525Q132 525 143 514T154 485V201Q154 133 184 99T277 64Q317 64 349 82T401 131T421 201V485Q421 502 432 513T461 525ZM377 600Q354 600 342 611T330 643V656Q330
679 343 689T379 699Q402 699 414 689T426 656V643Q426 620 414 610T377 600ZM196 600Q173 600 161 611T149 643V656Q149 678 161 688T197 699Q221 699 233 689T245 656V643Q245 620 233 610T196 600Z" />
<glyph unicode="&#x2013;" horiz-adv-x="512" d="M96 239Q79 239 67 249T55 277Q55 295 67 305T96 315H416Q434 315 445 305T457 277Q457 260 446 250T416 239H96Z" />
<glyph unicode="&#x2014;" horiz-adv-x="854" d="M96 239Q78 239 67 250T55 278Q55 296 66 307T96 318H758Q776 318 787 307T799 278Q799 261 788 250T758 239H96Z" />
<glyph unicode="&#x2018;" horiz-adv-x="234" d="M34 584Q34 614 51 642T93 688T144 707Q153 707 162 701T171 678Q171 661 160 658T136 649Q120 641 112 630T103 603Q103 592 111 584T133 576Q139 576 147 578T160 584Q168 579 172 572T176 554Q176 532 155 517T107
501Q74 501 54 525T34 584Z" />
<glyph unicode="&#x2019;" horiz-adv-x="221" d="M172 623Q172 594 155 566T113 520T62 501Q53 501 44 507T35 530Q35 547 46 549T70 559Q86 567 94 578T103 604Q103 617 95 624T73 632Q67 632 60 630T46 624Q39 629 34 635T30 654Q31 675 51 691T99 707Q132 707
152 683T172 623Z" />
<glyph unicode="&#x201a;" horiz-adv-x="225" d="M180 -2Q180 -31 164 -59T122 -106T71 -125Q62 -125 53 -119T44 -96Q44 -79 55 -76T79 -67Q94 -59 102 -48T111 -21Q111 -9 103 -2T82 6Q75 6 68 4T55 -2Q48 3 43 10T38 28Q39 50 60 65T108 81Q140 81 160 57T180 -2Z" />
<glyph unicode="&#x201c;" horiz-adv-x="385" d="M284 837Q284 867 301 895T343 941T394 960Q403 960 412 954T421 931Q421 914 410 911T386 902Q370 894 362 883T353 856Q353 845 361 837T383 829Q389 829 397 831T410 837Q418 832 422 825T426 807Q426 785 405
770T357 754Q324 754 304 778T284 837ZM208 581Q208 611 225 639T267 685T318 704Q327 704 336 698T345 675Q345 658 334 655T310 646Q294 638 286 627T277 600Q277 589 285 581T307 573Q313 573 321 575T334 581Q342 576 346 569T350 551Q350 529 329 514T281
498Q248 498 228 522T208 581Z" />
<glyph unicode="&#x201d;" horiz-adv-x="385" d="M172 623Q172 594 155 566T113 520T62 501Q53 501 44 507T35 530Q35 547 46 549T70 559Q86 567 94 578T103 604Q103 617 95 624T73 632Q67 632 60 630T46 624Q39 629 34 635T30 654Q31 675 51 691T99 707Q132 707
152 683T172 623ZM347 623Q347 594 330 566T288 520T237 501Q228 501 219 507T210 530Q210 547 221 549T245 559Q261 567 269 578T278 604Q278 617 270 624T248 632Q242 632 235 630T221 624Q214 629 209 635T205 654Q206 675 226 691T274 707Q307 707 327 683T347
623Z" />
<glyph unicode="&#x201e;" horiz-adv-x="355" d="M179 -2Q179 -31 163 -59T121 -106T70 -125Q61 -125 52 -119T43 -96Q43 -79 54 -76T78 -67Q93 -59 101 -48T110 -21Q110 -9 102 -2T81 6Q74 6 67 4T54 -2Q47 3 42 10T37 28Q38 50 59 65T107 81Q139 81 159 57T179
-2ZM344 -2Q344 -31 328 -59T286 -106T235 -125Q226 -125 217 -119T208 -96Q208 -79 219 -76T243 -67Q258 -59 266 -48T275 -21Q275 -9 267 -2T246 6Q239 6 232 4T219 -2Q212 3 207 10T202 28Q203 50 224 65T272 81Q304 81 324 57T344 -2Z" />
<glyph unicode="&#x2022;" horiz-adv-x="345" d="M172 220Q136 220 106 237T58 285T40 352Q40 389 58 419T106 467T172 485Q209 485 239 467T287 419T305 352Q305 315 287 285T239 238T172 220Z" />
<glyph unicode="&#x2039;" horiz-adv-x="275" d="M195 50Q178 50 167 65L40 237Q33 248 33 260Q33 272 40 282L168 453Q179 468 196 468Q209 468 220 459T232 434Q232 421 222 408L109 253L107 269L224 112Q228 106 230 100T233 88Q233 69 220 60T195 50Z" />
<glyph unicode="&#x203a;" horiz-adv-x="275" d="M71 468Q88 468 99 453L225 281Q233 271 233 258Q233 247 225 237L98 65Q87 50 70 50Q57 50 45 59T33 85Q33 98 43 110L157 265L158 250L42 407Q37 413 35 419T33 431Q33 450 46 459T71 468Z" />
</font>
</defs>
</svg>
