<?xml version="1.0" standalone="no"?>
<!DOCTYPE svg PUBLIC "-//W3C//DTD SVG 1.1//EN" "http://www.w3.org/Graphics/SVG/1.1/DTD/svg11.dtd">
<svg xmlns="http://www.w3.org/2000/svg">
<defs >
<font id="Quicksand" horiz-adv-x="541" ><font-face
    font-family="Quicksand Light"
    units-per-em="1000"
    panose-1="0 0 0 0 0 0 0 0 0 0"
    ascent="1000"
    descent="-250"
    alphabetic="0" />
<glyph unicode=" " horiz-adv-x="273" />
<glyph unicode="!" horiz-adv-x="185" d="M93 196Q74 196 72 217L61 659Q61 677 68 688T93 700Q110 700 117 689T124 659L113 217Q112 196 93 196ZM90 0Q73 0 64 10T54 38V60Q54 78 63 88T90 98H96Q114 98 122 88T131 60V38Q131 21 123 11T96 0H90Z" />
<glyph unicode="&quot;" horiz-adv-x="383" d="M70 674Q73 700 99 700H131Q144 700 148 692T148 672L85 456Q79 435 57 435Q41 435 44 461L70 674ZM260 674Q263 700 289 700H321Q334 699 338 692T338 672L275 456Q269 435 247 435Q231 435 234 461L260 674Z" />
<glyph unicode="#" horiz-adv-x="654" d="M143 0Q128 0 120 12T113 41L222 674Q225 686 233 693T252 700Q268 700 276 689T282 660L173 26Q172 14 164 7T143 0ZM96 462Q82 462 73 471T63 495Q63 508 72 516T96 524H598Q612 524 621 515T630 491Q630 478 621 470T598
462H96ZM402 0Q386 0 378 12T372 41L481 674Q483 686 491 693T511 700Q527 700 535 689T541 660L432 26Q430 14 422 7T402 0ZM56 181Q43 181 34 190T24 213Q24 226 33 234T56 242H559Q573 242 582 233T591 210Q591 197 582 189T559 181H56Z" />
<glyph unicode="$" horiz-adv-x="562" d="M287 -10Q211 -11 155 14T48 89Q43 93 40 99T36 113Q36 125 45 135T67 145Q79 145 89 135Q128 93 177 71T284 49Q332 49 369 64T429 107T451 172Q451 218 426 246T360 293T269 327Q228 339 191 354T125 392T80 448T64
528Q64 581 92 622T171 686T291 710Q350 710 404 690T491 631Q506 615 506 602Q506 592 496 582T474 572Q464 572 457 579Q440 600 414 616T357 642T291 651Q244 651 207 637T148 595T126 530Q126 488 150 461T213 417T296 384Q339 372 378 357T448 318T496 260T514
172Q514 121 485 80T406 15T287 -10ZM318 -121Q318 -133 310 -142T288 -151Q275 -151 267 -142T258 -121V785Q258 798 266 806T289 815Q302 815 310 807T318 785V-121Z" />
<glyph unicode="%" horiz-adv-x="776" d="M181 343Q136 343 106 368T61 434T45 524Q45 574 60 616T107 683T183 708Q228 708 258 683T304 616T320 525Q320 477 304 435T258 368T181 343ZM183 395Q226 395 244 432T263 524Q263 582 243 619T181 656Q139 656 121
618T102 525Q102 468 122 432T183 395ZM593 -8Q549 -8 518 17T472 83T456 173Q456 223 472 265T519 332T595 357Q640 357 670 332T716 265T731 174Q731 126 715 84T669 17T593 -8ZM595 44Q637 44 656 81T675 173Q675 231 655 268T593 305Q551 305 532 267T513 174Q513
117 534 81T595 44ZM170 -3Q159 -3 151 4T142 24Q142 32 147 40L575 690Q584 703 597 703Q608 703 616 696T625 676Q625 669 620 660L192 10Q183 -3 170 -3Z" />
<glyph unicode="&amp;" horiz-adv-x="679" d="M272 -10Q201 -10 146 23T61 108T30 218Q30 262 47 303T100 376T191 428L234 385Q156 367 124 323T92 226Q92 181 113 141T176 74T279 48Q344 48 390 69T469 126T520 206T548 297Q550 307 556 312T575 318Q589 318
597 308T603 283Q594 229 570 177T505 83T406 15T272 -10ZM627 3Q622 3 618 4T609 8Q548 56 492 100T380 197T263 317Q228 357 200 395T155 471T138 546Q138 592 161 629T226 688T326 710Q398 710 445 683T511 619Q512 618 514 613T516 600Q516 591 509 583T488
575Q480 575 475 578T466 586Q446 616 414 635T326 655Q265 655 233 625T201 546Q201 515 218 481T261 411T317 343Q357 298 401 256T489 176T572 109T641 56Q648 51 651 45T654 31Q654 23 647 13T627 3Z" />
<glyph unicode="&apos;" horiz-adv-x="193" d="M70 674Q73 700 99 700H132Q145 699 148 692T149 672L85 456Q79 435 57 435Q41 435 44 461L70 674Z" />
<glyph unicode="(" horiz-adv-x="374" d="M321 -192Q314 -192 306 -187Q222 -145 166 -76T82 80T53 257Q53 348 82 431T169 584T307 702Q314 706 321 706Q333 706 340 698T347 679Q347 665 335 656Q264 615 215 552T139 412T113 257Q113 178 138 101T212 -39T335
-142Q347 -149 347 -165Q347 -175 340 -183T321 -192Z" />
<glyph unicode=")" horiz-adv-x="374" d="M52 -191Q41 -191 34 -183T26 -164Q26 -149 39 -141Q110 -100 159 -37T235 103T261 258Q261 337 236 414T162 555T39 658Q27 665 27 680Q27 691 33 699T52 707Q60 707 67 703Q152 660 208 591T292 436T321 258Q321 168
292 84T205 -70T67 -187Q61 -191 52 -191Z" />
<glyph unicode="*" horiz-adv-x="309" d="M154 400Q145 400 139 407T133 425L140 518Q141 521 139 522T135 522L57 468Q49 462 39 464T24 475Q18 485 21 494T35 508L121 548Q124 549 124 551T121 554L35 595Q25 600 22 609T24 628Q30 638 39 639T57 635L135 581Q137
579 139 580T140 584L133 677Q132 687 139 694T156 702Q166 702 172 695T177 677L170 584Q169 581 171 580T176 581L253 634Q262 640 272 638T287 627Q293 618 289 609T275 595L190 554Q187 553 187 551T190 548L275 508Q286 503 289 494T287 475Q282 466 272 464T253
468L176 522Q173 524 171 523T170 518L177 425Q178 415 172 408T154 400Z" />
<glyph unicode="+" horiz-adv-x="562" d="M77 304Q65 304 57 312T48 334Q48 346 56 353T77 361H490Q502 361 510 353T519 332Q519 321 511 313T490 304H77ZM283 88Q269 88 260 97T251 120V543Q251 558 260 567T283 576Q298 576 306 567T315 544V120Q315 106 306
97T283 88Z" />
<glyph unicode="," horiz-adv-x="194" d="M159 -8Q159 -35 143 -60T104 -102T59 -119Q51 -119 44 -114T36 -95Q36 -81 45 -80T69 -70Q86 -62 95 -50T104 -22Q104 -9 97 -2T79 5Q72 5 65 3T52 -3Q47 2 43 8T40 23Q42 40 58 52T97 65Q124 65 141 43T159 -8Z" />
<glyph unicode="-" horiz-adv-x="390" d="M87 283Q75 283 67 292T58 314Q58 326 66 334T87 343H303Q315 343 324 334T333 312Q333 300 324 292T303 283H87Z" />
<glyph unicode="." horiz-adv-x="181" d="M87 0Q70 0 61 11T52 39V60Q52 78 61 88T87 98H94Q111 98 120 88T129 60V39Q129 22 120 11T94 0H87Z" />
<glyph unicode="/" horiz-adv-x="522" d="M36 -129Q24 -129 16 -121T8 -101Q8 -94 12 -86L447 775Q454 789 461 794T480 799Q489 799 497 792T506 772Q506 763 502 754L67 -108Q60 -119 53 -124T36 -129Z" />
<glyph unicode="0" horiz-adv-x="595" d="M297 -10Q217 -10 163 38T82 167T55 350Q55 452 82 533T163 662T297 710Q379 710 432 663T513 534T540 350Q540 249 513 168T433 38T297 -10ZM297 52Q356 52 395 89T455 193T476 350Q476 440 456 507T396 612T297 649Q239
649 200 612T140 508T119 350Q119 261 139 194T199 89T297 52Z" />
<glyph unicode="1" horiz-adv-x="370" d="M226 0Q212 0 203 9T194 30V632L205 622L72 533Q64 527 55 527Q43 527 34 537T24 559Q24 575 40 584L207 695Q213 699 219 700T231 700Q244 699 251 691T258 670V30Q258 18 249 9T226 0Z" />
<glyph unicode="2" horiz-adv-x="554" d="M474 58Q486 58 494 50T503 29Q503 16 495 8T474 0H99Q86 0 77 7T67 30Q67 41 75 51L306 306Q361 366 388 416T416 507Q416 573 376 613T268 653Q237 653 207 640T153 606T116 558Q110 548 104 544T89 540Q77 540 68 547T59
566Q59 573 62 580T73 596Q91 627 123 653T194 694T272 710Q336 710 382 686T454 617T480 511Q480 459 448 398T351 265L156 46L146 58H474Z" />
<glyph unicode="3" horiz-adv-x="524" d="M89 103Q94 103 99 101T113 92Q134 70 163 59T229 47Q278 47 318 69T383 130T407 221Q407 279 382 314T317 367T236 385Q225 385 215 384T195 380T181 378Q168 378 161 386T154 408Q154 415 157 420T165 433L368 654L380
638H77Q65 638 57 646T48 667Q48 679 56 687T77 695H413Q430 695 437 685T444 664Q444 658 441 653T433 641L230 420L208 433Q211 436 228 439T256 443Q311 443 359 417T438 343T469 223Q469 153 436 101T347 19T223 -10Q182 -10 142 4T72 46Q65 52 62 58T59 70Q59
82 67 92T89 103Z" />
<glyph unicode="4" horiz-adv-x="527" d="M367 0Q354 0 346 9T338 30V617L351 609L88 261L85 272H469Q481 272 489 264T498 244Q498 232 490 224T469 216H44Q32 216 23 225T14 247Q14 258 21 267L343 688Q348 695 355 697T368 700Q381 700 389 691T398 670V30Q398
18 389 9T367 0Z" />
<glyph unicode="5" horiz-adv-x="545" d="M234 -2Q193 -2 152 11T78 52Q72 57 69 64T65 78Q65 88 73 97T94 107Q105 107 116 98Q142 78 172 67T234 56Q293 56 337 78T405 142T429 239Q429 290 407 327T345 386T249 408Q213 408 184 397T133 375T98 363Q86 363
79 369T69 384T68 403L111 670Q112 679 120 686T142 694H443Q455 694 463 686T472 665Q472 652 464 644T443 635H156L165 644L124 407L106 420Q119 430 143 440T198 457T263 465Q328 465 379 437T459 358T489 241Q489 168 458 114T369 29T234 -2Z" />
<glyph unicode="6" horiz-adv-x="538" d="M287 -10Q229 -10 186 11T114 67T72 148T58 240Q58 288 70 343T107 456T168 564T253 655T363 719Q370 721 375 721Q388 721 397 714T407 690Q407 680 401 673T383 661Q341 643 300 610T224 534T165 442T130 341L108 328Q126
361 154 386T220 427T300 443Q345 443 383 424T448 373T491 299T507 214Q507 155 479 104T401 22T287 -10ZM286 48Q332 48 368 69T424 127T445 214Q445 259 428 297T376 360T290 385Q237 385 199 361T140 298T119 211Q119 169 139 132T196 71T286 48Z" />
<glyph unicode="7" horiz-adv-x="513" d="M178 -3Q166 -3 156 5T146 25Q146 32 149 40L415 651L426 637H88Q76 637 68 645T59 666Q59 679 67 687T88 695H455Q470 695 477 687T484 667Q484 659 481 652L206 17Q203 8 195 3T178 -3Z" />
<glyph unicode="8" horiz-adv-x="540" d="M364 352L361 361Q395 348 423 323T468 263T485 187Q485 133 457 89T379 19T270 -7Q209 -7 161 19T84 89T55 187Q55 231 72 265T118 324T178 361L175 351Q148 364 125 386T86 440T71 510Q71 564 97 607T169 675T270 700Q325
700 369 675T440 607T467 510Q467 471 452 440T413 387T364 352ZM133 510Q133 470 152 440T202 393T270 376Q306 376 337 393T386 440T405 510Q405 569 367 606T270 643Q209 643 171 606T133 510ZM270 50Q338 50 380 89T423 187Q423 227 402 259T346 309T270 327Q229
327 194 309T138 259T117 187Q117 128 159 89T270 50Z" />
<glyph unicode="9" horiz-adv-x="558" d="M277 711Q336 711 379 690T451 634T493 553T507 461Q507 413 495 359T458 249T397 143T311 53T202 -9Q194 -11 189 -11Q177 -11 168 -3T158 20Q158 30 164 37T182 49Q239 73 292 120T383 230T435 360L456 373Q439 341
410 315T345 275T265 260Q201 260 155 291T83 375T58 487Q58 546 86 597T164 679T277 711ZM279 653Q232 653 196 632T140 574T119 487Q119 443 136 404T189 342T274 318Q328 318 366 341T425 404T446 490Q446 533 426 570T369 630T279 653Z" />
<glyph unicode=":" horiz-adv-x="187" d="M90 417Q73 417 64 427T55 455V476Q55 494 64 504T90 515H97Q114 515 123 505T132 476V455Q132 438 123 428T97 417H90ZM90 0Q73 0 64 10T55 38V60Q55 78 64 88T90 98H97Q114 98 123 88T132 60V38Q132 21 123 11T97 0H90Z" />
<glyph unicode=";" horiz-adv-x="199" d="M110 417Q93 417 82 427T71 455V476Q71 494 82 504T110 515H116Q134 515 144 505T154 476V455Q154 438 144 428T116 417H110ZM167 -8Q167 -35 151 -60T112 -102T67 -119Q59 -119 52 -114T44 -95Q44 -81 53 -80T77 -70Q94
-62 103 -50T112 -22Q112 -9 105 -2T87 5Q80 5 73 3T60 -3Q55 2 51 8T48 23Q50 40 66 52T105 65Q132 65 149 43T167 -8Z" />
<glyph unicode="&lt;" horiz-adv-x="523" d="M431 89Q425 89 418 92T405 98L54 298Q42 305 38 313T33 333Q33 345 39 353T57 368L402 564Q408 567 414 569T425 572Q438 573 447 564T456 543Q456 533 452 527T438 516L86 318L84 346L434 148Q448 141 453 135T458
118Q458 107 450 98T431 89Z" />
<glyph unicode="=" horiz-adv-x="519" d="M81 391Q68 391 59 399T50 421Q50 432 59 440T81 448H439Q452 448 460 440T469 419Q469 408 461 400T439 391H81ZM81 208Q68 208 59 216T50 238Q50 250 59 258T81 266H439Q452 266 460 258T469 236Q469 225 461 217T439 208H81Z" />
<glyph unicode="&gt;" horiz-adv-x="530" d="M93 94Q82 94 74 103T65 123Q65 133 70 139T89 152L444 346L446 319L85 521Q77 525 73 531T68 548Q68 560 76 569T97 577Q102 577 108 575T121 568L472 370Q484 363 490 355T497 335Q497 323 492 315T475 300L118 103Q112
99 106 97T93 94Z" />
<glyph unicode="?" horiz-adv-x="485" d="M201 336Q201 349 210 358T231 367Q277 370 313 390T370 444T391 523Q391 570 372 604T319 658T244 678Q203 678 167 659T107 609Q99 601 89 598T66 602Q54 610 52 622T59 646Q91 686 140 711T244 736Q302 736 349 710T425
636T453 523Q453 483 437 446T393 380T328 334T248 315Q245 315 250 316T260 322V217Q260 204 252 196T230 187Q217 187 209 195T201 217V336ZM231 0Q214 0 205 10T195 38V60Q195 78 204 88T231 98H237Q255 98 263 88T272 60V38Q272 21 264 11T237 0H231Z" />
<glyph unicode="@" horiz-adv-x="972" d="M689 55Q659 55 636 67T602 101T594 153L603 222L617 220Q596 166 563 129T489 74T408 55Q365 55 332 77T280 137T261 220Q261 267 279 317T329 412T406 483T502 510Q562 510 598 473T643 381L624 331L646 475Q648 486
655 494T677 502Q694 502 700 493T703 466L656 166Q651 132 666 117T700 102Q736 102 767 127T823 195T861 290T875 396Q875 475 839 535T735 628T576 662Q473 662 385 632T231 542T128 398T90 206Q90 147 108 90T165 -13T266 -87T414 -114Q469 -114 507 -106T577
-84T639 -55Q647 -51 655 -52T669 -66Q677 -86 653 -98Q610 -119 554 -140T414 -162Q313 -162 242 -131T127 -46T61 72T40 206Q40 323 81 416T196 575T367 675T576 710Q690 710 768 668T885 554T925 396Q925 335 908 275T859 165T784 85T689 55ZM417 106Q452 106
487 124T551 174T598 244T618 323Q623 364 610 394T570 442T504 459Q461 459 427 437T369 378T333 300T321 222Q321 167 349 137T417 106Z" />
<glyph unicode="A" horiz-adv-x="647" d="M328 623L85 19Q81 9 74 4T58 -1Q44 -1 37 6T29 25Q28 30 30 37L294 683Q299 694 306 698T324 703Q334 703 341 698T353 683L616 40Q618 34 618 28Q618 14 609 7T588 -1Q578 -1 571 4T559 19L310 627L328 623ZM143 202L168
261H478L490 202H143Z" />
<glyph unicode="B" horiz-adv-x="651" d="M389 700Q473 700 520 655T568 528Q568 486 550 448T497 387T410 360L406 380Q443 380 478 370T542 336T587 279T604 195Q604 143 587 106T540 45T472 11T393 0H124Q112 0 103 9T94 30V670Q94 682 103 691T124 700H389ZM381
641H146L158 659V376L147 391H381Q433 392 468 425T504 523Q504 578 472 609T381 641ZM388 331H153L158 337V50L152 59H390Q454 59 497 91T540 195Q540 245 519 275T463 318T388 331Z" />
<glyph unicode="C" horiz-adv-x="653" d="M605 648Q617 640 619 628T613 603Q606 594 595 593T574 597Q536 622 493 636T399 650Q338 650 286 629T194 567T134 471T112 350Q112 282 134 227T195 131T287 70T399 49Q448 49 491 63T573 101Q583 107 594 106T613
94Q622 83 620 71T606 51Q581 35 547 21T475 -1T399 -10Q327 -10 264 16T152 89T76 203T48 350Q48 428 75 493T150 607T262 682T399 709Q456 709 509 693T605 648Z" />
<glyph unicode="D" horiz-adv-x="719" d="M379 700Q453 700 508 672T600 595T653 482T671 350Q671 254 640 175T544 48T379 0H124Q112 0 103 9T94 30V670Q94 682 103 691T124 700H379ZM369 59Q454 59 506 98T582 203T607 350Q607 408 594 460T552 553T478 617T369
641H150L157 650V49L151 59H369Z" />
<glyph unicode="E" horiz-adv-x="568" d="M124 700H491Q503 700 512 692T521 670Q521 657 512 649T491 641H147L157 658V377L146 390H446Q458 390 467 381T476 360Q476 347 467 339T446 331H148L157 341V53L152 59H491Q503 59 512 50T521 29Q521 16 512 8T491
0H124Q112 0 103 9T94 30V670Q94 682 103 691T124 700Z" />
<glyph unicode="F" horiz-adv-x="566" d="M125 0Q111 0 103 9T94 30V670Q94 682 103 691T124 700H488Q501 700 509 692T518 670Q518 658 510 650T488 641H151L155 647V381L150 390H443Q456 390 464 382T473 361Q473 348 465 340T443 332H148L155 340V30Q155 18
147 9T125 0Z" />
<glyph unicode="G" horiz-adv-x="695" d="M408 -10Q331 -10 265 17T151 92T75 207T48 350Q48 427 75 493T150 607T265 683T408 710Q461 710 510 698T599 660Q606 655 609 649T613 635Q613 621 604 613T585 604Q580 604 576 605T567 609Q533 628 493 639T408 650Q322
650 255 611T150 504T112 350Q112 264 150 196T255 89T408 50Q453 50 498 63T577 98L572 77V307L587 293H414Q401 293 392 302T383 323Q383 337 392 345T414 353H605Q618 353 626 345T635 323V82Q635 74 631 67T620 55Q576 25 522 8T408 -10Z" />
<glyph unicode="H" horiz-adv-x="720" d="M126 700Q138 700 147 691T157 669V31Q156 18 147 9T125 0Q111 0 103 9T94 31V669Q94 682 103 691T126 700ZM595 700Q609 700 617 691T626 669V31Q625 18 617 9T594 0Q581 0 572 9T563 31V669Q563 682 572 691T595 700ZM121
387H596L595 329H117L121 387Z" />
<glyph unicode="I" horiz-adv-x="250" d="M157 31Q156 18 147 9T125 0Q111 0 103 9T94 31V669Q94 682 103 691T126 700Q138 700 147 691T157 669V31Z" />
<glyph unicode="J" horiz-adv-x="572" d="M260 -10Q197 -10 147 25T71 117Q66 126 66 133Q66 146 76 153T96 161Q106 161 112 156T124 144Q143 102 179 76T260 50Q306 50 341 69T395 124T415 204V670Q415 682 424 691T447 700Q461 700 469 691T478 670V204Q478
142 450 94T373 18T260 -10Z" />
<glyph unicode="K" horiz-adv-x="675" d="M594 -4Q581 -4 572 7L288 364L335 411L621 49Q628 39 628 28Q628 12 617 4T594 -4ZM583 698Q595 698 603 689T612 669Q612 657 603 648L149 223L141 291L561 688Q571 698 583 698ZM125 0Q111 0 103 9T94 31V669Q94 682
103 691T126 700Q139 700 148 691T157 669V31Q156 18 147 9T125 0Z" />
<glyph unicode="L" horiz-adv-x="532" d="M481 59Q493 59 502 51T511 30Q511 17 502 9T481 0H124Q111 0 103 9T94 30V670Q94 682 103 691T126 700Q138 700 147 691T157 670V42L138 59H481Z" />
<glyph unicode="M" horiz-adv-x="827" d="M124 700Q131 700 138 697T151 687L427 273L400 274L677 687Q688 702 704 700Q716 700 724 692T733 670V30Q733 18 724 9T702 0Q688 0 679 9T670 30V609L688 607L435 224Q432 218 426 215T412 212Q405 211 399 214T388
224L134 611L153 624V30Q153 18 145 9T123 0Q110 0 102 9T94 30V670Q94 682 102 691T124 700Z" />
<glyph unicode="N" horiz-adv-x="728" d="M606 700Q619 700 626 692T634 672V32Q634 17 625 9T603 0Q597 0 590 2T579 10L133 611L150 620V27Q150 16 142 8T122 0Q109 0 102 8T94 27V670Q94 685 103 692T123 700Q129 700 136 698T147 689L588 95L578 77V672Q578
684 586 692T606 700Z" />
<glyph unicode="O" horiz-adv-x="766" d="M718 350Q718 271 694 206T624 92T518 17T383 -10Q310 -10 249 16T142 91T73 205T48 350Q48 429 72 494T142 608T248 683T383 710Q456 710 517 684T624 609T693 495T718 350ZM654 350Q654 439 620 506T524 612T383 650Q304
650 243 612T147 507T112 350Q112 261 146 194T242 88T383 50Q463 50 524 88T619 193T654 350Z" />
<glyph unicode="P" horiz-adv-x="596" d="M361 700Q417 700 460 675T528 604T553 501Q553 443 528 397T460 323T361 296H149L154 306V30Q154 18 145 9T124 0Q110 0 102 9T94 30V670Q94 682 103 691T124 700H361ZM361 354Q400 354 429 373T474 426T491 501Q491
542 475 573T429 623T361 641H149L154 650V348L148 354H361Z" />
<glyph unicode="Q" horiz-adv-x="775" d="M766 -56Q777 -56 785 -63T793 -83Q793 -100 776 -116T730 -145T670 -166T610 -174Q551 -174 511 -161T441 -131T380 -101T306 -88Q288 -88 275 -94T250 -105T225 -111Q213 -111 205 -102T196 -80Q196 -62 213 -55L385
7L477 4L318 -50L331 -36Q373 -36 406 -48T469 -76T534 -105T612 -118Q651 -118 676 -107T718 -86Q733 -77 743 -67T766 -56ZM718 350Q718 271 694 206T624 92T518 17T383 -10Q310 -10 249 16T142 91T73 205T48 350Q48 429 72 494T142 608T248 683T383 710Q456
710 517 684T624 609T693 495T718 350ZM654 350Q654 439 620 506T524 612T383 650Q304 650 243 612T147 507T112 350Q112 261 146 194T242 88T383 50Q463 50 524 88T619 193T654 350Z" />
<glyph unicode="R" horiz-adv-x="670" d="M128 0Q113 0 104 9T94 30V670Q94 682 103 691T124 700H394Q451 700 496 676T566 608T592 511Q592 467 576 430T531 368T466 330L431 341Q468 338 500 318T551 262T572 176Q573 133 576 109T587 73T605 54Q615 48 618
37T616 16Q612 8 605 5T589 1T573 5Q559 13 545 30T521 80T511 172Q511 211 499 236T467 274T424 293T379 299H146L157 313V30Q157 18 149 9T128 0ZM146 354H397Q431 357 461 376T509 430T528 509Q528 566 490 603T389 641H150L157 655V340L146 354Z" />
<glyph unicode="S" horiz-adv-x="562" d="M287 -10Q211 -11 155 14T48 89Q43 93 40 99T36 113Q36 125 45 135T67 145Q79 145 89 135Q128 93 177 71T284 49Q332 49 369 64T429 107T451 172Q451 218 426 246T360 293T269 327Q228 339 191 354T125 392T80 448T64
528Q64 581 92 622T171 686T291 710Q350 710 404 690T491 631Q506 615 506 602Q506 592 496 582T474 572Q464 572 457 579Q440 600 414 616T357 642T291 651Q244 651 207 637T148 595T126 530Q126 488 150 461T213 417T296 384Q339 372 378 357T448 318T496 260T514
172Q514 121 485 80T406 15T287 -10Z" />
<glyph unicode="T" horiz-adv-x="604" d="M302 0Q288 0 280 9T271 30V667H333V30Q333 18 324 9T302 0ZM64 643Q52 643 43 651T34 672Q34 684 43 692T64 700H540Q552 700 561 692T570 671Q570 658 561 651T540 643H64Z" />
<glyph unicode="U" horiz-adv-x="713" d="M589 700Q603 700 611 692T619 670V256Q619 182 584 122T490 27T357 -9Q283 -9 224 26T129 122T94 256V670Q94 683 102 691T126 700Q138 700 147 692T156 670V256Q156 198 183 152T257 79T357 51Q413 51 459 78T532 152T560
256V670Q560 683 568 691T589 700Z" />
<glyph unicode="V" horiz-adv-x="665" d="M600 701Q614 701 622 693T631 673Q631 666 628 658L361 20Q356 10 348 5T332 0Q323 0 315 5T304 19L38 656Q37 659 36 663T35 672Q35 685 44 693T64 701Q85 701 94 679L344 81H326L572 681Q582 701 600 701Z" />
<glyph unicode="W" horiz-adv-x="966" d="M904 702Q917 702 926 695T936 672Q936 667 934 659L713 19Q710 10 702 5T686 0Q676 0 668 4T656 19L479 457L487 455L310 19Q306 9 298 5T280 0Q272 0 265 5T254 19L33 659Q30 667 30 671Q30 686 41 694T63 702Q73 702
81 697T92 683L293 97L282 96L456 530Q459 539 466 544T484 549Q494 550 501 545T513 530L685 98L674 94L874 683Q877 692 885 697T904 702Z" />
<glyph unicode="X" horiz-adv-x="606" d="M543 703Q555 703 563 696T572 677Q572 667 565 658L335 345L302 394L519 690Q529 703 543 703ZM65 703Q81 703 90 691L565 45Q572 36 572 27Q572 13 562 5T541 -3Q525 -3 517 9L41 655Q34 663 34 673Q34 686 43 694T65
703ZM62 -3Q49 -3 42 5T35 23Q35 32 42 43L272 356L304 306L86 10Q77 -3 62 -3Z" />
<glyph unicode="Y" horiz-adv-x="559" d="M511 704Q524 704 532 695T541 674Q541 669 540 665T535 655L300 332L312 371V30Q312 18 303 9T281 0Q268 0 260 9T251 30V364L256 340L27 653Q23 658 21 663T19 674Q19 687 29 695T51 704Q66 704 76 690L291 397L276
399L485 690Q495 704 511 704Z" />
<glyph unicode="Z" horiz-adv-x="644" d="M565 700Q580 700 589 691T598 670Q598 660 592 652L137 49L135 57H564Q576 57 585 49T594 29Q594 17 585 9T564 0H85Q71 0 63 10T54 31Q54 41 60 49L513 647L519 643H110Q97 643 89 651T80 672Q80 684 88 692T110 700H565Z" />
<glyph unicode="[" horiz-adv-x="397" d="M107 -190Q96 -190 88 -182T80 -163V673Q80 684 88 692T107 700H335Q346 700 354 693T362 674Q362 663 354 656T335 648H130L139 655V-149L131 -136H335Q346 -136 354 -144T362 -164Q362 -174 354 -182T335 -190H107Z" />
<glyph unicode="\" horiz-adv-x="523" d="M487 -133Q474 -133 468 -127T456 -111L15 762Q13 767 12 770T11 778Q11 789 19 796T38 803Q54 803 60 797T70 781L512 -93Q515 -100 515 -108Q515 -119 506 -126T487 -133Z" />
<glyph unicode="]" horiz-adv-x="397" d="M290 700Q301 700 309 692T317 673V-163Q317 -174 309 -182T290 -190H62Q51 -190 43 -183T35 -164Q35 -153 43 -146T62 -138H267L258 -145V659L265 646H62Q51 646 43 654T35 674Q35 685 43 692T62 700H290Z" />
<glyph unicode="^" horiz-adv-x="518" d="M86 396Q74 396 66 405T57 426Q57 431 59 436T65 448L219 725Q226 739 235 744T259 749Q274 749 283 744T299 725L453 447Q456 442 458 437T460 426Q460 415 452 406T430 396Q420 396 412 401T399 417L252 688L267 689L118
417Q112 407 105 402T86 396Z" />
<glyph unicode="_" horiz-adv-x="667" d="M86 -160Q73 -160 66 -152T58 -133Q58 -121 65 -114T86 -106H581Q593 -106 601 -113T609 -133Q609 -144 601 -152T581 -160H86Z" />
<glyph unicode="`" horiz-adv-x="226" d="M159 558Q152 558 146 562T134 571L55 643Q49 649 45 655T41 669Q41 683 50 691T71 699Q82 699 90 693T102 681L170 593Q178 583 178 576Q178 569 173 564T159 558Z" />
<glyph unicode="a" horiz-adv-x="606" d="M498 511Q511 511 519 502T528 480V30Q528 18 519 9T498 0Q485 0 477 9T468 30V149L485 157Q485 129 470 100T427 46T364 6T285 -10Q217 -10 164 25T80 121T49 258Q49 336 80 395T164 489T284 523Q327 523 364 508T430
467T473 408T489 338L468 353V480Q468 493 476 502T498 511ZM290 46Q343 46 384 73T448 149T472 258Q472 317 449 364T384 439T290 467Q238 467 197 440T132 366T108 258Q108 198 131 150T196 74T290 46Z" />
<glyph unicode="b" horiz-adv-x="606" d="M322 523Q390 523 442 489T526 396T557 258Q557 182 526 121T442 25T323 -10Q288 -10 257 1T199 30T153 74T121 128L139 141V28Q139 15 131 7T109 -2Q96 -2 88 6T79 28V709Q79 722 87 730T109 739Q122 739 130 731T139
709V374L125 382Q135 413 154 438T200 483T257 512T322 523ZM317 467Q263 467 222 440T158 366T134 258Q134 198 157 150T222 74T317 46Q370 46 410 74T475 150T499 258Q499 319 475 366T411 440T317 467Z" />
<glyph unicode="c" horiz-adv-x="518" d="M304 523Q352 523 392 513T456 484T481 445Q481 435 474 426T455 416Q443 416 436 422T421 436T399 451Q386 457 362 462T307 467Q251 467 206 439T135 364T109 257Q109 197 134 149T203 74T306 46Q346 46 368 53T406
69Q425 80 433 90T456 101Q469 101 475 94T482 74Q482 58 459 39T394 5T300 -10Q225 -10 169 25T81 120T49 257Q49 330 81 390T170 486T304 523Z" />
<glyph unicode="d" horiz-adv-x="606" d="M498 740Q511 740 519 732T528 710V30Q528 18 519 9T498 0Q485 0 477 9T468 30V149L485 163Q485 135 470 105T428 48T364 6T285 -10Q218 -10 165 25T80 120T49 257Q49 333 80 393T164 488T284 523Q325 523 362 508T427
467T472 408T489 338L468 353V710Q468 722 476 731T498 740ZM290 46Q344 46 384 73T448 148T472 257Q472 317 449 364T384 439T290 467Q238 467 197 440T132 365T108 257Q108 197 131 149T196 74T290 46Z" />
<glyph unicode="e" horiz-adv-x="565" d="M310 -10Q233 -10 174 23T82 115T49 253Q49 338 82 398T169 490T283 523Q327 523 368 508T442 462T494 387T516 285Q515 273 506 265T485 256H84L72 310H466L453 298V318Q449 365 423 398T360 448T283 465Q253 465 222
453T165 416T123 351T107 257Q107 198 131 150T200 74T309 46Q344 46 372 56T421 82T456 117Q467 126 478 126Q488 126 495 118T503 100Q503 88 493 79Q463 43 415 17T310 -10Z" />
<glyph unicode="f" horiz-adv-x="360" d="M264 736Q279 736 296 733T327 723T340 700Q340 689 332 681T314 672Q304 672 289 677T257 683Q236 683 221 674T198 647T190 604V30Q190 18 182 9T160 0Q147 0 139 9T130 30V604Q130 668 167 702T264 736ZM302 501Q314
501 322 493T330 473Q330 461 322 453T302 445H57Q46 445 38 453T29 473Q29 486 37 493T57 501H302Z" />
<glyph unicode="g" horiz-adv-x="624" d="M292 523Q337 523 375 508T441 468T486 416T502 363L485 387V480Q485 493 493 502T515 511Q529 511 537 502T545 480V47Q545 -33 512 -88T423 -171T294 -200Q259 -200 221 -191T155 -168T124 -139Q116 -130 116 -122T125
-107Q135 -100 146 -105T179 -120Q189 -123 206 -129T246 -139T296 -144Q386 -144 435 -93T485 43V139L496 136Q487 100 467 73T418 28T358 0T293 -10Q224 -10 169 25T82 120T49 257Q49 333 81 393T168 488T292 523ZM299 467Q244 467 201 440T133 365T108 257Q108
197 132 149T200 74T299 46Q354 46 397 73T465 147T490 257Q490 319 465 366T397 440T299 467Z" />
<glyph unicode="h" horiz-adv-x="568" d="M312 515Q375 515 414 488T471 415T490 313V30Q490 18 481 9T460 0Q446 0 438 9T430 30V313Q430 354 418 387T377 439T302 459Q260 459 223 440T162 387T139 313V30Q139 18 130 9T109 0Q95 0 87 9T79 30V710Q79 722 87
731T109 740Q122 740 130 731T139 710V386L116 351Q118 382 135 411T181 464T243 501T312 515Z" />
<glyph unicode="i" horiz-adv-x="214" d="M137 30Q137 18 128 9T107 0Q94 0 86 9T77 30V490Q77 502 85 511T107 520Q120 520 128 511T137 490V30ZM107 843Q86 843 76 852T65 880V890Q65 908 76 917T108 927Q127 927 137 918T148 890V880Q148 862 138 853T107 843Z" />
<glyph unicode="j" horiz-adv-x="270" d="M152 -46Q152 -94 130 -127T74 -179T8 -197Q-5 -197 -12 -189T-20 -170V-166Q-20 -154 -12 -147T6 -138Q29 -133 48 -121T80 -88T92 -37V479Q92 491 100 500T122 509Q135 509 143 500T152 479V-46ZM122 588Q101 588 91
597T80 625V635Q80 653 91 662T123 672Q142 672 152 663T163 635V625Q163 607 153 598T122 588Z" />
<glyph unicode="k" horiz-adv-x="535" d="M115 0Q102 0 94 9T85 30V710Q85 722 93 731T115 740Q128 740 136 731T145 710V30Q145 18 137 9T115 0ZM455 513Q466 513 475 504T484 483Q484 470 473 460L137 174L134 245L434 503Q443 513 455 513ZM463 0Q450 0 441
11L213 253L258 294L484 53Q493 43 493 30Q493 16 482 8T463 0Z" />
<glyph unicode="l" horiz-adv-x="230" d="M145 30Q145 18 136 9T115 0Q102 0 94 9T85 30V710Q85 722 94 731T115 740Q128 740 136 731T145 710V30Z" />
<glyph unicode="m" horiz-adv-x="912" d="M309 515Q371 515 415 483T475 386L461 382L467 400Q480 430 510 456T580 499T659 515Q722 515 760 488T816 416T834 313V30Q834 18 826 9T804 0Q791 0 783 9T774 30V310Q774 351 761 385T720 439T645 459Q604 459 567
439T506 385T482 310V30Q482 18 474 9T452 0Q439 0 431 9T422 30V313Q422 354 410 387T371 439T298 459Q257 459 221 440T162 387T139 313V30Q139 18 130 9T109 0Q95 0 87 9T79 30V478Q79 490 87 499T109 508Q122 508 130 499T139 478V385L112 348Q115 378 131
408T175 462T236 500T309 515Z" />
<glyph unicode="n" horiz-adv-x="578" d="M320 523Q386 523 425 497T482 425T500 324V30Q500 18 491 9T470 0Q456 0 448 9T440 30V321Q440 361 427 394T385 447T307 467Q264 467 226 447T163 394T139 321V30Q139 18 130 9T109 0Q95 0 87 9T79 30V478Q79 490 87
499T109 508Q122 508 130 499T139 478V394L116 358Q118 390 136 419T184 472T248 509T320 523Z" />
<glyph unicode="o" horiz-adv-x="604" d="M555 256Q555 180 522 120T432 25T302 -10Q231 -10 174 24T83 119T49 256Q49 333 82 393T173 488T302 523Q375 523 432 488T522 393T555 256ZM495 256Q495 317 470 364T402 439T302 467Q248 467 204 440T135 365T109 256Q109
195 134 148T204 74T302 46Q358 46 401 73T470 148T495 256Z" />
<glyph unicode="p" horiz-adv-x="606" d="M322 515Q390 515 442 482T526 390T557 255Q557 179 526 120T442 27T323 -7Q288 -7 257 3T199 32T153 74T121 128L139 141V-170Q139 -182 131 -191T109 -200Q96 -200 88 -191T79 -170V482Q79 495 87 504T109 513Q122 513
130 504T139 482V374L125 382Q135 413 154 437T200 479T257 506T322 515ZM317 459Q263 459 222 433T158 361T134 255Q134 196 157 149T222 76T317 49Q370 49 410 75T475 149T499 255Q499 314 475 360T411 432T317 459Z" />
<glyph unicode="q" horiz-adv-x="606" d="M498 513Q511 513 519 504T528 482V-170Q528 -182 519 -191T498 -200Q485 -200 477 -191T468 -170V149L485 163Q485 135 470 105T428 48T364 6T285 -10Q218 -10 165 25T80 120T49 257Q49 333 80 393T164 488T284 523Q325
523 362 508T427 467T472 408T489 338L468 353V482Q468 495 476 504T498 513ZM290 46Q344 46 384 73T448 148T472 257Q472 317 449 364T384 439T290 467Q238 467 197 440T132 365T108 257Q108 197 131 149T196 74T290 46Z" />
<glyph unicode="r" horiz-adv-x="385" d="M109 0Q95 0 87 9T79 30V478Q79 490 87 499T109 508Q122 508 130 499T139 478V328L124 325Q127 360 141 394T181 458T240 505T318 523Q336 523 353 516T370 491Q370 476 362 468T343 460Q334 460 324 465T296 470Q268
470 240 454T189 409T153 347T139 277V30Q139 18 130 9T109 0Z" />
<glyph unicode="s" horiz-adv-x="469" d="M50 81Q42 93 42 104T55 123Q63 130 73 129T93 119Q120 84 158 63T250 41Q278 41 305 50T351 79T369 129Q369 160 351 179T305 209T244 228Q210 237 178 248T122 277T82 320T67 381Q67 423 90 455T152 505T242 523Q267
523 296 517T353 495T403 454Q412 445 412 434T402 413Q394 407 384 407T366 415Q342 442 309 456T238 470Q209 470 184 461T141 432T124 382Q126 353 144 335T193 305T262 283Q294 275 323 264T375 237T411 195T425 132Q425 88 401 56T335 7T244 -10Q190 -10 140
11T50 81Z" />
<glyph unicode="t" horiz-adv-x="339" d="M46 509H279Q291 509 299 501T307 480Q307 469 299 461T279 453H46Q34 453 26 461T17 481Q17 493 25 501T46 509ZM149 650Q162 650 170 641T179 620V118Q179 90 186 76T206 58T230 53Q238 53 244 55T259 58Q268 58 274
51T281 33Q281 19 265 10T227 0Q218 0 200 1T163 12T132 46T119 115V620Q119 632 127 641T149 650Z" />
<glyph unicode="u" horiz-adv-x="569" d="M461 508Q474 508 482 499T491 478V196Q491 97 435 45T284 -7Q190 -7 135 45T79 196V478Q79 490 87 499T109 508Q122 508 130 499T139 478V196Q139 124 177 87T284 49Q353 49 392 86T431 196V478Q431 490 439 499T461 508Z" />
<glyph unicode="v" horiz-adv-x="529" d="M67 522Q75 522 83 517T95 502L270 86L257 78L436 502Q444 522 465 521Q475 521 484 515T493 496Q493 490 492 487T489 479L293 19Q285 1 266 0Q257 -1 249 4T236 19L39 479Q38 481 37 485T36 493Q36 504 44 513T67 522Z" />
<glyph unicode="w" horiz-adv-x="752" d="M686 522Q697 522 706 514T716 492Q716 489 715 485T713 479L559 19Q555 10 547 5T529 0Q511 1 502 19L361 351L379 347L254 19Q246 1 227 0Q218 -1 209 4T197 19L39 479Q36 486 36 492Q36 505 44 513T67 522Q76 522 83
517T94 502L236 76L217 77L346 402Q354 421 374 421Q384 421 391 416T402 402L539 76L517 75L658 502Q664 522 686 522Z" />
<glyph unicode="x" horiz-adv-x="484" d="M65 516Q80 516 89 503L443 45Q450 37 450 27Q450 15 441 6T420 -3Q406 -3 395 10L40 468Q34 475 34 486Q34 499 43 507T65 516ZM65 -3Q55 -3 46 4T36 24Q36 35 43 43L212 260L245 212L89 9Q80 -3 65 -3ZM420 516Q433
516 440 509T448 490Q448 485 447 480T441 471L272 249L241 297L395 503Q406 516 420 516Z" />
<glyph unicode="y" horiz-adv-x="568" d="M460 520Q473 520 481 511T490 490V49Q490 -32 458 -87T372 -171T249 -200Q206 -200 170 -191T110 -166Q98 -159 92 -149T91 -128Q96 -114 106 -110T128 -110Q145 -119 177 -132T250 -145Q305 -145 345 -122T408 -56T430
48V120L437 96Q422 65 395 41T332 4T256 -10Q196 -10 157 14T98 82T79 183V490Q79 502 87 511T109 520Q122 520 130 511T139 490V192Q139 122 169 84T269 46Q312 46 348 66T407 120T430 192V490Q430 502 438 511T460 520Z" />
<glyph unicode="z" horiz-adv-x="479" d="M399 56Q411 56 419 48T428 28Q428 16 420 8T399 0H74Q61 0 53 10T45 29Q45 35 47 40T54 52L357 471L361 462H99Q87 462 79 470T70 490Q70 502 78 510T99 518H406Q417 518 425 509T434 488Q434 482 432 477T426 466L125
51L113 56H399Z" />
<glyph unicode="{" horiz-adv-x="427" d="M363 -200Q361 -200 359 -200T354 -199Q276 -182 235 -155T180 -90T165 -2L166 82Q166 121 155 154T120 207T53 228H48Q37 228 29 235T21 254Q21 265 29 272T48 279H54Q97 280 121 300T156 353T166 424L165 509Q165 557
178 589T216 643T275 679T353 705Q372 710 379 702T386 684Q386 676 381 670T366 660Q305 642 275 622T234 574T223 500L224 418Q224 356 200 311T129 253L128 255Q175 242 199 197T224 89L223 6Q223 -37 233 -66T274 -115T366 -154Q388 -161 385 -181Q385 -189
379 -194T363 -200Z" />
<glyph unicode="|" horiz-adv-x="205" d="M132 -151Q132 -163 124 -172T102 -181Q89 -181 81 -172T72 -151V755Q72 768 80 776T103 785Q116 785 124 777T132 755V-151Z" />
<glyph unicode="}" horiz-adv-x="427" d="M65 -200Q52 -200 47 -192T41 -177Q41 -169 47 -163T62 -153Q122 -135 152 -115T193 -66T204 7V89Q204 152 229 197T298 254L300 253Q253 266 229 311T204 419V501Q204 546 194 574T154 623T62 661Q40 668 42 689Q44 697
50 702T64 708Q67 708 69 708T73 707Q152 690 193 663T248 598T262 510V425Q262 386 272 353T308 300T374 280H380Q390 280 398 272T406 253Q406 243 398 236T380 228H374Q331 228 307 208T272 155T262 83V-2Q262 -38 253 -65T223 -114T165 -155T73 -199Q72 -200
70 -200T65 -200Z" />
<glyph unicode="~" horiz-adv-x="463" d="M324 271Q304 271 279 279T228 299T178 318T137 326Q123 326 113 318T99 290Q99 279 92 273T76 267Q65 267 58 274T50 298Q50 318 60 337T90 370T143 384Q164 384 190 375T241 355T291 336T331 327Q345 327 353 337T363
364Q362 376 369 383T386 390Q397 390 405 383T413 363Q413 322 391 297T324 271Z" />
<glyph unicode="&#xa0;" horiz-adv-x="273" />
<glyph unicode="&#xa1;" horiz-adv-x="185" d="M93 316Q112 316 113 294L124 -147Q125 -165 118 -177T93 -189Q76 -189 69 -177T62 -147L72 294Q74 316 93 316ZM96 511Q114 511 122 501T131 473V451Q131 434 123 424T96 413H90Q73 413 64 423T54 451V473Q54 491
63 501T90 511H96Z" />
<glyph unicode="&#xa2;" horiz-adv-x="514" d="M317 30Q317 18 309 9T287 0Q274 0 266 9T257 30V100L260 126V573L257 597V664Q257 676 265 685T288 694Q301 694 309 685T317 664V599L315 579V117L317 97V30ZM295 80Q221 80 165 115T77 210T45 347Q45 420 77 480T166
576T300 613Q348 613 388 603T452 574T477 535Q477 525 470 516T449 506Q437 506 430 511T416 525T395 541Q380 550 356 554T297 559Q244 559 201 531T131 456T105 347Q105 285 129 237T198 161T299 133Q341 133 363 140T401 159Q420 171 429 181T452 192Q464 192
471 184T478 164Q478 148 455 129T390 95T295 80Z" />
<glyph unicode="&#xa3;" horiz-adv-x="614" d="M74 331Q61 331 53 339T45 359Q45 371 53 379T74 387H441Q453 387 461 379T470 358Q470 346 462 339T441 331H74ZM238 77Q280 77 323 67T408 45T484 34Q512 34 531 40T563 58Q570 65 576 67T588 69Q602 69 608 60T614
42Q614 29 606 20T584 5Q561 -9 534 -16T485 -23Q455 -23 423 -16T357 -1T293 15T233 22Q208 22 183 17T139 7T110 -1Q96 -4 84 -10T65 -16Q53 -16 47 -8T40 10Q40 21 46 29T66 41Q100 51 127 59T181 72T238 77ZM161 23L117 41Q130 47 144 65T168 112T179 177Q179
213 171 248T152 319T133 394T125 477Q125 547 151 599T227 681T344 710Q397 710 446 693T526 640Q536 631 542 623T548 606Q548 595 538 585T515 575Q509 575 504 577T494 584Q469 615 431 633T344 652Q295 652 260 630T206 568T187 477Q187 434 195 395T214 319T233
250T241 184Q241 147 230 116T200 62T161 23Z" />
<glyph unicode="&#xa4;" horiz-adv-x="493" d="M83 483Q94 483 104 473L166 416Q162 412 154 403T138 385T126 373L64 431Q53 442 53 452Q53 459 57 466T69 478T83 483ZM408 482Q415 482 422 478T434 466T439 452Q439 442 428 431L366 374Q363 378 355 387T340
404T328 416L388 473Q398 482 408 482ZM409 118Q398 118 388 128L328 184Q332 187 340 196T356 213T368 226L428 169Q438 159 438 149Q438 142 434 135T423 123T409 118ZM83 118Q77 118 70 123T58 135T53 149Q53 159 64 169L127 230Q131 226 139 218T156 201T168
188L104 128Q94 118 83 118ZM246 136Q203 136 167 158T109 218T87 300Q87 346 108 383T166 442T246 464Q291 464 327 442T385 383T406 300Q406 255 385 218T328 159T246 136ZM247 187Q276 187 299 202T336 242T350 299Q350 331 337 356T300 397T247 413Q218 413
195 398T158 357T144 299Q144 268 157 243T194 202T247 187Z" />
<glyph unicode="&#xa5;" horiz-adv-x="559" d="M114 155Q101 155 92 162T83 182Q83 195 92 202T114 210L454 207Q467 207 476 200T485 179Q485 167 476 160T454 152L114 155ZM113 288Q100 288 91 296T82 316Q82 328 91 336T113 344L453 341Q466 341 475 333T484
313Q484 301 475 293T453 285L113 288ZM511 704Q524 704 532 695T541 674Q541 669 540 665T535 655L302 332L313 371V30Q313 18 304 9T281 0Q267 0 258 9T249 30V364L255 340L27 653Q23 658 21 663T19 674Q19 683 24 689T37 700T53 704Q68 704 78 690L291 390L277
393L485 690Q490 697 497 700T511 704Z" />
<glyph unicode="&#xa6;" horiz-adv-x="208" d="M134 409Q134 397 126 388T104 379Q91 379 83 388T74 409V755Q74 768 82 776T105 785Q118 785 126 777T134 755V409ZM134 -151Q134 -163 126 -172T103 -181Q90 -181 82 -172T74 -151V195Q74 207 82 216T104 225Q117
225 125 216T134 195V-151Z" />
<glyph unicode="&#xa7;" horiz-adv-x="533" d="M488 279Q486 222 444 185T321 140L341 168Q397 138 424 108T451 29Q451 -7 438 -37T401 -91T341 -126T261 -139Q217 -139 177 -127T106 -96T58 -61Q52 -54 48 -47T44 -29Q45 -19 53 -11T73 -2Q77 -2 83 -4T96 -12Q110
-27 132 -43T186 -70T260 -81Q276 -81 298 -78T341 -65T376 -33T390 22Q390 50 370 71T313 108T227 138Q149 160 105 197T60 298Q60 319 67 342T92 386T138 421T208 441L203 417Q151 438 127 473T103 549Q103 594 121 624T169 673T230 700T290 707Q343 706 380
688T444 643Q452 636 452 624Q452 613 445 604T422 594Q414 594 409 599Q386 619 356 633T286 648Q257 648 229 639T183 609T164 555Q164 525 181 505T223 471T273 450T314 438Q398 416 443 380T488 279ZM241 199L313 183Q349 183 374 196T413 230T427 275Q427
312 400 333T315 373L230 392Q203 394 178 382T138 350T123 303Q123 270 149 245T241 199Z" />
<glyph unicode="&#xa8;" horiz-adv-x="400" d="M286 600Q266 600 256 610T245 640V650Q245 669 256 679T287 690Q306 690 316 680T327 650V640Q327 620 316 610T286 600ZM114 600Q94 600 84 610T73 640V650Q73 669 84 679T114 690Q134 690 144 680T155 650V640Q155
620 144 610T114 600Z" />
<glyph unicode="&#xa9;" horiz-adv-x="795" d="M398 -2Q325 -2 261 24T149 98T73 210T45 350Q45 427 72 491T148 602T261 676T398 703Q470 703 534 677T646 603T722 491T750 350Q750 275 723 210T647 98T534 25T398 -2ZM398 45Q460 45 515 67T612 131T678 228T702
350Q702 416 679 471T613 568T515 633T398 656Q335 656 280 633T183 569T118 472T94 350Q94 284 117 228T183 131T280 68T398 45ZM416 153Q356 153 311 178T239 249T213 350Q213 404 238 449T309 520T416 547Q480 547 530 514Q540 509 542 497T537 476Q531 467
521 467T503 470Q484 482 462 489T416 496Q370 496 336 477T284 425T266 350Q266 307 284 274T336 223T416 204Q440 204 461 211T503 229Q511 234 521 233T537 223Q544 214 542 203T531 185Q506 170 477 162T416 153Z" />
<glyph unicode="&#xaa;" horiz-adv-x="350" d="M147 391Q105 391 77 414T35 474T21 558Q21 602 38 637T86 693T156 714Q204 714 236 682T268 586L253 632V677Q253 686 260 694T280 702Q293 702 300 695T308 677V426Q308 415 300 408T280 401Q268 401 261 408T253
426V474L268 506Q268 481 253 455T210 410T147 391ZM161 439Q203 439 230 470T257 555Q257 608 232 637T166 666Q130 666 103 635T76 558Q76 509 97 474T161 439Z" />
<glyph unicode="&#xab;" horiz-adv-x="455" d="M384 50Q371 50 361 62L231 238Q224 247 224 258Q224 269 231 277L362 452Q371 465 385 465Q396 465 405 458T414 438Q414 427 405 417L284 251L282 267L406 99Q410 95 412 90T414 80Q414 65 404 58T384 50ZM438
50Q425 50 415 62L285 238Q278 247 278 258Q278 269 285 277L416 452Q425 465 439 465Q450 465 459 458T468 438Q468 427 459 417L338 251L336 267L460 99Q464 95 466 90T468 80Q468 65 458 58T438 50Z" />
<glyph unicode="&#xac;" horiz-adv-x="650" d="M568 149Q555 149 546 158T536 181V370L553 360H79Q67 360 59 368T50 390Q50 403 58 411T79 420H568Q582 420 591 412T600 389V181Q600 167 591 158T568 149Z" />
<glyph unicode="&#xad;" horiz-adv-x="390" d="M87 283Q75 283 67 292T58 314Q58 326 66 334T87 343H303Q315 343 324 334T333 312Q333 300 324 292T303 283H87Z" />
<glyph unicode="&#xae;" horiz-adv-x="534" d="M207 363Q199 363 193 368T187 382V586Q187 591 191 596T203 602H276Q314 602 335 586T357 534Q357 509 342 494T298 473L296 481Q312 478 326 462T340 423Q341 408 343 402T353 392Q359 390 360 386T361 376Q358
368 350 365T330 362Q318 363 309 377T299 419Q299 436 291 447T265 458H218L228 467V382Q228 374 222 369T207 363ZM270 495Q290 495 303 504T317 531Q317 550 305 556T273 563H214L228 574V488L219 495H270ZM267 259Q206 259 155 288T73 368T43 483Q43 547 73
597T154 677T267 707Q329 707 379 678T460 598T491 483Q491 419 461 368T380 288T267 259ZM267 302Q317 302 357 325T421 389T445 483Q445 536 422 576T358 640T267 664Q216 664 176 641T111 577T87 483Q87 430 111 389T175 325T267 302Z" />
<glyph unicode="&#xaf;" horiz-adv-x="396" d="M78 575Q50 575 50 601Q50 628 78 628H318Q346 628 346 601Q346 575 318 575H78Z" />
<glyph unicode="&#xb0;" horiz-adv-x="332" d="M166 420Q126 420 95 440T45 492T26 563Q26 603 44 635T94 687T166 707Q207 707 238 688T288 636T306 564Q306 526 288 493T238 440T166 420ZM166 469Q204 469 229 498T254 564Q254 601 229 630T166 659Q128 659
104 631T79 563Q79 527 103 498T166 469Z" />
<glyph unicode="&#xb1;" horiz-adv-x="523" d="M83 395Q70 395 62 403T53 425Q53 437 61 445T83 453H441Q454 453 462 445T471 423Q471 412 463 404T441 395H83ZM264 246Q251 246 242 255T232 278V577Q232 591 241 600T265 609Q279 609 287 600T296 577V279Q296
264 287 255T264 246ZM78 122Q65 122 57 130T48 152Q48 164 56 172T77 180H445Q458 180 466 173T475 151Q475 137 467 130T445 122H78Z" />
<glyph unicode="&#xb2;" horiz-adv-x="317" d="M77 488Q65 488 58 494T50 514Q50 521 53 526T62 538L144 627Q165 653 185 677T206 727Q206 744 194 755T157 767Q139 767 123 757T99 726Q97 719 91 715T77 711Q67 711 60 717T53 731Q53 745 66 765T103 801T164
816Q198 816 219 803T251 771T262 729Q262 701 250 680T221 641T188 603L120 527L114 535H242Q252 535 259 529T267 512Q267 502 260 495T242 488H77Z" />
<glyph unicode="&#xb3;" horiz-adv-x="313" d="M149 479Q125 479 101 486T61 506Q49 514 49 528Q49 539 55 546T73 554Q78 554 82 551T94 543Q100 539 115 534T147 528Q175 528 196 544T217 587Q217 612 200 624T157 637Q146 637 134 634T108 628Q97 626 90 633T82
650Q82 655 83 659T89 668L195 768L203 758H84Q73 758 66 765T59 783Q59 793 66 800T84 807H230Q241 807 248 800T256 783Q259 771 249 761L152 671L132 670Q133 673 147 677T169 681Q197 681 219 672T255 642T269 588Q269 555 252 531T208 493T149 479Z" />
<glyph unicode="&#xb4;" horiz-adv-x="281" d="M93 559Q88 559 83 564T77 577Q77 583 82 591L143 686Q148 694 156 701T177 708Q192 708 201 700T209 677Q209 670 207 665T199 654L124 575Q118 568 110 564T93 559Z" />
<glyph unicode="&#xb5;" horiz-adv-x="554" d="M110 -152Q96 -152 88 -144T80 -122V485Q80 497 89 506T110 515Q123 515 131 506T140 485V197Q140 156 152 122T191 68T264 48Q295 48 323 60T374 94T410 142T424 197V485Q424 497 432 506T454 515Q467 515 475 506T484
485V30Q484 18 475 9T454 0Q440 0 432 9T424 30V108L426 99Q416 75 392 50T334 7T259 -10Q232 -10 204 1T154 34T127 88L140 80V-122Q140 -136 132 -144T110 -152Z" />
<glyph unicode="&#xb6;" horiz-adv-x="623" d="M502 0Q491 0 484 7T476 29V667L493 651H368L383 664V59Q383 24 369 -3T327 -45T265 -60Q235 -60 211 -50T184 -25Q180 -17 182 -8T195 7Q202 11 209 10T225 4Q233 -1 242 -5T264 -9Q293 -9 312 12T331 65V299L350
269H297Q207 271 152 293T71 362T46 487Q46 569 74 615T162 680T324 700H503Q513 700 520 693T528 675V29Q528 15 521 8T502 0Z" />
<glyph unicode="&#xb7;" horiz-adv-x="195" d="M94 251Q77 251 67 261T56 289V311Q56 328 66 338T94 349H101Q118 349 128 339T139 311V289Q139 272 129 262T101 251H94Z" />
<glyph unicode="&#xb8;" horiz-adv-x="278" d="M78 -143Q72 -143 62 -139T44 -128T36 -112Q36 -101 43 -94L130 15H168L104 -124Q96 -143 78 -143Z" />
<glyph unicode="&#xb9;" horiz-adv-x="222" d="M139 489Q127 489 120 496T113 515V750L119 743L70 712Q66 710 62 709T53 707Q43 707 37 715T30 732Q30 746 43 755L120 801Q130 806 140 805Q151 804 157 797T164 777V515Q164 504 157 497T139 489Z" />
<glyph unicode="&#xba;" horiz-adv-x="349" d="M326 549Q326 504 306 469T252 413T173 392Q130 392 96 412T43 468T23 549Q23 595 42 631T96 688T173 710Q217 710 251 689T306 631T326 549ZM274 549Q274 597 247 628T173 660Q128 660 102 629T75 549Q75 504 101
473T173 441Q219 441 246 472T274 549Z" />
<glyph unicode="&#xbb;" horiz-adv-x="448" d="M265 465Q279 465 288 453L418 277Q425 269 425 257Q425 247 418 238L287 63Q278 50 264 50Q253 50 245 57T236 77Q236 88 244 98L365 264L368 248L243 415Q240 420 238 425T235 435Q235 450 245 457T265 465ZM71
465Q85 465 94 453L224 277Q231 269 231 257Q231 247 224 238L93 63Q84 50 70 50Q59 50 51 57T42 77Q42 88 50 98L171 264L174 248L49 415Q46 420 44 425T41 435Q41 450 51 457T71 465Z" />
<glyph unicode="&#xbc;" horiz-adv-x="687" d="M157 386Q145 386 138 393T131 412V647L137 640L88 609Q84 607 80 606T71 604Q61 604 55 612T48 629Q48 643 61 652L138 698Q148 703 158 702Q169 701 175 694T182 674V412Q182 401 175 394T157 386ZM110 -3Q99 -3
91 4T82 24Q82 32 87 40L515 690Q524 703 537 703Q548 703 556 696T565 676Q565 669 560 660L132 10Q123 -3 110 -3ZM556 -5Q546 -5 539 2T531 21V259L545 249L435 110L436 122H615Q639 121 639 99Q639 75 615 75H409Q399 75 390 83T381 103Q381 108 382 112T388
122L530 304Q534 310 541 312T554 315Q566 315 574 307T582 287V21Q582 10 575 3T556 -5Z" />
<glyph unicode="&#xbd;" horiz-adv-x="665" d="M157 386Q145 386 138 393T131 412V647L137 640L88 609Q84 607 80 606T71 604Q61 604 55 612T48 629Q48 643 61 652L138 698Q148 703 158 702Q169 701 175 694T182 674V412Q182 401 175 394T157 386ZM101 -3Q90 -3
82 4T73 24Q73 32 78 40L506 690Q515 703 528 703Q539 703 547 696T556 676Q556 669 551 660L123 10Q114 -3 101 -3ZM428 0Q416 0 409 6T401 26Q401 33 404 38T413 50L495 139Q516 165 536 189T557 239Q557 256 545 267T508 279Q490 279 474 269T450 238Q448 231
442 227T428 223Q418 223 411 229T404 243Q404 257 417 277T454 313T515 328Q549 328 570 315T602 283T613 241Q613 213 601 192T572 153T539 115L471 39L465 47H593Q603 47 610 41T618 24Q618 14 611 7T593 0H428Z" />
<glyph unicode="&#xbe;" horiz-adv-x="737" d="M150 376Q126 376 102 383T62 403Q50 411 50 425Q50 436 56 443T74 451Q79 451 83 448T95 440Q101 436 116 431T148 425Q176 425 197 441T218 484Q218 509 201 521T158 534Q147 534 135 531T109 525Q98 523 91 530T83
547Q83 552 84 556T90 565L196 665L204 655H85Q74 655 67 662T60 680Q60 690 67 697T85 704H231Q242 704 249 697T257 680Q260 668 250 658L153 568L133 567Q134 570 148 574T170 578Q198 578 220 569T256 539T270 485Q270 452 253 428T209 390T150 376ZM147 -3Q136
-3 128 4T119 24Q119 32 124 40L552 690Q561 703 574 703Q585 703 593 696T602 676Q602 669 597 660L169 10Q160 -3 147 -3ZM607 -5Q597 -5 590 2T582 21V259L596 249L486 110L487 122H666Q690 121 690 99Q690 75 666 75H460Q450 75 441 83T432 103Q432 108 433
112T439 122L581 304Q585 310 592 312T605 315Q617 315 625 307T633 287V21Q633 10 626 3T607 -5Z" />
<glyph unicode="&#xbf;" horiz-adv-x="476" d="M297 213Q297 200 288 192T267 183Q221 180 185 160T128 106T107 26Q107 -19 126 -54T179 -109T253 -129Q296 -129 331 -110T391 -60Q399 -51 410 -48T431 -52Q444 -60 445 -72T438 -96Q407 -137 358 -162T253 -187Q197
-187 149 -161T73 -87T45 26Q45 67 60 103T104 169T170 215T250 234Q253 234 248 234T238 227V332Q238 345 246 354T267 363Q281 363 289 354T297 332V213ZM267 549Q285 549 293 539T302 511V489Q302 472 294 462T267 451H261Q244 451 235 461T226 489V511Q226
529 235 539T261 549H267Z" />
<glyph unicode="&#xc0;" horiz-adv-x="647" d="M328 623L85 19Q81 9 74 4T58 -1Q44 -1 37 6T29 25Q28 30 30 37L294 683Q299 694 306 698T324 703Q334 703 341 698T353 683L616 40Q618 34 618 28Q618 14 609 7T588 -1Q578 -1 571 4T559 19L310 627L328 623ZM143
202L168 261H478L490 202H143ZM324 747Q318 747 313 749T302 753L205 802Q185 813 185 833Q185 846 193 854T215 863Q224 863 231 860T244 852L333 783Q338 779 340 775T343 765Q343 758 339 753T324 747Z" />
<glyph unicode="&#xc1;" horiz-adv-x="647" d="M328 623L85 19Q81 9 74 4T58 -1Q44 -1 37 6T29 25Q28 30 30 37L294 683Q299 694 306 698T324 703Q334 703 341 698T353 683L616 40Q618 34 618 28Q618 14 609 7T588 -1Q578 -1 571 4T559 19L310 627L328 623ZM143
202L168 261H478L490 202H143ZM327 746Q317 746 313 751T308 764Q308 769 310 773T318 782L407 851Q413 855 420 858T436 862Q449 862 457 854T466 832Q466 822 461 814T447 801L349 752Q344 750 339 748T327 746Z" />
<glyph unicode="&#xc2;" horiz-adv-x="647" d="M328 623L85 19Q81 9 74 4T58 -1Q44 -1 37 6T29 25Q28 30 30 37L294 683Q299 694 306 698T324 703Q334 703 341 698T353 683L616 40Q618 34 618 28Q618 14 609 7T588 -1Q578 -1 571 4T559 19L310 627L328 623ZM143
202L168 261H478L490 202H143ZM332 843L244 774Q236 769 230 765T217 761Q210 761 205 766T200 776Q200 781 202 784T208 793L285 875Q292 883 299 887T318 892H329Q340 892 347 888T363 875L439 794Q444 789 445 785T447 777Q447 772 443 767T431 762Q425 762
419 765T404 775L314 840L332 843Z" />
<glyph unicode="&#xc3;" horiz-adv-x="647" d="M328 623L85 19Q81 9 74 4T58 -1Q44 -1 37 6T29 25Q28 30 30 37L294 683Q299 694 306 698T324 703Q334 703 341 698T353 683L616 40Q618 34 618 28Q618 14 609 7T588 -1Q578 -1 571 4T559 19L310 627L328 623ZM143
202L168 261H478L490 202H143ZM195 771Q182 771 176 782T172 815Q179 847 203 864T259 882Q284 882 309 868T357 839T398 824Q412 824 420 835T431 863Q430 875 436 882T453 889Q468 889 474 877T477 846Q474 824 463 808T435 784T396 775Q372 775 347 789T297
818T256 832Q242 832 232 823T217 793Q218 783 211 777T195 771Z" />
<glyph unicode="&#xc4;" horiz-adv-x="647" d="M328 623L85 19Q81 9 74 4T58 -1Q44 -1 37 6T29 25Q28 30 30 37L294 683Q299 694 306 698T324 703Q334 703 341 698T353 683L616 40Q618 34 618 28Q618 14 609 7T588 -1Q578 -1 571 4T559 19L310 627L328 623ZM143
202L168 261H478L490 202H143ZM410 775Q391 775 380 785T369 815V825Q369 844 380 854T411 865Q430 865 441 855T452 825V815Q452 795 441 785T410 775ZM238 775Q219 775 208 785T197 815V825Q197 844 208 854T239 865Q258 865 269 855T280 825V815Q280 795 269
785T238 775Z" />
<glyph unicode="&#xc5;" horiz-adv-x="648" d="M324 662Q297 662 274 675T237 710T222 760Q222 787 236 809T274 845T324 858Q351 858 374 845T412 810T426 760Q426 733 412 711T375 675T324 662ZM324 704Q349 704 365 720T382 760Q382 785 365 801T324 817Q301
817 284 801T267 760Q267 737 284 721T324 704ZM328 623L85 19Q81 9 74 4T58 -1Q44 -1 37 6T29 25Q28 30 30 37L294 683Q299 694 306 698T324 703Q334 703 341 698T353 683L616 40Q618 34 618 28Q618 14 609 7T588 -1Q578 -1 571 4T559 19L310 627L328 623ZM143
202L168 261H478L490 202H143Z" />
<glyph unicode="&#xc6;" horiz-adv-x="919" d="M175 227H475L457 205V623L472 605L60 11Q51 -2 36 -2Q26 -2 17 6T8 27Q8 37 13 46L462 687Q468 694 475 697T489 700H842Q854 700 863 692T872 670Q872 657 863 649T842 641H511L519 651V376L512 388H797Q809 388
818 380T827 359Q827 346 818 338T797 330H510L519 340V45L512 59H842Q854 59 863 50T872 29Q872 16 863 8T842 0H488Q475 0 466 9T457 30V182L476 169H131L175 227Z" />
<glyph unicode="&#xc7;" horiz-adv-x="653" d="M605 648Q617 640 619 628T613 603Q606 594 595 593T574 597Q536 622 493 636T399 650Q338 650 286 629T194 567T134 471T112 350Q112 282 134 227T195 131T287 70T399 49Q448 49 491 63T573 101Q583 107 594 106T613
94Q622 83 620 71T606 51Q581 35 547 21T475 -1T399 -10Q327 -10 264 16T152 89T76 203T48 350Q48 428 75 493T150 607T262 682T399 709Q456 709 509 693T605 648ZM338 -143Q332 -143 322 -139T304 -128T296 -112Q296 -101 303 -94L390 15H428L364 -124Q356 -143
338 -143Z" />
<glyph unicode="&#xc8;" horiz-adv-x="568" d="M124 700H491Q503 700 512 692T521 670Q521 657 512 649T491 641H147L157 658V377L146 390H446Q458 390 467 381T476 360Q476 347 467 339T446 331H148L157 341V53L152 59H491Q503 59 512 50T521 29Q521 16 512 8T491
0H124Q112 0 103 9T94 30V670Q94 682 103 691T124 700ZM318 747Q312 747 307 749T296 753L199 802Q179 813 179 833Q179 846 187 854T209 863Q218 863 225 860T238 852L327 783Q332 779 334 775T337 765Q337 758 333 753T318 747Z" />
<glyph unicode="&#xc9;" horiz-adv-x="568" d="M124 700H491Q503 700 512 692T521 670Q521 657 512 649T491 641H147L157 658V377L146 390H446Q458 390 467 381T476 360Q476 347 467 339T446 331H148L157 341V53L152 59H491Q503 59 512 50T521 29Q521 16 512 8T491
0H124Q112 0 103 9T94 30V670Q94 682 103 691T124 700ZM321 746Q311 746 307 751T302 764Q302 769 304 773T312 782L401 851Q407 855 414 858T430 862Q443 862 451 854T460 832Q460 822 455 814T441 801L343 752Q338 750 333 748T321 746Z" />
<glyph unicode="&#xca;" horiz-adv-x="568" d="M124 700H491Q503 700 512 692T521 670Q521 657 512 649T491 641H147L157 658V377L146 390H446Q458 390 467 381T476 360Q476 347 467 339T446 331H148L157 341V53L152 59H491Q503 59 512 50T521 29Q521 16 512 8T491
0H124Q112 0 103 9T94 30V670Q94 682 103 691T124 700ZM326 843L238 774Q230 769 224 765T211 761Q204 761 199 766T194 776Q194 781 196 784T202 793L279 875Q286 883 293 887T312 892H323Q334 892 341 888T357 875L433 794Q438 789 439 785T441 777Q441 772 437
767T425 762Q419 762 413 765T398 775L308 840L326 843Z" />
<glyph unicode="&#xcb;" horiz-adv-x="568" d="M124 700H491Q503 700 512 692T521 670Q521 657 512 649T491 641H147L157 658V377L146 390H446Q458 390 467 381T476 360Q476 347 467 339T446 331H148L157 341V53L152 59H491Q503 59 512 50T521 29Q521 16 512 8T491
0H124Q112 0 103 9T94 30V670Q94 682 103 691T124 700ZM404 775Q385 775 374 785T363 815V825Q363 844 374 854T405 865Q424 865 435 855T446 825V815Q446 795 435 785T404 775ZM232 775Q213 775 202 785T191 815V825Q191 844 202 854T233 865Q252 865 263 855T274
825V815Q274 795 263 785T232 775Z" />
<glyph unicode="&#xcc;" horiz-adv-x="250" d="M157 31Q156 18 147 9T125 0Q111 0 103 9T94 31V669Q94 682 103 691T126 700Q138 700 147 691T157 669V31ZM382 747Q376 747 371 749T360 753L263 802Q243 813 243 833Q243 846 251 854T273 863Q282 863 289 860T302
852L391 783Q396 779 398 775T401 765Q401 758 397 753T382 747Z" />
<glyph unicode="&#xcd;" horiz-adv-x="250" d="M157 31Q156 18 147 9T125 0Q111 0 103 9T94 31V669Q94 682 103 691T126 700Q138 700 147 691T157 669V31ZM129 746Q119 746 115 751T110 764Q110 769 112 773T120 782L209 851Q215 855 222 858T238 862Q251 862
259 854T268 832Q268 822 263 814T249 801L151 752Q146 750 141 748T129 746Z" />
<glyph unicode="&#xce;" horiz-adv-x="250" d="M157 31Q156 18 147 9T125 0Q111 0 103 9T94 31V669Q94 682 103 691T126 700Q138 700 147 691T157 669V31ZM389 843L301 774Q293 769 287 765T274 761Q267 761 262 766T257 776Q257 781 259 784T265 793L342 875Q349
883 356 887T375 892H386Q397 892 404 888T420 875L496 794Q501 789 502 785T504 777Q504 772 500 767T488 762Q482 762 476 765T461 775L371 840L389 843Z" />
<glyph unicode="&#xcf;" horiz-adv-x="250" d="M157 31Q156 18 147 9T125 0Q111 0 103 9T94 31V669Q94 682 103 691T126 700Q138 700 147 691T157 669V31ZM468 775Q449 775 438 785T427 815V825Q427 844 438 854T469 865Q488 865 499 855T510 825V815Q510 795
499 785T468 775ZM296 775Q277 775 266 785T255 815V825Q255 844 266 854T297 865Q316 865 327 855T338 825V815Q338 795 327 785T296 775Z" />
<glyph unicode="&#xd0;" horiz-adv-x="719" d="M379 700Q453 700 508 672T600 595T653 482T671 350Q671 254 640 175T544 48T379 0H124Q112 0 103 9T94 30V670Q94 682 103 691T124 700H379ZM369 59Q454 59 506 98T582 203T607 350Q607 408 594 460T552 553T478
617T369 641H150L157 650V49L151 59H369ZM303 323Q289 323 281 330T273 352Q273 364 281 371T303 379H467Q481 379 489 372T497 351Q497 338 489 331T467 323H303Z" />
<glyph unicode="&#xd1;" horiz-adv-x="728" d="M606 700Q619 700 626 692T634 672V32Q634 17 625 9T603 0Q597 0 590 2T579 10L133 611L150 620V27Q150 16 142 8T122 0Q109 0 102 8T94 27V670Q94 685 103 692T123 700Q129 700 136 698T147 689L588 95L578 77V672Q578
684 586 692T606 700ZM235 771Q222 771 216 782T212 815Q219 847 243 864T299 882Q324 882 349 868T397 839T438 824Q452 824 460 835T471 863Q470 875 476 882T493 889Q508 889 514 877T517 846Q514 824 503 808T475 784T436 775Q412 775 387 789T337 818T296
832Q282 832 272 823T257 793Q258 783 251 777T235 771Z" />
<glyph unicode="&#xd2;" horiz-adv-x="766" d="M718 350Q718 271 694 206T624 92T518 17T383 -10Q310 -10 249 16T142 91T73 205T48 350Q48 429 72 494T142 608T248 683T383 710Q456 710 517 684T624 609T693 495T718 350ZM654 350Q654 439 620 506T524 612T383
650Q304 650 243 612T147 507T112 350Q112 261 146 194T242 88T383 50Q463 50 524 88T619 193T654 350ZM383 747Q377 747 372 749T361 753L264 802Q244 813 244 833Q244 846 252 854T274 863Q283 863 290 860T303 852L392 783Q397 779 399 775T402 765Q402 758
398 753T383 747Z" />
<glyph unicode="&#xd3;" horiz-adv-x="766" d="M718 350Q718 271 694 206T624 92T518 17T383 -10Q310 -10 249 16T142 91T73 205T48 350Q48 429 72 494T142 608T248 683T383 710Q456 710 517 684T624 609T693 495T718 350ZM654 350Q654 439 620 506T524 612T383
650Q304 650 243 612T147 507T112 350Q112 261 146 194T242 88T383 50Q463 50 524 88T619 193T654 350ZM386 746Q376 746 372 751T367 764Q367 769 369 773T377 782L466 851Q472 855 479 858T495 862Q508 862 516 854T525 832Q525 822 520 814T506 801L408 752Q403
750 398 748T386 746Z" />
<glyph unicode="&#xd4;" horiz-adv-x="766" d="M718 350Q718 271 694 206T624 92T518 17T383 -10Q310 -10 249 16T142 91T73 205T48 350Q48 429 72 494T142 608T248 683T383 710Q456 710 517 684T624 609T693 495T718 350ZM654 350Q654 439 620 506T524 612T383
650Q304 650 243 612T147 507T112 350Q112 261 146 194T242 88T383 50Q463 50 524 88T619 193T654 350ZM391 843L303 774Q295 769 289 765T276 761Q269 761 264 766T259 776Q259 781 261 784T267 793L344 875Q351 883 358 887T377 892H388Q399 892 406 888T422
875L498 794Q503 789 504 785T506 777Q506 772 502 767T490 762Q484 762 478 765T463 775L373 840L391 843Z" />
<glyph unicode="&#xd5;" horiz-adv-x="766" d="M718 350Q718 271 694 206T624 92T518 17T383 -10Q310 -10 249 16T142 91T73 205T48 350Q48 429 72 494T142 608T248 683T383 710Q456 710 517 684T624 609T693 495T718 350ZM654 350Q654 439 620 506T524 612T383
650Q304 650 243 612T147 507T112 350Q112 261 146 194T242 88T383 50Q463 50 524 88T619 193T654 350ZM254 771Q241 771 235 782T231 815Q238 847 262 864T318 882Q343 882 368 868T416 839T457 824Q471 824 479 835T490 863Q489 875 495 882T512 889Q527 889
533 877T536 846Q533 824 522 808T494 784T455 775Q431 775 406 789T356 818T315 832Q301 832 291 823T276 793Q277 783 270 777T254 771Z" />
<glyph unicode="&#xd6;" horiz-adv-x="766" d="M718 350Q718 271 694 206T624 92T518 17T383 -10Q310 -10 249 16T142 91T73 205T48 350Q48 429 72 494T142 608T248 683T383 710Q456 710 517 684T624 609T693 495T718 350ZM654 350Q654 439 620 506T524 612T383
650Q304 650 243 612T147 507T112 350Q112 261 146 194T242 88T383 50Q463 50 524 88T619 193T654 350ZM469 775Q450 775 439 785T428 815V825Q428 844 439 854T470 865Q489 865 500 855T511 825V815Q511 795 500 785T469 775ZM297 775Q278 775 267 785T256 815V825Q256
844 267 854T298 865Q317 865 328 855T339 825V815Q339 795 328 785T297 775Z" />
<glyph unicode="&#xd7;" horiz-adv-x="463" d="M79 149Q68 149 59 158T50 179Q50 191 59 200L362 501Q371 510 384 510Q396 510 404 501T413 481Q413 470 404 459L101 159Q91 149 79 149ZM359 158L67 458Q59 468 59 479Q59 491 67 499T86 508Q99 508 108 498L399
199Q409 190 409 178Q409 163 399 156T380 149Q370 149 359 158Z" />
<glyph unicode="&#xd8;" horiz-adv-x="726" d="M93 -23Q83 -23 76 -16T68 3Q68 12 74 21L647 713Q653 721 659 723T673 726Q683 726 691 720T699 702Q699 691 691 682L122 -6Q117 -13 110 -18T93 -23ZM718 350Q718 271 694 206T624 92T518 17T383 -10Q310 -10
249 16T142 91T73 205T48 350Q48 429 72 494T142 608T248 683T383 710Q456 710 517 684T624 609T693 495T718 350ZM654 350Q654 439 620 506T524 612T383 650Q304 650 243 612T147 507T112 350Q112 261 146 194T242 88T383 50Q463 50 524 88T619 193T654 350Z"
/>
<glyph unicode="&#xd9;" horiz-adv-x="713" d="M589 700Q603 700 611 692T619 670V256Q619 182 584 122T490 27T357 -9Q283 -9 224 26T129 122T94 256V670Q94 683 102 691T126 700Q138 700 147 692T156 670V256Q156 198 183 152T257 79T357 51Q413 51 459 78T532
152T560 256V670Q560 683 568 691T589 700ZM357 747Q351 747 346 749T335 753L238 802Q218 813 218 833Q218 846 226 854T248 863Q257 863 264 860T277 852L366 783Q371 779 373 775T376 765Q376 758 372 753T357 747Z" />
<glyph unicode="&#xda;" horiz-adv-x="713" d="M589 700Q603 700 611 692T619 670V256Q619 182 584 122T490 27T357 -9Q283 -9 224 26T129 122T94 256V670Q94 683 102 691T126 700Q138 700 147 692T156 670V256Q156 198 183 152T257 79T357 51Q413 51 459 78T532
152T560 256V670Q560 683 568 691T589 700ZM360 746Q350 746 346 751T341 764Q341 769 343 773T351 782L440 851Q446 855 453 858T469 862Q482 862 490 854T499 832Q499 822 494 814T480 801L382 752Q377 750 372 748T360 746Z" />
<glyph unicode="&#xdb;" horiz-adv-x="713" d="M589 700Q603 700 611 692T619 670V256Q619 182 584 122T490 27T357 -9Q283 -9 224 26T129 122T94 256V670Q94 683 102 691T126 700Q138 700 147 692T156 670V256Q156 198 183 152T257 79T357 51Q413 51 459 78T532
152T560 256V670Q560 683 568 691T589 700ZM364 843L276 774Q268 769 262 765T249 761Q242 761 237 766T232 776Q232 781 234 784T240 793L317 875Q324 883 331 887T350 892H361Q372 892 379 888T395 875L471 794Q476 789 477 785T479 777Q479 772 475 767T463
762Q457 762 451 765T436 775L346 840L364 843Z" />
<glyph unicode="&#xdc;" horiz-adv-x="713" d="M589 700Q603 700 611 692T619 670V256Q619 182 584 122T490 27T357 -9Q283 -9 224 26T129 122T94 256V670Q94 683 102 691T126 700Q138 700 147 692T156 670V256Q156 198 183 152T257 79T357 51Q413 51 459 78T532
152T560 256V670Q560 683 568 691T589 700ZM443 775Q424 775 413 785T402 815V825Q402 844 413 854T444 865Q463 865 474 855T485 825V815Q485 795 474 785T443 775ZM271 775Q252 775 241 785T230 815V825Q230 844 241 854T272 865Q291 865 302 855T313 825V815Q313
795 302 785T271 775Z" />
<glyph unicode="&#xdd;" horiz-adv-x="559" d="M511 704Q524 704 532 695T541 674Q541 669 540 665T535 655L300 332L312 371V30Q312 18 303 9T281 0Q268 0 260 9T251 30V364L256 340L27 653Q23 658 21 663T19 674Q19 687 29 695T51 704Q66 704 76 690L291 397L276
399L485 690Q495 704 511 704ZM283 746Q273 746 269 751T264 764Q264 769 266 773T274 782L363 851Q369 855 376 858T392 862Q405 862 413 854T422 832Q422 822 417 814T403 801L305 752Q300 750 295 748T283 746Z" />
<glyph unicode="&#xde;" horiz-adv-x="588" d="M154 30Q154 18 145 9T124 0Q110 0 102 9T94 30V710Q94 722 103 731T124 740Q137 740 145 731T154 710V30ZM141 249H353Q392 249 421 268T466 320T483 393Q483 435 467 466T421 515T353 533H142L116 593H353Q409
593 452 568T519 497T544 393Q544 336 520 290T452 216T353 189H126L141 249Z" />
<glyph unicode="&#xdf;" horiz-adv-x="606" d="M133 0Q119 0 111 8T103 30L104 495Q104 535 115 576T151 652T215 708T309 729Q368 729 406 709T463 656T482 585Q482 565 472 540T442 493T390 460L389 464Q437 450 476 418T538 340T562 231Q562 160 533 106T454
21T345 -10Q315 -10 289 -4T247 16Q238 23 236 34T244 55Q252 65 262 65T284 57Q296 50 312 45T346 40Q387 40 422 63T480 127T502 223Q502 287 478 327T416 390T338 422Q325 425 318 434T311 453Q311 462 316 470T331 481Q363 490 383 506T413 543T423 581Q423
618 393 644T308 671Q269 671 241 656T197 615T172 559T164 496L163 30Q163 16 155 8T133 0ZM58 444Q46 444 38 452T29 473Q29 485 37 493T58 501H127Q140 501 146 493T152 473Q152 460 146 452T127 444H58Z" />
<glyph unicode="&#xe0;" horiz-adv-x="606" d="M498 511Q511 511 519 502T528 480V30Q528 18 519 9T498 0Q485 0 477 9T468 30V149L485 157Q485 129 470 100T427 46T364 6T285 -10Q217 -10 164 25T80 121T49 258Q49 336 80 395T164 489T284 523Q327 523 364 508T430
467T473 408T489 338L468 353V480Q468 493 476 502T498 511ZM290 46Q343 46 384 73T448 149T472 258Q472 317 449 364T384 439T290 467Q238 467 197 440T132 366T108 258Q108 198 131 150T196 74T290 46ZM298 558Q291 558 285 562T273 571L194 643Q188 649 184
655T180 669Q180 683 189 691T210 699Q221 699 229 693T241 681L309 593Q317 583 317 576Q317 569 312 564T298 558Z" />
<glyph unicode="&#xe1;" horiz-adv-x="606" d="M498 511Q511 511 519 502T528 480V30Q528 18 519 9T498 0Q485 0 477 9T468 30V149L485 157Q485 129 470 100T427 46T364 6T285 -10Q217 -10 164 25T80 121T49 258Q49 336 80 395T164 489T284 523Q327 523 364 508T430
467T473 408T489 338L468 353V480Q468 493 476 502T498 511ZM290 46Q343 46 384 73T448 149T472 258Q472 317 449 364T384 439T290 467Q238 467 197 440T132 366T108 258Q108 198 131 150T196 74T290 46ZM283 552Q278 552 273 557T267 570Q267 576 272 584L333
679Q338 687 346 694T367 701Q382 701 391 693T399 670Q399 663 397 658T389 647L314 568Q308 561 300 557T283 552Z" />
<glyph unicode="&#xe2;" horiz-adv-x="606" d="M498 511Q511 511 519 502T528 480V30Q528 18 519 9T498 0Q485 0 477 9T468 30V149L485 157Q485 129 470 100T427 46T364 6T285 -10Q217 -10 164 25T80 121T49 258Q49 336 80 395T164 489T284 523Q327 523 364 508T430
467T473 408T489 338L468 353V480Q468 493 476 502T498 511ZM290 46Q343 46 384 73T448 149T472 258Q472 317 449 364T384 439T290 467Q238 467 197 440T132 366T108 258Q108 198 131 150T196 74T290 46ZM307 918L220 845Q213 839 208 835T194 831Q187 831 182
836T177 847Q177 851 178 855T185 863L258 943Q269 960 291 960H307Q318 960 325 957T339 943L411 864Q415 859 416 856T418 847Q418 842 414 837T402 832Q394 832 388 836T375 846L286 917L307 918Z" />
<glyph unicode="&#xe3;" horiz-adv-x="606" d="M498 511Q511 511 519 502T528 480V30Q528 18 519 9T498 0Q485 0 477 9T468 30V149L485 157Q485 129 470 100T427 46T364 6T285 -10Q217 -10 164 25T80 121T49 258Q49 336 80 395T164 489T284 523Q327 523 364 508T430
467T473 408T489 338L468 353V480Q468 493 476 502T498 511ZM290 46Q343 46 384 73T448 149T472 258Q472 317 449 364T384 439T290 467Q238 467 197 440T132 366T108 258Q108 198 131 150T196 74T290 46ZM167 838Q151 838 147 849T145 881Q151 914 176 931T235
949Q253 949 271 940T308 920T341 900T370 891Q384 891 392 901T402 929Q401 940 408 947T425 954Q442 954 447 943T450 912Q446 890 435 874T405 850T363 841Q348 841 330 849T293 869T259 888T228 897Q215 897 205 889T190 860Q191 850 184 844T167 838Z" />
<glyph unicode="&#xe4;" horiz-adv-x="606" d="M498 511Q511 511 519 502T528 480V30Q528 18 519 9T498 0Q485 0 477 9T468 30V149L485 157Q485 129 470 100T427 46T364 6T285 -10Q217 -10 164 25T80 121T49 258Q49 336 80 395T164 489T284 523Q327 523 364 508T430
467T473 408T489 338L468 353V480Q468 493 476 502T498 511ZM290 46Q343 46 384 73T448 149T472 258Q472 317 449 364T384 439T290 467Q238 467 197 440T132 366T108 258Q108 198 131 150T196 74T290 46ZM382 855Q362 855 352 865T341 895V905Q341 924 352 934T383
945Q402 945 412 935T423 905V895Q423 875 412 865T382 855ZM210 855Q190 855 180 865T169 895V905Q169 924 180 934T210 945Q230 945 240 935T251 905V895Q251 875 240 865T210 855Z" />
<glyph unicode="&#xe5;" horiz-adv-x="606" d="M498 511Q511 511 519 502T528 480V30Q528 18 519 9T498 0Q485 0 477 9T468 30V149L485 157Q485 129 470 100T427 46T364 6T285 -10Q217 -10 164 25T80 121T49 258Q49 336 80 395T164 489T284 523Q327 523 364 508T430
467T473 408T489 338L468 353V480Q468 493 476 502T498 511ZM290 46Q343 46 384 73T448 149T472 258Q472 317 449 364T384 439T290 467Q238 467 197 440T132 366T108 258Q108 198 131 150T196 74T290 46ZM296 555Q269 555 246 568T208 603T194 653Q194 680 208
702T245 738T296 751Q323 751 346 738T384 703T398 653Q398 626 384 604T347 568T296 555ZM296 597Q320 597 337 613T354 653Q354 678 337 694T296 710Q273 710 256 694T239 653Q239 630 256 614T296 597Z" />
<glyph unicode="&#xe6;" horiz-adv-x="903" d="M271 523Q304 523 335 516T391 494T430 452T445 388V256L390 253V365Q390 408 371 429T325 459T270 467Q236 467 205 454T149 422T109 380Q99 368 85 368Q75 368 68 375T60 394Q60 398 61 403T66 413Q87 440 118
465T188 506T271 523ZM210 -10Q172 -10 136 6T75 56T50 141Q50 196 83 233T178 290T323 310H803L791 298V318Q787 365 761 398T698 448T621 465Q591 465 560 453T503 416T461 351T445 257Q445 198 469 150T538 74T647 46Q682 46 710 56T759 82T795 117Q805 126
816 126Q827 126 834 118T841 100Q841 88 831 79Q802 43 754 17T649 -10Q571 -10 512 23T420 115T387 253Q387 338 421 398T508 490T621 523Q665 523 706 508T780 462T832 387T854 285Q854 273 845 265T824 256H321Q257 256 210 243T136 204T110 141Q110 109 126
88T166 57T214 46Q258 46 296 65T363 112T403 163L433 119Q416 93 386 63T312 12T210 -10Z" />
<glyph unicode="&#xe7;" horiz-adv-x="518" d="M304 523Q352 523 392 513T456 484T481 445Q481 435 474 426T455 416Q443 416 436 422T421 436T399 451Q386 457 362 462T307 467Q251 467 206 439T135 364T109 257Q109 197 134 149T203 74T306 46Q346 46 368 53T406
69Q425 80 433 90T456 101Q469 101 475 94T482 74Q482 58 459 39T394 5T300 -10Q225 -10 169 25T81 120T49 257Q49 330 81 390T170 486T304 523ZM239 -143Q232 -143 222 -139T204 -128T196 -112Q196 -101 203 -94L290 15H329L265 -124Q256 -143 239 -143Z" />
<glyph unicode="&#xe8;" horiz-adv-x="565" d="M310 -10Q233 -10 174 23T82 115T49 253Q49 338 82 398T169 490T283 523Q327 523 368 508T442 462T494 387T516 285Q515 273 506 265T485 256H84L72 310H466L453 298V318Q449 365 423 398T360 448T283 465Q253 465
222 453T165 416T123 351T107 257Q107 198 131 150T200 74T309 46Q344 46 372 56T421 82T456 117Q467 126 478 126Q488 126 495 118T503 100Q503 88 493 79Q463 43 415 17T310 -10ZM289 558Q282 558 276 562T264 571L185 643Q179 649 175 655T171 669Q171 683 180
691T201 699Q212 699 220 693T232 681L300 593Q308 583 308 576Q308 569 303 564T289 558Z" />
<glyph unicode="&#xe9;" horiz-adv-x="565" d="M310 -10Q233 -10 174 23T82 115T49 253Q49 338 82 398T169 490T283 523Q327 523 368 508T442 462T494 387T516 285Q515 273 506 265T485 256H84L72 310H466L453 298V318Q449 365 423 398T360 448T283 465Q253 465
222 453T165 416T123 351T107 257Q107 198 131 150T200 74T309 46Q344 46 372 56T421 82T456 117Q467 126 478 126Q488 126 495 118T503 100Q503 88 493 79Q463 43 415 17T310 -10ZM275 552Q270 552 265 557T259 570Q259 576 264 584L325 679Q330 687 338 694T359
701Q374 701 383 693T391 670Q391 663 389 658T381 647L306 568Q300 561 292 557T275 552Z" />
<glyph unicode="&#xea;" horiz-adv-x="565" d="M310 -10Q233 -10 174 23T82 115T49 253Q49 338 82 398T169 490T283 523Q327 523 368 508T442 462T494 387T516 285Q515 273 506 265T485 256H84L72 310H466L453 298V318Q449 365 423 398T360 448T283 465Q253 465
222 453T165 416T123 351T107 257Q107 198 131 150T200 74T309 46Q344 46 372 56T421 82T456 117Q467 126 478 126Q488 126 495 118T503 100Q503 88 493 79Q463 43 415 17T310 -10ZM298 918L211 845Q204 839 199 835T185 831Q178 831 173 836T168 847Q168 851 169
855T176 863L249 943Q260 960 282 960H298Q309 960 316 957T330 943L402 864Q406 859 407 856T409 847Q409 842 405 837T393 832Q385 832 379 836T366 846L277 917L298 918Z" />
<glyph unicode="&#xeb;" horiz-adv-x="565" d="M310 -10Q233 -10 174 23T82 115T49 253Q49 338 82 398T169 490T283 523Q327 523 368 508T442 462T494 387T516 285Q515 273 506 265T485 256H84L72 310H466L453 298V318Q449 365 423 398T360 448T283 465Q253 465
222 453T165 416T123 351T107 257Q107 198 131 150T200 74T309 46Q344 46 372 56T421 82T456 117Q467 126 478 126Q488 126 495 118T503 100Q503 88 493 79Q463 43 415 17T310 -10ZM373 855Q353 855 343 865T332 895V905Q332 924 343 934T374 945Q393 945 403 935T414
905V895Q414 875 403 865T373 855ZM201 855Q181 855 171 865T160 895V905Q160 924 171 934T201 945Q221 945 231 935T242 905V895Q242 875 231 865T201 855Z" />
<glyph unicode="&#xec;" horiz-adv-x="214" d="M137 30Q137 18 128 9T107 0Q94 0 86 9T77 30V490Q77 502 85 511T107 520Q120 520 128 511T137 490V30ZM365 558Q358 558 352 562T340 571L261 643Q255 649 251 655T247 669Q247 683 256 691T277 699Q288 699 296
693T308 681L376 593Q384 583 384 576Q384 569 379 564T365 558Z" />
<glyph unicode="&#xed;" horiz-adv-x="214" d="M137 30Q137 18 128 9T107 0Q94 0 86 9T77 30V490Q77 502 85 511T107 520Q120 520 128 511T137 490V30ZM94 808Q89 808 84 813T78 826Q78 832 83 840L144 935Q149 943 157 950T178 957Q193 957 202 949T210 926Q210
919 208 914T200 903L125 824Q119 817 111 813T94 808Z" />
<glyph unicode="&#xee;" horiz-adv-x="214" d="M137 30Q137 18 128 9T107 0Q94 0 86 9T77 30V490Q77 502 85 511T107 520Q120 520 128 511T137 490V30ZM374 918L287 845Q280 839 275 835T261 831Q254 831 249 836T244 847Q244 851 245 855T252 863L325 943Q336
960 358 960H374Q385 960 392 957T406 943L478 864Q482 859 483 856T485 847Q485 842 481 837T469 832Q461 832 455 836T442 846L353 917L374 918Z" />
<glyph unicode="&#xef;" horiz-adv-x="214" d="M137 30Q137 18 128 9T107 0Q94 0 86 9T77 30V490Q77 502 85 511T107 520Q120 520 128 511T137 490V30ZM449 855Q429 855 419 865T408 895V905Q408 924 419 934T450 945Q469 945 479 935T490 905V895Q490 875 479
865T449 855ZM277 855Q257 855 247 865T236 895V905Q236 924 247 934T277 945Q297 945 307 935T318 905V895Q318 875 307 865T277 855Z" />
<glyph unicode="&#xf0;" horiz-adv-x="573" d="M286 -3Q221 -3 167 33T81 129T49 261Q49 315 67 361T118 443T193 498T282 518Q336 518 375 495T439 436T478 357L449 372Q442 428 424 478T375 569T300 639T197 680Q186 683 179 690T172 709Q172 722 178 731T198
740Q206 740 211 738Q281 723 333 686T422 598T481 492T514 382T524 284Q524 199 492 134T407 33T286 -3ZM286 55Q336 55 376 83T440 159T464 261Q464 314 441 359T377 432T286 460Q237 460 197 434T133 362T109 261Q109 206 133 159T197 84T286 55ZM222 547Q210
544 200 547T187 562Q184 574 189 582T206 594L315 631L357 646L457 679Q468 683 478 679T491 664Q495 652 490 644T472 632L393 605L358 592L222 547Z" />
<glyph unicode="&#xf1;" horiz-adv-x="578" d="M320 523Q386 523 425 497T482 425T500 324V30Q500 18 491 9T470 0Q456 0 448 9T440 30V321Q440 361 427 394T385 447T307 467Q264 467 226 447T163 394T139 321V30Q139 18 130 9T109 0Q95 0 87 9T79 30V478Q79 490
87 499T109 508Q122 508 130 499T139 478V394L116 358Q118 390 136 419T184 472T248 509T320 523ZM172 838Q156 838 152 849T150 881Q156 914 181 931T240 949Q258 949 276 940T313 920T346 900T375 891Q389 891 397 901T407 929Q406 940 413 947T430 954Q447 954
452 943T455 912Q451 890 440 874T410 850T368 841Q353 841 335 849T298 869T264 888T233 897Q220 897 210 889T195 860Q196 850 189 844T172 838Z" />
<glyph unicode="&#xf2;" horiz-adv-x="604" d="M555 256Q555 180 522 120T432 25T302 -10Q231 -10 174 24T83 119T49 256Q49 333 82 393T173 488T302 523Q375 523 432 488T522 393T555 256ZM495 256Q495 317 470 364T402 439T302 467Q248 467 204 440T135 365T109
256Q109 195 134 148T204 74T302 46Q358 46 401 73T470 148T495 256ZM304 566Q297 566 291 570T279 579L200 651Q194 657 190 663T186 677Q186 691 195 699T216 707Q227 707 235 701T247 689L315 601Q323 591 323 584Q323 577 318 572T304 566Z" />
<glyph unicode="&#xf3;" horiz-adv-x="604" d="M555 256Q555 180 522 120T432 25T302 -10Q231 -10 174 24T83 119T49 256Q49 333 82 393T173 488T302 523Q375 523 432 488T522 393T555 256ZM495 256Q495 317 470 364T402 439T302 467Q248 467 204 440T135 365T109
256Q109 195 134 148T204 74T302 46Q358 46 401 73T470 148T495 256ZM290 559Q285 559 280 564T274 577Q274 583 279 591L340 686Q345 694 353 701T374 708Q389 708 398 700T406 677Q406 670 404 665T396 654L321 575Q315 568 307 564T290 559Z" />
<glyph unicode="&#xf4;" horiz-adv-x="604" d="M555 256Q555 180 522 120T432 25T302 -10Q231 -10 174 24T83 119T49 256Q49 333 82 393T173 488T302 523Q375 523 432 488T522 393T555 256ZM495 256Q495 317 470 364T402 439T302 467Q248 467 204 440T135 365T109
256Q109 195 134 148T204 74T302 46Q358 46 401 73T470 148T495 256ZM313 669L226 596Q219 590 214 586T200 582Q193 582 188 587T183 598Q183 602 184 606T191 614L264 694Q275 711 297 711H313Q324 711 331 708T345 694L417 615Q421 610 422 607T424 598Q424
593 420 588T408 583Q400 583 394 587T381 597L292 668L313 669Z" />
<glyph unicode="&#xf5;" horiz-adv-x="604" d="M555 256Q555 180 522 120T432 25T302 -10Q231 -10 174 24T83 119T49 256Q49 333 82 393T173 488T302 523Q375 523 432 488T522 393T555 256ZM495 256Q495 317 470 364T402 439T302 467Q248 467 204 440T135 365T109
256Q109 195 134 148T204 74T302 46Q358 46 401 73T470 148T495 256ZM173 589Q157 589 153 600T151 632Q157 665 182 682T241 700Q259 700 277 691T314 671T347 651T376 642Q390 642 398 652T408 680Q407 691 414 698T431 705Q448 705 453 694T456 663Q452 641
441 625T411 601T369 592Q354 592 336 600T299 620T265 639T234 648Q221 648 211 640T196 611Q197 601 190 595T173 589Z" />
<glyph unicode="&#xf6;" horiz-adv-x="604" d="M555 256Q555 180 522 120T432 25T302 -10Q231 -10 174 24T83 119T49 256Q49 333 82 393T173 488T302 523Q375 523 432 488T522 393T555 256ZM495 256Q495 317 470 364T402 439T302 467Q248 467 204 440T135 365T109
256Q109 195 134 148T204 74T302 46Q358 46 401 73T470 148T495 256ZM389 607Q369 607 359 617T348 647V657Q348 676 359 686T390 697Q409 697 419 687T430 657V647Q430 627 419 617T389 607ZM217 607Q197 607 187 617T176 647V657Q176 676 187 686T217 697Q237
697 247 687T258 657V647Q258 627 247 617T217 607Z" />
<glyph unicode="&#xf7;" horiz-adv-x="563" d="M233 503Q233 523 246 536T278 550Q296 550 309 537T323 503Q323 485 310 472T278 459Q259 459 246 472T233 503ZM233 157Q233 176 246 189T278 203Q296 203 309 190T323 157Q323 139 310 126T278 112Q259 112 246
125T233 157ZM81 304Q67 304 59 312T50 334Q50 345 58 353T81 361H482Q496 361 504 353T513 332Q513 321 505 313T482 304H81Z" />
<glyph unicode="&#xf8;" horiz-adv-x="604" d="M86 -27Q75 -27 67 -19T58 0Q58 11 65 19L502 530Q510 541 523 541Q534 541 542 533T551 513Q551 502 544 494L106 -17Q98 -27 86 -27ZM555 256Q555 180 522 120T432 25T302 -10Q231 -10 174 24T83 119T49 256Q49
333 82 393T173 488T302 523Q375 523 432 488T522 393T555 256ZM495 256Q495 317 470 364T402 439T302 467Q248 467 204 440T135 365T109 256Q109 195 134 148T204 74T302 46Q358 46 401 73T470 148T495 256Z" />
<glyph unicode="&#xf9;" horiz-adv-x="569" d="M461 508Q474 508 482 499T491 478V196Q491 97 435 45T284 -7Q190 -7 135 45T79 196V478Q79 490 87 499T109 508Q122 508 130 499T139 478V196Q139 124 177 87T284 49Q353 49 392 86T431 196V478Q431 490 439 499T461
508ZM287 558Q280 558 274 562T262 571L183 643Q177 649 173 655T169 669Q169 683 178 691T199 699Q210 699 218 693T230 681L298 593Q306 583 306 576Q306 569 301 564T287 558Z" />
<glyph unicode="&#xfa;" horiz-adv-x="569" d="M461 508Q474 508 482 499T491 478V196Q491 97 435 45T284 -7Q190 -7 135 45T79 196V478Q79 490 87 499T109 508Q122 508 130 499T139 478V196Q139 124 177 87T284 49Q353 49 392 86T431 196V478Q431 490 439 499T461
508ZM273 552Q268 552 263 557T257 570Q257 576 262 584L323 679Q328 687 336 694T357 701Q372 701 381 693T389 670Q389 663 387 658T379 647L304 568Q298 561 290 557T273 552Z" />
<glyph unicode="&#xfb;" horiz-adv-x="569" d="M461 508Q474 508 482 499T491 478V196Q491 97 435 45T284 -7Q190 -7 135 45T79 196V478Q79 490 87 499T109 508Q122 508 130 499T139 478V196Q139 124 177 87T284 49Q353 49 392 86T431 196V478Q431 490 439 499T461
508ZM296 918L209 845Q202 839 197 835T183 831Q176 831 171 836T166 847Q166 851 167 855T174 863L247 943Q258 960 280 960H296Q307 960 314 957T328 943L400 864Q404 859 405 856T407 847Q407 842 403 837T391 832Q383 832 377 836T364 846L275 917L296 918Z"
/>
<glyph unicode="&#xfc;" horiz-adv-x="569" d="M461 508Q474 508 482 499T491 478V196Q491 97 435 45T284 -7Q190 -7 135 45T79 196V478Q79 490 87 499T109 508Q122 508 130 499T139 478V196Q139 124 177 87T284 49Q353 49 392 86T431 196V478Q431 490 439 499T461
508ZM371 855Q351 855 341 865T330 895V905Q330 924 341 934T372 945Q391 945 401 935T412 905V895Q412 875 401 865T371 855ZM199 855Q179 855 169 865T158 895V905Q158 924 169 934T199 945Q219 945 229 935T240 905V895Q240 875 229 865T199 855Z" />
<glyph unicode="&#xfd;" horiz-adv-x="568" d="M460 520Q473 520 481 511T490 490V49Q490 -32 458 -87T372 -171T249 -200Q206 -200 170 -191T110 -166Q98 -159 92 -149T91 -128Q96 -114 106 -110T128 -110Q145 -119 177 -132T250 -145Q305 -145 345 -122T408
-56T430 48V120L437 96Q422 65 395 41T332 4T256 -10Q196 -10 157 14T98 82T79 183V490Q79 502 87 511T109 520Q122 520 130 511T139 490V192Q139 122 169 84T269 46Q312 46 348 66T407 120T430 192V490Q430 502 438 511T460 520ZM272 552Q267 552 262 557T256
570Q256 576 261 584L322 679Q327 687 335 694T356 701Q371 701 380 693T388 670Q388 663 386 658T378 647L303 568Q297 561 289 557T272 552Z" />
<glyph unicode="&#xfe;" horiz-adv-x="606" d="M322 515Q390 515 442 482T526 390T557 255Q557 179 526 120T442 27T323 -7Q288 -7 257 3T199 32T153 74T121 128L139 141V-170Q139 -182 131 -191T109 -200Q96 -200 88 -191T79 -170V710Q79 722 87 731T109 740Q122
740 130 731T139 710V374L125 382Q135 413 154 437T200 479T257 506T322 515ZM317 459Q263 459 222 433T158 361T134 255Q134 196 157 149T222 76T317 49Q370 49 410 75T475 149T499 255Q499 314 475 360T411 432T317 459Z" />
<glyph unicode="&#xff;" horiz-adv-x="568" d="M460 520Q473 520 481 511T490 490V49Q490 -32 458 -87T372 -171T249 -200Q206 -200 170 -191T110 -166Q98 -159 92 -149T91 -128Q96 -114 106 -110T128 -110Q145 -119 177 -132T250 -145Q305 -145 345 -122T408
-56T430 48V120L437 96Q422 65 395 41T332 4T256 -10Q196 -10 157 14T98 82T79 183V490Q79 502 87 511T109 520Q122 520 130 511T139 490V192Q139 122 169 84T269 46Q312 46 348 66T407 120T430 192V490Q430 502 438 511T460 520ZM371 855Q351 855 341 865T330
895V905Q330 924 341 934T372 945Q391 945 401 935T412 905V895Q412 875 401 865T371 855ZM199 855Q179 855 169 865T158 895V905Q158 924 169 934T199 945Q219 945 229 935T240 905V895Q240 875 229 865T199 855Z" />
<glyph unicode="&#x2013;" horiz-adv-x="510" d="M89 233Q75 233 67 241T58 262Q58 276 66 283T89 291H422Q435 291 444 284T453 262Q453 249 444 241T422 233H89Z" />
<glyph unicode="&#x2014;" horiz-adv-x="838" d="M89 233Q75 233 67 242T58 264Q58 277 66 285T89 294H750Q763 294 772 286T781 264Q781 251 772 242T750 233H89Z" />
<glyph unicode="&#x2018;" horiz-adv-x="214" d="M37 596Q37 624 53 649T92 690T137 707Q145 707 152 703T159 684Q159 670 151 668T126 659Q110 650 101 638T92 611Q92 598 99 591T117 583Q124 583 131 585T143 592Q150 587 153 581T156 565Q155 549 138 537T99
524Q72 524 55 546T37 596Z" />
<glyph unicode="&#x2019;" horiz-adv-x="194" d="M149 635Q149 608 133 583T95 541T49 524Q41 524 34 529T27 547Q27 561 36 563T60 572Q76 581 85 593T94 621Q94 634 87 641T69 648Q62 648 55 646T43 639Q37 644 34 650T30 666Q32 683 49 695T87 707Q114 707
131 686T149 635Z" />
<glyph unicode="&#x201a;" horiz-adv-x="199" d="M162 -8Q162 -35 146 -60T107 -102T62 -119Q54 -119 47 -114T39 -95Q39 -81 48 -80T72 -70Q89 -62 98 -50T107 -22Q107 -9 100 -2T82 5Q75 5 68 3T55 -3Q50 2 46 8T43 23Q45 40 61 52T100 65Q127 65 144 43T162 -8Z" />
<glyph unicode="&#x201c;" horiz-adv-x="349" d="M290 850Q290 878 306 903T345 944T390 961Q398 961 405 957T412 938Q412 924 404 922T379 913Q363 904 354 892T345 865Q345 852 352 845T370 837Q377 837 384 839T396 846Q403 841 406 835T409 819Q408 803 391
791T352 778Q325 778 308 800T290 850ZM194 594Q194 622 210 647T249 688T294 705Q302 705 309 701T316 682Q316 668 308 666T283 657Q267 648 258 636T249 609Q249 596 256 589T274 581Q281 581 288 583T300 590Q307 585 310 579T313 563Q312 547 295 535T256
522Q229 522 212 544T194 594Z" />
<glyph unicode="&#x201d;" horiz-adv-x="349" d="M149 635Q149 608 133 583T95 541T49 524Q41 524 34 529T27 547Q27 561 36 563T60 572Q76 581 85 593T94 621Q94 634 87 641T69 648Q62 648 55 646T43 639Q37 644 34 650T30 666Q32 683 49 695T87 707Q114 707
131 686T149 635ZM306 635Q306 608 290 583T252 541T206 524Q198 524 191 529T184 547Q184 561 193 563T217 572Q233 581 242 593T251 621Q251 634 244 641T226 648Q219 648 212 646T200 639Q194 644 191 650T187 666Q189 683 206 695T244 707Q271 707 288 686T306
635Z" />
<glyph unicode="&#x201e;" horiz-adv-x="315" d="M160 -8Q160 -35 144 -60T105 -102T60 -119Q52 -119 45 -114T37 -95Q37 -81 46 -80T70 -70Q87 -62 96 -50T105 -22Q105 -9 98 -2T80 5Q73 5 66 3T53 -3Q48 2 44 8T41 23Q43 40 59 52T98 65Q125 65 142 43T160 -8ZM302
-8Q302 -35 286 -60T247 -102T202 -119Q194 -119 187 -114T179 -95Q179 -81 188 -80T212 -70Q229 -62 238 -50T247 -22Q247 -9 240 -2T222 5Q215 5 208 3T195 -3Q190 2 186 8T183 23Q185 40 201 52T240 65Q267 65 284 43T302 -8Z" />
<glyph unicode="&#x2022;" horiz-adv-x="342" d="M171 224Q136 224 107 241T61 288T43 352Q43 388 60 417T107 463T171 480Q206 480 235 463T282 417T300 352Q300 317 282 288T235 242T171 224Z" />
<glyph unicode="&#x2039;" horiz-adv-x="274" d="M199 50Q186 50 176 62L46 238Q39 247 39 258Q39 269 46 277L177 452Q186 465 200 465Q211 465 220 458T229 438Q229 427 220 417L99 251L97 267L221 99Q225 95 227 90T229 80Q229 65 219 58T199 50Z" />
<glyph unicode="&#x203a;" horiz-adv-x="274" d="M69 465Q83 465 92 453L222 277Q229 269 229 257Q229 247 222 238L91 63Q82 50 68 50Q57 50 49 57T40 77Q40 88 48 98L169 264L172 248L47 415Q44 420 42 425T39 435Q39 450 49 457T69 465Z" />
</font>
</defs>
</svg>
