<?xml version="1.0" encoding="UTF-8" standalone="no"?>
<!-- Created with Inkscape (http://www.inkscape.org/) -->

<svg
   width="2200"
   height="1280"
   viewBox="0 0 582.08333 338.66667"
   version="1.1"
   id="svg5"
   inkscape:version="1.2.2 (b0a84865, 2022-12-01)"
   sodipodi:docname="landing_2.svg"
   xml:space="preserve"
   xmlns:inkscape="http://www.inkscape.org/namespaces/inkscape"
   xmlns:sodipodi="http://sodipodi.sourceforge.net/DTD/sodipodi-0.dtd"
   xmlns="http://www.w3.org/2000/svg"
   xmlns:svg="http://www.w3.org/2000/svg"><sodipodi:namedview
     id="namedview7"
     pagecolor="#505050"
     bordercolor="#eeeeee"
     borderopacity="1"
     inkscape:showpageshadow="0"
     inkscape:pageopacity="0"
     inkscape:pagecheckerboard="0"
     inkscape:deskcolor="#505050"
     inkscape:document-units="px"
     showgrid="false"
     inkscape:zoom="0.24605738"
     inkscape:cx="1158.2664"
     inkscape:cy="571.00502"
     inkscape:window-width="1718"
     inkscape:window-height="1027"
     inkscape:window-x="1714"
     inkscape:window-y="25"
     inkscape:window-maximized="0"
     inkscape:current-layer="layer1" /><defs
     id="defs2" /><g
     inkscape:label="Layer 1"
     inkscape:groupmode="layer"
     id="layer1"><ellipse
       style="fill:#b3d890;fill-opacity:0.509202;stroke:none;stroke-width:7.0752;stroke-linecap:round;stroke-linejoin:round"
       id="path3625"
       cx="291.04166"
       cy="202.26987"
       rx="287.55804"
       ry="125.61745" /><g
       id="g549"><path
         inkscape:export-ydpi="250.44547"
         inkscape:export-xdpi="250.44547"
         inkscape:export-filename="/home/ash/Downloads/benthos.png"
         sodipodi:nodetypes="zszzczz"
         inkscape:connector-curvature="0"
         id="path1672"
         d="m 248.71649,108.82141 c 10.6037,27.55147 44.96569,13.30093 52.14087,12.51552 5.80327,-0.63397 12.76308,3.9816 25.70811,4.40197 12.94502,0.4195 20.00714,-3.30878 31.13141,-1.71302 11.12427,1.59584 28.40088,16.97379 63.49532,6.51507 C 467.56774,116.54651 410.11779,5.854211 336.13905,5.854211 c -73.97869,0 -98.02639,75.41602 -87.42256,102.967199 z"
         style="fill:#ffc7c7;fill-opacity:1;fill-rule:evenodd;stroke:none;stroke-width:2.29707;stroke-miterlimit:4;stroke-dasharray:none;stroke-opacity:1" /><path
         inkscape:export-ydpi="250.44547"
         inkscape:export-xdpi="250.44547"
         inkscape:export-filename="/home/ash/Downloads/benthos.png"
         sodipodi:nodetypes="cccc"
         inkscape:connector-curvature="0"
         id="path448"
         d="m 357.69688,124.02588 c 11.12427,1.59584 28.40088,16.97379 63.49532,6.51507 40.73938,-12.29366 1.35618,-99.209464 -58.96969,-120.154156 79.38067,48.168355 103.19425,143.360706 -4.52563,113.639086 z"
         style="fill:#e7aaaa;fill-opacity:1;fill-rule:evenodd;stroke:none;stroke-width:2.29707;stroke-miterlimit:4;stroke-dasharray:none;stroke-opacity:1" /><path
         sodipodi:nodetypes="cszzcszszc"
         inkscape:connector-curvature="0"
         id="path1676"
         d="m 276.23028,108.8204 c 0.59041,-0.38979 18.98676,-14.994166 35.55271,-15.292169 11.23727,-0.203585 14.29238,0.263863 25.68574,2.621858 11.39334,2.357995 19.50963,-2.558154 19.61926,9.012531 0.10969,11.57067 -12.3088,5.58171 -21.08504,6.62418 -11.58082,1.75109 -8.57419,1.07501 -21.35607,1.06392 -16.56884,-0.0187 -36.61044,-1.5888 -37.14509,-1.49586 -0.53471,0.1097 -1.81113,0.46638 -2.14053,-0.28529 -0.27434,-0.62384 0.27868,-1.86095 0.86908,-2.24972 z"
         style="fill:#b06264;fill-opacity:1;stroke:none;stroke-width:0.660277;stroke-linecap:round;stroke-miterlimit:4;stroke-dasharray:none;stroke-opacity:1" /><path
         style="fill:#fffefe;fill-opacity:1;stroke:none;stroke-width:3.1163;stroke-linecap:round;stroke-miterlimit:4;stroke-dasharray:none;stroke-opacity:1"
         d="m 300.25622,67.670462 a 17.794198,18.085441 0.12912279 0 1 -17.56689,18.315009 17.794198,18.085441 0.12912279 0 1 -18.01865,-17.852925 17.794198,18.085441 0.12912279 0 1 17.5669,-18.315144 17.794198,18.085441 0.12912279 0 1 18.01864,17.85306 z"
         id="path1678"
         inkscape:connector-curvature="0" /><path
         style="fill:#000000;fill-opacity:1;stroke:none;stroke-width:3.67343;stroke-miterlimit:4;stroke-dasharray:none;stroke-opacity:1"
         d="m 283.27198,82.189033 c -7.67148,0.46849 -14.2656,-5.467861 -14.73269,-13.264422 -0.46722,-7.796423 5.36952,-14.503825 13.04023,-14.985382 7.67068,-0.481009 14.27416,5.444765 14.75492,13.263228 0.45617,7.819765 -5.39103,14.517544 -13.06246,14.986576 z"
         id="path1680"
         inkscape:connector-curvature="0"
         sodipodi:nodetypes="ssscs"
         inkscape:export-filename="/home/ash/Downloads/benthos.png"
         inkscape:export-xdpi="250.44547"
         inkscape:export-ydpi="250.44547" /><path
         style="fill:#ffc7c7;fill-opacity:1;stroke:none;stroke-width:0.333983px;stroke-linecap:butt;stroke-linejoin:miter;stroke-opacity:1"
         d="m 300.81399,66.945167 c 0,0 -9.15426,-9.130532 -24.05196,-11.893882 -14.89767,-2.763347 -21.74586,3.833032 -21.74586,3.833032 l 18.40275,-20.21956 23.35851,6.2534 z"
         id="path4996"
         sodipodi:nodetypes="czcccc" /><path
         style="fill:#ffc7c7;fill-opacity:1;stroke:none;stroke-width:0.333983px;stroke-linecap:butt;stroke-linejoin:miter;stroke-opacity:1"
         d="m 301.67699,76.183376 c 0,0 -12.32867,3.895034 -26.82733,-0.50565 -14.49866,-4.400684 -17.5441,-13.408193 -17.5441,-13.408193 l 7.03664,26.419272 23.61653,5.194641 z"
         id="path4998"
         sodipodi:nodetypes="czcccc" /><path
         style="fill:#ffffff;fill-opacity:1;stroke:none;stroke-width:2.02672px;stroke-linecap:butt;stroke-linejoin:miter;stroke-opacity:1"
         d="m 284.79702,58.917427 c 1.33852,-1.83468 6.2048,-0.206024 7.90943,2.844339 1.70463,3.049129 1.68954,7.733896 -1.13528,8.679556 -2.8251,0.944291 -2.61831,-2.735644 -4.09886,-5.329706 -1.48096,-2.594165 -4.01434,-4.359509 -2.67545,-6.193607 z"
         id="path1682"
         inkscape:connector-curvature="0"
         sodipodi:nodetypes="zzzzz" /><ellipse
         style="fill:#ffffff;fill-opacity:1;stroke:none;stroke-width:9.1785;stroke-linecap:round;stroke-linejoin:miter;stroke-miterlimit:4;stroke-dasharray:none;stroke-dashoffset:0;stroke-opacity:1"
         id="ellipse1684"
         cx="296.23111"
         cy="56.30526"
         rx="1.8076911"
         ry="2.1950238"
         transform="matrix(0.99826127,0.05894442,-0.08221311,0.99661477,0,0)" /><path
         inkscape:connector-curvature="0"
         id="path1686"
         d="M 340.49245,66.273327 A 23.110919,24.32797 85.954687 0 1 317.69899,90.895635 23.110919,24.32797 85.954687 0 1 291.93902,69.428481 23.110919,24.32797 85.954687 0 1 314.69139,44.77175 23.110919,24.32797 85.954687 0 1 340.48767,66.199474"
         style="fill:#ffc7c7;fill-opacity:1;stroke:none;stroke-width:0.844913" /><path
         sodipodi:nodetypes="cccczcccczc"
         inkscape:connector-curvature="0"
         id="path1688"
         d="m 338.46689,74.44128 c -2.85061,8.48818 -10.93292,14.896944 -20.83122,15.53775 -12.86715,0.83525 -23.93709,-8.392833 -24.73193,-20.616154 -0.36241,-5.576081 1.47615,-10.813691 4.80454,-14.941679 0,0 2.09605,-2.367093 0.82837,-3.372712 -1.26763,-1.006167 -3.07275,1.815002 -3.07275,1.815002 -3.7047,4.61584 -5.74867,10.463449 -5.34281,16.687856 0.89519,13.679692 13.28589,24.004258 27.68647,23.069488 11.09371,-0.719472 20.14917,-7.911581 23.32861,-17.431532 0,0 0.7464,-1.95056 -0.56254,-2.418565 -1.30893,-0.468037 -2.10689,1.670546 -2.10689,1.670546 z"
         style="fill:#b06264;fill-opacity:1;stroke:none;stroke-width:0.908186" /><path
         inkscape:connector-curvature="0"
         id="path1690"
         d="M 377.85524,67.495478 A 17.794199,18.085443 0.129123 0 1 360.28836,85.810479 17.794199,18.085443 0.129123 0 1 342.26969,67.957562 17.794199,18.085443 0.129123 0 1 359.8366,49.642418 17.794199,18.085443 0.129123 0 1 377.85524,67.495478 Z"
         style="fill:#fffefe;fill-opacity:1;stroke:none;stroke-width:3.1163;stroke-linecap:round;stroke-miterlimit:4;stroke-dasharray:none;stroke-opacity:1" /><path
         inkscape:export-ydpi="250.44547"
         inkscape:export-xdpi="250.44547"
         inkscape:export-filename="/home/ash/Downloads/benthos.png"
         sodipodi:nodetypes="ssscs"
         inkscape:connector-curvature="0"
         id="path1692"
         d="m 360.87101,82.014091 c -7.6715,0.468553 -14.2656,-5.467869 -14.73269,-13.264464 -0.4672,-7.796423 5.36951,-14.503825 13.04022,-14.985381 7.67069,-0.481147 14.27416,5.444765 14.75491,13.263228 0.45618,7.819798 -5.39101,14.517547 -13.06244,14.986617 z"
         style="fill:#000000;fill-opacity:1;stroke:none;stroke-width:3.67343;stroke-miterlimit:4;stroke-dasharray:none;stroke-opacity:1" /><path
         sodipodi:nodetypes="zzzzz"
         inkscape:connector-curvature="0"
         id="path1694"
         d="m 362.39604,58.742478 c 1.33853,-1.83468 6.20479,-0.205683 7.90944,2.844337 1.70462,3.049097 1.68952,7.733864 -1.1353,8.679523 -2.82509,0.944326 -2.61831,-2.73561 -4.09885,-5.329672 -1.48095,-2.594165 -4.01434,-4.359508 -2.67544,-6.19364 z"
         style="fill:#ffffff;fill-opacity:1;stroke:none;stroke-width:2.02672px;stroke-linecap:butt;stroke-linejoin:miter;stroke-opacity:1" /><ellipse
         transform="matrix(0.99826127,0.05894442,-0.08221311,0.99661477,0,0)"
         ry="2.195024"
         rx="1.8076911"
         cy="51.555161"
         cx="373.57407"
         id="ellipse1696"
         style="fill:#ffffff;fill-opacity:1;stroke:none;stroke-width:9.1785;stroke-linecap:round;stroke-linejoin:miter;stroke-miterlimit:4;stroke-dasharray:none;stroke-dashoffset:0;stroke-opacity:1" /><path
         inkscape:export-ydpi="250.44547"
         inkscape:export-xdpi="250.44547"
         inkscape:export-filename="/home/ash/Downloads/benthos.png"
         sodipodi:nodetypes="sszss"
         inkscape:connector-curvature="0"
         id="path1670"
         d="m 237.51315,85.141675 34.08312,1.718973 c 5.51452,0.278274 3.55939,24.996622 -7.29989,31.864002 -10.85879,6.86697 -32.66351,-17.01312 -32.66351,-17.01312 -1.03678,-5.048491 3.12834,-16.708556 5.88028,-16.569855 z"
         style="fill:#ff9197;fill-opacity:1;fill-rule:evenodd;stroke:none;stroke-width:2.78878;stroke-miterlimit:4;stroke-dasharray:none;stroke-opacity:1" /><g
         id="g4908"
         transform="matrix(0.40313668,1.1961932,-1.1961932,0.40313668,353.86976,-162.59695)"><path
           id="rect2605"
           style="fill:#78dce8;fill-opacity:1;stroke-width:5.27406;stroke-linecap:round;stroke-linejoin:round"
           d="m 178.94609,104.49244 c 0,0 0.77715,-3.08777 5.30197,-3.08777 4.52481,0 5.39376,3.07875 5.39376,3.07875 5.39377,17.06829 13.46761,35.49951 16.0961,51.22618 l -42.68548,-0.0123 c 2.69517,-14.91897 10.59576,-34.13658 15.89365,-51.20487 z"
           sodipodi:nodetypes="czcccc" /><ellipse
           style="fill:#228692;fill-opacity:1;stroke-width:5.09628;stroke-linecap:round;stroke-linejoin:round"
           id="path2756"
           cx="184.39189"
           cy="156.89972"
           rx="21.43125"
           ry="13.24524" /></g><path
         style="fill:#ff9197;fill-opacity:1;stroke:none;stroke-width:0.333983px;stroke-linecap:butt;stroke-linejoin:miter;stroke-opacity:1"
         d="m 273.35042,87.325054 c 0.62116,1.733767 7.18467,9.855477 3.92028,14.207766 -3.26438,4.35228 -16.88316,2.64877 -21.49551,0.34669 -4.61235,-2.302077 -7.737,-2.441611 -5.54723,-7.627436 2.18978,-5.185837 22.50128,-8.660774 23.12246,-6.92702 z"
         id="path4910"
         sodipodi:nodetypes="zzzzz" /><path
         style="fill:#ffc7c7;fill-opacity:1;stroke:none;stroke-width:0.333983px;stroke-linecap:butt;stroke-linejoin:miter;stroke-opacity:1"
         d="m 340.68675,64.489383 c 0,0 9.82249,-8.407492 24.88727,-10.029235 15.06474,-1.621739 21.39116,5.476609 21.39116,5.476609 L 370.15432,38.375513 346.3877,42.833385 Z"
         id="path4992"
         sodipodi:nodetypes="czcccc" /><path
         style="fill:#ffc7c7;fill-opacity:1;stroke:none;stroke-width:0.333983px;stroke-linecap:butt;stroke-linejoin:miter;stroke-opacity:1"
         d="m 340.76509,75.257371 c 0,0 12.32867,3.895034 26.82733,-0.50565 14.49866,-4.400684 17.5441,-13.408193 17.5441,-13.408193 l -7.03664,26.419272 -23.61653,5.194642 z"
         id="path4994"
         sodipodi:nodetypes="czcccc" /><path
         style="fill:#e7aaaa;fill-opacity:1;stroke:none;stroke-width:0.333983px;stroke-linecap:butt;stroke-linejoin:miter;stroke-opacity:1"
         d="m 353.89476,88.607616 c 1.51841,-1.577325 9.63416,1.288917 12.58648,6.538444 2.95232,5.24953 1.16374,22.17054 -1.47112,21.9038 1.83275,-3.0466 2.32808,-15.69859 -10e-6,-20.59611 -2.32808,-4.897521 -5.98198,-7.559452 -11.11535,-7.846134 z"
         id="path1512"
         sodipodi:nodetypes="czczc" /><g
         transform="matrix(1.0548397,-3.3889884,3.3889884,1.0548397,-400.28663,-68.04203)"
         id="g4336"
         style="fill:#ff9197;fill-opacity:1"><path
           sodipodi:nodetypes="ccccczzzzczcccc"
           inkscape:connector-curvature="0"
           id="path4334"
           d="m 24.598564,222.14183 c -0.211164,-1.00808 -0.987273,-2.46585 -2.230343,-2.02466 -1.55213,0.61665 -1.26013,4.99774 -2.07485,6.23171 -0.74705,1.21502 -2.70959,1.40303 -4.05591,0.87567 -2.02236,-0.48296 -10.3539202,-5.93595 -12.4913202,-5.92001 -1.38405,0.18567 -1.8683694,1.145 -1.1989809,2.18012 0.6693885,1.03512 8.7609891,5.16072 7.2902286,5.74918 -1.4707608,0.58846 -1.4614774,1.49578 -1.3852874,2.60056 0.0762,1.1048 0.41116,1.15204 -0.49589,1.35232 -0.90704,0.20028 -1.53942,0.89872 -1.53511,2.10644 0.0457,1.6644 3.20672,3.56037 5.0756399,5.12177 1.86891,1.5614 2.82973,2.66788 6.6253,2.3003 2.48333,-0.31301 4.82223,-1.89842 5.798073,-4.24111 1.72036,-3.61718 1.628957,-7.764 1.212121,-11.65703 -0.11378,-0.87101 -0.279783,-3.83362 -0.533671,-4.67526 z"
           style="fill:#ff9197;fill-opacity:1;stroke:none;stroke-width:0.671854px;stroke-linecap:butt;stroke-linejoin:miter;stroke-opacity:1" /></g><path
         style="fill:#e7aaaa;fill-opacity:1;stroke:none;stroke-width:0.333983px;stroke-linecap:butt;stroke-linejoin:miter;stroke-opacity:1"
         d="m 378.16085,53.113387 c 2.2742,-1.570652 -0.44636,-5.47036 -2.95753,-7.50609 -2.51117,-2.035731 -6.91298,-3.834848 -11.80635,-4.59477 14.76992,4.637344 19.06967,12.324017 8.65413,13.175739 1.56464,0.151835 3.83553,0.495772 6.10975,-1.074879 z"
         id="path1376"
         sodipodi:nodetypes="zzccz" /><path
         style="fill:#e7aaaa;fill-opacity:1;stroke:none;stroke-width:0.18018px;stroke-linecap:butt;stroke-linejoin:miter;stroke-opacity:1"
         d="m 383.25822,71.178159 c 1.09343,0.9508 -0.2146,3.311501 -1.42195,4.543838 -1.20735,1.232338 -3.3237,2.32144 -5.67639,2.781461 7.10126,-2.807232 9.16854,-7.460387 4.16082,-7.975979 0.75228,-0.09192 1.84409,-0.300118 2.93752,0.65068 z"
         id="path1447"
         sodipodi:nodetypes="zzccz" /><path
         style="fill:#e7aaaa;fill-opacity:1;stroke:none;stroke-width:0.333983px;stroke-linecap:butt;stroke-linejoin:miter;stroke-opacity:1"
         d="m 265.98203,53.419703 c -2.27421,-1.570652 0.44636,-5.47036 2.95753,-7.50609 2.51116,-2.035731 6.91297,-3.834849 11.80635,-4.59477 -14.76993,4.637343 -19.06967,12.324016 -8.65413,13.175738 -1.56464,0.151836 -3.83553,0.495773 -6.10975,-1.074878 z"
         id="path1545"
         sodipodi:nodetypes="zzccz" /><path
         style="fill:#e7aaaa;fill-opacity:1;stroke:none;stroke-width:0.18018px;stroke-linecap:butt;stroke-linejoin:miter;stroke-opacity:1"
         d="m 260.88465,71.484475 c -1.09342,0.9508 0.21461,3.311501 1.42196,4.543838 1.20735,1.232337 3.32369,2.32144 5.67639,2.78146 -7.10126,-2.807231 -9.16854,-7.460387 -4.16083,-7.975979 -0.75228,-0.09192 -1.84409,-0.300117 -2.93752,0.650681 z"
         id="path1547"
         sodipodi:nodetypes="zzccz" /><path
         style="fill:#e98287;fill-opacity:1;stroke:none;stroke-width:0.333983px;stroke-linecap:butt;stroke-linejoin:miter;stroke-opacity:1"
         d="m 273.35042,87.325054 c 0.62116,1.733767 7.18467,9.855477 3.92028,14.207766 -3.26438,4.35228 -16.88316,2.64877 -21.49551,0.34669 19.27676,4.13516 24.30298,-0.8477 17.57523,-14.554456 z"
         id="path1582"
         sodipodi:nodetypes="czcc" /><g
         transform="matrix(1.0548397,-3.3889884,3.3889884,1.0548397,-400.28663,-68.04203)"
         id="g1620"
         style="fill:#e98287;fill-opacity:1"><path
           sodipodi:nodetypes="czccc"
           inkscape:connector-curvature="0"
           id="path1618"
           d="m 6.4211011,235.29316 c 0.0457,1.6644 3.20672,3.56037 5.0756399,5.12177 1.86891,1.5614 2.82973,2.66788 6.6253,2.3003 2.48333,-0.31301 4.82223,-1.89842 5.798073,-4.24111 -6.25863,7.40313 -13.9487451,0.11462 -17.4990129,-3.18096 z"
           style="fill:#e98287;fill-opacity:1;stroke:none;stroke-width:0.671854px;stroke-linecap:butt;stroke-linejoin:miter;stroke-opacity:1" /></g><path
         id="path2003"
         style="fill:#65c7d2;fill-opacity:1;stroke-width:6.65744;stroke-linecap:round;stroke-linejoin:round"
         d="m 306.84734,98.679258 c 1.82412,5.412552 -1.50836,7.693132 -1.50836,7.693132 -18.24255,13.33285 -37.03498,30.42102 -54.78748,39.90521 23.44094,-17.61709 57.1389,-41.52559 56.29584,-47.598342 z"
         sodipodi:nodetypes="cccc" /></g><g
       id="g20202"
       transform="matrix(1.2622984,0,0,1.2622984,-84.951576,-21.812262)"><g
         id="g19240"
         transform="matrix(1.2524756,0,0,1.2524756,-56.70588,-41.4229)"><path
           style="fill:#ff9197;fill-opacity:1;stroke:none;stroke-width:0.264583px;stroke-linecap:butt;stroke-linejoin:miter;stroke-opacity:1"
           d="m 202.30493,117.77019 c -1.84282,-1.15938 -3.86301,-0.80771 -5.24923,0.40379 -1.38622,1.21149 -2.66791,3.59106 -1.21137,5.65302 1.45654,2.06196 7.52232,3.46284 9.2871,1.21136 1.76478,-2.25148 -0.98368,-6.10878 -2.8265,-7.26817 z"
           id="path4543"
           sodipodi:nodetypes="zzzzz" /><path
           style="fill:#ffc7c7;fill-opacity:1;stroke:none;stroke-width:0.264583px;stroke-linecap:butt;stroke-linejoin:miter;stroke-opacity:1"
           d="m 178.03843,103.71991 c -5.56425,0 -11.75816,2.64117 -15.43542,6.35576 -3.67727,3.7146 -7.73931,7.74792 -5.4478,13.6195 2.29151,5.87157 13.09315,9.78771 20.88322,9.98762 7.79007,0.19992 19.34054,-2.97591 21.79119,-9.07966 2.45064,-6.10375 -2.47816,-10.73348 -6.35577,-14.52746 -3.87761,-3.79397 -9.87117,-6.35576 -15.43542,-6.35576 z"
           id="path4470"
           sodipodi:nodetypes="zzzzzzz" /><path
           style="fill:#ff9197;fill-opacity:1;stroke:none;stroke-width:0.264583px;stroke-linecap:butt;stroke-linejoin:miter;stroke-opacity:1"
           d="m 159.8819,122.78219 c -1.84282,-1.15938 -3.86301,-0.80771 -5.24923,0.40379 -1.38622,1.21149 -2.66791,3.59106 -1.21137,5.65302 1.45654,2.06196 7.52232,3.46284 9.2871,1.21136 1.76478,-2.25148 -0.98368,-6.10878 -2.8265,-7.26817 z"
           id="path4541"
           sodipodi:nodetypes="zzzzz" /><path
           style="fill:#e7aaaa;fill-opacity:1;stroke:none;stroke-width:0.264583px;stroke-linecap:butt;stroke-linejoin:miter;stroke-opacity:1"
           d="m 178.03843,133.68279 c 7.79007,0.19992 19.34054,-2.97591 21.79119,-9.07966 2.45064,-6.10375 -2.47816,-10.73348 -6.35577,-14.52746 14.08042,15.21969 0.58767,22.04788 -15.43542,23.60712 z"
           id="path16415"
           sodipodi:nodetypes="czcc" /><path
           style="fill:#e98287;fill-opacity:1;stroke:none;stroke-width:0.264583px;stroke-linecap:butt;stroke-linejoin:miter;stroke-opacity:1"
           d="m 202.30493,117.77019 c 4.0762,3.80092 4.24895,8.80263 -3.0366,8.03198 2.22341,0.62272 4.8096,0.58023 5.8631,-0.76381 1.76478,-2.25148 -0.98368,-6.10878 -2.8265,-7.26817 z"
           id="path16486"
           sodipodi:nodetypes="ccsc" /><path
           style="fill:#e98287;fill-opacity:1;stroke:none;stroke-width:0.264583px;stroke-linecap:butt;stroke-linejoin:miter;stroke-opacity:1"
           d="m 159.8819,122.78219 c 4.4626,4.67534 3.38978,8.18991 -1.3569,8.36144 1.72412,0.19346 3.38924,-0.0801 4.1834,-1.09327 1.76478,-2.25148 -0.98368,-6.10878 -2.8265,-7.26817 z"
           id="path16488"
           sodipodi:nodetypes="ccsc" /><path
           style="fill:#131313;fill-opacity:1;stroke:none;stroke-width:0.264583px;stroke-linecap:butt;stroke-linejoin:miter;stroke-opacity:1"
           d="m 185.50748,118.81139 c -0.0819,-0.94493 2.90993,-2.62346 4.41013,-1.43591 1.5002,1.18754 -0.12455,1.89714 -1.78765,0.85812 -1.6631,-1.03902 -2.54063,1.52272 -2.62248,0.57779 z"
           id="path17465"
           sodipodi:nodetypes="zzzz" /><path
           style="fill:#131313;fill-opacity:1;stroke:none;stroke-width:0.264583px;stroke-linecap:butt;stroke-linejoin:miter;stroke-opacity:1"
           d="m 178.85437,119.66834 c 0.0819,-0.94493 -2.90993,-2.62346 -4.41013,-1.43591 -1.5002,1.18754 0.12455,1.89714 1.78765,0.85812 1.6631,-1.03902 2.54063,1.52272 2.62248,0.57779 z"
           id="path17467"
           sodipodi:nodetypes="zzzz" /></g><g
         id="g6224"
         transform="matrix(0.18810339,0,0,0.18810339,156.38915,119.67871)"><path
           fill="#34a574"
           d="M 142.8,5.3 H 277.5 V 114.5 H 142.8 Z"
           id="path6192" /><path
           fill="#27aae1"
           d="M 8.1,5.3 H 142.8 V 114.5 H 8.1 Z"
           id="path6194" /><path
           d="M 142.8,114.6 H 277.5 V 223.8 H 142.8 Z"
           class="st4"
           id="path6196" /><path
           d="M 8.1,114.6 H 142.8 V 223.8 H 8.1 Z"
           class="st3"
           id="path6198" /><path
           d="m 123,223.2 65.9,61 v -61 z"
           class="st4"
           id="path6200" /><path
           d="m 142.8,223.2 0.7,19.2 -21.1,-19.7 z"
           class="st3"
           id="path6202" /><g
           id="g6206"><path
             fill="#ffffff"
             d="M 198.6,146.5 V 56.1 h 32.2 V 173 H 182 L 83.5,81 v 92.1 H 51.2 v -117 h 50.5 z"
             id="path6204" /></g></g><g
         id="g19254"
         transform="matrix(1.2601192,0,0,1.2601192,-40.37055,-45.658976)"><path
           style="fill:#ff9197;fill-opacity:1;stroke:none;stroke-width:0.264583px;stroke-linecap:butt;stroke-linejoin:miter;stroke-opacity:1"
           d="m 129.24209,170.29114 c 1.84282,-1.15938 3.86301,-0.80771 5.24923,0.40379 1.38622,1.21149 2.66791,3.59106 1.21137,5.65302 -1.45654,2.06196 -7.52232,3.46284 -9.2871,1.21136 -1.76479,-2.25148 0.98368,-6.10878 2.8265,-7.26817 z"
           id="path4550"
           sodipodi:nodetypes="zzzzz" /><path
           style="fill:#ffc7c7;fill-opacity:1;stroke:none;stroke-width:0.26017px;stroke-linecap:butt;stroke-linejoin:miter;stroke-opacity:1"
           d="m 148.98429,154.33519 c 4.60021,0 9.72099,3.08898 12.76114,7.43339 3.04017,4.34442 6.39843,9.0616 4.50394,15.92872 -1.89449,6.86711 -10.82469,11.44724 -17.26508,11.68104 -6.4404,0.23382 -15.98968,-3.48048 -18.01574,-10.61913 -2.02606,-7.13866 2.0488,-12.55337 5.25459,-16.99063 3.2058,-4.43725 8.16094,-7.43339 12.76115,-7.43339 z"
           id="path4552"
           sodipodi:nodetypes="zzzzzzz" /><path
           style="fill:#e7aaaa;fill-opacity:1;stroke:none;stroke-width:0.26017px;stroke-linecap:butt;stroke-linejoin:miter;stroke-opacity:1"
           d="m 161.74543,161.76858 c 3.04017,4.34442 6.39843,9.0616 4.50394,15.92872 -1.89449,6.86711 -10.82469,11.44724 -17.26508,11.68104 3.39281,-1.67542 24.10336,-4.87284 12.76114,-27.60976 z"
           id="path16204"
           sodipodi:nodetypes="czcc" /><path
           style="fill:#ff9197;fill-opacity:1;stroke:none;stroke-width:0.264583px;stroke-linecap:butt;stroke-linejoin:miter;stroke-opacity:1"
           d="m 162.772,169.58613 c 1.84282,-1.15938 3.86301,-0.80771 5.24923,0.40379 1.38622,1.21149 2.66791,3.59106 1.21137,5.65302 -1.45654,2.06196 -7.52232,3.46284 -9.2871,1.21136 -1.76478,-2.25148 0.98368,-6.10878 2.8265,-7.26817 z"
           id="path4554"
           sodipodi:nodetypes="zzzzz" /><path
           style="fill:#e98287;fill-opacity:1;stroke:none;stroke-width:0.264583px;stroke-linecap:butt;stroke-linejoin:miter;stroke-opacity:1"
           d="m 168.02123,169.98992 c 1.38622,1.21149 2.66791,3.59106 1.21137,5.65302 -0.58858,0.83322 -1.92979,1.55849 -3.43572,1.97844 4.2845,-1.89576 4.49277,-4.48353 2.22435,-7.63146 z"
           id="path16275"
           sodipodi:nodetypes="cscc" /></g><g
         id="g19247"
         transform="matrix(1.0009119,0,0,1.0009119,0.74956891,-4.4483726)"><path
           style="fill:#ffc7c7;fill-opacity:1;stroke:none;stroke-width:0.264583px;stroke-linecap:butt;stroke-linejoin:miter;stroke-opacity:1"
           d="m 205.22853,181.31668 c 5.7241,8.01077 23.0915,6.96559 30.84262,4.11234 7.75112,-2.85325 11.26978,-9.09271 12.33704,-13.70782 1.06726,-4.61511 -0.58728,-5.93424 -2.74157,-9.59548 -2.15429,-3.66124 -4.72648,-8.78844 -10.96626,-10.96626 -6.23978,-2.17782 -17.59701,-3.13692 -23.9887,2.74156 -6.39169,5.87848 -11.20723,19.40489 -5.48313,27.41566 z"
           id="path4597"
           sodipodi:nodetypes="zzzzzzz" /><path
           style="fill:#e7aaaa;fill-opacity:1;stroke:none;stroke-width:0.264583px;stroke-linecap:butt;stroke-linejoin:miter;stroke-opacity:1"
           d="m 205.22853,181.31668 c 5.7241,8.01077 23.0915,6.96559 30.84262,4.11234 7.75112,-2.85325 11.26978,-9.09271 12.33704,-13.70782 1.06726,-4.61511 -0.58728,-5.93424 -2.74157,-9.59548 -2.15429,-3.66124 -4.72648,-8.78844 -10.96626,-10.96626 33.832,25.77842 -9.00507,46.82877 -29.47183,30.15722 z"
           id="path14528"
           sodipodi:nodetypes="czzzcc" /><path
           style="fill:#ff9197;fill-opacity:1;stroke:none;stroke-width:0.264583px;stroke-linecap:butt;stroke-linejoin:miter;stroke-opacity:1"
           d="m 202.84509,176.77712 c 1.85167,-1.8304 5.08229,-2.28535 6.94333,-0.94681 1.86104,1.33854 2.7008,4.25812 1.26242,6.62772 -1.43838,2.3696 -7.13643,4.85771 -9.46818,2.84046 -2.33175,-2.01725 -0.58924,-6.69097 1.26243,-8.52137 z"
           id="path4609"
           sodipodi:nodetypes="zzzzz" /><path
           style="fill:#e98287;fill-opacity:1;stroke:none;stroke-width:0.264583px;stroke-linecap:butt;stroke-linejoin:miter;stroke-opacity:1"
           d="m 209.78842,175.83031 c 1.86104,1.33854 2.7008,4.25812 1.26242,6.62772 -1.43838,2.3696 -7.13643,4.85771 -9.46818,2.84046 7.45813,2.16052 11.79905,-6.00251 8.20576,-9.46818 z"
           id="path15788"
           sodipodi:nodetypes="czcc" /><path
           style="fill:#131313;fill-opacity:1;stroke:none;stroke-width:0.264583px;stroke-linecap:butt;stroke-linejoin:miter;stroke-opacity:1"
           d="m 211.7306,165.03249 c 0.55214,-0.7712 -1.16618,-3.74035 -3.06219,-3.48339 -1.896,0.25695 -0.85991,1.69564 1.10054,1.64951 1.96044,-0.0461 1.40956,2.60511 1.96165,1.83388 z"
           id="path18310"
           sodipodi:nodetypes="zzzz" /></g></g><g
       id="g20170"
       transform="matrix(1.2622984,0,0,1.2622984,-11.476505,-65.264998)"><g
         id="g19230"
         transform="matrix(1.3834916,0,0,1.3834916,-91.493618,-99.250213)"><path
           style="fill:#ffc7c7;fill-opacity:1;stroke:none;stroke-width:0.264583px;stroke-linecap:butt;stroke-linejoin:miter;stroke-opacity:1"
           d="m 216.21014,235.63744 c 1.94065,-3.98677 4.18472,-8.29179 9.00921,-10.51074 4.82449,-2.21895 12.70587,-2.26703 18.01841,0 5.31254,2.26703 11.26855,6.57405 11.51176,12.01227 0.24321,5.43822 -5.62027,10.83301 -10.01023,12.51279 -4.38996,1.67978 -6.82413,-1.64131 -12.01227,-2.00205 -5.18814,-0.36074 -11.53503,2.87623 -14.94736,-1.17622 -3.41233,-4.05245 -3.51017,-6.84928 -1.56952,-10.83605 z"
           id="path9253"
           sodipodi:nodetypes="zzzzzzzz" /><path
           style="fill:#e7aaaa;fill-opacity:1;stroke:none;stroke-width:0.264583px;stroke-linecap:butt;stroke-linejoin:miter;stroke-opacity:1"
           d="m 243.23776,225.1267 c 5.31254,2.26703 11.26855,6.57405 11.51176,12.01227 0.24321,5.43822 -5.62027,10.83301 -10.01023,12.51279 -4.38996,1.67978 -6.82413,-1.64131 -12.01227,-2.00205 5.84003,0.85511 10.03026,1.87426 12.93167,0.25775 13.00684,-7.24669 6.42316,-18.49705 -2.42093,-22.78076 z"
           id="path13689"
           sodipodi:nodetypes="czzcsc" /><path
           style="fill:#ff9197;fill-opacity:1;stroke:none;stroke-width:0.314832px;stroke-linecap:butt;stroke-linejoin:miter;stroke-opacity:1"
           d="m 221.00831,242.59105 c 2.1759,-1.1739 4.25137,1.57186 4.89856,2.81936 0.64718,1.24749 0.45836,1.56672 -0.28815,2.81935 -0.74651,1.25263 -2.6646,4.55947 -4.89857,3.38323 -2.23396,-1.17624 -1.88774,-7.84803 0.28816,-9.02194 z"
           id="path9255"
           sodipodi:nodetypes="zzzzz" /><path
           style="fill:#ff9197;fill-opacity:1;stroke:none;stroke-width:0.207496px;stroke-linecap:butt;stroke-linejoin:miter;stroke-opacity:1"
           d="m 239.26552,243.61524 c 0.84387,-0.7535 2.86214,-0.50375 4.37806,0.37077 1.51593,0.87452 3.93122,3.21218 3.42632,5.00542 -0.5049,1.79325 -2.94206,2.77596 -4.75877,2.22464 -1.81672,-0.55133 -2.67716,-3.83956 -3.04561,-5.19082 -0.36846,-1.35125 -0.84388,-1.65652 0,-2.41001 z"
           id="path9983"
           sodipodi:nodetypes="zzzzzz" /><path
           style="fill:#e98287;fill-opacity:1;stroke:none;stroke-width:0.207496px;stroke-linecap:butt;stroke-linejoin:miter;stroke-opacity:1"
           d="m 243.64358,243.98601 c 1.51593,0.87452 3.93122,3.21218 3.42632,5.00542 -0.5049,1.79325 -2.94206,2.77596 -4.75877,2.22464 4.90615,-0.3408 5.76736,-3.26428 1.33245,-7.23006 z"
           id="path13760"
           sodipodi:nodetypes="czcc" /><path
           style="fill:#e98287;fill-opacity:1;stroke:none;stroke-width:0.314832px;stroke-linecap:butt;stroke-linejoin:miter;stroke-opacity:1"
           d="m 223.82118,242.93414 c 0.97188,0.69446 1.73658,1.80334 2.08569,2.47627 0.64718,1.24749 0.45836,1.56672 -0.28815,2.81935 -0.74651,1.25263 -2.6646,4.55947 -4.89857,3.38323 2.64423,0.1486 7.19873,-4.94179 3.10103,-8.67885 z"
           id="path13831"
           sodipodi:nodetypes="cszcc" /><path
           style="fill:#131313;fill-opacity:1;stroke:none;stroke-width:0.264583px;stroke-linecap:butt;stroke-linejoin:miter;stroke-opacity:1"
           d="m 235.13588,239.54559 c -0.50471,-0.80304 1.38922,-3.66338 3.26632,-3.29276 1.8771,0.37061 0.75628,1.74433 -1.19783,1.58027 -1.95411,-0.16405 -1.56382,2.51554 -2.06849,1.71249 z"
           id="path18312"
           sodipodi:nodetypes="zzzz" /><path
           style="fill:#131313;fill-opacity:1;stroke:none;stroke-width:0.264583px;stroke-linecap:butt;stroke-linejoin:miter;stroke-opacity:1"
           d="m 230.09867,240.16786 c 0.58485,-0.74669 -1.00395,-3.78712 -2.90927,-3.61209 -1.90532,0.17503 -0.93216,1.65703 1.02845,1.6954 1.96061,0.0384 1.29602,2.66342 1.88082,1.91669 z"
           id="path18314"
           sodipodi:nodetypes="zzzz" /></g><g
         id="g19220"
         transform="matrix(1.7231763,0,0,1.7231763,-159.56991,-203.88828)"><path
           d="m 226.72057,275.97908 c -1.6198,0.84435 -10.01107,4.29453 -11.79758,5.22578 -1.78639,0.9315 -2.77884,0.92249 -4.19007,0.24782 -1.41123,-0.67467 -10.34106,-4.28172 -11.94959,-5.05054 -0.80403,-0.38429 -1.22674,-0.70858 -1.22674,-1.01497 v -3.06802 c 0,0 11.62542,-2.5309 13.50228,-3.20415 1.87675,-0.67336 2.52794,-0.69767 4.12509,-0.11264 1.59727,0.58515 11.14734,2.30822 12.72588,2.88637 0,0 -7.1e-4,2.74018 -7.1e-4,3.02463 2.4e-4,0.30331 -0.36401,0.63602 -1.18856,1.06572"
           fill="#912626"
           id="path6226"
           style="stroke-width:0.118567" /><path
           d="m 226.72001,272.92915 c -1.61975,0.84396 -10.01076,4.29427 -11.79721,5.2255 -1.78633,0.93158 -2.77874,0.92245 -4.18993,0.2478 -1.4113,-0.67417 -10.34072,-4.28182 -11.94921,-5.05025 -1.60848,-0.76891 -1.64227,-1.29808 -0.0621,-1.91676 1.58003,-0.61892 10.46048,-4.10302 12.33752,-4.77637 1.87668,-0.6731 2.52774,-0.69765 4.12484,-0.1124 1.59722,0.58501 9.93819,3.90502 11.51655,4.48303 1.57873,0.57873 1.63932,1.05513 0.0196,1.89945"
           fill="#c6302b"
           id="path6228"
           style="stroke-width:0.118567" /><path
           d="m 226.72057,271.01479 c -1.6198,0.84435 -10.01107,4.29453 -11.79758,5.22614 -1.78639,0.93114 -2.77884,0.92213 -4.19007,0.24746 -1.41135,-0.67431 -10.34106,-4.28172 -11.94959,-5.05053 -0.80403,-0.38429 -1.22674,-0.70823 -1.22674,-1.01462 v -3.06838 c 0,0 11.62542,-2.53078 13.50228,-3.20415 1.87675,-0.67324 2.52794,-0.69767 4.12509,-0.11264 1.59727,0.58515 11.14734,2.30787 12.72588,2.88614 0,0 -7.1e-4,2.74018 -7.1e-4,3.02499 2.4e-4,0.30318 -0.36401,0.63589 -1.18856,1.06559"
           fill="#912626"
           id="path6230"
           style="stroke-width:0.118567" /><path
           d="m 226.72001,267.96486 c -1.61975,0.8442 -10.01076,4.29427 -11.79721,5.22586 -1.78633,0.93122 -2.77874,0.92209 -4.18993,0.24745 -1.4113,-0.67418 -10.34072,-4.28171 -11.94921,-5.05026 -1.60848,-0.76867 -1.64227,-1.29795 -0.0621,-1.91688 1.58003,-0.61856 10.46048,-4.1029 12.33752,-4.77612 1.87668,-0.67323 2.52774,-0.69765 4.12484,-0.11252 1.59722,0.58501 9.93819,3.90477 11.51655,4.48303 1.57873,0.57848 1.63932,1.05513 0.0196,1.89932 v 1.2e-4"
           fill="#c6302b"
           id="path6232"
           style="stroke-width:0.118567" /><path
           d="m 226.72057,265.86639 c -1.6198,0.84434 -10.01107,4.29464 -11.79758,5.22625 -1.78639,0.93126 -2.77884,0.92213 -4.19007,0.24746 -1.41135,-0.67431 -10.34106,-4.28184 -11.94959,-5.05041 -0.80403,-0.38441 -1.22674,-0.70847 -1.22674,-1.01462 v -3.0685 c 0,0 11.62542,-2.53066 13.50228,-3.20391 1.87675,-0.67336 2.52794,-0.69767 4.12509,-0.11264 1.59727,0.58515 11.14734,2.30787 12.72588,2.88614 0,0 -7.1e-4,2.74018 -7.1e-4,3.02487 2.4e-4,0.30294 -0.36401,0.63565 -1.18856,1.06536"
           fill="#912626"
           id="path6234"
           style="stroke-width:0.118567" /><path
           d="m 226.72001,262.81646 c -1.61975,0.8442 -10.01076,4.2945 -11.79721,5.22585 -1.78633,0.93123 -2.77874,0.9221 -4.18993,0.24769 -1.41119,-0.67441 -10.34072,-4.28171 -11.94921,-5.05038 -1.60848,-0.76867 -1.64227,-1.29807 -0.0621,-1.91687 1.58003,-0.61869 10.46048,-4.10267 12.33752,-4.77613 1.87668,-0.67334 2.52774,-0.69753 4.12484,-0.1124 1.59722,0.58513 9.93819,3.90489 11.51655,4.48314 1.57873,0.57814 1.63932,1.0549 0.0196,1.8991"
           fill="#c6302b"
           id="path6236"
           style="stroke-width:0.118567" /><path
           d="m 216.44236,259.83184 -2.60956,0.27095 -0.58424,1.40566 -0.94366,-1.56861 -3.01332,-0.27082 2.24849,-0.81083 -0.67459,-1.24472 2.10508,0.8233 1.98461,-0.64977 -0.53636,1.28707 2.02355,0.75777"
           fill="#ffffff"
           id="path6238"
           style="stroke-width:0.118567" /><path
           d="m 213.09268,266.65156 -4.87041,-2.02002 6.97902,-1.07119 -2.10861,3.09121"
           fill="#ffffff"
           id="path6240"
           style="stroke-width:0.118567" /><path
           d="m 206.34025,260.61314 c 2.06014,0 3.73016,0.64742 3.73016,1.4459 0,0.7986 -1.67002,1.4459 -3.73016,1.4459 -2.06002,0 -3.73015,-0.6473 -3.73015,-1.4459 0,-0.79848 1.67013,-1.4459 3.73015,-1.4459"
           fill="#ffffff"
           id="path6242"
           style="stroke-width:0.118567" /><path
           d="m 219.52651,260.21608 4.13039,1.63225 -4.12686,1.63061 -0.004,-3.26286"
           fill="#621b1c"
           id="path6244"
           style="fill:#9a2928;fill-opacity:1;stroke-width:0.118567" /><path
           d="m 214.95693,262.02363 4.56958,-1.80755 0.004,3.26286 -0.44801,0.17529 -4.1251,-1.6306"
           fill="#9a2928"
           id="path6246"
           style="fill:#621b1c;fill-opacity:1;stroke-width:0.118567" /></g><g
         id="g19207"
         transform="matrix(1.1738644,0,0,1.1738644,-32.587702,-48.550556)"><path
           style="fill:#ffc7c7;fill-opacity:1;stroke:none;stroke-width:0.295459px;stroke-linecap:butt;stroke-linejoin:miter;stroke-opacity:1"
           d="m 161.06984,254.47614 c 5.26911,-1.62677 9.43424,1.54507 13.24145,3.68177 3.80721,2.1367 7.76047,4.37151 9.269,8.41544 1.50852,4.04392 1.70849,8.73322 -0.88276,12.62317 -2.59126,3.88995 -5.73964,8.15324 -11.053,9.46738 -5.31336,1.31415 -16.20612,1.57884 -20.72645,-2.10385 -4.52033,-3.6827 -5.52718,-10.39248 -3.97244,-16.8309 1.55475,-6.43842 8.8551,-13.62624 14.1242,-15.25301 z"
           id="path9990"
           sodipodi:nodetypes="zzzzzzzz" /><path
           style="fill:#e7aaaa;fill-opacity:1;stroke:none;stroke-width:0.295459px;stroke-linecap:butt;stroke-linejoin:miter;stroke-opacity:1"
           d="m 174.31129,258.15791 c 3.80721,2.1367 7.76047,4.37151 9.269,8.41544 1.50852,4.04392 1.70849,8.73322 -0.88276,12.62317 -2.59126,3.88995 -5.73964,8.15324 -11.053,9.46738 -5.31336,1.31415 -16.20612,1.57884 -20.72645,-2.10385 24.48029,7.25709 44.24155,-12.94679 23.39321,-28.40214 z"
           id="path13936"
           sodipodi:nodetypes="czzzcc" /><path
           style="fill:#ff9197;fill-opacity:1;stroke:none;stroke-width:0.264583px;stroke-linecap:butt;stroke-linejoin:miter;stroke-opacity:1"
           d="m 168.9352,278.29734 c 3.00589,-1.54977 3.56594,1.22105 5.17763,3.02027 1.61169,1.79922 4.71126,4.85997 3.45175,7.76645 -1.25951,2.90648 -6.66647,5.99733 -9.92378,3.45173 -3.25731,-2.5456 -1.71149,-12.68868 1.2944,-14.23845 z"
           id="path9992"
           sodipodi:nodetypes="zzzzz" /><path
           style="fill:#e98287;fill-opacity:1;stroke:none;stroke-width:0.264583px;stroke-linecap:butt;stroke-linejoin:miter;stroke-opacity:1"
           d="m 174.11283,281.31761 c 1.61169,1.79922 4.71126,4.85997 3.45175,7.76645 -1.25951,2.90648 -6.66647,5.99733 -9.92378,3.45173 5.4993,0.8913 12.66344,-1.97083 6.47203,-11.21818 z"
           id="path14145"
           sodipodi:nodetypes="czcc" /><path
           style="fill:#131313;fill-opacity:1;stroke:none;stroke-width:0.264583px;stroke-linecap:butt;stroke-linejoin:miter;stroke-opacity:1"
           d="m 180.51069,267.51367 c -0.40553,-0.8574 -3.83556,-0.79914 -4.53269,0.98267 -0.69714,1.78182 1.06379,1.57576 1.97649,-0.15988 0.91272,-1.73563 2.9618,0.0346 2.5562,-0.82279 z"
           id="path18318"
           sodipodi:nodetypes="zzzz" /></g><g
         id="g19200"
         transform="matrix(1.2776461,0,0,1.2776461,-75.704306,-90.569493)"><path
           style="fill:#ff9197;fill-opacity:1;stroke:none;stroke-width:0.246525px;stroke-linecap:butt;stroke-linejoin:miter;stroke-opacity:1"
           d="m 256.22435,281.85642 c 0.11789,1.07908 1.23572,3.5999 2.75349,4.46025 1.51777,0.86035 3.09167,1.24148 5.22577,0.0714 2.13409,-1.17009 5.62945,-5.45662 4.93362,-7.97376 -0.69584,-2.51714 -3.11475,-3.09148 -5.58933,-2.89076 -2.47458,0.20074 -5.93079,3.80597 -6.90508,5.13243 -0.97429,1.32645 -0.53637,0.12138 -0.41847,1.20046 z"
           id="path10161"
           sodipodi:nodetypes="zzzzzzz" /><path
           style="fill:#e98287;fill-opacity:1;stroke:none;stroke-width:0.246525px;stroke-linecap:butt;stroke-linejoin:miter;stroke-opacity:1"
           d="m 264.20361,286.38807 c 2.13409,-1.17009 5.62945,-5.45662 4.93362,-7.97376 -0.69584,-2.51714 -3.11475,-3.09148 -5.58933,-2.89076 8.81639,1.39345 2.84669,7.17936 0.65571,10.86452 z"
           id="path13539"
           sodipodi:nodetypes="czcc" /><path
           style="fill:#ffc7c7;fill-opacity:1;stroke:none;stroke-width:0.246525px;stroke-linecap:butt;stroke-linejoin:miter;stroke-opacity:1"
           d="m 234.41606,289.22786 c 1.67787,-5.59979 7.42343,-12.89788 12.86464,-14.87475 5.44121,-1.97687 10.7522,-0.9366 14.87475,2.41213 4.12256,3.34873 6.94932,10.39287 6.0303,15.67877 -0.91902,5.2859 -4.45247,9.03046 -10.0505,11.65858 -5.59804,2.62812 -17.02013,4.43826 -21.70909,0.40204 -4.68896,-4.03622 -3.68796,-9.67697 -2.0101,-15.27677 z"
           id="path9994"
           sodipodi:nodetypes="zzzzzzz" /><path
           style="fill:#ff9197;fill-opacity:1;stroke:none;stroke-width:0.246525px;stroke-linecap:butt;stroke-linejoin:miter;stroke-opacity:1"
           d="m 240.65725,289.24029 c -0.26389,0.82476 -0.91147,2.25659 -2.42924,3.11694 -1.51777,0.86035 -3.09167,1.24148 -5.22577,0.0714 -2.13409,-1.17009 -5.62945,-5.45662 -4.93362,-7.97376 0.69584,-2.51714 3.11475,-3.09148 5.58933,-2.89076 2.47458,0.20074 6.15571,3.99417 6.90508,5.13243 0.74937,1.13826 0.35812,1.71899 0.0942,2.54375 z"
           id="path10065"
           sodipodi:nodetypes="zzzzzzz" /><path
           style="fill:#e7aaaa;fill-opacity:1;stroke:none;stroke-width:0.246525px;stroke-linecap:butt;stroke-linejoin:miter;stroke-opacity:1"
           d="m 262.15545,276.76524 c 4.12256,3.34873 6.94932,10.39287 6.0303,15.67877 -0.91902,5.2859 -4.45247,9.03046 -10.0505,11.65858 -5.59804,2.62812 -17.02013,4.43826 -21.70909,0.40204 28.14494,5.11794 35.63782,-15.72972 25.72929,-27.73939 z"
           id="path13328"
           sodipodi:nodetypes="czzcc" /><path
           style="fill:#e98287;fill-opacity:1;stroke:none;stroke-width:0.246525px;stroke-linecap:butt;stroke-linejoin:miter;stroke-opacity:1"
           d="m 240.65725,289.24029 c -0.26389,0.82476 -0.91147,2.25659 -2.42924,3.11694 -1.51777,0.86035 -3.09167,1.24148 -5.22577,0.0714 2.77414,2.064 11.07117,-2.66499 4.92952,-8.50117 1.24553,1.07482 2.27316,2.22513 2.63127,2.76908 0.74937,1.13826 0.35812,1.71899 0.0942,2.54375 z"
           id="path13687"
           sodipodi:nodetypes="zzccszz" /></g></g><g
       id="g20134"
       transform="matrix(1.2622984,0,0,1.2622984,-10.690218,-32.248766)"><g
         id="g19192"
         transform="matrix(1.2425995,0,0,1.2425995,-86.704745,-46.76939)"><path
           style="fill:#ff9197;fill-opacity:1;stroke:none;stroke-width:0.264583px;stroke-linecap:butt;stroke-linejoin:miter;stroke-opacity:1"
           d="m 347.07531,177.74343 c -2.02633,-0.79634 -3.94584,-0.075 -5.0825,1.3732 -1.13667,1.44821 -1.95334,4.02467 -0.13866,5.77969 1.81469,1.75503 8.03519,2.0031 9.35034,-0.53736 1.31517,-2.54047 -2.10286,-5.81918 -4.12918,-6.61553 z"
           id="path4567"
           sodipodi:nodetypes="zzzzz" /><path
           style="fill:#e98287;fill-opacity:1;stroke:none;stroke-width:0.264583px;stroke-linecap:butt;stroke-linejoin:miter;stroke-opacity:1"
           d="m 347.07531,177.74343 c 6.00845,5.7834 2.92058,9.10232 -5.22116,7.15289 1.81469,1.75503 8.03519,2.0031 9.35034,-0.53736 1.31517,-2.54047 -2.10286,-5.81918 -4.12918,-6.61553 z"
           id="path12943"
           sodipodi:nodetypes="cczc" /><path
           style="fill:#ffc7c7;fill-opacity:1;stroke:none;stroke-width:0.26017px;stroke-linecap:butt;stroke-linejoin:miter;stroke-opacity:1"
           d="m 324.70957,165.73841 c -4.51992,0.85573 -8.97671,4.84336 -11.15565,9.67747 -2.17896,4.83412 -4.60112,10.09367 -1.46228,16.48852 3.13884,6.39484 12.76517,9.23384 19.13664,8.26552 6.37148,-0.9683 15.06316,-6.39413 15.72593,-13.78507 0.66276,-7.39094 -4.34822,-11.95314 -8.32347,-15.71662 -3.97526,-3.76346 -9.40125,-5.78555 -13.92117,-4.92982 z"
           id="path4569"
           sodipodi:nodetypes="zzzzzzz" /><path
           style="fill:#ff9197;fill-opacity:1;stroke:none;stroke-width:0.264583px;stroke-linecap:butt;stroke-linejoin:miter;stroke-opacity:1"
           d="m 308.23103,192.4512 c -0.1148,2.17415 1.17645,3.76712 2.90975,4.38757 1.73331,0.62045 4.43581,0.5806 5.52702,-1.6959 1.09123,-2.27649 -0.64023,-8.25631 -3.4662,-8.70074 -2.82597,-0.44444 -4.85575,3.8349 -4.97057,6.00907 z"
           id="path4571"
           sodipodi:nodetypes="zzzzz" /><path
           style="fill:#e7aaaa;fill-opacity:1;stroke:none;stroke-width:0.26017px;stroke-linecap:butt;stroke-linejoin:miter;stroke-opacity:1"
           d="m 320.24024,198.71704 c 3.64834,1.45098 7.74089,1.94637 10.98804,1.45288 6.37148,-0.96832 15.06316,-6.39413 15.72593,-13.78507 0.66276,-7.39094 -4.34822,-11.95314 -8.32347,-15.71662 15.3977,18.352 -1.26919,30.46445 -18.3905,28.04881 z"
           id="path12663"
           sodipodi:nodetypes="cszcc" /><path
           style="fill:#e98287;fill-opacity:1;stroke:none;stroke-width:0.264583px;stroke-linecap:butt;stroke-linejoin:miter;stroke-opacity:1"
           d="m 311.14078,196.83877 c 1.73331,0.62045 4.43581,0.5806 5.52702,-1.6959 1.09123,-2.27649 -0.64023,-8.25631 -3.4662,-8.70074 5.61833,5.03673 2.91215,11.27341 -2.06082,10.39664 z"
           id="path12665"
           sodipodi:nodetypes="czcc" /><path
           style="fill:#131313;fill-opacity:1;stroke:none;stroke-width:0.264583px;stroke-linecap:butt;stroke-linejoin:miter;stroke-opacity:1"
           d="m 337.42996,184.06947 c -0.0819,-0.94493 2.90993,-2.62346 4.41013,-1.43591 1.5002,1.18754 -0.12455,1.89714 -1.78765,0.85812 -1.6631,-1.03902 -2.54063,1.52272 -2.62248,0.57779 z"
           id="path18320"
           sodipodi:nodetypes="zzzz" /><path
           style="fill:#131313;fill-opacity:1;stroke:none;stroke-width:0.264583px;stroke-linecap:butt;stroke-linejoin:miter;stroke-opacity:1"
           d="m 335.14603,184.34817 c -0.48644,-0.81423 -3.89482,-0.42501 -4.41663,1.4158 -0.52181,1.8408 1.21099,1.46566 1.95181,-0.35001 0.74082,-1.81567 2.9513,-0.25159 2.46482,-1.06579 z"
           id="path18322"
           sodipodi:nodetypes="zzzz" /></g><path
         d="m 373.75157,194.67807 c -2.68877,0 -5.09927,1.19124 -6.74996,3.06668 l -4.22983,-2.99441 c 0.44901,-1.23625 0.70683,-2.56367 0.70683,-3.95305 0,-1.36533 -0.24884,-2.67051 -0.68308,-3.88847 l 4.22036,-2.96267 c 1.65054,1.86598 4.05473,3.05072 6.73568,3.05072 4.96273,0 9.00083,-4.03746 9.00083,-9.00084 0,-4.96337 -4.0381,-9.00084 -9.00083,-9.00084 -4.96272,0 -9.00084,4.03747 -9.00084,9.00084 0,0.88838 0.13427,1.74506 0.37509,2.55636 l -4.22316,2.96418 c -1.76416,-2.18858 -4.30425,-3.71667 -7.19832,-4.18313 v -5.08981 c 4.07716,-0.85632 7.14913,-4.47881 7.14913,-8.8073 0,-4.96339 -4.03811,-9.00084 -9.00082,-9.00084 -4.96273,0 -9.00084,4.03745 -9.00084,9.00084 0,4.2705 2.99241,7.84833 6.98801,8.76579 v 5.1559 c -5.45293,0.95716 -9.61314,5.71606 -9.61314,11.43927 0,5.75109 4.20141,10.52742 9.6937,11.45203 v 5.44429 c -4.03646,0.88723 -7.06857,4.48697 -7.06857,8.78654 0,4.96339 4.03811,9.00084 9.00084,9.00084 4.96271,0 9.00082,-4.03745 9.00082,-9.00084 0,-4.29957 -3.03211,-7.89931 -7.06855,-8.78654 v -5.44445 c 2.77991,-0.46826 5.2949,-1.93096 7.07653,-4.1157 l 4.25806,3.01384 c -0.23638,0.80401 -0.36878,1.6522 -0.36878,2.53161 0,4.96338 4.03812,9.00084 9.00084,9.00084 4.96273,0 9.00083,-4.03746 9.00083,-9.00084 0,-4.96337 -4.0381,-9.00084 -9.00083,-9.00084 z m 0,-21.04607 c 2.40653,0 4.36386,1.95818 4.36386,4.36403 0,2.40586 -1.95733,4.36387 -4.36386,4.36387 -2.40652,0 -4.36388,-1.95801 -4.36388,-4.36387 0,-2.40585 1.95736,-4.36403 4.36388,-4.36403 z m -26.26297,-8.19567 c 0,-2.40587 1.95752,-4.36387 4.36405,-4.36387 2.40651,0 4.36387,1.958 4.36387,4.36387 0,2.40586 -1.95736,4.36387 -4.36387,4.36387 -2.40653,0 -4.36405,-1.95801 -4.36405,-4.36387 z m 8.72792,51.04382 c 0,2.40587 -1.95736,4.36389 -4.36387,4.36389 -2.40653,0 -4.36405,-1.95802 -4.36405,-4.36389 0,-2.40586 1.95752,-4.36387 4.36405,-4.36387 2.40651,0 4.36387,1.95801 4.36387,4.36387 z m -4.3642,-19.59671 c -3.35637,0 -6.08683,-2.72996 -6.08683,-6.08615 0,-3.3564 2.73046,-6.08683 6.08683,-6.08683 3.3562,0 6.08665,2.73043 6.08665,6.08683 0,3.35619 -2.94348,6.08615 -6.08665,6.08615 z m 21.89925,11.15951 c -2.40652,0 -4.36388,-1.95818 -4.36388,-4.36404 0,-2.40585 1.95736,-4.36386 4.36388,-4.36386 2.40653,0 4.36386,1.95801 4.36386,4.36386 0,2.40586 -1.95733,4.36404 -4.36386,4.36404 z"
         id="path863"
         inkscape:connector-curvature="0"
         sodipodi:nodetypes="sccsccssssccccsssccsccsssccccsssssssssssssssssssssssssssss"
         style="stroke-width:0.166116" /><g
         id="g19182"
         transform="matrix(1.2524756,0,0,1.2524756,-81.227418,-80.31807)"><path
           style="fill:#ff9197;fill-opacity:1;stroke:none;stroke-width:0.264583px;stroke-linecap:butt;stroke-linejoin:miter;stroke-opacity:1"
           d="m 313.77753,245.36468 c 1.84282,-1.15938 3.86301,-0.80771 5.24923,0.40379 1.38622,1.21149 2.66791,3.59106 1.21137,5.65302 -1.45654,2.06196 -7.52232,3.46284 -9.2871,1.21136 -1.76478,-2.25148 0.98368,-6.10878 2.8265,-7.26817 z"
           id="path4599"
           sodipodi:nodetypes="zzzzz" /><path
           style="fill:#ffc7c7;fill-opacity:1;stroke:none;stroke-width:0.264583px;stroke-linecap:butt;stroke-linejoin:miter;stroke-opacity:1"
           d="m 338.04403,231.3144 c 5.56425,0 11.75816,2.64117 15.43542,6.35576 3.67727,3.7146 7.73931,7.74792 5.4478,13.6195 -2.29151,5.87157 -13.09315,9.78771 -20.88322,9.98762 -7.79007,0.19992 -19.34054,-2.97591 -21.79119,-9.07966 -2.45064,-6.10375 2.47816,-10.73348 6.35577,-14.52746 3.87761,-3.79397 9.87117,-6.35576 15.43542,-6.35576 z"
           id="path4601"
           sodipodi:nodetypes="zzzzzzz" /><path
           style="fill:#e7aaaa;fill-opacity:1;stroke:none;stroke-width:0.264583px;stroke-linecap:butt;stroke-linejoin:miter;stroke-opacity:1"
           d="m 347.12375,233.38264 c 2.44629,1.10136 4.66652,2.58119 6.3557,4.28752 3.67727,3.7146 7.73931,7.74792 5.4478,13.6195 -2.29151,5.87157 -13.09315,9.78771 -20.88322,9.98762 16.85673,-4.32794 28.88787,-12.22116 9.07972,-27.89464 z"
           id="path13065"
           sodipodi:nodetypes="cszcc" /><path
           style="fill:#ff9197;fill-opacity:1;stroke:none;stroke-width:0.264583px;stroke-linecap:butt;stroke-linejoin:miter;stroke-opacity:1"
           d="m 356.20056,250.37668 c 1.84282,-1.15938 3.86301,-0.80771 5.24923,0.40379 1.38622,1.21149 2.66791,3.59106 1.21137,5.65302 -1.45654,2.06196 -7.52232,3.46284 -9.2871,1.21136 -1.76478,-2.25148 0.98368,-6.10878 2.8265,-7.26817 z"
           id="path4603"
           sodipodi:nodetypes="zzzzz" /><path
           style="fill:#e98287;fill-opacity:1;stroke:none;stroke-width:0.264583px;stroke-linecap:butt;stroke-linejoin:miter;stroke-opacity:1"
           d="m 361.44979,250.78047 c 1.38622,1.21149 2.66791,3.59106 1.21137,5.65302 -1.45654,2.06196 -7.52232,3.46284 -9.2871,1.21136 7.95703,1.02483 10.37695,-2.01765 8.07573,-6.86438 z"
           id="path13205"
           sodipodi:nodetypes="czcc" /></g><g
         id="g19175"
         transform="matrix(1.0272921,0,0,1.0272921,-23.207739,-21.315264)"><path
           style="fill:#ff9197;fill-opacity:1;stroke:none;stroke-width:0.23537px;stroke-linecap:butt;stroke-linejoin:miter;stroke-opacity:1"
           d="m 434.43204,207.74815 c -0.0761,-2.45983 -1.68268,-2.01705 -2.72142,-2.11492 -1.03874,-0.0979 -2.0931,0.39187 -3.05341,1.22328 -0.96031,0.8314 -1.94524,0.94179 -2.39193,3.41552 -0.44669,2.47373 0.78865,8.20553 3.24961,7.41615 2.46097,-0.78937 4.99329,-7.4802 4.91715,-9.94003 z"
           id="path5421"
           sodipodi:nodetypes="zzzzzz" /><path
           style="fill:#ffc7c7;fill-opacity:1;stroke:none;stroke-width:0.225247px;stroke-linecap:butt;stroke-linejoin:miter;stroke-opacity:1"
           d="m 399.00693,207.62662 c 2.7045,-4.39839 5.66989,-5.53459 9.73823,-7.33791 4.06835,-1.80331 10.6001,1.00857 14.51475,3.86273 3.91464,2.85415 5.98928,7.15289 7.51252,11.36543 1.52325,4.21253 -0.54281,8.93374 -1.47656,13.0371 -0.93376,4.10336 -2.96091,6.66253 -7.83186,9.49331 -4.87098,2.83076 -12.87152,4.70669 -18.57647,2.53877 -5.70494,-2.16792 -7.5323,-8.27929 -8.59501,-14.34349 -1.0627,-6.06422 2.00988,-14.21757 4.7144,-18.61594 z"
           id="path5417"
           sodipodi:nodetypes="zzzzzzzzz" /><path
           style="fill:#ff9197;fill-opacity:1;stroke:none;stroke-width:0.264583px;stroke-linecap:butt;stroke-linejoin:miter;stroke-opacity:1"
           d="m 395.18931,232.85564 c 2.04991,-1.29824 3.53825,0.21597 4.80706,0.98287 1.26882,0.7669 2.08672,1.87064 2.52419,3.08873 0.43746,1.21809 1.47844,2.05747 0.0168,3.7766 -1.46167,1.71912 -7.45104,3.90813 -9.64228,1.52724 -2.19125,-2.38088 0.24435,-8.07719 2.29427,-9.37544 z"
           id="path5419"
           sodipodi:nodetypes="zzzzzz" /><path
           style="fill:#e98287;fill-opacity:1;stroke:none;stroke-width:0.23537px;stroke-linecap:butt;stroke-linejoin:miter;stroke-opacity:1"
           d="m 434.43204,207.74815 c -0.0761,-2.45983 -1.68268,-2.01705 -2.72142,-2.11492 4.82174,0.76236 -0.91808,8.88242 -2.19573,12.05495 2.46097,-0.78937 4.99329,-7.4802 4.91715,-9.94003 z"
           id="path11665"
           sodipodi:nodetypes="zccz" /><path
           style="fill:#e7aaaa;fill-opacity:1;stroke:none;stroke-width:0.225247px;stroke-linecap:butt;stroke-linejoin:miter;stroke-opacity:1"
           d="m 423.25991,204.15144 c 3.91464,2.85415 5.98928,7.15289 7.51252,11.36543 1.52325,4.21253 -0.54281,8.93374 -1.47656,13.0371 -0.93376,4.10336 -2.96091,6.66253 -7.83186,9.49331 -4.87098,2.83076 -12.87152,4.70669 -18.57647,2.53877 23.08203,-1.25413 32.2903,-17.01369 20.37237,-36.43461 z"
           id="path11525"
           sodipodi:nodetypes="czzzcc" /><path
           style="fill:#e98287;fill-opacity:1;stroke:none;stroke-width:0.264583px;stroke-linecap:butt;stroke-linejoin:miter;stroke-opacity:1"
           d="m 399.99637,233.83851 c 1.26882,0.7669 2.08672,1.87064 2.52419,3.08873 0.43746,1.21809 1.47844,2.05747 0.0168,3.7766 -1.46167,1.71912 -7.45104,3.90813 -9.64228,1.52724 5.28379,2.11917 12.9011,-2.01451 7.10129,-8.39257 z"
           id="path11835"
           sodipodi:nodetypes="czzcc" /></g></g></g><style
     id="style6188">svg {enable-background:new 0 0 288 288}</style><style
     id="style6190">.st3{fill:#375c93}.st4{fill:#8dc63f}</style></svg>
