<?xml version="1.0" encoding="UTF-8" standalone="no"?>
<!-- Created with Inkscape (http://www.inkscape.org/) -->

<svg
   width="2200"
   height="1280"
   viewBox="0 0 582.08333 338.66667"
   version="1.1"
   id="svg5"
   inkscape:version="1.2.2 (b0a84865, 2022-12-01)"
   sodipodi:docname="landing_4.svg"
   xml:space="preserve"
   inkscape:export-filename="landing_4.png"
   inkscape:export-xdpi="48"
   inkscape:export-ydpi="48"
   xmlns:inkscape="http://www.inkscape.org/namespaces/inkscape"
   xmlns:sodipodi="http://sodipodi.sourceforge.net/DTD/sodipodi-0.dtd"
   xmlns="http://www.w3.org/2000/svg"
   xmlns:svg="http://www.w3.org/2000/svg"><sodipodi:namedview
     id="namedview7"
     pagecolor="#505050"
     bordercolor="#eeeeee"
     borderopacity="1"
     inkscape:showpageshadow="0"
     inkscape:pageopacity="0"
     inkscape:pagecheckerboard="0"
     inkscape:deskcolor="#505050"
     inkscape:document-units="px"
     showgrid="false"
     inkscape:zoom="0.21815329"
     inkscape:cx="1084.1001"
     inkscape:cy="854.90344"
     inkscape:window-width="1718"
     inkscape:window-height="1027"
     inkscape:window-x="1715"
     inkscape:window-y="25"
     inkscape:window-maximized="0"
     inkscape:current-layer="layer1" /><defs
     id="defs2"><filter
       inkscape:collect="always"
       style="color-interpolation-filters:sRGB"
       id="filter21212"
       x="-0.0023905952"
       y="-0.0040264002"
       width="1.0047812"
       height="1.0080528"><feGaussianBlur
         inkscape:collect="always"
         stdDeviation="0.33393997"
         id="feGaussianBlur21214" /></filter><filter
       inkscape:collect="always"
       style="color-interpolation-filters:sRGB"
       id="filter21216"
       x="-0.0095623809"
       y="-0.016105601"
       width="1.0191248"
       height="1.0322112"><feGaussianBlur
         inkscape:collect="always"
         stdDeviation="1.3357599"
         id="feGaussianBlur21218" /></filter><filter
       inkscape:collect="always"
       style="color-interpolation-filters:sRGB"
       id="filter21220"
       x="-0.02016683"
       y="-0.040836824"
       width="1.0403337"
       height="1.0816736"><feGaussianBlur
         inkscape:collect="always"
         stdDeviation="2.7553011"
         id="feGaussianBlur21222" /></filter><filter
       inkscape:collect="always"
       style="color-interpolation-filters:sRGB"
       id="filter21224"
       x="-0.034362716"
       y="-0.07958389"
       width="1.0687254"
       height="1.1591678"><feGaussianBlur
         inkscape:collect="always"
         stdDeviation="4.6948194"
         id="feGaussianBlur21226" /></filter></defs><g
     inkscape:label="Layer 1"
     inkscape:groupmode="layer"
     id="layer1"><g
       id="g20617"
       transform="matrix(0.48797707,0,0,0.48797707,409.8259,-455.34652)"
       style="filter:url(#filter21224);opacity:1"><path
         style="clip-rule:evenodd;fill:#2e2f28;fill-opacity:1;fill-rule:evenodd;stroke-width:4.77127;stroke-linecap:round;stroke-linejoin:round"
         inkscape:connector-curvature="0"
         id="path20413"
         d="m 340.576,1114.1273 c 0,15.414 -73.40307,27.9095 -163.95073,27.9095 -90.547189,0 -163.950205,-12.4955 -163.950205,-27.9095 0,-15.4136 73.403016,-27.9091 163.950205,-27.9091 90.54766,0 163.95073,12.4955 163.95073,27.9091" /><path
         d="m 88.61281,1101.6972 -24.812631,10.2585 c -4.015066,1.6594 -10.951164,-16.5745 -5.542747,-25.1151 5.407342,-8.5401 28.95505,1.094 28.95505,1.094 2.437951,3.2402 3.404101,12.934 1.400328,13.7626 z"
         id="path20415"
         inkscape:connector-curvature="0"
         style="clip-rule:evenodd;fill:#ff9197;fill-rule:evenodd;stroke-width:5.37349;stroke-linecap:round;stroke-linejoin:round" /><path
         d="m 71.961983,1100.1733 c 10.128491,26.3167 40.677847,12.0232 47.531737,11.273 5.5433,-0.6056 14.46383,4.4848 26.8293,4.8867 12.36495,0.4001 24.11086,-2.7061 34.7364,-1.1822 10.62608,1.5245 22.12858,15.7588 55.65056,5.769 28.46552,-8.5901 45.13893,-23.0458 14.19354,-55.3518 -8.04734,-8.4009 -13.40579,-34.9707 -30.02599,-46.845 -18.92759,-13.524 -53.26312,-18.2672 -69.04667,-18.2672 -13.41063,0 -25.52623,12.0388 -38.27484,20.6009 -9.87165,6.6293 -21.21508,9.5363 -26.938923,13.4977 -32.602041,22.5638 -21.87817,46.8519 -14.655114,65.6189 z"
         id="path20417"
         inkscape:connector-curvature="0"
         style="clip-rule:evenodd;fill:#ffc7c7;fill-rule:evenodd;stroke-width:5.37349;stroke-linecap:round;stroke-linejoin:round" /><path
         d="m 181.05942,1115.1508 c 10.62608,1.5245 22.12858,15.7588 55.65056,5.769 28.46552,-8.5901 45.13893,-23.0458 14.19354,-55.3518 -8.04734,-8.4009 -13.40579,-34.9707 -30.02599,-46.845 9.20585,9.4847 11.76901,22.0877 26.42736,52.8628 2.58466,5.4272 20.21399,22.7551 4.42292,34.2957 -28.63533,20.9276 -51.62689,10.9609 -70.66839,9.2693 z"
         id="path20419"
         inkscape:connector-curvature="0"
         style="clip-rule:evenodd;fill:#f7b5b5;fill-rule:evenodd;stroke-width:5.37349;stroke-linecap:round;stroke-linejoin:round" /><path
         d="m 231.05224,1105.492 30.28068,18.5192 c 4.89901,2.9962 16.19947,-17.2624 10.44339,-29.6703 -5.75555,-12.4079 -37.08408,-4.2622 -37.08408,-4.2622 -3.54328,3.8216 -6.08494,13.9184 -3.63999,15.4133 z"
         id="path20421"
         inkscape:connector-curvature="0"
         style="clip-rule:evenodd;fill:#ff9197;fill-rule:evenodd;stroke-width:5.37349;stroke-linecap:round;stroke-linejoin:round" /><g
         transform="matrix(5.3734908,0,0,5.3734908,-33.738878,927.36343)"
         id="g20445"
         style="clip-rule:evenodd;fill-rule:evenodd;stroke-linecap:round;stroke-linejoin:round">
<path
   d="m 22.7695,32.4434 c 0.1314,-0.0891 4.2267,-3.4277 7.9144,-3.4959 2.5016,-0.0465 4.5994,-0.3124 7.6362,0.9437 3.0367,1.2562 6.4571,3.7171 6.5462,3.7716 0.089,0.0543 0.1481,0.3639 0.0838,0.502 -0.0644,0.138 -0.2724,0.0966 -0.3472,0.0472 -0.0748,-0.0495 -3.8006,-2.2594 -6.3786,-3.3257 -2.578,-1.0663 -4.7908,-0.9411 -7.6361,-0.9436 -3.6884,-0.0043 -7.4166,3.0588 -7.5356,3.0801 -0.1191,0.025 -0.4032,0.1066 -0.4765,-0.0653 -0.0611,-0.1426 0.062,-0.4254 0.1934,-0.5143 z"
   id="path20423"
   inkscape:connector-curvature="0"
   style="opacity:1;fill:#b06264" />
<path
   d="m 28.8325,24.8447 c 0.0222,1.7753 -1.3759,3.233 -3.1227,3.2556 -1.7468,0.0227 -3.1808,-1.3981 -3.203,-3.1735 -0.0222,-1.7754 1.3759,-3.2331 3.1227,-3.2557 1.7468,-0.0227 3.1808,1.3982 3.203,3.1736 z"
   id="path20425"
   inkscape:connector-curvature="0"
   style="opacity:1;fill:#fffefe" />
<path
   d="m 25.8134,27.4255 c -1.3637,0.0833 -2.5359,-0.972 -2.6189,-2.3579 -0.0831,-1.3859 0.9545,-2.5782 2.318,-2.6638 1.3636,-0.0855 2.5374,0.9678 2.6229,2.3577 0.0811,1.39 -0.9583,2.5806 -2.322,2.664 z"
   id="path20427"
   inkscape:connector-curvature="0"
   style="opacity:1;fill:#000000" />
<path
   d="m 26.0845,23.2887 c 0.2379,-0.3261 1.1029,-0.0366 1.406,0.5056 0.303,0.542 0.3003,1.3748 -0.2018,1.5429 -0.5022,0.1679 -0.4655,-0.4863 -0.7287,-0.9474 -0.2632,-0.4612 -0.7136,-0.775 -0.4756,-1.101 z"
   id="path20429"
   inkscape:connector-curvature="0"
   style="opacity:1;fill:#ffffff" />
<path
   d="m 26.8818,25.8754 c 0.0177,-0.2147 0.1757,-0.3803 0.3529,-0.3699 0.1771,0.0105 0.3064,0.1931 0.2887,0.4078 -0.0178,0.2148 -0.1757,0.3804 -0.3529,0.37 -0.1772,-0.0105 -0.3064,-0.1931 -0.2887,-0.4079 z"
   id="path20431"
   inkscape:connector-curvature="0"
   style="opacity:1;fill:#ffffff" />
<path
   d="m 35.9849,24.5963 c 0.1438,2.2631 -1.6697,4.2221 -4.0517,4.3769 -2.3821,0.1548 -4.4316,-1.5532 -4.5792,-3.816 -0.1475,-2.2629 1.6627,-4.2246 4.0445,-4.383 2.3818,-0.1585 4.4342,1.5464 4.5856,3.809"
   id="path20433"
   inkscape:connector-curvature="0"
   style="opacity:1;fill:#ffc7c7" />
<path
   d="m 35.6249,26.0482 c -0.5068,1.5089 -1.9435,2.6481 -3.703,2.762 -2.2873,0.1485 -4.2551,-1.4919 -4.3964,-3.6647 -0.0644,-0.9912 0.2624,-1.9223 0.8541,-2.6561 0,0 0.3726,-0.4207 0.1472,-0.5995 -0.2253,-0.1788 -0.5462,0.3226 -0.5462,0.3226 -0.6585,0.8206 -1.0219,1.86 -0.9497,2.9665 0.1591,2.4317 2.3617,4.267 4.9216,4.1008 1.972,-0.1279 3.5817,-1.4063 4.1469,-3.0986 0,0 0.1326,-0.3467 -0.1,-0.4299 -0.2327,-0.0832 -0.3746,0.2969 -0.3745,0.2969 z"
   id="path20435"
   inkscape:connector-curvature="0"
   style="opacity:1;fill:#b06264" />
<path
   d="m 42.6266,24.8135 c 0.0222,1.7754 -1.3759,3.2331 -3.1227,3.2557 -1.7468,0.0227 -3.1808,-1.3981 -3.203,-3.1735 -0.0222,-1.7754 1.3759,-3.2331 3.1227,-3.2557 1.7468,-0.0227 3.1808,1.3982 3.203,3.1735 z"
   id="path20437"
   inkscape:connector-curvature="0"
   style="opacity:1;fill:#fffefe" />
<path
   d="m 39.6074,27.3944 c -1.3636,0.0833 -2.5358,-0.972 -2.6189,-2.3579 -0.083,-1.3859 0.9545,-2.5782 2.3181,-2.6638 1.3635,-0.0856 2.5374,0.9678 2.6228,2.3577 0.0811,1.39 -0.9583,2.5806 -2.322,2.664 z"
   id="path20439"
   inkscape:connector-curvature="0"
   style="opacity:1;fill:#000000" />
<path
   d="m 39.8785,23.2576 c 0.238,-0.3261 1.103,-0.0366 1.406,0.5056 0.303,0.542 0.3004,1.3748 -0.2018,1.5429 -0.5022,0.1679 -0.4654,-0.4863 -0.7286,-0.9474 -0.2633,-0.4612 -0.7136,-0.775 -0.4756,-1.101 z"
   id="path20441"
   inkscape:connector-curvature="0"
   style="opacity:1;fill:#ffffff" />
<path
   d="m 40.6759,25.8443 c 0.0177,-0.2147 0.1757,-0.3804 0.3528,-0.3699 0.1772,0.0105 0.3064,0.193 0.2887,0.4078 -0.0177,0.2148 -0.1757,0.3804 -0.3528,0.3699 -0.1772,-0.0104 -0.3064,-0.193 -0.2887,-0.4078 z"
   id="path20443"
   inkscape:connector-curvature="0"
   style="opacity:1;fill:#ffffff" />
</g><path
         d="m 242.75946,1112.6521 18.57346,11.3591 c 4.89901,2.9962 16.19947,-17.2624 10.44339,-29.6703 0.18,6.1 -2.85064,26.206 -11.41115,25.66 -5.12147,-0.327 -17.6057,-7.3488 -17.6057,-7.3488 z"
         id="path20459"
         inkscape:connector-curvature="0"
         style="clip-rule:evenodd;fill:#d37075;fill-rule:evenodd;stroke-width:5.37349;stroke-linecap:round;stroke-linejoin:round" /></g><g
       id="g20643"
       transform="matrix(0.65073769,0,0,0.65073769,326.2762,-479.91847)"
       style="mix-blend-mode:normal;filter:url(#filter21220)"><path
         style="clip-rule:evenodd;fill:#2e2f28;fill-opacity:1;fill-rule:evenodd;stroke-width:4.77127;stroke-linecap:round;stroke-linejoin:round"
         inkscape:connector-curvature="0"
         id="path20357"
         d="m 339.24625,935.94117 c 0,15.41405 -73.40307,27.90953 -163.95073,27.90953 -90.547186,0 -163.950202,-12.49548 -163.950202,-27.90953 0,-15.41357 73.403016,-27.90905 163.950202,-27.90905 90.54766,0 163.95073,12.49548 163.95073,27.90905" /><path
         d="m 87.283063,923.5111 -24.812631,10.25856 c -4.015066,1.65931 -10.951164,-16.57455 -5.542747,-25.11517 5.407342,-8.54007 28.95505,1.09404 28.95505,1.09404 2.437951,3.24021 3.404101,12.934 1.400328,13.76257 z"
         id="path20359"
         inkscape:connector-curvature="0"
         style="clip-rule:evenodd;fill:#ff9197;fill-rule:evenodd;stroke-width:5.37349;stroke-linecap:round;stroke-linejoin:round" /><path
         d="m 70.632236,921.98719 c 10.128491,26.3167 40.677844,12.02318 47.531734,11.27307 5.5433,-0.60563 14.46383,4.48473 26.8293,4.88666 12.36495,0.40011 24.11086,-2.70613 34.7364,-1.18221 10.62608,1.52447 22.12858,15.75883 55.65056,5.76902 28.46552,-8.59008 45.13893,-23.04584 14.19354,-55.35179 -8.04734,-8.40091 -13.40579,-34.97068 -30.02599,-46.84506 -18.92759,-13.52397 -53.26312,-18.26715 -69.04667,-18.26715 -13.41063,0 -25.52623,12.03878 -38.27484,20.60087 -9.87165,6.62927 -21.215077,9.53635 -26.93892,13.49769 -32.602041,22.5638 -21.87817,46.85197 -14.655114,65.6189 z"
         id="path20367"
         inkscape:connector-curvature="0"
         style="clip-rule:evenodd;fill:#ffc7c7;fill-rule:evenodd;stroke-width:5.37349;stroke-linecap:round;stroke-linejoin:round" /><path
         d="m 179.72967,936.96471 c 10.62608,1.52447 22.12858,15.75883 55.65056,5.76902 28.46552,-8.59008 45.13893,-23.04584 14.19354,-55.35179 -8.04734,-8.40091 -13.40579,-34.97068 -30.02599,-46.84506 9.20585,9.48477 11.76901,22.08778 26.42736,52.86284 2.58466,5.42721 20.21399,22.75508 4.42292,34.29574 -28.63533,20.92758 -51.62689,10.96087 -70.66839,9.26925 z"
         id="path20369"
         inkscape:connector-curvature="0"
         style="clip-rule:evenodd;fill:#f7b5b5;fill-rule:evenodd;stroke-width:5.37349;stroke-linecap:round;stroke-linejoin:round" /><path
         d="m 229.72249,927.30588 30.28068,18.5192 c 4.89901,2.99625 16.19947,-17.26232 10.44339,-29.67028 -5.75555,-12.40791 -37.08408,-4.26222 -37.08408,-4.26222 -3.54328,3.8216 -6.08494,13.91841 -3.63999,15.4133 z"
         id="path20371"
         inkscape:connector-curvature="0"
         style="clip-rule:evenodd;fill:#ff9197;fill-rule:evenodd;stroke-width:5.37349;stroke-linecap:round;stroke-linejoin:round" /><g
         transform="matrix(5.3734908,0,0,5.3734908,-35.068625,749.17734)"
         id="g20395"
         style="clip-rule:evenodd;fill-rule:evenodd;stroke-linecap:round;stroke-linejoin:round">
<path
   d="m 22.7695,32.4434 c 0.1314,-0.0891 4.2267,-3.4277 7.9144,-3.4959 2.5016,-0.0465 4.5994,-0.3124 7.6362,0.9437 3.0367,1.2562 6.4571,3.7171 6.5462,3.7716 0.089,0.0543 0.1481,0.3639 0.0838,0.502 -0.0644,0.138 -0.2724,0.0966 -0.3472,0.0472 -0.0748,-0.0495 -3.8006,-2.2594 -6.3786,-3.3257 -2.578,-1.0663 -4.7908,-0.9411 -7.6361,-0.9436 -3.6884,-0.0043 -7.4166,3.0588 -7.5356,3.0801 -0.1191,0.025 -0.4032,0.1066 -0.4765,-0.0653 -0.0611,-0.1426 0.062,-0.4254 0.1934,-0.5143 z"
   id="path20373"
   inkscape:connector-curvature="0"
   style="opacity:1;fill:#b06264" />
<path
   d="m 28.8325,24.8447 c 0.0222,1.7753 -1.3759,3.233 -3.1227,3.2556 -1.7468,0.0227 -3.1808,-1.3981 -3.203,-3.1735 -0.0222,-1.7754 1.3759,-3.2331 3.1227,-3.2557 1.7468,-0.0227 3.1808,1.3982 3.203,3.1736 z"
   id="path20375"
   inkscape:connector-curvature="0"
   style="opacity:1;fill:#fffefe" />
<path
   d="m 25.8134,27.4255 c -1.3637,0.0833 -2.5359,-0.972 -2.6189,-2.3579 -0.0831,-1.3859 0.9545,-2.5782 2.318,-2.6638 1.3636,-0.0855 2.5374,0.9678 2.6229,2.3577 0.0811,1.39 -0.9583,2.5806 -2.322,2.664 z"
   id="path20377"
   inkscape:connector-curvature="0"
   style="opacity:1;fill:#000000" />
<path
   d="m 26.0845,23.2887 c 0.2379,-0.3261 1.1029,-0.0366 1.406,0.5056 0.303,0.542 0.3003,1.3748 -0.2018,1.5429 -0.5022,0.1679 -0.4655,-0.4863 -0.7287,-0.9474 -0.2632,-0.4612 -0.7136,-0.775 -0.4756,-1.101 z"
   id="path20379"
   inkscape:connector-curvature="0"
   style="opacity:1;fill:#ffffff" />
<path
   d="m 26.8818,25.8754 c 0.0177,-0.2147 0.1757,-0.3803 0.3529,-0.3699 0.1771,0.0105 0.3064,0.1931 0.2887,0.4078 -0.0178,0.2148 -0.1757,0.3804 -0.3529,0.37 -0.1772,-0.0105 -0.3064,-0.1931 -0.2887,-0.4079 z"
   id="path20381"
   inkscape:connector-curvature="0"
   style="opacity:1;fill:#ffffff" />
<path
   d="m 35.9849,24.5963 c 0.1438,2.2631 -1.6697,4.2221 -4.0517,4.3769 -2.3821,0.1548 -4.4316,-1.5532 -4.5792,-3.816 -0.1475,-2.2629 1.6627,-4.2246 4.0445,-4.383 2.3818,-0.1585 4.4342,1.5464 4.5856,3.809"
   id="path20383"
   inkscape:connector-curvature="0"
   style="opacity:1;fill:#ffc7c7" />
<path
   d="m 35.6249,26.0482 c -0.5068,1.5089 -1.9435,2.6481 -3.703,2.762 -2.2873,0.1485 -4.2551,-1.4919 -4.3964,-3.6647 -0.0644,-0.9912 0.2624,-1.9223 0.8541,-2.6561 0,0 0.3726,-0.4207 0.1472,-0.5995 -0.2253,-0.1788 -0.5462,0.3226 -0.5462,0.3226 -0.6585,0.8206 -1.0219,1.86 -0.9497,2.9665 0.1591,2.4317 2.3617,4.267 4.9216,4.1008 1.972,-0.1279 3.5817,-1.4063 4.1469,-3.0986 0,0 0.1326,-0.3467 -0.1,-0.4299 -0.2327,-0.0832 -0.3746,0.2969 -0.3745,0.2969 z"
   id="path20385"
   inkscape:connector-curvature="0"
   style="opacity:1;fill:#b06264" />
<path
   d="m 42.6266,24.8135 c 0.0222,1.7754 -1.3759,3.2331 -3.1227,3.2557 -1.7468,0.0227 -3.1808,-1.3981 -3.203,-3.1735 -0.0222,-1.7754 1.3759,-3.2331 3.1227,-3.2557 1.7468,-0.0227 3.1808,1.3982 3.203,3.1735 z"
   id="path20387"
   inkscape:connector-curvature="0"
   style="opacity:1;fill:#fffefe" />
<path
   d="m 39.6074,27.3944 c -1.3636,0.0833 -2.5358,-0.972 -2.6189,-2.3579 -0.083,-1.3859 0.9545,-2.5782 2.3181,-2.6638 1.3635,-0.0856 2.5374,0.9678 2.6228,2.3577 0.0811,1.39 -0.9583,2.5806 -2.322,2.664 z"
   id="path20389"
   inkscape:connector-curvature="0"
   style="opacity:1;fill:#000000" />
<path
   d="m 39.8785,23.2576 c 0.238,-0.3261 1.103,-0.0366 1.406,0.5056 0.303,0.542 0.3004,1.3748 -0.2018,1.5429 -0.5022,0.1679 -0.4654,-0.4863 -0.7286,-0.9474 -0.2633,-0.4612 -0.7136,-0.775 -0.4756,-1.101 z"
   id="path20391"
   inkscape:connector-curvature="0"
   style="opacity:1;fill:#ffffff" />
<path
   d="m 40.6759,25.8443 c 0.0177,-0.2147 0.1757,-0.3804 0.3528,-0.3699 0.1772,0.0105 0.3064,0.193 0.2887,0.4078 -0.0177,0.2148 -0.1757,0.3804 -0.3528,0.3699 -0.1772,-0.0104 -0.3064,-0.193 -0.2887,-0.4078 z"
   id="path20393"
   inkscape:connector-curvature="0"
   style="opacity:1;fill:#ffffff" />
</g><path
         style="clip-rule:evenodd;fill:#ff6188;fill-opacity:1;fill-rule:evenodd;stroke-width:5.37349;stroke-linecap:round;stroke-linejoin:round"
         inkscape:connector-curvature="0"
         id="path20397"
         d="m 150.36516,830.33481 c 2.30791,3.37564 5.38584,6.17575 11.81093,7.93769 8.30096,2.27625 18.61807,3.08491 27.28336,2.11341 6.39714,-0.71683 10.15052,-2.80013 13.27198,-5.58305 0,0 -3.96133,-24.14415 -21.28009,-27.31561 -0.2386,-0.0441 -0.4847,-0.0539 -0.73134,-0.0765 -0.27297,-0.0245 -0.54702,-0.10885 -0.81246,-0.0623 -6.15211,1.08223 -29.54238,22.98564 -29.54238,22.98618 z" /><path
         style="clip-rule:evenodd;fill:#78dce8;fill-opacity:1;fill-rule:evenodd;stroke-width:5.37349;stroke-linecap:round;stroke-linejoin:round"
         inkscape:connector-curvature="0"
         id="path20399"
         d="m 189.29072,840.40474 c 6.46861,-0.70609 12.03501,-2.3982 15.18388,-5.20534 0,0 -1.70233,-25.77875 -23.7546,-27.78845 5.19294,2.71471 8.87379,21.67986 8.57072,32.99379 z" /><path
         style="clip-rule:evenodd;fill:#ffd866;fill-opacity:1;fill-rule:evenodd;stroke-width:5.37349;stroke-linecap:round;stroke-linejoin:round"
         inkscape:connector-curvature="0"
         id="path20401"
         d="m 148.22597,830.49333 c 2.3149,3.38584 7.55674,6.03333 14.00869,7.7953 1.5841,-11.29936 9.49819,-28.47679 18.48534,-30.87768 -22.05173,-2.0097 -32.49403,23.08238 -32.49403,23.08238 z" /><path
         style="clip-rule:evenodd;fill:none;fill-rule:evenodd;stroke:#000000;stroke-width:1.1544;stroke-linecap:round;stroke-linejoin:round"
         inkscape:connector-curvature="0"
         id="path20403"
         d="m 180.8812,804.70272 -0.18377,2.62492" /><path
         style="clip-rule:evenodd;fill:#ff6188;fill-opacity:1;fill-rule:evenodd;stroke-width:5.37349;stroke-linecap:round;stroke-linejoin:round"
         inkscape:connector-curvature="0"
         id="path20405"
         d="m 181.01125,805.05522 c 0.0559,-1.40409 2.82538,-2.43458 6.18596,-2.30116 3.36004,0.13337 6.03927,1.38015 5.98338,2.78478 -0.0559,1.40408 -2.82484,2.43473 -6.18542,2.30091 -3.36058,-0.13337 -6.03927,-1.37991 -5.98392,-2.78453 z" /><path
         style="clip-rule:evenodd;fill:#78dce8;fill-opacity:1;fill-rule:evenodd;stroke-width:5.37349;stroke-linecap:round;stroke-linejoin:round"
         inkscape:connector-curvature="0"
         id="path20407"
         d="m 168.48671,804.07238 c 0.0973,-1.40192 2.89578,-2.34975 6.251,-2.11688 3.35465,0.23291 5.99572,1.55859 5.89847,2.96056 -0.0978,1.40192 -2.89632,2.3498 -6.25098,2.11713 -3.35521,-0.23291 -5.99629,-1.55829 -5.89849,-2.96081 z" /><path
         d="m 241.42971,934.46604 18.57346,11.35904 c 4.89901,2.99625 16.19947,-17.26232 10.44339,-29.67028 0.18,6.10001 -2.85064,26.20599 -11.41115,25.66004 -5.12147,-0.32705 -17.6057,-7.3488 -17.6057,-7.3488 z"
         id="path20409"
         inkscape:connector-curvature="0"
         style="clip-rule:evenodd;fill:#d37075;fill-rule:evenodd;stroke-width:5.37349;stroke-linecap:round;stroke-linejoin:round" /></g><g
       id="g20673"
       transform="matrix(0.76128158,0,0,0.76128158,243.76228,-366.02288)"
       style="filter:url(#filter21216)"><path
         style="clip-rule:evenodd;fill:#2e2f28;fill-opacity:1;fill-rule:evenodd;stroke-width:4.77127;stroke-linecap:round;stroke-linejoin:round"
         inkscape:connector-curvature="0"
         id="path20297"
         d="m 336.58676,715.20318 c 0,15.41405 -73.40307,27.90953 -163.95073,27.90953 -90.54719,0 -163.9502059,-12.49548 -163.9502059,-27.90953 0,-15.41357 73.4030159,-27.90905 163.9502059,-27.90905 90.54766,0 163.95073,12.49548 163.95073,27.90905" /><path
         d="m 84.623569,702.77311 -24.812631,10.25856 c -4.015066,1.65931 -10.951164,-16.57455 -5.542747,-25.11517 5.407342,-8.54007 28.95505,1.09404 28.95505,1.09404 2.437951,3.24021 3.404101,12.934 1.400328,13.76257 z"
         id="path20299"
         inkscape:connector-curvature="0"
         style="clip-rule:evenodd;fill:#ff9197;fill-rule:evenodd;stroke-width:5.37349;stroke-linecap:round;stroke-linejoin:round" /><path
         d="m 231.67163,643.72786 c 41.14289,-24.90777 72.90578,-59.15354 98.37345,-99.66539 -3.54124,22.83162 -3.9188,45.15991 10.21808,65.17994 -14.52259,11.00383 -24.96775,27.90937 -29.75271,53.00625 -15.62853,-2.42829 -30.71723,-0.39275 -43.85922,17.72609 -5.92444,-13.50844 -13.57394,-21.07323 -25.46633,-14.01893 l -9.40314,0.77057 -4.26055,-19.70028 z"
         id="path20301"
         inkscape:connector-curvature="0"
         style="clip-rule:evenodd;fill:#d97f84;fill-rule:evenodd;stroke-width:4.93511;stroke-linecap:round;stroke-linejoin:round" /><path
         d="M 79.70324,637.10327 C 51.403652,617.77699 29.555675,591.20506 12.037914,559.77089 c 2.435628,17.71548 2.695524,35.04085 -7.0284659,50.57456 9.9890939,8.53793 17.1737909,21.65517 20.4651639,41.12871 10.750146,-1.88452 21.128216,-0.30548 30.168294,13.75399 4.074719,-10.48157 9.336498,-16.35102 17.516756,-10.87757 l 6.467889,0.59753 2.930261,-15.28542 z"
         id="path20303"
         inkscape:connector-curvature="0"
         style="clip-rule:evenodd;fill:#d97f84;fill-rule:evenodd;stroke-width:4.93511;stroke-linecap:round;stroke-linejoin:round" /><path
         d="m 5.0094481,610.34545 c 9.9890939,8.53793 17.1737909,21.65517 20.4651639,41.12871 10.750146,-1.88452 21.128216,-0.30548 30.168294,13.75399 4.074719,-10.48157 9.336498,-16.35102 17.516756,-10.87757 l 6.467889,0.59753 c 0,0 -13.89938,-9.8663 -23.295709,0.0956 -2.763916,2.93016 -8.994298,-4.79801 -12.548232,-6.76093 -5.893155,-3.25525 -14.071021,-1.47665 -17.644623,-8.16717 -6.95703,-13.02428 -15.589956,-27.95399 -21.1295389,-29.7702 z"
         id="path20305"
         inkscape:connector-curvature="0"
         style="clip-rule:evenodd;fill:#ca6c71;fill-rule:evenodd;stroke-width:4.93511;stroke-linecap:round;stroke-linejoin:round" /><path
         d="m 67.972742,701.2492 c 10.128491,26.3167 40.677848,12.02318 47.531738,11.27307 5.5433,-0.60563 14.46383,4.48473 26.8293,4.88666 12.36495,0.40011 24.11086,-2.70613 34.7364,-1.18221 10.62608,1.52447 22.12858,15.75883 55.65056,5.76902 28.46552,-8.59008 45.13893,-23.04584 14.19354,-55.35179 -8.04734,-8.40091 -13.40579,-34.97068 -30.02599,-46.84506 -18.92759,-13.52397 -53.26312,-18.26715 -69.04667,-18.26715 -13.41063,0 -25.52623,12.03878 -38.27484,20.60087 -9.871649,6.62927 -21.215081,9.53635 -26.938924,13.49769 -32.602041,22.5638 -21.87817,46.85197 -14.655114,65.6189 z"
         id="path20307"
         inkscape:connector-curvature="0"
         style="clip-rule:evenodd;fill:#ffc7c7;fill-rule:evenodd;stroke-width:5.37349;stroke-linecap:round;stroke-linejoin:round" /><path
         d="m 177.07018,716.22672 c 10.62608,1.52447 22.12858,15.75883 55.65056,5.76902 28.46552,-8.59008 45.13893,-23.04584 14.19354,-55.35179 -8.04734,-8.40091 -13.40579,-34.97068 -30.02599,-46.84506 9.20585,9.48477 11.76901,22.08778 26.42736,52.86284 2.58466,5.42721 20.21399,22.75508 4.42292,34.29574 -28.63533,20.92758 -51.62689,10.96087 -70.66839,9.26925 z"
         id="path20309"
         inkscape:connector-curvature="0"
         style="clip-rule:evenodd;fill:#f7b5b5;fill-rule:evenodd;stroke-width:5.37349;stroke-linecap:round;stroke-linejoin:round" /><path
         d="m 227.063,706.56789 30.28068,18.5192 c 4.89901,2.99625 16.19947,-17.26232 10.44339,-29.67028 -5.75555,-12.40791 -37.08408,-4.26222 -37.08408,-4.26222 -3.54328,3.8216 -6.08494,13.91841 -3.63999,15.4133 z"
         id="path20311"
         inkscape:connector-curvature="0"
         style="clip-rule:evenodd;fill:#ff9197;fill-rule:evenodd;stroke-width:5.37349;stroke-linecap:round;stroke-linejoin:round" /><g
         transform="matrix(5.3734908,0,0,5.3734908,-37.728119,528.43935)"
         id="g20335"
         style="clip-rule:evenodd;fill-rule:evenodd;stroke-linecap:round;stroke-linejoin:round">
<path
   d="m 22.7695,32.4434 c 0.1314,-0.0891 4.2267,-3.4277 7.9144,-3.4959 2.5016,-0.0465 4.5994,-0.3124 7.6362,0.9437 3.0367,1.2562 6.4571,3.7171 6.5462,3.7716 0.089,0.0543 0.1481,0.3639 0.0838,0.502 -0.0644,0.138 -0.2724,0.0966 -0.3472,0.0472 -0.0748,-0.0495 -3.8006,-2.2594 -6.3786,-3.3257 -2.578,-1.0663 -4.7908,-0.9411 -7.6361,-0.9436 -3.6884,-0.0043 -7.4166,3.0588 -7.5356,3.0801 -0.1191,0.025 -0.4032,0.1066 -0.4765,-0.0653 -0.0611,-0.1426 0.062,-0.4254 0.1934,-0.5143 z"
   id="path20313"
   inkscape:connector-curvature="0"
   style="opacity:1;fill:#b06264" />
<path
   d="m 28.8325,24.8447 c 0.0222,1.7753 -1.3759,3.233 -3.1227,3.2556 -1.7468,0.0227 -3.1808,-1.3981 -3.203,-3.1735 -0.0222,-1.7754 1.3759,-3.2331 3.1227,-3.2557 1.7468,-0.0227 3.1808,1.3982 3.203,3.1736 z"
   id="path20315"
   inkscape:connector-curvature="0"
   style="opacity:1;fill:#fffefe" />
<path
   d="m 25.8134,27.4255 c -1.3637,0.0833 -2.5359,-0.972 -2.6189,-2.3579 -0.0831,-1.3859 0.9545,-2.5782 2.318,-2.6638 1.3636,-0.0855 2.5374,0.9678 2.6229,2.3577 0.0811,1.39 -0.9583,2.5806 -2.322,2.664 z"
   id="path20317"
   inkscape:connector-curvature="0"
   style="opacity:1;fill:#000000" />
<path
   d="m 26.0845,23.2887 c 0.2379,-0.3261 1.1029,-0.0366 1.406,0.5056 0.303,0.542 0.3003,1.3748 -0.2018,1.5429 -0.5022,0.1679 -0.4655,-0.4863 -0.7287,-0.9474 -0.2632,-0.4612 -0.7136,-0.775 -0.4756,-1.101 z"
   id="path20319"
   inkscape:connector-curvature="0"
   style="opacity:1;fill:#ffffff" />
<path
   d="m 26.8818,25.8754 c 0.0177,-0.2147 0.1757,-0.3803 0.3529,-0.3699 0.1771,0.0105 0.3064,0.1931 0.2887,0.4078 -0.0178,0.2148 -0.1757,0.3804 -0.3529,0.37 -0.1772,-0.0105 -0.3064,-0.1931 -0.2887,-0.4079 z"
   id="path20321"
   inkscape:connector-curvature="0"
   style="opacity:1;fill:#ffffff" />
<path
   d="m 35.9849,24.5963 c 0.1438,2.2631 -1.6697,4.2221 -4.0517,4.3769 -2.3821,0.1548 -4.4316,-1.5532 -4.5792,-3.816 -0.1475,-2.2629 1.6627,-4.2246 4.0445,-4.383 2.3818,-0.1585 4.4342,1.5464 4.5856,3.809"
   id="path20323"
   inkscape:connector-curvature="0"
   style="opacity:1;fill:#ffc7c7" />
<path
   d="m 35.6249,26.0482 c -0.5068,1.5089 -1.9435,2.6481 -3.703,2.762 -2.2873,0.1485 -4.2551,-1.4919 -4.3964,-3.6647 -0.0644,-0.9912 0.2624,-1.9223 0.8541,-2.6561 0,0 0.3726,-0.4207 0.1472,-0.5995 -0.2253,-0.1788 -0.5462,0.3226 -0.5462,0.3226 -0.6585,0.8206 -1.0219,1.86 -0.9497,2.9665 0.1591,2.4317 2.3617,4.267 4.9216,4.1008 1.972,-0.1279 3.5817,-1.4063 4.1469,-3.0986 0,0 0.1326,-0.3467 -0.1,-0.4299 -0.2327,-0.0832 -0.3746,0.2969 -0.3745,0.2969 z"
   id="path20325"
   inkscape:connector-curvature="0"
   style="opacity:1;fill:#b06264" />
<path
   d="m 42.6266,24.8135 c 0.0222,1.7754 -1.3759,3.2331 -3.1227,3.2557 -1.7468,0.0227 -3.1808,-1.3981 -3.203,-3.1735 -0.0222,-1.7754 1.3759,-3.2331 3.1227,-3.2557 1.7468,-0.0227 3.1808,1.3982 3.203,3.1735 z"
   id="path20327"
   inkscape:connector-curvature="0"
   style="opacity:1;fill:#fffefe" />
<path
   d="m 39.6074,27.3944 c -1.3636,0.0833 -2.5358,-0.972 -2.6189,-2.3579 -0.083,-1.3859 0.9545,-2.5782 2.3181,-2.6638 1.3635,-0.0856 2.5374,0.9678 2.6228,2.3577 0.0811,1.39 -0.9583,2.5806 -2.322,2.664 z"
   id="path20329"
   inkscape:connector-curvature="0"
   style="opacity:1;fill:#000000" />
<path
   d="m 39.8785,23.2576 c 0.238,-0.3261 1.103,-0.0366 1.406,0.5056 0.303,0.542 0.3004,1.3748 -0.2018,1.5429 -0.5022,0.1679 -0.4654,-0.4863 -0.7286,-0.9474 -0.2633,-0.4612 -0.7136,-0.775 -0.4756,-1.101 z"
   id="path20331"
   inkscape:connector-curvature="0"
   style="opacity:1;fill:#ffffff" />
<path
   d="m 40.6759,25.8443 c 0.0177,-0.2147 0.1757,-0.3804 0.3528,-0.3699 0.1772,0.0105 0.3064,0.193 0.2887,0.4078 -0.0177,0.2148 -0.1757,0.3804 -0.3528,0.3699 -0.1772,-0.0104 -0.3064,-0.193 -0.2887,-0.4078 z"
   id="path20333"
   inkscape:connector-curvature="0"
   style="opacity:1;fill:#ffffff" />
</g><path
         style="clip-rule:evenodd;fill:#ff6188;fill-opacity:1;fill-rule:evenodd;stroke-width:5.37349;stroke-linecap:round;stroke-linejoin:round"
         inkscape:connector-curvature="0"
         id="path20341"
         d="m 147.70567,609.59682 c 2.30791,3.37564 5.38584,6.17575 11.81093,7.93769 8.30096,2.27625 18.61807,3.08491 27.28336,2.11341 6.39714,-0.71683 10.15052,-2.80013 13.27198,-5.58305 0,0 -3.96133,-24.14415 -21.28009,-27.31561 -0.2386,-0.0441 -0.4847,-0.0539 -0.73134,-0.0765 -0.27297,-0.0245 -0.54702,-0.10885 -0.81246,-0.0623 -6.15211,1.08223 -29.54238,22.98564 -29.54238,22.98618 z" /><path
         style="clip-rule:evenodd;fill:#78dce8;fill-opacity:1;fill-rule:evenodd;stroke-width:5.37349;stroke-linecap:round;stroke-linejoin:round"
         inkscape:connector-curvature="0"
         id="path20343"
         d="m 186.63123,619.66675 c 6.46861,-0.70609 12.03501,-2.3982 15.18388,-5.20534 0,0 -1.70233,-25.77875 -23.7546,-27.78845 5.19294,2.71471 8.87379,21.67986 8.57072,32.99379 z" /><path
         style="clip-rule:evenodd;fill:#ffd866;fill-opacity:1;fill-rule:evenodd;stroke-width:5.37349;stroke-linecap:round;stroke-linejoin:round"
         inkscape:connector-curvature="0"
         id="path20345"
         d="m 145.56648,609.75534 c 2.3149,3.38584 7.55674,6.03333 14.00869,7.7953 1.5841,-11.29936 9.49819,-28.47679 18.48534,-30.87768 -22.05173,-2.0097 -32.49403,23.08238 -32.49403,23.08238 z" /><path
         style="clip-rule:evenodd;fill:none;fill-rule:evenodd;stroke:#000000;stroke-width:1.1544;stroke-linecap:round;stroke-linejoin:round"
         inkscape:connector-curvature="0"
         id="path20347"
         d="m 178.22171,583.96473 -0.18377,2.62492" /><path
         style="clip-rule:evenodd;fill:#ff6188;fill-opacity:1;fill-rule:evenodd;stroke-width:5.37349;stroke-linecap:round;stroke-linejoin:round"
         inkscape:connector-curvature="0"
         id="path20349"
         d="m 178.35176,584.31723 c 0.0559,-1.40409 2.82538,-2.43458 6.18596,-2.30116 3.36004,0.13337 6.03927,1.38015 5.98338,2.78478 -0.0559,1.40408 -2.82484,2.43473 -6.18542,2.30091 -3.36058,-0.13337 -6.03927,-1.37991 -5.98392,-2.78453 z" /><path
         style="clip-rule:evenodd;fill:#78dce8;fill-opacity:1;fill-rule:evenodd;stroke-width:5.37349;stroke-linecap:round;stroke-linejoin:round"
         inkscape:connector-curvature="0"
         id="path20351"
         d="m 165.82722,583.33439 c 0.0973,-1.40192 2.89578,-2.34975 6.251,-2.11688 3.35465,0.23291 5.99572,1.55859 5.89847,2.96056 -0.0978,1.40192 -2.89632,2.3498 -6.25098,2.11713 -3.35521,-0.23291 -5.99629,-1.55829 -5.89849,-2.96081 z" /><path
         d="m 238.77022,713.72805 18.57346,11.35904 c 4.89901,2.99625 16.19947,-17.26232 10.44339,-29.67028 0.18,6.10001 -2.85064,26.20599 -11.41115,25.66004 -5.12147,-0.32705 -17.6057,-7.3488 -17.6057,-7.3488 z"
         id="path20353"
         inkscape:connector-curvature="0"
         style="clip-rule:evenodd;fill:#d37075;fill-rule:evenodd;stroke-width:5.37349;stroke-linecap:round;stroke-linejoin:round" /><path
         d="m 330.04508,544.06247 c -3.54124,22.83162 -3.9188,45.15991 10.21808,65.17994 -14.52259,11.00383 -24.96775,27.90937 -29.75271,53.00625 -15.62853,-2.42829 -30.71723,-0.39275 -43.85922,17.72609 8.78172,-22.55365 25.19482,-18.97919 36.80573,-28.4333 5.21646,-4.24775 6.70448,-12.27631 11.61772,-22.80941 4.60593,-9.87488 13.30924,-15.70349 14.37573,-22.02326 2.60303,-15.42727 -8.83883,-29.52709 0.59467,-62.64631 z"
         id="path20355"
         inkscape:connector-curvature="0"
         style="clip-rule:evenodd;fill:#ca6c71;fill-rule:evenodd;stroke-width:4.93511;stroke-linecap:round;stroke-linejoin:round" /></g><g
       id="g20705"
       transform="matrix(0.89501002,0,0,0.89501002,130.29898,-213.19271)"
       style="mix-blend-mode:normal;filter:url(#filter21212)"><path
         style="clip-rule:evenodd;fill:#2e2f28;fill-opacity:1;fill-rule:evenodd;stroke-width:4.77127;stroke-linecap:round;stroke-linejoin:round"
         inkscape:connector-curvature="0"
         id="path20165"
         d="m 347.88961,497.12468 c 0,15.41405 -73.40307,27.90953 -163.95073,27.90953 -90.547191,0 -163.950207,-12.49548 -163.950207,-27.90953 0,-15.41357 73.403016,-27.90905 163.950207,-27.90905 90.54766,0 163.95073,12.49548 163.95073,27.90905" /><path
         d="m 95.926418,484.69461 -24.812631,10.25856 c -4.015066,1.65931 -10.951164,-16.57455 -5.542747,-25.11517 5.407342,-8.54007 28.95505,1.09404 28.95505,1.09404 2.437951,3.24021 3.404101,12.934 1.400328,13.76257 z"
         id="path20167"
         inkscape:connector-curvature="0"
         style="clip-rule:evenodd;fill:#ff9197;fill-rule:evenodd;stroke-width:5.37349;stroke-linecap:round;stroke-linejoin:round" /><path
         d="m 242.97448,425.64936 c 41.14289,-24.90777 72.90578,-59.15354 98.37345,-99.66539 -3.54124,22.83162 -3.9188,45.15991 10.21808,65.17994 -14.52259,11.00383 -24.96775,27.90937 -29.75271,53.00625 -15.62853,-2.42829 -30.71723,-0.39275 -43.85922,17.72609 -5.92444,-13.50844 -13.57394,-21.07323 -25.46633,-14.01893 l -9.40314,0.77057 -4.26055,-19.70028 z"
         id="path20169"
         inkscape:connector-curvature="0"
         style="clip-rule:evenodd;fill:#d97f84;fill-rule:evenodd;stroke-width:4.93511;stroke-linecap:round;stroke-linejoin:round" /><path
         d="M 91.006089,419.02477 C 62.706501,399.69849 40.858524,373.12656 23.340763,341.69239 c 2.435628,17.71548 2.695524,35.04085 -7.028466,50.57456 9.989094,8.53793 17.173791,21.65517 20.465164,41.12871 10.750146,-1.88452 21.128216,-0.30548 30.168294,13.75399 4.074719,-10.48157 9.336498,-16.35102 17.516756,-10.87757 l 6.467889,0.59753 2.930261,-15.28542 z"
         id="path20171"
         inkscape:connector-curvature="0"
         style="clip-rule:evenodd;fill:#d97f84;fill-rule:evenodd;stroke-width:4.93511;stroke-linecap:round;stroke-linejoin:round" /><path
         d="m 16.312297,392.26695 c 9.989094,8.53793 17.173791,21.65517 20.465164,41.12871 10.750146,-1.88452 21.128216,-0.30548 30.168294,13.75399 4.074719,-10.48157 9.336498,-16.35102 17.516756,-10.87757 l 6.467889,0.59753 c 0,0 -13.89938,-9.8663 -23.295709,0.0956 -2.763916,2.93016 -8.994298,-4.79801 -12.548232,-6.76093 -5.893155,-3.25525 -14.071021,-1.47665 -17.644623,-8.16717 -6.95703,-13.02428 -15.589956,-27.95399 -21.129539,-29.7702 z"
         id="path20173"
         inkscape:connector-curvature="0"
         style="clip-rule:evenodd;fill:#ca6c71;fill-rule:evenodd;stroke-width:4.93511;stroke-linecap:round;stroke-linejoin:round" /><path
         d="m 79.275591,483.1707 c 10.128491,26.3167 40.677849,12.02318 47.531739,11.27307 5.5433,-0.60563 14.46383,4.48473 26.8293,4.88666 12.36495,0.40011 24.11086,-2.70613 34.7364,-1.18221 10.62608,1.52447 22.12858,15.75883 55.65056,5.76902 28.46552,-8.59008 45.13893,-23.04584 14.19354,-55.35179 -8.04734,-8.40091 -13.40579,-34.97068 -30.02599,-46.84506 -18.92759,-13.52397 -53.26312,-18.26715 -69.04667,-18.26715 -13.41063,0 -25.52623,12.03878 -38.27484,20.60087 -9.87165,6.62927 -21.215082,9.53635 -26.938925,13.49769 -32.602041,22.5638 -21.87817,46.85197 -14.655114,65.6189 z"
         id="path20175"
         inkscape:connector-curvature="0"
         style="clip-rule:evenodd;fill:#ffc7c7;fill-rule:evenodd;stroke-width:5.37349;stroke-linecap:round;stroke-linejoin:round" /><path
         d="m 188.37303,498.14822 c 10.62608,1.52447 22.12858,15.75883 55.65056,5.76902 28.46552,-8.59008 45.13893,-23.04584 14.19354,-55.35179 -8.04734,-8.40091 -13.40579,-34.97068 -30.02599,-46.84506 9.20585,9.48477 11.76901,22.08778 26.42736,52.86284 2.58466,5.42721 20.21399,22.75508 4.42292,34.29574 -28.63533,20.92758 -51.62689,10.96087 -70.66839,9.26925 z"
         id="path20177"
         inkscape:connector-curvature="0"
         style="clip-rule:evenodd;fill:#f7b5b5;fill-rule:evenodd;stroke-width:5.37349;stroke-linecap:round;stroke-linejoin:round" /><path
         d="m 238.36585,488.48939 30.28068,18.5192 c 4.89901,2.99625 16.19947,-17.26232 10.44339,-29.67028 -5.75555,-12.40791 -37.08408,-4.26222 -37.08408,-4.26222 -3.54328,3.8216 -6.08494,13.91841 -3.63999,15.4133 z"
         id="path20179"
         inkscape:connector-curvature="0"
         style="clip-rule:evenodd;fill:#ff9197;fill-rule:evenodd;stroke-width:5.37349;stroke-linecap:round;stroke-linejoin:round" /><g
         transform="matrix(5.3734908,0,0,5.3734908,-26.42527,310.36085)"
         id="g20203"
         style="clip-rule:evenodd;fill-rule:evenodd;stroke-linecap:round;stroke-linejoin:round">
<path
   d="m 22.7695,32.4434 c 0.1314,-0.0891 4.2267,-3.4277 7.9144,-3.4959 2.5016,-0.0465 4.5994,-0.3124 7.6362,0.9437 3.0367,1.2562 6.4571,3.7171 6.5462,3.7716 0.089,0.0543 0.1481,0.3639 0.0838,0.502 -0.0644,0.138 -0.2724,0.0966 -0.3472,0.0472 -0.0748,-0.0495 -3.8006,-2.2594 -6.3786,-3.3257 -2.578,-1.0663 -4.7908,-0.9411 -7.6361,-0.9436 -3.6884,-0.0043 -7.4166,3.0588 -7.5356,3.0801 -0.1191,0.025 -0.4032,0.1066 -0.4765,-0.0653 -0.0611,-0.1426 0.062,-0.4254 0.1934,-0.5143 z"
   id="path20181"
   inkscape:connector-curvature="0"
   style="opacity:1;fill:#b06264" />
<path
   d="m 28.8325,24.8447 c 0.0222,1.7753 -1.3759,3.233 -3.1227,3.2556 -1.7468,0.0227 -3.1808,-1.3981 -3.203,-3.1735 -0.0222,-1.7754 1.3759,-3.2331 3.1227,-3.2557 1.7468,-0.0227 3.1808,1.3982 3.203,3.1736 z"
   id="path20183"
   inkscape:connector-curvature="0"
   style="opacity:1;fill:#fffefe" />
<path
   d="m 25.8134,27.4255 c -1.3637,0.0833 -2.5359,-0.972 -2.6189,-2.3579 -0.0831,-1.3859 0.9545,-2.5782 2.318,-2.6638 1.3636,-0.0855 2.5374,0.9678 2.6229,2.3577 0.0811,1.39 -0.9583,2.5806 -2.322,2.664 z"
   id="path20185"
   inkscape:connector-curvature="0"
   style="opacity:1;fill:#000000" />
<path
   d="m 26.0845,23.2887 c 0.2379,-0.3261 1.1029,-0.0366 1.406,0.5056 0.303,0.542 0.3003,1.3748 -0.2018,1.5429 -0.5022,0.1679 -0.4655,-0.4863 -0.7287,-0.9474 -0.2632,-0.4612 -0.7136,-0.775 -0.4756,-1.101 z"
   id="path20187"
   inkscape:connector-curvature="0"
   style="opacity:1;fill:#ffffff" />
<path
   d="m 26.8818,25.8754 c 0.0177,-0.2147 0.1757,-0.3803 0.3529,-0.3699 0.1771,0.0105 0.3064,0.1931 0.2887,0.4078 -0.0178,0.2148 -0.1757,0.3804 -0.3529,0.37 -0.1772,-0.0105 -0.3064,-0.1931 -0.2887,-0.4079 z"
   id="path20189"
   inkscape:connector-curvature="0"
   style="opacity:1;fill:#ffffff" />
<path
   d="m 35.9849,24.5963 c 0.1438,2.2631 -1.6697,4.2221 -4.0517,4.3769 -2.3821,0.1548 -4.4316,-1.5532 -4.5792,-3.816 -0.1475,-2.2629 1.6627,-4.2246 4.0445,-4.383 2.3818,-0.1585 4.4342,1.5464 4.5856,3.809"
   id="path20191"
   inkscape:connector-curvature="0"
   style="opacity:1;fill:#ffc7c7" />
<path
   d="m 35.6249,26.0482 c -0.5068,1.5089 -1.9435,2.6481 -3.703,2.762 -2.2873,0.1485 -4.2551,-1.4919 -4.3964,-3.6647 -0.0644,-0.9912 0.2624,-1.9223 0.8541,-2.6561 0,0 0.3726,-0.4207 0.1472,-0.5995 -0.2253,-0.1788 -0.5462,0.3226 -0.5462,0.3226 -0.6585,0.8206 -1.0219,1.86 -0.9497,2.9665 0.1591,2.4317 2.3617,4.267 4.9216,4.1008 1.972,-0.1279 3.5817,-1.4063 4.1469,-3.0986 0,0 0.1326,-0.3467 -0.1,-0.4299 -0.2327,-0.0832 -0.3746,0.2969 -0.3745,0.2969 z"
   id="path20193"
   inkscape:connector-curvature="0"
   style="opacity:1;fill:#b06264" />
<path
   d="m 42.6266,24.8135 c 0.0222,1.7754 -1.3759,3.2331 -3.1227,3.2557 -1.7468,0.0227 -3.1808,-1.3981 -3.203,-3.1735 -0.0222,-1.7754 1.3759,-3.2331 3.1227,-3.2557 1.7468,-0.0227 3.1808,1.3982 3.203,3.1735 z"
   id="path20195"
   inkscape:connector-curvature="0"
   style="opacity:1;fill:#fffefe" />
<path
   d="m 39.6074,27.3944 c -1.3636,0.0833 -2.5358,-0.972 -2.6189,-2.3579 -0.083,-1.3859 0.9545,-2.5782 2.3181,-2.6638 1.3635,-0.0856 2.5374,0.9678 2.6228,2.3577 0.0811,1.39 -0.9583,2.5806 -2.322,2.664 z"
   id="path20197"
   inkscape:connector-curvature="0"
   style="opacity:1;fill:#000000" />
<path
   d="m 39.8785,23.2576 c 0.238,-0.3261 1.103,-0.0366 1.406,0.5056 0.303,0.542 0.3004,1.3748 -0.2018,1.5429 -0.5022,0.1679 -0.4654,-0.4863 -0.7286,-0.9474 -0.2633,-0.4612 -0.7136,-0.775 -0.4756,-1.101 z"
   id="path20199"
   inkscape:connector-curvature="0"
   style="opacity:1;fill:#ffffff" />
<path
   d="m 40.6759,25.8443 c 0.0177,-0.2147 0.1757,-0.3804 0.3528,-0.3699 0.1772,0.0105 0.3064,0.193 0.2887,0.4078 -0.0177,0.2148 -0.1757,0.3804 -0.3528,0.3699 -0.1772,-0.0104 -0.3064,-0.193 -0.2887,-0.4078 z"
   id="path20201"
   inkscape:connector-curvature="0"
   style="opacity:1;fill:#ffffff" />
</g><path
         style="clip-rule:evenodd;fill:#ff6188;fill-opacity:1;fill-rule:evenodd;stroke-width:5.37349;stroke-linecap:round;stroke-linejoin:round"
         inkscape:connector-curvature="0"
         id="path20209"
         d="m 278.65144,410.63935 -41.9358,31.8003 c -0.99303,2.65558 -1.04784,5.06182 2.75714,6.44335 l 51.55166,-16.41437 c -4.5046,-5.60187 -8.44175,-8.81149 -12.373,-21.82928 z" /><path
         style="clip-rule:evenodd;fill:#c04664;fill-opacity:1;fill-rule:evenodd;stroke-width:5.37349;stroke-linecap:round;stroke-linejoin:round"
         inkscape:connector-curvature="0"
         id="path20211"
         d="m 278.65144,410.63935 c 11.58256,4.53627 13.22738,12.81951 12.373,21.82928 -11.79697,-6.73892 -13.30047,-11.86467 -12.373,-21.82928 z" /><path
         style="clip-rule:evenodd;fill:#ff6188;fill-opacity:1;fill-rule:evenodd;stroke-width:5.37349;stroke-linecap:round;stroke-linejoin:round"
         inkscape:connector-curvature="0"
         id="path20213"
         d="m 159.00852,391.51832 c 2.30791,3.37564 5.38584,6.17575 11.81093,7.93769 8.30096,2.27625 18.61807,3.08491 27.28336,2.11341 6.39714,-0.71683 10.15052,-2.80013 13.27198,-5.58305 0,0 -3.96133,-24.14415 -21.28009,-27.31561 -0.2386,-0.0441 -0.4847,-0.0539 -0.73134,-0.0765 -0.27297,-0.0245 -0.54702,-0.10885 -0.81246,-0.0623 -6.15211,1.08223 -29.54238,22.98564 -29.54238,22.98618 z" /><path
         style="clip-rule:evenodd;fill:#78dce8;fill-opacity:1;fill-rule:evenodd;stroke-width:5.37349;stroke-linecap:round;stroke-linejoin:round"
         inkscape:connector-curvature="0"
         id="path20215"
         d="m 197.93408,401.58825 c 6.46861,-0.70609 12.03501,-2.3982 15.18388,-5.20534 0,0 -1.70233,-25.77875 -23.7546,-27.78845 5.19294,2.71471 8.87379,21.67986 8.57072,32.99379 z" /><path
         style="clip-rule:evenodd;fill:#ffd866;fill-opacity:1;fill-rule:evenodd;stroke-width:5.37349;stroke-linecap:round;stroke-linejoin:round"
         inkscape:connector-curvature="0"
         id="path20217"
         d="m 156.86933,391.67684 c 2.3149,3.38584 7.55674,6.03333 14.00869,7.7953 1.5841,-11.29936 9.49819,-28.47679 18.48534,-30.87768 -22.05173,-2.0097 -32.49403,23.08238 -32.49403,23.08238 z" /><path
         style="clip-rule:evenodd;fill:none;fill-rule:evenodd;stroke:#000000;stroke-width:1.1544;stroke-linecap:round;stroke-linejoin:round"
         inkscape:connector-curvature="0"
         id="path20219"
         d="m 189.52456,365.88623 -0.18377,2.62492" /><path
         style="clip-rule:evenodd;fill:#ff6188;fill-opacity:1;fill-rule:evenodd;stroke-width:5.37349;stroke-linecap:round;stroke-linejoin:round"
         inkscape:connector-curvature="0"
         id="path20221"
         d="m 189.65461,366.23873 c 0.0559,-1.40409 2.82538,-2.43458 6.18596,-2.30116 3.36004,0.13337 6.03927,1.38015 5.98338,2.78478 -0.0559,1.40408 -2.82484,2.43473 -6.18542,2.30091 -3.36058,-0.13337 -6.03927,-1.37991 -5.98392,-2.78453 z" /><path
         style="clip-rule:evenodd;fill:#78dce8;fill-opacity:1;fill-rule:evenodd;stroke-width:5.37349;stroke-linecap:round;stroke-linejoin:round"
         inkscape:connector-curvature="0"
         id="path20223"
         d="m 177.13007,365.25589 c 0.0973,-1.40192 2.89578,-2.34975 6.251,-2.11688 3.35465,0.23291 5.99572,1.55859 5.89847,2.96056 -0.0978,1.40192 -2.89632,2.3498 -6.25098,2.11713 -3.35521,-0.23291 -5.99629,-1.55829 -5.89849,-2.96081 z" /><path
         d="m 250.07307,495.64955 18.57346,11.35904 c 4.89901,2.99625 16.19947,-17.26232 10.44339,-29.67028 0.18,6.10001 -2.85064,26.20599 -11.41115,25.66004 -5.12147,-0.32705 -17.6057,-7.3488 -17.6057,-7.3488 z"
         id="path20225"
         inkscape:connector-curvature="0"
         style="clip-rule:evenodd;fill:#d37075;fill-rule:evenodd;stroke-width:5.37349;stroke-linecap:round;stroke-linejoin:round" /><path
         d="m 341.34793,325.98397 c -3.54124,22.83162 -3.9188,45.15991 10.21808,65.17994 -14.52259,11.00383 -24.96775,27.90937 -29.75271,53.00625 -15.62853,-2.42829 -30.71723,-0.39275 -43.85922,17.72609 8.78172,-22.55365 25.19482,-18.97919 36.80573,-28.4333 5.21646,-4.24775 6.70448,-12.27631 11.61772,-22.80941 4.60593,-9.87488 13.30924,-15.70349 14.37573,-22.02326 2.60303,-15.42727 -8.83883,-29.52709 0.59467,-62.64631 z"
         id="path20227"
         inkscape:connector-curvature="0"
         style="clip-rule:evenodd;fill:#ca6c71;fill-rule:evenodd;stroke-width:4.93511;stroke-linecap:round;stroke-linejoin:round" /></g><g
       style="clip-rule:evenodd;fill-rule:evenodd;stroke-linecap:round;stroke-linejoin:round"
       id="g20062"
       transform="matrix(0.60757006,0,0,0.60757006,-0.94134183,114.93024)"><path
         style="opacity:1;fill:#2e2f28;fill-opacity:1;stroke-width:7.85303"
         inkscape:connector-curvature="0"
         id="path1240"
         d="m 547.2927,299.6767 c 0,25.37 -120.81417,45.93631 -269.84664,45.93631 -149.03168,0 -269.8457563,-20.56631 -269.8457563,-45.93631 0,-25.36921 120.8140763,-45.93552 269.8457563,-45.93552 149.03247,0 269.84664,20.56631 269.84664,45.93552" /><g
         id="g2556"
         transform="matrix(1.0276901,0,0,1.0276901,1.4783783,-16.69593)"><path
           d="M 127.57534,287.94086 87.836584,304.3705 c -6.430344,2.65746 -17.538876,-26.54504 -8.877006,-40.22329 8.660147,-13.67739 46.373062,1.75216 46.373062,1.75216 3.90451,5.18936 5.45185,20.71449 2.2427,22.04149 z"
           id="path1242"
           inkscape:connector-curvature="0"
           style="opacity:1;fill:#ff9197;stroke-width:8.60593" /><path
           d="m 363.08068,193.37673 c 65.89255,-39.89112 116.76251,-94.737558 157.55035,-159.619457 -5.67148,36.566067 -6.27617,72.326017 16.3648,104.389167 -23.2587,17.62322 -39.98718,44.69835 -47.65056,84.89235 -25.02992,-3.88904 -49.19529,-0.62901 -70.24289,28.38927 -9.4883,-21.63448 -21.73939,-33.7499 -40.78568,-22.45206 l -15.05963,1.23411 -6.8235,-31.55105 z"
           id="path1244"
           inkscape:connector-curvature="0"
           style="opacity:1;fill:#d97f84;stroke-width:7.90385" /><path
           d="M 119.69517,182.7671 C 74.371865,151.81502 39.381161,109.25865 11.325529,58.915145 c 3.900788,28.372294 4.317026,56.119805 -11.2564645,80.997875 15.9980675,13.67395 27.5047445,34.6819 32.7760545,65.86982 17.216934,-3.01815 33.83797,-0.48924 48.316138,22.02775 6.525881,-16.78679 14.952902,-26.18702 28.054023,-17.421 l 10.35867,0.95697 4.69297,-24.48042 z"
           id="path1246"
           inkscape:connector-curvature="0"
           style="opacity:1;fill:#d97f84;stroke-width:7.90385" /><path
           d="m 0.0690645,139.91302 c 15.9980675,13.67395 27.5047445,34.6819 32.7760545,65.86982 17.216934,-3.01815 33.83797,-0.48924 48.316138,22.02775 6.525881,-16.78679 14.952902,-26.18702 28.054023,-17.421 l 10.35867,0.95697 c 0,0 -22.260601,-15.8014 -37.309325,0.15313 C 77.838066,216.1925 67.859775,203.81542 62.16796,200.6717 52.729757,195.45823 39.632467,198.30676 33.909151,187.59153 22.767095,166.73246 8.9410032,142.82172 0.0690645,139.91296 Z"
           id="path1248"
           inkscape:connector-curvature="0"
           style="opacity:1;fill:#ca6c71;stroke-width:7.90385" /><path
           d="m 100.90815,285.50023 c 16.22132,42.14761 65.14776,19.25578 76.12463,18.05443 8.87788,-0.96994 23.16459,7.18253 42.96856,7.82625 19.80312,0.6408 38.61482,-4.33402 55.6322,-1.89337 17.01824,2.44151 35.4401,25.23861 89.12735,9.23939 45.58906,-13.75748 72.29241,-36.90915 22.73171,-88.64885 -12.88824,-13.45451 -21.47009,-56.00742 -48.08823,-75.02488 -30.31355,-21.65936 -85.30374,-29.25582 -110.58194,-29.25582 -21.47784,0 -40.88162,19.28075 -61.2992,32.9934 -15.80997,10.61714 -33.97709,15.27297 -43.14413,21.61728 -52.213915,36.13713 -35.039061,75.03594 -23.47095,105.09217 z"
           id="path1250"
           inkscape:connector-curvature="0"
           style="opacity:1;fill:#ffc7c7;stroke-width:8.60593" /><path
           d="m 275.63354,309.48754 c 17.01824,2.44151 35.4401,25.23861 89.12735,9.23939 45.58906,-13.75748 72.29241,-36.90915 22.73171,-88.64885 -12.88824,-13.45451 -21.47009,-56.00742 -48.08823,-75.02488 14.74367,15.19037 18.84871,35.37477 42.32483,84.66267 4.13947,8.69197 32.3738,36.44348 7.08355,54.92646 -45.86102,33.51665 -82.68323,17.55442 -113.17921,14.84521 z"
           id="path1252"
           inkscape:connector-curvature="0"
           style="opacity:1;fill:#f7b5b5;stroke-width:8.60593" /><path
           d="m 355.69971,294.0184 48.49614,29.65949 c 7.84603,4.79866 25.94431,-27.64652 16.72564,-47.51854 -9.21781,-19.87193 -59.39213,-6.82617 -59.39213,-6.82617 -5.67475,6.1205 -9.74536,22.29107 -5.82965,24.68522 z"
           id="path1254"
           inkscape:connector-curvature="0"
           style="opacity:1;fill:#ff9197;stroke-width:8.60593" /><g
           transform="matrix(8.6059332,0,0,8.6059332,-68.377437,8.7360121)"
           id="g1278"
           style="opacity:1">
<path
   d="m 22.7695,32.4434 c 0.1314,-0.0891 4.2267,-3.4277 7.9144,-3.4959 2.5016,-0.0465 4.5994,-0.3124 7.6362,0.9437 3.0367,1.2562 6.4571,3.7171 6.5462,3.7716 0.089,0.0543 0.1481,0.3639 0.0838,0.502 -0.0644,0.138 -0.2724,0.0966 -0.3472,0.0472 -0.0748,-0.0495 -3.8006,-2.2594 -6.3786,-3.3257 -2.578,-1.0663 -4.7908,-0.9411 -7.6361,-0.9436 -3.6884,-0.0043 -7.4166,3.0588 -7.5356,3.0801 -0.1191,0.025 -0.4032,0.1066 -0.4765,-0.0653 -0.0611,-0.1426 0.062,-0.4254 0.1934,-0.5143 z"
   id="path1256"
   inkscape:connector-curvature="0"
   style="opacity:1;fill:#b06264" />
<path
   d="m 28.8325,24.8447 c 0.0222,1.7753 -1.3759,3.233 -3.1227,3.2556 -1.7468,0.0227 -3.1808,-1.3981 -3.203,-3.1735 -0.0222,-1.7754 1.3759,-3.2331 3.1227,-3.2557 1.7468,-0.0227 3.1808,1.3982 3.203,3.1736 z"
   id="path1258"
   inkscape:connector-curvature="0"
   style="opacity:1;fill:#fffefe" />
<path
   d="m 25.8134,27.4255 c -1.3637,0.0833 -2.5359,-0.972 -2.6189,-2.3579 -0.0831,-1.3859 0.9545,-2.5782 2.318,-2.6638 1.3636,-0.0855 2.5374,0.9678 2.6229,2.3577 0.0811,1.39 -0.9583,2.5806 -2.322,2.664 z"
   id="path1260"
   inkscape:connector-curvature="0"
   style="opacity:1;fill:#000000" />
<path
   d="m 26.0845,23.2887 c 0.2379,-0.3261 1.1029,-0.0366 1.406,0.5056 0.303,0.542 0.3003,1.3748 -0.2018,1.5429 -0.5022,0.1679 -0.4655,-0.4863 -0.7287,-0.9474 -0.2632,-0.4612 -0.7136,-0.775 -0.4756,-1.101 z"
   id="path1262"
   inkscape:connector-curvature="0"
   style="opacity:1;fill:#ffffff" />
<path
   d="m 26.8818,25.8754 c 0.0177,-0.2147 0.1757,-0.3803 0.3529,-0.3699 0.1771,0.0105 0.3064,0.1931 0.2887,0.4078 -0.0178,0.2148 -0.1757,0.3804 -0.3529,0.37 -0.1772,-0.0105 -0.3064,-0.1931 -0.2887,-0.4079 z"
   id="path1264"
   inkscape:connector-curvature="0"
   style="opacity:1;fill:#ffffff" />
<path
   d="m 35.9849,24.5963 c 0.1438,2.2631 -1.6697,4.2221 -4.0517,4.3769 -2.3821,0.1548 -4.4316,-1.5532 -4.5792,-3.816 -0.1475,-2.2629 1.6627,-4.2246 4.0445,-4.383 2.3818,-0.1585 4.4342,1.5464 4.5856,3.809"
   id="path1266"
   inkscape:connector-curvature="0"
   style="opacity:1;fill:#ffc7c7" />
<path
   d="m 35.6249,26.0482 c -0.5068,1.5089 -1.9435,2.6481 -3.703,2.762 -2.2873,0.1485 -4.2551,-1.4919 -4.3964,-3.6647 -0.0644,-0.9912 0.2624,-1.9223 0.8541,-2.6561 0,0 0.3726,-0.4207 0.1472,-0.5995 -0.2253,-0.1788 -0.5462,0.3226 -0.5462,0.3226 -0.6585,0.8206 -1.0219,1.86 -0.9497,2.9665 0.1591,2.4317 2.3617,4.267 4.9216,4.1008 1.972,-0.1279 3.5817,-1.4063 4.1469,-3.0986 0,0 0.1326,-0.3467 -0.1,-0.4299 -0.2327,-0.0832 -0.3746,0.2969 -0.3745,0.2969 z"
   id="path1268"
   inkscape:connector-curvature="0"
   style="opacity:1;fill:#b06264" />
<path
   d="m 42.6266,24.8135 c 0.0222,1.7754 -1.3759,3.2331 -3.1227,3.2557 -1.7468,0.0227 -3.1808,-1.3981 -3.203,-3.1735 -0.0222,-1.7754 1.3759,-3.2331 3.1227,-3.2557 1.7468,-0.0227 3.1808,1.3982 3.203,3.1735 z"
   id="path1270"
   inkscape:connector-curvature="0"
   style="opacity:1;fill:#fffefe" />
<path
   d="m 39.6074,27.3944 c -1.3636,0.0833 -2.5358,-0.972 -2.6189,-2.3579 -0.083,-1.3859 0.9545,-2.5782 2.3181,-2.6638 1.3635,-0.0856 2.5374,0.9678 2.6228,2.3577 0.0811,1.39 -0.9583,2.5806 -2.322,2.664 z"
   id="path1272"
   inkscape:connector-curvature="0"
   style="opacity:1;fill:#000000" />
<path
   d="m 39.8785,23.2576 c 0.238,-0.3261 1.103,-0.0366 1.406,0.5056 0.303,0.542 0.3004,1.3748 -0.2018,1.5429 -0.5022,0.1679 -0.4654,-0.4863 -0.7286,-0.9474 -0.2633,-0.4612 -0.7136,-0.775 -0.4756,-1.101 z"
   id="path1274"
   inkscape:connector-curvature="0"
   style="opacity:1;fill:#ffffff" />
<path
   d="m 40.6759,25.8443 c 0.0177,-0.2147 0.1757,-0.3804 0.3528,-0.3699 0.1772,0.0105 0.3064,0.193 0.2887,0.4078 -0.0177,0.2148 -0.1757,0.3804 -0.3528,0.3699 -0.1772,-0.0104 -0.3064,-0.193 -0.2887,-0.4078 z"
   id="path1276"
   inkscape:connector-curvature="0"
   style="opacity:1;fill:#ffffff" />
</g><path
           d="m 118.35753,100.01658 c 0.5981,2.161 52.70789,66.5531 52.70789,66.5531"
           id="path1280"
           inkscape:connector-curvature="0"
           style="opacity:1;fill:none;stroke:#572100;stroke-width:5.76548;stroke-linecap:round;stroke-linejoin:round" /><path
           d="m 116.75941,99.700728 -14.9244,70.542842 43.9109,-33.6965 z"
           id="path1282"
           inkscape:connector-curvature="0"
           style="opacity:1;fill:#78dce8;fill-opacity:1;stroke-width:8.60593" /><path
           style="opacity:1;fill:#ff6188;fill-opacity:1;stroke-width:8.60593"
           inkscape:connector-curvature="0"
           id="path1284"
           d="m 420.21924,169.3374 -67.16242,50.92988 c -1.59039,4.25305 -1.67817,8.10678 4.4157,10.31937 l 82.56275,-26.2885 c -7.21436,-8.97169 -13.51992,-14.11206 -19.81603,-34.96075 z" /><path
           style="opacity:1;fill:#c04664;fill-opacity:1;stroke-width:8.60593"
           inkscape:connector-curvature="0"
           id="path1286"
           d="m 420.21924,169.3374 c 18.55009,7.26508 21.18437,20.53113 19.81603,34.96075 -18.89348,-10.79274 -21.30142,-19.00189 -19.81603,-34.96075 z" /><path
           style="opacity:1;fill:#ff6188;fill-opacity:1;stroke-width:8.60593"
           inkscape:connector-curvature="0"
           id="path1290"
           d="m 228.6047,138.71404 c 3.69624,5.40627 8.62572,9.8908 18.91584,12.71264 13.29444,3.64554 29.81783,4.94065 43.69576,3.38473 10.24536,-1.14803 16.25661,-4.48455 21.25579,-8.94154 0,0 -6.34429,-38.66816 -34.08121,-43.74742 -0.38212,-0.0707 -0.77627,-0.0864 -1.17128,-0.12251 -0.43717,-0.0393 -0.87607,-0.17434 -1.3012,-0.0997 -9.85293,1.73324 -47.3137,36.81273 -47.3137,36.81359 z" /><path
           style="opacity:1;fill:#78dce8;fill-opacity:1;stroke-width:8.60593"
           inkscape:connector-curvature="0"
           id="path1292"
           d="m 290.94607,154.84157 c 10.35982,-1.13084 19.27472,-3.84084 24.3178,-8.33662 0,0 -2.72637,-41.28605 -38.04427,-44.5047 8.31678,4.34776 14.21185,34.72146 13.72647,52.84132 z" /><path
           style="opacity:1;fill:#ffd866;fill-opacity:1;stroke-width:8.60593"
           inkscape:connector-curvature="0"
           id="path1294"
           d="m 225.17867,138.96792 c 3.70744,5.4226 12.10253,9.6627 22.43568,12.48459 2.53702,-18.09653 15.21185,-45.6071 29.60525,-49.45226 -35.31702,-3.218638 -52.04093,36.96767 -52.04093,36.96767 z" /><path
           style="opacity:1;fill:none;stroke:#000000;stroke-width:1.84883;stroke-linecap:round;stroke-linejoin:round"
           inkscape:connector-curvature="0"
           id="path1296"
           d="m 277.47778,97.662871 -0.29433,4.203959" /><path
           style="opacity:1;fill:#ff6188;fill-opacity:1;stroke-width:8.60593"
           inkscape:connector-curvature="0"
           id="path1298"
           d="m 277.68605,98.22742 c 0.0895,-2.248715 4.52501,-3.899106 9.90716,-3.685424 5.38128,0.213598 9.6722,2.210389 9.58269,4.459969 -0.0895,2.248715 -4.52412,3.899355 -9.90627,3.685035 -5.38215,-0.2136 -9.67222,-2.21 -9.58358,-4.45958 z" /><path
           style="opacity:1;fill:#78dce8;fill-opacity:1;stroke-width:8.60593"
           inkscape:connector-curvature="0"
           id="path1300"
           d="m 257.62734,96.653357 c 0.15581,-2.245258 4.63774,-3.763248 10.0113,-3.390303 5.37266,0.373019 9.60248,2.496163 9.44672,4.741495 -0.15659,2.245261 -4.63861,3.763331 -10.01128,3.390701 -5.37354,-0.37302 -9.60337,-2.495685 -9.44674,-4.741893 z" /><path
           d="m 374.44945,305.48579 29.7464,18.1921 c 7.84603,4.79866 25.94431,-27.64652 16.72564,-47.51854 0.28828,9.76949 -4.56545,41.97029 -18.27557,41.09593 -8.2023,-0.52379 -28.19647,-11.76949 -28.19647,-11.76949 z"
           id="path1304"
           inkscape:connector-curvature="0"
           style="opacity:1;fill:#d37075;stroke-width:8.60593" /><path
           d="m 520.63103,33.757273 c -5.67148,36.566067 -6.27617,72.326017 16.3648,104.389167 -23.2587,17.62322 -39.98718,44.69835 -47.65056,84.89235 -25.02992,-3.88904 -49.19529,-0.62901 -70.24289,28.38927 14.0644,-36.12088 40.35086,-30.39618 58.94636,-45.53745 8.35443,-6.803 10.73758,-19.66116 18.60639,-36.53049 7.37664,-15.81515 21.31547,-25.14997 23.02351,-35.27143 4.16888,-24.7076 -14.15586,-47.289219 0.95239,-100.331417 z"
           id="path1306"
           inkscape:connector-curvature="0"
           style="opacity:1;fill:#ca6c71;stroke-width:7.90385" /></g></g></g></svg>
