<?xml version="1.0" encoding="UTF-8" standalone="no"?>
<svg
   style="clip-rule:evenodd;fill-rule:evenodd;stroke-linecap:round;stroke-linejoin:round"
   xml:space="preserve"
   version="1.1"
   viewBox="0 0 549.99999 469.99999"
   id="svg1279"
   sodipodi:docname="logo.svg"
   inkscape:version="1.2.2 (b0a84865, 2022-12-01)"
   width="550"
   height="470"
   xmlns:inkscape="http://www.inkscape.org/namespaces/inkscape"
   xmlns:sodipodi="http://sodipodi.sourceforge.net/DTD/sodipodi-0.dtd"
   xmlns="http://www.w3.org/2000/svg"
   xmlns:svg="http://www.w3.org/2000/svg"
   xmlns:rdf="http://www.w3.org/1999/02/22-rdf-syntax-ns#"
   xmlns:cc="http://creativecommons.org/ns#"
   xmlns:dc="http://purl.org/dc/elements/1.1/"
   xmlns:vectornator="http://vectornator.io"><sodipodi:namedview
   pagecolor="#ffffff"
   bordercolor="#666666"
   borderopacity="1"
   objecttolerance="10"
   gridtolerance="10"
   guidetolerance="10"
   inkscape:pageopacity="0"
   inkscape:pageshadow="2"
   inkscape:window-width="1920"
   inkscape:window-height="1027"
   id="namedview1281"
   showgrid="false"
   inkscape:zoom="0.66267992"
   inkscape:cx="248.23447"
   inkscape:cy="355.37518"
   inkscape:window-x="1512"
   inkscape:window-y="25"
   inkscape:window-maximized="1"
   inkscape:current-layer="svg1279"
   inkscape:document-rotation="0"
   inkscape:pagecheckerboard="0"
   inkscape:snap-nodes="false"
   showguides="false"
   height="400px"
   inkscape:showpageshadow="0"
   inkscape:deskcolor="#d1d1d1" />
<metadata
   id="metadata1190">
<vectornator:setting
   key="DynamicGuides"
   value="1" />
<vectornator:setting
   key="CMYKEnabledKey"
   value="0" />
<vectornator:setting
   key="Units"
   value="Points" />
<vectornator:setting
   key="GridSpacing"
   value="36" />
<vectornator:setting
   key="SnapToGuides"
   value="1" />
<vectornator:setting
   key="RulersVisible"
   value="1" />
<rdf:RDF><cc:Work
     rdf:about=""><dc:format>image/svg+xml</dc:format><dc:type
       rdf:resource="http://purl.org/dc/dcmitype/StillImage" /></cc:Work></rdf:RDF></metadata>
<defs
   id="defs1202" />



<style
   type="text/css"
   id="style2">
	.st0{fill-rule:evenodd;clip-rule:evenodd;fill:#F18F97;}
	.st1{fill-rule:evenodd;clip-rule:evenodd;fill:#EF7B88;}
	.st2{fill-rule:evenodd;clip-rule:evenodd;fill:#F8C6C8;}
	.st3{fill:#B16365;}
	.st4{fill:#FFFFFF;}
	.st5{fill:#020203;}
	.st6{fill:#F8C6C8;}
	.st7{fill:#183051;}
	.st8{fill:url(#SVGID_1_);}
	.st9{fill:#3D3D3B;}
	.st10{fill:#422A19;}
	.st11{fill:#754E24;}
	.st12{fill:#DADADA;}
</style><style
   id="style2647">svg {enable-background:new 0 0 288 288}</style><style
   id="style2649">.st3{fill:#375c93}.st4{fill:#8dc63f}</style><g
   id="g12092"
   style="fill:#000000;fill-opacity:1"
   transform="matrix(1.0990844,0,0,1.0990844,-532.8861,-307.05714)" /><g
   id="g7950"
   transform="matrix(1.2194847,0,0,1.2194847,157.335,605.29001)"><path
     id="path7883"
     style="clip-rule:evenodd;fill:#000000;fill-opacity:1;fill-rule:evenodd;stroke:none;stroke-width:1.78769px;stroke-linecap:butt;stroke-linejoin:miter;stroke-opacity:1"
     d="m -119.49929,-399.32598 c -0.58979,0.0573 -1.05642,0.23556 -1.38538,0.5438 -5.26337,4.93188 7.4408,21.75193 2.33899,31.25897 -5.10184,9.50705 -6.82885,23.6768 -2.57071,34.50131 3.7392,9.50539 10.07886,19.11887 22.108951,20.68918 0.682254,10.08872 0.416589,9.71751 -0.05398,18.63631 -0.470571,8.9188 2.281826,44.37977 7.136173,61.002 7.385159,25.28811 26.431169,74.22483 50.329922,67.64655 23.898757,-6.57829 14.57682,-57.75177 7.127618,-83.12101 -4.941411,-16.82864 -14.854205,-44.54362 -21.154368,-51.87706 0,0 -10.030624,-13.11877 -12.518555,-16.40629 -1.395757,-1.84434 -1.98074,-2.8768 -2.920231,-5.32054 0.191855,-1.72719 2.083884,-4.23847 3.766186,-6.37052 5.559951,-7.04648 11.845844,-12.19595 5.558336,-28.98888 -9.765027,-26.08083 -48.916112,-43.05308 -57.762952,-42.19382 z"
     sodipodi:nodetypes="ssssczssscsccss" /><path
     style="clip-rule:evenodd;fill:#000000;fill-opacity:1;fill-rule:evenodd;stroke:none;stroke-width:1.2361px;stroke-linecap:butt;stroke-linejoin:miter;stroke-opacity:1"
     d="m -34.224383,-261.5215 c 0,0 -55.901158,-1.86192 -65.002889,18.30179 -9.101728,20.1637 9.132535,48.43145 22.719457,51.74987 13.586918,3.31843 56.167551,-24.61274 56.167551,-24.61274 z"
     id="path7881"
     sodipodi:nodetypes="czzcc" /><path
     id="path7778"
     style="clip-rule:evenodd;fill:#000000;fill-opacity:1;fill-rule:evenodd;stroke:none;stroke-width:1.05357px;stroke-linecap:butt;stroke-linejoin:miter;stroke-opacity:1"
     d="m 25.582888,-457.01609 c -41.023906,0.0473 -79.84274,7.8325 -81.307911,42.71273 -0.7213,17.17167 0.59147,32.69718 10.061979,40.77313 0.06034,6.20045 -0.113124,11.0829 -0.928048,16.01108 -1.092845,2.16871 -7.564751,14.24347 -5.785987,18.7435 0.7045,1.78228 2.698676,5.26805 5.586791,5.4988 -7.197405,11.32921 -10.609362,19.57347 -13.144885,33.0305 -11.067207,58.73797 -6.622292,118.4688 32.070041,129.53542 38.692334,11.06662 51.084,-3.22296 68.620271,-1.80625 17.536252,1.4167 8.807961,3.57153 35.13152,5.57811 26.323581,2.00658 29.581071,-5.76069 65.397391,-1.05139 35.81631,4.7093 77.24519,33.83438 127.01878,5.45293 32.40268,-18.47639 23.73114,-62.18045 3.75588,-104.42458 4.4068,-2.09951 6.25463,-7.80099 8.50009,-12.17583 2.32797,-4.53562 0.11285,-17.78824 -0.60705,-22.22576 -4.59972,-28.35321 -1.90297,-46.63746 -47.71537,-97.63266 1.46617,-5.01141 7.09508,-10.97956 9.98833,-15.14916 0.25117,-0.36198 0.48188,-0.71021 0.68728,-1.04329 0.61624,-0.9992 1.00546,-1.86099 1.04741,-2.53514 0.16664,-2.67867 -7.84085,-12.97565 -13.35457,-16.63631 -5.51372,-3.66066 -17.31208,-9.08475 -19.15021,-8.65991 -3.11795,0.72063 -6.70138,17.30591 -7.33177,20.18037 -0.89841,-0.63899 -1.84306,-1.27188 -2.83147,-1.90136 -12.04422,-9.21995 -36.33786,-16.81863 -73.71813,-23.74556 -15.36647,-3.13908 -22.24282,-4.44674 -34.514656,-5.59502 -12.271836,-1.14828 -42.861363,-2.96273 -67.475706,-2.93435 z"
     sodipodi:nodetypes="ssccscsssssscsscssszscccss" /><path
     style="clip-rule:evenodd;fill:#ff9097;fill-opacity:1;fill-rule:evenodd;stroke:none;stroke-width:1px;stroke-linecap:butt;stroke-linejoin:miter;stroke-opacity:1"
     d="m -39.340137,-254.8095 c 0,0 -45.223667,-1.50628 -52.586907,14.80603 -7.36324,16.3123 7.38816,39.18072 18.37989,41.8653 10.991727,2.68459 45.439177,-19.91154 45.439177,-19.91154 z"
     id="path3402"
     sodipodi:nodetypes="czzcc" /><path
     style="clip-rule:evenodd;fill:#996554;fill-opacity:1;fill-rule:evenodd;stroke:none;stroke-width:1.61803px;stroke-linecap:butt;stroke-linejoin:miter;stroke-opacity:1"
     d="m -83.145864,-312.98785 c -15.02257,4.43024 -9.643617,52.6168 -2.959363,75.50498 6.684277,22.88816 19.837993,67.18074 41.468659,61.22676 21.630669,-5.95398 13.19245,-52.27017 6.450206,-75.23176 -6.742233,-22.96158 -29.936951,-65.93031 -44.959502,-61.49998 z"
     id="path5045"
     sodipodi:nodetypes="zzzzz" /><path
     style="clip-rule:evenodd;fill:#f7f2f1;fill-opacity:1;fill-rule:evenodd;stroke:none;stroke-width:1.61803px;stroke-linecap:butt;stroke-linejoin:miter;stroke-opacity:1"
     d="m -85.212686,-323.51787 c -7.132536,1.99359 -6.796757,9.80586 -5.758728,14.34487 1.038037,4.53902 -2.020371,13.6345 -2.020371,13.6345 l 27.217125,-8.47824 c 0,0 -6.601045,-8.35767 -8.15357,-11.75091 -1.552501,-3.39321 -4.151937,-9.74378 -11.284456,-7.75022 z"
     id="path5116"
     sodipodi:nodetypes="zzcczz" /><path
     style="clip-rule:evenodd;fill:#784230;fill-opacity:1;fill-rule:evenodd;stroke:none;stroke-width:1.77459px;stroke-linecap:butt;stroke-linejoin:miter;stroke-opacity:1"
     d="m -112.53976,-390.06924 c -4.76385,4.46382 5.85603,18.24526 1.2384,26.85004 -4.61764,8.6048 -7.20837,16.80161 -3.35435,26.59883 3.85401,9.79724 14.826977,23.87419 27.78693,21.87729 12.959952,-1.99686 5.708778,-6.45512 10.741088,-12.83284 5.03229,-6.37773 14.587341,-9.95805 9.970046,-25.51704 -4.617309,-15.55897 -41.618274,-41.44011 -46.382114,-36.97628 z"
     id="path6437"
     sodipodi:nodetypes="zzzzzzz" /><path
     style="clip-rule:evenodd;fill:#000000;fill-opacity:1;fill-rule:evenodd;stroke:none;stroke-width:1.20056px;stroke-linecap:butt;stroke-linejoin:miter;stroke-opacity:1"
     d="m 223.8859,-235.95693 c -0.78077,9.89841 20.98923,35.92974 30.8994,65.98186 9.91014,30.05214 59.76966,-13.59107 61.66592,-32.28545 1.89628,-18.69438 -55.48535,-62.06798 -55.48535,-62.06798 0,0 -36.29921,18.47318 -37.07997,28.37157 z"
     id="path7879"
     sodipodi:nodetypes="zzzcz" /><g
     id="g7877"><path
       style="clip-rule:evenodd;fill:#ffc8c9;fill-opacity:1;fill-rule:evenodd;stroke:none;stroke-width:1px;stroke-linecap:butt;stroke-linejoin:miter;stroke-opacity:1"
       d="m -51.204747,-300.43127 c 10.5045,-55.7515 66.66746,-94.9234 137.86901,-94.30001 71.201547,0.62338 110.581197,23.8062 142.046857,66.84558 31.46566,43.03938 78.8752,131.22297 31.63228,158.16142 -47.24291,26.93844 -86.5655,-2.69217 -120.56078,-7.16203 -33.99527,-4.46986 -37.08571,4.88873 -62.070887,2.98418 -24.98518,-1.90455 -19.16548,-6.41419 -35.81013,-7.75886 -16.64465,-1.34467 -25.94266,14.68179 -62.66773,4.17785 -36.72507,-10.50395 -40.94312,-67.19663 -30.43862,-122.94813 z"
       id="path2147"
       sodipodi:nodetypes="zzzzzzzzz" /><path
       id="path6544"
       style="clip-rule:evenodd;fill:#4794cc;fill-opacity:1;fill-rule:evenodd;stroke:none;stroke-width:1px;stroke-linecap:butt;stroke-linejoin:miter;stroke-opacity:1"
       d="m 29.964844,-449.23047 c -38.9381031,0.0449 -75.783155,7.43424 -77.173828,40.54102 -0.684631,16.29859 2.487571,27.18232 11.476562,34.84765 0.05729,5.88521 -0.107371,15.52747 -0.880859,20.20508 -1.037279,2.05846 -7.516454,10.77369 -5.828125,15.04492 3.420326,8.65296 38.0842878,-4.53685 61.740234,-13.19922 2.397494,-0.87791 4.795901,-1.62883 7.197266,-2.24609 30.400864,6.85543 65.767973,14.77705 77.304686,17.57617 14.89139,3.61306 34.72313,7.79534 56.10742,11.45703 9.89503,3.37257 19.46182,7.01812 27.26172,10.8125 15.97735,7.77243 18.85051,24.30654 35.88672,34.24219 30.27266,17.65525 42.81663,11.44385 48.91992,-0.44726 2.20961,-4.30501 0.10713,-16.88381 -0.57617,-21.09571 -4.36586,-26.91162 -4.58815,-47.84164 -48.07127,-96.24405 1.39162,-4.75661 6.73433,-10.42131 9.48047,-14.37891 0.2384,-0.34357 0.45737,-0.6741 0.65234,-0.99023 0.58491,-0.9484 0.95433,-1.76638 0.99414,-2.40625 0.15817,-2.54247 -8.09889,-11.2067 -9.89357,-12.21493 -2.86744,-2.1678 -6.44088,-3.85441 -8.18555,-3.45117 -2.95942,0.68398 -6.36064,16.42598 -6.95898,19.15429 -0.85273,-0.6065 -1.74935,-1.20721 -2.6875,-1.80468 -11.43185,-8.75117 -44.48122,-20.73191 -79.96094,-27.30665 -14.58518,-2.97948 -21.11253,-4.2213 -32.760413,-5.3112 -11.647886,-1.08989 -40.681412,-2.81144 -64.044273,-2.7845 z"
       sodipodi:nodetypes="ssccsscscsssscssscsccczs" /></g><path
     style="clip-rule:evenodd;fill:#b16165;fill-opacity:1;fill-rule:evenodd;stroke:none;stroke-width:1.67249px;stroke-linecap:butt;stroke-linejoin:miter;stroke-opacity:1"
     d="m 48.136657,-189.3339 c -6.929967,-4.44198 -22.229678,-22.03015 -22.085225,-26.95349 0.144503,-4.92333 19.50135,-20.84562 26.900566,-20.76534 7.39922,0.0803 11.23617,8.02298 17.72008,8.02298 6.48392,0 10.32087,-7.9427 17.72009,-8.02298 7.39921,-0.0803 26.756062,15.84201 26.900562,20.76534 0.1445,4.92334 -15.15525,22.51151 -22.085222,26.95349 -6.92997,4.44197 -22.53543,4.19455 -22.53543,4.19455 0,0 -15.605454,0.24742 -22.535421,-4.19455 z"
     id="path2187"
     sodipodi:nodetypes="zzzzzzzcz" /><path
     style="clip-rule:evenodd;fill:#ff9097;fill-opacity:1;fill-rule:evenodd;stroke:none;stroke-width:1px;stroke-linecap:butt;stroke-linejoin:miter;stroke-opacity:1"
     d="m 231.61966,-231.95779 c -0.65034,8.24486 17.48293,29.92759 25.73758,54.95944 8.25463,25.03186 49.785,-11.32065 51.36449,-26.89209 1.5795,-15.57144 -46.2164,-51.69938 -46.2164,-51.69938 0,0 -30.23534,15.38719 -30.88567,23.63203 z"
     id="path3887"
     sodipodi:nodetypes="zzzcz" /><path
     style="clip-rule:evenodd;fill:none;fill-rule:evenodd;stroke:#000000;stroke-width:13.3799;stroke-linecap:round;stroke-linejoin:miter;stroke-dasharray:none;stroke-opacity:1"
     d="m 81.759498,-232.62864 c 0,0 12.54095,-9.71944 24.142752,-10.21425 11.60181,-0.4948 28.48806,14.18129 41.32125,13.46423 12.83319,-0.71706 28.99909,-1.27347 30.64271,-13.92851 1.64362,-12.65504 -15.78564,-12.99994 -15.78564,-12.99994"
     id="path617"
     sodipodi:nodetypes="czzzc" /><path
     style="clip-rule:evenodd;fill:none;fill-rule:evenodd;stroke:#000000;stroke-width:12.3606;stroke-linecap:round;stroke-linejoin:miter;stroke-dasharray:none;stroke-opacity:1"
     d="m 61.932348,-232.24638 c 0,0 -10.313356,-10.08665 -19.854392,-10.60015 -9.541037,-0.51351 -23.427864,14.71706 -33.9815748,13.97291 -10.553695,-0.74416 -23.8481272,-1.32157 -25.1997982,-14.45474 -1.35167,-13.13315 12.9817112,-13.4911 12.9817112,-13.4911"
     id="path1269"
     sodipodi:nodetypes="czzzc" /><path
     id="path7627"
     style="clip-rule:evenodd;fill:#ffffff;fill-rule:evenodd;stroke-width:0.963816;stroke-linecap:round;stroke-linejoin:round"
     d="m -28.47739,-297.49947 c 0,5.60454 1.45218,10.92577 4.05941,15.71553 20.21038,13.10651 56.1123,11.30315 75.662765,9.34813 7.031013,-6.69083 11.293701,-15.46144 11.293701,-25.06366 0,-8.45561 -3.305458,-16.26637 -8.895939,-22.57997 -14.169267,-7.63365 -48.699377,-12.4184 -72.002677,-1.31809 -6.32723,6.529 -10.11726,14.84384 -10.11726,23.89806 z"
     sodipodi:nodetypes="sccsccs" /><path
     id="path7629"
     style="clip-rule:evenodd;fill:#000000;fill-rule:evenodd;stroke-width:0.915526;stroke-linecap:round;stroke-linejoin:round"
     d="m -9.98962,-299.50079 c 0,13.56279 12.09734,24.55759 27.02016,24.55759 14.92281,0 27.02015,-10.9948 27.02015,-24.55759 0,-10.22568 -6.87665,-18.99164 -16.65624,-22.68625 -3.19151,-1.20573 -6.69218,-1.87134 -10.36391,-1.87134 -3.73009,0 -7.28365,0.68695 -10.51587,1.92924 -9.69879,3.72769 -16.50429,12.4557 -16.50429,22.62835 z"
     sodipodi:nodetypes="sssssss" /><path
     id="path7631"
     style="clip-rule:evenodd;fill:#ffffff;fill-rule:evenodd;stroke-width:3.71879;stroke-linecap:round;stroke-linejoin:round"
     d="m 37.188891,-308.20624 c 4.05807,6.93733 1.50719,18.71073 -6.25324,18.0818 -5.96006,-0.48302 -3.487,-5.85414 -7.54506,-12.79148 -4.05806,-6.93731 -13.34739,-3.73351 -9.2353,-13.34696 3.7946,-8.87122 18.97559,1.11927 23.03368,8.05661 z"
     sodipodi:nodetypes="ssssss" /><path
     style="clip-rule:evenodd;fill:#ffc8c9;fill-opacity:1;fill-rule:evenodd;stroke:#d89497;stroke-width:12;stroke-linecap:round;stroke-linejoin:miter;stroke-dasharray:none;stroke-opacity:1"
     d="m 52.245743,-323.38548 c 0,0 -23.82241,43.1116 -2.54242,65.63581 21.27998,22.52422 42.78773,-0.6882 42.78773,-0.6882"
     id="path1121"
     sodipodi:nodetypes="czc" /><path
     id="path2642"
     style="clip-rule:evenodd;fill:#ffffff;fill-rule:evenodd;stroke-width:0.963816;stroke-linecap:round;stroke-linejoin:round"
     d="m 179.52928,-297.49947 c 0,5.60454 -1.45218,10.92577 -4.05941,15.71553 -20.21038,13.10651 -56.1123,11.30315 -75.662765,9.34813 -7.031013,-6.69083 -11.293701,-15.46144 -11.293701,-25.06366 0,-8.45561 3.305458,-16.26637 8.895939,-22.57997 14.169267,-7.63365 48.699377,-12.4184 72.002677,-1.31809 6.32723,6.529 10.11726,14.84384 10.11726,23.89806 z"
     sodipodi:nodetypes="sccsccs" /><path
     id="path3423"
     style="clip-rule:evenodd;fill:#000000;fill-rule:evenodd;stroke-width:0.915526;stroke-linecap:round;stroke-linejoin:round"
     d="m 161.04151,-299.50079 c 0,13.56279 -12.09734,24.55759 -27.02016,24.55759 -14.92281,0 -27.02015,-10.9948 -27.02015,-24.55759 0,-10.22568 6.87665,-18.99164 16.65624,-22.68625 3.19151,-1.20573 6.69218,-1.87134 10.36391,-1.87134 3.73009,0 7.28365,0.68695 10.51587,1.92924 9.69879,3.72769 16.50429,12.4557 16.50429,22.62835 z"
     sodipodi:nodetypes="sssssss" /><path
     id="path5302"
     style="clip-rule:evenodd;fill:#ffffff;fill-rule:evenodd;stroke-width:3.71879;stroke-linecap:round;stroke-linejoin:round"
     d="m 154.11663,-308.20624 c 4.05807,6.93733 1.50719,18.71073 -6.25324,18.0818 -5.96006,-0.48302 -3.487,-5.85414 -7.54506,-12.79148 -4.05806,-6.93731 -13.34739,-3.73351 -9.2353,-13.34696 3.7946,-8.87122 18.97559,1.11927 23.03368,8.05661 z"
     sodipodi:nodetypes="ssssss" /></g></svg>
