<?xml version="1.0" encoding="UTF-8" standalone="no"?>
<svg
   style="fill-rule:evenodd;clip-rule:evenodd;stroke-linecap:round;stroke-linejoin:round;"
   xml:space="preserve"
   version="1.1"
   viewBox="0 0 554.893 345.613"
   id="svg1279"
   sodipodi:docname="logo_hero.svg"
   inkscape:version="1.2.2 (b0a84865, 2022-12-01)"
   xmlns:inkscape="http://www.inkscape.org/namespaces/inkscape"
   xmlns:sodipodi="http://sodipodi.sourceforge.net/DTD/sodipodi-0.dtd"
   xmlns="http://www.w3.org/2000/svg"
   xmlns:svg="http://www.w3.org/2000/svg"
   xmlns:rdf="http://www.w3.org/1999/02/22-rdf-syntax-ns#"
   xmlns:cc="http://creativecommons.org/ns#"
   xmlns:dc="http://purl.org/dc/elements/1.1/"
   xmlns:vectornator="http://vectornator.io"><sodipodi:namedview
   pagecolor="#ffffff"
   bordercolor="#666666"
   borderopacity="1"
   objecttolerance="10"
   gridtolerance="10"
   guidetolerance="10"
   inkscape:pageopacity="0"
   inkscape:pageshadow="2"
   inkscape:window-width="1920"
   inkscape:window-height="1027"
   id="namedview1281"
   showgrid="false"
   inkscape:zoom="1.1127693"
   inkscape:cx="171.19451"
   inkscape:cy="154.12"
   inkscape:window-x="1512"
   inkscape:window-y="25"
   inkscape:window-maximized="1"
   inkscape:current-layer="svg1279"
   inkscape:document-rotation="0"
   inkscape:pagecheckerboard="0"
   inkscape:snap-nodes="false"
   showguides="false"
   inkscape:showpageshadow="0"
   inkscape:deskcolor="#d1d1d1" />
<metadata
   id="metadata1190">
<vectornator:setting
   key="DynamicGuides"
   value="1" />
<vectornator:setting
   key="CMYKEnabledKey"
   value="0" />
<vectornator:setting
   key="Units"
   value="Points" />
<vectornator:setting
   key="GridSpacing"
   value="36" />
<vectornator:setting
   key="SnapToGuides"
   value="1" />
<vectornator:setting
   key="RulersVisible"
   value="1" />
<rdf:RDF><cc:Work
     rdf:about=""><dc:format>image/svg+xml</dc:format><dc:type
       rdf:resource="http://purl.org/dc/dcmitype/StillImage" /></cc:Work></rdf:RDF></metadata>
<defs
   id="defs1202" />



<style
   type="text/css"
   id="style2">
	.st0{fill-rule:evenodd;clip-rule:evenodd;fill:#F18F97;}
	.st1{fill-rule:evenodd;clip-rule:evenodd;fill:#EF7B88;}
	.st2{fill-rule:evenodd;clip-rule:evenodd;fill:#F8C6C8;}
	.st3{fill:#B16365;}
	.st4{fill:#FFFFFF;}
	.st5{fill:#020203;}
	.st6{fill:#F8C6C8;}
	.st7{fill:#183051;}
	.st8{fill:url(#SVGID_1_);}
	.st9{fill:#3D3D3B;}
	.st10{fill:#422A19;}
	.st11{fill:#754E24;}
	.st12{fill:#DADADA;}
</style><style
   id="style2647">svg {enable-background:new 0 0 288 288}</style><style
   id="style2649">.st3{fill:#375c93}.st4{fill:#8dc63f}</style><g
   id="g1100"
   transform="matrix(0.2287928,0,0,0.2287928,40.216734,109.6392)"
   style="opacity:0.364683"><path
     d="M 0,245.262 16.322,253.423 19,248.668 V 59.333 L 16.322,55.839 0,64 v 181.262"
     fill="#9d5025"
     id="path1078" /><path
     d="M 47.678,63.57 16.322,55.839 v 197.584 l 31.356,-7.302 V 63.57"
     fill="#f68536"
     id="path1080" /><path
     d="m 143.893,78.604 22.335,-11.597 74.309,28.778 -19.758,2.577 -76.886,-19.758"
     fill="#6b3a19"
     id="path1082" /><path
     d="m 144.752,230.658 21.906,11.597 74.308,-28.778 -19.758,-2.578 -76.456,19.759"
     fill="#fbbf93"
     id="path1084" /><path
     d="m 150.336,198.872 39.087,5.155 2.244,-4.027 v -90 l -2.244,-4.765 -39.087,5.154 v 88.483"
     fill="#9d5025"
     id="path1086" /><path
     d="M 35.651,45.96 59.705,33.933 62.333,39 v 231 l -2.628,5.329 -24.054,-12.027 V 45.96"
     fill="#9d5025"
     id="path1088" /><path
     d="M 108.671,259.007 59.705,274.899 V 33.933 l 48.966,15.893 v 209.181"
     fill="#f68536"
     id="path1090" /><path
     d="m 89.772,289.933 38.228,19.329 4,-4.595 v -299 L 128,0 89.772,19.329 v 270.604"
     fill="#9d5025"
     id="path1092" /><path
     d="m 219.919,98.362 19.759,-2.577 1.697,2.465 V 211 l -1.697,2.906 -19.759,-2.577 V 98.362"
     fill="#9d5025"
     id="path1094" /><path
     d="m 189.423,105.235 v 99.221 l 40.805,-49.825 -40.805,-49.396"
     fill="#f68536"
     id="path1096" /><path
     d="M 239.678,55.839 128,0 v 309.262 l 128,-64 V 64 Z m 0,158.217 -73.45,21.936 V 73.27 l 73.45,21.936 z"
     fill="#f68536"
     id="path1098" /></g><g
   id="g1144"
   transform="matrix(0.21967134,0,0,0.21967134,16.064068,192.70441)"
   style="opacity:0.364683"><path
     d="M 20.624,53.686 0,64 v 181.02 l 20.624,10.254 0.124,-0.149 V 53.828 l -0.124,-0.142"
     fill="#8c3123"
     id="path1120" /><path
     d="M 131,229 20.624,255.274 V 53.686 L 131,79.387 V 229"
     fill="#e05243"
     id="path1122" /><path
     d="m 81.178,187.866 46.818,5.96 0.294,-0.678 0.263,-76.77 -0.557,-0.6 -46.818,5.874 v 66.214"
     fill="#8c3123"
     id="path1124" /><path
     d="m 127.996,229.295 107.371,26.035 0.169,-0.269 -0.003,-201.195 -0.17,-0.18 -107.367,25.996 v 149.613"
     fill="#8c3123"
     id="path1126" /><path
     d="m 174.827,187.866 -46.831,5.96 v -78.048 l 46.831,5.874 v 66.214"
     fill="#e05243"
     id="path1128" /><path
     d="m 174.827,89.631 -46.831,8.535 -46.818,-8.535 46.759,-12.256 46.89,12.256"
     fill="#5e1f18"
     id="path1130" /><path
     d="m 174.827,219.801 -46.831,-8.591 -46.818,8.591 46.761,13.053 46.888,-13.053"
     fill="#f2b0a9"
     id="path1132" /><path
     d="m 81.178,89.631 46.818,-11.586 0.379,-0.117 V 0.313 L 127.996,0 81.178,23.413 v 66.218"
     fill="#8c3123"
     id="path1134" /><path
     d="M 174.827,89.631 127.996,78.045 V 0 l 46.831,23.413 v 66.218"
     fill="#e05243"
     id="path1136" /><path
     d="M 127.996,309.428 81.173,286.023 v -66.217 l 46.823,11.582 0.689,0.783 -0.187,75.906 -0.502,1.351"
     fill="#8c3123"
     id="path1138" /><path
     d="m 127.996,309.428 46.827,-23.405 v -66.217 l -46.827,11.582 v 78.04"
     fill="#e05243"
     id="path1140" /><path
     d="M 235.367,53.686 256,64 v 181.02 l -20.633,10.31 V 53.686"
     fill="#e05243"
     id="path1142" /></g><g
   id="g1183"
   transform="matrix(0.22897065,0,0,0.22897065,213.9321,9.7192631)"
   style="opacity:0.364683"><path
     d="m 255.991,100.211 -4.112,-0.069 -123.792,-36.65 -0.074,-1.696 V 0 L 256,64.006 l -0.009,36.205"
     fill="#d9a741"
     id="path1165" /><path
     d="M 128,65.5 128.013,0 0.017,63.981 0,244.996 l 0.064,0.032 v 0.002 l 127.923,63.973 0.425,-0.591 -0.165,-60.871 -0.251,-0.339 L 120,241.5 21,212 21.5,97.5 128,65.5"
     fill="#876929"
     id="path1167" /><path
     d="M 147.141,195.298 16.351,213.697 16.36,95.28 l 130.79,18.424 -0.009,81.594"
     fill="#d9a741"
     id="path1169" /><path
     d="m 80.864,187.813 47.132,6 0.008,-78.658 -47.131,5.995 -0.009,66.663"
     fill="#876929"
     id="path1171" /><path
     d="m 33.385,181.771 30.587,3.888 0.009,-62.363 -30.596,3.897 v 54.578"
     fill="#876929"
     id="path1173" /><path
     d="M 16.36,95.28 128.013,61.796 255.991,100.211 147.231,113.713 16.36,95.28"
     fill="#624a1e"
     id="path1175" /><path
     d="m 255.927,177.376 -127.931,16.145 0.008,-78.366 127.923,16.296 v 45.925"
     fill="#d9a741"
     id="path1177" /><path
     d="m 255.918,208.834 -2.753,0.119 -124.776,37.77 -0.393,0.479 -0.009,61.801 127.931,-63.951 v -36.218"
     fill="#d9a741"
     id="path1179" /><path
     d="M 16.351,213.697 127.996,247.202 255.918,208.834 147.141,195.298 16.351,213.697"
     fill="#fad791"
     id="path1181" /></g><g
   id="g1213"
   transform="matrix(0.17274782,0,0,0.17274782,118.5538,7.903495)"
   style="opacity:0.364683"><path
     d="m 14.3443,80.1733 h 189.206 c 20.851,0 39.47,-9.561 51.963,-24.487 -26.06,-33.851 -66.961,-55.686 -112.983,-55.686 -56.352,0 -105.054,32.711 -128.186,80.173"
     fill="#f0bf1a"
     id="path1201-3" /><path
     d="M 187.5152,102.4438 H 5.7552 c -3.722,12.721 -5.755,26.163 -5.755,40.086 0,13.924 2.033,27.367 5.755,40.087 h 181.76 c 21.825,0 40.087,-17.816 40.087,-40.087 0,-22.27 -17.816,-40.086 -40.087,-40.086"
     fill="#07a5de"
     id="path1203-8" /><path
     d="m 255.9996,228.7548 c -12.414,-14.591 -30.883,-23.868 -51.559,-23.868 H 14.3446 c 23.132,47.463 71.834,80.173 128.185,80.173 46.306,0 87.436,-22.097 113.47,-56.305"
     fill="#3ebeb0"
     id="path1205-0" /><path
     d="m 5.7555,102.4438 c -3.723,12.721 -5.755,26.163 -5.755,40.086 0,13.924 2.032,27.367 5.755,40.087 h 118.958 c 3.118,-12.026 4.899,-25.388 4.899,-40.087 0,-14.698 -1.781,-28.06 -4.899,-40.086 z"
     fill="#231f20"
     id="path1207-2" /><path
     d="m 70.8199,19.1528 c -24.053,14.253 -44.096,35.632 -56.567,61.021 h 105.116 c -10.69,-24.498 -27.615,-44.986 -48.549,-61.021"
     fill="#d7a229"
     id="path1209-4" /><path
     d="m 75.274,268.1347 c 20.488,-16.48 36.968,-38.305 47.213,-63.248 H 14.253 c 13.362,26.725 34.742,48.995 61.021,63.248"
     fill="#019b8f"
     id="path1211" /></g><g
   id="g1236"
   transform="matrix(0.21072771,0,0,0.21072771,308.35453,7.6209934)"
   style="opacity:0.364683"><path
     d="m 170.2517,56.8186 22.253,-22.253 1.483,-9.37 c -40.551,-36.873 -105.012,-32.692 -141.567,8.724 -10.154,11.503 -17.687,25.844 -21.704,40.653 l 7.97,-1.123 44.505,-7.339 3.436,-3.514 c 19.797,-21.742 53.27,-24.667 76.128,-6.168 z"
     fill="#ea4335"
     id="path1228" /><path
     d="m 224.2048,73.9182 c -5.115,-18.836 -15.616,-35.769 -30.217,-48.722 l -31.232,31.232 c 13.188,10.776 20.701,27.01 20.379,44.037 v 5.544 c 15.351,0 27.797,12.445 27.797,27.796 0,15.352 -12.446,27.485 -27.797,27.485 h -55.671 l -5.466,5.934 v 33.34 l 5.466,5.231 h 55.671 c 39.93,0.311 72.552,-31.494 72.863,-71.424 0.188,-24.203 -11.745,-46.893 -31.793,-60.453"
     fill="#4285f4"
     id="path1230" /><path
     d="m 71.8704,205.7957 h 55.593 v -44.506 h -55.593 c -3.961,-0.001 -7.797,-0.852 -11.399,-2.498 l -7.887,2.42 -22.409,22.253 -1.952,7.574 c 12.567,9.489 27.9,14.825 43.647,14.757"
     fill="#34a853"
     id="path1232" /><path
     d="m 71.8704,61.4255 c -39.931,0.238 -72.107,32.802 -71.869,72.732 0.133,22.298 10.547,43.288 28.222,56.881 l 32.248,-32.247 c -13.991,-6.321 -20.208,-22.786 -13.887,-36.776 6.32,-13.99 22.786,-20.207 36.775,-13.887 6.165,2.785 11.102,7.723 13.887,13.887 l 32.248,-32.247 c -13.721,-17.937 -35.041,-28.424 -57.624,-28.343"
     fill="#fbbc05"
     id="path1234" /></g><path
   d="m 420.52874,43.888473 c -2.04691,0 -3.88197,0.90685 -5.13863,2.3346 l -3.22008,-2.27959 c 0.34183,-0.94113 0.5381,-1.95167 0.5381,-3.00939 0,-1.03938 -0.18943,-2.03299 -0.52,-2.9602 l 3.21286,-2.25543 c 1.25653,1.42053 3.0868,2.32245 5.12775,2.32245 3.77801,0 6.85216,-3.07363 6.85216,-6.85216 0,-3.77853 -3.07415,-6.85216 -6.85216,-6.85216 -3.77802,0 -6.85216,3.07363 -6.85216,6.85216 0,0.67631 0.10218,1.32847 0.28555,1.94611 l -3.21503,2.25657 c -1.34302,-1.66613 -3.27673,-2.82944 -5.47994,-3.18454 v -3.87477 c 3.10385,-0.65191 5.4425,-3.40964 5.4425,-6.70483 0,-3.77854 -3.07412,-6.85217 -6.85216,-6.85217 -3.77802,0 -6.85216,3.07363 -6.85216,6.85217 0,3.25106 2.27808,5.97477 5.31984,6.67322 v 3.9251 c -4.15122,0.72866 -7.31831,4.35152 -7.31831,8.70848 0,4.3782 3.19847,8.01434 7.37963,8.71822 v 4.14464 c -3.07286,0.67542 -5.38116,3.41584 -5.38116,6.68903 0,3.77853 3.07414,6.85216 6.85216,6.85216 3.77804,0 6.85216,-3.07363 6.85216,-6.85216 0,-3.27319 -2.30828,-6.01361 -5.38117,-6.68903 v -4.14476 c 2.11631,-0.35647 4.03092,-1.47001 5.38725,-3.13321 l 3.24157,2.29439 c -0.17994,0.61207 -0.28073,1.25778 -0.28073,1.92727 0,3.77852 3.07414,6.85216 6.85216,6.85216 3.77801,0 6.85216,-3.07364 6.85216,-6.85216 0,-3.77853 -3.07415,-6.85217 -6.85216,-6.85217 z m 0,-16.02198 c 1.83203,0 3.32214,1.49072 3.32214,3.32226 0,1.83153 -1.49011,3.32213 -3.32214,3.32213 -1.83204,0 -3.32214,-1.4906 -3.32214,-3.32213 0,-1.83154 1.4901,-3.32226 3.32214,-3.32226 z m -19.99348,-6.2392 c 0,-1.83154 1.49021,-3.32214 3.32224,-3.32214 1.83206,0 3.32214,1.4906 3.32214,3.32214 0,1.83153 -1.49008,3.32213 -3.32214,3.32213 -1.83203,0 -3.32224,-1.4906 -3.32224,-3.32213 z m 6.64438,38.85869 c 0,1.83153 -1.49008,3.32213 -3.32214,3.32213 -1.83203,0 -3.32224,-1.4906 -3.32224,-3.32213 0,-1.83154 1.49021,-3.32214 3.32224,-3.32214 1.83206,0 3.32214,1.4906 3.32214,3.32214 z m -3.3224,-14.91862 c -2.55514,0 -4.63377,-2.07825 -4.63377,-4.63327 0,-2.55515 2.07863,-4.63378 4.63377,-4.63378 2.55504,0 4.63368,2.07863 4.63368,4.63378 0,2.55502 -2.24082,4.63327 -4.63368,4.63327 z m 16.6715,8.49553 c -1.83204,0 -3.32214,-1.49072 -3.32214,-3.32225 0,-1.83154 1.4901,-3.32214 3.32214,-3.32214 1.83203,0 3.32214,1.4906 3.32214,3.32214 0,1.83153 -1.49011,3.32225 -3.32214,3.32225 z"
   id="path863"
   inkscape:connector-curvature="0"
   sodipodi:nodetypes="sccsccssssccccsssccsccsssccccsssssssssssssssssssssssssssss"
   style="opacity:0.364683;stroke-width:0.126461" /><g
   id="g1303"
   transform="matrix(0.21118546,0,0,0.21118546,21.285057,23.921522)"
   style="opacity:0.364683"><path
     fill="#34a574"
     d="M 142.8,5.3 H 277.5 V 114.5 H 142.8 Z"
     id="path1271" /><path
     fill="#27aae1"
     d="M 8.1,5.3 H 142.8 V 114.5 H 8.1 Z"
     id="path1273" /><path
     d="M 142.8,114.6 H 277.5 V 223.8 H 142.8 Z"
     class="st4"
     id="path1275" /><path
     d="M 8.1,114.6 H 142.8 V 223.8 H 8.1 Z"
     class="st3"
     id="path1277" /><path
     d="m 123,223.2 65.9,61 v -61 z"
     class="st4"
     id="path1279" /><path
     d="m 142.8,223.2 0.7,19.2 -21.1,-19.7 z"
     class="st3"
     id="path1281" /><g
     id="g1285"><path
       fill="#ffffff"
       d="M 198.6,146.5 V 56.1 h 32.2 V 173 H 182 L 83.5,81 v 92.1 H 51.2 v -117 h 50.5 z"
       id="path1283" /></g></g><g
   id="Layer_x0020_3-3"
   style="clip-rule:nonzero;opacity:0.364683;fill:none;fill-rule:nonzero;stroke:#ffffff;stroke-width:12.4651;stroke-linecap:round;stroke-linejoin:round;stroke-miterlimit:4"
   transform="matrix(0.15396049,0,0,0.15396049,483.67636,205.4022)">
<path
   style="fill:#000000;stroke:#000000;stroke-width:37.3953;stroke-linecap:butt;stroke-linejoin:miter"
   d="m 323.205,324.227 c 2.833,-23.601 1.984,-27.062 19.563,-23.239 l 4.463,0.392 c 13.517,0.615 31.199,-2.174 41.587,-7 22.362,-10.376 35.622,-27.7 13.572,-23.148 -50.297,10.376 -53.755,-6.655 -53.755,-6.655 C 401.746,185.774 423.948,85.741 404.784,61.255 352.514,-5.534 262.036,26.049 260.522,26.869 l -0.482,0.089 c -9.938,-2.062 -21.06,-3.294 -33.554,-3.496 -22.761,-0.374 -40.032,5.967 -53.133,15.904 0,0 -161.408,-66.498 -153.899,83.628 1.597,31.936 45.777,241.655 98.47,178.31 19.259,-23.163 37.871,-42.748 37.871,-42.748 9.242,6.14 20.307,9.272 31.912,8.147 l 0.897,-0.765 c -0.281,2.876 -0.157,5.689 0.359,9.019 -13.572,15.167 -9.584,17.83 -36.723,23.416 -27.457,5.659 -11.326,15.734 -0.797,18.367 12.768,3.193 42.305,7.716 62.268,-20.224 l -0.795,3.188 c 5.325,4.26 4.965,30.619 5.72,49.452 0.756,18.834 2.017,36.409 5.856,46.771 3.839,10.36 8.369,37.05 44.036,29.406 29.809,-6.388 52.6,-15.582 54.677,-101.107"
   id="path1354" />
<path
   style="fill:#336791;stroke:none"
   d="m 402.395,271.23 c -50.302,10.376 -53.76,-6.655 -53.76,-6.655 53.111,-78.808 75.313,-178.843 56.153,-203.326 -52.27,-66.785 -142.752,-35.2 -144.262,-34.38 l -0.486,0.087 c -9.938,-2.063 -21.06,-3.292 -33.56,-3.496 -22.761,-0.373 -40.026,5.967 -53.127,15.902 0,0 -161.411,-66.495 -153.904,83.63 1.597,31.938 45.776,241.657 98.471,178.312 19.26,-23.163 37.869,-42.748 37.869,-42.748 9.243,6.14 20.308,9.272 31.908,8.147 l 0.901,-0.765 c -0.28,2.876 -0.152,5.689 0.361,9.019 -13.575,15.167 -9.586,17.83 -36.723,23.416 -27.459,5.659 -11.328,15.734 -0.796,18.367 12.768,3.193 42.307,7.716 62.266,-20.224 l -0.796,3.188 c 5.319,4.26 9.054,27.711 8.428,48.969 -0.626,21.259 -1.044,35.854 3.147,47.254 4.191,11.4 8.368,37.05 44.042,29.406 29.809,-6.388 45.256,-22.942 47.405,-50.555 1.525,-19.631 4.976,-16.729 5.194,-34.28 l 2.768,-8.309 c 3.192,-26.611 0.507,-35.196 18.872,-31.203 l 4.463,0.392 c 13.517,0.615 31.208,-2.174 41.591,-7 22.358,-10.376 35.618,-27.7 13.573,-23.148 z"
   id="path1356" />
<path
   d="m 215.866,286.484 c -1.385,49.516 0.348,99.377 5.193,111.495 4.848,12.118 15.223,35.688 50.9,28.045 29.806,-6.39 40.651,-18.756 45.357,-46.051 3.466,-20.082 10.148,-75.854 11.005,-87.281"
   id="path1358" />
<path
   d="m 173.104,38.256 c 0,0 -161.521,-66.016 -154.012,84.109 1.597,31.938 45.779,241.664 98.473,178.316 19.256,-23.166 36.671,-41.335 36.671,-41.335"
   id="path1360" />
<path
   d="m 260.349,26.207 c -5.591,1.753 89.848,-34.889 144.087,34.417 19.159,24.484 -3.043,124.519 -56.153,203.329"
   id="path1362" />
<path
   style="stroke-linejoin:bevel"
   d="m 348.282,263.953 c 0,0 3.461,17.036 53.764,6.653 22.04,-4.552 8.776,12.774 -13.577,23.155 -18.345,8.514 -59.474,10.696 -60.146,-1.069 -1.729,-30.355 21.647,-21.133 19.96,-28.739 -1.525,-6.85 -11.979,-13.573 -18.894,-30.338 -6.037,-14.633 -82.796,-126.849 21.287,-110.183 3.813,-0.789 -27.146,-99.002 -124.553,-100.599 -97.385,-1.597 -94.19,119.762 -94.19,119.762"
   id="path1364" />
<path
   d="m 188.604,274.334 c -13.577,15.166 -9.584,17.829 -36.723,23.417 -27.459,5.66 -11.326,15.733 -0.797,18.365 12.768,3.195 42.307,7.718 62.266,-20.229 6.078,-8.509 -0.036,-22.086 -8.385,-25.547 -4.034,-1.671 -9.428,-3.765 -16.361,3.994 z"
   id="path1366" />
<path
   d="m 187.715,274.069 c -1.368,-8.917 2.93,-19.528 7.536,-31.942 6.922,-18.626 22.893,-37.255 10.117,-96.339 -9.523,-44.029 -73.396,-9.163 -73.436,-3.193 -0.039,5.968 2.889,30.26 -1.067,58.548 -5.162,36.913 23.488,68.132 56.479,64.938"
   id="path1368" />
<path
   style="fill:#ffffff;stroke-width:4.155;stroke-linecap:butt;stroke-linejoin:miter"
   d="m 172.517,141.7 c -0.288,2.039 3.733,7.48 8.976,8.207 5.234,0.73 9.714,-3.522 9.998,-5.559 0.284,-2.039 -3.732,-4.285 -8.977,-5.015 -5.237,-0.731 -9.719,0.333 -9.996,2.367 z"
   id="path1370" />
<path
   style="fill:#ffffff;stroke-width:2.0775;stroke-linecap:butt;stroke-linejoin:miter"
   d="m 331.941,137.543 c 0.284,2.039 -3.732,7.48 -8.976,8.207 -5.238,0.73 -9.718,-3.522 -10.005,-5.559 -0.277,-2.039 3.74,-4.285 8.979,-5.015 5.239,-0.73 9.718,0.333 10.002,2.368 z"
   id="path1372" />
<path
   d="m 350.676,123.432 c 0.863,15.994 -3.445,26.888 -3.988,43.914 -0.804,24.748 11.799,53.074 -7.191,81.435"
   id="path1374" />
<path
   style="stroke-width:3"
   d="M 0,60.232"
   id="path1376" />
</g><path
   d="m 487.6873,92.082911 h -15.83295 c -4.27946,-8.2085 -8.80316,-14.57991 -14.96219,-14.57991 -8.01736,0 -11.78711,6.99793 -15.42943,13.80472 l -0.31857,0.59467 h -18.23285 v 4.045835 h 10.61902 c 3.74851,0 4.51308,1.26366 4.51308,1.26366 -2.94147,4.566184 -6.4776,9.079264 -12.37116,9.079264 h -2.76094 v 4.24761 h 2.78218 c 11.42606,0 16.417,-9.2704 20.42037,-16.714329 3.67418,-6.85989 6.23336,-11.01192 10.7783,-11.01192 4.71484,0 9.67393,10.25797 14.03834,19.315989 0.63714,1.31675 1.2849,2.66537 1.94328,4.00337 -16.73557,0.53095 -24.71045,4.44937 -31.19867,7.64569 -4.7467,2.33618 -8.49521,5.23517 -14.66486,5.23517 h -4.09894 v 4.24761 h 4.06708 c 7.43331,0 12.06321,-2.29371 16.99043,-4.72546 6.82803,-3.35561 14.56929,-7.15722 32.81276,-7.15722 h 10.54468 v -4.24761 h -5.95727 a 3.1857047,3.1857047 0 0 1 -2.62289,-1.0619 c -1.04067,-2.01761 -2.06009,-4.14141 -3.05828,-6.265224 l -1.38047,-2.82465 c 0,0 0.98757,-1.06191 3.72727,-1.06191 h 9.65268 z"
   fill="#188fff"
   id="path1401"
   style="opacity:0.364683;stroke-width:1.0619" /><path
   d="m 523.06864,152.75125 h -15.12567 c -0.5036,0.003 -0.98748,-0.19548 -1.34358,-0.55157 -0.3561,-0.3561 -0.55475,-0.83998 -0.55158,-1.34359 v -15.12566 c 2e-5,-0.50156 -0.20002,-0.98237 -0.55579,-1.3359 -0.35574,-0.35353 -0.83781,-0.55057 -1.33935,-0.54741 h -5.66177 c -0.50152,-0.003 -0.98361,0.19388 -1.33936,0.54741 -0.35574,0.35353 -0.5558,0.83434 -0.55578,1.3359 v 15.12566 c 0.003,0.50361 -0.19547,0.98749 -0.55158,1.34359 -0.3561,0.35609 -0.83998,0.55475 -1.34358,0.55157 h -5.66176 c -0.50359,0.003 -0.98748,-0.19548 -1.34358,-0.55157 -0.3561,-0.3561 -0.55475,-0.83998 -0.55157,-1.34359 v -15.12566 c 0.003,-0.50361 -0.19547,-0.98749 -0.55157,-1.34359 -0.3561,-0.35609 -0.83999,-0.55475 -1.34358,-0.55161 h -5.67361 c -0.50154,0 -0.98237,0.20008 -1.3359,0.55582 -0.35353,0.35577 -0.55056,0.83784 -0.54744,1.33938 v 43.49371 c -0.003,0.50358 0.1955,0.98748 0.55161,1.34358 0.3561,0.3561 0.83998,0.55476 1.34358,0.55162 h 43.48186 c 0.5036,0.003 0.98749,-0.19552 1.34358,-0.55162 0.3561,-0.3561 0.55476,-0.84 0.55158,-1.34358 v -24.5422 c 0.0129,-0.50971 -0.18154,-1.00285 -0.53871,-1.3667 -0.35717,-0.36385 -0.84659,-0.56736 -1.35645,-0.56399 z m -7.60426,16.0614 c 0.003,0.75285 -0.29374,1.47594 -0.82497,2.00941 -0.53125,0.53344 -1.25308,0.83333 -2.00594,0.83333 h -3.7903 c -0.75286,0 -1.47471,-0.29989 -2.00594,-0.83333 -0.53123,-0.53347 -0.82808,-1.25656 -0.82496,-2.00941 v -3.77845 c -0.003,-0.75284 0.29373,-1.47595 0.82496,-2.00939 0.53123,-0.53347 1.25308,-0.83334 2.00594,-0.83334 h 3.7903 c 0.75286,0 1.47469,0.29987 2.00594,0.83334 0.53123,0.53344 0.82809,1.25655 0.82497,2.00939 z"
   fill="#ff6600"
   id="path1421"
   style="opacity:0.364683;stroke-width:0.18466" /><g
   id="g1455"
   transform="matrix(0.22219546,0,0,0.22219546,477.71773,19.973441)"
   style="opacity:0.364683"><path
     d="m 245.96969,168.94326 c -13.66143,7.12122 -84.43364,36.22013 -99.50111,44.07437 -15.06647,7.85625 -23.43674,7.78025 -35.33911,2.09007 C 99.227101,209.41752 23.912747,178.99557 10.346323,172.51137 3.5651114,169.27027 0,166.53518 0,163.9511 v -25.87581 c 0,0 98.049064,-21.34566 113.87856,-27.02384 15.82849,-5.67918 21.32067,-5.88419 34.79109,-0.95003 13.47142,4.93515 94.01693,19.46761 107.33035,24.34376 0,0 -0.006,23.11072 -0.006,25.50979 0.002,2.55808 -3.0701,5.36417 -10.02431,8.98829"
     fill="#912626"
     id="path1433" /><path
     d="m 245.96492,143.22007 c -13.66099,7.11799 -84.43092,36.21796 -99.4979,44.07195 -15.06599,7.857 -23.43598,7.78 -35.33797,2.09 C 99.226062,183.69603 23.915134,153.26906 10.349147,146.78806 -3.2168405,140.30307 -3.5018403,135.84007 9.8251471,130.62208 23.151134,125.40208 98.049063,96.017112 113.88005,90.338117 c 15.82798,-5.676994 21.31898,-5.883994 34.78896,-0.947999 13.47099,4.933995 83.81892,32.934972 97.13091,37.809962 13.31499,4.881 13.82599,8.89899 0.165,16.01999"
     fill="#c6302b"
     id="path1435" /><path
     d="m 245.96969,127.07435 c -13.66143,7.12123 -84.43364,36.22014 -99.50111,44.07738 -15.06647,7.85325 -23.43674,7.77724 -35.33911,2.08707 C 99.226101,167.55162 23.912747,137.12667 10.346323,130.64246 3.5651114,127.40136 0,124.66928 0,122.0852 V 96.206389 c 0,0 98.049064,-21.344666 113.87856,-27.023844 15.82849,-5.678177 21.32067,-5.884184 34.79109,-0.95003 13.47142,4.935155 94.01693,19.464609 107.33035,24.341761 0,0 -0.006,23.110724 -0.006,25.512794 0.002,2.55708 -3.0701,5.36317 -10.02431,8.98728"
     fill="#912626"
     id="path1437" /><path
     d="m 245.96492,101.35116 c -13.66099,7.12 -84.43092,36.21797 -99.4979,44.07496 -15.06599,7.85399 -23.43598,7.77699 -35.33797,2.087 C 99.226062,141.82712 23.915134,111.40115 10.349147,104.91916 -3.2168405,98.436166 -3.5018403,93.972171 9.8251471,88.752176 23.151134,83.535181 98.049063,54.148209 113.88005,48.470214 c 15.82798,-5.677994 21.31898,-5.883994 34.78896,-0.948999 13.47099,4.933995 83.81892,32.932968 97.13091,37.809964 13.31499,4.878995 13.82599,8.898991 0.165,16.018981 v 10e-4"
     fill="#c6302b"
     id="path1439" /><path
     d="m 245.96969,83.652566 c -13.66143,7.121223 -84.43364,36.221134 -99.50111,44.078374 -15.06647,7.85425 -23.43674,7.77725 -35.33911,2.08707 C 99.226101,124.13083 23.912747,93.70488 10.346323,87.222678 3.5651114,83.980576 0,81.247491 0,78.66541 V 52.785601 c 0,0 98.049064,-21.343667 113.87856,-27.021844 15.82849,-5.679177 21.32067,-5.884184 34.79109,-0.95003 13.47142,4.935155 94.01693,19.464609 107.33035,24.341761 0,0 -0.006,23.110722 -0.006,25.511797 0.002,2.55508 -3.0701,5.361168 -10.02431,8.985281"
     fill="#912626"
     id="path1441" /><path
     d="m 245.96492,57.929387 c -13.66099,7.119993 -84.43092,36.219965 -99.4979,44.074963 -15.06599,7.85399 -23.43598,7.77699 -35.33797,2.08899 C 99.227062,98.405348 23.915134,67.981377 10.349147,61.498384 -3.2168405,55.01539 -3.5018403,50.550394 9.8251471,45.331399 23.151134,40.113404 98.049063,10.729432 113.88005,5.0494374 c 15.82798,-5.67899455 21.31898,-5.88299435 34.78896,-0.9479991 13.47099,4.9349953 83.81892,32.9339687 97.13091,37.8109637 13.31499,4.875996 13.82599,8.896992 0.165,16.016985"
     fill="#c6302b"
     id="path1443" /><path
     d="m 159.28298,32.757085 -22.00906,2.285148 -4.9275,11.855379 -7.95882,-13.229643 -25.414453,-2.284155 18.963843,-6.838574 -5.68955,-10.497984 17.7543,6.943752 16.73823,-5.480186 -4.52366,10.855193 17.06667,6.39107"
     fill="#ffffff"
     id="path1445" /><path
     d="M 131.03169,90.274729 89.954605,73.23783 148.81575,64.203411 131.03169,90.274729"
     fill="#ffffff"
     id="path1447" /><path
     d="m 74.081612,39.346605 c 17.375256,0 31.460218,5.460341 31.460218,12.194728 0,6.73538 -14.084962,12.194729 -31.460218,12.194729 -17.374263,0 -31.460217,-5.459349 -31.460217,-12.194729 0,-6.734387 14.085954,-12.194728 31.460217,-12.194728"
     fill="#ffffff"
     id="path1449" /><path
     d="m 185.29476,35.997767 34.83584,13.76645 -34.80607,13.752558 -0.0298,-27.519008"
     fill="#621b1c"
     id="path1451" /><path
     d="m 146.75485,51.242667 38.53991,-15.2449 0.0298,27.519008 -3.77848,1.47845 -34.7912,-13.752558"
     fill="#9a2928"
     id="path1453" /></g><g
   id="Redpanda-Rocket"
   fill-rule="nonzero"
   style="opacity:0.364683;fill:none;stroke:none;stroke-width:1"
   transform="matrix(0.12958371,0,0,0.12958371,88.111778,77.040214)"><polygon
     id="Path"
     fill="#8c8c8c"
     points="337.677,89.9816 432.844,143.012 530.045,208.382 436.257,139.074 " /><polygon
     id="polygon1480"
     fill="#cb3805"
     points="479.377,394.777 438.028,365.308 456.077,313.393 465.725,303.417 518.69,329.342 535.886,356.907 551.637,364.324 580.713,434.222 536.476,403.178 515.015,399.896 515.671,413.614 " /><polygon
     id="polygon1482"
     fill="#f68857"
     points="571.065,422.277 548.357,367.54 532.933,360.189 515.672,332.624 466.645,308.602 459.819,315.691 443.148,363.668 481.609,391.102 511.012,406.394 510.487,394.843 538.118,399.109 " /><polygon
     id="polygon1484"
     fill="#ffffff"
     points="509.371,342.731 521.841,363.405 506.089,352.116 494.144,351.919 515.409,368.853 539.102,375.416 551.31,397.928 535.69,386.508 515.54,384.342 493.816,371.347 495.391,378.632 501.889,390.577 484.956,380.666 457.456,359.861 468.942,322.122 " /><polygon
     id="polygon1486"
     fill="#310401"
     points="414.664,217.57 511.143,224.527 588.523,208.119 647.526,228.531 656.321,281.627 614.907,309.98 549.209,310.505 480.952,293.441 419.783,260.428 " /><polygon
     id="polygon1488"
     fill="#cb3805"
     points="482.658,289.766 423.852,258 419.52,221.902 511.471,228.531 588.195,212.254 643.654,231.419 651.661,279.855 613.463,305.977 549.8,306.502 " /><polygon
     id="polygon1490"
     fill="#ed6437"
     points="643.654,231.419 594.233,233.388 518.887,246.252 436.519,234.438 420.964,222.033 511.471,228.531 588.195,212.254 " /><polygon
     id="polygon1492"
     fill="#780500"
     points="613.463,305.977 549.8,306.502 482.658,289.766 423.852,258 423.064,251.24 435.862,243.692 489.812,275.327 551.637,292.325 612.806,289.635 651.661,279.855 " /><polygon
     id="polygon1494"
     fill="#401715"
     points="651.661,279.855 643.654,231.419 604.078,217.767 624.489,232.206 632.234,284.712 615.891,305.846 " /><polygon
     id="polygon1496"
     fill="#401715"
     points="575.79,214.88 598.039,233.191 604.208,289.963 592.263,306.174 570.342,306.371 577.956,291.144 568.833,237.72 546.78,221.049 " /><polygon
     id="polygon1498"
     fill="#401715"
     points="527.222,285.565 522.365,299.676 549.8,306.502 551.637,292.325 543.039,242.117 520.725,226.562 511.47,228.531 499.854,227.678 524.531,245.267 " /><polygon
     id="polygon1500"
     fill="#401715"
     points="501.56,294.491 506.483,279.921 499.066,243.429 484.496,226.562 469.138,225.446 479.377,240.607 487.121,273.752 482.658,289.766 " /><polygon
     id="polygon1502"
     fill="#401715"
     points="460.081,277.558 469.729,263.579 464.806,238.507 454.371,224.396 440.719,223.412 450.761,237.129 453.189,253.865 446.167,270.01 " /><polygon
     id="polygon1504"
     fill="#3b3939"
     points="471.632,351.788 470.648,352.576 461.788,359.598 507.139,418.995 498.345,430.415 421.424,383.882 424.64,397.009 412.17,396.024 341.156,363.799 324.879,319.76 266.27,292.129 103.83,211.992 103.174,211.729 102.714,211.204 58.1501,168.281 57.6251,167.756 57.2969,167.099 37.1479,129.295 31.3722,111.115 30.8472,109.474 31.5035,107.899 42.0703,81.5807 42.4641,80.5963 43.186,79.8087 47.9772,75.1488 63.0725,60.119 64.3852,58.8064 66.2229,58.6751 84.2717,57.7563 84.7311,57.7563 85.1906,57.8219 126.604,63.5975 127.326,63.6632 127.983,63.9913 184.754,90.1785 185.345,90.5067 185.87,90.9005 327.176,205.494 382.438,247.039 394.646,246.252 413.548,244.151 432.713,242.051 447.02,241.329 448.136,241.395 449.055,241.92 557.479,294.623 558.201,295.016 558.726,295.607 565.552,302.695 574.872,312.212 476.883,320.547 479.902,326.914 480.821,328.817 480.033,330.72 472.158,350.541 " /><path
     d="m 64.3849,74.2299 c 0.3938,1.3783 0.8532,2.8222 1.247,4.2005 0.3938,1.3783 0.8532,2.8222 1.3127,4.2005 -0.8533,2.0346 -1.6408,4.0692 -2.4284,6.1694 -0.7876,2.1002 -1.5752,4.1348 -2.3628,6.235 -1.5752,1.5752 -3.1503,3.0847 -4.7255,4.5943 -1.5752,1.5754 -3.1503,3.0844 -4.7255,4.5944 -1.4439,0.065 -2.9535,0.197 -4.3317,0.328 -1.4439,0.066 -2.8879,0.197 -4.2661,0.328 -0.4595,-1.378 -0.9189,-2.822 -1.3127,-4.2 -0.3938,-1.4442 -0.8532,-2.7569 -1.247,-4.2008 0.7876,-2.1002 1.5752,-4.2004 2.4284,-6.235 0.7876,-2.1002 1.5752,-4.2005 2.3628,-6.2351 1.5751,-1.5751 3.1503,-3.1503 4.7255,-4.6598 1.5752,-1.5752 3.1503,-3.0848 4.7255,-4.5943 1.3783,-0.0656 2.8222,-0.1313 4.3317,-0.1969 1.3783,-0.1969 2.8222,-0.2625 4.2661,-0.3282 z"
     id="path1506"
     fill="#706c6c" /><path
     d="m 182.523,95.2322 c 3.545,10.5668 7.089,21.0028 10.633,31.4378 46.27,35.966 92.607,71.473 139.731,105.405 46.927,33.735 94.641,65.895 142.421,97.53 -2.231,-4.66 -4.397,-9.32 -6.629,-13.98 C 420.112,281.431 371.544,246.58 323.961,209.957 276.18,173.138 229.319,134.48 182.523,95.2322 Z"
     id="path1508"
     fill="#8c8c8c" /><path
     d="m 475.308,329.605 c -47.78,-31.635 -95.495,-63.795 -142.422,-97.53 -47.124,-33.866 -93.46,-69.373 -139.731,-105.339 -5.907,15.095 -11.814,30.125 -17.72,45.22 48.042,31.241 96.151,62.154 144.85,91.754 48.567,29.534 97.791,57.822 147.081,85.781 2.691,-6.629 5.316,-13.258 7.942,-19.886 z"
     id="path1510"
     fill="#706c6c" /><path
     d="m 467.432,349.425 c -49.29,-27.959 -98.514,-56.246 -147.082,-85.781 -48.699,-29.6 -96.807,-60.513 -144.85,-91.753 -12.01,11.091 -24.087,22.38 -36.163,33.734 51.259,27.566 102.583,54.935 154.235,81.319 51.653,26.318 103.765,51.718 155.942,76.855 5.907,-4.791 11.88,-9.648 17.918,-14.374 z"
     id="path1512"
     fill="#5e5858" /><polygon
     id="polygon1514"
     fill="#4f4949"
     points="364.324,299.545 327.11,303.877 388.739,334.461 " /><polygon
     id="polygon1516"
     fill="#3b3939"
     points="335.577,313.328 350.935,359.401 418.142,392.349 407.247,347.719 " /><path
     d="m 105.799,208.382 c 11.157,-0.919 22.315,-1.838 33.472,-2.757 51.259,27.566 102.583,54.935 154.236,81.319 51.652,26.318 103.764,51.718 155.942,76.855 -5.842,0.197 -11.683,0.394 -17.524,0.591 -54.737,-24.875 -109.54,-50.012 -163.818,-76.002 -54.343,-25.925 -108.424,-52.9 -162.308,-80.006 z"
     id="path1518"
     fill="#4f4949" /><path
     d="m 119.188,134.349 c 18.705,12.601 37.476,25.203 56.247,37.607 5.841,-15.095 11.813,-30.191 17.72,-45.22 -19.624,-10.305 -39.313,-20.674 -58.872,-31.0443 -5.053,12.8643 -10.041,25.7933 -15.095,38.6573 z"
     id="path1520"
     fill="#8c8c8c" /><path
     d="m 134.283,95.6917 c 19.559,10.3703 39.183,20.7393 58.872,31.0443 -3.544,-10.436 -7.088,-20.937 -10.632,-31.4381 -18.968,-8.7291 -37.935,-17.5238 -56.837,-26.2529 2.887,8.8603 5.71,17.7863 8.597,26.6467 z"
     id="path1522"
     fill="#f5f5f5" /><path
     d="m 119.188,134.349 c 18.705,12.601 37.476,25.203 56.247,37.607 -12.011,11.092 -24.087,22.381 -36.163,33.735 -16.868,-14.045 -33.604,-28.156 -50.2744,-42.53 10.0417,-9.713 20.1494,-19.295 30.1904,-28.812 z"
     id="path1524"
     fill="#706c6c" /><path
     d="m 88.997,163.161 c 16.671,14.308 33.472,28.485 50.274,42.53 -11.157,0.853 -22.315,1.772 -33.472,2.757 -14.8986,-14.177 -29.7315,-28.485 -44.4987,-42.924 9.2541,-0.853 18.4426,-1.641 27.6967,-2.363 z"
     id="path1526"
     fill="#4f4949" /><path
     d="m 134.283,95.6916 c -2.888,-8.8603 -5.71,-17.7206 -8.598,-26.6466 -13.782,-1.969 -27.6308,-3.9379 -41.4135,-5.7756 1.8377,5.9725 3.6754,11.945 5.5787,17.8519 14.8328,4.8568 29.6658,9.7136 44.4328,14.5703 z"
     id="path1528"
     fill="#d9d9d9" /><path
     d="m 134.284,95.6916 c -14.833,-4.8567 -29.6,-9.7135 -44.4333,-14.5703 -3.4129,8.7291 -6.8257,17.3925 -10.173,26.1217 13.1265,9.057 26.2533,18.114 39.5103,27.106 5.054,-12.864 10.042,-25.793 15.096,-38.6574 z"
     id="path1530"
     fill="#5e5858" /><path
     d="m 88.9976,163.162 c -9.2542,0.721 -18.4427,1.509 -27.6968,2.297 -6.7601,-12.339 -13.389,-24.809 -19.9522,-37.345 6.1038,-0.525 12.142,-0.985 18.3114,-1.444 9.7135,12.273 19.4927,24.415 29.3376,36.492 z"
     id="path1532"
     fill="#3b3939" /><path
     d="M 88.9972,163.161 C 79.218,151.085 69.3732,138.943 59.6597,126.67 c 6.6944,-6.498 13.3889,-12.995 20.0834,-19.427 13.1264,9.057 26.2529,18.114 39.5109,27.106 -10.108,9.517 -20.2151,19.099 -30.2568,28.812 z"
     id="path1534"
     fill="#4f4949" /><path
     d="m 66.9449,82.6309 c -0.9188,-2.8222 -1.7064,-5.6444 -2.5596,-8.401 6.6288,-3.6754 13.2576,-7.2851 19.9521,-10.9605 1.8377,5.9725 3.6754,11.945 5.5787,17.8519 -7.6789,0.5251 -15.2922,0.9845 -22.9712,1.5096 z"
     id="path1536"
     fill="#8c8c8c" /><path
     d="m 89.8506,81.1213 c -7.6134,0.4594 -15.2923,0.9845 -22.9056,1.5095 -1.6408,4.1349 -3.216,8.2697 -4.7912,12.4045 5.8413,4.0692 11.6825,8.2037 17.5238,12.2077 3.4129,-8.7292 6.7601,-17.3926 10.173,-26.1217 z"
     id="path1538"
     fill="#5e5858" /><path
     d="m 55.7876,74.6894 c 2.8222,-0.1313 5.71,-0.3282 8.5322,-0.4595 6.6288,-3.6754 13.2577,-7.2851 19.9521,-10.9605 -6.0381,0.3281 -12.0106,0.5907 -18.0488,0.9188 -3.4785,3.4785 -6.957,6.957 -10.4355,10.5012 z"
     id="path1540"
     fill="#8c8c8c" /><path
     d="m 52.703,104.158 c -2.8878,0.197 -5.71,0.394 -8.5978,0.591 -0.9845,7.81 -1.9033,15.555 -2.7566,23.299 6.1038,-0.525 12.142,-0.984 18.3114,-1.444 -2.3628,-7.416 -4.6599,-14.898 -6.957,-22.446 z"
     id="path1542"
     fill="#3b3939" /><path
     d="m 59.6596,126.67 c -2.3627,-7.416 -4.6598,-14.964 -6.957,-22.446 3.1504,-3.019 6.3007,-6.104 9.4511,-9.1887 5.8412,4.0692 11.6825,8.2037 17.5237,12.2077 -6.6288,6.432 -13.3233,12.929 -20.0178,19.427 z"
     id="path1544"
     fill="#4f4949" /><path
     d="m 41.5452,96.4136 c 0.8532,2.7566 1.7064,5.5784 2.5596,8.4014 -0.9845,7.81 -1.9033,15.554 -2.7565,23.299 -1.9034,-5.907 -3.8067,-11.814 -5.5788,-17.786 1.8377,-4.66 3.8067,-9.255 5.7757,-13.9144 z"
     id="path1546"
     fill="#5e5858" /><path
     d="m 453.255,254.521 c -11.748,0.591 -52.374,8.795 -64.122,9.451 30.059,20.937 46.533,32.029 76.855,52.244 l 95.954,-9.517 C 517.575,283.596 497.229,278.411 453.255,254.521 Z"
     id="path1548"
     fill="#4f4949" /><path
     d="m 446.495,246.842 c 2.232,2.56 4.463,5.12 6.76,7.679 -11.748,0.591 -52.374,8.795 -64.122,9.451 -2.626,-3.806 -5.251,-7.679 -7.876,-11.551 12.142,0.656 53.096,-6.301 65.238,-5.579 z"
     id="path1550"
     fill="#706c6c" /><polygon
     id="polygon1552"
     fill="#d9d9d9"
     points="561.877,306.765 453.256,254.521 446.496,246.842 554.985,299.545 " /><polygon
     id="polygon1554"
     fill="#d9d9d9"
     points="364.324,299.545 448.727,351.394 500.839,419.652 396.55,353.954 " /><polygon
     id="polygon1556"
     fill="#8c8c8c"
     points="355.332,310.834 391.495,360.911 396.549,353.954 364.324,299.545 " /><polygon
     id="polygon1558"
     fill="#706c6c"
     points="496.901,424.705 391.496,360.911 396.549,353.954 500.839,419.652 " /><path
     d="m 5.25057,52.1119 c 16.34243,10.698 33.27553,19.2958 49.74913,29.797 0.1313,0.525 0.2625,1.0501 0.4594,1.5095 0.1313,0.5251 0.2626,0.9845 0.5251,1.5095 -0.3282,0.722 -0.6563,1.4439 -0.9189,2.2315 -0.3281,0.722 -0.5906,1.5096 -0.8532,2.2315 -0.5907,0.5251 -1.1814,1.0501 -1.6408,1.6408 -0.5907,0.5251 -1.1814,1.1158 -1.7064,1.6408 -0.5251,0.0657 -1.0501,0.0657 -1.5096,0.0657 -0.525,0.0656 -1.0501,0.0656 -1.5095,0.0656 C 32.3566,80.8587 16.3424,70.817 0.984482,58.6751 0.590689,57.7562 0.262528,56.7061 0,55.7216 0.721953,54.6059 1.44391,53.4902 2.16586,52.3744 3.15034,52.2431 4.13482,52.1775 5.25057,52.1119 Z"
     id="path1560"
     fill="#3b3939" /><polygon
     id="polygon1562"
     fill="#8c8c8c"
     points="413.154,391.955 344.766,360.911 350.935,359.401 418.142,392.349 " /><polygon
     id="polygon1564"
     fill="#5e5858"
     points="344.766,360.911 350.935,359.402 339.45,321.991 328.489,316.872 " /><polygon
     id="polygon1566"
     fill="#5e5858"
     points="252.814,172.875 361.37,254.521 358.154,235.422 202.54,111.968 202.475,111.903 208.644,131.658 245.595,157.255 " /><polygon
     id="polygon1568"
     fill="#3b3939"
     points="235.159,204.575 230.827,207.66 369.245,302.17 361.369,254.521 252.814,172.875 " /><polygon
     id="polygon1570"
     fill="#3b3939"
     points="301.251,269.157 314.771,276.443 306.042,293.244 351.262,318.644 371.083,313.459 369.246,302.17 230.828,207.66 189.217,237.457 198.865,246.383 265.547,272.505 279.067,279.527 " /><polygon
     id="polygon1572"
     fill="#5a7596"
     points="346.931,327.964 363.47,318.053 354.544,306.239 324.157,315.362 " /><path
     d="m 264.038,286.484 -5.842,-2.822 14.177,-7.613 6.76,3.478 z m 42.004,6.76 45.811,25.203 -12.404,7.416 -26.975,-16.473 z"
     id="Shape"
     fill="#3b3939" /><polygon
     id="polygon1575"
     fill="#f5f5f5"
     points="368.589,314.969 363.995,317.725 354.544,306.239 " /><polygon
     id="polygon1577"
     fill="#7790ae"
     points="346.537,318.513 352.575,324.551 363.995,317.725 354.544,306.239 " /><polygon
     id="polygon1579"
     fill="#5a7596"
     points="332.623,336.496 334.592,335.38 330.522,333.28 " /><polygon
     id="polygon1581"
     fill="#310401"
     points="145.703,247.63 189.611,239.098 235.882,211.86 260.559,182.26 257.868,152.792 289.963,130.477 350.869,127.261 372.987,162.702 420.045,197.421 442.36,243.101 419.52,300.595 393.333,319.432 397.009,324.485 389.133,336.102 335.774,346.144 304.861,329.408 302.892,311.884 320.219,309.915 308.536,299.611 328.226,266.138 309.324,256.95 238.507,293.901 195.715,287.797 160.339,270.273 " /><polygon
     id="polygon1583"
     fill="#cb3805"
     points="309.718,327.176 335.052,341.287 386.18,331.902 391.102,324.616 388.149,320.547 364.39,334.264 415.583,297.51 436.979,243.495 417.224,201.294 369.443,166.181 348.31,132.183 291.604,135.202 262.922,155.154 265.548,183.836 239.032,215.602 191.318,243.626 153.645,250.977 163.687,266.532 197.159,283.137 237.654,288.913 324.354,243.626 312.737,253.209 331.442,262.332 346.144,245.136 314.706,298.626 355.726,334.658 327.439,318.644 307.421,313.984 " /><polygon
     id="polygon1585"
     fill="#780500"
     points="321.86,174.253 273.03,148.132 262.922,155.154 265.548,183.836 255.834,195.518 282.874,177.075 " /><polygon
     id="polygon1587"
     fill="#401715"
     points="255.047,225.84 220.787,226.365 191.318,243.626 153.645,250.977 163.687,266.532 197.159,283.137 237.654,288.913 247.827,283.596 267.385,241.132 " /><polygon
     id="polygon1589"
     fill="#ed6437"
     points="417.223,201.294 369.443,166.181 348.31,132.183 291.603,135.202 290.225,136.974 360.911,201.556 392.677,204.247 365.374,232.994 394.777,258.919 436.978,243.495 " /><polygon
     id="polygon1591"
     fill="#401715"
     points="327.373,316.15 307.421,313.984 308.537,326.52 335.052,341.287 386.179,331.902 391.102,324.616 388.148,320.547 364.39,334.264 415.583,297.51 424.509,275.064 355.726,317.988 318.775,291.735 314.706,298.626 355.726,334.658 " /><polygon
     id="polygon1593"
     fill="#780500"
     points="321.335,246.12 343.059,248.811 331.442,262.332 312.737,253.209 " /><path
     d="m 294.294,5.77563 -5.644,23.89007 30.65,16.8018 56.05,17.1957 14.702,12.2732 -25.597,23.5619 1.772,12.8637 -7.679,21.528 -21.133,6.038 0.59,26.974 -8.729,-7.81 -1.903,16.277 L 273.03,164.343 244.151,152.529 211.795,130.608 173.203,91.0317 185.87,80.6619 174.581,77.4459 197.553,63.4006 191.252,42.3327 205.232,24.2839 219.408,19.4927 275.983,0 c 6.563,2.0346 10.632,3.34724 18.311,5.77563 z"
     id="path1595"
     fill="#310401" /><path
     d="m 333.936,62.6131 c 64.517,-25.2684 -3.544,78.6929 -1.378,72.9169 l -1.707,-0.393 -0.262,-1.773 c -2.822,-19.82 -15.161,-61.6937 3.347,-70.7509 z"
     id="path1597"
     fill="#310401" /><path
     d="M 264.563,24.6121 C 226.891,-5.70999 192.499,81.8433 203.919,65.0414 l 1.247,1.247 1.641,-0.7219 c 18.18,-8.2697 60.119,-20.4116 57.756,-40.9544 z"
     id="path1599"
     fill="#310401" /><polygon
     id="polygon1601"
     fill="#cb3805"
     points="225.381,41.6108 235.357,44.0391 239.36,33.9318 241.592,42.3983 263.513,26.9748 263.776,31.1752 281.693,31.6347 319.563,52.3088 330.589,61.2348 331.377,91.5568 339.712,88.8659 333.346,97.7262 340.762,104.814 331.639,104.289 332.82,156.533 325.47,149.904 323.041,170.118 274.999,161.258 242.839,146.622 213.239,127.458 179.832,91.7537 195.649,78.8242 186.067,76.1332 230.697,49.0272 " /><polygon
     id="polygon1603"
     fill="#780500"
     points="205.626,119.319 213.239,127.458 245.661,150.298 274.999,161.258 303.811,145.113 309.456,106.587 289.504,121.813 275.196,121.091 260.101,104.88 238.311,100.877 221.706,76.724 232.404,61.4317 203.919,90.1785 " /><polygon
     id="polygon1605"
     fill="#ed6437"
     points="331.639,104.289 332.821,156.533 325.47,149.904 323.041,170.118 301.055,166.049 319.038,162.505 331.245,85.5186 331.639,85.5843 331.377,91.5568 339.712,88.8659 333.346,97.7262 340.762,104.814 " /><polygon
     id="polygon1607"
     fill="#fee7d5"
     points="224.199,135.071 212.254,108.752 218.686,94.7071 228.925,92.8694 244.939,92.2787 257.606,99.1701 265.416,116.694 275.721,121.944 275.064,137.04 250.977,149.772 245.202,149.969 " /><polygon
     id="polygon1609"
     fill="#f0bc95"
     points="212.254,108.752 216.914,100.023 219.408,105.471 219.933,109.081 222.034,124.242 240.345,135.071 262.594,125.882 275.064,137.04 250.977,149.772 245.202,149.969 224.199,135.071 " /><polygon
     id="polygon1611"
     fill="#f0bc95"
     points="278.083,59.0689 291.997,63.9257 282.481,80.0712 269.485,77.0521 " /><polygon
     id="polygon1613"
     fill="#f0bc95"
     points="293.507,68.4543 285.631,81.6463 291.21,84.0091 296.395,78.1022 " /><polygon
     id="polygon1615"
     fill="#fee7d5"
     points="372.265,69.1106 382.438,77.6428 357.498,97.7262 360.78,110.984 343.584,125.226 357.498,120.369 354.544,130.411 335.971,135.727 331.901,113.675 346.997,110.196 346.931,94.904 362.355,79.2179 331.245,85.5186 325.404,73.9674 330.589,61.2347 " /><path
     d="m 335.971,135.727 -4.135,-22.052 15.095,-3.479 -0.065,-15.3576 15.489,-15.6861 -12.733,17.13 2.888,12.4697 -8.926,16.408 z m 26.384,-56.509 -31.11,6.3007 -5.841,-11.5513 8.138,6.432 z"
     id="path1617"
     fill="#f0bc95" /><polygon
     id="polygon1619"
     fill="#780500"
     points="372.266,69.1106 330.589,61.2348 319.563,52.3088 " /><polygon
     id="polygon1621"
     fill="#310401"
     points="243.955,92.6069 238.77,93.7883 229.45,84.0748 228.728,80.2025 238.507,76.2645 244.545,81.9089 " /><polygon
     id="polygon1623"
     fill="#780500"
     points="232.337,81.9745 238.572,79.4149 243.232,84.1404 241.92,91.0974 237.654,92.5413 231.55,86.2406 " /><polygon
     id="polygon1625"
     fill="#310401"
     points="234.372,83.2215 238.901,81.6463 242.445,84.9936 241.658,89.5878 237.129,90.9005 233.65,87.8814 " /><polygon
     id="polygon1627"
     fill="#fee7d5"
     points="238.704,82.4339 241.592,81.5807 243.364,83.2871 242.839,86.0437 240.28,86.8313 238.311,85.0592 " /><polygon
     id="polygon1629"
     fill="#fee7d5"
     points="243.364,92.8038 247.433,91.2287 248.746,80.465 238.835,71.3421 227.021,75.6082 228.728,80.2025 237.851,76.5927 244.545,81.8433 " /><polygon
     id="polygon1631"
     fill="#310401"
     points="279.921,110.656 282.481,109.54 278.018,98.3826 268.698,96.7418 259.969,103.305 264.957,109.277 " /><polygon
     id="polygon1633"
     fill="#fee7d5"
     points="315.69,152.988 313.262,142.094 319.366,145.309 309.455,106.587 300.398,147.016 274.999,161.258 301.054,166.049 " /><polygon
     id="polygon1635"
     fill="#ed6437"
     points="257.212,88.8003 253.209,86.6344 244.939,92.2788 257.606,99.1701 261.15,90.9661 " /><polygon
     id="polygon1637"
     fill="#780500"
     points="279.134,107.112 276.508,100.023 268.829,98.5794 263.973,103.699 266.335,109.277 275.721,110.262 " /><polygon
     id="polygon1639"
     fill="#310401"
     points="276.771,105.733 275.064,101.008 270.01,100.023 266.794,103.436 268.698,107.965 273.489,109.081 " /><polygon
     id="polygon1641"
     fill="#fee7d5"
     points="271.783,103.042 270.601,100.089 268.042,99.6295 266.138,101.73 267.188,104.289 269.945,104.946 " /><polygon
     id="polygon1643"
     fill="#ed6437"
     points="315.362,50.0117 298.757,40.9545 282.218,31.8972 274.342,48.1084 " /><polygon
     id="polygon1645"
     fill="#f0bc95"
     points="310.309,150.429 313.262,142.094 315.69,152.989 301.054,166.049 274.999,161.258 284.384,155.942 300.398,157.255 " /><polygon
     id="polygon1647"
     fill="#fee7d5"
     points="278.083,59.0689 270.667,74.6894 277.755,75.5426 291.997,63.9257 " /><polygon
     id="polygon1649"
     fill="#fee7d5"
     points="289.503,80.465 296.395,78.1022 293.507,68.4543 " /><polygon
     id="polygon1651"
     fill="#ed6437"
     points="230.697,49.0272 186.067,76.1333 195.649,78.8242 179.832,91.7537 195.124,108.096 188.43,91.0318 246.711,39.248 246.449,38.9199 241.592,42.3984 239.36,33.9318 235.357,44.0392 225.381,41.6108 " /><polygon
     id="polygon1653"
     fill="#f0bc95"
     points="272.045,55.4591 261.675,44.958 251.174,60.4472 259.378,70.9483 " /><polygon
     id="polygon1655"
     fill="#f0bc95"
     points="255.375,49.0928 246.843,61.8911 242.314,57.8219 245.399,50.6024 " /><polygon
     id="polygon1657"
     fill="#780500"
     points="288.453,9.77917 263.775,31.1752 281.693,31.6347 " /><polygon
     id="polygon1659"
     fill="#fee7d5"
     points="194.73,79.6118 201.097,76.724 195.124,73.3111 233.06,60.7754 203.919,90.1785 205.625,119.319 191.121,102.452 " /><polygon
     id="polygon1661"
     fill="#f0bc95"
     points="199.259,82.6965 201.097,76.7239 194.73,79.6118 191.121,102.452 205.625,119.319 204.969,108.49 197.487,98.7107 " /><polygon
     id="polygon1663"
     fill="#fee7d5"
     points="272.045,55.4591 261.084,68.8481 257.278,62.8099 261.675,44.958 " /><polygon
     id="polygon1665"
     fill="#fee7d5"
     points="246.252,57.8219 245.398,50.6024 255.375,49.0928 " /><polygon
     id="polygon1667"
     fill="#fee7d5"
     points="288.453,9.77916 275.786,5.7756 222.296,23.7588 209.367,28.0905 206.61,50.2742 203.197,35.9664 196.372,43.7766 201.885,62.2849 222.69,53.8839 217.439,39.3136 230.435,31.1096 262.397,21.8555 246.449,38.9198 263.776,31.1752 268.961,25.5965 " /><path
     d="m 201.885,62.2849 20.805,-8.4009 -5.185,-14.636 12.93,-8.204 31.963,-9.2541 -34.72,7.8102 -12.01,4.2661 -8.992,16.408 z m 60.513,-40.4294 -15.883,17.13 17.326,-7.8102 -7.219,0.6563 z"
     id="path1669"
     fill="#f0bc95" /><polygon
     id="polygon1671"
     fill="#fee7d5"
     points="259.969,103.305 258.525,99.0389 267.648,92.6725 280.38,94.2477 287.337,108.227 282.481,109.54 278.018,98.3825 267.976,97.2668 " /><polygon
     id="polygon1673"
     fill="#310401"
     points="216.52,105.34 216.914,100.023 218.817,99.5639 220.524,105.733 228.924,108.162 230.762,107.702 233.125,103.174 228.924,91.9506 231.222,90.3754 238.901,96.0854 247.892,99.4983 247.761,102.255 236.078,104.814 233.519,109.212 234.109,110.984 243.364,119.713 259.312,123.06 262.791,120.172 264.038,121.223 262.331,126.67 259.115,125.16 240.935,122.47 230.106,112.1 227.152,111.443 219.933,109.081 219.408,105.471 " /><polygon
     id="polygon1675"
     fill="#f0bc95"
     points="256.753,98.7107 244.939,92.2788 231.222,90.3754 238.769,96.348 247.892,99.4983 " /><polygon
     id="polygon1677"
     fill="#310401"
     points="164.409,240.148 166.903,252.881 142.422,253.996 138.025,249.468 122.995,244.48 121.551,238.704 110.919,233.65 110.722,217.636 133.693,214.748 148.001,226.234 148.066,226.234 163.227,237.26 163.949,237.785 " /><polygon
     id="polygon1679"
     fill="#401715"
     points="141.24,227.94 131.592,233.453 146.491,232.01 155.089,238.31 147.607,241.789 159.158,242.576 160.142,247.564 144.653,248.286 141.109,244.611 127.654,240.148 126.342,234.766 116.497,230.106 116.366,222.559 132.052,220.59 " /><polygon
     id="polygon1681"
     fill="#8c8c8c"
     points="374.234,138.221 464.15,192.105 646.411,311.621 469.992,185.673 " /><polygon
     id="polygon1683"
     fill="#8c8c8c"
     points="218.03,315.756 299.873,366.621 479.18,461 288.322,369.049 " /><polygon
     id="polygon1685"
     fill="#8c8c8c"
     points="163.228,252.815 211.205,284.318 311.753,344.437 209.104,289.109 " /></g><g
   id="g2267"><ellipse
     style="fill:#bababa;fill-opacity:0.245399;stroke:none;stroke-width:10.4455;stroke-linecap:round;stroke-dasharray:none"
     id="ellipse382"
     cx="278.88113"
     cy="293.53912"
     rx="226.70984"
     ry="30.377993" /><path
     style="fill:#ff9097;fill-opacity:1;stroke:none;stroke-width:1px;stroke-linecap:butt;stroke-linejoin:miter;stroke-opacity:1"
     d="m 125.33749,217.40512 c 0,0 -45.223665,-1.50628 -52.586914,14.80603 -7.36324,16.3123 7.388169,39.18072 18.379899,41.8653 10.991725,2.68459 45.439165,-19.91154 45.439165,-19.91154 z"
     id="path384"
     sodipodi:nodetypes="czzcc" /><path
     style="fill:#996554;fill-opacity:1;stroke:none;stroke-width:1px;stroke-linecap:butt;stroke-linejoin:miter;stroke-opacity:1"
     d="m 74.192096,184.07282 c -6.51731,2.98561 6.403639,40.88866 14.591469,59.02514 8.1878,18.13648 24.141165,53.24073 33.615755,49.2747 9.47459,-3.96603 -4.56765,-40.50306 -12.79989,-58.69889 -8.23222,-18.19583 -28.890015,-52.58656 -35.407334,-49.60095 z"
     id="path386"
     sodipodi:nodetypes="zzzzz" /><path
     style="fill:#915d4b;fill-opacity:1;stroke:none;stroke-width:1px;stroke-linecap:butt;stroke-linejoin:miter;stroke-opacity:1"
     d="m 74.192096,184.07282 c 11.502669,3.73901 56.717144,85.39105 48.207224,108.29984 9.47459,-3.96603 -4.56765,-40.50306 -12.79989,-58.69889 -8.23222,-18.19583 -28.890005,-52.58656 -35.407334,-49.60095 z"
     id="path388"
     sodipodi:nodetypes="cczc" /><path
     style="fill:#f7f2f1;fill-opacity:1;stroke:none;stroke-width:1px;stroke-linecap:butt;stroke-linejoin:miter;stroke-opacity:1"
     d="m 70.925896,175.76133 c -3.11773,1.33148 -1.2892,7.45931 0.19176,11.04675 1.48097,3.58744 1.89701,10.6108 1.89701,10.6108 l 11.711689,-5.7628 c 0,0 -5.05566,-6.75642 -6.548379,-9.46327 -1.49271,-2.70684 -4.13436,-7.76296 -7.25208,-6.43148 z"
     id="path390"
     sodipodi:nodetypes="zzcczz" /><path
     style="fill:#e9e9e9;fill-opacity:1;stroke:none;stroke-width:1px;stroke-linecap:butt;stroke-linejoin:miter;stroke-opacity:1"
     d="m 70.925896,175.76133 c 8.554159,11.35786 9.212349,18.13941 13.800469,15.89475 0,0 -5.05567,-6.75642 -6.548379,-9.46327 -1.49272,-2.70684 -4.13437,-7.76296 -7.25209,-6.43148 z"
     id="path392"
     sodipodi:nodetypes="cczc" /><path
     style="fill:#784230;fill-opacity:1;stroke:none;stroke-width:1.27727px;stroke-linecap:butt;stroke-linejoin:miter;stroke-opacity:1"
     d="m 43.037554,122.84562 c -2.281501,3.73231 6.865758,14.43978 5.386349,21.48743 -1.479408,7.04767 -1.732898,13.70296 2.407375,21.4339 4.140287,7.73094 13.563838,18.66399 21.506978,16.64567 7.943149,-2.0183 2.5448,-5.35927 4.6704,-10.63471 2.12559,-5.27544 7.621129,-8.45366 2.00693,-20.77958 -5.61418,-12.3259 -33.696545,-31.88502 -35.978032,-28.15271 z"
     id="path394"
     sodipodi:nodetypes="zzzzzzz" /><path
     style="fill:#ffc8c9;fill-opacity:1;stroke:none;stroke-width:1px;stroke-linecap:butt;stroke-linejoin:miter;stroke-opacity:1"
     d="m 113.47288,171.78335 c 10.5045,-55.7515 66.66745,-94.9234 137.869,-94.30001 71.20155,0.62338 110.5812,23.8062 142.04687,66.84558 31.46566,43.03938 78.8752,131.22297 31.63227,158.16142 -47.2429,26.93844 -86.56549,-2.69217 -120.56077,-7.16203 -33.99527,-4.46986 -37.08571,4.88873 -62.07089,2.98418 -24.98519,-1.90455 -19.16548,-6.41419 -35.81014,-7.75886 -16.64465,-1.34467 -25.94265,14.68179 -62.66773,4.17785 -36.72507,-10.50395 -40.94312,-67.19663 -30.43861,-122.94813 z"
     id="path396"
     sodipodi:nodetypes="zzzzzzzzz" /><path
     style="fill:#fdbcbe;fill-opacity:1;stroke:none;stroke-width:1px;stroke-linecap:butt;stroke-linejoin:miter;stroke-opacity:1"
     d="m 320.11241,87.84397 c 31.25241,10.77908 53.78304,29.82161 73.27634,56.48495 31.46566,43.03938 78.8752,131.22297 31.63227,158.16142 -47.2429,26.93844 -86.56549,-2.69217 -120.56077,-7.16203 223.85031,63.02387 125.81791,-132.64336 15.65216,-207.48434 z"
     id="path398"
     sodipodi:nodetypes="cszcc" /><path
     id="path568"
     style="fill:#ffffff;stroke-width:0.724436"
     d="m 149.87986,174.76394 c 0,4.53433 1.01405,8.83945 2.83466,12.71458 14.11279,10.60377 39.18288,9.14477 52.83485,7.56307 4.90971,-5.41319 7.88632,-12.50902 7.88632,-20.27765 0,-6.84098 -9.26547,-11.30075 -15.09903,-16.32601 -5.83354,-5.02527 -25.11942,-11.98927 -41.39197,-3.00862 -4.41826,5.28226 -7.06482,12.00935 -7.06483,19.33463 z"
     sodipodi:nodetypes="sccszcs" /><path
     id="path570"
     style="fill:#000000;stroke-width:0.836411"
     d="m 157.50456,173.14478 c 0,12.66386 10.81376,22.92994 24.15321,22.92994 13.33945,0 24.15321,-10.26608 24.15321,-22.92994 0,-9.54794 -6.14701,-17.73289 -14.88895,-21.18263 -2.85288,-1.12581 -5.98212,-1.74731 -9.26426,-1.74731 -3.33431,0 -6.51082,0.64142 -9.40009,1.80137 -8.66971,3.48063 -14.75312,11.63015 -14.75312,21.12857 z"
     sodipodi:nodetypes="sssssss" /><path
     id="path578"
     style="fill:#ffffff;stroke-width:2.79517"
     d="m 200.13297,164.87698 c 2.83372,5.61262 1.05246,15.13784 -4.3666,14.629 -4.16187,-0.39078 -2.43495,-4.73626 -5.26867,-10.34889 -2.83372,-5.6126 -9.3204,-3.02058 -6.44895,-10.7983 2.64974,-7.17722 13.25054,0.90554 16.08427,6.51817 z"
     sodipodi:nodetypes="ssssss" /><ellipse
     style="fill:#ffffff;stroke-width:3"
     id="ellipse580"
     cx="193.39522"
     cy="185.98563"
     rx="3.0828464"
     ry="3.3294742" /><path
     style="fill:none;stroke:#000000;stroke-width:4;stroke-linecap:round;stroke-linejoin:miter;stroke-dasharray:none;stroke-opacity:1"
     d="m 152.30602,187.37094 c 0,0 8.98899,6.92234 24.03413,8.39901 15.04514,1.47667 29.52371,-0.64133 29.52371,-0.64133"
     id="path1201"
     sodipodi:nodetypes="czc" /><path
     style="fill:none;stroke:#000000;stroke-width:4;stroke-linecap:round;stroke-linejoin:miter;stroke-dasharray:none;stroke-opacity:1"
     d="m 156.7816,154.84835 c 0,0 10.59424,-7.97522 29.00269,-3.47073 6.76225,1.6547 12.43822,6.91726 16.34718,10.45977 6.73215,6.10103 11.34089,11.21167 11.34089,11.21167"
     id="path1203"
     sodipodi:nodetypes="cssc" /><path
     id="path1205"
     style="fill:#ffffff;stroke-width:0.724436"
     d="m 344.98567,174.76394 c 0,4.53433 -1.01405,8.83945 -2.83466,12.71458 -3.38119,-0.31042 -7.9754,1.80241 -12.07132,3.10774 -13.85262,4.41471 -30.22698,5.67608 -40.76353,4.45533 -4.90971,-5.41319 -7.88632,-12.50902 -7.88632,-20.27765 0,-6.84098 5.10362,-14.57078 14.50448,-20.78516 9.40086,-6.21438 25.71398,-7.53012 41.98653,1.45053 4.41826,5.28226 7.06482,12.00935 7.06482,19.33463 z"
     sodipodi:nodetypes="scscszcs" /><path
     id="path1207"
     style="fill:#000000;stroke-width:0.836411"
     d="m 337.36097,173.14478 c 0,12.66386 -10.81376,22.92994 -24.15321,22.92994 -13.33945,0 -24.15321,-10.26608 -24.15321,-22.92994 0,-9.54794 6.14701,-17.73289 14.88895,-21.18263 2.85288,-1.12581 5.98212,-1.74731 9.26426,-1.74731 3.33431,0 6.51082,0.64142 9.40009,1.80137 8.66971,3.48063 14.75312,11.63015 14.75312,21.12857 z"
     sodipodi:nodetypes="sssssss" /><path
     style="fill:none;stroke:#000000;stroke-width:4;stroke-linecap:round;stroke-linejoin:miter;stroke-dasharray:none;stroke-opacity:1"
     d="m 342.55951,187.37094 c -6.52143,-1.22291 -9.59413,1.52959 -15.82605,3.55765 -4.28398,1.39413 -11.27513,5.04918 -17.95415,5.28854 -12.3034,0.42775 -19.77764,-1.08851 -19.77764,-1.08851"
     id="path1213"
     sodipodi:nodetypes="cscc" /><g
     id="g1219"
     transform="matrix(-1,0,0,1,619.45417,600.21506)"><path
       id="path1209"
       style="fill:#ffffff;stroke-width:2.79517"
       d="m 288.1397,-436.04191 c -2.83372,5.61262 -1.05246,15.13784 4.3666,14.629 4.16187,-0.39078 2.43495,-4.73626 5.26867,-10.34889 2.83372,-5.6126 9.3204,-3.02058 6.44895,-10.7983 -2.64974,-7.17722 -13.25054,0.90554 -16.08427,6.51817 z"
       sodipodi:nodetypes="ssssss" /><ellipse
       style="fill:#ffffff;stroke-width:3"
       id="ellipse1211"
       cx="-294.87744"
       cy="-414.93326"
       rx="3.0828464"
       ry="3.3294742"
       transform="scale(-1,1)" /></g><path
     style="fill:#4083b3;fill-opacity:1;stroke:none;stroke-width:1px;stroke-linecap:butt;stroke-linejoin:miter;stroke-opacity:1"
     d="m 119.18003,56.25437 c 7.9538,-39.90089 124.47354,-28.32597 140.6059,-29.38663 16.13238,-1.06067 100.60752,16.7791 120.51986,38.64202 45.4071,49.85515 51.33731,77.87114 55.77283,105.21208 0.68329,4.2119 2.78514,16.79208 0.57553,21.09709 -6.10329,11.89113 -18.64666,18.10204 -48.91935,0.44677 -17.03623,-9.93566 -19.90975,-26.47054 -35.88711,-34.24297 -24.38048,-11.86024 -65.59556,-22.59462 -82.38743,-26.35962 -21.95632,-4.92294 -40.80752,-9.43704 -54.47135,-13.5441 -10.47095,-3.14736 -20.7488,-1.45299 -31.01202,2.30521 -23.65597,8.66237 -58.32009,21.85213 -61.74042,13.19916 -1.68833,-4.27124 4.7914,-12.98781 5.82868,-15.04627 1.03923,-6.28466 0.97943,-21.56753 0.75891,-24.59815 -7.92885,-7.06634 -13.6677,-17.53955 -9.64403,-37.72459 z"
     id="path426"
     sodipodi:nodetypes="szsssssssssccs" /><path
     style="fill:#4794cc;fill-opacity:1;stroke:none;stroke-width:1px;stroke-linecap:butt;stroke-linejoin:miter;stroke-opacity:1"
     d="m 117.46914,63.52569 c 2.22508,-52.97089 93.88145,-41.94039 140.98377,-38.49087 47.10232,3.44952 100.35211,21.32969 113.09934,32.65314 12.74723,11.32345 71.13858,80.82801 56.43105,116.44749 -3.84402,9.30967 -23.29382,-0.80927 -43.51411,-19.07599 -41.14792,-3.36252 -87.52715,-12.39883 -115.99061,-19.30484 -16.39884,-3.9788 -88.60129,-19.95173 -112.14244,-25.47069 -30.35445,-7.11626 -40.02121,-19.28065 -38.867,-46.75824 z"
     id="path428"
     sodipodi:nodetypes="szzscsss" /><path
     style="fill:#4794cc;fill-opacity:1;stroke:none;stroke-opacity:1"
     d="m 381.05495,41.03726 c 3.20817,-0.74148 12.61631,5.56956 12.40402,8.98222 -0.21231,3.41266 -9.82245,11.87011 -11.28125,18.36543 -1.45879,6.49532 -8.3874,-6.9639 -8.30052,-7.21786 0.0869,-0.25396 3.96957,-19.38831 7.17775,-20.12979 z"
     id="path430"
     sodipodi:nodetypes="zzzzz" /><path
     style="fill:#4083b3;fill-opacity:1;stroke:none;stroke-opacity:1"
     d="m 387.81486,43.80987 c 1.12885,0.3927 5.8564,2.79695 5.6441,6.20961 -0.2123,3.41266 -9.82244,11.87011 -11.28124,18.36543 -0.76976,3.42736 -4.49043,-0.86175 -5.04386,-1.51405 -0.55343,-0.6523 6.70722,-7.63283 10.0083,-16.27264 1.04352,-3.84516 -0.22798,-7.10167 0.6727,-6.78835 z"
     id="path432"
     sodipodi:nodetypes="szszcs" /><path
     style="fill:#ffc8c9;fill-opacity:1;stroke:#d89497;stroke-width:4;stroke-linecap:round;stroke-linejoin:miter;stroke-dasharray:none;stroke-opacity:1"
     d="m 216.92336,148.82914 c 0,0 -23.82241,43.1116 -2.54242,65.63581 21.27999,22.52422 42.78773,-0.6882 42.78773,-0.6882"
     id="path434"
     sodipodi:nodetypes="czc" /><path
     style="fill:#b16165;fill-opacity:1;stroke:none;stroke-width:1px;stroke-linecap:butt;stroke-linejoin:miter;stroke-opacity:1"
     d="m 226.175,267.3501 c -4.14351,-2.65591 -13.2914,-13.17209 -13.20502,-16.11581 0.0864,-2.94372 11.66008,-12.46385 16.08416,-12.41585 4.42408,0.048 6.71825,4.79704 10.59506,4.79704 3.8768,0 6.17097,-4.74904 10.59505,-4.79704 4.42408,-0.048 25.00216,-1.48973 29.395,4.58595 4.39285,6.07568 -15.32543,20.11531 -19.46894,22.77122 -4.14351,2.65591 -20.52111,3.68246 -20.52111,3.68246 0,0 -9.33069,0.14794 -13.4742,-2.50797 z"
     id="path436"
     sodipodi:nodetypes="zzzzzzzcz" /><path
     style="fill:#ff9097;fill-opacity:1;stroke:none;stroke-width:1px;stroke-linecap:butt;stroke-linejoin:miter;stroke-opacity:1"
     d="m 390.50997,227.4856 c -2.67228,7.82683 9.52517,33.32544 11.32227,59.62189 1.7971,26.29644 51.03767,1.3637 56.42495,-13.33126 5.38727,-14.69495 -31.97043,-61.53595 -31.97043,-61.53595 0,0 -33.10449,7.41849 -35.77679,15.24532 z"
     id="path438"
     sodipodi:nodetypes="zzzcz" /><path
     style="fill:#ff8088;fill-opacity:1;stroke:none;stroke-width:1px;stroke-linecap:butt;stroke-linejoin:miter;stroke-opacity:1"
     d="m 427.86302,296.10948 c 13.46235,-4.65963 27.64368,-14.83074 30.39416,-22.33325 5.38728,-14.69495 -31.97043,-61.53595 -31.97043,-61.53595 25.27527,48.19441 52.57353,58.86932 1.57627,83.8692 z"
     id="path440"
     sodipodi:nodetypes="cscc" /><path
     id="path442"
     style="fill:#ffd59e;fill-opacity:1;stroke:none;stroke-width:1px;stroke-linecap:butt;stroke-linejoin:miter;stroke-opacity:1"
     d="m 448.08616,173.99924 c -5.23881,0.0269 -10.2627,0.41776 -14.82227,1.02343 -24.3177,3.23024 -55.77563,24.88481 -50.09961,44.69336 5.67602,19.80857 41.55603,2.80277 48.65821,19.82422 7.10216,17.02146 -23.18822,19.37283 -13.33594,38.20508 9.85228,18.83226 50.35067,8.00714 67.40039,-6.48828 17.04972,-14.49543 34.73487,-33.15713 21.98632,-64.87695 -10.3582,-25.77236 -37.08562,-32.49754 -59.7871,-32.38086 z m 1.20898,82.13476 a 12.432294,9.5410633 0 0 1 12.43164,9.54102 12.432294,9.5410633 0 0 1 -12.43164,9.54101 12.432294,9.5410633 0 0 1 -12.43359,-9.54101 12.432294,9.5410633 0 0 1 12.43359,-9.54102 z" /><path
     style="fill:#2ba9a8;fill-opacity:1;stroke:none;stroke-width:1.56243px;stroke-linecap:butt;stroke-linejoin:miter;stroke-opacity:1"
     d="m 469.19808,240.8363 c -5.38669,-1.00856 -14.24561,9.49125 -20.06401,7.72626 -5.8184,-1.76509 -7.60186,-7.16606 -11.06544,-12.01645 -3.46357,-4.85039 -10.42503,-9.86634 -9.36863,-16.97575 1.05645,-7.10941 12.90219,-3.17515 15.98038,-9.6766 3.07815,-6.50149 -3.97566,-20.55757 0.15062,-23.96867 4.12662,-3.41132 7.2104,5.51508 12.08166,6.73205 4.8713,1.21686 11.61552,-3.91367 16.49784,-0.77486 4.88232,3.13873 4.87462,10.96176 9.53798,16.09492 4.66337,5.13326 17.96487,2.89769 18.37971,12.62506 0.41482,9.72737 -17.54448,6.06031 -20.91091,12.12988 -3.36636,6.06952 1.80473,13.68648 -1.51819,15.62245 -3.32275,1.93618 -4.3144,-6.50973 -9.7011,-7.51825 z"
     id="path444"
     sodipodi:nodetypes="zzzzzzzzzzzzz" /><path
     id="path446"
     style="fill:#f0c48a;fill-opacity:1;stroke:none;stroke-width:1px;stroke-linecap:butt;stroke-linejoin:miter;stroke-opacity:1"
     d="m 448.08616,173.99924 c 93.40218,12.7011 66.35958,103.53909 -12.62782,113.55216 16.28016,1.76521 38.80428,-6.41153 50.4286,-16.29435 17.04972,-14.49542 34.73487,-33.15713 21.98632,-64.87695 -10.3582,-25.77236 -37.08562,-32.49754 -59.7871,-32.38086 z"
     sodipodi:nodetypes="ccssc" /><path
     style="fill:#b72caf;fill-opacity:1;stroke:none;stroke-width:0.729398px;stroke-linecap:butt;stroke-linejoin:miter;stroke-opacity:1"
     d="m 482.00842,254.57854 c -4.71099,1.11478 -6.0071,-7.20818 -10.63775,-6.50138 -4.63067,0.70677 -1.72139,7.53347 -6.22609,7.3241 -4.50468,-0.20938 -0.73993,-6.86632 -2.03194,-9.56866 -1.29201,-2.70234 -6.62719,-4.21761 -5.1544,-6.58282 1.47276,-2.36523 7.26191,-2.73533 10.08245,-3.0632 2.82049,-0.32788 3.27588,1.15982 6.12291,0.40332 2.84701,-0.75651 4.00053,-5.77062 8.14483,-5.86986 4.14429,-0.0992 4.83917,4.92925 7.68443,6.49322 2.84529,1.56396 8.85901,0.29052 8.69069,3.01852 -0.16828,2.728 -10.07254,3.13905 -12.99799,5.75985 -2.92546,2.62077 1.03379,7.47212 -3.67714,8.58691 z"
     id="path448"
     sodipodi:nodetypes="zzzzzzzzzzzz" /><path
     style="fill:#71c6d7;fill-opacity:1;stroke:none;stroke-width:0.503978px;stroke-linecap:butt;stroke-linejoin:miter;stroke-opacity:1"
     d="m 492.55572,225.62276 c 0.84811,1.89535 10.97617,2.27202 12.57546,4.47954 1.59924,2.20756 -4.52629,3.50805 -3.43494,5.25292 0.5103,0.81588 1.95632,1.20308 3.43319,1.54762 1.68163,0.3923 1.43713,1.96881 1.86296,2.82034 0.79982,1.59938 0.87545,4.01113 -2.29989,4.07293 -0.74788,0.0146 -1.10875,-1.50924 -1.6657,-1.88519 -1.80772,-1.22023 -2.97938,-3.85649 -5.91475,-3.74821 -3.83975,0.14164 -1.67814,6.29416 -5.12714,6.15554 -3.44898,-0.1386 -3.3856,-4.83414 -4.0931,-3.73237 -0.7075,1.10177 -3.02486,4.22932 -4.01966,4.71972 -0.9948,0.4904 -12.1286,-6.94556 -13.47913,-10.19492 -1.35056,-3.24939 2.96869,-4.70626 3.16784,-7.24334 0.19924,-2.53708 -3.70953,-5.90012 -1.96053,-7.7272 1.74904,-1.82705 8.60514,-0.88778 8.82026,-2.0891 0.21508,-1.20132 -4.05464,-5.54481 -0.30878,-5.87171 3.74581,-0.3269 4.51081,4.50984 7.31417,6.32019 2.80332,1.81036 8.64728,2.81322 9.11898,4.47214 0.47171,1.65891 -4.83744,0.75577 -3.98932,2.65112 z"
     id="path450"
     sodipodi:nodetypes="zzscsscszzzzzzzzzzzz" /><path
     style="fill:#ff9097;fill-opacity:1;stroke:none;stroke-width:1px;stroke-linecap:butt;stroke-linejoin:miter;stroke-opacity:1"
     d="m 443.48027,257.40813 c 0,0 -7.41465,2.93216 -8.68215,9.52809 -1.2675,6.59593 -3.01796,15.36144 3.21426,14.82426 6.23222,-0.53718 9.00296,-5.58599 9.87258,-9.79231 0.86962,-4.20632 4.73426,-8.1063 4.73426,-8.1063 z"
     id="path452"
     sodipodi:nodetypes="czzzcc" /><path
     style="fill:none;stroke:#000000;stroke-width:8;stroke-linecap:round;stroke-linejoin:miter;stroke-dasharray:none;stroke-opacity:1"
     d="m 246.99328,232.6981 c 0,0 6.66374,-6.7522 13.50051,-7.96307 6.83676,-1.21088 18.0053,6.15143 25.55428,4.71144 7.54897,-1.43999 17.0858,-3.04836 17.05898,-10.67846 -0.0268,-7.6301 -10.38369,-6.45598 -10.38369,-6.45598"
     id="path454"
     sodipodi:nodetypes="czzzc" /><path
     style="fill:none;stroke:#000000;stroke-width:7.39057;stroke-linecap:round;stroke-linejoin:miter;stroke-dasharray:none;stroke-opacity:1"
     d="m 234.4236,235.19746 c 0,0 -6.16648,-6.03093 -11.87118,-6.33796 -5.7047,-0.30703 -14.0078,8.79951 -20.31799,8.35457 -6.31018,-0.44494 -14.25908,-0.79018 -15.06726,-8.64266 -0.80818,-7.85247 7.76192,-8.06649 7.76192,-8.06649"
     id="path456"
     sodipodi:nodetypes="czzzc" /><path
     style="fill:#ff8088;fill-opacity:1;stroke:none;stroke-width:1px;stroke-linecap:butt;stroke-linejoin:miter;stroke-opacity:1"
     d="m 438.01238,281.76048 c 6.23221,-0.53718 9.00295,-5.58599 9.87258,-9.79231 0.86962,-4.20632 4.73426,-8.1063 4.73426,-8.1063 -7.75468,2.44815 -5.39961,14.38045 -14.60684,17.89861 z"
     id="path458"
     sodipodi:nodetypes="czcc" /><path
     style="fill:none;stroke:#000000;stroke-width:4;stroke-linecap:round;stroke-linejoin:miter;stroke-dasharray:none;stroke-opacity:1"
     d="m 281.22375,169.74499 c 0,0 4.09708,-13.53611 23.81643,-18.58981 19.71936,-5.0537 33.85525,4.32053 33.85525,4.32053"
     id="path1610"
     sodipodi:nodetypes="czc" /></g><style
   id="style1267">svg {enable-background:new 0 0 288 288}</style><style
   id="style1269">.st3{fill:#375c93}.st4{fill:#8dc63f}</style><g
   id="orginal-8"
   style="clip-rule:nonzero;fill-rule:nonzero;stroke:#000000;stroke-miterlimit:4"
   transform="matrix(1.3333333,0,0,1.3333333,1240.6119,-997.45508)">
	</g></svg>
