<?xml version="1.0" encoding="UTF-8" standalone="no"?>
<!-- Created with Inkscape (http://www.inkscape.org/) -->

<svg
   width="1280"
   height="640"
   viewBox="0 0 338.66668 169.33332"
   version="1.1"
   id="svg7516"
   inkscape:version="1.1 (1:1.1+202105261517+ce6663b3b7)"
   sodipodi:docname="missing.svg"
   xmlns:inkscape="http://www.inkscape.org/namespaces/inkscape"
   xmlns:sodipodi="http://sodipodi.sourceforge.net/DTD/sodipodi-0.dtd"
   xmlns="http://www.w3.org/2000/svg"
   xmlns:svg="http://www.w3.org/2000/svg"
   xmlns:rdf="http://www.w3.org/1999/02/22-rdf-syntax-ns#"
   xmlns:cc="http://creativecommons.org/ns#"
   xmlns:dc="http://purl.org/dc/elements/1.1/">
  <defs
     id="defs7510">
    <linearGradient
       id="linearGradient5074"
       inkscape:swatch="solid">
      <stop
         style="stop-color:#ff8787;stop-opacity:1;"
         offset="0"
         id="stop5072" />
    </linearGradient>
    <rect
       x="158.89304"
       y="131.52431"
       width="398.05307"
       height="141.09367"
       id="rect9303" />
    <rect
       x="-615.31909"
       y="392.65875"
       width="942.29278"
       height="287.8319"
       id="rect7933" />
  </defs>
  <sodipodi:namedview
     id="base"
     pagecolor="#ffffff"
     bordercolor="#666666"
     borderopacity="1.0"
     inkscape:pageopacity="0.0"
     inkscape:pageshadow="2"
     inkscape:zoom="0.1767767"
     inkscape:cx="-121.62236"
     inkscape:cy="1040.8612"
     inkscape:document-units="px"
     inkscape:current-layer="layer1"
     showgrid="false"
     inkscape:window-width="1920"
     inkscape:window-height="1016"
     inkscape:window-x="0"
     inkscape:window-y="27"
     inkscape:window-maximized="1"
     inkscape:snap-nodes="false"
     units="px"
     inkscape:pagecheckerboard="0"
     width="1280px" />
  <metadata
     id="metadata7513">
    <rdf:RDF>
      <cc:Work
         rdf:about="">
        <dc:format>image/svg+xml</dc:format>
        <dc:type
           rdf:resource="http://purl.org/dc/dcmitype/StillImage" />
      </cc:Work>
    </rdf:RDF>
  </metadata>
  <g
     inkscape:label="Layer 1"
     inkscape:groupmode="layer"
     id="layer1"
     transform="translate(0,-32.416673)">
    <g
       aria-label="ERROR"
       transform="matrix(0.4686853,-0.1720884,0.1720884,0.4686853,23.614125,84.51888)"
       id="text9301"
       style="font-size:40px;line-height:1.25;text-align:center;white-space:pre;shape-inside:url(#rect9303);fill:#da2121" />
    <path
       inkscape:export-ydpi="250.44547"
       inkscape:export-xdpi="250.44547"
       inkscape:export-filename="/home/ash/Downloads/benthos.png"
       sodipodi:nodetypes="sszss"
       inkscape:connector-curvature="0"
       id="path9259"
       d="m 94.707145,149.01254 -19.810546,18.6151 c -3.205354,3.01177 -16.314439,-11.76223 -14.258988,-21.7885 2.055419,-10.02576 27.805673,-9.35339 27.805673,-9.35339 3.470561,2.19311 7.863348,11.02373 6.263861,12.52679 z"
       style="fill:#ff9197;fill-opacity:1;fill-rule:evenodd;stroke:none;stroke-width:2.22146;stroke-miterlimit:4;stroke-dasharray:none;stroke-opacity:1" />
    <path
       inkscape:export-ydpi="250.44547"
       inkscape:export-xdpi="250.44547"
       inkscape:export-filename="/home/ash/Downloads/benthos.png"
       sodipodi:nodetypes="zszzcsssz"
       inkscape:connector-curvature="0"
       id="path9261"
       d="m 82.079297,172.46427 c 10.254724,26.64473 43.485833,12.8632 50.424883,12.10362 5.61226,-0.61309 12.34302,3.85058 24.86201,4.25711 12.519,0.4057 19.34869,-3.19989 30.10685,-1.65665 10.75814,1.54332 27.46616,16.41518 61.4056,6.30066 23.79259,-7.17973 16.3018,-40.48839 4.07646,-67.45487 -11.26141,-24.84026 -47.71334,-6.62958 -56.78763,-14.20007 C 173.7977,93.151431 183.42889,66.119581 152.25881,68.640121 80.947603,74.406661 71.824462,145.81983 82.079297,172.46427 Z"
       style="fill:#ffc7c7;fill-opacity:1;fill-rule:evenodd;stroke:none;stroke-width:2.22146;stroke-miterlimit:4;stroke-dasharray:none;stroke-opacity:1" />
    <path
       inkscape:export-ydpi="250.44547"
       inkscape:export-xdpi="250.44547"
       inkscape:export-filename="/home/ash/Downloads/benthos.png"
       sodipodi:nodetypes="cccc"
       inkscape:connector-curvature="0"
       id="path9263"
       d="m 197.47694,190.48532 c 10.80775,4.34918 26.44678,10.42067 51.4017,2.98369 23.79259,-7.17973 16.30179,-40.48839 4.07646,-67.45487 12.89428,49.51468 4.08426,74.91691 -55.47816,64.47118 z"
       style="fill:#f6b5b5;fill-opacity:1;fill-rule:evenodd;stroke:none;stroke-width:2.22146;stroke-miterlimit:4;stroke-dasharray:none;stroke-opacity:1" />
    <path
       inkscape:export-ydpi="250.44547"
       inkscape:export-xdpi="250.44547"
       inkscape:export-filename="/home/ash/Downloads/benthos.png"
       style="fill:#ff9197;fill-opacity:1;fill-rule:evenodd;stroke:none;stroke-width:2.22146;stroke-miterlimit:4;stroke-dasharray:none;stroke-opacity:1"
       d="m 237.15373,153.70882 24.74577,26.05911 c 4.0038,4.21653 20.37278,-12.62523 18.00291,-26.26905 -2.36986,-13.64402 -35.14198,-13.90565 -35.14198,-13.90565 -4.46821,2.80646 -9.60468,12.01151 -7.6067,14.11559 z"
       id="path9265"
       inkscape:connector-curvature="0"
       sodipodi:nodetypes="sszss" />
    <path
       sodipodi:nodetypes="cszzzzzszszc"
       inkscape:connector-curvature="0"
       id="path9267"
       d="m 98.937678,174.00765 c 0.715035,-0.48477 22.994662,-18.64803 43.057522,-19.01864 13.60935,-0.25319 25.02249,-1.69977 41.54368,5.13387 16.52115,6.83438 35.12931,20.22226 35.61388,20.51891 0.48447,0.29523 0.80605,1.97986 0.45588,2.73133 -0.35013,0.75041 -1.48172,0.52528 -1.88858,0.25683 -0.40693,-0.2694 -20.67679,-12.29221 -34.70219,-18.09322 -14.02539,-5.80102 -26.06365,-5.12011 -41.54365,-5.13388 -20.06636,-0.0232 -40.34914,16.64128 -40.99663,16.75689 -0.647573,0.13637 -2.193439,0.58003 -2.592381,-0.35482 -0.332248,-0.77587 0.337504,-2.31445 1.052539,-2.79793 z"
       style="fill:#b06264;fill-opacity:1;stroke:none;stroke-width:0.810344;stroke-linecap:round;stroke-miterlimit:4;stroke-dasharray:none;stroke-opacity:1" />
    <path
       style="fill:#fffefe;fill-opacity:1;stroke:none;stroke-width:3.01374;stroke-linecap:round;stroke-miterlimit:4;stroke-dasharray:none;stroke-opacity:1"
       d="m 126.23083,126.1452 a 17.208571,17.490231 0.12912279 0 1 -16.98875,17.71224 17.208571,17.490231 0.12912279 0 1 -17.42565,-17.26536 17.208571,17.490231 0.12912279 0 1 16.98876,-17.71237 17.208571,17.490231 0.12912279 0 1 17.42564,17.26549 z"
       id="path9269"
       inkscape:connector-curvature="0" />
    <path
       inkscape:connector-curvature="0"
       id="path9277"
       d="m 170.83484,131.31646 a 22.350315,23.527311 85.954687 0 1 -22.04331,23.81195 22.350315,23.527311 85.954687 0 1 -24.91217,-20.76064 22.350315,23.527311 85.954687 0 1 22.00356,-23.84525 22.350315,23.527311 85.954687 0 1 24.94728,20.72251"
       style="fill:#ffc7c7;fill-opacity:1;stroke:none;stroke-width:0.817106" />
    <path
       sodipodi:nodetypes="cccczcccczc"
       inkscape:connector-curvature="0"
       id="path9279"
       d="m 168.87594,139.21559 c -2.75679,8.20882 -10.5731,14.40667 -20.14563,15.02638 -12.44369,0.80777 -23.14929,-8.11662 -23.91799,-19.93765 -0.35047,-5.39256 1.42758,-10.4578 4.64643,-14.44993 0,0 2.02707,-2.28919 0.80112,-3.26171 -1.22593,-0.97306 -2.97164,1.75526 -2.97164,1.75526 -3.58277,4.46393 -5.55947,10.11909 -5.16698,16.13865 0.86574,13.22947 12.84865,23.21425 26.77528,22.31024 10.72861,-0.6958 19.48605,-7.6512 22.56085,-16.85784 0,0 0.72184,-1.88637 -0.54404,-2.33896 -1.26584,-0.45265 -2.03754,1.61556 -2.03754,1.61556 z"
       style="fill:#b06264;fill-opacity:1;stroke:none;stroke-width:0.878296" />
    <path
       inkscape:connector-curvature="0"
       id="path9281"
       d="m 233.78352,148.77226 a 17.208572,17.490232 0.129123 0 1 -16.98874,17.71224 17.208572,17.490232 0.129123 0 1 -17.42566,-17.26536 17.208572,17.490232 0.129123 0 1 16.98876,-17.71238 17.208572,17.490232 0.129123 0 1 17.42564,17.2655 z"
       style="fill:#fffefe;fill-opacity:1;stroke:none;stroke-width:3.01374;stroke-linecap:round;stroke-miterlimit:4;stroke-dasharray:none;stroke-opacity:1" />
    <path
       id="rect9289"
       style="fill:#fafafa;stroke-width:0.45541;stroke-linecap:round;stroke-linejoin:round"
       d="M 160.06905,80.13672 277.6069,37.198056 297.16297,90.729711 179.62511,133.66838 Z" />
    <path
       id="path9291"
       style="fill:#dddddd;stroke-width:0.45541;stroke-linecap:round;stroke-linejoin:round"
       d="m 292.77443,88.528251 -18.35201,-50.16685 3.1845,-1.16336 19.55606,53.53166 -117.53784,42.938659 -0.91117,-2.49417 z"
       sodipodi:nodetypes="ccccccc" />
    <path
       style="fill:#ffc7c7;fill-opacity:1;stroke:none;stroke-width:0.279241px;stroke-linecap:butt;stroke-linejoin:miter;stroke-opacity:1"
       d="m 164.82954,93.243641 c 0.73184,1.70216 8.12013,24.044329 19.3187,29.158779 11.022,5.03379 39.15084,-4.63227 39.15084,-4.63227 l -44.85383,27.54733 z"
       id="path9293"
       sodipodi:nodetypes="csccc" />
    <path
       style="fill:#f6b5b5;fill-opacity:1;stroke:none;stroke-width:0.279241px;stroke-linecap:butt;stroke-linejoin:miter;stroke-opacity:1"
       d="m 164.82954,93.243641 c 0.73184,1.70216 8.12013,24.044329 19.3187,29.158779 11.022,5.03379 39.15084,-4.63227 39.15084,-4.63227 -46.08983,18.26945 -49.17091,6.03816 -58.46954,-24.526509 z"
       id="path9295"
       sodipodi:nodetypes="cscc" />
    <path
       inkscape:export-ydpi="250.44547"
       inkscape:export-xdpi="250.44547"
       inkscape:export-filename="/home/ash/Downloads/benthos.png"
       style="fill:#e68187;fill-opacity:1;fill-rule:evenodd;stroke:none;stroke-width:2.22146;stroke-miterlimit:4;stroke-dasharray:none;stroke-opacity:1"
       d="m 261.8995,179.76793 c 4.0038,4.21653 20.37274,-12.62522 18.00291,-26.26905 -0.8357,-4.81136 -5.45195,-7.9586 -11.07854,-10.01708 19.55825,8.76387 -2.79885,37.24783 -6.92437,36.28613 z"
       id="path9297"
       inkscape:connector-curvature="0"
       sodipodi:nodetypes="cscc" />
    <path
       id="path9488"
       style="fill:none;fill-rule:evenodd;stroke:#000000;stroke-width:2.83665;stroke-linecap:round"
       d="m 104.88429,125.52721 c 0.84566,0.54987 -0.32399,1.41121 -0.91392,1.40554 -1.59866,-0.0154 -2.25861,-1.91901 -1.89716,-3.23338 0.64655,-2.35111 3.43912,-3.20238 5.55284,-2.38879 3.10198,1.19398 4.16851,4.97782 2.88041,7.8723 -1.71683,3.85789 -6.52286,5.14384 -10.19177,3.37204 -4.61695,-2.22962 -6.123832,-8.07086 -3.863652,-12.51124 2.737381,-5.37789 9.620492,-7.10653 14.830692,-4.35527 6.14004,3.24227 8.09094,11.17117 4.8469,17.15016" />
    <path
       id="path9593"
       style="fill:none;fill-rule:evenodd;stroke:#000000;stroke-width:2.83665;stroke-linecap:round"
       d="m 216.03178,152.15531 c 0.84566,0.54987 -0.32399,1.41121 -0.91392,1.40554 -1.59866,-0.0154 -2.25861,-1.91901 -1.89716,-3.23338 0.64655,-2.35111 3.43912,-3.20238 5.55284,-2.38879 3.10198,1.19398 4.16851,4.97782 2.88041,7.8723 -1.71683,3.85789 -6.52286,5.14384 -10.19177,3.37204 -4.61695,-2.22962 -6.12383,-8.07086 -3.86365,-12.51124 2.73738,-5.37789 9.62049,-7.10653 14.83069,-4.35527 6.14004,3.24227 8.09094,11.17117 4.8469,17.15016" />
    <g
       transform="matrix(0.97274789,0,0,0.97274789,-0.00502766,-47.686125)"
       id="g974" />
    <g
       aria-label="MISSING
FEATURE"
       transform="matrix(0.39315237,-0.15347023,0.15347023,0.39315237,217.10585,-109.73738)"
       id="text7931"
       style="font-size:40px;line-height:1.25;text-align:center;text-anchor:middle;white-space:pre;shape-inside:url(#rect7933)">
      <path
         d="m -216.47656,428.10017 -5.83985,-20.56641 h -0.17578 q 0.41016,5.25391 0.41016,8.16406 v 12.40235 h -6.83594 v -28.55469 h 10.27344 l 5.95703,20.27344 h 0.15625 l 5.83984,-20.27344 h 10.29297 v 28.55469 h -7.08984 v -12.51954 q 0,-0.97656 0.0195,-2.16796 0.0391,-1.19141 0.27344,-5.83985 h -0.17578 l -5.76172,20.52735 z"
         style="font-weight:800;font-family:'Open Sans';-inkscape-font-specification:'Open Sans Ultra-Bold'"
         id="path8175" />
      <path
         d="m -190.24609,428.10017 v -28.55469 h 7.7539 v 28.55469 z"
         style="font-weight:800;font-family:'Open Sans';-inkscape-font-specification:'Open Sans Ultra-Bold'"
         id="path8177" />
      <path
         d="m -157.64844,419.42829 q 0,2.65625 -1.34765,4.72656 -1.34766,2.05078 -3.88672,3.20313 -2.53906,1.13281 -5.95703,1.13281 -2.85157,0 -4.78516,-0.39062 -1.93359,-0.41016 -4.02344,-1.40625 v -6.875 q 2.20703,1.13281 4.58985,1.77734 2.38281,0.625 4.375,0.625 1.71875,0 2.51953,-0.58594 0.80078,-0.60547 0.80078,-1.54297 0,-0.58593 -0.33203,-1.01562 -0.3125,-0.44922 -1.03516,-0.89844 -0.70312,-0.44922 -3.78906,-1.83594 -2.79297,-1.26953 -4.19922,-2.46093 -1.38672,-1.19141 -2.07031,-2.73438 -0.66406,-1.54297 -0.66406,-3.65234 0,-3.94532 2.87109,-6.15235 2.87109,-2.20703 7.89062,-2.20703 4.4336,0 9.04297,2.05078 l -2.36328,5.95703 q -4.0039,-1.83593 -6.91406,-1.83593 -1.50391,0 -2.1875,0.52734 -0.68359,0.52734 -0.68359,1.30859 0,0.83985 0.85937,1.50391 0.87891,0.66406 4.72656,2.42188 3.69141,1.66015 5.11719,3.57421 1.44531,1.89454 1.44531,4.78516 z"
         style="font-weight:800;font-family:'Open Sans';-inkscape-font-specification:'Open Sans Ultra-Bold'"
         id="path8179" />
      <path
         d="m -134.5625,419.42829 q 0,2.65625 -1.34766,4.72656 -1.34765,2.05078 -3.88671,3.20313 -2.53907,1.13281 -5.95704,1.13281 -2.85156,0 -4.78515,-0.39062 -1.9336,-0.41016 -4.02344,-1.40625 v -6.875 q 2.20703,1.13281 4.58984,1.77734 2.38282,0.625 4.375,0.625 1.71875,0 2.51954,-0.58594 0.80078,-0.60547 0.80078,-1.54297 0,-0.58593 -0.33203,-1.01562 -0.3125,-0.44922 -1.03516,-0.89844 -0.70313,-0.44922 -3.78906,-1.83594 -2.79297,-1.26953 -4.19922,-2.46093 -1.38672,-1.19141 -2.07031,-2.73438 -0.66407,-1.54297 -0.66407,-3.65234 0,-3.94532 2.8711,-6.15235 2.87109,-2.20703 7.89062,-2.20703 4.4336,0 9.04297,2.05078 l -2.36328,5.95703 q -4.00391,-1.83593 -6.91406,-1.83593 -1.50391,0 -2.1875,0.52734 -0.6836,0.52734 -0.6836,1.30859 0,0.83985 0.85938,1.50391 0.8789,0.66406 4.72656,2.42188 3.69141,1.66015 5.11719,3.57421 1.44531,1.89454 1.44531,4.78516 z"
         style="font-weight:800;font-family:'Open Sans';-inkscape-font-specification:'Open Sans Ultra-Bold'"
         id="path8181" />
      <path
         d="m -130.14844,428.10017 v -28.55469 h 7.75391 v 28.55469 z"
         style="font-weight:800;font-family:'Open Sans';-inkscape-font-specification:'Open Sans Ultra-Bold'"
         id="path8183" />
      <path
         d="m -89.035156,428.10017 h -10.117188 l -10.429686,-20.11719 h -0.17578 q 0.37109,4.74609 0.37109,7.24609 v 12.8711 h -6.83594 v -28.55469 h 10.07813 l 10.390624,19.84375 h 0.117187 q -0.273437,-4.31641 -0.273437,-6.9336 v -12.91015 h 6.875 z"
         style="font-weight:800;font-family:'Open Sans';-inkscape-font-specification:'Open Sans Ultra-Bold'"
         id="path8185" />
      <path
         d="m -71.398437,411.38142 h 12.324218 v 15.39062 q -5.019531,1.71875 -11.035156,1.71875 -6.601562,0 -10.214844,-3.82812 -3.59375,-3.82813 -3.59375,-10.91797 0,-6.91407 3.945313,-10.76172 3.945312,-3.84766 11.054687,-3.84766 2.695313,0 5.078125,0.50781 2.402344,0.50782 4.179688,1.28907 l -2.441406,6.05468 q -3.085938,-1.52343 -6.777344,-1.52343 -3.378906,0 -5.234375,2.20703 -1.835938,2.1875 -1.835938,6.26953 0,4.00391 1.660157,6.11328 1.679687,2.08984 4.824218,2.08984 1.71875,0 3.164063,-0.33203 v -4.47265 h -5.097656 z"
         style="font-weight:800;font-family:'Open Sans';-inkscape-font-specification:'Open Sans Ultra-Bold'"
         id="path8187" />
      <path
         d="m -221.23242,478.1515 h -7.59766 v -28.55469 h 16.875 v 6.1914 h -9.27734 v 5.44922 h 8.55469 v 6.19141 h -8.55469 z"
         style="font-weight:800;font-family:'Open Sans';-inkscape-font-specification:'Open Sans Ultra-Bold'"
         id="path8189" />
      <path
         d="m -190.31445,478.1515 h -16.95313 v -28.55469 h 16.95313 v 6.1914 h -9.23828 v 4.49219 h 8.55468 v 6.19141 h -8.55468 v 5.39062 h 9.23828 z"
         style="font-weight:800;font-family:'Open Sans';-inkscape-font-specification:'Open Sans Ultra-Bold'"
         id="path8191" />
      <path
         d="m -167.79492,478.1515 -1.40625,-5.35157 h -9.27735 l -1.44531,5.35157 h -8.47656 l 9.31641,-28.67188 h 10.29296 l 9.4336,28.67188 z m -3.00781,-11.67969 -1.23047,-4.6875 q -0.42969,-1.5625 -1.05469,-4.04297 -0.60547,-2.48047 -0.80078,-3.55469 -0.17578,0.9961 -0.70313,3.28125 -0.50781,2.28516 -2.28515,9.00391 z"
         style="font-weight:800;font-family:'Open Sans';-inkscape-font-specification:'Open Sans Ultra-Bold'"
         id="path8193" />
      <path
         d="m -143.67383,478.1515 h -7.71484 v -22.2461 h -6.97266 v -6.30859 h 21.64063 v 6.30859 h -6.95313 z"
         style="font-weight:800;font-family:'Open Sans';-inkscape-font-specification:'Open Sans Ultra-Bold'"
         id="path8195" />
      <path
         d="m -108.36133,449.59681 v 17.1875 q 0,5.60547 -3.18359,8.6914 -3.16406,3.06641 -9.14063,3.06641 -5.83984,0 -8.98437,-2.98828 -3.125,-2.98828 -3.125,-8.59375 v -17.36328 h 7.7539 v 16.75781 q 0,3.02734 1.13282,4.39453 1.13281,1.36719 3.33984,1.36719 2.36328,0 3.41797,-1.34766 1.07422,-1.36718 1.07422,-4.45312 v -16.71875 z"
         style="font-weight:800;font-family:'Open Sans';-inkscape-font-specification:'Open Sans Ultra-Bold'"
         id="path8197" />
      <path
         d="m -94.650391,467.76087 v 10.39063 h -7.714839 v -28.55469 h 9.355464 q 11.640625,0 11.640625,8.4375 0,4.96094 -4.84375,7.67578 l 8.320313,12.44141 h -8.75 l -6.054688,-10.39063 z m 0,-5.80078 h 1.445313 q 4.042969,0 4.042969,-3.57422 0,-2.94922 -3.964844,-2.94922 h -1.523438 z"
         style="font-weight:800;font-family:'Open Sans';-inkscape-font-specification:'Open Sans Ultra-Bold'"
         id="path8199" />
      <path
         d="m -58.341797,478.1515 h -16.953125 v -28.55469 h 16.953125 v 6.1914 h -9.238281 v 4.49219 h 8.554687 v 6.19141 h -8.554687 v 5.39062 h 9.238281 z"
         style="font-weight:800;font-family:'Open Sans';-inkscape-font-specification:'Open Sans Ultra-Bold'"
         id="path8201" />
    </g>
  </g>
</svg>
