<?xml version="1.0" encoding="UTF-8" standalone="no"?>
<!-- Created with Inkscape (http://www.inkscape.org/) -->

<svg
   width="1280"
   height="640"
   viewBox="0 0 338.66668 169.33332"
   version="1.1"
   id="svg7516"
   inkscape:version="1.1 (1:1.1+202105261517+ce6663b3b7)"
   sodipodi:docname="whoops.svg"
   xmlns:inkscape="http://www.inkscape.org/namespaces/inkscape"
   xmlns:sodipodi="http://sodipodi.sourceforge.net/DTD/sodipodi-0.dtd"
   xmlns="http://www.w3.org/2000/svg"
   xmlns:svg="http://www.w3.org/2000/svg"
   xmlns:rdf="http://www.w3.org/1999/02/22-rdf-syntax-ns#"
   xmlns:cc="http://creativecommons.org/ns#"
   xmlns:dc="http://purl.org/dc/elements/1.1/">
  <defs
     id="defs7510">
    <linearGradient
       id="linearGradient5074"
       inkscape:swatch="solid">
      <stop
         style="stop-color:#ff8787;stop-opacity:1;"
         offset="0"
         id="stop5072" />
    </linearGradient>
    <rect
       x="158.89304"
       y="131.52431"
       width="398.05307"
       height="141.09367"
       id="rect9303" />
  </defs>
  <sodipodi:namedview
     id="base"
     pagecolor="#ffffff"
     bordercolor="#666666"
     borderopacity="1.0"
     inkscape:pageopacity="0.0"
     inkscape:pageshadow="2"
     inkscape:zoom="0.3535534"
     inkscape:cx="74.953317"
     inkscape:cy="789.13115"
     inkscape:document-units="px"
     inkscape:current-layer="layer1"
     showgrid="false"
     inkscape:window-width="1920"
     inkscape:window-height="1016"
     inkscape:window-x="0"
     inkscape:window-y="27"
     inkscape:window-maximized="1"
     inkscape:snap-nodes="false"
     units="px"
     inkscape:pagecheckerboard="0"
     width="1280px" />
  <metadata
     id="metadata7513">
    <rdf:RDF>
      <cc:Work
         rdf:about="">
        <dc:format>image/svg+xml</dc:format>
        <dc:type
           rdf:resource="http://purl.org/dc/dcmitype/StillImage" />
      </cc:Work>
    </rdf:RDF>
  </metadata>
  <g
     inkscape:label="Layer 1"
     inkscape:groupmode="layer"
     id="layer1"
     transform="translate(0,-32.416673)">
    <g
       aria-label="ERROR"
       transform="matrix(0.4686853,-0.1720884,0.1720884,0.4686853,23.614125,84.51888)"
       id="text9301"
       style="font-size:40px;line-height:1.25;text-align:center;white-space:pre;shape-inside:url(#rect9303);fill:#da2121" />
    <g
       id="g961"
       transform="translate(9.4582091,1.6040986)">
      <path
         inkscape:export-ydpi="250.44547"
         inkscape:export-xdpi="250.44547"
         inkscape:export-filename="/home/ash/Downloads/benthos.png"
         sodipodi:nodetypes="sszss"
         inkscape:connector-curvature="0"
         id="path9259"
         d="m 85.248936,147.40844 -19.810546,18.6151 c -3.205354,3.01177 -16.314439,-11.76223 -14.258988,-21.7885 2.055419,-10.02576 27.805673,-9.35339 27.805673,-9.35339 3.470561,2.19311 7.863348,11.02373 6.263861,12.52679 z"
         style="fill:#ff9197;fill-opacity:1;fill-rule:evenodd;stroke:none;stroke-width:2.22146;stroke-miterlimit:4;stroke-dasharray:none;stroke-opacity:1" />
      <path
         inkscape:export-ydpi="250.44547"
         inkscape:export-xdpi="250.44547"
         inkscape:export-filename="/home/ash/Downloads/benthos.png"
         sodipodi:nodetypes="zszzcsssz"
         inkscape:connector-curvature="0"
         id="path9261"
         d="m 72.621088,170.86017 c 10.254724,26.64473 43.485832,12.8632 50.424882,12.10362 5.61226,-0.61309 12.34302,3.85058 24.86201,4.25711 12.519,0.4057 19.34869,-3.19989 30.10685,-1.65665 10.75814,1.54332 27.46616,16.41518 61.4056,6.30066 23.79259,-7.17973 16.3018,-40.48839 4.07646,-67.45487 C 232.23548,99.569782 195.78355,117.78046 186.70926,110.20997 164.33949,91.547332 173.97068,64.515482 142.8006,67.036022 71.489394,72.802562 62.366253,144.21573 72.621088,170.86017 Z"
         style="fill:#ffc7c7;fill-opacity:1;fill-rule:evenodd;stroke:none;stroke-width:2.22146;stroke-miterlimit:4;stroke-dasharray:none;stroke-opacity:1" />
      <path
         inkscape:export-ydpi="250.44547"
         inkscape:export-xdpi="250.44547"
         inkscape:export-filename="/home/ash/Downloads/benthos.png"
         sodipodi:nodetypes="cccc"
         inkscape:connector-curvature="0"
         id="path9263"
         d="m 188.01873,188.88122 c 10.80775,4.34918 26.44678,10.42067 51.4017,2.98369 23.79259,-7.17973 16.30179,-40.48839 4.07646,-67.45487 12.89428,49.51468 4.08426,74.91691 -55.47816,64.47118 z"
         style="fill:#f6b5b5;fill-opacity:1;fill-rule:evenodd;stroke:none;stroke-width:2.22146;stroke-miterlimit:4;stroke-dasharray:none;stroke-opacity:1" />
      <path
         inkscape:export-ydpi="250.44547"
         inkscape:export-xdpi="250.44547"
         inkscape:export-filename="/home/ash/Downloads/benthos.png"
         style="fill:#ff9197;fill-opacity:1;fill-rule:evenodd;stroke:none;stroke-width:2.22146;stroke-miterlimit:4;stroke-dasharray:none;stroke-opacity:1"
         d="m 227.69552,152.10472 24.74577,26.05911 c 4.0038,4.21653 20.37278,-12.62523 18.00291,-26.26905 -2.36986,-13.64402 -35.14198,-13.90565 -35.14198,-13.90565 -4.46821,2.80646 -9.60468,12.01151 -7.6067,14.11559 z"
         id="path9265"
         inkscape:connector-curvature="0"
         sodipodi:nodetypes="sszss" />
      <path
         sodipodi:nodetypes="cszzzzzszszc"
         inkscape:connector-curvature="0"
         id="path9267"
         d="m 89.479469,172.40355 c 0.715035,-0.48477 22.994661,-18.64803 43.057521,-19.01864 13.60935,-0.25319 25.02249,-1.69977 41.54368,5.13387 16.52115,6.83438 35.12931,20.22226 35.61388,20.51891 0.48447,0.29523 0.80605,1.97986 0.45588,2.73133 -0.35013,0.75041 -1.48172,0.52528 -1.88858,0.25683 -0.40693,-0.2694 -20.67679,-12.29221 -34.70219,-18.09322 -14.02539,-5.80102 -26.06365,-5.12011 -41.54365,-5.13388 -20.06636,-0.0232 -40.349135,16.64128 -40.996631,16.75689 -0.647571,0.13637 -2.193437,0.58003 -2.592379,-0.35482 -0.332248,-0.77587 0.337504,-2.31445 1.052539,-2.79793 z"
         style="fill:#b06264;fill-opacity:1;stroke:none;stroke-width:0.810344;stroke-linecap:round;stroke-miterlimit:4;stroke-dasharray:none;stroke-opacity:1" />
      <path
         style="fill:#fffefe;fill-opacity:1;stroke:none;stroke-width:3.01374;stroke-linecap:round;stroke-miterlimit:4;stroke-dasharray:none;stroke-opacity:1"
         d="M 116.77262,124.5411 A 17.208571,17.490231 0.12912279 0 1 99.783869,142.25334 17.208571,17.490231 0.12912279 0 1 82.358221,124.98798 17.208571,17.490231 0.12912279 0 1 99.346985,107.27561 17.208571,17.490231 0.12912279 0 1 116.77262,124.5411 Z"
         id="path9269"
         inkscape:connector-curvature="0" />
      <path
         inkscape:connector-curvature="0"
         id="path9277"
         d="m 161.37663,129.71236 a 22.350315,23.527311 85.954687 0 1 -22.04331,23.81195 22.350315,23.527311 85.954687 0 1 -24.91217,-20.76064 22.350315,23.527311 85.954687 0 1 22.00356,-23.84525 22.350315,23.527311 85.954687 0 1 24.94728,20.72251"
         style="fill:#ffc7c7;fill-opacity:1;stroke:none;stroke-width:0.817106" />
      <path
         sodipodi:nodetypes="cccczcccczc"
         inkscape:connector-curvature="0"
         id="path9279"
         d="m 159.41773,137.61149 c -2.75679,8.20882 -10.5731,14.40667 -20.14563,15.02638 -12.44369,0.80777 -23.14929,-8.11662 -23.91799,-19.93765 -0.35047,-5.39256 1.42758,-10.4578 4.64643,-14.44993 0,0 2.02707,-2.28919 0.80112,-3.26171 -1.22593,-0.97306 -2.97164,1.75526 -2.97164,1.75526 -3.58277,4.46393 -5.55947,10.11909 -5.16698,16.13865 0.86574,13.22947 12.84865,23.21425 26.77528,22.31024 10.72861,-0.6958 19.48605,-7.6512 22.56085,-16.85784 0,0 0.72184,-1.88637 -0.54404,-2.33896 -1.26584,-0.45265 -2.03754,1.61556 -2.03754,1.61556 z"
         style="fill:#b06264;fill-opacity:1;stroke:none;stroke-width:0.878296" />
      <path
         inkscape:connector-curvature="0"
         id="path9281"
         d="m 224.32531,147.16816 a 17.208572,17.490232 0.129123 0 1 -16.98874,17.71224 17.208572,17.490232 0.129123 0 1 -17.42566,-17.26536 17.208572,17.490232 0.129123 0 1 16.98876,-17.71238 17.208572,17.490232 0.129123 0 1 17.42564,17.2655 z"
         style="fill:#fffefe;fill-opacity:1;stroke:none;stroke-width:3.01374;stroke-linecap:round;stroke-miterlimit:4;stroke-dasharray:none;stroke-opacity:1" />
      <path
         id="rect9289"
         style="fill:#fafafa;stroke-width:0.45541;stroke-linecap:round;stroke-linejoin:round"
         d="M 150.61084,78.532621 268.14869,35.593957 287.70476,89.125612 170.1669,132.06428 Z" />
      <path
         id="path9291"
         style="fill:#dddddd;stroke-width:0.45541;stroke-linecap:round;stroke-linejoin:round"
         d="m 283.31622,86.924152 -18.35201,-50.16685 3.1845,-1.16336 19.55606,53.53166 -117.53784,42.938658 -0.91117,-2.49417 z"
         sodipodi:nodetypes="ccccccc" />
      <path
         style="fill:#ffc7c7;fill-opacity:1;stroke:none;stroke-width:0.279241px;stroke-linecap:butt;stroke-linejoin:miter;stroke-opacity:1"
         d="m 155.37133,91.639542 c 0.73184,1.70216 8.12013,24.044328 19.3187,29.158778 11.022,5.03379 39.15084,-4.63227 39.15084,-4.63227 l -44.85383,27.54733 z"
         id="path9293"
         sodipodi:nodetypes="csccc" />
      <path
         style="fill:#f6b5b5;fill-opacity:1;stroke:none;stroke-width:0.279241px;stroke-linecap:butt;stroke-linejoin:miter;stroke-opacity:1"
         d="m 155.37133,91.639542 c 0.73184,1.70216 8.12013,24.044328 19.3187,29.158778 11.022,5.03379 39.15084,-4.63227 39.15084,-4.63227 -46.08983,18.26945 -49.17091,6.03816 -58.46954,-24.526508 z"
         id="path9295"
         sodipodi:nodetypes="cscc" />
      <path
         inkscape:export-ydpi="250.44547"
         inkscape:export-xdpi="250.44547"
         inkscape:export-filename="/home/ash/Downloads/benthos.png"
         style="fill:#e68187;fill-opacity:1;fill-rule:evenodd;stroke:none;stroke-width:2.22146;stroke-miterlimit:4;stroke-dasharray:none;stroke-opacity:1"
         d="m 252.44129,178.16383 c 4.0038,4.21653 20.37274,-12.62522 18.00291,-26.26905 -0.8357,-4.81136 -5.45195,-7.9586 -11.07854,-10.01708 19.55825,8.76387 -2.79885,37.24783 -6.92437,36.28613 z"
         id="path9297"
         inkscape:connector-curvature="0"
         sodipodi:nodetypes="cscc" />
      <path
         d="m 318.85197,144.05114 h -16.95313 v -28.55469 h 16.95313 v 6.19141 h -9.23828 v 4.49219 h 8.55468 v 6.1914 h -8.55468 v 5.39063 h 9.23828 z"
         style="font-weight:800;font-size:40px;line-height:1.25;font-family:'Open Sans';-inkscape-font-specification:'Open Sans Ultra-Bold';text-align:center;white-space:pre;shape-inside:url(#rect9303);fill:#da2121"
         id="path873"
         transform="matrix(0.46868529,-0.1720884,0.1720884,0.46868529,23.614125,84.51888)" />
      <path
         d="m 331.56681,133.66051 v 10.39063 h -7.71484 v -28.55469 h 9.35547 q 11.64062,0 11.64062,8.4375 0,4.96094 -4.84375,7.67578 l 8.32031,12.44141 h -8.75 l -6.05468,-10.39063 z m 0,-5.80078 h 1.44531 q 4.04297,0 4.04297,-3.57422 0,-2.94921 -3.96484,-2.94921 h -1.52344 z"
         style="font-weight:800;font-size:40px;line-height:1.25;font-family:'Open Sans';-inkscape-font-specification:'Open Sans Ultra-Bold';text-align:center;white-space:pre;shape-inside:url(#rect9303);fill:#da2121"
         id="path875"
         transform="matrix(0.46868529,-0.1720884,0.1720884,0.46868529,23.614125,84.51888)" />
      <path
         d="m 358.63712,133.66051 v 10.39063 h -7.71484 v -28.55469 h 9.35547 q 11.64062,0 11.64062,8.4375 0,4.96094 -4.84375,7.67578 l 8.32032,12.44141 h -8.75 l -6.05469,-10.39063 z m 0,-5.80078 h 1.44532 q 4.04296,0 4.04296,-3.57422 0,-2.94921 -3.96484,-2.94921 h -1.52344 z"
         style="font-weight:800;font-size:40px;line-height:1.25;font-family:'Open Sans';-inkscape-font-specification:'Open Sans Ultra-Bold';text-align:center;white-space:pre;shape-inside:url(#rect9303);fill:#da2121"
         id="path877"
         transform="matrix(0.46868529,-0.1720884,0.1720884,0.46868529,23.614125,84.51888)" />
      <path
         d="m 404.71134,129.73473 q 0,7.20703 -3.53515,10.95703 -3.53516,3.75 -10.35157,3.75 -6.71875,0 -10.3125,-3.76953 -3.57422,-3.76953 -3.57422,-10.97656 0,-7.12891 3.55469,-10.87891 3.57422,-3.76953 10.3711,-3.76953 6.8164,0 10.33203,3.73047 3.51562,3.73047 3.51562,10.95703 z m -19.64844,0 q 0,8.28125 5.76172,8.28125 2.92969,0 4.33594,-2.01172 1.42578,-2.01171 1.42578,-6.26953 0,-4.27734 -1.44531,-6.30859 -1.42578,-2.05078 -4.27734,-2.05078 -5.80079,0 -5.80079,8.35937 z"
         style="font-weight:800;font-size:40px;line-height:1.25;font-family:'Open Sans';-inkscape-font-specification:'Open Sans Ultra-Bold';text-align:center;white-space:pre;shape-inside:url(#rect9303);fill:#da2121"
         id="path879"
         transform="matrix(0.46868529,-0.1720884,0.1720884,0.46868529,23.614125,84.51888)" />
      <path
         d="m 417.58244,133.66051 v 10.39063 h -7.71485 v -28.55469 h 9.35547 q 11.64063,0 11.64063,8.4375 0,4.96094 -4.84375,7.67578 l 8.32031,12.44141 h -8.75 l -6.05469,-10.39063 z m 0,-5.80078 h 1.44531 q 4.04297,0 4.04297,-3.57422 0,-2.94921 -3.96485,-2.94921 h -1.52343 z"
         style="font-weight:800;font-size:40px;line-height:1.25;font-family:'Open Sans';-inkscape-font-specification:'Open Sans Ultra-Bold';text-align:center;white-space:pre;shape-inside:url(#rect9303);fill:#da2121"
         id="path881"
         transform="matrix(0.46868529,-0.1720884,0.1720884,0.46868529,23.614125,84.51888)" />
      <path
         id="path9488"
         style="fill:none;fill-rule:evenodd;stroke:#000000;stroke-width:2.83665;stroke-linecap:round"
         d="m 95.426081,123.92311 c 0.845659,0.54987 -0.323995,1.41121 -0.91392,1.40554 -1.59866,-0.0154 -2.258615,-1.91901 -1.897165,-3.23338 0.646553,-2.35111 3.439121,-3.20238 5.552847,-2.38879 3.101977,1.19398 4.168507,4.97782 2.880407,7.8723 -1.716833,3.85789 -6.522859,5.14384 -10.19177,3.37204 -4.616949,-2.22962 -6.123831,-8.07086 -3.863651,-12.51124 2.737381,-5.37789 9.620496,-7.10653 14.830691,-4.35527 6.14004,3.24227 8.09094,11.17117 4.8469,17.15016" />
      <path
         id="path9593"
         style="fill:none;fill-rule:evenodd;stroke:#000000;stroke-width:2.83665;stroke-linecap:round"
         d="m 206.57357,150.55121 c 0.84566,0.54987 -0.32399,1.41121 -0.91392,1.40554 -1.59866,-0.0154 -2.25861,-1.91901 -1.89716,-3.23338 0.64655,-2.35111 3.43912,-3.20238 5.55284,-2.38879 3.10198,1.19398 4.16851,4.97782 2.88041,7.8723 -1.71683,3.85789 -6.52286,5.14384 -10.19177,3.37204 -4.61695,-2.22962 -6.12383,-8.07086 -3.86365,-12.51124 2.73738,-5.37789 9.62049,-7.10653 14.83069,-4.35527 6.14004,3.24227 8.09094,11.17117 4.8469,17.15016" />
    </g>
    <g
       transform="matrix(0.97274789,0,0,0.97274789,-0.00502766,-47.686125)"
       id="g974" />
  </g>
</svg>
