<svg width="7" height="30" viewBox="0 0 7 30" fill="none" xmlns="http://www.w3.org/2000/svg">
<path d="M3.33463 16.6665C4.25511 16.6665 5.0013 15.9203 5.0013 14.9998C5.0013 14.0794 4.25511 13.3332 3.33463 13.3332C2.41416 13.3332 1.66797 14.0794 1.66797 14.9998C1.66797 15.9203 2.41416 16.6665 3.33463 16.6665Z" stroke="#98A2B3" stroke-width="1.66667" stroke-linecap="round" stroke-linejoin="round"/>
<path d="M3.33463 4.99984C4.25511 4.99984 5.0013 4.25365 5.0013 3.33317C5.0013 2.4127 4.25511 1.6665 3.33463 1.6665C2.41416 1.6665 1.66797 2.4127 1.66797 3.33317C1.66797 4.25365 2.41416 4.99984 3.33463 4.99984Z" stroke="#98A2B3" stroke-width="1.66667" stroke-linecap="round" stroke-linejoin="round"/>
<path d="M3.33463 28.3332C4.25511 28.3332 5.0013 27.587 5.0013 26.6665C5.0013 25.746 4.25511 24.9998 3.33463 24.9998C2.41416 24.9998 1.66797 25.746 1.66797 26.6665C1.66797 27.587 2.41416 28.3332 3.33463 28.3332Z" stroke="#98A2B3" stroke-width="1.66667" stroke-linecap="round" stroke-linejoin="round"/>
</svg>
