<svg width="39" height="39" viewBox="0 0 39 39" fill="none" xmlns="http://www.w3.org/2000/svg">
<path d="M8.1933 24.6433C8.1933 26.8981 6.35139 28.74 4.09665 28.74C1.8419 28.74 0 26.8981 0 24.6433C0 22.3886 1.8419 20.5467 4.09665 20.5467H8.1933V24.6433Z" fill="#E01E5A"/>
<path d="M10.2588 24.6433C10.2588 22.3886 12.1007 20.5467 14.3554 20.5467C16.6102 20.5467 18.4521 22.3886 18.4521 24.6433V34.9008C18.4521 37.1556 16.6102 38.9975 14.3554 38.9975C12.1007 38.9975 10.2588 37.1556 10.2588 34.9008V24.6433Z" fill="#E01E5A"/>
<path d="M14.3554 8.1933C12.1007 8.1933 10.2588 6.35139 10.2588 4.09665C10.2588 1.8419 12.1007 0 14.3554 0C16.6102 0 18.4521 1.8419 18.4521 4.09665V8.1933H14.3554Z" fill="#36C5F0"/>
<path d="M14.3541 10.2573C16.6089 10.2573 18.4508 12.0992 18.4508 14.354C18.4508 16.6087 16.6089 18.4506 14.3541 18.4506H4.09665C1.8419 18.4506 0 16.6087 0 14.354C0 12.0992 1.8419 10.2573 4.09665 10.2573H14.3541Z" fill="#36C5F0"/>
<path d="M30.804 14.354C30.804 12.0992 32.6459 10.2573 34.9007 10.2573C37.1554 10.2573 38.9973 12.0992 38.9973 14.354C38.9973 16.6087 37.1554 18.4506 34.9007 18.4506H30.804V14.354Z" fill="#2EB67D"/>
<path d="M28.7424 14.3541C28.7424 16.6089 26.9005 18.4508 24.6458 18.4508C22.3911 18.4508 20.5492 16.6089 20.5492 14.3541V4.09665C20.5492 1.8419 22.3911 0 24.6458 0C26.9005 0 28.7424 1.8419 28.7424 4.09665V14.3541Z" fill="#2EB67D"/>
<path d="M24.6458 30.8045C26.9005 30.8045 28.7424 32.6464 28.7424 34.9011C28.7424 37.1559 26.9005 38.9978 24.6458 38.9978C22.3911 38.9978 20.5492 37.1559 20.5492 34.9011V30.8045H24.6458Z" fill="#ECB22E"/>
<path d="M24.6458 28.74C22.3911 28.74 20.5492 26.8981 20.5492 24.6433C20.5492 22.3886 22.3911 20.5467 24.6458 20.5467H34.9033C37.158 20.5467 38.9999 22.3886 38.9999 24.6433C38.9999 26.8981 37.158 28.74 34.9033 28.74H24.6458Z" fill="#ECB22E"/>
</svg>
