<?xml version="1.0" encoding="UTF-8" standalone="no"?>
<!-- Generator: Adobe Illustrator 21.1.0, SVG Export Plug-In . SVG Version: 6.00 Build 0)  -->

<svg
   xmlns:dc="http://purl.org/dc/elements/1.1/"
   xmlns:cc="http://creativecommons.org/ns#"
   xmlns:rdf="http://www.w3.org/1999/02/22-rdf-syntax-ns#"
   xmlns:svg="http://www.w3.org/2000/svg"
   xmlns="http://www.w3.org/2000/svg"
   xmlns:sodipodi="http://sodipodi.sourceforge.net/DTD/sodipodi-0.dtd"
   xmlns:inkscape="http://www.inkscape.org/namespaces/inkscape"
   version="1.1"
   id="Layer_1"
   x="0px"
   y="0px"
   viewBox="-3.7 2.92 120 60.000002"
   xml:space="preserve"
   sodipodi:docname="avro-ar21.svg"
   width="120"
   height="60"
   inkscape:version="0.92.3 (2405546, 2018-03-11)"><metadata
   id="metadata105"><rdf:RDF><cc:Work
       rdf:about=""><dc:format>image/svg+xml</dc:format><dc:type
         rdf:resource="http://purl.org/dc/dcmitype/StillImage" /><dc:title></dc:title></cc:Work></rdf:RDF></metadata><defs
   id="defs103" /><sodipodi:namedview
   pagecolor="#ffffff"
   bordercolor="#666666"
   borderopacity="1"
   objecttolerance="10"
   gridtolerance="10"
   guidetolerance="10"
   inkscape:pageopacity="0"
   inkscape:pageshadow="2"
   inkscape:window-width="1920"
   inkscape:window-height="1001"
   id="namedview101"
   showgrid="false"
   inkscape:zoom="1.1437247"
   inkscape:cx="41.530973"
   inkscape:cy="46.279999"
   inkscape:window-x="-9"
   inkscape:window-y="-9"
   inkscape:window-maximized="1"
   inkscape:current-layer="Layer_1" />
<style
   type="text/css"
   id="style2">
	.st0{fill:#0040FE;}
	.st1{fill:#FEFEFE;}
	.st2{fill:#FBFBFE;}
	.st3{fill:#F4F6FE;}
	.st4{fill:#EAEFFE;}
	.st5{fill:#D8E2FE;}
	.st6{fill:#D8E1FE;}
	.st7{fill:#F1F4FE;}
	.st8{fill:#E4EBFE;}
	.st9{fill:#FAFBFE;}
	.st10{fill:#ECF1FE;}
	.st11{fill:#E6ECFE;}
	.st12{fill:#D2DDFE;}
	.st13{fill:#9FB7FE;}
	.st14{fill:#FCFDFE;}
	.st15{fill:#D5DFFE;}
	.st16{fill:#D1DCFE;}
	.st17{fill:#FBFCFE;}
	.st18{fill:#FDFEFE;}
	.st19{fill:#FDFDFE;}
	.st20{fill:#FCFCFE;}
	.st21{fill:#DAE3FE;}
</style>
<g
   id="g92"
   transform="matrix(0.35248502,0,0,0.35248502,5.3482904,15.475995)">
	<path
   class="st0"
   d="m 264.5,93.2 c -79.9,0 -159.8,0 -239.7,0 C 24,89.9 26.7,88.8 28.7,87.4 40,79.2 51.9,71.7 63.7,63.7 59.7,63.4 55.8,63.9 52.1,62.6 50.3,62 48.5,61.3 47,60.1 34,49.9 22.6,37.9 12.6,24.7 11.6,23.4 10.7,22.1 9.5,21.1 5.6,17.9 3.6,13.7 2.7,8.9 c 0,-1 0,-1.9 0,-2.9 3.1,-0.7 5.5,0.9 7.8,2.4 11.3,7.6 23.9,8.9 37,8.3 12.7,-0.6 25.3,-2.5 38.1,-3.4 14,-1 27.7,0.1 40.9,4.9 2.7,1 4.9,-0.1 7.1,-1.5 11.3,-7.6 10.5,-7.6 21.8,0 2.8,1.9 5.4,2.3 8.5,1.1 16.1,-6 32.8,-5.5 49.5,-3.6 10.6,1.2 21.2,2.7 31.9,2.9 11.8,0.2 23.5,-1.6 33.7,-8.9 2.1,-1.5 4.5,-3 7.4,-2.2 0,1 0,1.9 0,2.9 -0.9,4.8 -3.5,8.5 -6.7,12.3 -5,6 -10.1,11.8 -15,17.9 -4.6,5.7 -9.8,10.9 -15.7,15.2 -1.4,1 -2.9,2 -4.1,3.3 -3.7,4.3 -8.6,5.9 -14.1,6.1 -1.7,0.1 -3.5,-0.1 -5.3,0.2 11.7,7.9 23.6,15.4 34.9,23.7 2.2,1.3 5,2.3 4.1,5.6 z"
   id="path4"
   inkscape:connector-curvature="0"
   style="fill:#0040fe" />
	
	
	
	<path
   class="st2"
   d="m 256.2,91.2 c -74.6,0 -148.3,0 -223,0 3.7,-2.6 6.7,-4.8 9.7,-6.8 32.9,-22.1 65.7,-44.1 98.6,-66.2 2,-1.4 3.5,-2.1 5.9,-0.4 35.6,24.1 71.2,48 106.8,72 0.4,0.1 0.9,0.5 2,1.4 z"
   id="path12"
   inkscape:connector-curvature="0"
   style="fill:#fbfbfe" />
	<path
   class="st1"
   d="m 125.6,24.8 c -6.1,4.1 -12.2,8.2 -18.3,12.3 -1.1,0.7 -2,1.5 -3.3,0.2 C 96.1,30 86,29.8 76.2,29.3 63,28.6 49.7,28.7 36.8,25.2 33.5,24.3 30.2,23.1 27,21.7 c 22,3 43.4,-2.6 65.2,-3.2 9.8,-0.3 19.4,0.5 28.8,3.7 1.5,0.5 3.3,0.8 4.6,2.6 z"
   id="path14"
   inkscape:connector-curvature="0"
   style="fill:#fefefe" />
	<path
   class="st1"
   d="m 163.3,24.4 c 8.4,-4.2 16.9,-5.3 25.5,-5.8 11.9,-0.7 23.6,1 35.3,2.2 12.5,1.3 25.1,2.5 37.7,0.8 -8,4 -16.5,5.7 -25.2,6.4 -10.3,0.8 -20.7,1.2 -31.1,1.9 -7.2,0.5 -14.3,1.9 -19.9,7.1 -1.2,1.1 -2.1,1.1 -3.3,0.3 -6.1,-4.2 -12.3,-8.4 -19,-12.9 z"
   id="path16"
   inkscape:connector-curvature="0"
   style="fill:#fefefe" />
	<path
   class="st3"
   d="m 55,38.9 c 6.1,-0.1 12.2,0.1 18.2,-1.3 2.3,-0.5 3.5,0.9 4.2,3.5 -7.8,0.4 -15.3,1.7 -22.4,-2.2 z"
   id="path18"
   inkscape:connector-curvature="0"
   style="fill:#f4f6fe" />
	<path
   class="st4"
   d="m 47,31 c 7.7,1.7 15.9,0 23.4,2.8 C 62.2,36.3 54.3,35.7 47,31 Z"
   id="path20"
   inkscape:connector-curvature="0"
   style="fill:#eaeffe" />
	<path
   class="st4"
   d="m 219,34 c 7.4,-3.1 15.2,-1.3 22.7,-2.7 C 234.6,36 226.9,36 219,34 Z"
   id="path22"
   inkscape:connector-curvature="0"
   style="fill:#eaeffe" />
	<path
   class="st3"
   d="m 212,40.9 c 0.8,-2.8 2.3,-3.8 4.7,-3.2 5.5,1.2 11,1.2 16.8,0.8 -3.1,3.3 -10.1,4.1 -21.5,2.4 z"
   id="path24"
   inkscape:connector-curvature="0"
   style="fill:#f4f6fe" />
	<path
   class="st4"
   d="m 227.3,49.9 c -3.8,4.3 -8.5,3.3 -12.8,2.7 -2.4,-0.3 -7.2,0.3 -6.9,-2.1 0.6,-3.4 4.5,-0.5 6.9,-0.6 4.3,-0.1 8.5,0 12.8,0 z"
   id="path26"
   inkscape:connector-curvature="0"
   style="fill:#eaeffe" />
	<path
   class="st4"
   d="m 62,50.9 c 5.8,-0.7 11.6,-0.6 17.3,-1.7 1,-0.2 2.5,-0.5 2.7,1.1 0.3,1.7 -1.2,1.5 -2.2,1.7 -6,0.7 -12,2.4 -17.8,-1.1 z"
   id="path28"
   inkscape:connector-curvature="0"
   style="fill:#eaeffe" />
	<path
   class="st5"
   d="m 234.1,44 c -8,5.5 -16.5,2.3 -24.8,1.3 4,-1.6 8.1,-0.3 12.2,-0.2 4.3,0.1 8.4,-0.9 12.6,-1.1 z"
   id="path30"
   inkscape:connector-curvature="0"
   style="fill:#d8e2fe" />
	<path
   class="st6"
   d="m 55.2,43.6 c 8.2,2.6 16.5,0.8 25.5,0.8 -5.9,3.9 -20.9,3.5 -25.5,-0.8 z"
   id="path32"
   inkscape:connector-curvature="0"
   style="fill:#d8e1fe" />
	<path
   class="st7"
   d="m 255.9,35.7 c -6,3.2 -11.8,4.8 -16.9,4.7 1.6,-3 4.7,-2.8 7.1,-3.6 2.5,-0.9 5.2,-1.4 7.8,-2.1 1.1,-0.5 2,-0.8 2,1 z"
   id="path34"
   inkscape:connector-curvature="0"
   style="fill:#f1f4fe" />
	<path
   class="st7"
   d="m 35.5,34.7 c 4.8,1.5 9.9,2.1 14.1,5.3 -5.8,0.2 -11.1,-1.6 -16.1,-4.3 -0.1,-1.8 0.9,-1.5 2,-1 z"
   id="path36"
   inkscape:connector-curvature="0"
   style="fill:#f1f4fe" />
	<path
   class="st8"
   d="m 52.4,46.5 c -5.2,0 -10,-1.4 -14.6,-3.7 5.2,0.1 10.3,0.6 14.6,3.7 z"
   id="path38"
   inkscape:connector-curvature="0"
   style="fill:#e4ebfe" />
	<path
   class="st8"
   d="m 251,42.7 c -4.4,3 -9.2,3.5 -14.1,4.5 1.7,-2.8 8.7,-5 14.1,-4.5 z"
   id="path40"
   inkscape:connector-curvature="0"
   style="fill:#e4ebfe" />
	<path
   class="st9"
   d="m 25.4,25.6 c 5.1,2.5 11.1,2.8 15.7,6.4 -5.9,-0.5 -11,-3.1 -15.7,-6.4 z"
   id="path42"
   inkscape:connector-curvature="0"
   style="fill:#fafbfe" />
	<path
   class="st10"
   d="m 260,28.1 c -3.7,2.4 -8,3.3 -13,5 3.2,-5.1 7.9,-4.6 11.8,-6 0.5,0.3 1.1,0.4 1.2,1 z"
   id="path44"
   inkscape:connector-curvature="0"
   style="fill:#ecf1fe" />
	<path
   class="st11"
   d="m 43.2,48.8 c 5.9,1.1 10.4,2 16.1,3.1 -5.9,1.6 -10.8,0.7 -16.1,-3.1 z"
   id="path46"
   inkscape:connector-curvature="0"
   style="fill:#e6ecfe" />
	<path
   class="st11"
   d="m 244.2,49.8 c -3.9,2.7 -8.2,3.5 -12.9,2.7 4,-2.3 8.5,-2.1 12.9,-2.7 z"
   id="path48"
   inkscape:connector-curvature="0"
   style="fill:#e6ecfe" />
	<path
   class="st12"
   d="m 67.6,56.7 c 3.3,-0.3 6.3,-0.5 9.7,-0.8 -3,4.4 -4.9,4.5 -9.7,0.8 z"
   id="path50"
   inkscape:connector-curvature="0"
   style="fill:#d2ddfe" />
	<path
   class="st12"
   d="m 211.6,55.8 c 3.6,0.3 6.8,0.6 10.2,0.8 -4.8,3.8 -6.4,3.7 -10.2,-0.8 z"
   id="path52"
   inkscape:connector-curvature="0"
   style="fill:#d2ddfe" />
	<path
   class="st13"
   d="m 54.6,57.6 c -1,0.2 -1.8,-0.1 -2.7,-1.4 2.4,-0.6 4.5,-0.2 6.6,0.4 -1,1.4 -2.7,0.1 -3.9,1 z"
   id="path54"
   inkscape:connector-curvature="0"
   style="fill:#9fb7fe" />
	<path
   class="st14"
   d="m 54.6,57.6 c 1.3,-0.3 2.6,-0.7 3.9,-1 1.4,0.2 3.1,-0.5 4.9,0.8 -3.2,1.2 -6,0.5 -8.8,0.2 z"
   id="path56"
   inkscape:connector-curvature="0"
   style="fill:#fcfdfe" />
	<path
   class="st14"
   d="m 234.7,57.6 c -2.8,0.3 -5.5,0.8 -8.6,0 1.5,-1.8 3.2,-0.6 4.7,-1 1.4,-0.1 3.2,-1.4 3.9,1 z"
   id="path58"
   inkscape:connector-curvature="0"
   style="fill:#fcfdfe" />
	<path
   class="st15"
   d="m 255.9,35.7 c -0.7,-0.3 -1.3,-0.6 -2,-1 1.7,-0.9 3.3,-2.3 5.8,-1.9 -0.7,2 -2.2,2.5 -3.8,2.9 z"
   id="path60"
   inkscape:connector-curvature="0"
   style="fill:#d5dffe" />
	<path
   class="st13"
   d="m 234.7,57.6 c -1.3,-0.3 -2.6,-0.7 -3.9,-1 1.5,-0.2 3.1,-0.5 4.6,-0.7 0.7,-0.1 1.2,0.3 0.9,1.1 -0.2,0.8 -0.9,0.7 -1.6,0.6 z"
   id="path62"
   inkscape:connector-curvature="0"
   style="fill:#9fb7fe" />
	<path
   class="st16"
   d="m 35.5,34.7 c -0.7,0.3 -1.3,0.7 -2,1 -1.3,-0.4 -2.7,-0.5 -3,-2.5 1.9,-0.3 3.5,0.6 5,1.5 z"
   id="path64"
   inkscape:connector-curvature="0"
   style="fill:#d1dcfe" />
	<path
   class="st9"
   d="m 260,28.1 c -0.4,-0.3 -0.8,-0.6 -1.2,-1 1.5,-0.6 3,-1.2 5.3,-2.1 -1.2,2.5 -2.7,2.9 -4.1,3.1 z"
   id="path66"
   inkscape:connector-curvature="0"
   style="fill:#fafbfe" />
	<path
   class="st0"
   d="m 245.4,88 c -67.6,0 -133.8,0 -200.4,0 1.2,-2 3.1,-2.9 4.7,-4 30.4,-20.5 60.9,-40.9 91.3,-61.4 2.7,-1.9 4.6,-2 7.5,-0.1 30.2,20.5 60.6,40.8 90.9,61.2 1.5,1.1 3.2,2.3 6,4.3 z"
   id="path68"
   inkscape:connector-curvature="0"
   style="fill:#0040fe" />
	<path
   class="st1"
   d="m 185,83.6 c -4.8,0 -8.4,0 -12,0 -1.2,0 -2,-0.3 -2.8,-1.4 -4,-6 -8,-11.9 -12.1,-17.8 -1.1,-1.6 -1,-2.1 1,-2.9 10,-4.1 11.9,-9.7 6.5,-19.1 -0.6,-1 -1.9,-1.8 -1.2,-4.1 7.5,5 14.8,9.9 22.2,14.9 -12.8,7 -13.9,21.2 -1.6,30.4 z"
   id="path70"
   inkscape:connector-curvature="0"
   style="fill:#fefefe" />
	<path
   class="st17"
   d="m 143.5,26.4 c 0,18.4 0,36.4 0,54.4 0,2 -0.6,3 -2.7,2.8 -0.2,0 -0.3,0 -0.5,0 -12.8,0.7 -12.9,0.6 -9.8,-11.7 3.4,-13.9 6.9,-27.8 10.3,-41.7 0.3,-1.3 0.2,-2.9 2.7,-3.8 z"
   id="path72"
   inkscape:connector-curvature="0"
   style="fill:#fbfcfe" />
	<path
   class="st18"
   d="m 120.3,83.2 c -0.5,0.2 -0.7,0.3 -0.8,0.3 -12.1,0.9 -12.1,0.9 -15.4,-10.8 -1.3,-4.4 -2.3,-8.9 -3.9,-13.2 -1.1,-3 -0.5,-4.5 2.1,-6.2 7.9,-5.1 7.8,-5.2 10.4,3.5 2.6,8.8 5.1,17.6 7.6,26.4 z"
   id="path74"
   inkscape:connector-curvature="0"
   style="fill:#fdfefe" />
	<path
   class="st19"
   d="m 230.3,83.6 c -11.3,0 -22.6,0 -34.8,0 6.6,-4.8 9,-10.9 7.6,-19.3 9.6,6.4 18.6,12.4 27.5,18.4 0,0.3 -0.2,0.6 -0.3,0.9 z"
   id="path76"
   inkscape:connector-curvature="0"
   style="fill:#fdfdfe" />
	<path
   class="st19"
   d="m 58.6,82.8 c 10.4,-7 20.7,-13.9 32,-21.5 -2.1,7.6 -3.8,14.2 -5.6,20.8 -0.5,2 -2.1,1.6 -3.5,1.6 -7.5,0 -15,0 -22.5,0 -0.1,-0.4 -0.2,-0.6 -0.4,-0.9 z"
   id="path78"
   inkscape:connector-curvature="0"
   style="fill:#fdfdfe" />
	<path
   class="st14"
   d="m 133,32.8 c -3.1,12.7 -5.9,24.3 -8.8,35.8 -0.3,0.1 -0.6,0.2 -0.9,0.2 -2.3,-7.8 -4.5,-15.7 -6.8,-23.5 -0.3,-1.1 0.4,-1.8 1.2,-2.3 4.9,-3.2 9.6,-6.4 15.3,-10.2 z"
   id="path80"
   inkscape:connector-curvature="0"
   style="fill:#fcfdfe" />
	<path
   class="st20"
   d="m 196.7,68.7 c 0,5 -3.1,8.9 -6.9,8.8 -3.5,-0.1 -6.6,-4 -6.7,-8.6 -0.1,-4.7 3.1,-9 6.7,-9.1 3.8,0 6.9,4 6.9,8.9 z"
   id="path82"
   inkscape:connector-curvature="0"
   style="fill:#fcfcfe" />
	<path
   class="st20"
   d="m 150.3,35.2 c 4.8,4.5 8.7,8.4 10.8,13.6 0.9,2.3 0.6,4.1 -1.7,5.2 -2.7,1.2 -5.6,2.3 -8.6,1.4 -0.3,-0.1 -0.4,-1.1 -0.4,-1.7 -0.1,-5.8 -0.1,-11.6 -0.1,-18.5 z"
   id="path84"
   inkscape:connector-curvature="0"
   style="fill:#fcfcfe" />
	<path
   class="st14"
   d="m 151.3,66.6 c 3.7,5.4 7.3,10.8 11.6,17.1 -4.1,0 -7.4,0 -10.8,0 -0.8,0 -1.7,-0.2 -1.7,-1.2 0,-5.3 0,-10.5 0,-15.8 0.3,-0.1 0.6,-0.1 0.9,-0.1 z"
   id="path86"
   inkscape:connector-curvature="0"
   style="fill:#fcfdfe" />
	<path
   class="st1"
   d="m 92.2,82.9 c 2.4,-1.3 4.8,-1.3 7.2,0 -2.3,0.9 -4.8,0.9 -7.2,0 z"
   id="path88"
   inkscape:connector-curvature="0"
   style="fill:#fefefe" />
	<path
   class="st21"
   d="m 95.8,70.6 c 0.7,1.4 2.1,2.7 0.8,4.3 -0.2,0.3 -1.5,0.3 -1.8,0 -1.2,-1.5 0.2,-2.8 1,-4.3 z"
   id="path90"
   inkscape:connector-curvature="0"
   style="fill:#dae3fe" />
</g>
<g
   id="g98"
   transform="translate(0,-32.559998)">
	
	
</g>
</svg>