<?xml version="1.0" encoding="UTF-8" standalone="no"?>
<svg
   width="309"
   height="309"
   viewBox="0 0 309 309"
   version="1.1"
   preserveAspectRatio="xMidYMid"
   id="svg22"
   sodipodi:docname="aws-sqs.svg"
   inkscape:version="1.1 (1:1.1+202105261517+ce6663b3b7)"
   xmlns:inkscape="http://www.inkscape.org/namespaces/inkscape"
   xmlns:sodipodi="http://sodipodi.sourceforge.net/DTD/sodipodi-0.dtd"
   xmlns="http://www.w3.org/2000/svg"
   xmlns:svg="http://www.w3.org/2000/svg">
  <defs
     id="defs26" />
  <sodipodi:namedview
     id="namedview24"
     pagecolor="#ffffff"
     bordercolor="#666666"
     borderopacity="1.0"
     inkscape:pageshadow="2"
     inkscape:pageopacity="0.0"
     inkscape:pagecheckerboard="0"
     showgrid="false"
     width="309px"
     inkscape:zoom="2.0526692"
     inkscape:cx="127.3951"
     inkscape:cy="165.63799"
     inkscape:window-width="1920"
     inkscape:window-height="1016"
     inkscape:window-x="0"
     inkscape:window-y="27"
     inkscape:window-maximized="1"
     inkscape:current-layer="svg22" />
  <g
     id="g20"
     transform="translate(26.5,-0.0015)">
    <path
       d="m 255.991,100.211 -4.112,-0.069 -123.792,-36.65 -0.074,-1.696 V 0 L 256,64.006 l -0.009,36.205"
       fill="#d9a741"
       id="path2" />
    <path
       d="M 128,65.5 128.013,0 0.017,63.981 0,244.996 l 0.064,0.032 v 0.002 l 127.923,63.973 0.425,-0.591 -0.165,-60.871 -0.251,-0.339 L 120,241.5 21,212 21.5,97.5 128,65.5"
       fill="#876929"
       id="path4" />
    <path
       d="M 147.141,195.298 16.351,213.697 16.36,95.28 l 130.79,18.424 -0.009,81.594"
       fill="#d9a741"
       id="path6" />
    <path
       d="m 80.864,187.813 47.132,6 0.008,-78.658 -47.131,5.995 -0.009,66.663"
       fill="#876929"
       id="path8" />
    <path
       d="m 33.385,181.771 30.587,3.888 0.009,-62.363 -30.596,3.897 v 54.578"
       fill="#876929"
       id="path10" />
    <path
       d="M 16.36,95.28 128.013,61.796 255.991,100.211 147.231,113.713 16.36,95.28"
       fill="#624a1e"
       id="path12" />
    <path
       d="m 255.927,177.376 -127.931,16.145 0.008,-78.366 127.923,16.296 v 45.925"
       fill="#d9a741"
       id="path14" />
    <path
       d="m 255.918,208.834 -2.753,0.119 -124.776,37.77 -0.393,0.479 -0.009,61.801 127.931,-63.951 v -36.218"
       fill="#d9a741"
       id="path16" />
    <path
       d="M 16.351,213.697 127.996,247.202 255.918,208.834 147.141,195.298 16.351,213.697"
       fill="#fad791"
       id="path18" />
  </g>
</svg>
