<?xml version="1.0" encoding="UTF-8" standalone="no"?>
<svg
   version="1.1"
   id="svg2"
   xml:space="preserve"
   width="620"
   height="620"
   viewBox="0 0 620 620"
   sodipodi:docname="bloblang.svg"
   inkscape:version="1.1 (1:1.1+202105261517+ce6663b3b7)"
   xmlns:inkscape="http://www.inkscape.org/namespaces/inkscape"
   xmlns:sodipodi="http://sodipodi.sourceforge.net/DTD/sodipodi-0.dtd"
   xmlns="http://www.w3.org/2000/svg"
   xmlns:svg="http://www.w3.org/2000/svg"
   xmlns:rdf="http://www.w3.org/1999/02/22-rdf-syntax-ns#"
   xmlns:cc="http://creativecommons.org/ns#"
   xmlns:dc="http://purl.org/dc/elements/1.1/"><metadata
     id="metadata8"><rdf:RDF><cc:Work
         rdf:about=""><dc:format>image/svg+xml</dc:format><dc:type
           rdf:resource="http://purl.org/dc/dcmitype/StillImage" /></cc:Work></rdf:RDF></metadata><defs
     id="defs6" /><sodipodi:namedview
     inkscape:document-rotation="0"
     pagecolor="#ffffff"
     bordercolor="#666666"
     borderopacity="1"
     objecttolerance="10"
     gridtolerance="10"
     guidetolerance="10"
     inkscape:pageopacity="0"
     inkscape:pageshadow="2"
     inkscape:window-width="1920"
     inkscape:window-height="1016"
     id="namedview4"
     showgrid="false"
     inkscape:zoom="0.67972032"
     inkscape:cx="153.7397"
     inkscape:cy="328.07611"
     inkscape:window-x="0"
     inkscape:window-y="27"
     inkscape:window-maximized="1"
     inkscape:current-layer="g10"
     inkscape:pagecheckerboard="0"
     width="620.01331px" /><g
     id="g10"
     inkscape:groupmode="layer"
     inkscape:label="ink_ext_XXXXXX"
     transform="matrix(1.3333333,0,0,-1.3333333,0,341.70667)"><g
       id="g1946"><g
         id="g1531"
         transform="matrix(1.3934676,0,0,1.3934676,-36.084177,2.7801319)"><path
           id="path6889"
           style="fill:#484b4c;fill-opacity:1;fill-rule:nonzero;stroke:none;stroke-width:0.1"
           d="m 355.02297,106.76431 c -28.279,7.442 -26.79,-17.488 -27.162,-27.107 -0.134,-3.443 -2.029,-5.376 -4.404,-6.447 -29.244,1.149 -49.352,36.306 -61.419,50.787 -12.674,15.209 -22.813,22.813 -30.418,22.813 -7.604,0 -7.604,3.802 -25.348,5.069 -12.525,0.895 -54.73,-13.998 -78.473,-22.836 -10.519,-3.915 -18.906,-12.068 -23.109,-22.475 l -20.0885,-49.744 179.9715,-49.429 c 12.673,31.685 -6.337,60.836 -6.337,60.836 0,0 11.839,-10.123 38.912,-18.67 0.989,-0.339 2.06,-0.674 3.24,-1.003 0.093,-0.026 0.182,-0.045 0.274,-0.07 0.346,-0.103 0.682,-0.206 1.032,-0.307 l 0.035,0.033 c 33.109,-8.603 52.79,9.728 43.024,31.443 -9.897,22.008 10.27,27.107 10.27,27.107" /><path
           id="path6891"
           style="fill:#2f3031;fill-opacity:1;fill-rule:nonzero;stroke:none;stroke-width:0.1"
           d="m 236.05597,117.02631 c 0,0 6.25,-30.137 -10.907,-25.236 l 27.805,-19.642 4.424,10.047 -11.968,26.023 -9.354,8.808" /><path
           id="path6893"
           style="fill:#171717;fill-opacity:1;fill-rule:nonzero;stroke:none;stroke-width:0.1"
           d="m 261.40497,87.87531 c 3.801,-3.802 17.743,-1.267 6.337,3.803 -11.408,5.069 -31.686,25.348 -31.686,25.348 12.208,-12.208 22.06,-46.742 22.769,-49.268 2.154,-1.681 10.414,-7.659 25.988,-13.834 -22.218,18.012 -27.211,37.754 -23.408,33.951" /><path
           id="path6895"
           style="fill:#8b198d;fill-opacity:1;fill-rule:nonzero;stroke:none;stroke-width:0.1"
           d="m 260.43497,26.76531 9.82,12.771 -11.82,37.205 c 0,0 -13.614,8.934 -38.622,15.751 -28.098,7.66 -90.015,17.051 -124.2951,-0.705 l -10.9164,-34.963 118.1005,-6.998 57.733,-23.061" /><path
           id="path6897"
           style="fill:#5c268d;fill-opacity:1;fill-rule:nonzero;stroke:none;stroke-width:0.1"
           d="m 258.43397,76.74131 c 0,0 -12.702,8.115 -33.284,15.046 0.015,-0.064 7.614,-16.391 -12.105,-19.639 l 56.77,-31.224 -11.381,35.817" /><path
           id="path6899"
           style="fill:none;stroke:#5c268d;stroke-width:6;stroke-linecap:butt;stroke-linejoin:miter;stroke-miterlimit:10;stroke-dasharray:none;stroke-opacity:1"
           d="m 169.42397,63.86931 h -34.207 c -2.993,0 -5.419,2.426 -5.419,5.419 v 25.814 c 0,2.992 2.426,5.418 5.419,5.418 h 34.207 c 2.993,0 5.419,-2.426 5.419,-5.418 v -25.814 c 0,-2.993 -2.426,-5.419 -5.419,-5.419 z" /><path
           id="path6901"
           style="fill:none;stroke:#f7a62a;stroke-width:6;stroke-linecap:butt;stroke-linejoin:miter;stroke-miterlimit:10;stroke-dasharray:none;stroke-opacity:1"
           d="m 166.42397,63.86931 h -34.207 c -2.993,0 -5.419,2.426 -5.419,5.419 v 25.814 c 0,2.992 2.426,5.418 5.419,5.418 h 34.207 c 2.993,0 5.419,-2.426 5.419,-5.418 v -25.814 c 0,-2.993 -2.426,-5.419 -5.419,-5.419 z" /><path
           id="path6903"
           style="fill:#ff9197;fill-opacity:1;fill-rule:evenodd;stroke:none;stroke-width:0.1"
           d="m 75.22487,-21.55279 -24.2109,-21.493 c -3.9168,-3.4781 -19.0254,14.552 -16.2407,26.4192 2.7844,11.8648 33.4165,10.198 33.4165,10.198 4.0582,-2.7281 8.9898,-13.389 7.0351,-15.1242" /><path
           id="path6905"
           style="fill:#fb7c83;fill-opacity:1;fill-rule:evenodd;stroke:none;stroke-width:0.1"
           d="m 42.60887,-38.44259 c 2.341,-8.5012 14.848,1.3847 10.748,-2.5243 l 21.868,19.4141 c 0,0 -20.56778,-8.05107 -32.616,-16.8898"
           sodipodi:nodetypes="cccc" /><path
           id="path6907"
           style="fill:#171717;fill-opacity:1;fill-rule:nonzero;stroke:none;stroke-width:0.1"
           d="m 30.79557,75.39631 c 0,0 23.5973,-88.3401 280.7214,-72.637 l -27.665,31.031 -96.828,29.927 -118.7987,-2.19 -37.4297,13.869" /><path
           id="path6909"
           style="fill:#1e6636;fill-opacity:1;fill-rule:nonzero;stroke:none;stroke-width:0.1"
           d="m 76.16977,56.03731 c 0,0 -9.609,-44.017 -40.289,-38.936 0,0 53.0343,-21.037 69.6852,30.066 l -29.3962,8.87" /><path
           id="path6911"
           style="fill:#1e6636;fill-opacity:1;fill-rule:nonzero;stroke:none;stroke-width:0.1"
           d="m 274.24597,33.28431 c 0,0 -1.674,-23.087 15.628,-21.134 0,0 -27.684,-19.7461 -39.237,13.709 l 10.843,24.359 12.766,-16.934" /><path
           id="path6913"
           style="fill:#ffc7c7;fill-opacity:1;fill-rule:evenodd;stroke:none;stroke-width:0.1"
           d="m 68.79867,-42.22779 c 17.975,-50.8328 74.7533,-19.0008 89.6623,-19.484 14.909,-0.4828 23.043,3.811 35.855,1.9731 12.813,-1.8379 32.711,-19.55001 73.131,-7.5039 53.413,16.1179 -12.755,143.6069 -97.96,143.6069 -85.2047,0 -112.9012,-86.8601 -100.6883,-118.5921 v 0" /><path
           id="path6921"
           style="fill:#ffc7c7;fill-opacity:1;fill-rule:evenodd;stroke:none;stroke-width:0.1"
           d="m 159.50797,-33.37969 -10.187,-17.5801 c 44.44,-0.752 47.335,-53.39808 118.126,-16.2828 13.66,7.1621 20.378,17.43 18.991,33.8629 h -126.93" /><path
           id="path7041"
           style="fill:#f6aeae;fill-opacity:1;fill-rule:evenodd;stroke:none;stroke-width:0.0999997"
           d="m 169.48643,76.364849 c 46.00416,-25.776946 74.61454,-38.205542 83.90852,-56.297994 9.29399,-18.0924535 25.92689,-54.732542 14.05144,-87.30943 14.75834,4.45347 20.37272,17.416358 18.99317,33.836423 -7.4e-4,0.0088 -7.2e-4,0.01755 -10e-4,0.0264 C 282.80583,9.6281967 231.13615,76.364849 169.48643,76.364849 Z"
           sodipodi:nodetypes="czcscc" /><g
           id="g7023"
           transform="translate(-274.08594,-344.15885)"><path
             d="m 367.28402,316.69845 c 1.37436,1.1317 21.48223,17.53408 45.37573,17.97508 16.20826,0.30226 29.80051,2.02501 49.47601,-6.114 19.6755,-8.139 41.83725,-24.0825 42.41325,-24.4365 0.57675,-0.351 0.96,-2.35725 0.543,-3.252 -0.417,-0.894 -1.764,-0.6255 -2.24925,-0.306 -0.48375,0.3195 -24.62475,14.63925 -41.328,21.54825 -16.7025,6.9075 -31.0395,6.09675 -49.47601,6.11325 -23.898,0.0277 -42.59171,-15.35775 -43.45661,-15.78252 -0.86489,-0.42477 -2.40076,-1.08177 -3.1879,0.32363 -0.78714,1.40539 0.51542,2.79911 1.88978,3.93081 z"
             opacity="1"
             fill="#a7505d"
             id="path6169"
             style="clip-rule:evenodd;fill-rule:evenodd;stroke-width:0.75;stroke-linecap:round;stroke-linejoin:round"
             sodipodi:nodetypes="zcsccccczzz" /><path
             d="m 400.66425,361.25804 c 0.144,-11.5035 -8.91525,-20.9475 -20.232,-21.09525 v 0 c -11.31825,-0.14625 -20.61,9.06 -20.75325,20.56275 -0.144,11.5035 8.91375,20.9475 20.232,21.0945 v 0 c 11.31825,0.147 20.60925,-9.05925 20.75325,-20.562"
             opacity="1"
             fill="#ffffff"
             id="path6171"
             style="clip-rule:evenodd;fill-rule:evenodd;stroke-width:0.75;stroke-linecap:round;stroke-linejoin:round" /><path
             d="m 381.102,344.53679 c -8.835,-0.54075 -16.43025,6.29625 -16.968,15.27675 -0.53775,8.979 6.18375,16.704 15.01875,17.259 8.835,0.5535 16.44,-6.27075 16.99425,-15.27525 0.525,-9.0075 -6.20925,-16.7205 -15.045,-17.2605"
             opacity="1"
             fill="#040606"
             id="path6173"
             style="clip-rule:evenodd;fill-rule:evenodd;stroke-width:0.75;stroke-linecap:round;stroke-linejoin:round" /><path
             d="m 382.85925,371.33879 c 1.542,2.11425 7.146,0.23775 9.1095,-3.276 1.9635,-3.51225 1.9455,-8.907 -1.308,-9.996 -3.2535,-1.0875 -3.01575,3.15 -4.7205,6.138 -1.70625,2.988 -4.623,5.02125 -3.081,7.13325 v 7.5e-4"
             opacity="1"
             fill="#ffffff"
             id="path6175"
             style="clip-rule:evenodd;fill-rule:evenodd;stroke-width:0.75;stroke-linecap:round;stroke-linejoin:round" /><path
             d="m 390.31125,356.97554 c 1.1475,-0.0668 1.9845,-1.251 1.8705,-2.643 -0.11475,-1.3905 -1.1385,-2.463 -2.28675,-2.3955 -1.14825,0.0667 -1.98525,1.251 -1.86975,2.64225 0.11475,1.39125 1.13775,2.46375 2.286,2.39625"
             opacity="1"
             fill="#ffffff"
             id="path6177"
             style="clip-rule:evenodd;fill-rule:evenodd;stroke-width:0.75;stroke-linecap:round;stroke-linejoin:round" /><path
             d="m 490.03801,361.45904 c 0.144,-11.50275 -8.91525,-20.9475 -20.232,-21.093 v 0 c -11.31825,-0.1485 -20.60925,9.05775 -20.75325,20.5605 -0.144,11.5035 8.9145,20.9475 20.2335,21.09525 v 0 c 11.31675,0.14625 20.6085,-9.06 20.75175,-20.56275 v 0"
             opacity="1"
             fill="#ffffff"
             id="path6179"
             style="clip-rule:evenodd;fill-rule:evenodd;stroke-width:0.75;stroke-linecap:round;stroke-linejoin:round" /><path
             d="m 470.47726,344.73779 c -8.8365,-0.54 -16.431,6.29775 -16.968,15.27675 -0.5385,8.9805 6.18375,16.7055 15.01875,17.2605 8.83425,0.5535 16.44,-6.27225 16.99425,-15.2775 0.525,-9.006 -6.21,-16.71975 -15.045,-17.25975"
             opacity="1"
             fill="#040606"
             id="path6181"
             style="clip-rule:evenodd;fill-rule:evenodd;stroke-width:0.75;stroke-linecap:round;stroke-linejoin:round" /><path
             d="m 472.23301,371.53979 c 1.542,2.11425 7.146,0.23775 9.11025,-3.27525 1.96275,-3.5115 1.94475,-8.90775 -1.30725,-9.99675 -3.25425,-1.08825 -3.01575,3.15075 -4.72125,6.13875 -1.7055,2.98725 -4.62375,5.0205 -3.08175,7.13325 v 0"
             opacity="1"
             fill="#ffffff"
             id="path6183"
             style="clip-rule:evenodd;fill-rule:evenodd;stroke-width:0.75;stroke-linecap:round;stroke-linejoin:round" /><path
             d="m 479.68576,357.17804 c 1.1475,-0.0683 1.98525,-1.251 1.8705,-2.64225 -0.1155,-1.392 -1.13925,-2.46525 -2.286,-2.39775 -1.14825,0.0683 -1.98525,1.251 -1.87125,2.643 0.11475,1.39125 1.13775,2.4645 2.28675,2.397"
             opacity="1"
             fill="#ffffff"
             id="path6185"
             style="clip-rule:evenodd;fill-rule:evenodd;stroke-width:0.75;stroke-linecap:round;stroke-linejoin:round" /><path
             d="m 447.00601,362.86679 c 0.93075,-14.6625 -10.81875,-27.35625 -26.25225,-28.35901 -15.43351,-1.00275 -28.71301,10.06426 -29.66851,24.72526 -0.95625,14.661 10.773,27.372 26.2035,28.398 15.43351,1.02675 28.73026,-10.01925 29.71126,-24.678"
             opacity="1"
             fill="#ffc7c7"
             id="path6187"
             style="clip-rule:evenodd;fill-rule:evenodd;stroke-width:0.75;stroke-linecap:round;stroke-linejoin:round" /><path
             d="m 444.67276,353.45879 c -3.28275,-9.77625 -12.59175,-17.157 -23.99175,-17.895 -14.82001,-0.96226 -27.57001,9.6675 -28.48501,23.745 -0.41775,6.42225 1.70025,12.45375 5.53275,17.20875 0,0 2.41425,2.72625 0.954,3.88425 -1.45875,1.15875 -3.5385,-2.09025 -3.5385,-2.09025 -4.266,-5.316 -6.621,-12.05175 -6.153,-19.221 1.0305,-15.75525 15.3015,-27.64576 31.88776,-26.56876 12.777,0.828 23.20575,9.11101 26.868,20.07601 0,0 0.86025,2.24625 -0.648,2.78475 -1.50675,0.53925 -2.42625,-1.92375 -2.42625,-1.92375 v 0"
             opacity="1"
             fill="#a7505d"
             id="path6189"
             style="clip-rule:evenodd;fill-rule:evenodd;stroke-width:0.75;stroke-linecap:round;stroke-linejoin:round" /></g><path
           id="path6941"
           style="fill:#2b9740;fill-opacity:1;fill-rule:nonzero;stroke:none;stroke-width:0.1"
           d="m 84.96047,48.35731 c 0.0398,0.071 -0.1356,-0.092 -0.2262,-0.166 l -0.3524,-0.319 -0.7379,-0.711 c -0.4945,-0.5 -0.991,-1.02 -1.4722,-1.559 -0.9668,-1.076 -1.8899,-2.21 -2.7422,-3.377 -1.6984,-2.336 -3.1594,-4.803 -4.2012,-7.321 -2.1203,-5.051 -2.5844,-10.199 -0.6883,-15.275 l 0.361,-0.954 0.6336,-1.451 c 0.4414,-0.95 0.7601,-1.975 1.1218,-2.961 0.6204,-2.03 1.1481,-4.086 1.3903,-6.189 0.5531,-4.19 0.2312,-8.405 -0.7125,-12.317 -0.9746,-3.9128 -2.5391,-7.5359 -4.4817,-10.8339 -0.9722,-1.65 -2.0398,-3.2211 -3.1886,-4.7211 -0.5746,-0.75 -1.1696,-1.482 -1.7938,-2.1942 -0.639,-0.7308 -1.2289,-1.375 -2.0086,-2.141 l -13.7593,-11.35 9.7003,15.0532 c 0.3836,0.55 0.87,1.2929 1.2758,1.9742 0.4215,0.6968 0.8188,1.4136 1.1949,2.1379 0.7512,1.4519 1.4165,2.9398 1.9774,4.448 1.1242,3.0141 1.8219,6.1098 2.0215,9.1219 0.1691,3.015 -0.1606,5.933 -1.0332,8.623 -0.4035,1.352 -1.018,2.632 -1.6508,3.877 -0.3734,0.607 -0.6762,1.229 -1.0996,1.808 l -0.5891,0.883 -0.8512,1.382 c -2.2675,3.704 -3.7632,8.069 -4.3621,12.52 -0.5879,4.462 -0.2781,8.962 0.634,13.176 0.9031,4.233 2.3848,8.197 4.1852,11.941 0.9058,1.871 1.9015,3.682 2.9898,5.452 0.5418,0.886 1.1141,1.76 1.7113,2.634 l 0.9399,1.317 0.5098,0.676 c 0.2015,0.254 0.3183,0.418 0.6593,0.808 l 14.645,-13.992" /><path
           id="path6943"
           style="fill:#1e6636;fill-opacity:1;fill-rule:nonzero;stroke:none;stroke-width:0.1"
           d="m 244.19297,38.17031 c 0.113,0.109 -0.042,0.01 -0.092,-0.011 l -0.251,-0.146 -0.549,-0.358 c -0.372,-0.258 -0.744,-0.536 -1.105,-0.825 -0.723,-0.577 -1.387,-1.199 -1.968,-1.82 -1.17,-1.253 -1.947,-2.479 -2.345,-3.541 -0.766,-1.996 -0.328,-4.723 3.335,-8.596 2.199,-2.444 4.19,-5.414 5.252,-8.894 1.118,-3.445 1.076,-7.234 0.206,-10.469 -0.881,-3.258 -2.453,-6.024 -4.254,-8.4182 -0.907,-1.1988 -1.883,-2.3058 -2.912,-3.3437 -1.053,-1.0539 -2.06,-1.9692 -3.336,-2.952 l -13.36,-8.8781 9.924,12.7711 c 3.01,3.5919 5.43,8.3409 5.565,12.3279 0.132,4.015 -1.822,6.842 -5.198,9.257 l -0.652,0.476 -0.967,0.762 c -0.652,0.489 -1.276,1.081 -1.904,1.662 -0.631,0.569 -1.219,1.268 -1.823,1.918 -0.563,0.738 -1.162,1.419 -1.666,2.256 -2.143,3.151 -3.474,7.531 -3.256,11.779 0.204,4.253 1.642,8.038 3.419,11.202 0.899,1.593 1.896,3.065 2.98,4.443 0.543,0.689 1.107,1.359 1.702,2.017 0.302,0.328 0.606,0.655 0.931,0.983 l 0.509,0.502 c 0.207,0.192 0.31,0.303 0.687,0.614 l 11.128,-14.718" /><path
           id="path6945"
           style="fill:#2b9740;fill-opacity:1;fill-rule:nonzero;stroke:none;stroke-width:0.1"
           d="m 239.75497,39.22231 c -0.025,0.077 0.116,-0.116 0.192,-0.206 l 0.286,-0.379 0.592,-0.837 c 0.391,-0.584 0.781,-1.187 1.153,-1.807 0.748,-1.238 1.441,-2.525 2.06,-3.832 1.23,-2.613 2.202,-5.311 2.753,-7.979 1.135,-5.359 0.625,-10.503 -2.189,-15.133 l -0.533,-0.87 -0.895,-1.305 c -0.611,-0.852 -1.117,-1.799 -1.657,-2.699 -0.99,-1.877 -1.895,-3.798 -2.526,-5.818 -1.331,-4.012 -1.805,-8.2128 -1.612,-12.232 0.224,-4.0261 1.081,-7.8789 2.37,-11.4832 0.646,-1.8019 1.4,-3.5457 2.247,-5.2347 0.424,-0.845 0.871,-1.675 1.35,-2.4922 0.491,-0.836 0.949,-1.5809 1.572,-2.4789 l 11.386,-13.7289 -6.705,16.605 c -0.273,0.6118 -0.611,1.434 -0.883,2.177 -0.282,0.7648 -0.539,1.543 -0.772,2.3258 -0.466,1.5672 -0.84,3.1531 -1.109,4.7402 -0.538,3.1707 -0.642,6.3418 -0.274,9.3379 0.4,2.9949 1.271,5.798 2.633,8.277 0.65,1.2531 1.493,2.393 2.348,3.498 0.481,0.526 0.895,1.081 1.419,1.57 l 0.744,0.757 1.096,1.197 c 2.922,3.214 5.21,7.221 6.633,11.48 1.414,4.272 1.954,8.751 1.849,13.061 -0.093,4.327 -0.805,8.499 -1.871,12.514 -0.539,2.008 -1.177,3.974 -1.915,5.916 -0.365,0.972 -0.763,1.938 -1.186,2.909 l -0.676,1.47 -0.374,0.759 c -0.15,0.287 -0.234,0.47 -0.496,0.917 l -17.01,-10.996" /><path
           id="path6955"
           style="fill:#ff9197;fill-opacity:1;fill-rule:evenodd;stroke:none;stroke-width:0.1"
           d="m 254.93401,-23.61186 29.472,31.0349 c 4.767,5.022 24.262,-15.0361 21.439,-31.2849 -2.822,-16.2492 -41.851,-16.5602 -41.851,-16.5602 -5.322,3.343 -11.439,14.3039 -9.06,16.8102 v 0" /><path
           id="path6957"
           style="fill:#fb7c83;fill-opacity:1;fill-rule:evenodd;stroke:none;stroke-width:0.1"
           d="m 298.09001,-33.31816 v 0 c 12.045,11.8024 1.022,29.3892 -6.065,35.5902 -6.386,5.587 -31.374,-19.905 -36.257,-25.005 l 28.637,30.156 c 4.768,5.022 24.263,-15.0361 21.44,-31.2849 -0.707,-4.0699 -3.686,-7.1403 -7.755,-9.4563" /><path
           id="path6959"
           style="fill:#484b4c;fill-opacity:1;fill-rule:nonzero;stroke:none;stroke-width:0.1"
           d="m 311.51697,2.75931 c 0,0 -30.424,84.591 -132.79,76.33 -102.365,-8.262 -147.9314,-3.693 -147.9314,-3.693 0,0 26.2473,-45.205 126.1214,-31.573 99.874,13.633 154.6,-41.064 154.6,-41.064" /><path
           id="path6961"
           style="fill:#2f3031;fill-opacity:1;fill-rule:nonzero;stroke:none;stroke-width:0.1"
           d="m 223.20597,76.48731 c 0.581,-0.38 33.783,-22.206 41.033,-44.88 0.001,0 0.001,0 0.001,-10e-4 30.998,-12.581 47.277,-28.847 47.277,-28.847 0,0 -21.328,59.258 -88.311,73.728" /><path
           id="path6963"
           style="fill:#2f3031;fill-opacity:1;fill-rule:nonzero;stroke:none;stroke-width:0.1"
           d="m 355.02297,106.76431 c 0,0 -21.501,1.249 -16.715,-24.569 4.772,-25.744 -5.836,-33.514 -5.898,-33.559 13.031,5.166 18.456,17.43 12.343,31.021 -9.897,22.008 10.27,27.107 10.27,27.107" /></g><g
         id="g1494"
         transform="matrix(-1.2133223,-0.48780908,-0.48780908,1.2133223,537.8627,148.01376)"><path
           id="path6915"
           style="fill:#654021;fill-opacity:1;fill-rule:nonzero;stroke:none;stroke-width:0.1"
           d="m 275.69097,-70.10869 c 0,0 -27.74258,-4.757434 -70.53758,6.446466 -42.7946,11.2031 -31.2082,20.1019 -78.3946,15.9121 -47.185921,-4.1903 -59.146461,14.6707 -43.028491,13.0269 16.11799,-1.6429 19.959791,-6.139 47.887091,-1.2812 40.4582,7.0359 46.425,-10.5328 88.019,-16.534 54.549,-7.8699 57.37558,-2.893266 86.91758,-1.587366 6.642,0.2941 11.933,-2.3579 12.428,-6.2278 v 0 c 0.634,-4.948 -6.724,-9.639 -15.159,-9.666 l -28.132,-0.0891"
           sodipodi:nodetypes="cccccccsscc" /><g
           id="g1487"><path
             id="path6917"
             style="fill:#bd8f56;fill-opacity:1;fill-rule:nonzero;stroke:none;stroke-width:0.1"
             d="m 410.85997,-13.72079 c 0,0 -17.82,-16.0507 -65.91,-12.8257 -1.995,0.3328 -4.038,0.5207 -6.13,0.4918 -18.849,-0.2641 -33.913,-15.759 -33.649,-34.6071 0.265,-18.84801 15.759,-33.91171 34.608,-33.64801 2.263,0.0332 4.468,0.2953 6.603,0.74611 40.483,3.77499 59.576,-10.79418 59.576,-10.79418 -2.33,10.29807 -8.535,17.30507 -16.162,22.08517 40.914,5.7949 75.208,23.85821 75.208,23.85821 -16.387,-0.9231 -32.417,1.0547 -46.735,4.218 13.381,6.1539 19.7,15.4699 19.7,15.4699 -48.589,-8.916 -62.852,-0.8832 -62.852,-0.8832 l 0.531,-0.6668 c -0.763,0.332 -1.497,0.6558 -2.198,0.9687 11.439,3.9012 25.057,11.366 37.41,25.5871" /><path
             id="path6919"
             style="fill:#351f16;fill-opacity:1;fill-rule:nonzero;stroke:none;stroke-width:0.1"
             d="m 310.50897,-54.84189 0.2,-14.2027 c 0.059,-4.20701 -3.303,-7.66601 -7.511,-7.72621 v 0 c -4.207,-0.0578 -7.666,3.3039 -7.726,7.51211 l -0.199,14.202 c -0.06,4.2082 3.303,7.6672 7.511,7.7262 v 0 c 4.208,0.059 7.666,-3.3043 7.725,-7.5114" /><path
             id="path6981"
             style="fill:#a4713e;fill-opacity:1;fill-rule:nonzero;stroke:none;stroke-width:0.1"
             d="m 389.79497,-82.2727 c 40.915,5.7949 75.209,23.85821 75.209,23.85821 -16.387,-0.9231 -32.417,1.0547 -46.735,4.218 13.381,6.1539 19.7,15.4699 19.7,15.4699 0,0 -25.871,-18.152 -34.405,-15.9199 -8.534,2.2339 22.721,-9.2274 46.721,-7.4043 0,0 -53.023,-19.38601 -80.372,-12.68791 0,0 20.742,-6.2129 36.045,-29.61917 -2.33,10.29807 -8.535,17.30507 -16.163,22.08517" /></g></g></g></g></svg>
