<?xml version="1.0" encoding="UTF-8" standalone="no"?>
<svg
   viewBox="-125 -125 500 500"
   version="1.1"
   id="svg986"
   sodipodi:docname="discord.svg"
   inkscape:version="1.1 (ce6663b3b7, 2021-05-25)"
   xmlns:inkscape="http://www.inkscape.org/namespaces/inkscape"
   xmlns:sodipodi="http://sodipodi.sourceforge.net/DTD/sodipodi-0.dtd"
   xmlns="http://www.w3.org/2000/svg"
   xmlns:svg="http://www.w3.org/2000/svg">
  <defs
     id="defs990" />
  <sodipodi:namedview
     id="namedview988"
     pagecolor="#505050"
     bordercolor="#eeeeee"
     borderopacity="1"
     inkscape:pageshadow="0"
     inkscape:pageopacity="0"
     inkscape:pagecheckerboard="0"
     showgrid="false"
     inkscape:zoom="0.807"
     inkscape:cx="312.26766"
     inkscape:cy="310.40892"
     inkscape:window-width="1920"
     inkscape:window-height="1016"
     inkscape:window-x="720"
     inkscape:window-y="27"
     inkscape:window-maximized="1"
     inkscape:current-layer="svg986" />
  <path
     fill="#7289da"
     d="m 80.256953,82.424693 c -13.303059,0 -23.805475,11.66935 -23.805475,25.905957 0,14.23661 10.735803,25.90596 23.805475,25.90596 13.303059,0 23.805477,-11.66935 23.805477,-25.90596 C 104.29581,94.094043 93.560012,82.424693 80.256953,82.424693 Z m 85.186257,0 c -13.30306,0 -23.80548,11.66935 -23.80548,25.905957 0,14.23661 10.73581,25.90596 23.80548,25.90596 13.30306,0 23.80547,-11.66935 23.80547,-25.90596 0,-14.236607 -10.50241,-25.905957 -23.80547,-25.905957 z M 278.86929,-113.387 H -33.869291 c -26.372731,0 -47.844336,21.471602 -47.844336,48.077721 V 250.22995 c 0,26.60612 21.471605,48.07772 47.844336,48.07772 H 230.79157 l -12.36951,-43.1766 29.87353,27.77306 28.23983,26.13934 50.17821,44.34353 V -65.309279 c 0,-26.606119 -21.47161,-48.077721 -47.84434,-48.077721 z m -90.08738,304.80342 c 0,0 -8.40193,-10.03564 -15.40354,-18.90434 30.57369,-8.63532 42.24304,-27.77306 42.24304,-27.77306 -9.56886,6.30145 -18.67096,10.7358 -26.8395,13.76984 -11.66935,4.90112 -22.87193,8.16854 -33.84112,10.03564 -22.40515,4.20096 -42.94321,3.03403 -60.44723,-0.23339 -13.303059,-2.56726 -24.739022,-6.30145 -34.307889,-10.03564 -5.367902,-2.10048 -11.202577,-4.66774 -17.037252,-7.93516 -0.700161,-0.46677 -1.400322,-0.70016 -2.100483,-1.16693 -0.466774,-0.23339 -0.700161,-0.46678 -0.933548,-0.70017 -4.200966,-2.33387 -6.534836,-3.96757 -6.534836,-3.96757 0,0 11.202576,18.67096 40.842726,27.53966 -7.00161,8.86871 -15.63693,19.37112 -15.63693,19.37112 -51.5785269,-1.63371 -71.183035,-35.47482 -71.183035,-35.47482 0,-75.150616 33.607728,-136.064624 33.607728,-136.064624 C 54.817769,-5.32882 86.791789,-4.628659 86.791789,-4.628659 l 2.33387,2.800644 C 47.115998,10.308109 27.744877,28.745682 27.744877,28.745682 c 0,0 5.134514,-2.800644 13.769833,-6.768223 C 66.48712,11.00827 86.325015,7.9742391 94.49356,7.2740781 c 1.400322,-0.233387 2.567257,-0.466774 3.967579,-0.466774 14.236611,-1.867096 30.340311,-2.33387 47.144171,-0.466774 22.17177,2.567257 45.97724,9.1020929 70.24949,22.4051519 0,0 -18.43757,-17.504025 -58.11336,-29.64014896 l 3.26742,-3.73419204 c 0,0 31.97401,-0.700161 65.58174,24.505635 0,0 33.60773,60.914008 33.60773,136.064624 0,0 -19.83789,33.84111 -71.41642,35.47482 z"
     id="path984"
     style="stroke-width:2.33387" />
</svg>
