<?xml version="1.0" encoding="UTF-8" standalone="no"?>
<svg
   fill="none"
   viewBox="0 0 24 24"
   stroke-width="1.5"
   stroke="currentColor"
   class="w-6 h-6"
   version="1.1"
   id="svg134"
   sodipodi:docname="file.svg"
   inkscape:version="1.2.2 (b0a84865, 2022-12-01)"
   xmlns:inkscape="http://www.inkscape.org/namespaces/inkscape"
   xmlns:sodipodi="http://sodipodi.sourceforge.net/DTD/sodipodi-0.dtd"
   xmlns="http://www.w3.org/2000/svg"
   xmlns:svg="http://www.w3.org/2000/svg">
  <defs
     id="defs138" />
  <sodipodi:namedview
     id="namedview136"
     pagecolor="#505050"
     bordercolor="#eeeeee"
     borderopacity="1"
     inkscape:showpageshadow="0"
     inkscape:pageopacity="0"
     inkscape:pagecheckerboard="0"
     inkscape:deskcolor="#505050"
     showgrid="false"
     inkscape:zoom="22.767538"
     inkscape:cx="14.120982"
     inkscape:cy="11.288001"
     inkscape:window-width="1286"
     inkscape:window-height="810"
     inkscape:window-x="1965"
     inkscape:window-y="181"
     inkscape:window-maximized="0"
     inkscape:current-layer="svg134" />
  <path
     id="rect359"
     style="fill:#ebebeb;stroke:none;stroke-width:0.604233;stroke-linecap:round"
     d="m 6.1419113,2.0169492 h 6.4198337 c 4.135026,1.9415608 4.533321,2.3946574 7.082322,6.8992543 V 20.197072 c 0,0.876755 -0.705835,1.58259 -1.582589,1.58259 H 6.1419113 c -0.8767546,0 -1.5825894,-0.705835 -1.5825894,-1.58259 V 3.5995386 c 0,-0.8767546 0.7058348,-1.5825894 1.5825894,-1.5825894 z"
     sodipodi:nodetypes="sccssssss" />
  <path
     stroke-linecap="round"
     stroke-linejoin="round"
     d="M19.5 14.25v-2.625a3.375 3.375 0 00-3.375-3.375h-1.5A1.125 1.125 0 0113.5 7.125v-1.5a3.375 3.375 0 00-3.375-3.375H8.25m0 12.75h7.5m-7.5 3H12M10.5 2.25H5.625c-.621 0-1.125.504-1.125 1.125v17.25c0 .621.504 1.125 1.125 1.125h12.75c.621 0 1.125-.504 1.125-1.125V11.25a9 9 0 00-9-9z"
     id="path132" />
</svg>
