<?xml version="1.0" encoding="UTF-8" standalone="no"?>
<svg
   width="256"
   height="256"
   viewBox="0 0 256 256"
   version="1.1"
   preserveAspectRatio="xMidYMid"
   id="svg12"
   sodipodi:docname="google-cloud.svg"
   inkscape:version="1.1 (1:1.1+202105261517+ce6663b3b7)"
   xmlns:inkscape="http://www.inkscape.org/namespaces/inkscape"
   xmlns:sodipodi="http://sodipodi.sourceforge.net/DTD/sodipodi-0.dtd"
   xmlns="http://www.w3.org/2000/svg"
   xmlns:svg="http://www.w3.org/2000/svg">
  <defs
     id="defs16" />
  <sodipodi:namedview
     id="namedview14"
     pagecolor="#ffffff"
     bordercolor="#666666"
     borderopacity="1.0"
     inkscape:pageshadow="2"
     inkscape:pageopacity="0.0"
     inkscape:pagecheckerboard="0"
     showgrid="false"
     height="256px"
     inkscape:zoom="2.1771845"
     inkscape:cx="69.125975"
     inkscape:cy="116.20513"
     inkscape:window-width="1920"
     inkscape:window-height="1016"
     inkscape:window-x="0"
     inkscape:window-y="27"
     inkscape:window-maximized="1"
     inkscape:current-layer="svg12" />
  <g
     id="g10"
     transform="translate(-3.8480103e-5,25.101238)">
    <path
       d="m 170.2517,56.8186 22.253,-22.253 1.483,-9.37 c -40.551,-36.873 -105.012,-32.692 -141.567,8.724 -10.154,11.503 -17.687,25.844 -21.704,40.653 l 7.97,-1.123 44.505,-7.339 3.436,-3.514 c 19.797,-21.742 53.27,-24.667 76.128,-6.168 z"
       fill="#ea4335"
       id="path2" />
    <path
       d="m 224.2048,73.9182 c -5.115,-18.836 -15.616,-35.769 -30.217,-48.722 l -31.232,31.232 c 13.188,10.776 20.701,27.01 20.379,44.037 v 5.544 c 15.351,0 27.797,12.445 27.797,27.796 0,15.352 -12.446,27.485 -27.797,27.485 h -55.671 l -5.466,5.934 v 33.34 l 5.466,5.231 h 55.671 c 39.93,0.311 72.552,-31.494 72.863,-71.424 0.188,-24.203 -11.745,-46.893 -31.793,-60.453"
       fill="#4285f4"
       id="path4" />
    <path
       d="m 71.8704,205.7957 h 55.593 v -44.506 h -55.593 c -3.961,-0.001 -7.797,-0.852 -11.399,-2.498 l -7.887,2.42 -22.409,22.253 -1.952,7.574 c 12.567,9.489 27.9,14.825 43.647,14.757"
       fill="#34a853"
       id="path6" />
    <path
       d="m 71.8704,61.4255 c -39.931,0.238 -72.107,32.802 -71.869,72.732 0.133,22.298 10.547,43.288 28.222,56.881 l 32.248,-32.247 c -13.991,-6.321 -20.208,-22.786 -13.887,-36.776 6.32,-13.99 22.786,-20.207 36.775,-13.887 6.165,2.785 11.102,7.723 13.887,13.887 l 32.248,-32.247 c -13.721,-17.937 -35.041,-28.424 -57.624,-28.343"
       fill="#fbbc05"
       id="path8" />
  </g>
</svg>
