<?xml version="1.0" encoding="UTF-8" standalone="no"?>
<svg
   viewBox="0 0 35 35"
   version="1.1"
   id="svg2269"
   sodipodi:docname="google.svg"
   inkscape:version="1.1 (ce6663b3b7, 2021-05-25)"
   xmlns:inkscape="http://www.inkscape.org/namespaces/inkscape"
   xmlns:sodipodi="http://sodipodi.sourceforge.net/DTD/sodipodi-0.dtd"
   xmlns="http://www.w3.org/2000/svg"
   xmlns:svg="http://www.w3.org/2000/svg">
  <defs
     id="defs2273" />
  <sodipodi:namedview
     id="namedview2271"
     pagecolor="#505050"
     bordercolor="#eeeeee"
     borderopacity="1"
     inkscape:pageshadow="0"
     inkscape:pageopacity="0"
     inkscape:pagecheckerboard="0"
     showgrid="false"
     inkscape:zoom="24.114286"
     inkscape:cx="17.5"
     inkscape:cy="17.520735"
     inkscape:window-width="1920"
     inkscape:window-height="1016"
     inkscape:window-x="720"
     inkscape:window-y="27"
     inkscape:window-maximized="1"
     inkscape:current-layer="svg2269" />
  <path
     class="logo"
     fill="#4285f4"
     d="M 33.005501,18.343753 A 17.848212,17.848212 0 0 0 32.72932,15.167669 H 18.091715 v 6.006942 h 8.354482 a 7.1461894,7.1461894 0 0 1 -3.176084,4.695081 v 3.90106 h 5.178398 a 15.155445,15.155445 0 0 0 4.626036,-11.426999 z"
     id="path2261"
     style="stroke-width:1.72613" />
  <path
     class="bottom logo"
     fill="#34a853"
     d="m 18.091715,33.533721 a 14.82748,14.82748 0 0 0 10.356796,-3.762969 l -5.178398,-3.90106 A 9.3729007,9.3729007 0 0 1 9.4610512,20.950214 H 4.282653 v 3.952844 a 15.535194,15.535194 0 0 0 13.809062,8.630663 z"
     id="path2263"
     style="stroke-width:1.72613" />
  <path
     class="left logo"
     fill="#fbbc05"
     d="m 9.4610512,20.950214 a 9.1830261,9.1830261 0 0 1 0,-5.903374 V 11.093996 H 4.282653 a 15.535194,15.535194 0 0 0 0,13.809062 l 5.1783982,-4.021889 z"
     id="path2265"
     style="stroke-width:1.72613" />
  <path
     class="top logo"
     fill="#ea4335"
     d="m 18.091715,8.6428876 a 8.389005,8.389005 0 0 1 5.937896,2.3302794 l 4.4189,-4.4706839 A 14.931048,14.931048 0 0 0 18.091715,2.4633325 15.535194,15.535194 0 0 0 4.282653,11.093996 l 5.1783982,4.021889 A 9.2520714,9.2520714 0 0 1 18.091715,8.7119329 Z"
     id="path2267"
     style="stroke-width:1.72613" />
</svg>
