<?xml version="1.0" encoding="UTF-8" standalone="no"?>
<svg
   width="250"
   height="250"
   viewBox="0 0 415.58442 416"
   preserveAspectRatio="xMidYMid"
   version="1.1"
   id="svg865"
   sodipodi:docname="kafka.svg"
   inkscape:version="1.1 (1:1.1+202105261517+ce6663b3b7)"
   xmlns:inkscape="http://www.inkscape.org/namespaces/inkscape"
   xmlns:sodipodi="http://sodipodi.sourceforge.net/DTD/sodipodi-0.dtd"
   xmlns="http://www.w3.org/2000/svg"
   xmlns:svg="http://www.w3.org/2000/svg"
   xmlns:rdf="http://www.w3.org/1999/02/22-rdf-syntax-ns#"
   xmlns:cc="http://creativecommons.org/ns#"
   xmlns:dc="http://purl.org/dc/elements/1.1/">
  <metadata
     id="metadata871">
    <rdf:RDF>
      <cc:Work
         rdf:about="">
        <dc:format>image/svg+xml</dc:format>
        <dc:type
           rdf:resource="http://purl.org/dc/dcmitype/StillImage" />
      </cc:Work>
    </rdf:RDF>
  </metadata>
  <defs
     id="defs869" />
  <sodipodi:namedview
     pagecolor="#ffffff"
     bordercolor="#666666"
     borderopacity="1"
     objecttolerance="10"
     gridtolerance="10"
     guidetolerance="10"
     inkscape:pageopacity="0"
     inkscape:pageshadow="2"
     inkscape:window-width="1920"
     inkscape:window-height="1016"
     id="namedview867"
     showgrid="false"
     inkscape:zoom="1.188"
     inkscape:cx="-53.451178"
     inkscape:cy="99.326599"
     inkscape:window-x="0"
     inkscape:window-y="27"
     inkscape:window-maximized="1"
     inkscape:current-layer="svg865"
     inkscape:pagecheckerboard="0"
     width="250px" />
  <path
     d="m 281.60821,230.393 c -16.186,0 -30.697,7.171 -40.634,18.461 l -25.463,-18.026 c 2.703,-7.442 4.255,-15.433 4.255,-23.797 0,-8.219 -1.498,-16.076 -4.112,-23.408 l 25.406,-17.835 c 9.936,11.233 24.409,18.365 40.548,18.365 29.875,0 54.184,-24.305 54.184,-54.184 0,-29.879 -24.309,-54.184 -54.184,-54.184 -29.875,0 -54.184,24.305 -54.184,54.184 0,5.348 0.808,10.505 2.258,15.389 l -25.423,17.844 c -10.62,-13.175 -25.911,-22.374 -43.333,-25.182 v -30.64 c 24.544,-5.155 43.037,-26.962 43.037,-53.019 0,-29.879 -24.309,-54.18399995 -54.184,-54.18399995 -29.875,0 -54.184,24.30499995 -54.184,54.18399995 0,25.708 18.014,47.246 42.067,52.769 v 31.038 c -32.826,5.762 -57.87,34.41 -57.87,68.863 0,34.621 25.292,63.374 58.355,68.94 v 32.774 c -24.299,5.341 -42.552,27.011 -42.552,52.894 0,29.879 24.309,54.184 54.184,54.184 29.875,0 54.184,-24.305 54.184,-54.184 0,-25.883 -18.253,-47.553 -42.552,-52.894 V 275.97 c 16.73487,-2.81885 31.87476,-11.62415 42.6,-24.776 l 25.633,18.143 c -1.423,4.84 -2.22,9.946 -2.22,15.24 0,29.879 24.309,54.184 54.184,54.184 29.875,0 54.184,-24.305 54.184,-54.184 0,-29.879 -24.309,-54.184 -54.184,-54.184 z m 0,-126.695 c 14.487,0 26.27,11.788 26.27,26.271 0,14.483 -11.783,26.27 -26.27,26.27 -14.487,0 -26.27,-11.787 -26.27,-26.27 0,-14.483 11.783,-26.271 26.27,-26.271 z m -158.1,-49.337 c 0,-14.483 11.784,-26.27 26.271,-26.27 14.487,0 26.27,11.787 26.27,26.27 0,14.483 -11.783,26.27 -26.27,26.27 -14.487,0 -26.271,-11.787 -26.271,-26.27 z m 52.541,307.278 c 0,14.483 -11.783,26.27 -26.27,26.27 -14.487,0 -26.271,-11.787 -26.271,-26.27 0,-14.483 11.784,-26.27 26.271,-26.27 14.487,0 26.27,11.787 26.27,26.27 z m -26.272,-117.97 c -20.205,0 -36.642,-16.434 -36.642,-36.638 0,-20.205 16.437,-36.642 36.642,-36.642 20.204,0 36.641,16.437 36.641,36.642 0,20.204 -17.71937,36.638 -36.641,36.638 z m 131.831,67.179 c -14.487,0 -26.27,-11.788 -26.27,-26.271 0,-14.483 11.783,-26.27 26.27,-26.27 14.487,0 26.27,11.787 26.27,26.27 0,14.483 -11.783,26.271 -26.27,26.271 z"
     id="path863"
     inkscape:connector-curvature="0"
     sodipodi:nodetypes="sccsccssssccccsssccsccsssccccsssssssssssssssssssssssssssss" />
</svg>
