<?xml version="1.0" encoding="UTF-8" standalone="no"?>
<svg
   viewBox="0 0 280 280"
   overflow="visible"
   version="1.1"
   id="svg138"
   sodipodi:docname="mqtt.svg"
   inkscape:version="1.2.2 (b0a84865, 2022-12-01)"
   width="280"
   height="280"
   xmlns:inkscape="http://www.inkscape.org/namespaces/inkscape"
   xmlns:sodipodi="http://sodipodi.sourceforge.net/DTD/sodipodi-0.dtd"
   xmlns="http://www.w3.org/2000/svg"
   xmlns:svg="http://www.w3.org/2000/svg">
  <defs
     id="defs142" />
  <sodipodi:namedview
     id="namedview140"
     pagecolor="#505050"
     bordercolor="#eeeeee"
     borderopacity="1"
     inkscape:showpageshadow="0"
     inkscape:pageopacity="0"
     inkscape:pagecheckerboard="0"
     inkscape:deskcolor="#505050"
     showgrid="false"
     inkscape:zoom="0.36248241"
     inkscape:cx="442.78011"
     inkscape:cy="266.21981"
     inkscape:window-width="1333"
     inkscape:window-height="881"
     inkscape:window-x="2038"
     inkscape:window-y="140"
     inkscape:window-maximized="0"
     inkscape:current-layer="svg138" />
  <path
     d="m 38.6,58.6 v 31 h 0.6 c 84.4,0 153.2,68 153.9,151.8 h 30.1 C 222.4,140.7 140,58.9 38.6,58.6 Z m 0,64 v 31 h 0.6 c 48.9,0 88.8,39.3 89.5,87.8 h 30.1 C 158.1,176 104.5,122.9 38.6,122.6 Z m 202.8,38.6 V 98.7 c -7.7,-10.5 -17.2,-22.5 -26.7,-31.8 -10.6,-10.5 -23,-20 -35,-28.3 h -66.4 c 58.2,20.9 104.9,65.8 128.1,122.6 z"
     fill="#ffffff"
     id="path134" />
  <path
     d="m 39.149978,153.55002 h -0.6 v 77.6 c 0,5.6 4.6,10.2 10.2,10.2 h 79.900002 c -0.7,-48.5 -40.500002,-87.8 -89.500002,-87.8 z m 0,-63.999998 h -0.6 v 32.999998 c 65.900002,0.3 119.500002,53.3 120.200002,118.8 h 34.2 c -0.6,-83.8 -69.3,-151.799998 -153.800002,-151.799998 z M 241.44998,231.25002 v -70.1 c -23.2,-56.8 -69.9,-101.699998 -128,-122.599998 H 48.749978 c -5.6,0 -10.2,4.6 -10.2,10.2 v 9.9 c 101.400002,0.3 183.900002,81.999998 184.500002,182.799998 h 8.2 c 5.7,-0.1 10.2,-4.6 10.2,-10.2 z m -26.7,-164.399998 c 9.4,9.4 19,21.3 26.7,31.8 v -50 a 10.07,10.07 0 0 0 -10.1,-10.1 h -51.5 c 12,8.3 24.4,17.8 34.9,28.3 z"
     fill="#660066"
     id="path136" />
</svg>
