<?xml version="1.0" encoding="UTF-8" standalone="no"?>
<svg
   fill="none"
   viewBox="0 0 24 24"
   stroke-width="1.5"
   stroke="currentColor"
   class="w-6 h-6"
   version="1.1"
   id="svg1079"
   sodipodi:docname="network.svg"
   inkscape:version="1.2.2 (b0a84865, 2022-12-01)"
   xmlns:inkscape="http://www.inkscape.org/namespaces/inkscape"
   xmlns:sodipodi="http://sodipodi.sourceforge.net/DTD/sodipodi-0.dtd"
   xmlns="http://www.w3.org/2000/svg"
   xmlns:svg="http://www.w3.org/2000/svg">
  <defs
     id="defs1083" />
  <sodipodi:namedview
     id="namedview1081"
     pagecolor="#505050"
     bordercolor="#eeeeee"
     borderopacity="1"
     inkscape:showpageshadow="0"
     inkscape:pageopacity="0"
     inkscape:pagecheckerboard="0"
     inkscape:deskcolor="#505050"
     showgrid="false"
     inkscape:zoom="9.8333333"
     inkscape:cx="7.7288136"
     inkscape:cy="12.305085"
     inkscape:window-width="1169"
     inkscape:window-height="768"
     inkscape:window-x="2013"
     inkscape:window-y="122"
     inkscape:window-maximized="0"
     inkscape:current-layer="svg1079" />
  <circle
     style="fill:#ebebeb;fill-opacity:1;stroke-width:0.755906;stroke-linecap:round;stroke:none"
     id="path901"
     cx="12"
     cy="12"
     r="9.2542372" />
  <path
     stroke-linecap="round"
     stroke-linejoin="round"
     d="M12 21a9.004 9.004 0 008.716-6.747M12 21a9.004 9.004 0 01-8.716-6.747M12 21c2.485 0 4.5-4.03 4.5-9S14.485 3 12 3m0 18c-2.485 0-4.5-4.03-4.5-9S9.515 3 12 3m0 0a8.997 8.997 0 017.843 4.582M12 3a8.997 8.997 0 00-7.843 4.582m15.686 0A11.953 11.953 0 0112 10.5c-2.998 0-5.74-1.1-7.843-2.918m15.686 0A8.959 8.959 0 0121 12c0 .778-.099 1.533-.284 2.253m0 0A17.919 17.919 0 0112 16.5c-3.162 0-6.133-.815-8.716-2.247m0 0A9.015 9.015 0 013 12c0-1.605.42-3.113 1.157-4.418"
     id="path1077" />
</svg>
