<?xml version="1.0" encoding="UTF-8" standalone="no"?>
<svg
   viewBox="0 0 60.999999 60.999997"
   version="1.1"
   id="svg10"
   sodipodi:docname="pulsar.svg"
   width="61"
   height="61"
   inkscape:version="1.1 (1:1.1+202105261517+ce6663b3b7)"
   xmlns:inkscape="http://www.inkscape.org/namespaces/inkscape"
   xmlns:sodipodi="http://sodipodi.sourceforge.net/DTD/sodipodi-0.dtd"
   xmlns="http://www.w3.org/2000/svg"
   xmlns:svg="http://www.w3.org/2000/svg">
  <defs
     id="defs14" />
  <sodipodi:namedview
     id="namedview12"
     pagecolor="#ffffff"
     bordercolor="#666666"
     borderopacity="1.0"
     inkscape:pageshadow="2"
     inkscape:pageopacity="0.0"
     inkscape:pagecheckerboard="0"
     showgrid="false"
     inkscape:zoom="1.5194235"
     inkscape:cx="-72.066807"
     inkscape:cy="96.089076"
     inkscape:window-width="1920"
     inkscape:window-height="1016"
     inkscape:window-x="0"
     inkscape:window-y="27"
     inkscape:window-maximized="1"
     inkscape:current-layer="svg10"
     height="61px" />
  <path
     d="M 61,22.685 H 46.09 C 42.06,14.955 37.8,8.955 32,8.955 c -7.55,0 -11.1,6.59 -14.53,13 l -0.3,0.56 H 0 v 3.81 h 10 c 3.53,0 4.25,1.19 4.25,1.19 -2.77,4.3 -6.1,8.55 -11.65,8.55 H 0 v 4 h 2.62 c 10.76,0 15.46,-8.73 19.23,-15.74 3.46,-6.46 5.87,-10.37 10.15,-10.37 4.44,0 9.11,9.66 13.22,18.19 0.6,1.24 1.21,2.51 1.83,3.77 -15.76,0.5 -23.27,4.19 -29.38,7.2 -4.47,2.2 -8,4.93 -13.81,4.93 H 0 v 4 h 3.83 c 7,0 11.36,-2.16 16,-4.45 6.43,-3.16 13.72,-6.74 30.9,-6.74 h 9.93 v -4 h -5.61 a 3,3 0 0 1 -2.47,-1 c -0.98,-1.9 -1.94,-3.9 -2.88,-5.9 l -1.3,-2.66 c 0,0 0.93,-1 3.51,-1 H 61 Z"
     fill="#188fff"
     id="path2" />
</svg>
