<?xml version="1.0" encoding="UTF-8" standalone="no"?>
<svg
   width="257"
   height="257"
   viewBox="0 0 257 257"
   version="1.1"
   preserveAspectRatio="xMidYMid"
   id="svg6"
   sodipodi:docname="rabbitmq.svg"
   inkscape:version="1.1 (1:1.1+202105261517+ce6663b3b7)"
   xmlns:inkscape="http://www.inkscape.org/namespaces/inkscape"
   xmlns:sodipodi="http://sodipodi.sourceforge.net/DTD/sodipodi-0.dtd"
   xmlns="http://www.w3.org/2000/svg"
   xmlns:svg="http://www.w3.org/2000/svg">
  <defs
     id="defs10" />
  <sodipodi:namedview
     id="namedview8"
     pagecolor="#ffffff"
     bordercolor="#666666"
     borderopacity="1.0"
     inkscape:pageshadow="2"
     inkscape:pageopacity="0.0"
     inkscape:pagecheckerboard="0"
     showgrid="false"
     width="257px"
     inkscape:zoom="1.7451362"
     inkscape:cx="44.409142"
     inkscape:cy="167.89521"
     inkscape:window-width="1920"
     inkscape:window-height="1016"
     inkscape:window-x="0"
     inkscape:window-y="27"
     inkscape:window-maximized="1"
     inkscape:current-layer="svg6" />
  <g
     id="g4"
     transform="translate(0.50006346,0.46934577)">
    <path
       d="m 245.73375,102.43743 h -81.91113 c -2.72715,0.0172 -5.34758,-1.05854 -7.27599,-2.986955 -1.92842,-1.928418 -3.00417,-4.548848 -2.98696,-7.275989 V 10.263348 c 5e-5,-2.7160411 -1.08326,-5.3199147 -3.0098,-7.2344158 -1.92655,-1.9145011 -4.53716,-2.98146899 -7.25315,-2.96438697 h -30.66055 c -2.71598,-0.01708202 -5.3266,1.04988587 -7.25314,2.96438697 -1.92654,1.9145011 -3.00986,4.5183747 -3.0098,7.2344158 v 81.911138 c 0.0172,2.727141 -1.05854,5.347571 -2.986961,7.275989 -1.928418,1.928415 -4.548848,3.004165 -7.275989,2.986955 H 61.449729 c -2.727141,0.0172 -5.347571,-1.05854 -7.275989,-2.986955 -1.928418,-1.928418 -3.004164,-4.548848 -2.986957,-7.275989 V 10.263348 C 51.203989,7.5362069 50.128244,4.9157772 48.199826,2.987359 46.271407,1.0589407 43.650978,-0.01680463 40.923836,1.9854027e-4 H 10.199142 C 7.4831008,1.9854027e-4 4.8792272,1.0836623 2.9647261,3.0102043 1.050225,4.9367463 -0.01674284,7.5473606 1.358963e-4,10.263348 V 245.79796 C -0.01686728,248.5251 1.0588781,251.14553 2.9872963,253.07395 c 1.9284183,1.92842 4.548848,3.00416 7.2759887,2.98716 H 245.73375 c 2.72714,0.017 5.34757,-1.05874 7.27599,-2.98716 1.92842,-1.92842 3.00417,-4.54885 2.98696,-7.27599 V 112.89281 c 0.0695,-2.76023 -0.98308,-5.43071 -2.91726,-7.40115 -1.93418,-1.97045 -4.58464,-3.07247 -7.34569,-3.05423 z m -41.17993,86.97847 c 0.0169,4.07694 -1.59069,7.99276 -4.46753,10.88163 -2.87684,2.88887 -6.7859,4.51279 -10.86288,4.51279 h -20.5259 c -4.07698,0 -7.98604,-1.62392 -10.86288,-4.51279 -2.87683,-2.88887 -4.48445,-6.80469 -4.46753,-10.88163 v -20.46175 c -0.0169,-4.07694 1.5907,-7.99276 4.46753,-10.88163 2.87684,-2.88887 6.7859,-4.51279 10.86288,-4.51279 h 20.5259 c 4.07698,0 7.98604,1.62392 10.86288,4.51279 2.87684,2.88887 4.48445,6.80469 4.46753,10.88163 z"
       fill="#ff6600"
       id="path2" />
  </g>
</svg>
