<?xml version="1.0" encoding="UTF-8" standalone="no"?>
<svg
   width="256"
   height="256"
   viewBox="0 0 256 256"
   version="1.1"
   preserveAspectRatio="xMidYMid"
   id="svg26"
   sodipodi:docname="redis.svg"
   inkscape:version="1.1 (1:1.1+202105261517+ce6663b3b7)"
   xmlns:inkscape="http://www.inkscape.org/namespaces/inkscape"
   xmlns:sodipodi="http://sodipodi.sourceforge.net/DTD/sodipodi-0.dtd"
   xmlns="http://www.w3.org/2000/svg"
   xmlns:svg="http://www.w3.org/2000/svg">
  <defs
     id="defs30" />
  <sodipodi:namedview
     id="namedview28"
     pagecolor="#ffffff"
     bordercolor="#666666"
     borderopacity="1.0"
     inkscape:pageshadow="2"
     inkscape:pageopacity="0.0"
     inkscape:pagecheckerboard="0"
     showgrid="false"
     inkscape:zoom="1.4415336"
     inkscape:cx="21.158022"
     inkscape:cy="121.39849"
     inkscape:window-width="1920"
     inkscape:window-height="1016"
     inkscape:window-x="0"
     inkscape:window-y="27"
     inkscape:window-maximized="1"
     inkscape:current-layer="svg26" />
  <g
     id="g24"
     transform="translate(0,18.122884)">
    <path
       d="m 245.96969,168.94326 c -13.66143,7.12122 -84.43364,36.22013 -99.50111,44.07437 -15.06647,7.85625 -23.43674,7.78025 -35.33911,2.09007 C 99.227101,209.41752 23.912747,178.99557 10.346323,172.51137 3.5651114,169.27027 0,166.53518 0,163.9511 v -25.87581 c 0,0 98.049064,-21.34566 113.87856,-27.02384 15.82849,-5.67918 21.32067,-5.88419 34.79109,-0.95003 13.47142,4.93515 94.01693,19.46761 107.33035,24.34376 0,0 -0.006,23.11072 -0.006,25.50979 0.002,2.55808 -3.0701,5.36417 -10.02431,8.98829"
       fill="#912626"
       id="path2" />
    <path
       d="m 245.96492,143.22007 c -13.66099,7.11799 -84.43092,36.21796 -99.4979,44.07195 -15.06599,7.857 -23.43598,7.78 -35.33797,2.09 C 99.226062,183.69603 23.915134,153.26906 10.349147,146.78806 -3.2168405,140.30307 -3.5018403,135.84007 9.8251471,130.62208 23.151134,125.40208 98.049063,96.017112 113.88005,90.338117 c 15.82798,-5.676994 21.31898,-5.883994 34.78896,-0.947999 13.47099,4.933995 83.81892,32.934972 97.13091,37.809962 13.31499,4.881 13.82599,8.89899 0.165,16.01999"
       fill="#c6302b"
       id="path4" />
    <path
       d="m 245.96969,127.07435 c -13.66143,7.12123 -84.43364,36.22014 -99.50111,44.07738 -15.06647,7.85325 -23.43674,7.77724 -35.33911,2.08707 C 99.226101,167.55162 23.912747,137.12667 10.346323,130.64246 3.5651114,127.40136 0,124.66928 0,122.0852 V 96.206389 c 0,0 98.049064,-21.344666 113.87856,-27.023844 15.82849,-5.678177 21.32067,-5.884184 34.79109,-0.95003 13.47142,4.935155 94.01693,19.464609 107.33035,24.341761 0,0 -0.006,23.110724 -0.006,25.512794 0.002,2.55708 -3.0701,5.36317 -10.02431,8.98728"
       fill="#912626"
       id="path6" />
    <path
       d="m 245.96492,101.35116 c -13.66099,7.12 -84.43092,36.21797 -99.4979,44.07496 -15.06599,7.85399 -23.43598,7.77699 -35.33797,2.087 C 99.226062,141.82712 23.915134,111.40115 10.349147,104.91916 -3.2168405,98.436166 -3.5018403,93.972171 9.8251471,88.752176 23.151134,83.535181 98.049063,54.148209 113.88005,48.470214 c 15.82798,-5.677994 21.31898,-5.883994 34.78896,-0.948999 13.47099,4.933995 83.81892,32.932968 97.13091,37.809964 13.31499,4.878995 13.82599,8.898991 0.165,16.018981 v 10e-4"
       fill="#c6302b"
       id="path8" />
    <path
       d="m 245.96969,83.652566 c -13.66143,7.121223 -84.43364,36.221134 -99.50111,44.078374 -15.06647,7.85425 -23.43674,7.77725 -35.33911,2.08707 C 99.226101,124.13083 23.912747,93.70488 10.346323,87.222678 3.5651114,83.980576 0,81.247491 0,78.66541 V 52.785601 c 0,0 98.049064,-21.343667 113.87856,-27.021844 15.82849,-5.679177 21.32067,-5.884184 34.79109,-0.95003 13.47142,4.935155 94.01693,19.464609 107.33035,24.341761 0,0 -0.006,23.110722 -0.006,25.511797 0.002,2.55508 -3.0701,5.361168 -10.02431,8.985281"
       fill="#912626"
       id="path10" />
    <path
       d="m 245.96492,57.929387 c -13.66099,7.119993 -84.43092,36.219965 -99.4979,44.074963 -15.06599,7.85399 -23.43598,7.77699 -35.33797,2.08899 C 99.227062,98.405348 23.915134,67.981377 10.349147,61.498384 -3.2168405,55.01539 -3.5018403,50.550394 9.8251471,45.331399 23.151134,40.113404 98.049063,10.729432 113.88005,5.0494374 c 15.82798,-5.67899455 21.31898,-5.88299435 34.78896,-0.9479991 13.47099,4.9349953 83.81892,32.9339687 97.13091,37.8109637 13.31499,4.875996 13.82599,8.896992 0.165,16.016985"
       fill="#c6302b"
       id="path12" />
    <path
       d="m 159.28298,32.757085 -22.00906,2.285148 -4.9275,11.855379 -7.95882,-13.229643 -25.414453,-2.284155 18.963843,-6.838574 -5.68955,-10.497984 17.7543,6.943752 16.73823,-5.480186 -4.52366,10.855193 17.06667,6.39107"
       fill="#ffffff"
       id="path14" />
    <path
       d="M 131.03169,90.274729 89.954605,73.23783 148.81575,64.203411 131.03169,90.274729"
       fill="#ffffff"
       id="path16" />
    <path
       d="m 74.081612,39.346605 c 17.375256,0 31.460218,5.460341 31.460218,12.194728 0,6.73538 -14.084962,12.194729 -31.460218,12.194729 -17.374263,0 -31.460217,-5.459349 -31.460217,-12.194729 0,-6.734387 14.085954,-12.194728 31.460217,-12.194728"
       fill="#ffffff"
       id="path18" />
    <path
       d="m 185.29476,35.997767 34.83584,13.76645 -34.80607,13.752558 -0.0298,-27.519008"
       fill="#621b1c"
       id="path20" />
    <path
       d="m 146.75485,51.242667 38.53991,-15.2449 0.0298,27.519008 -3.77848,1.47845 -34.7912,-13.752558"
       fill="#9a2928"
       id="path22" />
  </g>
</svg>
