<?xml version="1.0" encoding="UTF-8" standalone="no"?>
<!-- Generator: Adobe Illustrator 16.0.0, SVG Export Plug-In . SVG Version: 6.00 Build 0)  -->

<svg
   version="1.1"
   id="Layer_1"
   x="0px"
   y="0px"
   width="1015px"
   height="1015px"
   viewBox="0 0 1015 1015"
   enable-background="new 0 0 1015 1015"
   xml:space="preserve"
   sodipodi:docname="snowflake.svg"
   inkscape:version="1.2.2 (b0a84865, 2022-12-01)"
   xmlns:inkscape="http://www.inkscape.org/namespaces/inkscape"
   xmlns:sodipodi="http://sodipodi.sourceforge.net/DTD/sodipodi-0.dtd"
   xmlns="http://www.w3.org/2000/svg"
   xmlns:svg="http://www.w3.org/2000/svg"><defs
   id="defs141" /><sodipodi:namedview
   id="namedview139"
   pagecolor="#505050"
   bordercolor="#eeeeee"
   borderopacity="1"
   inkscape:showpageshadow="0"
   inkscape:pageopacity="0"
   inkscape:pagecheckerboard="0"
   inkscape:deskcolor="#505050"
   showgrid="false"
   inkscape:zoom="0.54002419"
   inkscape:cx="594.41782"
   inkscape:cy="556.45656"
   inkscape:window-width="1174"
   inkscape:window-height="821"
   inkscape:window-x="2047"
   inkscape:window-y="153"
   inkscape:window-maximized="0"
   inkscape:current-layer="Layer_1" />
<g
   id="g136"
   transform="matrix(3.7934242,0,0,3.7934242,45.668383,-1417.9795)">
	<path
   fill="#31bef0"
   d="m 104.11,472.31 c 3.022,-3.02 4.536,-6.548 4.536,-11.083 v -57.948 c 0,-8.061 -6.552,-14.611 -14.614,-14.611 -8.063,0 -14.613,6.55 -14.613,14.611 v 33.259 l -28.217,-16.63 c -7.054,-4.533 -16.125,-2.519 -20.154,4.535 -4.535,7.056 -2.521,16.125 4.533,20.156 0.504,0 0.504,0.503 1.01,0.503 l 50.388,29.225 c 5.038,3.527 12.596,2.521 17.131,-2.017 z m -21.667,35.273 c 0,-5.543 -2.521,-10.582 -7.56,-13.103 L 24.497,465.255 c -7.056,-4.533 -16.125,-2.519 -20.156,4.535 -4.536,7.057 -2.519,16.125 4.535,20.156 0.504,0 0.504,0.504 1.007,0.504 l 28.721,16.628 -28.721,16.63 c -7.054,4.029 -10.078,12.597 -6.046,20.156 4.032,7.558 12.597,10.075 20.154,6.044 0.506,0 0.506,0 1.007,0 l 50.391,-29.223 c 4.533,-2.52 7.054,-7.559 7.054,-13.102 z m 26.203,45.854 v 58.451 c 0,8.062 -6.552,14.611 -14.614,14.611 -8.063,0 -14.613,-6.55 -14.613,-14.611 v -32.753 l -28.721,16.629 c -7.054,4.533 -16.125,2.519 -20.154,-4.535 -4.536,-7.055 -2.521,-16.125 4.533,-20.156 0.503,0 0.503,-0.504 1.007,-0.504 l 50.391,-29.225 c 7.054,-4.032 16.628,-1.512 20.658,6.046 1.007,1.51 2.014,4.032 1.513,6.047 z m 26.2,1.512 v 56.938 c 0,8.062 6.55,14.611 14.613,14.611 8.061,0 14.611,-6.55 14.611,-14.611 v -32.753 l 28.217,16.125 c 7.054,4.533 16.125,2.519 20.156,-4.535 4.536,-7.057 2.519,-16.125 -4.535,-20.156 -0.504,0 -0.504,-0.504 -1.007,-0.504 l -50.389,-29.225 c -7.054,-4.032 -16.125,-1.512 -20.156,5.543 -1.006,2.518 -2.014,6.047 -1.51,8.567 z m 26.203,-47.366 c 0,-5.543 2.518,-10.582 7.557,-13.103 l 50.389,-29.225 c 7.054,-4.533 16.125,-2.519 20.156,4.535 4.533,7.057 2.519,16.125 -4.536,20.156 -0.503,0 -0.503,0.504 -1.007,0.504 l -28.723,16.628 28.723,16.629 c 7.054,4.029 10.076,12.597 6.046,20.156 -4.031,7.054 -12.599,10.075 -20.156,6.044 -0.503,0 -0.503,-0.504 -1.007,-0.504 l -50.388,-29.225 c -4.536,-2.013 -7.558,-7.052 -7.054,-12.595 z m -26.203,-47.364 v -56.94 c 0,-8.061 6.55,-14.611 14.613,-14.611 8.061,0 14.611,6.55 14.611,14.611 v 32.753 l 28.217,-16.125 c 7.054,-4.533 16.125,-2.519 20.156,4.535 4.536,7.056 2.519,16.125 -4.535,20.156 -0.504,0 -0.504,0.503 -1.007,0.503 l -50.389,29.225 c -7.054,4.032 -16.125,1.512 -20.156,-5.542 -1.006,-2.518 -2.014,-5.543 -1.51,-8.565 z m -7.054,21.162 c -1.007,-1.006 -2.017,-1.512 -3.528,-1.512 h -5.039 c -1.511,0 -2.519,0.506 -3.526,1.512 l -20.156,20.156 c -1.007,1.007 -1.511,2.015 -1.511,3.525 v 5.041 c 0,1.512 0.504,2.519 1.511,3.526 l 20.156,20.156 c 1.007,1.007 2.015,1.511 3.526,1.511 h 5.039 c 1.511,0 2.521,-0.504 3.528,-1.511 l 20.154,-20.156 c 0.504,-1.008 1.009,-2.519 1.009,-3.526 v -5.041 c 0,-1.511 -0.505,-2.519 -1.513,-3.525 z m -3.024,17.638 c -0.504,-0.506 -1.511,-1.01 -2.519,-1.01 v 0 c -1.01,0 -2.017,0.504 -2.519,1.01 l -6.048,6.044 c -0.504,0.504 -1.008,1.514 -1.008,2.521 v 0 c 0,1.008 0.504,2.017 1.008,2.521 l 6.048,6.045 c 0.501,0.503 1.509,1.009 2.519,1.009 v 0 c 1.007,0 2.015,-0.506 2.519,-1.009 l 6.046,-6.045 c 0.503,-0.504 1.009,-1.513 1.009,-2.521 v 0 c 0,-1.007 -0.506,-2.017 -1.009,-2.521 z"
   id="path132" />
	
</g>
</svg>
