<?xml version="1.0" encoding="UTF-8" standalone="no"?>
<svg
   fill="none"
   viewBox="0 0 24 24"
   stroke-width="1.5"
   stroke="currentColor"
   class="w-6 h-6"
   version="1.1"
   id="svg134"
   sodipodi:docname="utility.svg"
   inkscape:version="1.2.2 (b0a84865, 2022-12-01)"
   xmlns:inkscape="http://www.inkscape.org/namespaces/inkscape"
   xmlns:sodipodi="http://sodipodi.sourceforge.net/DTD/sodipodi-0.dtd"
   xmlns="http://www.w3.org/2000/svg"
   xmlns:svg="http://www.w3.org/2000/svg">
  <defs
     id="defs138" />
  <sodipodi:namedview
     id="namedview136"
     pagecolor="#505050"
     bordercolor="#eeeeee"
     borderopacity="1"
     inkscape:showpageshadow="0"
     inkscape:pageopacity="0"
     inkscape:pagecheckerboard="0"
     inkscape:deskcolor="#505050"
     showgrid="false"
     inkscape:zoom="9.8333333"
     inkscape:cx="2.3898305"
     inkscape:cy="13.220339"
     inkscape:window-width="1462"
     inkscape:window-height="880"
     inkscape:window-x="1869"
     inkscape:window-y="71"
     inkscape:window-maximized="0"
     inkscape:current-layer="svg134" />
  <rect
     style="fill:#ebebeb;fill-opacity:1;stroke:none;stroke-width:0.526116;stroke-linecap:round"
     id="rect359"
     width="14.983051"
     height="15.084745"
     x="4.5084743"
     y="4.4576273"
     ry="1.9052718" />
  <path
     stroke-linecap="round"
     stroke-linejoin="round"
     d="M8.25 3v1.5M4.5 8.25H3m18 0h-1.5M4.5 12H3m18 0h-1.5m-15 3.75H3m18 0h-1.5M8.25 19.5V21M12 3v1.5m0 15V21m3.75-18v1.5m0 15V21m-9-1.5h10.5a2.25 2.25 0 002.25-2.25V6.75a2.25 2.25 0 00-2.25-2.25H6.75A2.25 2.25 0 004.5 6.75v10.5a2.25 2.25 0 002.25 2.25zm.75-12h9v9h-9v-9z"
     id="path132" />
</svg>
