<?xml version="1.0" encoding="utf-8"?>
<!DOCTYPE svg PUBLIC "-//W3C//DTD SVG 1.1//EN" "http://www.w3.org/Graphics/SVG/1.1/DTD/svg11.dtd">
<svg version="1.1" xmlns="http://www.w3.org/2000/svg" xmlns:xlink="http://www.w3.org/1999/xlink" x="0px" y="0px" viewBox="0 0 1000 1000" enable-background="new 0 0 1000 1000" xml:space="preserve">
<metadata>  </metadata>
<g><path d="M622.5,331.6h-245c-25.4,0-45.9,20.6-45.9,45.9v245c0,25.4,20.6,45.9,45.9,45.9h245c25.4,0,45.9-20.6,45.9-45.9v-245C668.4,352.1,647.9,331.6,622.5,331.6z M500,10C229.4,10,10,229.4,10,500c0,270.6,219.4,490,490,490c270.6,0,490-219.4,490-490C990,229.4,770.6,10,500,10z M500,898.1c-219.9,0-398.1-178.3-398.1-398.1S280.1,101.9,500,101.9S898.1,280.1,898.1,500C898.1,719.9,719.9,898.1,500,898.1z"/></g>
</svg>