<svg xmlns="http://www.w3.org/2000/svg" width="72" height="85" fill="none"><path fill="#A3332B" fill-rule="evenodd" d="m67.199 18.658 3.915 12.406-8.296 19.172-16.83 11.033-10.531-1.212.276-4.932 4.46.456 8.12-13.002.332-18.021 7.268-8.666L67.2 18.658Z" clip-rule="evenodd"/><path fill="#CA3C27" fill-rule="evenodd" d="M58.574 44.608 43.34 58.355l-7.904-.166.33-3.02 4.656.602 9.783-13.32 3.962-19.69 11.663 3.378-7.256 18.469Z" clip-rule="evenodd"/><path fill="#401714" fill-rule="evenodd" d="m67.227 18.588 3.918 12.653-.325.704-5.037-5.838-11.62-3.348-5.476 1.67 7.353-8.602 11.187 2.761ZM58.438 44.644l3.64 6.226-5.669 3.697-3.313-4.776-7.645-2.484 2.586-4.05 2.156-.867 8.245 2.254ZM48.2 53.876l2.032 4.644-4.486 2.627-2.263-2.897-3.223-2.687 2.787-4.397 5.154 2.71ZM40.03 58.352l-1.336 2.956-3.593-1.001.42-2.814.264-2.48 2.45.606 1.795 2.733ZM63.312 32.141l4.683 6.035-2.62 6.282-4.478-5.863-9.32-2.439-3.012 1.68.32-6.99 3.859-1.444 10.568 2.74Z" clip-rule="evenodd"/><path fill="#2E100D" d="m35.015 59.907 10.634.806 16.668-10.586 8.358-18.853-3.721-12.286-10.752-2.608-7.08 8.285-.641 18.626-8.098 12.737-4.771-.49.078-.768 4.301.442 7.729-12.159.643-18.685 7.563-8.85 11.758 2.122 3.895 13.755-8.356 19.31L46.01 61.75l-11.052-1.073.057-.77Z"/><path fill="#62AF62" d="M30.18 54.325s13.112 2.378 20.87 2.511c2.036.036 3.738-1.02 4.253-3 2.832-10.89 4.908-25.119 5.405-36.512.128-2.947-1.615-6.462-4.823-7.36-5.496-1.54-18.8-3.797-18.8-3.797l-6.906 48.158Z"/><path fill="#418241" d="M21.384 52.61s13.112 2.378 20.871 2.512c2.036.035 4.564-1.047 4.959-3.055 2.26-11.483 4.477-26.63 4.974-38.025.128-2.947-.596-5.063-3.804-5.962-5.496-1.54-20.096-3.629-20.096-3.629L21.383 52.61v.001Z"/><path fill="#2E100D" d="M21.23 53.074c1.607.283 3.216.552 4.825.818 3.576.59 7.155 1.153 10.741 1.67 3.69.53 7.389 1.036 11.102 1.353 1.474.126 3.128.383 4.583.046 1-.232 1.91-.788 2.525-1.619.713-.965.896-2.222 1.175-3.362 1.344-5.51 2.37-11.1 3.182-16.712.81-5.59 1.414-11.216 1.707-16.858.06-1.142.1-2.245-.166-3.367a8.323 8.323 0 0 0-1.347-2.963c-.636-.875-1.452-1.624-2.423-2.107-.629-.312-1.302-.486-1.98-.655-2.974-.746-5.993-1.328-9.001-1.92a869.752 869.752 0 0 0-10.77-2.037c-2.219-.407-4.438-.81-6.658-1.205l-.332-.059c-.165-.03-.392.044-.422.24l-.695 4.809c-.556 3.848-1.113 7.697-1.668 11.546L23.596 34.61l-1.75 12.113c-.281 1.945-.622 3.891-.845 5.844l-.011.083c-.063.434.596.62.66.183l.695-4.808 1.669-11.547 2.011-13.918 1.75-12.114.573-3.96.179-1.241c.028-.194.11-.446.093-.641-.002-.026.008-.057.011-.084l-.421.24c4.875.861 9.743 1.758 14.606 2.69 3.308.634 6.617 1.276 9.905 2.005 1.135.252 2.302.474 3.407.84 2.116.705 3.548 2.696 4.083 4.805.286 1.128.229 2.237.168 3.387-.07 1.336-.16 2.672-.264 4.006-.22 2.805-.508 5.605-.853 8.396a193.328 193.328 0 0 1-2.798 16.76c-.28 1.31-.576 2.615-.892 3.917-.266 1.096-.421 2.387-1.087 3.325-1.164 1.64-3.152 1.563-4.934 1.456-3.429-.206-6.846-.657-10.246-1.123a493.922 493.922 0 0 1-17.587-2.76l-.31-.055c-.431-.075-.616.587-.182.664h.004Z"/><path fill="#62AF62" d="M49.35 8.95c1.648.242 3.543.662 3.462 2.707-.188 4.72 5.466 6.451 5.787.481.159-2.945-1.595-6.537-4.823-7.36C43.49 2.155 44.373 8.22 49.35 8.95Z"/><path fill="#418241" d="M46.81 4.56c-.374 1.272 1.082 2.921 3.53 3.28 1.647.242 3.542.662 3.46 2.707-.13 3.254 2.518 5.087 4.28 3.957-1.52 2.83-6.5 1.262-6.344-2.636.081-2.045-1.088-2.44-2.736-2.68-3.213-.47-4.29-3.482-2.189-4.627V4.56Z"/><path fill="#62AF62" d="m57.852 36.729-7.142-.88a2.62 2.62 0 0 1-2.271-2.92l1.742-14.308 11.115 1.368c.664.082 1.137.69 1.056 1.357l-1.596 13.099a2.611 2.611 0 0 1-2.904 2.283Z"/><path fill="#4D964D" d="m50.771 35.947 2.124.192c-1.488-.83-2.062-1.925-1.882-3.397l1.703-13.893-2.526-.248-1.745 14.354a2.683 2.683 0 0 0 2.326 2.992Z"/><path fill="#62AF62" d="m50.101 53.11 5.35.547c2.013.206 3.49-1.697 2.676-3.448l-4.439-9.551c-1.099-2.365-4.659-1.834-4.918.718l-.945 9.082c-.139 1.368.819 2.503 2.276 2.651Z"/><path fill="#A19DA3" d="m50.59 21.948 11.304 1.571.002-.975-11.138-1.497-.167.901Z"/><path fill="#7D777F" d="m50.599 21.946 1.706.24.114-.919-1.662-.22-.158.9Z"/><path fill="#E14226" d="m54.62 17.417 1.6.07s.082-.87.101-1.407c.915-.54 1.205-2.038 1.173-3.344l-1.542-.05c.067 1.646-.58 2.828-1.292 3.152-.044.425-.04 1.58-.04 1.58Z"/><path fill="#418241" d="m49.623 37.477 8.6.895.222-1.506-8.633-1.278-.189 1.89ZM30.008 53.846c4.38.819 19.814 2.744 19.814 2.744 2.76.262 4.652-.865 5.159-2.424l.116-.305-3.748-.445c-1.553-.102-2.61-.681-3.169-1.503l-.054-7.485-3.679 9.15s-14.226-3.357-14.44.267Z"/><path fill="#2E100D" d="m54.877 36.643 2.692.328c1.351.165 2.68-.419 3.271-1.706.245-.534.283-1.117.353-1.693l.319-2.616.842-6.92c.094-.77.188-1.54.28-2.31.093-.77-.012-1.588-.818-1.995-.33-.167-.734-.182-1.097-.23a2958.612 2958.612 0 0 1-4.553-.607c-.436-.06-.432.629 0 .687 1.637.218 3.277.424 4.912.656.575.081.965.45.923 1.07-.006.089-.022.178-.032.266l-.233 1.914c-.436 3.585-.79 7.191-1.31 10.765-.202 1.384-1.392 2.199-2.74 2.043-.938-.108-1.873-.227-2.809-.342-.436-.053-.432.636 0 .689Z"/><path fill="#ADA19F" d="m62.097 23.387.07-.699a.583.583 0 0 0-.52-.64l-1.506-.152a.582.582 0 0 0-.636.522l-.07.7c-.032.32.2.606.52.639l1.506.153a.582.582 0 0 0 .636-.523ZM61.57 24.233l-.579.239a.691.691 0 0 0-.403.817l1.268 4.754c.11.413.563.627.95.45l1.816-.838a.691.691 0 0 0 .302-.985l-2.506-4.156a.685.685 0 0 0-.848-.281Zm.671 4.964-.417-1.428a.4.4 0 0 1 .233-.482l.75-.3a.395.395 0 0 1 .486.167l.744 1.25a.4.4 0 0 1-.181.57l-1.075.475a.396.396 0 0 1-.54-.252Z"/><path fill="#C9C2C1" d="m61.483 24.946.016-.004a.362.362 0 0 0 .252-.445l-.37-1.358a.36.36 0 0 0-.442-.253l-.016.005a.362.362 0 0 0-.252.444l.37 1.358a.36.36 0 0 0 .442.253Z"/><path fill="#4D964D" d="m47.796 50.438.912-9.006c.2-1.988 2.494-2.74 4.017-1.855-.966.243-1.789.979-1.905 2.133l-.912 9.005c-.119 1.18.794 2.384 1.947 2.751l-1.463-.14c-1.457-.15-2.734-1.521-2.595-2.89l-.001.002Z"/><path fill="#A19DA3" d="m48.72 49.494 9.515 1.256-.33-1.086-9.104-1.062-.08.892Z"/><path fill="#7D777F" d="m48.72 49.494 1.257.146.1-.905-1.29-.159-.067.918Z"/><path fill="#BA3927" d="m54.83 17.287 1.203.027.039-1.15-1.224-.125-.017 1.248Z"/><path fill="#fff" d="m57.503 25.902-3.76 1.455-.454 4.399 3.02 1.83 3.188-1.219.464-4.104-2.458-2.361Z"/><path fill="#418241" d="m57.35 25.599-3.212 1.329-.446.185c-.089.036-.134.093-.143.19l-.154 1.49-.243 2.362-.057.547c-.007.068.042.136.097.17l2.629 1.592c.127.076.252.162.383.232.13.07.24-.006.36-.052l1.644-.628c.448-.17.895-.342 1.344-.514.09-.034.133-.095.144-.19l.38-3.354.074-.654c.004-.03.01-.064.01-.095 0-.094-.059-.142-.119-.198l-1.29-1.219-1.21-1.143c-.182-.173-.46.104-.276.278l2.244 2.122.317.3-.057-.14-.406 3.591c-.02.171-.04.343-.058.514l.144-.19-2.796 1.07c-.131.05-.261.1-.392.148l.15.02-2.643-1.6-.379-.23.097.17c.05-.496.103-.993.154-1.49l.243-2.362c.019-.182.037-.365.057-.547l-.144.19c1.071-.443 2.14-.887 3.212-1.329l.446-.185c.097-.04.167-.13.137-.242-.026-.092-.143-.178-.241-.137v-.001Z"/><path fill="#EFE9E8" d="m54.033 31.168 2.345 1.525 2.502-.875-4.532-3.923-.315 3.273Z"/><path fill="#E14226" d="M57.467 30.255a3.3 3.3 0 0 1-.102-.301c.158-.049.302-.13.427-.236.194-.153.31-.387.345-.701.041-.365-.044-.662-.258-.892a1.292 1.292 0 0 0-.82-.4l-1.518-.175-.396 3.485.739.085.142-1.25.281.032.172.015c.046.164.15.524.213.716l.775-.378Zm-1.266-1.924.68.078c.342.04.496.199.466.476-.034.299-.242.426-.622.382l-.623-.071.099-.865ZM58.142 31.128l-.177-.16-.86.432.267.142.488.054.384-.213-.102-.255ZM57.566 30.47l-.797.386.172.354.848-.412-.223-.328Z"/><path fill="#77C677" d="M51.553 6.348c1.735.321 3.003.48 3.8 2.3.36.821 1.512 1.863 2.31 1.571 1.268-.464-.33-2.943-1.069-3.71-1.123-1.164-3.418-1.93-4.723-2.058-2.207-.216-2.563 1.48-.318 1.896Z"/><path fill="#2E100D" d="M58.733 13.428c.23-1.802.194-3.692-.562-5.374-.887-1.974-2.733-3.184-4.75-3.775-1.763-.517-3.63-.628-5.458-.596-.44.008-.44.696 0 .688 2.631-.045 5.637.157 7.832 1.795 1.406 1.049 2.16 2.663 2.331 4.39.095.956.044 1.92-.078 2.872-.056.438.629.433.685 0Z"/><path fill="#77C677" d="M56.326 46.567c-.044-.433-1.529-3.209-1.824-3.839-.326-.694-.652-2.039-1.565-2.086-1.529-.08-1.478 2.097-1.06 3.107.512 1.24 1.72.888 2.11 1.663.215.429.716 1.467 1.012 1.985.699 1.222 1.85.408 1.327-.83Z"/><path fill="#2E100D" d="M52.699 53.798c.909.064 1.819.127 2.728.194 1.405.104 2.8-.589 3.234-2.012.294-.964-.081-1.782-.493-2.621a6254.84 6254.84 0 0 0-2.669-5.431c-.194-.398-.785-.05-.59.346l2.304 4.69c.281.574.692 1.192.83 1.825.165.755-.139 1.533-.73 2.018-.53.436-1.17.545-1.837.5-.926-.063-1.852-.132-2.779-.199-.44-.031-.438.657 0 .689h.002Z"/><path fill="#ADA19F" d="m58.263 50.523.07-.7a.583.583 0 0 0-.52-.64l-1.506-.152a.582.582 0 0 0-.636.522l-.07.7c-.032.32.2.607.52.64l1.505.152a.582.582 0 0 0 .637-.522ZM57.228 51.389l-.62.086a.688.688 0 0 0-.592.69l.047 4.922c.003.428.389.748.807.672l1.968-.354a.69.69 0 0 0 .536-.88l-1.396-4.652a.687.687 0 0 0-.75-.485v.001Zm-.583 4.975-.05-1.486a.398.398 0 0 1 .347-.409l.8-.101a.396.396 0 0 1 .43.283l.408 1.397a.398.398 0 0 1-.316.505l-1.159.19a.398.398 0 0 1-.46-.379Z"/><path fill="#C9C2C1" d="M56.993 52.038h.017a.36.36 0 0 0 .354-.367l-.021-1.408a.36.36 0 0 0-.365-.356h-.017a.36.36 0 0 0-.354.368l.02 1.407c.004.2.167.36.366.356Z"/><path fill="#351F1F" d="M52.843 76.142c-.76.052-2.873.323-3.555.024-1.417-.621-2.515-1.744-3.159-3.42a8.08 8.08 0 0 1-.513-2.35 8.1 8.1 0 0 1 .154-2.232c.328-1.55 1.063-2.763 2.126-3.64.77-.635 2.995-.741 4-.81"/><path fill="#3F3333" d="M52.663 76.16c2.461-.169 4.269-3.08 4.037-6.503-.233-3.423-2.416-6.061-4.878-5.892-2.461.168-4.269 3.08-4.036 6.503.232 3.423 2.415 6.06 4.877 5.892Z"/><path fill="#594B4B" d="M51.977 76.002c2.022-.139 3.48-2.907 3.259-6.182-.223-3.276-2.042-5.819-4.063-5.68-2.022.138-3.481 2.906-3.26 6.182.223 3.275 2.042 5.818 4.064 5.68Z"/><path fill="#685A5A" d="M54.183 71.355c1.386 1.143-1.342 5.346-3.767 4.034-1.35-.731-1.671-1.483-2.188-3.175 1.239 1.844 2.225 1.864 3.1 1.389 1.01-.548 1.66-3.233 2.855-2.248Z"/><path fill="#4F3434" d="M47.407 65.162c-.774.82-1.318 1.863-1.587 3.136a7.634 7.634 0 0 0-.124.775l2.041-.14c.03-.263.07-.522.123-.774.27-1.273.814-2.317 1.588-3.136l-2.041.14ZM47.836 69.385l-2.205.151.048.711 2.205-.15-.048-.712Z"/><path fill="#2E100D" d="M52.889 76.025c-.544.039-1.085.1-1.629.134-.55.033-1.164.087-1.695-.044a1.551 1.551 0 0 1-.13-.04c-.008-.002-.037-.013-.003 0a9.553 9.553 0 0 1-.186-.085 5.975 5.975 0 0 1-.451-.241 5.337 5.337 0 0 1-.81-.587 5.82 5.82 0 0 1-1.292-1.66c-.81-1.539-1.048-3.395-.713-5.098.15-.76.41-1.499.809-2.165a5.742 5.742 0 0 1 1.005-1.248 3.01 3.01 0 0 1 .34-.289c.46-.313 1.068-.414 1.605-.5.61-.099 1.228-.147 1.845-.187l.356-.024c.25-.016.251-.41 0-.393-.603.041-1.208.079-1.808.154-.643.081-1.303.183-1.899.45-.28.124-.506.315-.728.525-.274.257-.52.541-.743.844a6.62 6.62 0 0 0-1.012 2.109 8.327 8.327 0 0 0 .332 5.442c.579 1.379 1.584 2.538 2.933 3.193.253.124.488.2.767.234.302.037.608.037.911.029.626-.016 1.249-.077 1.87-.132.108-.01.216-.019.323-.026.249-.018.25-.411 0-.394h.002Z"/><path fill="#2E100D" d="M56.548 69.746c.079 1.204-.08 2.438-.556 3.552-.391.914-1.004 1.773-1.864 2.292a3.166 3.166 0 0 1-2.61.316c-.935-.299-1.705-.999-2.251-1.8-1.346-1.972-1.625-4.693-.83-6.932.337-.947.901-1.867 1.72-2.468.736-.54 1.655-.788 2.557-.599.961.202 1.768.826 2.37 1.587.711.9 1.144 2.011 1.35 3.134.055.304.091.61.113.92.017.25.408.252.39 0-.088-1.274-.435-2.541-1.095-3.637-.552-.918-1.338-1.734-2.332-2.16a3.562 3.562 0 0 0-2.913.037c-.965.447-1.7 1.304-2.177 2.24-.57 1.118-.82 2.387-.806 3.636.015 1.298.307 2.603.907 3.757.502.968 1.247 1.857 2.216 2.378.886.476 1.936.597 2.891.26.994-.35 1.78-1.116 2.318-2.01.636-1.056.949-2.295 1.005-3.523.014-.326.01-.652-.011-.978-.017-.252-.408-.252-.392 0v-.002Z"/><path fill="#2E100D" d="M50.508 54.195c-.527.036-.92.554-.879 1.157l.58 8.8c.545-.275 1.534-.36 1.968-.156l-.642-8.775c-.042-.603-.501-1.063-1.027-1.027Zm.15 1.825c-.282.02-.529-.227-.55-.55-.022-.324.188-.602.471-.621.283-.02.53.227.55.55.022.323-.188.602-.47.62v.001Z"/><path fill="#4C2929" d="M50.804 54.12c-.526.037-.92.555-.878 1.157l.579 8.8c.545-.274 1.534-.36 1.968-.155l-.642-8.776c-.041-.603-.5-1.062-1.027-1.027v.001Zm.15 1.826c-.283.02-.53-.227-.551-.55-.021-.324.189-.602.471-.622.283-.02.53.227.551.55.022.324-.189.602-.471.62v.002Z"/><path fill="#2E100D" d="M50.78 53.982c-.65.037-1.242.547-1.214 1.234.004.103.014.207.02.309a13009.252 13009.252 0 0 0 .316 4.835l.175 2.669c.03.443.035.896.088 1.338l.001.02c.005.067.083.13.147.084.32-.228.719-.354 1.098-.442.198-.047.398-.081.6-.09.145-.008.312-.013.447.048.061.028.153-.003.147-.084l-.08-1.08-.182-2.49-.204-2.807-.149-2.035-.027-.376c-.038-.508-.278-.964-.798-1.095a1.425 1.425 0 0 0-.386-.039c-.13.004-.127.2 0 .197.258-.009.525.051.715.237.191.186.255.44.273.695l.025.334.14 1.917.2 2.741.184 2.52.062.851c.01.128-.004.286.03.41.002.006 0 .013 0 .019l.148-.085c-.344-.153-.783-.069-1.134.007-.415.09-.859.227-1.209.476l.147.084-.07-1.064-.163-2.49-.187-2.851-.142-2.186-.034-.509a1 1 0 0 1 .515-.965 1.14 1.14 0 0 1 .499-.142c.125-.007.126-.203 0-.197l.002.002Z"/><path fill="#2E100D" d="M50.93 55.807c-.421.022-.587-.558-.332-.843a.372.372 0 0 1 .47-.081c.171.101.253.31.234.503-.019.194-.161.402-.373.421-.124.01-.125.207 0 .197a.629.629 0 0 0 .55-.494.743.743 0 0 0-.23-.74.555.555 0 0 0-.704-.02c-.212.16-.305.464-.245.732.065.293.321.537.63.522.126-.007.126-.204 0-.197Z"/><path fill="#C23C27" fill-rule="evenodd" d="m44.246 63.959-.1 7.061.699 6.057-10.953-3.48-2.014-12.626-1.182.076-1.098 7.128.566 6.326-9.755-.268-1.165-7.764.424-11.823-1.394-1.54.537-2.553-5.226-4.101-1.356-3.22 5.748-12.05 4.45-3.023 9.085 2.414 7.892-1.588 3.367.607 5.326 3.454 2.785 15.052-3.016 4.211-1.689.338.766 6.258-2.697 5.054Z" clip-rule="evenodd"/><path fill="#771213" d="m19.462 68.343 1.463 7.948-4.585 1.957.394 4.022 7.087 1.484 6.893-2.443-1.043-12.126-3.314 4.684-4.433-5.499-2.462-.028Z"/><path fill="#2D1310" d="m18.55 79.458.22 2.603.031.372c.022.25.413.253.391 0l-.22-2.602-.031-.373c-.022-.25-.413-.252-.391 0ZM21.034 79.85l.441 2.9.062.409c.015.105.147.163.24.137.112-.03.153-.137.137-.242l-.44-2.9-.063-.409c-.015-.105-.147-.163-.24-.137-.112.03-.153.136-.137.241Z"/><path fill="#59171E" fill-rule="evenodd" d="m24.116 83.746-.316-3.563 3.538-1.315.13-6.557 2.094-2.504 1.1 11.42-6.546 2.52Z" clip-rule="evenodd"/><path fill="#A3332B" fill-rule="evenodd" d="m30.541 61.028-5.455-2.383-5.378-1.898-.036 2.944 5.7 1.708 1.598 4.12.505 6.796 2.082-2.52.984-8.767Z" clip-rule="evenodd"/><path fill="#EB6337" fill-rule="evenodd" d="m22.372 65.749 1.561-4.083-3.05-.602-.186 4.384 1.675.301Z" clip-rule="evenodd"/><path fill="#2E100D" d="m31.241 61.147-1.177 7.38 1.11 13.049-7.252 2.689-7.718-1.581-.222-4.74 4.489-1.87-1.626-9.671.49-11.999.767.058-.486 11.917 1.712 10.183-4.534 1.889.304 3.602 6.474 1.294 6.787-2.316-1.135-13.102 1.114-6.974.903.192Z"/><path fill="#771213" fill-rule="evenodd" d="m17.507 53.086 8.355 7.39 5.352.794 7.83-4.22 1.854-4.514-3.104-9.009.527-6.771.453-6.68-14.823-1.329-3.984 5.771.742 6.928-3.202 11.64Z" clip-rule="evenodd"/><path fill="#A3332B" fill-rule="evenodd" d="m17.896 50.161-4.744-3.965 6.176-.667-1.432 4.632Z" clip-rule="evenodd"/><path fill="#59171E" fill-rule="evenodd" d="m25.835 60.394-6.342-4.3 10.015 1.5 11.209-4.68-1.722 4.317-7.568 3.785-5.592-.622ZM20.903 40.367l-.039-1.178 9.802 1.335 5.428-.118 1.1 5.589-4.302-3.606-11.989-2.022ZM23.806 28.964l6.821 1.465 9.771-1.316-2.715 4.519-8.462-2.196-6.6-.392 1.185-2.08Z" clip-rule="evenodd"/><path fill="#EB6337" fill-rule="evenodd" d="m45.599 34.663-4.048.58 1.648-3.329 2.4 2.749ZM37.98 62.587l-1.381 3.646h-2.305l-.672-3.77 4.357.123Z" clip-rule="evenodd"/><path fill="#771213" d="m44.158 72.196 1.038 9.84-6.717 2.84-7.801-1.14-.22-4.317 4.152-3.022-1.465-7.727 3.418.353 4.258 6.118 3.337-2.945Z"/><path fill="#A3332B" fill-rule="evenodd" d="m43.994 72.417.062-8.737 2.634-4.716-.779-6.125-5.63 1.105-1.29 3.263-4.915 2.497 5.657 1.51.192 2.895 2.578 9.551 1.49-1.243Z" clip-rule="evenodd"/><path fill="#59171E" fill-rule="evenodd" d="m38.666 84.719 6.554-3.337-.968-8.95-1.74 1.224-.534 5.763-3.522 1.806.21 3.494Z" clip-rule="evenodd"/><path fill="#A3332B" fill-rule="evenodd" d="m14.07 39.444 5.727 4.305 1.106-2.577-.995-5.476 2.128-7.072-4.413 2.812-3.554 8.008ZM39.452 42.428l.945 2.933 2.16-.315-1.197-7.72-1.79-1.689-.118 6.791Z" clip-rule="evenodd"/><path fill="#2E100D" d="m18.124 50.959-5.208-4.247-1.456-3.367 5.836-12.72 4.608-2.507.422.644-4.054 2.691-5.965 11.916 1.238 2.862 5.063 4.128-.484.6ZM46.477 52.831l.992 6.259-2.796 4.995-.195 7.004 1.418 10.942L38.958 85l-8.138-1.322-.596-4.81 3.784-2.506-.58-3.572-.31-1.907-.155-.954c-.054-.317-.09-.637-.134-.955l-1.257-7.675.926-.402 1.09 7.99c.046.318.081.636.135.954l.154.951.31 1.905.657 4.049-3.8 2.518.465 3.748 7.322 1.19 6.04-2.71-1.16-10.387.022-7.528 2.696-4.772-.875-5.773.925-.2h-.002Z"/><path fill="#2E100D" d="m20.461 35.518.72 6.002L18.14 53.01l3.178 3.416-.698.657-3.54-3.805 3.13-11.827-.74-6.168 3.236-4.09-2.245 4.324ZM26.235 60.077l4.88.653 5.275-2.293.15.468-5.307 2.827-5.38-.97-3.114-2.476 3.496 1.79Z"/><path fill="#62AF62" d="m23.239 29.642-3.827 7.014.82 4.986-1.002 3.964-2.37-3.873.685-8.688 3.11-3.99 2.584.587Z"/><path fill="#2E100D" d="M23.225 29.465 22.3 31.16l-1.771 3.246c-.37.679-.753 1.353-1.112 2.037-.088.168 0 .425.03.604l.259 1.57.484 2.943.008.054v-.104l-.355 1.408-.568 2.246-.13.52.357-.048-.832-1.457-1.328-2.325-.307-.537.026.1.199-2.817c.105-1.496.21-2.991.317-4.488l.072-1.029-.058.139 1.08-1.302c.571-.69 1.142-1.377 1.712-2.067l.397-.478-.138.058 2.405.285.348.041c.104.013.195-.1.195-.197 0-.116-.09-.183-.195-.196l-2.3-.272c-.137-.016-.274-.038-.41-.049a.236.236 0 0 0-.208.085c-.177.2-.342.413-.513.62-.62.745-1.238 1.493-1.857 2.239l-.67.808c-.04.048-.082.095-.12.144-.05.063-.058.122-.064.196l-.12 1.706-.21 2.97-.19 2.69-.052.754c-.009.12-.017.203.045.311l1.131 1.98 1.235 2.162.072.126c.083.144.316.117.358-.047l.41-1.627.581-2.299c.034-.13.079-.252.057-.386-.033-.212-.07-.423-.105-.634-.136-.836-.274-1.67-.411-2.506l-.191-1.16c-.034-.206-.059-.417-.103-.622l-.005-.03-.02.152 1.297-2.374a7818.238 7818.238 0 0 0 2.53-4.64c.122-.221-.216-.42-.337-.198Z"/><path fill="#4D964D" d="m20.191 41.574-.928 3.685-2.198-3.878 3.126.193Z"/><path fill="#7ACC7A" fill-rule="evenodd" d="m22.277 30.73-.674.854-2.238-.504.698-.826 2.214.476ZM21.313 32.052l-1.407 1.422-2.218-.39 1.262-1.478 2.363.446Z" clip-rule="evenodd"/><path fill="#CA3C27" fill-rule="evenodd" d="m42.449 27.927-5.344 1.652-6.284.898-7.647-1.082-11.078-3.98 1.687-3.494-2.256.346 3.36-5.988-.925-2.068.578-1.948 1.627 1.007-.745-2.883 1.856-3.05-2.112-5.875 2.6-1.087 8.178 3.497 9.566.097L45.27.412l3.24.965-2.2 6.224 1.657 2-1.223 3.22 1.685-1.3.788 2.433-3.11 3.954 3.087 5.197-2.737-.925 1.779 3.567-5.787 2.18Z" clip-rule="evenodd"/><path fill="#EB6337" fill-rule="evenodd" d="m19.259 9.375-7.61 12.707 2.379-.261-1.898 3.635 3.89 1.367-2.095-2.434L19.26 9.375Z" clip-rule="evenodd"/><path fill="#771213" fill-rule="evenodd" d="m38.11 15.453 2.27 8.665-3.75 5.409-5.8.924-.846-.21 1.566-.942 2.954-4.622-1.193-2.962 2.694-1.298 2.106-4.964ZM19.566 14.474l-2.52 8.495 2.586 5.117L23 29.529l1.695.135-4.309-4.397-.19-3.375 1.823-1.046-2.757-2.203.304-4.169Z" clip-rule="evenodd"/><path fill="#FDE6D5" fill-rule="evenodd" d="m27.84 19.128 1.807 1.634 3.69.934 1.168 2.98-2.957 4.62-1.46.871-5.444-.618-4.236-4.307-.22-3.354 1.83-1.043.41-.92 2.303-.898 3.109.101ZM40.373 24.106l-3.815 5.404 1.015-.042 4.46-1.529 1.84-4.021-1.786-2.194 1.73.198-5.72-6.479 2.276 8.663ZM17.067 22.975l2.65 5.258-3.694-1.522-1.784-5.117.916-1.197-1.325-.07 5.776-5.994-2.54 8.642Z" clip-rule="evenodd"/><path fill="#EEBC92" fill-rule="evenodd" d="m28.011 28.068 2.506-3.125 3.99-.252-2.96 4.612-1.544.94-5.378-.646-4.237-4.33-.094-1.806.736.402.03.88 2.904 2.818 4.047.507ZM36.517 29.571l2.266-3.232 2.396.547 2.706-2.957-1.745 3.833-4.676 1.727-.947.082ZM19.675 28.143l-1.519-2.984-1.196.564-2.77-4.149 1.855 5.199 3.63 1.37ZM28.615 13.61l-.135-4.196 2.584-.254.203 4.003-2.652.447ZM33.897 10.735l-1.356-.6-.315 3.316 1.35.321.321-3.037Z" clip-rule="evenodd"/><path fill="#EB6337" fill-rule="evenodd" d="m27.429 8.531 7.994-4.441-9.696-.26L27.43 8.53Z" clip-rule="evenodd"/><path fill="#FDE6D5" fill-rule="evenodd" d="m31.05 9.16-2.57.25.153 3.597 1.827-.583.59-3.264ZM33.893 10.734l-1.32-.583.526 2.322.794-1.739Z" clip-rule="evenodd"/><path fill="#EEBC92" fill-rule="evenodd" d="m25.988 13.503.2-4.132-2.53-.348-.059 4.016 2.39.464ZM21.118 10.495l1.554-.414.13 3.12-1.454.289-.23-2.995Z" clip-rule="evenodd"/><path fill="#FDE6D5" fill-rule="evenodd" d="m23.738 9.046 2.451.325-.155 3.253-1.431-.013-.865-3.565ZM21.211 10.472l1.462-.391-.392 2.267-1.07-1.876Z" clip-rule="evenodd"/><path fill="#A3332B" fill-rule="evenodd" d="m40.757 8.96 1.615-1.461-.183 2.54 1.692.634-1.298 1.379 6.573 10.881-2.71-.682 1.79 3.578-5.338 1.81 2.991-3.409-5.657-16.053.525.783Z" clip-rule="evenodd"/><path fill="#FDE6D5" fill-rule="evenodd" d="m23.582 17.092.68 2.116.444-.16.343-.568-.864-2.301-2.358-.609-1.681 1.957.63.863 1.233-1.684 1.573.386Z" clip-rule="evenodd"/><path fill="#EB6337" fill-rule="evenodd" d="m27.832 19.117-.05-2.034-2.017-.03-1.064 2.016 3.131.048Z" clip-rule="evenodd"/><path fill="#FDE6D5" fill-rule="evenodd" d="m29.939 17.69-.765 1.692-.384.653-.957-.91 1.289-2.713 2.661-.675 2.484 1.703-.966 1.142-1.414-1.237-1.948.345Z" clip-rule="evenodd"/><path fill="#EEBC92" fill-rule="evenodd" d="m24.192 20.424 2.03-.2 1.604-1.099-3.127-.072-2.255.86 1.748.51Z" clip-rule="evenodd"/><path fill="#FDE6D5" fill-rule="evenodd" d="m37.957 7.651-.647-2.526L45.434.588l3.032.949-2.354 6.052 1.906 1.998-1.314 3.431 1.679-1.443.86 2.455-2.95 3.885-2.715-4.113 1.45-2.243-1.462-3.269 1.423-4.276-4.784 4.156-2.248-.519Z" clip-rule="evenodd"/><path fill="#EEBC92" fill-rule="evenodd" d="m45.03 3.95-4.809 4.225-2.27-.519 2.211-.685L45.03 3.95Zm.74 13.344-2.56-4.312L45 11.515l-1.24-3.168 1.274-4.399-.455 4.2 1.752 1.9-.83 3.409.269 3.838-.001-.001Z" clip-rule="evenodd"/><path fill="#771213" fill-rule="evenodd" d="M37.32 5.177 35.04 4.18 45.524.537l-8.204 4.64ZM23.037 4.811l2.627-.878L17.46.436l5.577 4.375Z" clip-rule="evenodd"/><path fill="#FDE6D5" fill-rule="evenodd" d="m17.578.519-2.621.962 2.286 5.94-1.727 3.222.722 2.464-1.5-.938-.757 2.314 1.167 1.728 3.276-5.48 2.489-4.14 2.124-1.78L17.577.52Z" clip-rule="evenodd"/><path fill="#EEBC92" fill-rule="evenodd" d="m17.465 12.17 3.396-5.424 1.007-.953-4.07-2.513 1.161 3.946-2.026 2.13.532 2.815Z" clip-rule="evenodd"/><path fill="#2E100D" fill-rule="evenodd" d="m40.2 8.166 4.834-4.222-1.2 4.323 1.33 3.265-1.545 2.29-1.053-1.831 1.246-1.303-1.66-.63.173-2.466-1.573 1.425-.552-.851ZM21.114 6.511l-2.785-2.595.971 3.218-1.165 2.753.191.976 2.788-4.352ZM23.266 19.6l-2.233-.82-.338-.492 1.317-1.612 1.75.43.722 2.03-1.218.464Z" clip-rule="evenodd"/><path fill="#771213" fill-rule="evenodd" d="m22.279 17.112 1.206.316.56 1.473-.773.699-1.654-.61-.25-.87.91-1.008Z" clip-rule="evenodd"/><path fill="#2E100D" fill-rule="evenodd" d="m22.43 17.448.938.283.263.905-.696.651-.95-.338-.242-.809.687-.692Z" clip-rule="evenodd"/><path fill="#FDE6D5" fill-rule="evenodd" d="m22.303 17.28.505.127.152.562-.395.37-.516-.135-.16-.498.414-.425Z" clip-rule="evenodd"/><path fill="#2E100D" fill-rule="evenodd" d="m47.403 23.084 1.429 2.85-11.166 4.04-7.252.963-7.423-.914-11.536-4.506 1.67-2.983v-.005l-.05.005-.109.017-.23.036-.427.07-1.653.273 1.042-1.705.59-.943 1.115-1.772 2.23-3.546 4.46-7.091L16.03 15.2l-2.03 3.665-1.015 1.832-.255.458-.127.23-.063.113-.016.029c-.005.009-.013.021-.01.02l-.005.01a.29.29 0 0 0-.024.098.486.486 0 0 0 .09-.042l.01-.008.204-.043.109-.022.167-.034.435-.085 1.528-.275-2.096 3.934 10.309 3.936 7.17.884 7.024-.933 10.051-3.421-1.53-3.074-.444-.927 1.377.379.668.184.388.11.165.049.02.01.053.024c.039.017.087.037.144.058a1.86 1.86 0 0 0-.058-.147l-.023-.05-.006-.012-.003-.007-.002-.003-.006-.012-.058-.1-.23-.406-.921-1.62-1.842-3.238-3.683-6.478 4.04 6.26 2.019 3.13 1.01 1.566.252.39.166.262.22.35.906 1.444-2.39-.579-.176-.04-.087-.02-.04-.008h-.003a.08.08 0 0 0-.025.004c-.013.003-.016.01-.01.018.011.012.02.02.027.023l-.002-.003Z" clip-rule="evenodd"/><path fill="#2E100D" d="m45.877 17.698 2.91-3.873-.564-1.648-2.283 1.855 1.605-4.3-1.65-2.058 2.12-6.017L45.26.842l-10.032 3.56-9.485-.214L17.748.814l-2.302.884 2.248 5.728-1.782 3.274.637 2.934-1.564-.918-.532 1.72 1.03 1.616-.634.408-1.217-1.911.915-2.965.903.529-.333-1.528 1.748-3.21-2.398-6.112L17.762 0l8.14 3.435 9.205.207L45.239.047l3.75 1.11-2.244 6.372L48.4 9.595l-.786 2.105.971-.79 1.044 3.05-3.151 4.193-.6-.455ZM23.939 25.714l-.053.454 1.597.188.053-.454-1.597-.188Z"/><path fill="#2E100D" fill-rule="evenodd" d="m24.232 20.42 1.927-.182.177.576-1.868 1.375-.078 1.155 2.613.845 3.082-.759.364-.805.301.078.16 1.104-.69.01-3.407 1.066-2.768-.904-2.036.332-.418-.482-.433.087-.445-.94.296-.238.816.933 1.947-.341.045-1.174-1.639-1.656.26-.58 1.794.5Z" clip-rule="evenodd"/><path fill="#2E100D" d="m33.325 18.581-1.673-1.534-1.756.621-.761 1.937 1.38.533 2.306-.85.504-.707Z"/><path fill="#771213" d="m30.164 17.926 1.435-.507 1.022.957-.348 1.112-1.456.537-1.038-.726.385-1.373Z"/><path fill="#2E100D" d="m32.04 18.457-.194.814-.853.316-.671-.527.162-.917.878-.314.677.628Z"/><path fill="#FDE6D5" d="m30.956 18.754-.506.17-.451-.398.163-.599.422-.149.455.394-.083.582Z"/><path fill="#2E100D" d="m22.715 23.996 1.774-.34 2.66.815-.943.91-3.057-.398-.434-.987Z"/><path fill="#62AF62" d="m44.331 28.555-3.78 6.757.039 7.222.662 2.6-2.905.569-1.076-3.64-.118-7.3 4.057-6.534 3.121.326Z"/><path fill="#62AF62" d="m39.223 36.24-1.98-.34-5.414.183-8.551-.923-2.49-.81-1.206.033-.246 3.882 1.031.048 2.359 1.004 8.87 1.085 6.17-.393 1.743.315-.286-4.083Z"/><path fill="#2E100D" d="m39.405 35.999-1.062-.154c-.186-.026-.374-.07-.563-.068l-1.933.017c-.941.01-1.883.018-2.825.027l-1.055.01c-.149 0-.3.01-.449.004-.366-.018-.735-.08-1.1-.118l-2.581-.277c-.929-.099-1.86-.2-2.788-.298l-1.723-.185c-.035-.004-.076-.013-.11-.012.047-.002.062.014.017-.004-.045-.018-.096-.03-.144-.046l-1.216-.39c-.318-.102-.637-.222-.96-.306-.094-.025-.2-.015-.296-.016l-.687-.01-.394-.006c-.11-.002-.19.092-.196.197l-.2 3.389-.028.476c-.007.11.095.191.195.197l1.068.06-.099-.027 1.96.86c.164.071.347.184.525.208l.411.052 2.014.256 2.768.35 2.479.314.818.105c.12.014.243.04.363.046.098.005.198-.01.296-.014l.93-.05c.907-.046 1.813-.094 2.72-.142l2.03-.106c.124-.007.227.001.352.017l1.273.155.294.037c.098.012.2-.1.196-.197l-.137-3.647-.02-.515c-.01-.252-.4-.253-.391 0 .046 1.217.09 2.432.137 3.648l.02.514.195-.197c-.577-.07-1.154-.157-1.733-.211-.08-.008-.16.003-.24.007l-.71.037-2.267.12-2.187.114-.627.033c-.052.002-.103.008-.155.002-.35-.03-.7-.088-1.049-.132l-2.079-.264-2.421-.306-2.11-.268-1.134-.143-.054-.007.099.026-1.396-.612-.804-.353-.165-.073c-.083-.035-.172-.032-.261-.037l-.91-.051.195.196.2-3.388.029-.477-.196.197 1.09.016c.066 0 .134.007.198.003.05-.003-.07-.023-.003.003.12.047.249.08.372.119l1.311.42.512.163c.066.022.13.045.2.054.417.05.835.09 1.253.135l2.64.283 2.753.295 1.588.17c.32.034.655.002.977-.001l2.699-.025 2.366-.021.28-.003c.023 0 .047.002.07 0 .05-.006-.053-.011-.027-.006.379.062.76.11 1.14.165l.345.05c.104.015.21-.025.24-.138.026-.092-.031-.227-.137-.241l.004-.005Z"/><path fill="#4F4F4F" d="m25.072 39.932 2.198.257a1.504 1.504 0 0 0 1.666-1.325l.266-2.293a1.508 1.508 0 0 0-1.318-1.675l-2.198-.258a1.504 1.504 0 0 0-1.666 1.325l-.266 2.294a1.508 1.508 0 0 0 1.318 1.675Z"/><path fill="#3A3A3A" d="m25.431 39.232 1.34.157a1.218 1.218 0 0 0 1.349-1.073l.163-1.407c.078-.67-.4-1.278-1.067-1.356l-1.34-.157a1.218 1.218 0 0 0-1.35 1.073l-.162 1.407c-.078.67.4 1.278 1.067 1.356Z"/><path fill="#2D2D2D" d="m26.285 34.853-.118 1.309.144-.19-1.302.419a.204.204 0 0 0-.143.19l-.104 1.308c-.005.066.04.14.097.17l1.314.707-.096-.17c-.044.48-.088.96-.13 1.44-.01.105.096.196.195.196.113 0 .186-.09.196-.197l.13-1.439c.006-.065-.041-.14-.097-.17l-1.314-.707.096.17.104-1.308-.144.19 1.302-.42c.089-.028.136-.099.144-.19l.117-1.308c.01-.106-.097-.196-.196-.196-.113 0-.185.09-.195.196Z"/><path fill="#2D2D2D" d="M26.662 37.837a.482.482 0 0 0 .482-.483.482.482 0 0 0-.482-.484.482.482 0 0 0-.48.484c0 .267.215.483.48.483Z"/><path fill="#2E100D" d="m25.002 40.135 1.503.176c.223.026.445.053.668.078a1.7 1.7 0 0 0 1.1-.246c.408-.258.701-.688.774-1.168.029-.183.045-.37.066-.553l.203-1.753c.039-.33.008-.65-.126-.957a1.711 1.711 0 0 0-1.028-.933c-.21-.07-.438-.084-.657-.11l-.937-.11-.831-.097c-.303-.035-.603-.028-.892.085-.45.176-.807.525-.986.978-.088.223-.108.46-.136.696l-.21 1.823c-.03.25-.05.49 0 .742.091.464.391.878.793 1.12.214.128.448.197.695.229.104.013.195-.1.195-.197 0-.117-.09-.183-.195-.197a1.32 1.32 0 0 1-.977-.68c-.146-.27-.174-.561-.14-.861l.19-1.636c.023-.193.041-.386.068-.578.047-.349.225-.672.505-.887a1.36 1.36 0 0 1 .984-.256c.193.021.386.045.578.067.524.061 1.047.12 1.57.184.736.092 1.235.754 1.156 1.488-.053.49-.113.978-.17 1.466-.057.49-.047 1.064-.37 1.467a1.32 1.32 0 0 1-1.093.492c-.165-.008-.33-.036-.493-.054l-1.68-.197-.128-.015c-.105-.012-.196.1-.196.197 0 .117.09.184.196.197Z"/><path fill="#4D964D" d="m38.895 36.6.136 3.258-1.112-.136.039-3.26.937.138Z"/><path fill="#BA3927" d="m35.326 39.5-1.458-2.669-1.302 2.852 2.76-.182Z"/><path fill="#E14226" d="m34.874 39.272-.979-1.792-.874 1.915 1.853-.123Z"/><path fill="#4D964D" d="m20.806 34.855-.215 2.906-.867-.055.242-2.89.84.04Z"/><path fill="#418241" d="m40.628 42.23.84 2.895-3.113.59-1.053-3.498 3.326.014Z"/><path fill="#7ACC7A" fill-rule="evenodd" d="m41.078 33.424-1.123 1.883-2.664-.412 1.12-1.989 2.667.518ZM41.86 31.893l-.53.928-2.45-.543.52-.85 2.46.465Z" clip-rule="evenodd"/><path fill="#418241" fill-rule="evenodd" d="m44.53 28.249-1.648 3.062-3.112-.736 1.278-2.19 3.482-.136Z" clip-rule="evenodd"/><path fill="#2E100D" d="m37.37 35.863-.021-.944-.026.1 1.355-2.28 2.145-3.607.493-.83-.169.097 2.937.089.409.012-.17-.296-.468.851-1.091 1.984-1.25 2.272-.925 1.681c-.066.118-.133.235-.196.355-.046.088-.038.169-.037.265l.02 1.732.03 2.571.022 1.99c0 .11-.004.222.004.332.004.064.027.126.043.187l.114.408.612 2.208.045.162c.068.244.445.14.378-.104l-.56-2.02c-.08-.286-.142-.586-.241-.866-.018-.05.005.014 0 .023.005-.01 0-.031 0-.042 0-.074-.002-.147-.003-.221l-.025-2.126-.031-2.773-.012-1.047c-.002-.175.01-.358-.006-.533v-.024l-.026.1 1.331-2.42 2.123-3.858.49-.888a.199.199 0 0 0-.17-.296l-2.937-.088-.409-.012a.198.198 0 0 0-.169.098l-.494.83c-.38.64-.76 1.28-1.142 1.92l-1.282 2.155-.914 1.538c-.053.09-.114.177-.16.27-.048.093-.026.225-.024.328l.012.596.003.121c.006.253.397.254.392 0ZM38.514 45.611l-.684-2.267-.343-1.135c-.005-.018-.011-.074-.026-.086-.017-.014-.006.063.006.042.006-.012 0-.043 0-.057l.002-.583.005-1.341c0-.253-.39-.254-.391 0l-.004 1.152c0 .23-.002.457-.003.686 0 .079-.005.155.015.231.088.332.199.658.298.986l.463 1.538.284.94c.073.242.45.14.377-.103l.001-.002Z"/><path fill="#2E100D" d="m42.213 44.88-1.219-7.745.292-.033 1.599 7.663-.672.115Z"/><path fill="#A3332B" fill-rule="evenodd" d="m46.62 47.886-.117 4.45 1.349-.124 3.321-4.166-3.247-14.835-4.477-2.644 2.455 3.887 2.334 10.285-1.618 3.147Z" clip-rule="evenodd"/><path fill="#A3563E" d="m13.911 57.368-2.762.247L.768 36.235l9.606-2.612-3.391 8.209 6.928 15.536Z"/><path fill="#844331" d="M8.655 52.06c.01-.279.097-.604.218-.853.145-.296.303-.511.526-.736.223-.225.4-.36.673-.51a1.964 1.964 0 0 1 .61-.223l.043-.007c.036-.006-.038.002.02-.002.058-.004.111-.01.167-.008.028 0 .054.002.081.004.014 0 .027.003.04.004-.061-.006 0 0 .012.003.051.01.099.023.148.039.062.02-.009-.009.034.014.025.014.052.026.076.041.02.012.038.026.057.038-.025-.017 0 0 .024.022a.716.716 0 0 1 .053.055c.01.01.017.02.026.03.02.024-.02-.033.01.013.029.047.057.096.083.147.021.045-.015-.04.004.008l.015.043a1.483 1.483 0 0 1 .076.54 3.13 3.13 0 0 1-.064.575c-.089.449-.211.919-.453 1.301-.258.408-.598.758-.831 1.184-.304.556-.38 1.163-.28 1.786.016.105.146.163.24.138.111-.03.153-.137.137-.242a2.31 2.31 0 0 1 .268-1.53c.22-.388.526-.714.771-1.086.275-.415.417-.921.517-1.405.08-.39.124-.8.044-1.192-.116-.562-.556-.933-1.129-.923-.6.01-1.172.34-1.609.731-.494.443-.875 1.054-.972 1.72a2.717 2.717 0 0 0-.027.283c-.01.252.381.252.391 0l.001-.001Z"/><path fill="#844331" d="M9.903 51.309c.01-.05.022-.1.038-.149l.024-.067c.003-.01.02-.043 0-.002a.964.964 0 0 1 .077-.143c.009-.012.048-.058.01-.017l.04-.047.039-.038.021-.02c.013-.012.01-.02-.012.009.02-.026.065-.044.092-.058l.02-.01c.025-.013-.019.012-.018.008 0-.005.04-.015.044-.016a.334.334 0 0 1 .045-.012c.007 0 .014-.003.02-.004.044-.01-.008.007-.012.001.005.006.079-.003.09-.002.01 0 .063.006.024.001-.04-.005.018.004.028.007.015.004.03.008.043.013.009.003.059.023.024.008-.036-.015.014.008.022.012a.61.61 0 0 1 .044.025l.023.015c-.03-.02.013.012.02.018.026.022.047.049.07.074.017.019-.028-.042-.007-.008l.012.018c.01.014.019.029.027.043l.024.047c.003.005.009.015.01.021-.008-.045-.008-.02-.002-.003.012.036.023.071.031.108l.01.052a5.352 5.352 0 0 0 .002.035c.002.04.002.082 0 .122 0 .01-.01.091-.002.04l-.014.08c-.01.046-.021.092-.036.137-.006.02-.012.038-.02.056 0 .002-.019.047-.005.017l-.01.022a.99.99 0 0 1-.092.151c.028-.04-.002.002-.015.017-.024.025-.05.048-.076.073-.021.02.035-.024-.005.003l-.046.03-.047.025c-.042.021.028-.008 0 0-.033.011-.064.022-.098.03l-.02.004c-.03.008.02-.004.023-.003-.01-.004-.04.004-.05.004-.029.001-.058-.001-.087-.003-.037-.002.042.009.018.003a.21.21 0 0 0-.023-.004l-.038-.009-.043-.013c-.053-.017.032.018-.011-.004-.03-.016-.057-.034-.084-.05-.028-.017.017.01.015.012l-.023-.02a.733.733 0 0 1-.062-.061c.024.025-.015-.023-.021-.032a.442.442 0 0 1-.027-.047l-.01-.02c-.016-.032-.01-.007.003.006-.022-.021-.03-.088-.037-.118a1.546 1.546 0 0 1-.006-.03c-.003-.02-.02-.038 0 .002-.007-.015-.003-.05-.004-.066-.002-.047 0-.093.003-.14 0-.004.007-.052.002-.02-.004.031.002-.012.004-.02l.02-.093c.024-.1-.031-.219-.137-.242-.106-.024-.214.03-.24.137-.097.398-.03.845.326 1.092.3.208.7.157.973-.07.33-.27.456-.782.369-1.189a.853.853 0 0 0-.761-.686.787.787 0 0 0-.564.206c-.187.163-.293.408-.343.647-.021.1.03.218.137.242.098.023.218-.03.24-.137Z"/><path fill="#844331" d="M7.997 50.62c.023-.507.131-1.017.378-1.457.2-.356.471-.642.828-.832.157-.084.318-.142.515-.181.155-.03.352-.041.544-.024.061.006.063.006.107.014a2.411 2.411 0 0 1 .444.122c.164.063.37.179.533.299.846.616 1.298 1.763 1.386 2.795.039.46-.007.874-.152 1.31-.121.365-.291.686-.453 1.056a4.774 4.774 0 0 0-.384 1.312c-.077.609-.009 1.227.122 1.824a9.7 9.7 0 0 0 .148.574c.07.243.448.14.377-.104-.19-.657-.324-1.337-.282-2.024.014-.243.053-.474.117-.713a4.02 4.02 0 0 1 .153-.461l.026-.068.024-.058c.162-.384.357-.754.498-1.148.16-.447.23-.92.203-1.393-.065-1.137-.524-2.377-1.421-3.114-.685-.562-1.627-.81-2.47-.467-.93.38-1.454 1.303-1.59 2.27-.021.155-.036.31-.044.466-.011.253.38.253.391 0l.002.001ZM1.527 38.26c.527.134 1.063.238 1.604.303.446.054.913.059 1.33-.127.777-.345.855-1.218 1.204-1.891.18-.35.46-.6.85-.679.392-.08.798.063 1.07.36.265.29.31.666.276 1.044-.023.263-.12.521-.285.704-.345.386-.905.553-1.376.763-.655.292-1.223.723-1.579 1.363-.356.64-.449 1.49-.049 2.156.36.599 1.04 1.033 1.738 1.061.602.026 1.169-.223 1.722-.43.481-.178 1.012-.36 1.485-.15.13.058.25.14.357.237.187.168.465-.11.276-.278-.23-.206-.501-.366-.807-.418-.285-.05-.57-.02-.85.048-.566.14-1.087.425-1.659.55a1.81 1.81 0 0 1-.802.01c-.331-.078-.617-.268-.86-.504-.519-.506-.6-1.265-.299-1.913.173-.373.437-.705.76-.958.224-.175.483-.306.742-.423.497-.224 1.062-.395 1.449-.802.198-.209.333-.47.392-.752.076-.372.076-.802-.073-1.155-.356-.836-1.384-1.16-2.168-.728-.357.197-.587.535-.744.904-.145.343-.238.711-.422 1.036a1.164 1.164 0 0 1-.926.6c-.483.052-.984-.044-1.458-.134-.266-.05-.53-.11-.793-.176-.244-.062-.348.316-.103.38l-.002-.002Z"/><path fill="#DB7C65" d="m12.565 39.253-5.807 2.75 3.874-8.422 1.933 5.672Z"/><path fill="#BF6A4C" d="m15.29 60.596 9.977-3.48 8.603 2.67-4.992-20.657-10.26-2.483-11.71 5.346 8.382 18.604Z"/><path fill="#D87C60" d="M29.086 41.322c-.383.042-1.183.135-1.702.483-.314.21-.624.502-.833.823-.174.265-.207.722-.397.943-.308.355-.847.435-1.19.824-.405.458-.467.871-.596 1.426-.745-.241-1.867-.347-2.698-.437-1.193-.128-2.497.004-3.47.789-.825.664-1.297 1.742-.76 2.72.285.522.99 1.106.966 1.722-.034.872-1.419 1.303-1.935 1.862.56-.027 1.24.163 1.614.585.546.616.202 1.018-.306 1.425-1.043.838-3.373 1.307-2.492 3.097.181.37.325.33.112.756-.165.33-.492.614-.654.947-.338-.846-.675-1.692-.989-2.572-.386-1.08-1.084-1.864-1.631-2.876-.756-1.397-1.104-2.895-1.753-4.33-.706-1.564-1.438-3.118-2.154-4.671a13.682 13.682 0 0 1-.694-1.804c-.11-.373-.378-.855-.402-1.225 1.915-1.042 4.016-1.709 6.006-2.625 1.132-.522 2.225-1.124 3.363-1.625.695-.305 1.482-.594 2.125-.96.815.609 2.17.623 3.129.897 1.167.334 2.311.581 3.503.81 1.2.228 2.58.383 3.7.828.057.755.08 1.544.138 2.186v.002Z"/><path fill="#8C2C28" d="m13.606 57.08-2.173.139a30.53 30.53 0 0 1-.312.02l.21.121-.28-.57-.76-1.543-1.125-2.281-1.377-2.794-1.502-3.048-1.517-3.078a3907.656 3907.656 0 0 1-2.613-5.302L1.297 37c-.135-.275-.258-.56-.408-.827-.007-.012-.012-.024-.017-.035l-.146.36.977-.263 2.334-.628 2.837-.764 2.454-.66.808-.218c.125-.034.26-.057.381-.102l.018-.005-.276-.361-.876 1.998-1.685 3.84-1.074 2.447c-.045.103-.067.194-.019.305l.05.11.27.595a11675.71 11675.71 0 0 1 2.651 5.85l1.773 3.91 1.693 3.735 1.322 2.915.66 1.456.029.064c.055.12.229.15.334.088.124-.073.143-.215.088-.336l-.226-.5-.614-1.353-.911-2.01-1.106-2.44-1.218-2.686-1.223-2.7-1.146-2.529-.965-2.127-.697-1.538c-.11-.241-.208-.492-.33-.727a.437.437 0 0 1-.013-.03v.247l1.237-2.82c.656-1.498 1.313-2.994 1.97-4.491l.448-1.023c.083-.188-.053-.421-.275-.361l-.977.263-2.335.629-2.837.763-2.453.661c-.395.106-.8.197-1.19.32l-.018.005c-.162.044-.215.222-.146.361.094.19.188.38.28.57l.762 1.544 1.124 2.28 1.377 2.794 1.502 3.05 1.517 3.076a3720.39 3720.39 0 0 1 2.613 5.303l.86 1.743c.136.275.263.556.408.827l.017.035a.239.239 0 0 0 .212.122l2.173-.139.312-.02c.313-.019.315-.51 0-.49l-.001-.004Z"/><path fill="#9B513B" d="M28.928 41.251c-.98-.11-1.998.443-2.467 1.31-.127.235-.19.48-.26.735s-.188.405-.415.52c-.426.216-.914.272-1.229.67a1.405 1.405 0 0 0-.15 1.524l.222-.29c-1.927-.57-4.066-.838-5.938.067-.75.363-1.703 1.012-1.744 1.94-.044.996.988 1.51 1.287 2.366.078.223.1.468-.012.685-.112.216-.294.357-.48.488-.493.347-1.002.674-1.503 1.009-.137.092-.121.312.047.36.36.1.71.229 1.05.388.257.12.56.263.71.519.353.599-.593 1.031-1.002 1.2-.605.248-1.28.442-1.758.91-.405.397-.704 1.023-.533 1.595.05.167.138.308.248.442.097.118.22.233.22.397.002.315-.346.58-.574.744-.086.062-.127.171-.07.27.05.085.18.132.267.07.27-.194.55-.427.689-.74.153-.346.053-.654-.182-.932-.19-.226-.295-.46-.24-.762.056-.302.21-.556.414-.768.493-.51 1.253-.676 1.88-.957.567-.255 1.334-.797 1.044-1.53-.137-.346-.46-.57-.78-.731a7.195 7.195 0 0 0-1.28-.496l.047.36c.45-.3.898-.6 1.346-.901.358-.24.732-.512.864-.944.139-.454-.05-.931-.3-1.309-.25-.377-.598-.694-.827-1.092-.21-.365-.241-.755-.022-1.124.219-.368.595-.657.962-.883.778-.478 1.689-.717 2.596-.766 1.179-.064 2.346.17 3.471.504.17.05.3-.141.221-.289a1.002 1.002 0 0 1 .13-1.097c.285-.333.766-.375 1.136-.572.196-.105.367-.262.466-.465.113-.232.138-.492.233-.73.156-.394.455-.73.807-.958.42-.273.912-.4 1.41-.342.106.011.196-.1.196-.197 0-.116-.09-.185-.196-.197h-.001ZM20.254 53.508c-.614.465-.86 1.314-.55 2.03.31.715 1.132 1.142 1.898 1.027.765-.115 1.416-.74 1.541-1.502s-.253-1.744-1.038-2.045c-.424-.163-.944-.08-1.352.096-.408.177-.715.472-.876.878-.04.099.043.217.137.242.111.03.2-.038.24-.138.223-.56.92-.809 1.479-.762.677.056 1.066.841 1.047 1.456-.018.614-.449 1.15-1.026 1.336a1.404 1.404 0 0 1-1.568-.528c-.376-.543-.267-1.35.266-1.752.084-.064.128-.17.07-.27-.049-.083-.183-.134-.268-.07v.002Z"/><path fill="#9B513B" d="M20.376 52.657h.03c.25-.01.252-.403 0-.394h-.03c-.252.01-.252.403 0 .394h.03c.25-.01.252-.403 0-.394h-.03c-.252.01-.252.403 0 .394Z"/><path fill="#9B513B" d="m20.584 52.593.31-.083a.195.195 0 0 0 .137-.242.205.205 0 0 0-.09-.118.205.205 0 0 0-.151-.02l-.31.084a.195.195 0 0 0-.137.242.205.205 0 0 0 .09.118.205.205 0 0 0 .151.02ZM21.963 57.315l.468-.136a.196.196 0 0 0 .137-.242c-.032-.1-.135-.167-.24-.137l-.468.136a.196.196 0 0 0-.137.242c.032.1.135.168.24.137ZM18.737 55.539l.168.484c.017.049.045.09.09.117a.197.197 0 0 0 .15.02.204.204 0 0 0 .118-.09.191.191 0 0 0 .02-.152l-.169-.483a.212.212 0 0 0-.09-.118.197.197 0 0 0-.15-.02.205.205 0 0 0-.118.09.191.191 0 0 0-.02.152ZM23.25 53.718l.157.576c.028.1.14.17.24.138a.201.201 0 0 0 .138-.242l-.158-.576c-.027-.1-.14-.17-.24-.138a.201.201 0 0 0-.137.242ZM20.794 53.279c.324 1.008.619 2.027.884 3.053.063.245.44.14.377-.104a55.222 55.222 0 0 0-.883-3.054c-.077-.24-.455-.137-.378.105Z"/><path fill="#9B513B" d="m19.956 55.575 2.815-1.048c.234-.087.133-.467-.104-.38l-2.815 1.049c-.234.087-.133.467.104.38ZM25.85 45.87c.895.2 1.801.344 2.712.436.106.01.196-.099.196-.197 0-.115-.09-.186-.195-.197a22.257 22.257 0 0 1-2.609-.42c-.245-.055-.35.324-.103.379ZM26.157 47.068c.857.131 1.711.282 2.56.453.246.049.352-.33.105-.38a55.05 55.05 0 0 0-2.562-.452c-.104-.016-.21.026-.24.138-.026.093.031.226.137.241ZM15.442 38.036c.125.069.463.288.583.37.196.134.368.295.461.512.248.576-.19 1.206-.638 1.646-.45.44-.98.93-.955 1.554.028.72.785 1.23.888 1.942.013.088.013.184-.04.254-.063.082-.178.103-.282.114-1.537.168-3.213-.336-4.573.395-.423.227-.82.699-.636 1.14.182.44.78.502 1.26.46.479-.043 1.049-.084 1.348.288-.266.742-1.249 1.144-1.296 1.93-.034.57.455 1.02.89 1.397.435.376.897.874.788 1.437-.09.463-.929 1.064-1.31 1.375-.126.103-4.868-10.956-4.97-10.835l8.48-3.98h.002Z"/><path fill="#9B513B" d="M12.707 39.656c-.501.41-1.112.681-1.74.825-.135.031-.276.066-.416.067a.57.57 0 0 1-.083-.006c-.03-.005-.038-.02-.03-.008-.019-.028.035-.178.05-.224.083-.275.135-.567-.095-.789-.263-.254-.586-.102-.882-.014-.118.034-.293.09-.41.022-.081-.048-.063-.143-.036-.222.083-.244.321-.45.526-.59.248-.17.525-.289.817-.357.355-.082.75-.087 1.056-.31.226-.166.474-.42.489-.717.012-.253-.379-.253-.392 0 .001-.023-.005.026-.01.036-.006.018-.016.035-.025.051a.833.833 0 0 1-.124.164.92.92 0 0 1-.296.223c-.174.072-.373.093-.556.126-.183.032-.349.067-.518.126-.32.111-.616.277-.874.498-.217.187-.444.442-.495.735-.059.334.138.608.474.65.18.023.363-.02.534-.076.112-.036.29-.142.41-.087.102.047.097.167.074.26-.043.175-.123.346-.106.532.04.405.493.388.79.335a4.682 4.682 0 0 0 2.14-.973c.083-.067.07-.208 0-.278-.08-.082-.194-.067-.276 0l.005.001Z"/><path fill="#D87C60" d="M6.938 42.095c.096-.101.782 1.869.907 1.803.376-.199 1.286-.565 1.73-.54.592.032 1.179.17 1.77.13a.623.623 0 0 0 .253-.057c.226-.119.214-.408.217-.642.003-.248.06-.506.235-.698.254-.28.682-.355 1.049-.496.366-.143.736-.465.624-.81-.04-.117-.13-.215-.224-.304a3.671 3.671 0 0 0-.867-.604 3.893 3.893 0 0 0-.574-.233l-5.12 2.452v-.001Z"/><path fill="#9B513B" d="M18.064 40.748a2.935 2.935 0 0 0-.968.51c-.292.232-.555.623-.385.954.137.267.506.372.606.656.042.118.03.25.076.367.12.301.55.33.853.214.751-.288 1.19-1.2.945-1.96-.081-.252-.234-.49-.459-.632-.224-.141-.528-.175-.76-.045M31.352 50.16c-.284.4-.591.782-.92 1.146-.364.402-.808.804-1.352.831-.81.041-1.444-.753-2.25-.837a1.358 1.358 0 0 0-1.268.622c-.26.42-.25.989.022 1.4.411.625 1.25.786 1.867 1.212.339.233.615.553.794.921.104.215.168.494.012.677-.09.106-.233.15-.364.201-.433.168-.915.604-1.182.981l6.87 2.29-2.23-9.445M20.864 44.154c-1.205.093-2.484.264-3.561.858-.33.182-.636.41-.901.678-.328.33-.669.736-.776 1.197-.142.62.177 1.174.49 1.684.277.45.615.989.387 1.535-.228.547-.868.768-1.335 1.042-.34.199-.654.444-.937.718-.26.252-.57.6-.428.993.057.161.177.27.314.364.112.075.23.137.29.265.114.245.049.571-.075.8-.176.32-.487.539-.734.802-.245.261-.432.583-.48.944-.024.176-.01.355.049.523.084.237.462.135.377-.104-.256-.724.51-1.196.905-1.66.224-.263.366-.56.399-.907.028-.306-.056-.636-.298-.837-.105-.088-.25-.144-.337-.25-.1-.12-.031-.27.047-.383.105-.151.254-.28.389-.4.135-.122.284-.241.438-.348.494-.34 1.104-.538 1.51-.996.407-.459.45-1.105.2-1.675-.22-.505-.62-.93-.77-1.468-.085-.3-.044-.598.109-.872.113-.2.204-.31.357-.485.225-.26.468-.478.735-.654.89-.587 1.992-.795 3.031-.912.201-.023.403-.041.604-.056.25-.02.252-.413 0-.393l.001-.003Z"/><path fill="#D87C60" d="m22.977 37.936-.477.698c-.156.23-.302.567-.093.75.195.17.548.037.731.22.083.084.108.216.199.29.145.12.383.023.482-.138.1-.16.107-.358.142-.543.069-.381.262-.739.541-1.01"/><path fill="#9B513B" d="M13.728 39.154c.251 0 .252-.393 0-.393s-.252.393 0 .393ZM21.768 46.91a3.395 3.395 0 0 0-1.732.351c-.25.125-.512.335-.492.612.038.51.944.58 1.005 1.089.045.371-.42.66-.381 1.032.03.298.391.472.688.416.297-.055.535-.267.753-.476.217-.208.443-.43.733-.511.318-.09.656.003.974.091.148.042.332.071.43-.045.073-.084.062-.21.046-.32-.055-.41-.113-.826-.273-1.21-.159-.382-.436-.735-.82-.898-.305-.13-.647-.13-.979-.129M21.075 44.539c.806-.006 1.608.05 2.41.129.09.008.16-.07.189-.145.164-.437.442-.852.804-1.148.182-.149.384-.244.609-.304.225-.06.475-.126.66-.296.2-.185.302-.474.403-.72.112-.274.208-.555.31-.832.09-.243.18-.496.317-.718.11-.178.248-.336.396-.483.334-.335.745-.666 1.2-.816.237-.08.136-.46-.104-.38-.444.148-.841.435-1.187.743-.347.309-.64.678-.828 1.121-.122.288-.225.584-.332.878-.1.275-.199.571-.358.819-.138.213-.387.252-.615.314a1.901 1.901 0 0 0-.648.32c-.462.353-.799.855-1.002 1.399l.189-.145c-.801-.077-1.604-.134-2.41-.128-.251.002-.252.395 0 .393l-.003-.001Z"/><path fill="#8C2C28" d="M18.402 36.856c.058.182.118.363.177.545l.48 1.474.713 2.19.866 2.66.949 2.913.957 2.94c.3.917.598 1.836.897 2.753l.755 2.317.545 1.672c.085.263.167.527.257.789a.43.43 0 0 1 .01.033c.08.24.457.137.378-.104-.058-.182-.118-.363-.177-.545l-.48-1.474-.713-2.19-.866-2.66-.949-2.913-.957-2.94c-.3-.917-.598-1.836-.897-2.753l-.755-2.317-.545-1.672c-.085-.263-.167-.527-.257-.789a.432.432 0 0 1-.01-.033c-.079-.24-.457-.137-.378.104ZM10.381 33.603l.672 1.968 1.067 3.123.246.72c.08.24.46.136.377-.104l-.672-1.968c-.356-1.041-.71-2.082-1.067-3.123l-.245-.72c-.081-.24-.46-.136-.378.104Z"/><path fill="#8C2C28" d="m15.37 60.806.99-.353 2.39-.852 2.88-1.026 2.491-.888.823-.293c.127-.045.27-.079.392-.14l.018-.006h-.13l2.881.951c1.532.505 3.064 1.01 4.596 1.517l1.057.349c.184.06.342-.129.301-.303l-.134-.556-.362-1.505-.54-2.236c-.217-.905-.437-1.81-.655-2.715l-.72-2.988-.728-3.015-.676-2.8-.57-2.367c-.139-.57-.276-1.14-.413-1.71-.065-.27-.123-.543-.196-.81l-.008-.035a.246.246 0 0 0-.171-.172l-1.235-.292-2.876-.68-3.272-.772-2.421-.572c-.168-.04-.336-.084-.504-.12-.13-.027-.226.025-.338.077l-1.567.72-2.73 1.253-3.093 1.42-2.65 1.217-1.41.647-.065.03c-.128.058-.138.226-.088.336l.226.497.616 1.354.907 1.99 1.11 2.44c.407.891.813 1.783 1.217 2.674l1.229 2.698 1.145 2.517.964 2.117.697 1.531c.11.241.21.49.331.726l.015.031c.055.121.229.15.334.089.123-.073.143-.216.088-.337l-.226-.497-.616-1.354-.906-1.99c-.371-.814-.74-1.628-1.111-2.44l-1.217-2.674-1.228-2.698c-.382-.839-.764-1.677-1.145-2.517l-.965-2.117-.697-1.531c-.11-.241-.207-.492-.33-.726l-.015-.031-.088.336a661.7 661.7 0 0 0 1.158-.532l2.78-1.276 3.363-1.544 2.908-1.335.957-.44c.15-.069.31-.129.454-.208l.02-.009-.19.025 1.03.242 2.46.581 2.989.706 2.584.61.847.201c.132.032.27.079.404.096.006 0 .013.003.019.004l-.171-.172.134.556.363 1.505c.18.745.36 1.49.538 2.236l.656 2.715.72 2.988.728 3.015.676 2.8.57 2.367.414 1.71c.064.269.115.546.195.81l.008.035.301-.303-.996-.33-2.33-.768c-.896-.296-1.791-.59-2.686-.887l-2.023-.667c-.22-.073-.478-.218-.709-.137l-1.294.461-2.336.833-2.686.957-2.304.821-1.228.438-.056.02c-.295.105-.168.58.13.473v.004Z"/><path fill="#771213" d="m42.965 44.954 3.644 2.93-.061 4.717-8.04 1.694-7.323 4.633-2.929-3.062 2.695-3.847-4.49.314-.353-1.962 5.252-2.3-.76-3.117 5.076 1.7 7.288-1.7Z"/><path fill="#59171E" fill-rule="evenodd" d="m46.518 52.262-8.036 2.146-3.145 1.773 2.68-3.376.6-4.004 8.012-.924-.111 4.385Z" clip-rule="evenodd"/><path fill="#771213" fill-rule="evenodd" d="m4.007 49.815 3.93-1.195 1.975 5.422-3.89.423-2.015-4.65Z" clip-rule="evenodd"/><path fill="#2E100D" d="m8.289 48.183-5.022 1.375 2.595 5.302 4.455-.483-2.029-6.193Zm-4.082 1.812 3.637-.982 1.564 4.773-3.147.341-2.053-4.132h-.001ZM45.093 44.765l-10.771 2.29-3.683-1.49-.227-1.021 3.982 1.794 8.465-1.781 2.234.208ZM33.817 53.932l-4.14 3.532.295.349 4.14-3.533-.295-.348ZM40.795 28.76l-1.19-.178-.967.705 1.557.377.6-.904Z"/><path fill="#2E100D" d="m48.282 32.947-4.334-3.37-.558.965 4.071 2.81 2.881 14.679-2.814 3.821-9.33 2.12-6.76 4.386L29 56.002l3.125-4.494-5.334.177h-.002s0 .003-.002 0l-.009-.02-.035-.083-.07-.166-.14-.33-.069-.165-.034-.08-.008-.008a.535.535 0 0 1-.037-.049c.006-.008.015-.015.025-.024l.016-.015.01-.008.019-.01.027-.013.445-.225.889-.452 1.778-.902 3.557-1.805-3.721 1.432-1.86.716-.93.358-.466.179-.812.333.209.624.053.16.028.088.053.171.105.342.053.171.027.086.02.062.028.084.193.53 4.367-.289-2.75 3.745 3.815 3.316 7.024-4.885 9.5-1.845 3.186-4.564-2.99-15.199v.002Z"/></svg>