<svg width="153" height="756" viewBox="0 0 153 756" fill="none" xmlns="http://www.w3.org/2000/svg">
<path d="M107.1 -2.00635e-06L101.984 18.0075C97.0594 36.015 86.5407 71.925 81.616 108.15C76.5 144.007 76.5 180.075 68.85 215.775C61.2 252 45.9 288.225 53.55 323.925C61.2 359.992 91.8 395.85 99.45 432.075C107.1 467.985 91.8 504 81.616 540.225C71.2406 575.977 66.4594 612.15 79.0341 647.85C91.8 684.022 122.4 719.775 137.7 738.15L153 756L-2.52823e-06 756L-1.7411e-06 737.992C-9.53962e-07 719.985 6.15712e-07 684.075 2.19916e-06 647.85C3.76654e-06 611.992 5.3431e-06 575.925 6.90359e-06 540.225C8.48704e-06 504 1.00705e-05 467.775 1.1631e-05 432.075C1.32075e-05 396.007 1.47749e-05 360.15 1.63584e-05 323.925C1.7928e-05 288.015 1.95023e-05 252 2.10858e-05 215.775C2.26485e-05 180.022 2.42297e-05 143.85 2.57902e-05 108.15C2.73713e-05 71.9775 2.89341e-05 36.225 2.97373e-05 17.85L3.05176e-05 -6.68784e-06L107.1 -2.00635e-06Z" fill="#FAFAFA"/>
</svg>
