<?xml version="1.0" standalone="yes"?>
<svg xmlns="http://www.w3.org/2000/svg" width="810" height="743">
<path style="fill:#ffffff; stroke:none;" d="M0 0L0 743L810 743L810 0L0 0z"/>
<path style="fill:#010101; stroke:none;" d="M179 80C179 99.9777 177.678 119.355 182.594 139C195.01 188.614 234.18 226.287 278.09 249.914C306.539 265.221 338.1 274.629 365 292.806C375.86 300.145 386.919 307.68 394 319L396 319C403.081 307.68 414.14 300.145 425 292.806C451.871 274.649 483.464 265.183 511.91 249.914C555.875 226.315 595.151 188.694 607.556 139C612.467 119.323 611 99.97 611 80C605.826 87.8386 604.748 99.2453 600.998 108C591.732 129.627 575.853 151.779 554 162C560.385 150.88 564.992 139.025 564.992 126C564.992 120.258 563.451 114.7 563 109C559.061 117.18 558.341 126.041 553.536 134.169C543.092 151.832 522.849 162.289 504 168.376C498.038 170.301 489.415 174.625 483.039 173.606C478.689 172.912 475.268 167.97 471.961 165.373C465.167 160.039 457.79 155.65 450 151.934C427.577 141.239 402.534 139.292 378 141.09C361.25 142.318 343.268 148.965 329.09 157.792C324.323 160.76 319.533 163.928 315.3 167.627C312.146 170.382 309.605 173.93 304.996 173.642C298.636 173.244 292.001 170.313 286 168.376C258.554 159.513 229.45 139.737 228 108C220.061 125.684 227.691 146.226 236 162C214.263 150.543 198.621 130.293 189.003 108C186.652 102.552 184.691 96.6987 183.039 91C181.884 87.0135 181.641 83.321 179 80M249 275C251.577 285.46 252.989 295.685 257.649 305.576C268.105 327.77 289.448 341.998 314 342C319.547 342 325.63 342.707 331 341.099C339.181 338.648 346.647 334.31 351.826 327.424C353.517 325.175 355.965 322.049 355.254 319.039C353.861 313.144 343.001 307.368 338 305C336.395 311.138 335.016 317.069 330.695 321.96C317.357 337.058 291.847 333.824 284.688 314C280.542 302.517 285.246 293.034 292 284C283.184 278.911 270.995 277.068 261 275.718C256.868 275.159 253.109 274.11 249 275M503 282C507.296 286.702 511.248 290.83 513.325 297C518.63 312.761 506.05 329.612 490 331.79C477.868 333.437 465.344 324.267 461.599 313C460.126 308.569 460.173 304.522 461 300C453.33 302.009 445.68 308.251 439.666 313.272C436.497 315.917 433.447 318.605 435.36 322.965C440.894 335.58 456.071 341.979 469 342C487.497 342.03 505.357 338.723 519.04 325.04C533.198 310.882 536.546 293.496 541 275C536.816 273.943 533.203 275.075 529 275.725C520.268 277.077 511.237 278.745 503 282M182 321C182 332.472 179.643 346.961 182.9 358C191.115 385.838 213.673 408.324 240 419.833C262.063 429.479 287.273 432.903 311 435.17C322.812 436.298 334.117 437.723 346 438.015C359.455 438.344 372.548 439.979 386 439.188C389.82 438.964 393.232 440.689 397 440.946C404.27 441.442 411.712 441 419 441C413.359 445.906 402.249 446.555 395 447.089C382.224 448.03 369.891 450 357 450C322.573 450 289.041 449.314 255 444.299C230.388 440.674 208.141 435.647 187 422C187.955 434.107 190.93 445.816 195.742 457C198.824 464.161 202.903 471.223 207.751 477.334C238.723 516.373 298.671 514.147 343 505.829C347.446 504.995 351.569 502.976 356 502.015C366.391 499.761 376.782 497.684 387 494.631C399.619 490.861 412.243 486.179 425 483C421.481 486.952 416.556 489.18 412 491.807C400.064 498.69 386.969 503.251 374 507.709C338.273 519.99 298.912 527.914 261 526.985C249.92 526.714 237.966 526.28 227 524.7C222.223 524.011 217.865 522.222 213 522C216.569 533.116 221.87 544.642 228.874 553.999C234.167 561.07 240.643 568.128 247.804 573.367C266.485 587.031 292.948 589.697 315 586.08C350.135 580.317 381.848 564.25 411 544.116C421.025 537.192 430.284 529.322 440 522C433.847 530.833 425.602 538.423 418 545.999C390.121 573.786 354.628 596.245 316 605.157C299.158 609.042 283.056 608.732 266 608C291.542 637.489 324.182 661.498 359 678.914C366.289 682.559 373.572 686.114 381 689.463C385.055 691.291 389.494 693.883 394 694.298C402.37 695.068 413.72 687.549 421 683.92C443.263 672.82 464.546 660.748 484.17 645.335C501.625 631.625 518.035 616.277 531.99 598.961C574.163 546.628 597.714 480.426 604.826 414C607.644 387.684 608 361.479 608 335C604.947 341.202 604.258 348.5 601.795 355C597.386 366.636 590.452 377.999 581.272 386.482C558.757 407.287 529.196 406.363 501 402.3C471.414 398.037 441.976 392.497 413 385C417.004 378.662 420.057 371.699 423.414 365C426.159 359.52 429.64 353.997 431 348L359 348C362.379 357.429 368.541 365.608 372 375C327.98 364.573 284.448 351.036 241 338.336C227.329 334.339 213.647 330.341 200 326.231C194.036 324.434 188.23 321.624 182 321z"/>
</svg>
