<svg width="112" height="34" viewBox="0 0 112 34" fill="none" xmlns="http://www.w3.org/2000/svg">
<path d="M39.9447 13.8259C39.9447 10.6924 39.0513 9.08374 37.2643 8.99565C36.5533 8.9621 35.859 9.07535 35.1837 9.33753C34.6447 9.53049 34.2818 9.72135 34.091 9.91431V17.3936C35.234 18.1109 36.2492 18.4443 37.1342 18.3919C39.0072 18.2682 39.9447 16.7476 39.9447 13.8259ZM42.1491 13.956C42.1491 15.5479 41.7758 16.8692 41.0249 17.92C40.188 19.1092 39.0282 19.7216 37.5453 19.7552C36.4274 19.7909 35.276 19.4406 34.091 18.7065V25.5041L32.174 24.8204V9.73183C32.4886 9.34592 32.8934 9.01453 33.3841 8.73348C34.5251 8.06861 35.9115 7.72674 37.5432 7.70996L37.5705 7.73723C39.0617 7.71835 40.2111 8.33079 41.0186 9.57243C41.7716 10.7113 42.1491 12.1711 42.1491 13.956Z" fill="#646464"/>
<path d="M53.865 18.4171C53.865 20.5522 53.6511 22.0309 53.2232 22.853C52.7932 23.6752 51.9753 24.3317 50.7672 24.8204C49.7877 25.2063 48.7285 25.416 47.5917 25.4517L47.275 24.2436C48.4307 24.0863 49.2445 23.929 49.7164 23.7717C50.6455 23.4571 51.2831 22.9747 51.6334 22.3287C51.9144 21.8022 52.0529 20.7976 52.0529 19.3106V18.8114C50.742 19.407 49.3682 19.7028 47.9315 19.7028C46.9877 19.7028 46.155 19.407 45.4377 18.8114C44.6323 18.1633 44.2296 17.3411 44.2296 16.3449V8.36644L46.1466 7.70996V15.7408C46.1466 16.5986 46.4235 17.2593 46.9772 17.7228C47.5309 18.1864 48.2482 18.4087 49.127 18.3919C50.0058 18.373 50.9475 18.0333 51.948 17.3684V7.9994H53.865V18.4171Z" fill="#646464"/>
<path d="M61.3485 19.6505C61.1199 19.6694 60.9101 19.6778 60.7172 19.6778C59.6328 19.6778 58.7876 19.4198 58.1835 18.9018C57.5816 18.3837 57.2796 17.6685 57.2796 16.7561V9.20557H55.9666V7.99958H57.2796V4.79688L59.1945 4.11523V7.99958H61.3485V9.20557H59.1945V16.7037C59.1945 17.4231 59.3874 17.9328 59.7734 18.2306C60.1047 18.476 60.6312 18.6165 61.3485 18.6522V19.6505Z" fill="#646464"/>
<path d="M72.9554 19.4931H71.0384V12.0936C71.0384 11.3406 70.8622 10.6925 70.5119 10.1514C70.1071 9.53898 69.545 9.23277 68.8235 9.23277C67.9447 9.23277 66.8457 9.69629 65.5264 10.6233V19.4931H63.6094V1.80595L65.5264 1.2019V9.25794C66.7513 8.36655 68.0894 7.91981 69.5429 7.91981C70.5581 7.91981 71.3802 8.26168 72.0094 8.94333C72.6408 9.62498 72.9554 10.4744 72.9554 11.4895V19.4931Z" fill="#646464"/>
<path d="M83.1444 13.5239C83.1444 12.32 82.9158 11.3258 82.4607 10.5393C81.9196 9.58082 81.0785 9.07535 79.9417 9.02292C77.8402 9.14457 76.7915 10.6505 76.7915 13.5365C76.7915 14.8599 77.0096 15.9652 77.45 16.8524C78.0121 17.9829 78.8553 18.5408 79.9795 18.5219C82.0894 18.5052 83.1444 16.8399 83.1444 13.5239ZM85.2439 13.5365C85.2439 15.25 84.8056 16.6763 83.9309 17.8151C82.9683 19.0903 81.6385 19.73 79.9417 19.73C78.2596 19.73 76.9488 19.0903 76.0029 17.8151C75.145 16.6763 74.7172 15.25 74.7172 13.5365C74.7172 11.9257 75.1807 10.5708 76.1077 9.46756C77.0872 8.29723 78.375 7.70996 79.9669 7.70996C81.5588 7.70996 82.855 8.29723 83.8533 9.46756C84.7804 10.5708 85.2439 11.9257 85.2439 13.5365Z" fill="#646464"/>
<path d="M96.2342 19.493H94.3172V11.674C94.3172 10.8162 94.0592 10.1471 93.5432 9.66472C93.0273 9.18442 92.3393 8.95161 91.4815 8.97049C90.5712 8.98727 89.705 9.28509 88.8829 9.86187V19.493H86.9659V9.62487C88.0691 8.82157 89.0842 8.29723 90.0112 8.05183C90.8859 7.82322 91.6577 7.70996 92.3226 7.70996C92.7777 7.70996 93.2055 7.75401 93.6082 7.8421C94.3612 8.01618 94.9736 8.33917 95.4455 8.81318C95.972 9.33753 96.2342 9.96674 96.2342 10.7029V19.493Z" fill="#646464"/>
<path d="M13.2402 1.87666C12.2539 1.88125 11.312 1.96536 10.4832 2.11202C8.04171 2.54334 7.59843 3.44615 7.59843 5.11109V7.30996H13.3679V8.04291H7.59843H5.43318C3.7564 8.04291 2.28817 9.05075 1.82892 10.968C1.29919 13.1656 1.27569 14.537 1.82892 16.8317C2.23904 18.5397 3.21845 19.7568 4.89523 19.7568H6.87892V17.1208C6.87892 15.2165 8.52659 13.5367 10.4832 13.5367H16.246C17.8501 13.5367 19.1307 12.2159 19.1307 10.6049V5.11109C19.1307 3.54752 17.8117 2.37297 16.246 2.11202C15.2549 1.94703 14.2265 1.87208 13.2402 1.87666ZM10.1201 3.64517C10.716 3.64517 11.2027 4.1398 11.2027 4.74797C11.2027 5.35399 10.716 5.84404 10.1201 5.84404C9.52198 5.84404 9.03745 5.35399 9.03745 4.74797C9.03745 4.1398 9.52198 3.64517 10.1201 3.64517Z" fill="url(#paint0_linear_9152_22013)"/>
<path d="M19.8502 8.04297V10.605C19.8502 12.5912 18.1663 14.263 16.246 14.263H10.4832C8.90465 14.263 7.59842 15.614 7.59842 17.1948V22.6887C7.59842 24.2522 8.95805 25.1719 10.4832 25.6205C12.3095 26.1575 14.0608 26.2545 16.246 25.6205C17.6985 25.1999 19.1307 24.3536 19.1307 22.6887V20.4898H13.3679V19.7568H19.1307H22.0155C23.6923 19.7568 24.3171 18.5872 24.9002 16.8317C25.5026 15.0245 25.477 13.2865 24.9002 10.9681C24.4858 9.29883 23.6944 8.04297 22.0155 8.04297H19.8502ZM16.6091 21.9557C17.2072 21.9557 17.6917 22.4458 17.6917 23.0518C17.6917 23.6599 17.2072 24.1546 16.6091 24.1546C16.0131 24.1546 15.5265 23.6599 15.5265 23.0518C15.5265 22.4458 16.0131 21.9557 16.6091 21.9557Z" fill="url(#paint1_linear_9152_22013)"/>
<path d="M99.9672 6.29036H100.303V4.18241H101.1V3.93115H99.171V4.18241H99.9672V6.29036ZM101.398 6.29036H101.685V4.36514L102.308 6.29012H102.628L103.277 4.37167V6.29036H103.59V3.93115H103.176L102.466 5.95231L101.861 3.93115H101.398V6.29036Z" fill="#646464"/>
<path opacity="0.44382" d="M21.165 29.3552C21.165 29.5521 20.9651 29.747 20.5765 29.9289C20.1879 30.1108 19.6184 30.2761 18.9005 30.4153C18.1825 30.5545 17.3302 30.6649 16.3922 30.7403C15.4541 30.8156 14.4487 30.8544 13.4334 30.8544C12.4181 30.8544 11.4127 30.8156 10.4746 30.7403C9.5366 30.6649 8.68427 30.5545 7.96632 30.4153C7.24838 30.2761 6.67887 30.1108 6.29032 29.9289C5.90177 29.747 5.70178 29.5521 5.70178 29.3552C5.70178 29.1583 5.90177 28.9633 6.29032 28.7815C6.67887 28.5996 7.24838 28.4343 7.96632 28.2951C8.68427 28.1559 9.5366 28.0454 10.4746 27.9701C11.4127 27.8947 12.4181 27.856 13.4334 27.856C14.4487 27.856 15.4541 27.8947 16.3922 27.9701C17.3302 28.0454 18.1825 28.1559 18.9005 28.2951C19.6184 28.4343 20.1879 28.5996 20.5765 28.7815C20.9651 28.9633 21.165 29.1583 21.165 29.3552Z" fill="url(#paint2_radial_9152_22013)"/>
<defs>
<linearGradient id="paint0_linear_9152_22013" x1="1.42276" y1="1.87646" x2="14.7266" y2="13.2132" gradientUnits="userSpaceOnUse">
<stop stop-color="#5A9FD4"/>
<stop offset="1" stop-color="#306998"/>
</linearGradient>
<linearGradient id="paint1_linear_9152_22013" x1="16.4704" y1="22.8669" x2="11.6975" y2="16.1786" gradientUnits="userSpaceOnUse">
<stop stop-color="#FFD43B"/>
<stop offset="1" stop-color="#FFE873"/>
</linearGradient>
<radialGradient id="paint2_radial_9152_22013" cx="0" cy="0" r="1" gradientUnits="userSpaceOnUse" gradientTransform="translate(13.4334 29.3552) rotate(-90) scale(1.49923 6.58974)">
<stop stop-color="#B8B8B8" stop-opacity="0.498039"/>
<stop offset="1" stop-color="#7F7F7F" stop-opacity="0"/>
</radialGradient>
</defs>
</svg>
