<?xml version="1.0" encoding="UTF-8"?> <!-- Generator: Adobe Illustrator 24.1.3, SVG Export Plug-In . SVG Version: 6.00 Build 0) --> <svg xmlns="http://www.w3.org/2000/svg" xmlns:xlink="http://www.w3.org/1999/xlink" version="1.1" id="Layer_1" x="0px" y="0px" viewBox="0 0 120 135" style="enable-background:new 0 0 120 135;" xml:space="preserve"> <style type="text/css"> .st0{fill:#5B7BB4;} .st1{display:none;} .st2{fill:#FFFFFF;} </style> <path class="st0" d="M52,4.6L9.6,29.2c-4.9,2.9-8,8.1-8,13.8v49c0,5.7,3,11,8,13.8L52,130.4c4.9,2.9,11,2.9,16,0l42.5-24.5 c4.9-2.9,8-8.1,8-13.8V43c0-5.7-3-11-8-13.8L68,4.6C63,1.8,57,1.8,52,4.6z"></path> <g id="Guides" class="st1"> </g> <g> <g> <g> <polygon class="st2" points="60,74 81.8,61.2 81.8,59.2 38.2,59.2 38.2,61.2 "></polygon> </g> <g> <polygon class="st2" points="60,77 38.2,64.1 38.2,84.8 81.8,84.8 81.8,64.1 "></polygon> </g> </g> <g> <polygon class="st2" points="88.9,91.7 31.1,91.7 31.1,46.9 24.7,46.9 24.7,43.4 34.6,43.4 34.6,88.2 85.4,88.2 85.4,43.4 95.4,43.4 95.4,46.9 88.9,46.9 "></polygon> </g> </g> </svg> 