<?xml version="1.0" encoding="utf-8"?>
<!-- Generator: Adobe Illustrator 26.0.1, SVG Export Plug-In . SVG Version: 6.00 Build 0)  -->
<svg version="1.1" id="Layer_1" xmlns="http://www.w3.org/2000/svg" xmlns:xlink="http://www.w3.org/1999/xlink" x="0px" y="0px"
	 viewBox="0 0 160.5 222" style="enable-background:new 0 0 160.5 222;" xml:space="preserve">
<style type="text/css">
	.st0{fill:#E14226;}
</style>
<path class="st0" d="M114.3,126.4c-2.6-4.8-4.9-9.7-7-14.7c7.8-3.4,14.7-8.3,20.5-14.5c9-8.9,13.6-21.5,13.6-37.7
	c0-18.8-6.1-33.4-18.4-43.9C110.6,5.2,94.8-0.4,78.7,0H0v179.7h38.3v-64.5h14.6l8.9-0.2c3.3,8.1,10.7,25.8,15,35.2L114.3,126.4z
	 M38.3,35.9h35.3c17.7,0,26.5,7.2,26.6,21.5c0,15.4-9.9,23.1-29.6,23.1H38.3V35.9z"/>
<path class="st0" d="M153.9,166.8l-10-7.1l-41.5,27l14.5,5.7l25.3-0.1l18.4-13.1L153.9,166.8z"/>
<path class="st0" d="M120.6,136.8l-38.5,24.3l10.8,17l41-25.9L120.6,136.8z"/>
</svg>
