<?xml version="1.0" encoding="utf-8"?>
<!-- Generator: Adobe Illustrator 26.0.1, SVG Export Plug-In . SVG Version: 6.00 Build 0)  -->
<svg version="1.1" id="Layer_1" xmlns="http://www.w3.org/2000/svg" xmlns:xlink="http://www.w3.org/1999/xlink" x="0px" y="0px"
	 viewBox="0 0 1120.2 226.3" style="enable-background:new 0 0 1120.2 226.3;" xml:space="preserve">
<style type="text/css">
	.st0{fill:#FFFFFF;}
</style>
<path class="st0" d="M217.9,41.4c-8.7-0.2-17.4,1.5-25.3,5c-8,3.5-15.1,8.7-20.9,15.2c-12.2,13.4-18.3,31.1-18.3,52.7
	c0,21.6,6.4,38.2,19,50.8c12.6,12.6,29,19.2,48.8,19.2c12.1,0.3,24-2.4,34.8-7.8c9.8-5.2,16.6-10.6,20.2-16l0.1-0.2l-15.7-29.4v-0.2
	h-2.3v0.2c-3.8,6-9,11.1-15.2,14.6c-6.6,4.2-14.2,6.4-22,6.4c-8,0.2-15.8-2.8-21.6-8.3c-2.8-2.6-5.1-5.8-6.6-9.3
	c-1.5-3.5-2.3-7.3-2.3-11.2h92.2l0.3-10.1c0-21.1-6.3-38.5-18.6-51.7c-5.9-6.5-13.1-11.6-21.1-15.1
	C235.3,42.9,226.7,41.2,217.9,41.4z M246.7,98.1h-55.6c1.5-6.2,4.5-11.9,8.8-16.6c2.4-2.6,5.3-4.6,8.6-6c3.3-1.3,6.8-2,10.3-1.8
	c3.6-0.1,7.2,0.5,10.6,1.9c3.4,1.4,6.4,3.5,8.8,6.1C242.8,86.2,245.7,91.9,246.7,98.1z"/>
<path class="st0" d="M393.5,58.3c-3.9-5.4-9.1-9.6-15.2-12.3c-6.5-3.1-13.5-4.7-20.7-4.7c-8.6-0.2-17.1,1.5-25,5.1
	c-7.8,3.6-14.7,8.9-20.2,15.5c-11.3,13.6-17.1,31.1-17.1,51.6c0,20.5,5.5,37.7,16.4,50.8c10.9,13.1,26,19.8,45.1,19.8
	c8.6,0.2,17.1-1.7,24.7-5.6c6.6-3.5,12.2-8.7,16.1-15.2h0.3l3.3,17.7v0.3h27.1V0h-34.9V58.3z M385.7,85c6.2,8.2,9.4,18.2,9,28.5
	c0.4,10-2.8,19.8-9.1,27.6c-2.9,3.5-6.6,6.3-10.8,8.1c-4.2,1.9-8.7,2.7-13.3,2.6c-4.5,0.2-8.9-0.7-13-2.6c-4.1-1.9-7.6-4.8-10.3-8.4
	c-5.7-8-8.5-17.6-8.2-27.4c-0.1-9.8,2.9-19.5,8.5-27.6c2.5-3.9,5.9-7,9.9-9.1c4-2.1,8.6-3.2,13.1-3.1c4.6-0.1,9.2,0.8,13.4,2.8
	C379.2,78.4,382.8,81.4,385.7,85z"/>
<path class="st0" d="M520.3,41.4c-9-0.3-18,1.8-26,6.1c-6.3,3.4-11.5,8.6-15.1,14.8H479l-2.2-18h-28.4v182.1h34.7v-60.1h0.4
	c3.9,5.5,9.1,10,15.1,12.9c6.6,3.4,13.9,5.2,21.3,5.1c8.1,0.3,16.2-1.3,23.5-4.8c7.4-3.4,13.8-8.6,18.8-15
	c10.4-13.1,15.6-30.2,15.6-50.8c0-20.6-5.4-38-16-51.6c-4.8-6.5-11.1-11.8-18.3-15.4C536.4,43,528.4,41.2,520.3,41.4z M543.3,113.5
	c0.4,9.9-2.6,19.6-8.5,27.5c-2.5,3.4-5.8,6.2-9.6,8.1s-8,2.8-12.2,2.7c-4.3,0.1-8.6-0.7-12.5-2.5c-3.9-1.8-7.4-4.4-10.1-7.8
	c-5.6-6.8-8.5-16.3-8.5-28.2c0-12,2.8-22,8.5-29.1c2.6-3.5,6.1-6.2,10-8.1c3.9-1.9,8.2-2.8,12.6-2.6c4.4-0.1,8.7,0.9,12.5,2.9
	c3.9,2,7.2,5,9.6,8.6C540.7,93.5,543.6,103.4,543.3,113.5z"/>
<path class="st0" d="M687.2,55.2C676.8,46,663.3,41.4,647,41.4c-11.3-0.1-22.4,2.4-32.5,7.4c-9.7,4.9-18,12.1-24.2,21v0.2l16.9,28.2
	v0.2h2.2v-0.2c3.7-7.4,9.2-13.9,16-18.7c6.1-4.4,13.5-6.8,21-6.9c5.6-0.4,11.1,1,15.9,3.8c1.6,1.1,3,2.5,3.9,4.3
	c0.9,1.7,1.4,3.7,1.4,5.6c0,3.6-2.1,6.3-6.6,8.3c-9.8,3.5-19.9,6.2-30.2,8.1c-15.2,3.2-26.2,8.5-32.8,15.8
	c-6.7,7.6-10.3,17.4-10,27.5c0,11.9,3.6,21.3,10.9,28.1c7.2,6.8,17.9,10.2,32,10.2c18.7,0,32.1-7,40-20.9h0.3l3.5,18h27.9V94.3
	C702.7,77.5,697.5,64.4,687.2,55.2z M659,146.6c-6.4,4.4-14,6.7-21.8,6.5c-9.5,0-14.1-3.4-14.1-10.3c0-1.6,0.3-3.2,1-4.7
	c0.7-1.5,1.7-2.8,2.9-3.8c4.4-3,9.4-5,14.6-5.9c15.6-3.5,24.2-7.1,26.4-11v14.1C668,137.2,665,142.3,659,146.6z"/>
<path class="st0" d="M792.8,41.3c-8.1-0.1-16.1,1.8-23.3,5.5c-6.9,3.5-12.8,8.9-16.9,15.4h-0.2l-2.2-18h-28.3v137h34.8V112
	c-0.4-9.9,2.4-19.6,8.1-27.7c2.6-3.5,6-6.3,10-8.1c3.9-1.9,8.3-2.7,12.6-2.6c15.1,0,22.7,8.9,22.7,26.4v81.2h34.7V89.2
	c0.2-6.3-0.9-12.6-3.2-18.5c-2.3-5.9-5.8-11.3-10.3-15.8C822.6,45.9,809.5,41.3,792.8,41.3z"/>
<path class="st0" d="M955.9,58.3c-3.9-5.4-9.1-9.6-15.2-12.3c-6.5-3.1-13.5-4.7-20.7-4.7c-8.6-0.3-17.1,1.5-25,5
	c-7.8,3.6-14.7,8.9-20.2,15.5c-11.3,13.6-17.1,31.1-17.1,51.6c0,20.5,5.6,37.7,16.4,50.8c10.7,13.1,26,19.8,45.1,19.8
	c8.6,0.2,17.1-1.7,24.7-5.6c6.6-3.5,12.2-8.8,16.1-15.2h0.2l3.4,17.7v0.3h27.1V0h-34.9V58.3z M948.1,85c6.2,8.2,9.4,18.2,9.1,28.5
	c0.4,10-2.9,19.8-9.2,27.6c-2.9,3.5-6.6,6.3-10.8,8.1c-4.2,1.9-8.7,2.7-13.3,2.6c-4.5,0.2-8.9-0.7-13-2.6c-4.1-1.9-7.6-4.8-10.3-8.4
	c-5.7-8-8.6-17.6-8.2-27.4c-0.1-9.8,2.9-19.5,8.5-27.6c2.5-3.9,5.9-7,9.9-9.2s8.6-3.2,13.1-3.1c4.6-0.1,9.2,0.8,13.4,2.8
	C941.6,78.4,945.2,81.4,948.1,85z"/>
<path class="st0" d="M1104.8,55.2c-10.4-9.2-23.9-13.8-40.2-13.8c-11.2-0.1-22.3,2.4-32.4,7.4c-9.7,4.8-18,12.1-24.2,21l-0.1,0.2
	l16.9,28.2v0.2h2.2v-0.2c3.7-7.4,9.2-13.9,15.9-18.7c6.1-4.4,13.5-6.8,21-6.9c5.6-0.4,11.1,1,15.9,3.8c1.6,1.1,3,2.6,3.9,4.3
	s1.4,3.7,1.4,5.6c0,3.6-2.2,6.3-6.6,8.3c-9.8,3.5-19.9,6.2-30.2,8.1c-15.2,3.2-26.3,8.5-32.9,15.8c-6.7,7.6-10.3,17.4-10,27.5
	c0,11.9,3.7,21.3,10.9,28.1c7.2,6.8,18,10.2,32,10.2c18.7,0,32.2-7,40-20.9h0.2l3.5,18h27.9V94.3
	C1120.5,77.5,1115.2,64.4,1104.8,55.2z M1076.6,146.6c-6.4,4.4-14,6.7-21.8,6.5c-9.5,0-14.1-3.4-14.1-10.3c0-1.6,0.3-3.2,1-4.7
	c0.7-1.5,1.7-2.8,3-3.8c4.4-3,9.4-5,14.6-5.9c15.6-3.5,24.2-7.1,26.4-11v14.1C1085.7,137.2,1082.7,142.3,1076.6,146.6z"/>
<path class="st0" d="M115.3,127.3c-2.6-4.8-5-9.7-7.1-14.7c7.8-3.4,14.9-8.4,20.7-14.6C138,89,142.6,76.3,142.6,60
	c0-18.9-6.2-33.6-18.6-44.1C111.6,5.4,95.7-0.2,79.4,0.2H0v180.8h38.7v-65h14.7l9-0.2c3.3,8.1,10.8,25.9,15.1,35.4L115.3,127.3z
	 M38.7,36.2h35.6c17.9,0,26.8,7.2,26.8,21.7c0,15.5-10,23.3-29.9,23.2H38.7V36.2z"/>
<path class="st0" d="M155.2,167.9l-10.1-7.2l-41.9,27.2l14.7,5.7l25.6-0.1l18.5-13.2L155.2,167.9z"/>
<path class="st0" d="M121.7,137.8l-38.9,24.5l10.9,17.1l41.3-26.1L121.7,137.8z"/>
</svg>
