<?xml version="1.0" encoding="utf-8"?>
<!-- Generator: Adobe Illustrator 26.0.1, SVG Export Plug-In . SVG Version: 6.00 Build 0)  -->
<svg version="1.1" id="Layer_1" xmlns="http://www.w3.org/2000/svg" xmlns:xlink="http://www.w3.org/1999/xlink" x="0px" y="0px"
	 viewBox="0 0 1110 222" style="enable-background:new 0 0 1110 222;" xml:space="preserve">
<style type="text/css">
	.st0{clip-path:url(#SVGID_00000168115810248325211600000015611194655920585097_);}
	.st1{fill:#010101;}
</style>
<g>
	<defs>
		<rect id="SVGID_1_" width="1110" height="222"/>
	</defs>
	<clipPath id="SVGID_00000003080350387276181850000010558369753881850242_">
		<use xlink:href="#SVGID_1_"  style="overflow:visible;"/>
	</clipPath>
	<g style="clip-path:url(#SVGID_00000003080350387276181850000010558369753881850242_);">
		<path class="st1" d="M216.9,40.7c-8.6-0.2-17.1,1.5-24.9,4.9c-7.9,3.4-14.9,8.5-20.5,14.9c-12,13.1-18,30.5-18,51.7
			c0,20.7,6.3,37.5,18.6,49.9c12.4,12.4,28.5,18.7,48,18.7c11.9,0.3,23.6-2.4,34.3-7.7c9.7-5.1,16.3-10.4,19.9-15.7v-0.2l-15.4-28.8
			v-0.2h-2.1v0.2c-3.7,5.9-8.9,10.8-15,14.3c-6.5,4.1-13.9,6.3-21.6,6.3c-7.9,0.2-15.5-2.8-21.3-8.1c-2.8-2.5-5-5.6-6.5-9.1
			c-1.5-3.5-2.3-7.2-2.2-11h90.7l0.2-9.9c0-20.7-6.2-37.7-18.3-50.7c-5.8-6.3-12.9-11.3-20.8-14.7C234.1,42.1,225.5,40.5,216.9,40.7
			z M245.3,96.1h-54.7c1.4-6.1,4.4-11.7,8.7-16.3c2.4-2.5,5.3-4.5,8.5-5.9c3.2-1.3,6.7-1.9,10.2-1.8c3.6-0.1,7.1,0.5,10.4,1.9
			c3.3,1.4,6.3,3.4,8.7,6C241.4,84.4,244.3,90,245.3,96.1z"/>
		<path class="st1" d="M390.5,57.3c-3.8-5.3-9-9.4-14.9-12.1c-6.4-3-13.3-4.6-20.4-4.6c-8.5-0.2-16.9,1.5-24.6,5
			c-7.7,3.5-14.5,8.7-19.9,15.2C299.7,74.2,294,91.3,294,111.4c0,20.1,5.4,37,16.1,49.9s25.6,19.4,44.4,19.4
			c8.4,0.2,16.8-1.7,24.3-5.5c6.5-3.4,12-8.6,15.8-14.9h0.2l3.3,17.4v0.3h26.7V0.1h-34.4V57.3z M382.9,83.5c6.1,8,9.2,17.9,8.9,28
			c0.4,9.8-2.8,19.5-9,27.1c-2.9,3.4-6.5,6.2-10.6,8c-4.1,1.8-8.6,2.7-13.1,2.6c-4.4,0.2-8.8-0.7-12.8-2.5c-4-1.9-7.5-4.7-10.1-8.2
			c-5.6-7.8-8.4-17.3-8.1-26.9c-0.1-9.7,2.8-19.1,8.3-27c2.4-3.8,5.8-6.9,9.8-9c4-2.1,8.4-3.2,12.9-3c4.6-0.2,9.1,0.8,13.2,2.7
			C376.4,77,380,79.8,382.9,83.5L382.9,83.5z"/>
		<path class="st1" d="M515.3,40.7c-8.9-0.3-17.7,1.8-25.5,6c-6.2,3.4-11.3,8.4-14.9,14.5h-0.2l-2.1-17.7h-27.9v178.6h34.2V163h0.4
			c3.8,5.4,8.9,9.8,14.9,12.6c6.5,3.3,13.7,5.1,21,5c8,0.3,15.9-1.3,23.2-4.7c7.2-3.4,13.6-8.4,18.5-14.7
			c10.2-12.9,15.4-29.7,15.4-49.9c0-20.2-5.3-37.2-15.8-50.6c-4.7-6.4-10.9-11.5-18.1-15C531.1,42.3,523.3,40.6,515.3,40.7z
			 M537.9,111.5c0.3,9.7-2.6,19.2-8.3,27c-2.5,3.4-5.7,6.1-9.5,7.9c-3.7,1.8-7.9,2.8-12.1,2.7c-4.2,0.1-8.4-0.7-12.3-2.4
			c-3.9-1.7-7.2-4.3-9.9-7.6c-5.6-6.7-8.3-16-8.3-27.7c0-11.7,2.8-21.6,8.2-28.6c2.6-3.4,6-6.1,9.8-7.9c3.9-1.8,8.1-2.7,12.4-2.6
			c4.3-0.1,8.5,0.9,12.3,2.9c3.8,2,7,4.9,9.4,8.5c5.6,8.1,8.5,17.9,8.2,27.7V111.5z"/>
		<path class="st1" d="M679.4,54.2c-10.2-9-23.5-13.6-39.6-13.6c-11-0.1-22,2.4-31.8,7.3c-9.5,4.8-17.7,11.8-23.8,20.6v0.2
			l16.7,27.7v0.2h2.2v-0.2c3.6-7.3,9-13.6,15.7-18.3c6-4.3,13.3-6.7,20.7-6.7c5.5-0.4,10.9,0.9,15.6,3.7c1.6,1.1,2.9,2.5,3.9,4.2
			s1.4,3.6,1.4,5.5c0,3.5-2.1,6.2-6.5,8.1c-9.7,3.4-19.6,6.1-29.7,8c-14.9,3.2-25.8,8.3-32.3,15.5c-6.6,7.4-10.1,17.1-9.8,27
			c0,11.7,3.6,20.9,10.7,27.7c7.1,6.8,17.7,10,31.5,10c18.4,0,31.6-6.9,39.3-20.5h0.2l3.4,17.7h27.5V92.5
			C694.8,76.1,689.6,63.2,679.4,54.2z M651.6,143.8c-6.3,4.3-13.8,6.6-21.5,6.4c-9.4,0-13.9-3.3-13.9-10.1c0-1.6,0.3-3.2,1-4.6
			c0.7-1.4,1.7-2.7,2.9-3.7c4.3-3,9.2-4.9,14.4-5.8c15.3-3.4,23.8-7,26-10.8V129c0.1,5.5-2.9,10.6-8.8,14.8H651.6z"/>
		<path class="st1" d="M783.7,40.7c-8-0.1-15.8,1.8-22.9,5.4c-6.8,3.5-12.5,8.7-16.7,15.1h-0.2l-2.1-17.7H714V178h34.2v-68
			c-0.4-9.7,2.4-19.2,7.9-27.1c2.6-3.4,6-6.2,9.9-8c3.9-1.8,8.2-2.7,12.5-2.5c14.9,0,22.4,8.7,22.4,25.9v79.6H835V87.5
			c0.2-6.2-0.9-12.4-3.2-18.2c-2.3-5.8-5.7-11.1-10.1-15.5C813,45,800.2,40.7,783.7,40.7z"/>
		<path class="st1" d="M947.6,57.3c-3.8-5.3-9-9.4-14.9-12.1c-6.4-3-13.4-4.6-20.5-4.5c-8.5-0.2-16.9,1.5-24.6,5
			c-7.7,3.5-14.5,8.7-19.9,15.2c-11.1,13.4-16.8,30.5-16.8,50.6c0,20.1,5.4,37,16.1,49.9c10.7,12.9,25.6,19.4,44.4,19.4
			c8.4,0.2,16.8-1.7,24.3-5.5c6.5-3.4,12-8.6,15.8-14.9h0.2l3.3,17.4v0.3h26.7V0.1h-34.2V57.3z M939.9,83.4c6.1,8,9.3,17.9,8.9,28
			c0.4,9.8-2.8,19.5-9,27.1c-2.9,3.4-6.5,6.2-10.6,8c-4.1,1.8-8.6,2.7-13,2.6c-4.4,0.2-8.8-0.7-12.8-2.5c-4-1.9-7.5-4.7-10.1-8.2
			c-5.6-7.8-8.4-17.3-8.1-26.9c-0.1-9.7,2.8-19.1,8.3-27c2.4-3.8,5.8-6.9,9.8-9c4-2.1,8.4-3.2,12.9-3c4.6-0.1,9.1,0.8,13.2,2.7
			C933.5,77,937.1,79.8,939.9,83.4z"/>
		<path class="st1" d="M1094.6,54.2c-10.2-9-23.5-13.6-39.6-13.6c-11-0.1-21.9,2.4-31.8,7.3c-9.5,4.8-17.7,11.8-23.8,20.6v0.2
			l16.7,27.7v0.2h2.1v-0.2c3.6-7.3,9-13.6,15.7-18.3c6-4.3,13.2-6.7,20.7-6.7c5.5-0.4,10.9,0.9,15.6,3.7c1.6,1.1,2.9,2.5,3.9,4.2
			s1.4,3.6,1.4,5.5c0,3.5-2.1,6.2-6.5,8.1c-9.7,3.4-19.6,6.1-29.7,8c-14.9,3.2-25.8,8.3-32.3,15.5c-6.6,7.4-10.2,17.1-9.8,27
			c0,11.7,3.6,20.9,10.7,27.7c7.1,6.8,17.7,10,31.5,10c18.4,0,31.6-6.9,39.3-20.5h0.2l3.4,17.7h27.5V92.5
			C1110,76.1,1104.8,63.2,1094.6,54.2z M1066.8,143.8c-6.3,4.3-13.8,6.6-21.5,6.4c-9.4,0-13.9-3.3-13.9-10.1c0-1.6,0.3-3.2,1-4.6
			c0.7-1.4,1.7-2.7,2.9-3.7c4.3-2.9,9.2-4.9,14.4-5.8c15.3-3.4,23.8-7,26-10.8V129c0.2,5.5-2.9,10.6-8.8,14.8H1066.8z"/>
		<path class="st1" d="M113.4,124.9c-2.6-4.7-4.9-9.5-7-14.5c7.7-3.3,14.6-8.2,20.4-14.3c9-8.8,13.5-21.2,13.5-37.2
			c0-18.6-6.1-33-18.3-43.3C109.8,5.2,94.2-0.2,78.1,0.1H0v177.3h38v-63.7h14.5l8.8-0.2c3.3,7.9,10.6,25.4,14.9,34.7L113.4,124.9z
			 M38,35.6h35c17.6,0,26.4,7.1,26.4,21.2c0,15.2-9.8,22.8-29.4,22.8H38V35.6z"/>
		<path class="st1" d="M152.8,164.7l-10-7l-41.2,26.6l14.4,5.6l25.2-0.1l18.2-13L152.8,164.7z"/>
		<path class="st1" d="M119.8,135.1l-38.2,24l10.7,16.8l40.7-25.6L119.8,135.1z"/>
	</g>
</g>
</svg>
