<?xml version="1.0" standalone="no"?>
<!DOCTYPE svg PUBLIC "-//W3C//DTD SVG 1.1//EN" "http://www.w3.org/Graphics/SVG/1.1/DTD/svg11.dtd">
<svg xmlns="http://www.w3.org/2000/svg">
<defs >
<font id="KumbhSans" horiz-adv-x="1158" ><font-face
    font-family="Kumbh Sans"
    units-per-em="2048"
    panose-1="0 0 0 0 0 0 0 0 0 0"
    ascent="2020"
    descent="-520"
    alphabetic="0" />
<glyph unicode=" " horiz-adv-x="500" />
<glyph unicode="!" horiz-adv-x="462" d="M267 401H195L162 1500H300L267 401ZM231 -20Q188 -20 159 9T129 81Q129 122 158 151T231 180Q274 180 303 151T333 81Q333 39 304 10T231 -20Z" />
<glyph unicode="&quot;" horiz-adv-x="784" d="M279 1085H182L165 1520H296L279 1085ZM602 1085H505L488 1520H619L602 1085Z" />
<glyph unicode="#" horiz-adv-x="1344" d="M1250 904H1009L943 533H1188L1169 417H923L849 0H713L786 417H444L371 0H234L308 417H75L94 533H329L394 904H157L176 1020H415L499 1500H636L551 1020H893L978 1500H1114L1029 1020H1269L1250 904ZM465 533H807L872
904H530L465 533Z" />
<glyph unicode="$" horiz-adv-x="1070" d="M85 216L161 340Q221 293 279 262T396 215T515 200Q604 200 671 230T775 313T813 437Q813 514 771 564T661 649T520 716Q454 745 390 776T274 848T191 948T160 1090Q160 1230 250 1322T491 1435V1620H600V1439Q678 1436
756 1415T907 1354L844 1224Q783 1261 714 1280T579 1300Q466 1300 394 1242T322 1092Q322 1022 362 975T469 894T609 827Q675 798 739 766T857 689T943 585T975 438Q975 337 928 258T797 129T600 65V-120H491V61Q382 66 278 105T85 216Z" />
<glyph unicode="%" horiz-adv-x="1677" d="M417 873Q268 873 177 962T85 1196Q85 1342 176 1431T417 1520Q567 1520 657 1431T748 1196Q748 1051 657 962T417 873ZM429 0H285L1252 1500H1396L429 0ZM417 974Q511 974 568 1035T626 1196Q626 1297 569 1358T417
1419Q323 1419 265 1358T207 1196Q207 1096 265 1035T417 974ZM1260 -20Q1111 -20 1020 69T929 303Q929 449 1020 538T1260 627Q1410 627 1501 538T1592 303Q1592 158 1501 69T1260 -20ZM1260 81Q1354 81 1412 142T1470 303Q1470 404 1413 465T1260 526Q1166 526
1109 465T1051 303Q1051 203 1108 142T1260 81Z" />
<glyph unicode="&amp;" horiz-adv-x="1506" d="M1431 101L1340 -30Q1270 17 1203 65T1074 160Q976 67 862 19T619 -30Q477 -30 365 26T189 180T125 404Q125 507 166 582T275 712T418 814Q347 921 310 1018T272 1199Q272 1295 317 1369T441 1487T620 1530Q720 1530
796 1489T915 1373T958 1203Q958 1098 910 1023T786 890T627 782Q705 685 813 582T1059 369Q1116 444 1164 540T1250 752L1390 697Q1348 572 1295 467T1179 278Q1238 235 1301 190T1431 101ZM549 889Q618 929 676 971T770 1065T805 1186Q805 1270 753 1325T621
1380Q542 1380 492 1324T442 1179Q442 1115 469 1042T549 889ZM500 703Q443 665 397 622T323 526T295 407Q295 324 338 259T456 157T626 120Q715 120 797 154T954 254Q814 369 700 482T500 703Z" />
<glyph unicode="&apos;" horiz-adv-x="441" d="M269 1085H172L155 1520H286L269 1085Z" />
<glyph unicode="(" horiz-adv-x="607" d="M532 -289H367Q225 -98 150 137T75 625Q75 878 150 1113T367 1540H532Q381 1343 301 1109T221 626Q221 379 301 144T532 -289Z" />
<glyph unicode=")" horiz-adv-x="608" d="M241 -289H75Q227 -91 307 144T387 626Q387 874 307 1108T75 1540H241Q383 1348 458 1113T533 625Q533 372 458 137T241 -289Z" />
<glyph unicode="*" horiz-adv-x="1039" d="M839 763L722 676L520 1013L317 676L199 763L450 1064L75 1157L120 1296L477 1146L448 1540H592L562 1146L920 1296L964 1157L587 1065L839 763Z" />
<glyph unicode="+" horiz-adv-x="1144" d="M989 430H645V83H499V430H155V562H499V909H645V562H989V430Z" />
<glyph unicode="," horiz-adv-x="470" d="M236 -240H115L195 180H345L236 -240Z" />
<glyph unicode="-" horiz-adv-x="1110" d="M955 439H155V568H955V439Z" />
<glyph unicode="." horiz-adv-x="463" d="M231 -20Q187 -20 160 7T132 79Q132 124 159 152T231 180Q275 180 303 152T332 79Q332 35 304 8T231 -20Z" />
<glyph unicode="/" horiz-adv-x="825" d="M173 -20H15L653 1520H810L173 -20Z" />
<glyph unicode="0" horiz-adv-x="1186" d="M593 -30Q435 -30 321 61T146 327T85 751Q85 999 146 1173T321 1438T593 1530Q752 1530 865 1439T1040 1173T1101 751Q1101 502 1041 328T866 62T593 -30ZM593 126Q748 126 834 291T921 751Q921 1046 835 1210T593 1374Q439
1374 352 1210T265 751Q265 456 352 291T593 126Z" />
<glyph unicode="1" horiz-adv-x="770" d="M585 0H409V1326L131 1225L75 1367L441 1500H585V0Z" />
<glyph unicode="2" horiz-adv-x="1239" d="M1094 0H193V111Q378 269 508 400T721 643T841 854T880 1046Q880 1143 843 1217T740 1333T587 1375Q488 1375 399 1319T252 1163L155 1272Q232 1394 354 1462T616 1530Q746 1530 846 1473T1003 1314T1060 1081Q1060 974
1020 861T901 630T706 393T437 155H1094V0Z" />
<glyph unicode="3" horiz-adv-x="1119" d="M85 140L159 270Q242 198 330 162T510 125Q605 125 677 162T790 266T831 420Q831 560 723 638T423 717H371V845H423Q527 845 608 882T737 983T784 1130Q784 1201 749 1256T651 1343T509 1375Q431 1375 354 1343T204 1248L120
1370Q203 1447 307 1488T523 1530Q647 1530 743 1482T896 1351T952 1160Q952 1033 874 933T671 787Q830 751 922 650T1014 400Q1014 276 950 179T775 26T521 -30Q399 -30 288 13T85 140Z" />
<glyph unicode="4" horiz-adv-x="1264" d="M1006 0H830V358H75V497L831 1500H1006V513H1189V358H1006V0ZM275 513H830V1250L275 513Z" />
<glyph unicode="5" horiz-adv-x="1124" d="M85 162L182 301Q230 219 317 173T510 126Q614 126 693 169T816 290T860 470Q860 572 816 649T693 770T511 813Q442 813 382 793T272 733L182 790L248 1500H972V1344H410L368 917Q453 946 550 946Q694 946 804 885T976
715T1039 465Q1039 319 973 208T790 33T520 -30Q387 -30 274 20T85 162Z" />
<glyph unicode="6" horiz-adv-x="1145" d="M570 -30Q423 -30 314 38T145 230T85 522Q85 664 128 803T252 1070T447 1308T702 1500L784 1385Q657 1308 553 1205T374 983T259 739Q321 813 411 855T610 897Q741 897 842 839T1002 680T1060 447Q1060 309 997 202T823
32T570 -30ZM577 125Q664 125 732 167T840 284T880 450Q880 541 842 610T736 718T580 758Q491 758 421 718T311 608T271 447Q271 356 311 283T421 168T577 125Z" />
<glyph unicode="7" horiz-adv-x="1067" d="M423 0H233L787 1344H75V1500H992V1378L423 0Z" />
<glyph unicode="8" horiz-adv-x="1183" d="M591 -30Q445 -30 336 23T166 172T105 397Q105 541 181 644T391 794Q282 838 220 929T158 1145Q158 1262 211 1348T362 1482T591 1530Q722 1530 819 1483T970 1349T1024 1145Q1024 1020 962 929T791 794Q924 749 1001
645T1078 397Q1078 269 1018 173T848 23T591 -30ZM591 857Q707 857 779 928T851 1115Q851 1231 779 1302T591 1374Q475 1374 403 1303T331 1115Q331 1000 403 929T591 857ZM591 126Q684 126 754 163T863 269T902 426Q902 516 863 584T754 689T591 727Q499 727 429
689T320 584T281 426Q281 336 320 269T429 164T591 126Z" />
<glyph unicode="9" horiz-adv-x="1145" d="M443 0L361 115Q488 193 592 296T772 517T887 761Q826 686 736 645T535 603Q404 603 303 661T143 820T85 1053Q85 1191 148 1299T323 1468T576 1530Q724 1530 832 1462T1000 1270T1060 978Q1060 836 1017 697T893 430T698
192T443 0ZM565 742Q655 742 724 782T834 893T874 1054Q874 1145 834 1217T725 1332T568 1375Q482 1375 413 1333T305 1217T265 1050Q265 960 303 891T409 782T565 742Z" />
<glyph unicode=":" horiz-adv-x="462" d="M231 780Q189 780 161 808T132 879Q132 921 160 950T231 980Q273 980 301 951T330 879Q330 837 302 809T231 780ZM231 -20Q189 -20 161 9T132 80Q132 121 160 150T231 180Q273 180 301 151T330 80Q330 38 302 9T231 -20Z" />
<glyph unicode=";" horiz-adv-x="471" d="M259 780Q216 780 189 808T161 879Q161 921 188 950T259 980Q301 980 330 951T359 879Q359 837 330 809T259 780ZM237 -240H115L195 180H346L237 -240Z" />
<glyph unicode="&lt;" horiz-adv-x="1166" d="M1011 0L75 465V561L1011 1020V877L234 513L1011 143V0Z" />
<glyph unicode="=" horiz-adv-x="1265" d="M1110 664H155V796H1110V664ZM1110 177H155V309H1110V177Z" />
<glyph unicode="&gt;" horiz-adv-x="1166" d="M155 0V143L931 513L155 877V1020L1091 561V465L155 0Z" />
<glyph unicode="?" horiz-adv-x="924" d="M191 1261L105 1395Q284 1530 482 1530Q594 1530 676 1488T803 1368T849 1186Q849 1120 829 1070T775 978T702 894Q653 841 605 778T525 624T493 401H348Q348 556 381 658T463 828T560 949Q609 1004 644 1056T679 1185Q679
1276 624 1328T470 1381Q397 1381 325 1350T191 1261ZM421 -20Q377 -20 350 7T322 79Q322 124 349 152T421 180Q465 180 492 152T520 79Q520 35 493 8T421 -20Z" />
<glyph unicode="@" horiz-adv-x="1938" d="M918 78Q789 78 691 134T538 290T482 521Q482 663 546 776T720 955T969 1021Q1083 1021 1171 976T1314 847L1323 957H1479Q1471 899 1464 832T1450 695T1438 561T1429 447T1426 367Q1426 308 1457 268T1532 228Q1580
228 1617 276T1676 407T1698 594Q1698 795 1614 945T1379 1179T1024 1263Q857 1263 715 1206T468 1047T304 805T245 502Q245 311 324 168T545 -55T876 -135Q1110 -135 1296 -19L1370 -153Q1117 -285 854 -285Q623 -285 448 -186T174 89T75 498Q75 695 146 861T345
1152T647 1344T1023 1413Q1209 1413 1363 1355T1629 1190T1802 937T1863 615Q1863 460 1818 339T1693 148T1512 78Q1428 78 1370 127T1290 265Q1227 175 1132 127T918 78ZM943 228Q1032 228 1105 265T1226 368T1287 517L1292 575Q1292 664 1255 730T1151 834T996
871Q898 871 820 826T697 702T652 524Q652 391 732 310T943 228Z" />
<glyph unicode="A" horiz-adv-x="1512" d="M230 0H45L661 1500H852L1467 0H1282L1119 405H393L230 0ZM455 561H1057L756 1310L455 561Z" />
<glyph unicode="B" horiz-adv-x="1303" d="M155 0V1500H687Q902 1500 1025 1401T1148 1129Q1148 1006 1087 915T924 782Q1061 748 1139 652T1218 415Q1218 291 1157 198T985 52T728 0H155ZM331 838H683Q815 838 894 908T974 1093Q974 1209 893 1276T672 1344H331V838ZM331
156H690Q794 156 872 191T994 290T1038 437Q1038 518 997 578T880 670T702 703H331V156Z" />
<glyph unicode="C" horiz-adv-x="1528" d="M1423 192Q1320 88 1177 29T865 -30Q696 -30 554 28T306 191T143 439T85 750Q85 919 143 1061T306 1309T553 1472T865 1530Q1033 1530 1176 1472T1422 1309L1299 1184Q1219 1273 1107 1323T862 1374Q733 1374 624 1328T435
1197T310 998T265 750Q265 615 309 502T434 304T624 173T862 126Q995 126 1107 176T1299 316L1423 192Z" />
<glyph unicode="D" horiz-adv-x="1558" d="M155 0V1500H587Q863 1500 1061 1410T1366 1152T1473 750Q1473 517 1367 349T1062 90T587 0H155ZM331 156H595Q816 156 972 226T1210 429T1293 750Q1293 938 1211 1071T972 1274T595 1344H331V156Z" />
<glyph unicode="E" horiz-adv-x="1229" d="M155 0V1500H1074V1344H331V840H1033V684H331V156H1084V0H155Z" />
<glyph unicode="F" horiz-adv-x="1204" d="M155 0V1500H1059V1344H331V840H1018V684H331V0H155Z" />
<glyph unicode="G" horiz-adv-x="1667" d="M1291 1207Q1208 1288 1096 1331T859 1374Q729 1374 620 1329T432 1200T309 1002T265 751Q265 615 308 501T429 302T614 172T849 126Q967 126 1066 165T1241 277T1363 450T1421 672H871V811H1577L1582 746Q1582 575 1529
433T1377 187T1145 27T850 -30Q685 -30 546 28T303 192T142 438T85 747Q85 915 143 1058T305 1307T550 1471T857 1530Q1014 1530 1155 1476T1407 1321L1291 1207Z" />
<glyph unicode="H" horiz-adv-x="1499" d="M331 0H155V1500H331V818H1168V1500H1344V0H1168V662H331V0Z" />
<glyph unicode="I" horiz-adv-x="486" d="M331 1500H155V0H331V1500Z" />
<glyph unicode="J" horiz-adv-x="497" d="M-187 -360L-195 -205Q-14 -205 76 -117T166 147V1500H342V155Q342 -24 287 -138T115 -306T-187 -360Z" />
<glyph unicode="K" horiz-adv-x="1377" d="M332 0H155V1500H331V596Q363 643 393 684T447 755L1039 1500H1249L702 813L1362 0H1133L589 671L332 347V0Z" />
<glyph unicode="L" horiz-adv-x="1150" d="M1075 0H155V1500H331V156H1075V0Z" />
<glyph unicode="M" horiz-adv-x="1821" d="M1666 0H1490V1253L989 252H830L331 1247V0H155V1500H382L910 437L1436 1500H1666V0Z" />
<glyph unicode="N" horiz-adv-x="1615" d="M1460 0H1274L331 1225V0H155V1500H341L1284 275V1500H1460V0Z" />
<glyph unicode="O" horiz-adv-x="1729" d="M865 -30Q696 -30 554 28T306 191T143 439T85 750Q85 919 143 1061T306 1309T553 1472T865 1530Q1034 1530 1176 1472T1423 1309T1586 1062T1644 750Q1644 582 1586 440T1423 192T1176 28T865 -30ZM865 126Q994 126 1103
173T1294 304T1419 502T1464 750Q1464 884 1420 998T1294 1196T1104 1327T865 1374Q736 1374 627 1328T436 1197T310 998T265 750Q265 616 310 502T436 304T626 173T865 126Z" />
<glyph unicode="P" horiz-adv-x="1289" d="M155 0V1500H617Q801 1500 932 1443T1134 1280T1204 1026Q1204 879 1134 772T933 608T617 550H331V0H155ZM331 706H602Q804 706 914 791T1024 1026Q1024 1176 914 1260T602 1344H331V706Z" />
<glyph unicode="Q" horiz-adv-x="1729" d="M1589 -226Q1443 -201 1332 -175T1122 -114T911 -29H865Q696 -29 554 29T306 192T143 439T85 750Q85 919 143 1061T306 1309T553 1472T865 1530Q1034 1530 1176 1472T1423 1309T1586 1062T1644 750Q1644 571 1579 422T1396
166T1121 9Q1214 -17 1294 -33T1455 -59T1625 -74L1589 -226ZM865 126Q994 126 1103 173T1294 304T1419 502T1464 750Q1464 884 1420 998T1294 1196T1104 1327T865 1374Q736 1374 627 1328T436 1197T310 998T265 750Q265 616 310 502T436 304T626 173T865 126Z"
/>
<glyph unicode="R" horiz-adv-x="1314" d="M1239 0H1043L685 610H331V0H155V1500H674Q835 1500 951 1446T1130 1293T1193 1055Q1193 894 1108 785T868 634L1239 0ZM331 766H663Q826 766 919 843T1013 1055Q1013 1190 920 1267T663 1344H331V766Z" />
<glyph unicode="S" horiz-adv-x="1196" d="M85 146L170 281Q235 228 300 193T432 141T570 124Q672 124 748 158T868 252T911 392Q911 478 863 534T737 631T573 707Q500 738 428 773T298 854T204 967T169 1126Q169 1245 229 1336T395 1478T641 1529Q735 1529 830
1505T1014 1433L942 1289Q872 1330 796 1352T645 1374Q557 1374 491 1345T387 1263T349 1140Q349 1062 394 1009T512 918T666 843Q743 809 818 772T955 684T1054 563T1091 394Q1091 267 1027 172T848 23T577 -30Q441 -30 318 14T85 146Z" />
<glyph unicode="T" horiz-adv-x="1210" d="M693 0H517V1344H35V1500H1175V1344H693V0Z" />
<glyph unicode="U" horiz-adv-x="1569" d="M1414 1500V671Q1414 453 1339 296T1122 54T784 -30Q588 -30 447 54T231 295T155 671V1500H331V685Q331 508 385 383T540 192T784 126Q927 126 1028 192T1184 383T1238 685V1500H1414Z" />
<glyph unicode="V" horiz-adv-x="1553" d="M873 0H680L65 1500H251L777 190L1302 1500H1488L873 0Z" />
<glyph unicode="W" horiz-adv-x="2144" d="M1603 0H1451L1073 1197L695 0H543L55 1500H239L618 300L997 1500H1149L1527 303L1904 1500H2089L1603 0Z" />
<glyph unicode="X" horiz-adv-x="1498" d="M1443 0H1223L745 649L265 0H55L638 779L100 1500H320L757 908L1191 1500H1402L862 778L1443 0Z" />
<glyph unicode="Y" horiz-adv-x="1391" d="M783 0H607V641L25 1500H239L695 788L1153 1500H1366L783 639V0Z" />
<glyph unicode="Z" horiz-adv-x="1291" d="M1206 0H85V135L964 1344H125V1500H1190V1355L319 156H1206V0Z" />
<glyph unicode="[" horiz-adv-x="632" d="M557 -289H155V1540H557V1408H301V-155H557V-289Z" />
<glyph unicode="\" horiz-adv-x="825" d="M810 -20H653L15 1520H173L810 -20Z" />
<glyph unicode="]" horiz-adv-x="632" d="M477 -289H75V-157H332V1408H75V1540H477V-289Z" />
<glyph unicode="^" horiz-adv-x="1056" d="M981 700H848L528 1359L208 700H75L479 1500H577L981 700Z" />
<glyph unicode="_" horiz-adv-x="1361" d="M1206 0H155V133H1206V0Z" />
<glyph unicode="`" horiz-adv-x="494" d="M399 1166H279L85 1500H241L399 1166Z" />
<glyph unicode="a" horiz-adv-x="1097" d="M962 0H821L810 132Q755 61 670 21T480 -20Q372 -20 287 22T154 139T105 307Q105 406 157 481T300 600T506 643Q581 643 659 625T798 574V616Q798 696 758 752T651 839T503 870Q433 870 360 845T220 766L166 907Q253
963 349 991T539 1020Q669 1020 763 968T910 819T962 590V0ZM509 130Q586 130 650 162T754 254T798 398V415Q743 458 675 481T535 505Q424 505 350 451T275 314Q275 262 305 220T389 154T509 130Z" />
<glyph unicode="b" horiz-adv-x="1284" d="M301 0H155V1500H319V865Q389 938 485 979T694 1020Q842 1020 958 952T1141 767T1209 500Q1209 352 1142 234T958 48T694 -20Q576 -20 478 24T309 146L301 0ZM680 128Q783 128 864 176T993 309T1041 499Q1041 606 994
690T865 824T680 873Q582 873 503 828T375 705T319 528V473Q326 374 374 296T501 173T680 128Z" />
<glyph unicode="c" horiz-adv-x="1061" d="M986 144Q913 65 813 23T598 -20Q449 -20 331 48T144 234T75 500Q75 649 143 766T330 952T598 1020Q712 1020 812 978T985 857L887 754Q834 810 761 840T605 870Q500 870 419 823T291 692T244 501Q244 393 290 309T418
178T605 130Q687 130 761 160T887 246L986 144Z" />
<glyph unicode="d" horiz-adv-x="1286" d="M1131 0H985L976 146Q907 69 808 25T592 -20Q444 -20 327 48T143 234T75 500Q75 649 142 766T327 952T592 1020Q705 1020 801 979T967 865V1500H1131V0ZM606 128Q706 128 788 174T918 301T967 484V518Q967 620 919 700T788
827T606 873Q502 873 420 824T291 691T243 501Q243 395 290 311T420 177T606 128Z" />
<glyph unicode="e" horiz-adv-x="1165" d="M1032 123Q846 -20 622 -20Q466 -20 342 50T147 240T75 513Q75 659 141 773T322 954T583 1020Q733 1020 847 948T1026 748T1090 452V420H253Q271 332 325 267T461 166T642 130Q814 130 956 243L1032 123ZM247 560H935Q924
653 878 722T758 831T592 870Q499 870 425 831T304 723T247 560Z" />
<glyph unicode="f" horiz-adv-x="824" d="M394 0H230V853H55V1000H230V1215Q230 1308 269 1379T379 1490T542 1530Q599 1530 656 1515T769 1467L706 1338Q672 1360 637 1371T567 1383Q490 1383 442 1328T394 1183V1000H703V853H394V0Z" />
<glyph unicode="g" horiz-adv-x="1257" d="M580 0Q436 0 322 67T141 249T75 510Q75 656 141 771T321 953T581 1020Q697 1020 794 977T959 856L967 1000H1112V26Q1112 -142 1046 -264T858 -453T568 -520Q330 -520 154 -362L226 -230Q363 -372 561 -372Q680 -372
766 -323T900 -183T948 30V153Q880 82 786 41T580 0ZM594 145Q692 145 772 189T900 311T948 487V533Q948 632 900 709T772 830T594 875Q493 875 413 827T287 697T240 510Q240 406 286 323T413 193T594 145Z" />
<glyph unicode="h" horiz-adv-x="1226" d="M155 0V1500H319V850Q432 1020 669 1020Q868 1020 979 902T1091 571V0H927V533Q927 694 848 783T626 873Q483 873 401 782T319 533V0H155Z" />
<glyph unicode="i" horiz-adv-x="483" d="M241 1316Q199 1316 171 1345T142 1417Q142 1458 170 1487T241 1516Q284 1516 313 1487T342 1417Q342 1375 313 1346T241 1316ZM323 0H159V1000H323V0Z" />
<glyph unicode="j" horiz-adv-x="497" d="M260 1316Q218 1316 190 1345T161 1416Q161 1458 189 1487T260 1516Q302 1516 331 1487T360 1416Q360 1374 331 1345T260 1316ZM-113 -507V-376Q-97 -379 -83 -380T-54 -381Q50 -381 114 -307T178 -108V1000H343V-114Q343
-308 254 -414T3 -520Q-24 -520 -53 -517T-113 -507Z" />
<glyph unicode="k" horiz-adv-x="1146" d="M319 0H155V1500H319V444L397 539L832 1000H1038L630 566L1101 0H888L516 446L319 236V0Z" />
<glyph unicode="l" horiz-adv-x="484" d="M329 0H155V1540H329V0Z" />
<glyph unicode="m" horiz-adv-x="1873" d="M1738 0H1574V533Q1574 694 1504 783T1305 873Q1176 873 1103 783T1029 533V0H865V533Q865 694 794 783T595 873Q466 873 393 783T319 533V0H155V1000H289L296 821Q346 919 432 969T637 1020Q763 1020 852 964T986 802Q1035
909 1125 964T1342 1020Q1529 1020 1633 902T1738 571V0Z" />
<glyph unicode="n" horiz-adv-x="1226" d="M1091 0H927V558Q927 700 846 785T631 870Q492 870 406 779T319 538V0H155V1000H298L304 838Q359 926 449 973T661 1020Q860 1020 975 900T1091 571V0Z" />
<glyph unicode="o" horiz-adv-x="1195" d="M599 -20Q450 -20 331 48T144 233T75 500Q75 648 143 765T331 951T599 1020Q748 1020 866 952T1052 766T1120 500Q1120 351 1052 234T866 48T599 -20ZM598 128Q699 128 779 177T905 310T952 501Q952 606 906 690T779
823T598 872Q497 872 417 823T290 690T243 501Q243 394 289 310T416 177T598 128Z" />
<glyph unicode="p" horiz-adv-x="1285" d="M319 -500H155V1000H301L309 854Q379 931 478 975T695 1020Q842 1020 958 952T1142 767T1210 500Q1210 352 1143 234T959 48T695 -20Q582 -20 486 21T319 135V-500ZM682 130Q787 130 868 177T994 309T1040 501Q1040 610
994 693T868 825T683 873Q584 873 505 829T376 709T319 534V466Q327 368 375 292T502 173T682 130Z" />
<glyph unicode="q" horiz-adv-x="1285" d="M1130 -500H966V135Q896 62 800 21T590 -20Q443 -20 327 48T143 234T75 500Q75 649 142 766T326 952T590 1020Q708 1020 807 976T976 854L984 1000H1130V-500ZM604 130Q704 130 783 172T910 291T966 465V534Q959 633
911 709T785 827T606 870Q500 870 419 823T292 692T245 500Q245 392 291 309T418 178T604 130Z" />
<glyph unicode="r" horiz-adv-x="796" d="M319 0H155V1000H299L306 802Q358 905 452 962T670 1020Q697 1020 725 1017T781 1008L761 860Q706 873 652 873Q554 873 479 825T361 693T319 500V0Z" />
<glyph unicode="s" horiz-adv-x="870" d="M85 87L128 241Q164 207 210 182T307 144T410 130Q503 130 560 171T617 278Q617 326 588 357T510 412T407 456Q340 482 274 515T165 602T121 744Q121 828 163 890T280 986T454 1020Q602 1020 745 946L696 798Q664 819
622 835T536 861T453 870Q380 870 335 837T290 747Q290 715 308 689T371 636T493 578Q562 550 629 515T740 424T785 279Q785 191 739 124T610 18T419 -20Q240 -20 85 87Z" />
<glyph unicode="t" horiz-adv-x="800" d="M735 24Q636 -20 542 -20Q452 -20 384 19T278 130T240 297V853H65V1000H248V1250H404V1000H703V853H404V327Q404 237 452 182T580 127Q644 127 708 165L735 24Z" />
<glyph unicode="u" horiz-adv-x="1226" d="M1071 0H927L921 162Q866 74 777 27T565 -20Q366 -20 251 100T135 430V1000H299V442Q299 300 379 215T594 130Q734 130 820 222T907 462V1000H1071V0Z" />
<glyph unicode="v" horiz-adv-x="1150" d="M1075 1000L654 0H495L75 1000H252L576 172L901 1000H1075Z" />
<glyph unicode="w" horiz-adv-x="1581" d="M1206 0H1016L790 764L564 0H374L55 1000H229L468 200L713 1000H867L1112 200L1352 1000H1526L1206 0Z" />
<glyph unicode="x" horiz-adv-x="1095" d="M222 0H15L443 517L48 1000H261L550 647L834 1000H1041L653 521L1080 0H866L547 391L222 0Z" />
<glyph unicode="y" horiz-adv-x="1177" d="M502 -500H323L533 8L55 1000H236L612 197L944 1000H1122L502 -500Z" />
<glyph unicode="z" horiz-adv-x="1043" d="M968 0H75V91L694 852H105V1000H943V921L315 148H968V0Z" />
<glyph unicode="{" horiz-adv-x="620" d="M545 -289Q394 -289 317 -226T239 -37V372Q239 458 192 520T75 588V663Q144 668 191 730T239 879V1288Q239 1413 316 1476T545 1540V1407Q461 1407 423 1371T385 1253V875Q385 790 344 724T232 625Q303 593 344 527T385
375V0Q385 -81 423 -118T545 -156V-289Z" />
<glyph unicode="|" horiz-adv-x="455" d="M300 -250H155V1540H300V-250Z" />
<glyph unicode="}" horiz-adv-x="620" d="M75 -289V-156Q159 -156 197 -118T235 0V375Q235 460 276 526T388 625Q318 657 277 724T235 875V1253Q235 1333 197 1370T75 1407V1540Q227 1540 304 1477T381 1288V879Q381 793 428 731T545 663V588Q476 583 429 521T381
372V-37Q381 -162 304 -225T75 -289Z" />
<glyph unicode="~" horiz-adv-x="1352" d="M1197 613Q1124 536 1059 501T925 465Q861 465 801 489T682 543Q622 573 561 598T435 623Q299 623 155 479V603Q302 747 439 747Q486 747 540 730T684 668Q743 639 803 614T927 589Q1060 589 1197 738V613Z" />
<glyph unicode="&#xa0;" horiz-adv-x="500" />
<glyph unicode="&#xa1;" horiz-adv-x="461" d="M230 820Q187 820 158 849T129 921Q129 962 158 991T230 1020Q273 1020 302 991T332 921Q332 879 303 850T230 820ZM299 -500H161L194 599H266L299 -500Z" />
<glyph unicode="&#xa2;" horiz-adv-x="1061" d="M986 284Q925 217 840 175T656 123V-60H545V122Q410 134 304 204T136 387T75 640Q75 780 136 893T303 1076T545 1158V1340H655V1157Q754 1148 839 1107T985 997L887 894Q836 950 764 981T610 1012Q505 1012 422
964T291 831T243 641Q243 535 291 450T421 316T609 267Q692 267 764 299T887 386L986 284Z" />
<glyph unicode="&#xa3;" horiz-adv-x="1209" d="M893 690H521Q531 649 536 611T541 533Q541 422 501 327T377 147H1064V0H138V99Q263 191 330 302T397 531Q397 568 390 607T368 690H125V810H322Q281 909 265 974T248 1100Q248 1222 302 1317T452 1466T670 1520Q793
1520 901 1463T1084 1302L976 1218Q922 1293 849 1333T692 1373Q609 1373 548 1335T452 1229T418 1067Q418 1018 431 965T482 810H893V690Z" />
<glyph unicode="&#xa4;" horiz-adv-x="1280" d="M1154 339L1084 268L922 431Q864 385 792 360T640 335Q560 335 488 360T357 431L196 268L125 339L288 500Q242 558 218 630T194 783Q194 863 218 935T288 1065L125 1226L196 1297L357 1134Q415 1181 487 1205T640
1229Q721 1229 792 1205T922 1134L1084 1298L1155 1227L991 1065Q1038 1007 1062 935T1086 783Q1086 702 1062 630T991 500L1154 339ZM640 449Q733 449 806 492T920 611T962 783Q962 879 920 954T805 1073T639 1116Q547 1116 474 1073T360 955T318 783Q318 687
360 612T474 493T640 449Z" />
<glyph unicode="&#xa5;" horiz-adv-x="1214" d="M692 0H523V321H166V401H523V574H166V653H516L35 1500H228L606 767L986 1500H1179L700 653H1048V573H692V401H1048V321H692V0Z" />
<glyph unicode="&#xa6;" horiz-adv-x="456" d="M301 820H155V1540H301V820ZM301 -250H155V470H301V-250Z" />
<glyph unicode="&#xa7;" horiz-adv-x="1034" d="M190 -19L246 108Q296 79 361 61T485 43Q574 43 628 85T683 196Q683 250 651 286T565 349T449 403Q381 432 313 468T200 562T155 712Q155 810 211 884T366 999Q317 1025 277 1058T214 1136T190 1244Q190 1329 235
1393T361 1494T549 1530Q703 1530 845 1459L788 1332Q739 1361 673 1379T550 1397Q461 1397 406 1355T351 1241Q351 1202 372 1171T443 1108T580 1040Q652 1010 720 973T834 878T879 728Q879 631 824 557T669 441Q718 415 758 382T821 304T845 196Q845 111 800
47T674 -54T485 -90Q332 -90 190 -19ZM601 474Q669 506 709 563T749 697Q749 758 719 804T620 889T434 966Q366 934 326 878T285 748Q285 688 316 641T417 553T601 474Z" />
<glyph unicode="&#xa8;" horiz-adv-x="897" d="M669 1248Q629 1248 604 1273T579 1338Q579 1378 604 1403T669 1428Q709 1428 733 1403T758 1338Q758 1298 734 1273T669 1248ZM229 1248Q189 1248 164 1273T139 1338Q139 1378 164 1403T229 1428Q269 1428 294 1403T319
1338Q319 1298 294 1273T229 1248Z" />
<glyph unicode="&#xa9;" horiz-adv-x="1349" d="M675 -104Q502 -104 366 -27T153 186T75 495Q75 668 152 803T366 1015T675 1093Q848 1093 983 1016T1196 803T1274 495Q1274 322 1197 187T984 -26T675 -104ZM675 6Q815 6 924 69T1096 243T1159 493Q1159 634 1096
744T924 919T675 983Q536 983 426 920T253 745T190 493Q190 353 252 243T425 69T675 6ZM936 263Q835 171 692 171Q598 171 524 213T408 328T365 495Q365 589 407 661T524 776T692 818Q833 818 936 726L864 653Q834 685 792 701T699 718Q599 718 537 657T475 494Q475
394 537 333T699 271Q750 271 793 288T866 337L936 263Z" />
<glyph unicode="&#xaa;" horiz-adv-x="838" d="M683 810H591L584 924Q549 865 489 833T353 800Q246 800 176 860T105 1011Q105 1075 141 1124T242 1202T390 1231Q443 1231 491 1219T581 1184V1202Q581 1303 528 1363T383 1423Q334 1423 284 1404T193 1352L145
1434Q256 1520 397 1520Q528 1520 605 1445T683 1241V810ZM374 886Q432 886 479 909T553 971T581 1060V1109Q504 1166 403 1166Q318 1166 263 1125T208 1019Q208 960 254 923T374 886Z" />
<glyph unicode="&#xab;" horiz-adv-x="1142" d="M559 111H398L75 497L398 882H559L229 496L559 111ZM987 111H826L503 497L826 882H987L657 496L987 111Z" />
<glyph unicode="&#xac;" horiz-adv-x="1099" d="M944 110H799V453H155V586H944V110Z" />
<glyph unicode="&#xad;" horiz-adv-x="1143" d="M988 430H155V562H988V430Z" />
<glyph unicode="&#xae;" horiz-adv-x="1349" d="M675 423Q502 423 366 500T153 713T75 1022Q75 1195 152 1330T366 1542T675 1620Q848 1620 983 1543T1196 1330T1274 1022Q1274 849 1197 714T984 501T675 423ZM675 534Q815 534 924 597T1096 770T1159 1020Q1159
1161 1096 1271T924 1446T675 1510Q536 1510 426 1446T253 1272T189 1020Q189 880 252 770T425 597T675 534ZM933 703H807L669 961H568V703H458V1345H673Q781 1345 843 1293T906 1152Q906 1089 874 1044T784 978L933 703ZM568 1061H657Q728 1061 762 1084T796 1154Q796
1201 762 1223T657 1245H568V1061Z" />
<glyph unicode="&#xaf;" horiz-adv-x="959" d="M804 1292H155V1392H804V1292Z" />
<glyph unicode="&#xb0;" horiz-adv-x="695" d="M347 975Q268 975 207 1010T110 1107T75 1248Q75 1327 110 1388T206 1484T347 1520Q426 1520 487 1485T584 1388T620 1248Q620 1169 585 1108T488 1011T347 975ZM347 1070Q421 1070 469 1120T518 1248Q518 1325 470
1375T347 1425Q272 1425 224 1375T176 1248Q176 1171 224 1121T347 1070Z" />
<glyph unicode="&#xb1;" horiz-adv-x="1144" d="M645 258H499V610H155V742H499V1084H645V742H989V610H645V258ZM989 0H156V129H989V0Z" />
<glyph unicode="&#xb2;" horiz-adv-x="768" d="M623 790H188V852Q301 949 372 1027T476 1171T510 1293Q510 1357 474 1396T378 1436Q329 1436 285 1409T212 1332L155 1388Q195 1450 258 1485T392 1520Q487 1520 547 1460T608 1304Q608 1239 576 1170T480 1027T320
875H623V790Z" />
<glyph unicode="&#xb3;" horiz-adv-x="739" d="M145 874L187 944Q266 874 353 874Q415 874 455 912T495 1007Q495 1068 447 1100T311 1133H280V1205H311Q381 1205 427 1240T473 1328Q473 1375 438 1405T348 1436Q271 1436 209 1374L161 1440Q241 1520 357 1520Q447
1520 506 1470T565 1342Q565 1285 532 1240T445 1173Q513 1155 553 1109T594 995Q594 906 528 848T360 790Q237 790 145 874Z" />
<glyph unicode="&#xb4;" horiz-adv-x="494" d="M214 1166H95L252 1500H409L214 1166Z" />
<glyph unicode="&#xb5;" horiz-adv-x="1310" d="M1267 -20Q1149 -20 1073 24T962 160Q910 74 825 27T626 -20Q421 -20 317 131V-500H160V1000H319V467Q319 310 399 219T616 128Q752 128 829 218T907 467V1000H1071V328Q1071 104 1275 104L1267 -20Z" />
<glyph unicode="&#xb6;" horiz-adv-x="1284" d="M1129 -150H1007V1380H789V-150H668V649Q503 649 384 701T200 850T135 1081Q135 1212 197 1306T375 1450T654 1500H1129V-150Z" />
<glyph unicode="&#xb7;" horiz-adv-x="462" d="M231 430Q187 430 159 458T131 530Q131 574 159 602T231 630Q275 630 303 602T331 530Q331 486 303 458T231 430Z" />
<glyph unicode="&#xb8;" horiz-adv-x="608" d="M125 -391L159 -307Q204 -326 251 -326Q307 -326 344 -300T381 -233Q381 -190 339 -162T235 -134Q230 -134 225 -134T214 -135L269 7H349L314 -77Q388 -84 433 -126T478 -236Q478 -314 417 -364T258 -415Q193 -415
125 -391Z" />
<glyph unicode="&#xb9;" horiz-adv-x="494" d="M339 780H238V1403L105 1355L75 1434L257 1500H339V780Z" />
<glyph unicode="&#xba;" horiz-adv-x="867" d="M434 800Q331 800 250 847T122 975T75 1160Q75 1264 121 1345T249 1473T434 1520Q538 1520 618 1474T745 1346T792 1160Q792 1056 746 975T619 847T434 800ZM435 893Q509 893 566 927T657 1022T690 1160Q690 1238
657 1298T567 1393T435 1428Q361 1428 303 1393T211 1298T177 1160Q177 1083 210 1023T302 928T435 893Z" />
<glyph unicode="&#xbb;" horiz-adv-x="1142" d="M316 111H155L485 496L155 882H316L639 497L316 111ZM744 111H583L913 496L583 882H744L1067 497L744 111Z" />
<glyph unicode="&#xbc;" horiz-adv-x="1623" d="M359 0H244L1264 1540H1372L359 0ZM389 780H288V1403L155 1355L125 1434L307 1500H389V780ZM1414 0H1317V169H964V245L1323 720H1414V255H1498V169H1414V0ZM1057 255H1317V599L1057 255Z" />
<glyph unicode="&#xbd;" horiz-adv-x="1673" d="M359 0H244L1264 1540H1372L359 0ZM389 780H288V1403L155 1355L125 1434L307 1500H389V780ZM1548 0H1112V53Q1229 154 1301 232T1405 374T1438 498Q1438 568 1400 611T1301 654Q1211 654 1150 557L1093 616Q1131
675 1190 707T1316 740Q1410 740 1474 679T1538 517Q1538 448 1505 376T1407 230T1253 86H1548V0Z" />
<glyph unicode="&#xbe;" horiz-adv-x="1641" d="M377 0H262L1282 1540H1390L377 0ZM125 872L165 944Q241 877 319 877Q381 877 422 913T463 1005Q463 1064 414 1099T282 1135H257V1207H271Q344 1207 392 1242T440 1329Q440 1374 405 1404T318 1435Q251 1435 186
1382L141 1446Q220 1520 328 1520Q417 1520 474 1472T532 1348Q532 1290 498 1244T404 1174Q478 1156 520 1108T562 994Q562 908 495 851T327 793Q212 793 125 872ZM1432 0H1335V169H982V245L1341 720H1432V255H1516V169H1432V0ZM1075 255H1335V599L1075 255Z"
/>
<glyph unicode="&#xbf;" horiz-adv-x="924" d="M533 1030Q577 1030 605 1003T633 931Q633 886 605 858T533 830Q489 830 461 858T433 931Q433 975 461 1002T533 1030ZM762 -250L849 -385Q678 -520 479 -520Q367 -520 283 -479T152 -362T105 -187Q105 -119 125
-68T179 25T252 110Q301 164 349 227T429 382T461 609H605Q605 454 572 352T492 182T398 63Q346 5 310 -48T274 -177Q274 -267 330 -319T483 -371Q557 -371 629 -340T762 -250Z" />
<glyph unicode="&#xc0;" horiz-adv-x="1512" d="M803 1666H683L489 2000H646L803 1666ZM230 0H45L661 1500H852L1467 0H1282L1119 405H393L230 0ZM455 561H1057L756 1310L455 561Z" />
<glyph unicode="&#xc1;" horiz-adv-x="1512" d="M828 1666H709L866 2000H1023L828 1666ZM230 0H45L661 1500H852L1467 0H1282L1119 405H393L230 0ZM455 561H1057L756 1310L455 561Z" />
<glyph unicode="&#xc2;" horiz-adv-x="1512" d="M1041 1666H918L756 1929L593 1666H471L683 2000H829L1041 1666ZM230 0H45L661 1500H852L1467 0H1282L1119 405H393L230 0ZM455 561H1057L756 1310L455 561Z" />
<glyph unicode="&#xc3;" horiz-adv-x="1512" d="M1090 1947Q1082 1849 1033 1796T900 1742Q850 1742 813 1762T731 1816Q708 1835 679 1851T612 1868Q513 1868 496 1752H422Q440 1957 610 1957Q669 1957 709 1935T782 1888Q811 1866 840 1850T906 1833Q999 1833
1016 1947H1090ZM230 0H45L661 1500H852L1467 0H1282L1119 405H393L230 0ZM455 561H1057L756 1310L455 561Z" />
<glyph unicode="&#xc4;" horiz-adv-x="1512" d="M230 0H45L661 1500H852L1467 0H1282L1119 405H393L230 0ZM455 561H1057L756 1310L455 561ZM977 1748Q937 1748 912 1773T887 1838Q887 1878 912 1903T977 1928Q1017 1928 1041 1903T1066 1838Q1066 1798 1042 1773T977
1748ZM537 1748Q497 1748 472 1773T447 1838Q447 1878 472 1903T537 1928Q577 1928 602 1903T627 1838Q627 1798 602 1773T537 1748Z" />
<glyph unicode="&#xc5;" horiz-adv-x="1513" d="M755 1595Q660 1595 602 1652T544 1802Q544 1895 602 1952T755 2010Q850 2010 908 1953T966 1802Q966 1709 908 1652T755 1595ZM755 1671Q813 1671 848 1707T883 1802Q883 1861 848 1897T755 1933Q697 1933 662
1897T627 1802Q627 1743 662 1707T755 1671ZM230 0H45L661 1500H852L1468 0H1282L1119 405H393L230 0ZM456 561H1057L756 1310L456 561Z" />
<glyph unicode="&#xc6;" horiz-adv-x="2143" d="M2038 0H1145L1093 380H436L236 0H35L837 1500H1833L1854 1345H1138L1208 839H1881L1902 684H1228L1301 156H2017L2038 0ZM518 536H1072L958 1370H954L518 536Z" />
<glyph unicode="&#xc7;" horiz-adv-x="1528" d="M1423 192Q1326 95 1196 37T910 -29L890 -77Q964 -84 1009 -126T1054 -236Q1054 -314 993 -364T834 -415Q769 -415 701 -391L735 -307Q780 -326 827 -326Q883 -326 920 -300T957 -233Q957 -190 915 -162T811 -134Q806
-134 801 -134T790 -135L831 -29Q669 -23 533 37T296 202T140 446T85 750Q85 919 143 1061T306 1309T553 1472T865 1530Q1033 1530 1176 1472T1422 1309L1299 1184Q1219 1273 1107 1323T862 1374Q733 1374 624 1328T435 1197T310 998T265 750Q265 615 309 502T434
304T624 173T862 126Q995 126 1107 176T1299 316L1423 192Z" />
<glyph unicode="&#xc8;" horiz-adv-x="1229" d="M700 1666H581L387 2000H543L700 1666ZM155 0V1500H1074V1344H331V840H1033V684H331V156H1084V0H155Z" />
<glyph unicode="&#xc9;" horiz-adv-x="1229" d="M659 1666H540L696 2000H853L659 1666ZM155 0V1500H1074V1344H331V840H1033V684H331V156H1084V0H155Z" />
<glyph unicode="&#xca;" horiz-adv-x="1229" d="M906 1666H783L620 1929L458 1666H335L548 2000H694L906 1666ZM155 0V1500H1074V1344H331V840H1033V684H331V156H1084V0H155Z" />
<glyph unicode="&#xcb;" horiz-adv-x="1229" d="M155 0V1500H1074V1344H331V840H1033V684H331V156H1084V0H155ZM835 1748Q795 1748 770 1773T745 1838Q745 1878 770 1903T835 1928Q875 1928 899 1903T924 1838Q924 1798 900 1773T835 1748ZM395 1748Q355 1748
330 1773T305 1838Q305 1878 330 1903T395 1928Q435 1928 460 1903T485 1838Q485 1798 460 1773T395 1748Z" />
<glyph unicode="&#xcc;" horiz-adv-x="487" d="M294 1666L137 2000H-20L174 1666H294ZM332 1500H156V0H332V1500Z" />
<glyph unicode="&#xcd;" horiz-adv-x="486" d="M304 1666L499 2000H342L185 1666H304ZM331 1500H155V0H331V1500Z" />
<glyph unicode="&#xce;" horiz-adv-x="487" d="M529 1666L316 2000H171L-42 1666H81L243 1929L406 1666H529ZM332 1500H156V0H332V1500Z" />
<glyph unicode="&#xcf;" horiz-adv-x="486" d="M331 1500H155V0H331V1500ZM464 1748Q424 1748 399 1773T374 1838Q374 1878 399 1903T464 1928Q504 1928 528 1903T553 1838Q553 1798 529 1773T464 1748ZM24 1748Q-16 1748 -41 1773T-66 1838Q-66 1878 -41 1903T24
1928Q64 1928 89 1903T114 1838Q114 1798 89 1773T24 1748Z" />
<glyph unicode="&#xd0;" horiz-adv-x="1584" d="M191 0V683H15V812H191V1500H623Q899 1500 1097 1410T1402 1152T1509 750Q1509 517 1403 349T1098 90T623 0H191ZM815 683H367V156H631Q852 156 1008 226T1246 429T1329 750Q1329 938 1247 1071T1008 1274T631 1344H367V812H815V683Z"
/>
<glyph unicode="&#xd1;" horiz-adv-x="1615" d="M1162 1947Q1154 1849 1105 1796T974 1742Q922 1742 886 1761T810 1811Q782 1834 753 1851T685 1868Q586 1868 569 1752H495Q513 1957 683 1957Q742 1957 781 1935T854 1888Q883 1866 912 1850T978 1833Q1072 1833
1089 1947H1162ZM1460 0H1274L331 1225V0H155V1500H341L1284 275V1500H1460V0Z" />
<glyph unicode="&#xd2;" horiz-adv-x="1729" d="M940 1666H821L627 2000H783L940 1666ZM865 -30Q696 -30 554 28T306 191T143 439T85 750Q85 919 143 1061T306 1309T553 1472T865 1530Q1034 1530 1176 1472T1423 1309T1586 1062T1644 750Q1644 582 1586 440T1423
192T1176 28T865 -30ZM865 126Q994 126 1103 173T1294 304T1419 502T1464 750Q1464 884 1420 998T1294 1196T1104 1327T865 1374Q736 1374 627 1328T436 1197T310 998T265 750Q265 616 310 502T436 304T626 173T865 126Z" />
<glyph unicode="&#xd3;" horiz-adv-x="1729" d="M907 1666H788L944 2000H1101L907 1666ZM866 -30Q697 -30 555 28T307 191T143 439T85 750Q85 919 143 1061T306 1309T554 1472T866 1530Q1035 1530 1177 1472T1424 1309T1586 1062T1644 750Q1644 582 1587 440T1424
192T1177 28T866 -30ZM865 126Q994 126 1103 173T1294 304T1419 502T1464 750Q1464 884 1420 998T1294 1196T1104 1327T865 1374Q736 1374 627 1328T436 1197T310 998T265 750Q265 616 310 502T436 304T626 173T865 126Z" />
<glyph unicode="&#xd4;" horiz-adv-x="1729" d="M1150 1666H1027L865 1929L702 1666H580L792 2000H938L1150 1666ZM866 -30Q697 -30 555 28T307 191T143 439T85 750Q85 919 143 1061T306 1309T554 1472T866 1530Q1035 1530 1177 1472T1424 1309T1586 1062T1644
750Q1644 582 1587 440T1424 192T1177 28T866 -30ZM865 126Q994 126 1103 173T1294 304T1419 502T1464 750Q1464 884 1420 998T1294 1196T1104 1327T865 1374Q736 1374 627 1328T436 1197T310 998T265 750Q265 616 310 502T436 304T626 173T865 126Z" />
<glyph unicode="&#xd5;" horiz-adv-x="1729" d="M1198 1947Q1190 1849 1141 1796T1008 1742Q958 1742 921 1762T839 1816Q816 1835 787 1851T720 1868Q621 1868 604 1752H530Q548 1957 718 1957Q777 1957 817 1935T890 1888Q919 1866 948 1850T1014 1833Q1107
1833 1124 1947H1198ZM865 -30Q696 -30 554 28T306 191T143 439T85 750Q85 919 143 1061T306 1309T553 1472T865 1530Q1034 1530 1176 1472T1423 1309T1586 1062T1644 750Q1644 582 1586 440T1423 192T1176 28T865 -30ZM865 126Q994 126 1103 173T1294 304T1419
502T1464 750Q1464 884 1420 998T1294 1196T1104 1327T865 1374Q736 1374 627 1328T436 1197T310 998T265 750Q265 616 310 502T436 304T626 173T865 126Z" />
<glyph unicode="&#xd6;" horiz-adv-x="1729" d="M865 -30Q696 -30 554 28T306 191T143 439T85 750Q85 919 143 1061T306 1309T553 1472T865 1530Q1034 1530 1176 1472T1423 1309T1586 1062T1644 750Q1644 582 1586 440T1423 192T1176 28T865 -30ZM865 126Q994
126 1103 173T1294 304T1419 502T1464 750Q1464 884 1420 998T1294 1196T1104 1327T865 1374Q736 1374 627 1328T436 1197T310 998T265 750Q265 616 310 502T436 304T626 173T865 126ZM1085 1748Q1045 1748 1020 1773T995 1838Q995 1878 1020 1903T1085 1928Q1125
1928 1149 1903T1174 1838Q1174 1798 1150 1773T1085 1748ZM645 1748Q605 1748 580 1773T555 1838Q555 1878 580 1903T645 1928Q685 1928 710 1903T735 1838Q735 1798 710 1773T645 1748Z" />
<glyph unicode="&#xd7;" horiz-adv-x="1006" d="M816 90L503 404L190 90L95 185L409 498L95 811L190 906L503 592L816 906L911 811L597 498L911 185L816 90Z" />
<glyph unicode="&#xd8;" horiz-adv-x="1728" d="M574 -70L492 -35L524 41Q391 101 292 205T139 448T85 750Q85 919 143 1061T306 1309T553 1472T865 1530Q934 1530 999 1520T1125 1490L1157 1568L1239 1535L1207 1458Q1340 1398 1437 1294T1589 1051T1643 750Q1643
582 1586 440T1423 192T1176 28T865 -30Q796 -30 732 -20T607 9L574 -70ZM586 191L1064 1342Q1018 1358 968 1366T864 1374Q735 1374 626 1328T435 1197T309 998T264 750Q264 624 304 516T416 324T586 191ZM864 126Q993 126 1102 173T1293 304T1418 502T1463 750Q1463
876 1424 984T1314 1175T1145 1308L668 157Q714 142 763 134T864 126Z" />
<glyph unicode="&#xd9;" horiz-adv-x="1569" d="M861 1666H741L547 2000H704L861 1666ZM1414 1500V671Q1414 453 1339 296T1123 54T785 -30Q589 -30 448 54T231 295T155 671V1500H331V685Q331 508 385 383T541 192T785 126Q928 126 1029 192T1184 383T1238 685V1500H1414Z"
/>
<glyph unicode="&#xda;" horiz-adv-x="1569" d="M827 1666H708L864 2000H1021L827 1666ZM1414 1500V671Q1414 453 1339 296T1123 54T785 -30Q589 -30 448 54T231 295T155 671V1500H331V685Q331 508 385 383T541 192T785 126Q928 126 1029 192T1184 383T1238 685V1500H1414Z"
/>
<glyph unicode="&#xdb;" horiz-adv-x="1569" d="M1070 1666H947L785 1929L622 1666H500L712 2000H858L1070 1666ZM1414 1500V671Q1414 453 1339 296T1123 54T785 -30Q589 -30 448 54T231 295T155 671V1500H331V685Q331 508 385 383T541 192T785 126Q928 126 1029
192T1184 383T1238 685V1500H1414Z" />
<glyph unicode="&#xdc;" horiz-adv-x="1569" d="M1414 1500V671Q1414 453 1339 296T1122 54T784 -30Q588 -30 447 54T231 295T155 671V1500H331V685Q331 508 385 383T540 192T784 126Q927 126 1028 192T1184 383T1238 685V1500H1414ZM1005 1748Q965 1748 940 1773T915
1838Q915 1878 940 1903T1005 1928Q1045 1928 1069 1903T1094 1838Q1094 1798 1070 1773T1005 1748ZM565 1748Q525 1748 500 1773T475 1838Q475 1878 500 1903T565 1928Q605 1928 630 1903T655 1838Q655 1798 630 1773T565 1748Z" />
<glyph unicode="&#xdd;" horiz-adv-x="1390" d="M737 1666H618L775 2000H932L737 1666ZM782 0H606V641L25 1500H238L694 788L1152 1500H1365L782 639V0Z" />
<glyph unicode="&#xde;" horiz-adv-x="1211" d="M320 0H155V1500H320V1186H587Q737 1186 847 1133T1016 983T1076 751Q1076 617 1016 519T847 368T587 314H320V0ZM320 461H560Q726 461 817 537T908 750Q908 887 817 962T560 1038H320V461Z" />
<glyph unicode="&#xdf;" horiz-adv-x="1166" d="M331 0H155V1111Q155 1236 208 1330T356 1477T577 1530Q699 1530 793 1482T941 1350T995 1158Q995 1078 968 1022T901 928T826 862Q798 840 779 821T759 781Q759 765 777 748T844 699Q891 669 931 637T1000 568T1045
485T1061 379Q1061 263 1000 173T833 31T591 -20L552 132Q647 132 721 167T837 265T880 407Q880 470 855 512T791 583T712 637Q663 668 625 700T587 786Q587 832 615 862T682 920Q714 944 744 971T794 1038T814 1137Q814 1207 784 1260T701 1344T578 1374Q465 1374
398 1295T331 1081V0Z" />
<glyph unicode="&#xe0;" horiz-adv-x="1097" d="M636 1166H516L322 1500H479L636 1166ZM962 0H821L810 132Q755 61 670 21T480 -20Q372 -20 287 22T154 139T105 307Q105 406 157 481T300 600T506 643Q581 643 659 625T798 574V616Q798 696 758 752T651 839T503
870Q433 870 360 845T220 766L166 907Q253 963 349 991T539 1020Q669 1020 763 968T910 819T962 590V0ZM506 130Q587 130 653 166T759 265T798 407V415Q748 458 681 481T539 505Q424 505 350 451T275 314Q275 262 305 220T388 154T506 130Z" />
<glyph unicode="&#xe1;" horiz-adv-x="1097" d="M581 1166H462L619 1500H776L581 1166ZM962 0H821L810 132Q755 61 670 21T480 -20Q372 -20 287 22T154 139T105 307Q105 406 157 481T300 600T506 643Q581 643 659 625T798 574V616Q798 696 758 752T651 839T503
870Q433 870 360 845T220 766L166 907Q253 963 349 991T539 1020Q669 1020 763 968T910 819T962 590V0ZM506 130Q587 130 653 166T759 265T798 407V415Q748 458 681 481T539 505Q424 505 350 451T275 314Q275 262 305 220T388 154T506 130Z" />
<glyph unicode="&#xe2;" horiz-adv-x="1097" d="M844 1166H721L559 1429L396 1166H274L486 1500H632L844 1166ZM962 0H821L810 132Q755 61 670 21T480 -20Q372 -20 287 22T154 139T105 307Q105 406 157 481T300 600T506 643Q581 643 659 625T798 574V616Q798 696
758 752T651 839T503 870Q433 870 360 845T220 766L166 907Q253 963 349 991T539 1020Q669 1020 763 968T910 819T962 590V0ZM506 130Q587 130 653 166T759 265T798 407V415Q748 458 681 481T539 505Q424 505 350 451T275 314Q275 262 305 220T388 154T506 130Z"
/>
<glyph unicode="&#xe3;" horiz-adv-x="1097" d="M883 1447Q875 1349 826 1296T693 1242Q643 1242 606 1262T525 1316Q500 1336 472 1352T405 1368Q306 1368 289 1252H215Q233 1457 403 1457Q462 1457 502 1436T575 1388Q604 1366 633 1350T699 1333Q792 1333 809
1447H883ZM962 0H821L810 132Q755 61 670 21T480 -20Q372 -20 287 22T154 139T105 307Q105 406 157 481T300 600T506 643Q581 643 659 625T798 574V616Q798 696 758 752T651 839T503 870Q433 870 360 845T220 766L166 907Q253 963 349 991T539 1020Q669 1020 763
968T910 819T962 590V0ZM506 130Q587 130 652 166T757 265T798 407V415Q748 458 681 481T539 505Q424 505 350 451T275 314Q275 262 305 220T388 154T506 130Z" />
<glyph unicode="&#xe4;" horiz-adv-x="1097" d="M962 0H821L810 132Q755 61 670 21T480 -20Q372 -20 287 22T154 139T105 307Q105 406 157 481T300 600T506 643Q581 643 659 625T798 574V616Q798 696 758 752T651 839T503 870Q433 870 360 845T220 766L166 907Q253
963 349 991T539 1020Q669 1020 763 968T910 819T962 590V0ZM509 130Q586 130 650 162T754 254T798 398V415Q743 458 675 481T535 505Q424 505 350 451T275 314Q275 262 305 220T389 154T509 130ZM789 1248Q749 1248 724 1273T699 1338Q699 1378 724 1403T789 1428Q829
1428 853 1403T878 1338Q878 1298 854 1273T789 1248ZM349 1248Q309 1248 284 1273T259 1338Q259 1378 284 1403T349 1428Q389 1428 414 1403T439 1338Q439 1298 414 1273T349 1248Z" />
<glyph unicode="&#xe5;" horiz-adv-x="1097" d="M559 1106Q464 1106 406 1163T348 1313Q348 1406 406 1463T559 1520Q654 1520 712 1463T770 1313Q770 1220 712 1163T559 1106ZM559 1182Q617 1182 652 1218T688 1313Q688 1372 653 1408T559 1444Q501 1444 466
1408T431 1313Q431 1254 466 1218T559 1182ZM962 0H821L810 132Q755 61 670 21T480 -20Q372 -20 287 22T154 139T105 307Q105 406 157 481T300 600T506 643Q581 643 659 625T798 574V616Q798 696 758 752T651 839T503 870Q433 870 360 845T220 766L166 907Q253
963 349 991T539 1020Q669 1020 763 968T910 819T962 590V0ZM506 130Q587 130 653 166T759 265T798 407V415Q748 458 681 481T539 505Q424 505 350 451T275 314Q275 262 305 220T388 154T506 130Z" />
<glyph unicode="&#xe6;" horiz-adv-x="1888" d="M1755 120Q1572 -20 1343 -20Q1198 -20 1080 38T890 200Q856 133 799 84T666 7T501 -20Q387 -20 298 23T157 141T105 313Q105 410 157 484T303 601T517 643Q669 643 798 573V580Q794 710 712 790T501 870Q352 870
220 766L166 907Q252 963 346 991T534 1020Q659 1020 752 969T898 823Q967 917 1074 968T1310 1020Q1461 1020 1574 951T1750 756T1813 463V432H974Q992 342 1046 274T1181 167T1362 128Q1533 128 1679 241L1755 120ZM968 560H1661Q1651 654 1605 724T1486 833T1317
872Q1222 872 1147 833T1025 723T968 560ZM798 415Q736 461 671 483T536 505Q460 505 401 481T309 415T275 316Q275 263 306 221T391 154T518 130Q594 130 657 158T759 243T798 381V415Z" />
<glyph unicode="&#xe7;" horiz-adv-x="1061" d="M986 144Q920 71 831 30T637 -19L612 -77Q686 -84 731 -126T776 -236Q776 -314 715 -364T556 -415Q491 -415 423 -391L457 -307Q502 -326 549 -326Q605 -326 642 -300T679 -233Q679 -190 637 -162T533 -134Q528
-134 523 -134T512 -135L557 -19Q418 -9 309 60T138 244T75 500Q75 649 143 766T330 952T598 1020Q712 1020 812 978T985 857L887 754Q834 810 761 840T605 870Q500 870 419 823T291 692T244 501Q244 393 290 309T418 178T605 130Q687 130 761 160T887 246L986
144Z" />
<glyph unicode="&#xe8;" horiz-adv-x="1165" d="M1032 123Q846 -20 622 -20Q466 -20 342 50T147 240T75 513Q75 659 141 773T322 954T583 1020Q733 1020 847 948T1026 748T1090 452V420H253Q271 332 325 267T461 166T642 130Q814 130 956 243L1032 123ZM247 560H935Q924
653 878 722T758 831T592 870Q499 870 425 831T304 723T247 560ZM670 1166H550L356 1500H512L670 1166Z" />
<glyph unicode="&#xe9;" horiz-adv-x="1165" d="M1032 123Q846 -20 622 -20Q466 -20 342 50T147 240T75 513Q75 659 141 773T322 954T583 1020Q733 1020 847 948T1026 748T1090 452V420H253Q271 332 325 267T461 166T642 130Q814 130 956 243L1032 123ZM247 560H935Q924
653 878 722T758 831T592 870Q499 870 425 831T304 723T247 560ZM645 1166H526L683 1500H840L645 1166Z" />
<glyph unicode="&#xea;" horiz-adv-x="1165" d="M1032 123Q846 -20 622 -20Q466 -20 342 50T147 240T75 513Q75 659 141 773T322 954T583 1020Q733 1020 847 948T1026 748T1090 452V420H253Q271 332 325 267T461 166T642 130Q814 130 956 243L1032 123ZM247 560H935Q924
653 878 722T758 831T592 870Q499 870 425 831T304 723T247 560ZM868 1166H745L582 1429L420 1166H297L509 1500H655L868 1166Z" />
<glyph unicode="&#xeb;" horiz-adv-x="1165" d="M1032 123Q846 -20 622 -20Q466 -20 342 50T147 240T75 513Q75 659 141 773T322 954T583 1020Q733 1020 847 948T1026 748T1090 452V420H253Q271 332 325 267T461 166T642 130Q814 130 956 243L1032 123ZM247 560H935Q924
653 878 722T758 831T592 870Q499 870 425 831T304 723T247 560ZM803 1248Q763 1248 738 1273T713 1338Q713 1378 738 1403T803 1428Q843 1428 867 1403T892 1338Q892 1298 868 1273T803 1248ZM363 1248Q323 1248 298 1273T273 1338Q273 1378 298 1403T363 1428Q403
1428 428 1403T453 1338Q453 1298 428 1273T363 1248Z" />
<glyph unicode="&#xec;" horiz-adv-x="475" d="M310 1166H190L-4 1500H153L310 1166ZM320 0H155V1000H320V0Z" />
<glyph unicode="&#xed;" horiz-adv-x="474" d="M284 1166H165L321 1500H478L284 1166ZM318 0H155V1000H318V0Z" />
<glyph unicode="&#xee;" horiz-adv-x="475" d="M523 1166H400L238 1429L75 1166H-48L165 1500H311L523 1166ZM320 0H156V1000H320V0Z" />
<glyph unicode="&#xef;" horiz-adv-x="475" d="M320 0H155V1000H320V0ZM458 1248Q418 1248 393 1273T368 1338Q368 1378 393 1403T458 1428Q498 1428 522 1403T547 1338Q547 1298 523 1273T458 1248ZM18 1248Q-22 1248 -47 1273T-72 1338Q-72 1378 -47 1403T18
1428Q58 1428 83 1403T108 1338Q108 1298 83 1273T18 1248Z" />
<glyph unicode="&#xf0;" horiz-adv-x="1155" d="M1003 1290L810 1211Q938 1060 1009 882T1080 522Q1080 354 1021 230T853 38T596 -30Q454 -30 343 32T169 201T105 447Q105 578 163 679T323 839T556 897Q665 897 755 855T907 739Q873 848 811 953T664 1151L313
1006L282 1081L604 1213Q554 1261 499 1304T383 1385L465 1500Q547 1453 619 1396T753 1274L972 1364L1003 1290ZM588 125Q675 125 744 167T854 282T894 446Q894 537 854 607T745 717T585 758Q497 758 430 719T324 610T285 450Q285 358 324 284T433 168T588 125Z"
/>
<glyph unicode="&#xf1;" horiz-adv-x="1226" d="M942 1447Q934 1349 885 1296T754 1242Q702 1242 666 1261T590 1311Q562 1334 533 1351T465 1368Q366 1368 349 1252H275Q293 1457 463 1457Q522 1457 561 1435T634 1388Q663 1366 692 1350T758 1333Q852 1333 869
1447H942ZM1091 0H927V558Q927 700 846 785T631 870Q492 870 406 779T319 538V0H155V1000H298L304 838Q359 926 449 973T661 1020Q860 1020 975 900T1091 571V0Z" />
<glyph unicode="&#xf2;" horiz-adv-x="1195" d="M674 1166H555L361 1500H517L674 1166ZM599 -20Q450 -20 331 48T144 234T75 500Q75 649 143 766T331 952T599 1020Q748 1020 866 952T1052 767T1120 500Q1120 352 1052 234T866 48T599 -20ZM598 128Q699 128 779
177T905 310T952 501Q952 607 906 691T779 824T598 873Q497 873 417 824T290 691T243 501Q243 395 289 311T416 177T598 128Z" />
<glyph unicode="&#xf3;" horiz-adv-x="1195" d="M640 1166H521L678 1500H835L640 1166ZM599 -20Q450 -20 331 48T144 234T75 500Q75 649 143 766T331 952T599 1020Q748 1020 866 952T1052 767T1120 500Q1120 352 1052 234T866 48T599 -20ZM598 128Q699 128 779
177T905 310T952 501Q952 607 906 691T779 824T598 873Q497 873 417 824T290 691T243 501Q243 395 289 311T416 177T598 128Z" />
<glyph unicode="&#xf4;" horiz-adv-x="1195" d="M884 1166H761L598 1429L436 1166H313L526 1500H671L884 1166ZM599 -20Q450 -20 331 48T144 234T75 500Q75 649 143 766T331 952T599 1020Q748 1020 866 952T1052 767T1120 500Q1120 352 1052 234T866 48T599 -20ZM598
128Q699 128 779 177T905 310T952 501Q952 607 906 691T779 824T598 873Q497 873 417 824T290 691T243 501Q243 395 289 311T416 177T598 128Z" />
<glyph unicode="&#xf5;" horiz-adv-x="1195" d="M930 1447Q922 1349 873 1296T742 1242Q690 1242 654 1261T578 1311Q550 1334 521 1351T453 1368Q354 1368 337 1252H263Q281 1457 451 1457Q510 1457 549 1435T622 1388Q651 1366 680 1350T746 1333Q840 1333 857
1447H930ZM599 -20Q450 -20 331 48T144 234T75 500Q75 649 143 766T331 952T599 1020Q748 1020 866 952T1052 767T1120 500Q1120 352 1052 234T866 48T599 -20ZM598 128Q699 128 779 177T905 310T952 501Q952 607 906 691T779 824T598 873Q497 873 417 824T290
691T243 501Q243 395 289 311T416 177T598 128Z" />
<glyph unicode="&#xf6;" horiz-adv-x="1195" d="M599 -20Q450 -20 331 48T144 233T75 500Q75 648 143 765T331 951T599 1020Q748 1020 866 952T1052 766T1120 500Q1120 351 1052 234T866 48T599 -20ZM598 128Q699 128 779 177T905 310T952 501Q952 606 906 690T779
823T598 872Q497 872 417 823T290 690T243 501Q243 394 289 310T416 177T598 128ZM818 1248Q778 1248 753 1273T728 1338Q728 1378 753 1403T818 1428Q858 1428 882 1403T907 1338Q907 1298 883 1273T818 1248ZM378 1248Q338 1248 313 1273T288 1338Q288 1378 313
1403T378 1428Q418 1428 443 1403T468 1338Q468 1298 443 1273T378 1248Z" />
<glyph unicode="&#xf7;" horiz-adv-x="1110" d="M555 780Q512 780 484 808T456 879Q456 921 484 950T555 980Q597 980 626 951T656 879Q656 837 627 809T555 780ZM955 416H155V544H955V416ZM555 -20Q513 -20 485 9T456 80Q456 121 484 150T555 180Q597 180 626
151T655 80Q655 38 626 9T555 -20Z" />
<glyph unicode="&#xf8;" horiz-adv-x="1195" d="M416 -76L323 -40L354 36Q227 99 151 221T75 500Q75 649 143 766T331 952T599 1020Q640 1020 678 1015T752 999L779 1064L872 1027L846 963Q971 899 1045 777T1120 500Q1120 352 1052 234T866 48T599 -20Q559 -20
521 -15T447 0L416 -76ZM413 179L695 860Q646 873 598 873Q497 873 417 824T290 691T243 501Q243 395 289 311T413 179ZM598 128Q699 128 779 177T906 310T953 501Q953 605 908 688T786 819L505 140Q550 128 598 128Z" />
<glyph unicode="&#xf9;" horiz-adv-x="1226" d="M709 1166H590L396 1500H552L709 1166ZM1071 0H927L921 162Q866 74 777 27T565 -20Q366 -20 251 100T135 430V1000H299V442Q299 300 379 215T594 130Q734 130 820 222T907 462V1000H1071V0Z" />
<glyph unicode="&#xfa;" horiz-adv-x="1226" d="M555 1166H436L592 1500H749L555 1166ZM1071 0H927L921 162Q866 74 777 27T565 -20Q366 -20 251 100T135 430V1000H299V442Q299 300 379 215T594 130Q734 130 820 222T907 462V1000H1071V0Z" />
<glyph unicode="&#xfb;" horiz-adv-x="1226" d="M878 1166H755L592 1429L430 1166H307L520 1500H665L878 1166ZM1071 0H927L921 162Q866 74 777 27T565 -20Q366 -20 251 100T135 430V1000H299V442Q299 300 379 215T594 130Q734 130 820 222T907 462V1000H1071V0Z" />
<glyph unicode="&#xfc;" horiz-adv-x="1226" d="M1071 0H927L921 162Q866 74 777 27T565 -20Q366 -20 251 100T135 430V1000H299V442Q299 300 379 215T594 130Q734 130 820 222T907 462V1000H1071V0ZM834 1248Q794 1248 769 1273T744 1338Q744 1378 769 1403T834
1428Q874 1428 898 1403T923 1338Q923 1298 899 1273T834 1248ZM394 1248Q354 1248 329 1273T304 1338Q304 1378 329 1403T394 1428Q434 1428 459 1403T484 1338Q484 1298 459 1273T394 1248Z" />
<glyph unicode="&#xfd;" horiz-adv-x="1177" d="M625 1166H506L663 1500H820L625 1166ZM502 -500H324L534 8L55 1000H236L612 197L945 1000H1122L502 -500Z" />
<glyph unicode="&#xfe;" horiz-adv-x="1285" d="M319 -500H155V1500H319V796Q383 900 488 960T724 1020Q863 1020 973 952T1146 767T1210 500Q1210 352 1147 234T974 48T725 -20Q595 -20 490 41T319 205V-500ZM681 128Q784 128 865 176T994 309T1042 499Q1042
606 995 690T866 824T681 873Q582 873 503 828T375 705T319 527V472Q326 373 374 295T502 173T681 128Z" />
<glyph unicode="&#xff;" horiz-adv-x="1177" d="M502 -500H323L533 8L55 1000H236L612 197L944 1000H1122L502 -500ZM829 1248Q789 1248 764 1273T739 1338Q739 1378 764 1403T829 1428Q869 1428 893 1403T918 1338Q918 1298 894 1273T829 1248ZM389 1248Q349
1248 324 1273T299 1338Q299 1378 324 1403T389 1428Q429 1428 454 1403T479 1338Q479 1298 454 1273T389 1248Z" />
<glyph unicode="&#x2013;" horiz-adv-x="1330" d="M1175 439H155V568H1175V439Z" />
<glyph unicode="&#x2014;" horiz-adv-x="2350" d="M2195 439H155V568H2195V439Z" />
<glyph unicode="&#x2018;" horiz-adv-x="532" d="M286 1070H155L280 1520H387L286 1070Z" />
<glyph unicode="&#x2019;" horiz-adv-x="532" d="M252 1070H155L256 1520H377L252 1070Z" />
<glyph unicode="&#x201a;" horiz-adv-x="470" d="M236 -240H115L195 180H345L236 -240Z" />
<glyph unicode="&#x201c;" horiz-adv-x="893" d="M276 1070H155L280 1520H377L276 1070ZM637 1070H516L641 1520H738L637 1070Z" />
<glyph unicode="&#x201d;" horiz-adv-x="892" d="M612 1070H516L617 1520H737L612 1070ZM252 1070H155L256 1520H377L252 1070Z" />
<glyph unicode="&#x201e;" horiz-adv-x="833" d="M599 -240H478L558 180H708L599 -240ZM236 -240H115L195 180H345L236 -240Z" />
<glyph unicode="&#x2022;" horiz-adv-x="505" d="M253 553Q189 553 147 594T105 700Q105 765 147 806T253 848Q318 848 359 807T400 700Q400 635 359 594T253 553Z" />
<glyph unicode="&#x2039;" horiz-adv-x="729" d="M574 112H413L75 509L413 906H574L231 509L574 112Z" />
<glyph unicode="&#x203a;" horiz-adv-x="729" d="M315 112H155L497 509L155 906H315L654 509L315 112Z" />
</font>
</defs>
</svg>
